<svg height="512" viewBox="0 0 64 64" width="512" xmlns="http://www.w3.org/2000/svg"><g id="ID_card" data-name="ID card"><path d="m3 43v4a2.006 2.006 0 0 0 2 2h54a2.006 2.006 0 0 0 2-2v-4z" fill="#d1d3d4"/><path d="m61 13v30h-58v-30a2.006 2.006 0 0 1 2-2h54a2.006 2.006 0 0 1 2 2z" fill="#a7a9ac"/><path d="m6 14h52v26h-52z" fill="#414042"/><path d="m31 40h27v-26c0 14.371-12.076 26-27 26z" fill="#3a3a3b"/><path d="m26 49h12v6h-12z" fill="#a7a9ac"/><path d="m26 49h12v2h-12z" fill="#808285"/><path d="m21 55a2 2 0 0 0 -2 2v4h26v-4a2 2 0 0 0 -2-2z" fill="#d1d3d4"/><rect fill="#ffcd00" height="33" rx="2" width="30" x="10" y="3"/><path d="m53 7a4 4 0 0 0 -8 0v2h8z" fill="#f1f2f2"/><path d="m49 13h4v-2-2h-8v2 2z" fill="#ff9811"/><path d="m45 30 4 6 4-6h-4z" fill="#d1d3d4"/><path d="m45 13h4v17h-4z" fill="#d80027"/><path d="m49 30h4v-16-1h-4z" fill="#ebbf00"/><circle cx="25" cy="10" fill="#2488ff" r="3"/><path d="m31 18a4 4 0 0 0 -4-4h-4a4 4 0 0 0 -4 4v4h12z" fill="#006df0"/><path d="m55 45h-2a1 1 0 0 0 0 2h2a1 1 0 0 0 0-2z" fill="#5eac24"/><path d="m14 27h22a1 1 0 0 0 0-2h-22a1 1 0 0 0 0 2z" fill="#f1f2f2"/><path d="m14 31h22a1 1 0 0 0 0-2h-22a1 1 0 0 0 0 2z" fill="#f1f2f2"/><path d="m45 9h8v2h-8z" fill="#ee8700"/><path d="m50.109 34.337a1.993 1.993 0 0 0 -2.218 0l1.109 1.663z" fill="#a7a9ac"/></g></svg>