<svg id="Capa_1" enable-background="new 0 0 512 512" height="512" viewBox="0 0 512 512" width="512" xmlns="http://www.w3.org/2000/svg"><g><path d="m480.107 58.47h-224.107l-20.016 351.291 244.123-20.016z" fill="#b4d2d7"/><path d="m31.893 58.47v331.275l224.107 20.016v-351.291z" fill="#e1ebf0"/><path d="m450.107 88.47h-194.107l-20.016 135.637 20.016 135.638h194.107z" fill="#03232e"/><path d="m61.893 88.47h194.107v271.274h-194.107z" fill="#373c41"/><path d="m512 389.745h-256l-20.016 31.892 20.016 31.893h256z" fill="#e1ebf0"/><path d="m0 389.745h256v63.785h-256z" fill="#fff5f5"/><g fill="#e1ebf0"><path d="m286.024 209.108h134.059v30h-134.059z"/><path d="m286.024 269.156h134.059v30h-134.059z"/><path d="m286.024 149.059h134.059v30h-134.059z"/></g><path d="m158.946 207.05c-37.02 0-67.03 30.01-67.03 67.03v40.054l134.06.002v-40.056c0-37.019-30.01-67.03-67.03-67.03z" fill="#00cc76"/><circle cx="158.946" cy="179.322" fill="#ffdecf" r="45.243"/></g></svg>