<?xml version="1.0" encoding="utf-8"?>
<!-- Generator: Adobe Illustrator 21.1.0, SVG Export Plug-In . SVG Version: 6.00 Build 0)  -->
<svg version="1.1" id="Layer_1" xmlns="http://www.w3.org/2000/svg" xmlns:xlink="http://www.w3.org/1999/xlink" x="0px" y="0px"
	 viewBox="0 0 464 464" style="enable-background:new 0 0 464 464;" xml:space="preserve">
<style type="text/css">
	.st0{opacity:0.11;fill:#0076B5;}
	.st1{fill:#0094D4;}
	.st2{fill:#F79B4A;}
	.st3{fill:#0076B5;}
	.st4{fill:#58565C;}
	.st5{fill:#49484D;}
	.st6{fill:#00BCE7;}
	.st7{fill:#FFD151;}
	.st8{fill:#FF2551;}
	.st9{fill:#B6E3EE;}
</style>
<circle class="st0" cx="232.8" cy="234.1" r="226.1"/>
<g>
	<path class="st1" d="M168.2,215.1v-53.6c0-4.9,4-8.9,8.9-8.9h178.8c4.9,0,8.9,4,8.9,8.9v107.3c0,4.9-4,8.9-8.9,8.9h-62.6
		L168.2,215.1z"/>
	<path class="st2" d="M347,237.9h-17.9c-2.2,0-4,1.8-4,4v17.9c0,2.2,1.8,4,4,4H347c2.2,0,4-1.8,4-4v-17.9
		C351,239.7,349.2,237.9,347,237.9z M342.9,255.8h-9.8V246h9.8V255.8z"/>
	<path class="st3" d="M355.9,152.5h-10.8c4.9,0,8.9,4,8.9,8.9v107.3c0,4.9-4,8.9-8.9,8.9h10.8c4.9,0,8.9-4,8.9-8.9V161.5
		C364.8,156.5,360.8,152.5,355.9,152.5z"/>
	<rect x="168.2" y="174.9" class="st4" width="196.7" height="22.3"/>
	<rect x="354" y="174.9" class="st5" width="10.8" height="22.3"/>
	<path class="st3" d="M295.2,204.3h-127v10.8l125.1,62.6h10.8v-64.4C304.1,208.3,300.1,204.3,295.2,204.3z"/>
	<path class="st6" d="M284.4,215.1c4.9,0,8.9,4,8.9,8.9v107.3c0,4.9-4,8.9-8.9,8.9H105.6c-4.9,0-8.9-4-8.9-8.9V224.1
		c0-4.9,4-8.9,8.9-8.9H284.4z"/>
	<path class="st1" d="M284.4,215.1h-10.8c4.9,0,8.9,4,8.9,8.9v107.3c0,4.9-4,8.9-8.9,8.9h10.8c4.9,0,8.9-4,8.9-8.9V224.1
		C293.3,219.1,289.3,215.1,284.4,215.1z"/>
	<g>
		<path class="st7" d="M151.5,268.7h-33.8c-1.8,0-3.2-1.4-3.2-3.2v-29.3c0-1.8,1.4-3.2,3.2-3.2h33.8c1.8,0,3.2,1.4,3.2,3.2v29.3
			C154.8,267.3,153.3,268.7,151.5,268.7z"/>
		<path class="st7" d="M244.2,292.7c3.3-3.7,8.1-6.1,13.4-6.1c9.9,0,17.9,8,17.9,17.9c0,9.9-8,17.9-17.9,17.9
			c-5.3,0-10.1-2.3-13.4-6.1V292.7z"/>
	</g>
	<circle class="st8" cx="230.7" cy="304.5" r="17.9"/>
	<g>
		<path class="st7" d="M123.5,287h-8.9c-2.2,0-4,1.8-4,4c0,2.2,1.8,4,4,4h8.9c2.2,0,4-1.8,4-4C127.5,288.9,125.7,287,123.5,287z"/>
		<path class="st7" d="M145.8,287h-8.9c-2.2,0-4,1.8-4,4c0,2.2,1.8,4,4,4h8.9c2.2,0,4-1.8,4-4C149.9,288.9,148.1,287,145.8,287z"/>
		<path class="st7" d="M168.2,287h-8.9c-2.2,0-4,1.8-4,4c0,2.2,1.8,4,4,4h8.9c2.2,0,4-1.8,4-4C172.2,288.9,170.4,287,168.2,287z"/>
		<path class="st7" d="M190.5,287h-8.9c-2.2,0-4,1.8-4,4c0,2.2,1.8,4,4,4h8.9c2.2,0,4-1.8,4-4C194.6,288.9,192.8,287,190.5,287z"/>
	</g>
	<g>
		<path class="st4" d="M141.4,304.9h-26.8c-2.2,0-4,1.8-4,4c0,2.2,1.8,4,4,4h26.8c2.2,0,4-1.8,4-4
			C145.4,306.7,143.6,304.9,141.4,304.9z"/>
		<path class="st4" d="M181.6,304.9h-26.8c-2.2,0-4,1.8-4,4c0,2.2,1.8,4,4,4h26.8c2.2,0,4-1.8,4-4
			C185.6,306.7,183.8,304.9,181.6,304.9z"/>
	</g>
	<path class="st9" d="M141.4,318.3h-26.8c-2.2,0-4,1.8-4,4c0,2.2,1.8,4,4,4h26.8c2.2,0,4-1.8,4-4
		C145.4,320.1,143.6,318.3,141.4,318.3z"/>
	<g>
		<path class="st2" d="M154.8,246.8h-13.4c-2.2,0-4,1.8-4,4v17.9h8.1v-13.8h9.4L154.8,246.8L154.8,246.8z"/>
		<path class="st2" d="M127.9,246.8h-13.4v8.1h9.4v13.8h8.1v-17.9C132,248.6,130.2,246.8,127.9,246.8z"/>
	</g>
</g>
</svg>
