<?xml version="1.0" encoding="utf-8"?>
<!-- Generator: Adobe Illustrator 21.1.0, SVG Export Plug-In . SVG Version: 6.00 Build 0)  -->
<svg version="1.1" id="Layer_1" xmlns="http://www.w3.org/2000/svg" xmlns:xlink="http://www.w3.org/1999/xlink" x="0px" y="0px"
	 viewBox="0 0 464 464" style="enable-background:new 0 0 464 464;" xml:space="preserve">
<style type="text/css">
	.st0{opacity:0.11;fill:#3BB54A;}
	.st1{fill:#0E9347;}
	.st2{fill:#3BB54A;}
	.st3{fill:#0D8944;}
	.st4{fill:#FFCA5D;}
	.st5{fill:#F6B545;}
	.st6{fill:#FFCB5B;}
	.st7{fill:#FFE27A;}
	.st8{fill:#F19920;}
	.st9{fill:#E78825;}
</style>
<g>
	<circle class="st0" cx="232" cy="232.2" r="228.2"/>
	<g>
		<path class="st1" d="M319.8,257.3l-206.2,29.9c-5.7,0.8-11-3.1-11.8-8.8L85.3,164.9c-0.8-5.7,3.1-11,8.8-11.8l206.2-29.9
			c5.7-0.8,11,3.1,11.8,8.8l16.4,113.4C329.4,251.1,325.4,256.4,319.8,257.3z"/>
		<path class="st2" d="M297.7,249.9l-165,23.9c-1.6-11.3-12.3-19.3-23.6-17.6L98.6,184c11.3-1.6,19.3-12.3,17.6-23.6l165-23.9
			c1.6,11.3,12.3,19.3,23.6,17.6l10.5,72.2C304,228,296,238.6,297.7,249.9z"/>
		<g>
			<path class="st1" d="M288,219.8c-11.9,1.7-21.9,9-26.7,19.1c-5.5-1.8-11.5-3.1-18.2-2.1c-14.4,2.1-25.6,12.1-29.5,25.3l84-12.2
				c-1.6-11.3,5.9-21.4,17.1-23.5C307.2,221.2,297.8,218.3,288,219.8z"/>
			
				<ellipse transform="matrix(0.9897 -0.1433 0.1433 0.9897 -27.2675 31.7784)" class="st1" cx="207" cy="205.2" rx="41.7" ry="46.9"/>
			
				<ellipse transform="matrix(0.9897 -0.1433 0.1433 0.9897 -29.1899 23.0048)" class="st1" cx="145.1" cy="214.1" rx="10.4" ry="10.4"/>
			
				<ellipse transform="matrix(0.9897 -0.1433 0.1433 0.9897 -25.345 40.552)" class="st1" cx="268.8" cy="196.2" rx="10.4" ry="10.4"/>
		</g>
		<path class="st1" d="M342.4,319.8H134c-5.7,0-10.4-4.7-10.4-10.4V194.8c0-5.7,4.7-10.4,10.4-10.4h208.4c5.7,0,10.4,4.7,10.4,10.4
			v114.6C352.8,315.1,348.1,319.8,342.4,319.8z"/>
		<path class="st3" d="M316.4,278.1c-12,0-22.9,5.7-29.2,15.1c-5.2-2.6-10.9-4.7-17.7-4.7c-18.2,0-33.3,13.5-35.9,31.3h108.9
			c5.2,0,9.4-3.6,10.4-8.9C350.7,292.7,335.1,278.1,316.4,278.1z"/>
		<path class="st2" d="M321.6,309.4H154.9c0-11.5-9.4-20.8-20.8-20.8v-72.9c11.5,0,20.8-9.4,20.8-20.8h166.7
			c0,11.5,9.4,20.8,20.8,20.8v72.9C330.9,288.5,321.6,297.9,321.6,309.4z"/>
		<g>
			<path class="st1" d="M316.4,278.1c-12,0-22.9,5.7-29.2,15.1c-5.2-2.6-10.9-4.7-17.7-4.7c-14.6,0-27.1,8.3-32.8,20.8h84.9
				c0-11.5,8.9-20.3,20.3-20.8C335.1,282.3,326.3,278.1,316.4,278.1z"/>
			<ellipse class="st1" cx="238.2" cy="252.1" rx="41.7" ry="46.9"/>
			<circle class="st1" cx="175.7" cy="252.1" r="10.4"/>
			<circle class="st1" cx="300.7" cy="252.1" r="10.4"/>
		</g>
		<circle class="st4" cx="259.1" cy="325" r="36.5"/>
		<circle class="st5" cx="305.9" cy="314.6" r="36.5"/>
		<path class="st6" d="M305.9,278.1c-20.3,0-36.5,16.1-36.5,36.5s16.1,36.5,36.5,36.5c20.3,0,36.5-16.1,36.5-36.5
			S326.3,278.1,305.9,278.1z M305.9,340.6c-14.6,0-26-11.5-26-26s11.5-26,26-26c14.6,0,26,11.5,26,26S320.5,340.6,305.9,340.6z"/>
		<path class="st5" d="M305.9,350.5L305.9,350.5c20.3,0.5,36.5-16.1,36.5-35.9h-0.5c-2.6,0-4.7,2.1-5.2,4.7
			c-1,7.3-4.7,14.1-9.9,18.8c-4.2,4.2-9.9,6.8-16.1,7.8C308,345.8,305.9,347.9,305.9,350.5z"/>
		<path class="st7" d="M305.9,278.6L305.9,278.6c-20.3-0.5-36.5,16.1-36.5,35.9h0.5c2.6,0,4.7-2.1,5.2-4.7c1-7.3,4.7-14.1,9.9-18.8
			c4.2-4.2,9.9-6.8,16.1-7.8C303.9,283.3,305.9,281.2,305.9,278.6z"/>
		<path class="st8" d="M283.5,318.2c0-14.6,11.5-26,26-26c6.3,0,12,2.1,16.7,6.3c-5.2-6.3-12-9.9-20.3-9.9c-14.6,0-26,11.5-26,26
			c0,8.3,3.6,15.1,9.4,19.8C285.6,330.2,283.5,324.5,283.5,318.2z"/>
		<path class="st6" d="M321.6,330.7c-0.5,0-1,0-1.6-0.5c-1-1-1-2.6,0-3.6c3.1-3.1,4.7-7.8,4.7-12c0-1.6,1-2.6,2.6-2.6s2.6,1,2.6,2.6
			c0,5.7-2.1,11.5-5.7,15.6C323.1,330.7,322.1,330.7,321.6,330.7z"/>
		<g>
			<path class="st8" d="M305.9,330.2c-3.1,0-5.2-2.1-5.2-5.2v-20.8c0-3.1,2.1-5.2,5.2-5.2c3.1,0,5.2,2.1,5.2,5.2V325
				C311.1,328.1,309.1,330.2,305.9,330.2z"/>
			<path class="st8" d="M325.2,345.3c-3.6-13-13-23.4-25-28.1c-2.1-12-9.9-22.4-19.8-28.7c-6.3,6.8-10.4,15.6-10.4,25.5
				c0,20.3,16.1,36.5,36.5,36.5C313.2,351,319.5,348.9,325.2,345.3z"/>
		</g>
		<g>
			<path class="st9" d="M289.3,334.4c-3.6-4.7-6.3-10.4-6.3-16.7c0-7.3,3.1-14.1,8.3-18.8c-1-1.6-2.1-2.6-3.1-3.6
				c-5.2,4.7-8.3,11.5-8.3,19.3C279.9,322.9,283.5,329.7,289.3,334.4z"/>
			<path class="st9" d="M300.7,317.7v7.3c0,3.1,2.1,5.2,5.2,5.2c3.1,0,5.2-2.1,5.2-5.2v-1C308,321.3,304.4,319.3,300.7,317.7z"/>
		</g>
		<path class="st5" d="M325.2,345.3c-1-3.6-2.1-6.8-4.2-9.9c-4.2,3.1-9.4,5.2-15.1,5.2c-14.6,0-26-11.5-26-26
			c0-7.8,3.1-14.6,8.3-19.3c-2.6-2.6-5.2-4.7-8.3-6.3c-6.3,6.8-10.4,15.6-10.4,25.5c0,20.3,16.1,36.5,36.5,36.5
			C313.2,351,319.5,348.9,325.2,345.3z"/>
		<path class="st8" d="M323.7,340.6c-3.6,2.6-8.3,4.2-13,5.2c-2.6,0.5-4.7,2.6-4.7,5.2l0,0c7.3,0,13.5-2.1,19.3-5.7
			C324.7,343.7,324.2,342.2,323.7,340.6z"/>
		<path class="st6" d="M279.9,289c-6.3,6.8-10.4,15.6-10.4,25.5h0.5c2.6,0,4.7-2.1,5.2-4.7c1-7.3,4.7-13.5,9.4-18.2
			C283,291.1,281.5,290.1,279.9,289z"/>
		<circle class="st5" cx="259.1" cy="325" r="36.5"/>
		<path class="st8" d="M253.8,351c0,3.6,0.5,6.8,1.6,10.4c1,0,2.6,0,3.6,0c20.3,0,36.5-16.1,36.5-36.5c0-3.6-0.5-6.8-1.6-10.4
			c-1,0-2.6,0-3.6,0C270,314.6,253.8,330.7,253.8,351z"/>
		<path class="st6" d="M259.1,288.5c-20.3,0-36.5,16.1-36.5,36.5c0,20.3,16.1,36.5,36.5,36.5s36.5-16.1,36.5-36.5
			C295.5,304.7,279.4,288.5,259.1,288.5z M259.1,351c-14.6,0-26-11.5-26-26c0-14.6,11.5-26,26-26c14.6,0,26,11.5,26,26
			C285.1,339.6,273.6,351,259.1,351z"/>
		<path class="st5" d="M259.1,360.9L259.1,360.9c20.3,0.5,36.5-16.1,36.5-35.9H295c-2.6,0-4.7,2.1-5.2,4.7c-1,7.3-4.7,14.1-9.9,18.8
			c-4.2,4.2-9.9,6.8-16.1,7.8C261.1,356.2,259.1,358.3,259.1,360.9z"/>
		<path class="st7" d="M259.1,289L259.1,289c-20.3-0.5-36.5,16.1-36.5,35.9h0.5c2.6,0,4.7-2.1,5.2-4.7c1-7.3,4.7-14.1,9.9-18.8
			c4.2-4.2,9.9-6.8,16.1-7.8C257,293.7,259.1,291.6,259.1,289z"/>
		<path class="st8" d="M236.7,328.6c0-14.6,11.5-26,26-26c6.3,0,12,2.1,16.7,6.3c-5.2-6.3-12-9.9-20.3-9.9c-14.6,0-26,11.5-26,26
			c0,8.3,3.6,15.1,9.4,19.8C238.7,340.6,236.7,334.9,236.7,328.6z"/>
		<path class="st6" d="M274.7,341.1c-0.5,0-1,0-1.6-0.5c-1-1-1-2.6,0-3.6c3.1-3.1,4.7-7.8,4.7-12c0-1.6,1-2.6,2.6-2.6s2.6,1,2.6,2.6
			c0,5.7-2.1,11.5-5.7,15.6C276.2,341.1,275.2,341.1,274.7,341.1z"/>
		<path class="st8" d="M259.1,340.6c-3.1,0-5.2-2.1-5.2-5.2v-20.8c0-3.1,2.1-5.2,5.2-5.2c3.1,0,5.2,2.1,5.2,5.2v20.8
			C264.3,338.5,262.2,340.6,259.1,340.6z"/>
		<g>
			<path class="st5" d="M283,315.1c1,3.1,2.1,6.3,2.1,9.9c0,14.6-11.5,26-26,26c-1.6,0-3.6,0-5.2-0.5v0.5c0,3.6,0.5,6.8,1.6,10.4
				c1,0,2.6,0,3.6,0c20.3,0,36.5-16.1,36.5-36.5c0-3.6-0.5-6.8-1.6-10.4c-1,0-2.6,0-3.6,0C287.7,314.6,285.6,314.6,283,315.1z"/>
			<circle class="st5" cx="285.1" cy="356.2" r="36.5"/>
		</g>
		<path class="st6" d="M285.1,319.8c-20.3,0-36.5,16.1-36.5,36.5c0,20.3,16.1,36.5,36.5,36.5c20.3,0,36.5-16.1,36.5-36.5
			C321.6,335.9,305.4,319.8,285.1,319.8z M285.1,382.3c-14.6,0-26-11.5-26-26s11.5-26,26-26c14.6,0,26,11.5,26,26
			S299.7,382.3,285.1,382.3z"/>
		<path class="st5" d="M285.1,392.2L285.1,392.2c20.3,0.5,36.5-16.1,36.5-35.9H321c-2.6,0-4.7,2.1-5.2,4.7c-1,7.3-4.7,14.1-9.9,18.8
			c-4.2,4.2-9.9,6.8-16.1,7.8C287.2,387.5,285.1,389.6,285.1,392.2z"/>
		<path class="st7" d="M285.1,320.3L285.1,320.3c-20.3-0.5-36.5,16.1-36.5,35.9h0.5c2.6,0,4.7-2.1,5.2-4.7c1-7.3,4.7-14.1,9.9-18.8
			c4.2-4.2,9.9-6.8,16.1-7.8C283,325,285.1,322.9,285.1,320.3z"/>
		<path class="st8" d="M262.7,359.9c0-14.6,11.5-26,26-26c6.3,0,12,2.1,16.7,6.3c-5.2-6.3-12-9.9-20.3-9.9c-14.6,0-26,11.5-26,26
			c0,8.3,3.6,15.1,9.4,19.8C264.8,371.9,262.7,366.1,262.7,359.9z"/>
		<path class="st6" d="M300.7,372.4c-0.5,0-1,0-1.6-0.5c-1-1-1-2.6,0-3.6c3.1-3.1,4.7-7.8,4.7-12c0-1.6,1-2.6,2.6-2.6
			c1.6,0,2.6,1,2.6,2.6c0,5.7-2.1,11.5-5.7,15.6C302.3,372.4,301.3,372.4,300.7,372.4z"/>
		<path class="st8" d="M285.1,371.9c-3.1,0-5.2-2.1-5.2-5.2v-20.8c0-3.1,2.1-5.2,5.2-5.2c3.1,0,5.2,2.1,5.2,5.2v20.8
			C290.3,369.8,288.2,371.9,285.1,371.9z"/>
	</g>
</g>
</svg>
