<?xml version="1.0" encoding="utf-8"?>
<!-- Generator: Adobe Illustrator 21.1.0, SVG Export Plug-In . SVG Version: 6.00 Build 0)  -->
<svg version="1.1" id="Layer_1" xmlns="http://www.w3.org/2000/svg" xmlns:xlink="http://www.w3.org/1999/xlink" x="0px" y="0px"
	 viewBox="0 0 464 464" style="enable-background:new 0 0 464 464;" xml:space="preserve">
<style type="text/css">
	.st0{opacity:0.11;fill:#6FE3FF;}
	.st1{fill:#33AFC4;}
	.st2{fill:#6FE3FF;}
	.st3{fill:#F6B545;}
	.st4{fill:#FFFFFF;}
	.st5{fill:#F19920;}
</style>
<g>
	<circle class="st0" cx="232.4" cy="232.1" r="225.1"/>
	<path class="st1" d="M330.3,300.2H119.7c-5.8,0-10.5-4.7-10.5-10.5V173.9c0-5.8,4.7-10.5,10.5-10.5h210.5c5.8,0,10.5,4.7,10.5,10.5
		v115.8C340.8,295.5,336.1,300.2,330.3,300.2z"/>
	<path class="st2" d="M309.2,289.7H140.8c0-11.6-9.5-21.1-21.1-21.1v-73.7c11.6,0,21.1-9.5,21.1-21.1h168.4
		c0,11.6,9.5,21.1,21.1,21.1v73.7C318.7,268.6,309.2,278.1,309.2,289.7z"/>
	<ellipse class="st1" cx="225" cy="231.8" rx="42.1" ry="47.4"/>
	<circle class="st1" cx="161.8" cy="231.8" r="10.5"/>
	<circle class="st1" cx="288.2" cy="231.8" r="10.5"/>
	<g>
		<path id="XMLID_148_" class="st3" d="M328.5,328.5c-15.6,0-28.3-12.7-28.3-28.3s12.7-28.3,28.3-28.3c15.6,0,28.3,12.7,28.3,28.3
			C356.8,315.8,344.1,328.5,328.5,328.5"/>
		<path id="XMLID_147_" class="st4" d="M328.5,280c-0.7,0-1.3-0.6-1.3-1.3V276c0-0.7,0.6-1.3,1.3-1.3c0.7,0,1.3,0.6,1.3,1.3v2.7
			C329.9,279.4,329.3,280,328.5,280"/>
		<path id="XMLID_146_" class="st4" d="M328.5,325.8c-0.7,0-1.3-0.6-1.3-1.3v-2.7c0-0.7,0.6-1.3,1.3-1.3c0.7,0,1.3,0.6,1.3,1.3v2.7
			C329.9,325.2,329.3,325.8,328.5,325.8"/>
		<path id="XMLID_145_" class="st4" d="M352.8,301.6h-2.7c-0.7,0-1.3-0.6-1.3-1.3c0-0.7,0.6-1.3,1.3-1.3h2.7c0.7,0,1.3,0.6,1.3,1.3
			C354.1,301,353.5,301.6,352.8,301.6"/>
		<path id="XMLID_144_" class="st4" d="M307,301.6h-2.7c-0.7,0-1.3-0.6-1.3-1.3c0-0.7,0.6-1.3,1.3-1.3h2.7c0.7,0,1.3,0.6,1.3,1.3
			C308.4,301,307.8,301.6,307,301.6"/>
		<path id="XMLID_141_" class="st4" d="M328.5,304.2c-3,0-5.4-2.4-5.4-5.4s2.4-5.4,5.4-5.4s5.4,2.4,5.4,5.4S331.5,304.2,328.5,304.2
			 M328.5,296.2c-1.5,0-2.7,1.2-2.7,2.7s1.2,2.7,2.7,2.7s2.7-1.2,2.7-2.7S330,296.2,328.5,296.2"/>
		<path id="XMLID_140_" class="st4" d="M328.5,296.2c-0.7,0-1.3-0.6-1.3-1.3v-8.1c0-0.7,0.6-1.3,1.3-1.3c0.7,0,1.3,0.6,1.3,1.3v8.1
			C329.9,295.6,329.3,296.2,328.5,296.2"/>
		<path id="XMLID_139_" class="st4" d="M313.7,315c-0.3,0-0.7-0.1-1-0.4c-0.5-0.5-0.5-1.4,0-1.9l12-12c0.5-0.5,1.4-0.5,1.9,0
			c0.5,0.5,0.5,1.4,0,1.9l-12,12C314.4,314.9,314.1,315,313.7,315"/>
		<path id="XMLID_138_" class="st5" d="M289.5,301.6c-0.7,0-1.3-0.6-1.3-1.3c0-22.3,18.1-40.4,40.4-40.4c10.4,0,20.3,4,27.9,11.2
			c0.5,0.5,0.6,1.4,0,1.9c-0.5,0.5-1.4,0.6-1.9,0c-7-6.7-16.3-10.4-26-10.4c-20.8,0-37.7,16.9-37.7,37.7
			C290.9,301,290.3,301.6,289.5,301.6"/>
		<path id="XMLID_137_" class="st5" d="M356.8,273.3h-12.1c-0.7,0-1.3-0.6-1.3-1.3c0-0.7,0.6-1.3,1.3-1.3h9.4v-9.4
			c0-0.7,0.6-1.3,1.3-1.3c0.7,0,1.3,0.6,1.3,1.3V273.3z"/>
		<path id="XMLID_105_" class="st5" d="M327.8,340.6c-0.7,0-1.3-0.6-1.3-1.4c0-0.7,0.6-1.3,1.4-1.3c0.7,0,1.3,0.6,1.3,1.4
			C329.1,340,328.5,340.6,327.8,340.6L327.8,340.6z M330.5,339.2c-0.1-0.7,0.5-1.4,1.2-1.5c0.7-0.1,1.4,0.5,1.5,1.2
			c0.1,0.7-0.5,1.4-1.2,1.4v0h-0.1C331.1,340.5,330.5,339.9,330.5,339.2 M323.6,340.3L323.6,340.3c-0.7-0.1-1.3-0.8-1.2-1.5
			c0.1-0.7,0.8-1.3,1.5-1.2c0.7,0.1,1.3,0.8,1.2,1.5c-0.1,0.7-0.7,1.2-1.3,1.2H323.6z M334.5,338.8c-0.1-0.7,0.4-1.4,1.1-1.6
			c0.7-0.1,1.4,0.3,1.6,1.1c0.1,0.7-0.4,1.4-1.1,1.6c-0.1,0-0.2,0-0.2,0C335.2,339.9,334.6,339.5,334.5,338.8 M319.5,339.6
			c-0.7-0.2-1.2-0.9-1-1.6c0.2-0.7,0.9-1.2,1.6-1c0.7,0.2,1.2,0.9,1,1.6c-0.1,0.6-0.7,1-1.3,1C319.7,339.6,319.6,339.6,319.5,339.6
			 M338.5,338c-0.2-0.7,0.2-1.5,0.9-1.7c0.7-0.2,1.5,0.2,1.7,0.9c0.2,0.7-0.2,1.5-0.9,1.7c-0.1,0-0.3,0.1-0.4,0.1
			C339.2,339,338.6,338.6,338.5,338 M315.5,338.4c-0.7-0.2-1.1-1-0.8-1.7c0.2-0.7,1-1.1,1.7-0.8c0.7,0.2,1.1,1,0.8,1.7
			c-0.2,0.6-0.7,0.9-1.3,0.9C315.8,338.5,315.6,338.5,315.5,338.4 M342.3,336.8c-0.3-0.7,0-1.5,0.7-1.8c0.7-0.3,1.5,0,1.8,0.7
			c0.3,0.7,0,1.5-0.7,1.8c-0.2,0.1-0.4,0.1-0.5,0.1C343,337.6,342.5,337.3,342.3,336.8 M311.6,336.9c-0.7-0.3-1-1.1-0.6-1.8
			c0.3-0.7,1.1-1,1.8-0.6c0.7,0.3,1,1.1,0.6,1.8c-0.2,0.5-0.7,0.8-1.2,0.8C312,337,311.8,336.9,311.6,336.9 M346,335.1
			c-0.4-0.6-0.1-1.5,0.5-1.8c0.6-0.4,1.5-0.1,1.8,0.5c0.4,0.6,0.1,1.5-0.5,1.8c-0.2,0.1-0.4,0.2-0.6,0.2
			C346.7,335.9,346.3,335.6,346,335.1 M307.9,334.9c-0.6-0.4-0.8-1.2-0.5-1.8c0.4-0.6,1.2-0.8,1.8-0.5c0.6,0.4,0.8,1.2,0.5,1.8
			c-0.3,0.4-0.7,0.7-1.2,0.7C308.4,335.1,308.1,335,307.9,334.9 M349.5,333.1c-0.4-0.6-0.3-1.5,0.3-1.9c0.6-0.4,1.5-0.3,1.9,0.4
			c0.4,0.6,0.3,1.5-0.3,1.9c-0.2,0.2-0.5,0.2-0.8,0.2C350.2,333.7,349.8,333.5,349.5,333.1 M304.5,332.6L304.5,332.6
			c-0.6-0.4-0.7-1.3-0.3-1.9c0.4-0.6,1.3-0.7,1.9-0.3c0.6,0.4,0.7,1.3,0.3,1.9c-0.3,0.4-0.7,0.5-1.1,0.5
			C305,332.9,304.7,332.8,304.5,332.6 M352.8,330.8c-0.5-0.6-0.4-1.4,0.1-1.9c0.6-0.5,1.4-0.4,1.9,0.1c0.5,0.6,0.4,1.4-0.1,1.9
			c-0.3,0.2-0.6,0.3-0.9,0.3C353.5,331.3,353.1,331.1,352.8,330.8 M301.2,329.9L301.2,329.9c-0.6-0.5-0.6-1.4-0.1-1.9
			c0.5-0.5,1.4-0.6,1.9-0.1v0c0.6,0.5,0.6,1.3,0.1,1.9c-0.3,0.3-0.6,0.4-1,0.4C301.8,330.3,301.5,330.2,301.2,329.9 M355.8,328.1
			c-0.5-0.5-0.6-1.4,0-1.9c0.5-0.5,1.4-0.6,1.9,0c0.5,0.5,0.6,1.4,0,1.9c-0.3,0.3-0.6,0.4-1,0.4
			C356.4,328.5,356.1,328.4,355.8,328.1 M298.3,326.9c-0.5-0.6-0.4-1.4,0.1-1.9c0.6-0.5,1.4-0.4,1.9,0.1c0.5,0.6,0.4,1.4-0.1,1.9
			c-0.3,0.2-0.6,0.3-0.9,0.3C298.9,327.4,298.6,327.3,298.3,326.9 M358.6,325.2c-0.6-0.5-0.7-1.3-0.2-1.9c0.5-0.6,1.3-0.7,1.9-0.2
			s0.7,1.3,0.2,1.9c-0.3,0.4-0.7,0.5-1.1,0.5C359.1,325.4,358.8,325.4,358.6,325.2 M295.7,323.7c-0.4-0.6-0.3-1.4,0.3-1.9
			c0.6-0.4,1.5-0.3,1.9,0.3c0.4,0.6,0.3,1.5-0.3,1.9c-0.2,0.2-0.5,0.3-0.8,0.3C296.4,324.3,296,324,295.7,323.7 M361,321.9
			c-0.6-0.4-0.8-1.2-0.4-1.9c0.4-0.6,1.2-0.8,1.9-0.4c0.6,0.4,0.8,1.2,0.4,1.9c-0.3,0.4-0.7,0.6-1.1,0.6
			C361.5,322.1,361.2,322.1,361,321.9 M293.5,320.2c-0.4-0.6-0.1-1.5,0.5-1.8c0.6-0.4,1.5-0.1,1.8,0.5h0c0.4,0.6,0.1,1.5-0.5,1.8
			c-0.2,0.1-0.4,0.2-0.7,0.2C294.2,320.8,293.7,320.6,293.5,320.2 M363.1,318.5c-0.7-0.3-0.9-1.1-0.6-1.8s1.1-0.9,1.8-0.6
			c0.7,0.3,0.9,1.1,0.6,1.8c-0.2,0.5-0.7,0.8-1.2,0.8C363.5,318.6,363.3,318.6,363.1,318.5 M291.6,316.4c-0.3-0.7,0-1.5,0.7-1.8
			c0.7-0.3,1.5,0,1.8,0.7c0.3,0.7,0,1.5-0.7,1.8c-0.2,0.1-0.4,0.1-0.5,0.1C292.3,317.3,291.8,316.9,291.6,316.4 M364.8,314.8
			c-0.7-0.3-1.1-1-0.8-1.7c0.2-0.7,1-1.1,1.7-0.8s1.1,1,0.8,1.7c-0.2,0.6-0.7,0.9-1.3,0.9C365.1,314.9,364.9,314.9,364.8,314.8
			 M290.1,312.5c-0.2-0.7,0.2-1.5,0.9-1.7c0.7-0.2,1.5,0.2,1.7,0.9c0.2,0.7-0.2,1.5-0.9,1.7c-0.1,0-0.3,0.1-0.4,0.1
			C290.8,313.5,290.3,313.1,290.1,312.5 M366.1,311c-0.7-0.2-1.2-0.9-1-1.6c0.2-0.7,0.9-1.2,1.6-1c0.7,0.2,1.2,0.9,1,1.6
			c-0.1,0.6-0.7,1-1.3,1C366.3,311,366.2,311,366.1,311 M289,308.5c-0.2-0.7,0.3-1.4,1-1.6c0.7-0.2,1.4,0.3,1.6,1
			c0.2,0.7-0.3,1.4-1,1.6c-0.1,0-0.2,0-0.3,0C289.7,309.6,289.1,309.1,289,308.5 M367,307.1c-0.7-0.1-1.3-0.8-1.1-1.5
			c0.1-0.7,0.8-1.3,1.5-1.1c0.7,0.1,1.3,0.8,1.1,1.5c-0.1,0.7-0.7,1.2-1.3,1.2C367.1,307.1,367.1,307.1,367,307.1 M288.4,304.4
			c-0.1-0.7,0.5-1.4,1.2-1.5c0.7-0.1,1.4,0.5,1.5,1.2c0.1,0.7-0.5,1.4-1.2,1.5h-0.1C289,305.6,288.4,305.1,288.4,304.4 M367.5,303.1
			c-0.7,0-1.3-0.7-1.3-1.4c0-0.7,0.7-1.3,1.4-1.3c0.7,0,1.3,0.6,1.3,1.4C368.9,302.5,368.3,303.1,367.5,303.1L367.5,303.1z
			 M288.2,300.2c0-0.7,0.6-1.3,1.3-1.3s1.3,0.6,1.3,1.3s-0.6,1.3-1.3,1.3S288.2,300.9,288.2,300.2"/>
	</g>
</g>
</svg>
