<?xml version="1.0" encoding="utf-8"?>
<!-- Generator: Adobe Illustrator 21.1.0, SVG Export Plug-In . SVG Version: 6.00 Build 0)  -->
<svg version="1.1" id="Layer_1" xmlns="http://www.w3.org/2000/svg" xmlns:xlink="http://www.w3.org/1999/xlink" x="0px" y="0px"
	 viewBox="0 0 464 464" style="enable-background:new 0 0 464 464;" xml:space="preserve">
<style type="text/css">
	.st0{opacity:0.11;fill:#A04A04;}
	.st1{fill:#CC7350;}
	.st2{fill:#9B5826;}
	.st3{fill:#5F6768;}
	.st4{fill:#E2D574;}
	.st5{fill:#894619;}
	.st6{fill:#E48E66;}
	.st7{fill:#F8EC7D;}
	.st8{fill:#494F4F;}
</style>
<circle class="st0" cx="233.1" cy="234.1" r="227.1"/>
<g>
	<path class="st1" d="M354.5,295.5v22.7h-58.8V301l0,0l29.5-28.7l16.8,5.7C349.5,280.6,354.5,287.6,354.5,295.5z"/>
	<path class="st2" d="M280.4,257c-4.6-2-8.6-4.9-12-8.6c-6.3-6.9-9.8-16-9.8-25.3v0c-0.1,0-0.2,0-0.3-0.1c-4-0.8-6.9-4.4-6.9-8.5
		c0-0.7,0.1-1.4,0.2-2.1c0.7-2.8,3-4.8,5.9-5l-0.1-4.3l1.2,1.2c1.7,1.8,4.4,2.2,6.7,1.2c1.2-0.6,2.2-1.5,2.7-2.7
		c0.7-1.5,2-2.7,3.5-2.8c6.3-0.4,17.6-0.9,28.7-8.7c8.7,9.1,20.8,14.3,33.5,14.3h0.4l0,1.9c2.8,0.2,5.2,2.2,5.9,5
		c0.2,0.7,0.2,1.4,0.2,2.1c0,3.6-2.3,6.9-5.7,8.2c-0.5,0.2-1,0.3-1.5,0.4v0c0,14.6-9,28.5-21.8,34c-3.8,1.6-7.9,2.5-12.1,2.5h-6.7
		C288.3,259.5,284.2,258.7,280.4,257z"/>
	<path class="st3" d="M338.1,240c2.7,12.9-5.6,25.6-18.6,28.2c-1.4,0.3-2.9,0.5-4.4,0.5l-0.1,0.3l-3.9-1.3V257
		c12.8-5.5,21.8-19.3,21.8-34v0c0.5-0.1,1-0.2,1.5-0.4L338.1,240z"/>
	<path class="st3" d="M300.2,191.2c-11.1,7.7-22.4,8.3-28.7,8.7c-1.5,0.1-2.8,1.3-3.5,2.8c-0.6,1.2-1.5,2.1-2.7,2.7
		c-2.2,1.1-4.9,0.6-6.7-1.2l-1.2-1.2l0-13.2c0-21.2,17.2-38.4,38.4-38.5c21.2,0,38.4,17.2,38.5,38.4c0,0.1,0,0.2,0,0.3l-0.1,15.4
		h-0.4C321,205.5,308.9,200.3,300.2,191.2z"/>
	<polygon class="st4" points="325.2,272.4 295.8,301 295.7,301 295.7,283 295.8,283 311.2,267.6 315.1,269 317.6,269.8 	"/>
	<path class="st5" d="M295.7,283l-15.4-15.3V257c3.8,1.6,7.9,2.5,12.1,2.5h6.7c4.2,0,8.3-0.9,12.1-2.5v10.6L295.7,283L295.7,283z"/>
	<path class="st6" d="M295.7,301v17.1H237v-22.7c0-7.9,5-14.9,12.5-17.4l16.8-5.7L295.7,301z"/>
	<polygon class="st7" points="274.9,269.5 280.4,267.6 295.7,283 295.7,301 266.3,272.4 	"/>
	<path class="st3" d="M280.4,257v10.6l-5.4,1.8c0,0-0.1,0-0.1,0c-13.1-1.2-22.8-12.8-21.7-25.9c0.1-1.4,0.4-2.7,0.7-4.1l4.4-16.5
		c0.1,0,0.2,0,0.3,0.1v0c0.1,9.4,3.6,18.4,9.8,25.3C271.7,252.1,275.8,255.1,280.4,257z"/>
	<path class="st6" d="M219.9,299v19.1H102.5V299c0-1.4,0.1-2.9,0.5-4.3c0.1-0.3,0.1-0.5,0.2-0.8c1.8-6.4,6.8-11.5,13.2-13.5l28-9.1
		c10.6,5.7,23.3,5.7,33.9,0l28,9.1c6.4,2,11.3,7.1,13.2,13.5c0.1,0.3,0.1,0.5,0.2,0.8C219.8,296.2,220,297.6,219.9,299z"/>
	<path class="st2" d="M178.1,256.1c-17.2,9.3-38.7,3-48.1-14.2c-1.8-3.2-3-6.7-3.7-10.4l-2-6.8v-0.1c-4.6-0.8-7.9-4.8-7.9-9.4
		c0-0.8,0.1-1.5,0.3-2.3c0.7-3,3.3-5.2,6.4-5.5v0.2c2.4,1.4,5.5,0.6,7-1.8c0.4-0.7,0.7-1.5,0.7-2.4l0.6-13.8c4.5,0.1,9,0,13.5-0.3
		c0,0,0,0,0,0c21.8,19.4,54.3,18.2,54.3,18.2v-0.1c3.1,0.3,5.7,2.5,6.4,5.5c0.2,0.7,0.3,1.5,0.3,2.3c0,4.6-3.3,8.6-7.9,9.4v0.1
		l-2,6.8C194.1,241.9,187.5,251,178.1,256.1z"/>
	<path class="st8" d="M199.3,207.4L199.3,207.4c0,0.1-32.5,1.3-54.3-18.1c6.9-0.5,13.7-1.7,20.4-3.4c0.3,0.3,11,13.8,33.9,15.3
		V207.4z"/>
	<path class="st3" d="M165.4,185.9c-6.7,1.8-13.5,2.9-20.4,3.4c0,0,0,0,0,0c-4.5,0.4-9,0.5-13.5,0.3l-0.6,13.8
		c-0.1,2.8-2.5,5-5.3,4.9c-0.8,0-1.7-0.3-2.4-0.7v-19.6c0-21,17-38,38-38s38,17,38,38v13.1C176.4,199.7,165.6,186.3,165.4,185.9z"/>
	<path class="st5" d="M178.1,271.4L178.1,271.4c-10.5,5.7-23.3,5.7-33.9,0l0,0v-15.3c10.6,5.7,23.3,5.7,33.8,0V271.4z"/>
	<path class="st7" d="M307.8,309.6h-3.7c-2.1,0-3.7-1.7-3.7-3.7s1.7-3.7,3.7-3.7h3.7c2.1,0,3.7,1.7,3.7,3.7S309.9,309.6,307.8,309.6
		z"/>
</g>
</svg>
