<?xml version="1.0"?>
<svg xmlns="http://www.w3.org/2000/svg" xmlns:xlink="http://www.w3.org/1999/xlink" xmlns:svgjs="http://svgjs.com/svgjs" version="1.1" width="512" height="512" x="0" y="0" viewBox="0 0 512 512" style="enable-background:new 0 0 512 512" xml:space="preserve" class=""><circle r="256" cx="256" cy="256" fill="#fffce0" shape="circle" transform="matrix(1,0,0,1,0,0)"/><g transform="matrix(0.8,0,0,0.8,51.19999999999999,51.19999999999999)"><link type="text/css" id="dark-mode" rel="stylesheet"/><style type="text/css" id="dark-mode-custom-style"/><path xmlns="http://www.w3.org/2000/svg" d="m416 512h-320c-53.023438 0-96-42.976562-96-96v-320c0-53.023438 42.976562-96 96-96h320c53.023438 0 96 42.976562 96 96v320c0 53.023438-42.976562 96-96 96zm0 0" fill="#fffce0" data-original="#fff9dd" style="" class=""/><path xmlns="http://www.w3.org/2000/svg" d="m226.671875 128h-80c-10.304687 0-18.671875 8.367188-18.671875 18.671875v48c0 10.289063 8.367188 18.671875 18.671875 18.671875h80c10.289063 0 18.671875-8.367188 18.671875-18.671875v-48c-.015625-10.304687-8.382812-18.671875-18.671875-18.671875zm0 0" fill="#ff7777" data-original="#ffe777" style="" class=""/><path xmlns="http://www.w3.org/2000/svg" d="m226.671875 234.671875h-80c-10.304687 0-18.671875 8.367187-18.671875 18.65625v112c0 10.304687 8.367188 18.671875 18.671875 18.671875h80c10.289063 0 18.671875-8.367188 18.671875-18.671875v-112c-.015625-10.289063-8.382812-18.65625-18.671875-18.65625zm0 0" fill="#ffd200" data-original="#ffd200" style="" class=""/><path xmlns="http://www.w3.org/2000/svg" d="m365.328125 298.671875h-80c-10.289063 0-18.671875 8.367187-18.671875 18.671875v48c0 10.289062 8.367188 18.671875 18.671875 18.671875h80c10.304687-.015625 18.671875-8.382813 18.671875-18.6875v-48c0-10.289063-8.367188-18.65625-18.671875-18.65625zm0 0" fill="#ff7777" data-original="#ffe777" style="" class=""/><path xmlns="http://www.w3.org/2000/svg" d="m365.328125 128h-80c-10.289063 0-18.671875 8.367188-18.671875 18.671875v112c0 10.289063 8.367188 18.671875 18.671875 18.671875h80c10.289063 0 18.671875-8.367188 18.671875-18.671875v-112c0-10.304687-8.367188-18.671875-18.671875-18.671875zm0 0" fill="#ffd200" data-original="#ffd200" style="" class=""/></g></svg>
