<?xml version="1.0"?>
<svg xmlns="http://www.w3.org/2000/svg" xmlns:xlink="http://www.w3.org/1999/xlink" xmlns:svgjs="http://svgjs.com/svgjs" version="1.1" width="512" height="512" x="0" y="0" viewBox="0 0 64 64" style="enable-background:new 0 0 512 512" xml:space="preserve" class=""><circle r="32" cx="32" cy="32" fill="#d2e5e7" shape="circle"/><g transform="matrix(0.7,0,0,0.7,9.600000000000001,9.597156715393073)"><link type="text/css" id="dark-mode" rel="stylesheet"/><style type="text/css" id="dark-mode-custom-style"/><rect xmlns="http://www.w3.org/2000/svg" fill="#2488ff" height="44" rx="2" width="28" x="3" y="5" data-original="#2488ff" style="" class=""/><path xmlns="http://www.w3.org/2000/svg" d="m10 22a7 7 0 0 1 12.85-3.85 6.925 6.925 0 0 1 1.15 3.85 7 7 0 0 1 -14 0z" fill="#ff5023" data-original="#ff5023" style="" class=""/><path xmlns="http://www.w3.org/2000/svg" d="m17 25a1 1 0 0 1 -.707-.293l-4-4 1.414-1.414 3.293 3.293 8.293-8.293 1.414 1.414-9 9a1 1 0 0 1 -.707.293z" fill="#ffffff" data-original="#ffffff" style="" class=""/><path xmlns="http://www.w3.org/2000/svg" d="m19 35h42v26h-42z" fill="#64c37d" data-original="#64c37d" style="" class=""/><path xmlns="http://www.w3.org/2000/svg" d="m58 43.48v9.04a8.968 8.968 0 0 0 -5.48 5.48h-25.04a8.968 8.968 0 0 0 -5.48-5.48v-9.04a8.968 8.968 0 0 0 5.48-5.48h25.04a8.968 8.968 0 0 0 5.48 5.48z" fill="#44ffe8" data-original="#44ffe8" style="" class=""/><path xmlns="http://www.w3.org/2000/svg" d="m48.05 3h-.05a8 8 0 0 0 -.05 16h.05a8 8 0 0 0 .05-16z" fill="#ffda44" data-original="#ffda44" style="" class=""/><circle xmlns="http://www.w3.org/2000/svg" cx="40" cy="48" fill="#ffda44" r="7" data-original="#ffda44" style="" class=""/><path xmlns="http://www.w3.org/2000/svg" d="m39 23h16v4h-16z" fill="#ff9811" data-original="#ff9811" style="" class=""/><path xmlns="http://www.w3.org/2000/svg" d="m39 31h16v4h-16z" fill="#ff9811" data-original="#ff9811" style="" class=""/><path xmlns="http://www.w3.org/2000/svg" d="m41 27h16v4h-16z" fill="#ffba60" data-original="#ffba60" style="" class=""/><path xmlns="http://www.w3.org/2000/svg" d="m41 19h16v4h-16z" fill="#ffba60" data-original="#ffba60" style="" class=""/><path xmlns="http://www.w3.org/2000/svg" d="m49 10v-2a1 1 0 0 1 1 1h2a3 3 0 0 0 -3-3v-1h-2v1a3 3 0 0 0 0 6v2a1 1 0 0 1 -1-1h-2a3 3 0 0 0 3 3v1h2v-1a3 3 0 0 0 0-6zm-3-1a1 1 0 0 1 1-1v2a1 1 0 0 1 -1-1zm3 5v-2a1 1 0 0 1 0 2z" fill="#ffffff" data-original="#ffffff" style="" class=""/><path xmlns="http://www.w3.org/2000/svg" d="m41 12a8 8 0 0 1 13.133-6.133 8 8 0 1 0 -11.266 11.266 7.964 7.964 0 0 1 -1.867-5.133z" fill="#ffe26e" data-original="#ffe26e" style="" class=""/><path xmlns="http://www.w3.org/2000/svg" d="m29 5h-6.27a1.973 1.973 0 0 1 .232.72 25.815 25.815 0 0 1 6.038-.72z" fill="#57a4ff" data-original="#57a4ff" style="" class=""/><path xmlns="http://www.w3.org/2000/svg" d="m11 6a2 2 0 0 1 .27-1h-6.27a2.006 2.006 0 0 0 -2 2v24a26.067 26.067 0 0 1 13.925-23h-3.925a2.006 2.006 0 0 1 -2-2z" fill="#57a4ff" data-original="#57a4ff" style="" class=""/><path xmlns="http://www.w3.org/2000/svg" d="m16.925 8h4.075a2.015 2.015 0 0 0 2-2 1.867 1.867 0 0 0 -.038-.28 25.783 25.783 0 0 0 -6.037 2.28z" fill="#ff9811" data-original="#ff9811" style="" class=""/><path xmlns="http://www.w3.org/2000/svg" d="m22.73 5h-11.46a2 2 0 0 0 1.73 3h3.925a25.783 25.783 0 0 1 6.037-2.28 1.973 1.973 0 0 0 -.232-.72z" fill="#ffa32b" data-original="#ffa32b" style="" class=""/></g></svg>
