<?xml version="1.0"?>
<svg xmlns="http://www.w3.org/2000/svg" xmlns:xlink="http://www.w3.org/1999/xlink" xmlns:svgjs="http://svgjs.com/svgjs" version="1.1" width="512" height="512" x="0" y="0" viewBox="0 0 64 64" style="enable-background:new 0 0 512 512" xml:space="preserve" class=""><circle r="32" cx="32" cy="32" fill="#f3f9f4" shape="circle"/><g transform="matrix(0.7,0,0,0.7,9.600000000000001,9.75)"><link type="text/css" id="dark-mode" rel="stylesheet"/><style type="text/css" id="dark-mode-custom-style"/><path xmlns="http://www.w3.org/2000/svg" d="m48 10v39h-32v-46h25z" fill="#e0e0e2" data-original="#e0e0e2" style="" class=""/><circle xmlns="http://www.w3.org/2000/svg" cx="46" cy="47" fill="#ff5023" r="14" data-original="#ff5023" style="" class=""/><circle xmlns="http://www.w3.org/2000/svg" cx="46" cy="47" fill="#ffda44" r="11" data-original="#ffda44" style="" class=""/><path xmlns="http://www.w3.org/2000/svg" d="m23 43v3l1 2v5l-1 2-2 2-1 3v1h-13v-1l-2-9-.92-12.9a3.993 3.993 0 0 1 .42-2.09l8.3-16.41a4 4 0 0 1 3.2-1.6v18.6a3.979 3.979 0 0 0 1.18-.86l7.71-6.86a3 3 0 0 1 4.11.12l.26.26a3.013 3.013 0 0 1 .38 3.79z" fill="#ffdaaa" data-original="#ffdaaa" style="" class=""/><path xmlns="http://www.w3.org/2000/svg" d="m41 3v7h7z" fill="#898890" data-original="#898890" style="" class=""/><path xmlns="http://www.w3.org/2000/svg" d="m48 46h-1v-4h1a2 2 0 0 1 2 2h2a4 4 0 0 0 -4-4h-1v-2h-2v2h-1a4 4 0 0 0 0 8h1v4h-1a2 2 0 0 1 -2-2h-2a4 4 0 0 0 4 4h1v2h2v-2h1a4 4 0 0 0 0-8zm-4 0a2 2 0 0 1 0-4h1v4zm4 6h-1v-4h1a2 2 0 0 1 0 4z" fill="#ffffff" data-original="#ffffff" style="" class=""/><g xmlns="http://www.w3.org/2000/svg" fill="#003f8a"><path d="m34 27h10v2h-10z" fill="#003f8a" data-original="#003f8a" style="" class=""/><path d="m22 9h16v2h-16z" fill="#003f8a" data-original="#003f8a" style="" class=""/><path d="m20 13h24v2h-24z" fill="#003f8a" data-original="#003f8a" style="" class=""/><path d="m20 17h24v2h-24z" fill="#003f8a" data-original="#003f8a" style="" class=""/><path d="m20 21h4v2h-4z" fill="#003f8a" data-original="#003f8a" style="" class=""/><path d="m26 21h18v2h-18z" fill="#003f8a" data-original="#003f8a" style="" class=""/></g><path xmlns="http://www.w3.org/2000/svg" d="m4 60h19v2h-19z" fill="#6a563d" data-original="#6a563d" style=""/><path xmlns="http://www.w3.org/2000/svg" d="m42 10h6v1h-6z" fill="#d8d7da" data-original="#d8d7da" style=""/><rect xmlns="http://www.w3.org/2000/svg" fill="#ffe6c6" height="10" rx="1" width="2" x="8" y="42" data-original="#ffe6c6" style="" class=""/></g></svg>
