<?xml version="1.0" encoding="utf-8"?>
<!-- Generator: Adobe Illustrator 21.1.0, SVG Export Plug-In . SVG Version: 6.00 Build 0)  -->
<svg version="1.1" id="Layer_1" xmlns="http://www.w3.org/2000/svg" xmlns:xlink="http://www.w3.org/1999/xlink" x="0px" y="0px"
	 viewBox="0 0 464 464" style="enable-background:new 0 0 464 464;" xml:space="preserve">
<style type="text/css">
	.st0{opacity:0.17;fill:#F9B200;}
	.st1{fill:#999999;}
	.st2{fill:#F19920;}
</style>
<circle class="st0" cx="233" cy="234.1" r="226"/>
<g>
	<path class="st1" d="M338.5,270.5c0-25.6-14.7-48.4-36.6-59.5c-0.7,49-40.4,88.7-89.4,89.4c11.1,22,33.9,36.6,59.5,36.6
		c12,0,23.6-3.2,33.9-9.3l32.4,9l-9-32.4C335.3,294.1,338.5,282.5,338.5,270.5z"/>
	<path class="st2" d="M289.9,209.8c0-43.4-35.3-78.6-78.6-78.6s-78.6,35.3-78.6,78.6c0,14.1,3.8,27.9,10.9,40l-10.6,38.4l38.4-10.6
		c12.1,7.1,25.8,10.9,40,10.9C254.6,288.4,289.9,253.1,289.9,209.8z M199.1,191.5h-12.1c0-13.3,10.8-24.1,24.1-24.1
		c13.3,0,24.1,10.8,24.1,24.1c0,6.8-2.9,13.2-7.8,17.8l-10.3,9.4v9.4h-12.1v-14.7l14.2-13c2.5-2.3,3.9-5.5,3.9-8.9
		c0-6.7-5.4-12.1-12.1-12.1S199.1,184.8,199.1,191.5z M205.2,240.1h12.1v12.1h-12.1V240.1z"/>
</g>
</svg>
