<svg xmlns="http://www.w3.org/2000/svg" xmlns:xlink="http://www.w3.org/1999/xlink" viewBox="0 0 208 205.62"><defs><style>.cls-1{fill:url(#linear-gradient);}.cls-2{fill:url(#linear-gradient-2);}.cls-3{fill:url(#linear-gradient-3);}.cls-4{fill:url(#linear-gradient-4);}.cls-5{fill:url(#linear-gradient-5);}.cls-6{fill:url(#linear-gradient-6);}.cls-7{fill:url(#linear-gradient-7);}</style><linearGradient id="linear-gradient" x1="51.95" y1="147.24" x2="56.19" y2="147.24" gradientUnits="userSpaceOnUse"><stop offset="0" stop-color="#41ad4c"/><stop offset="0.52" stop-color="#17a74c"/><stop offset="0.82" stop-color="#168b43"/><stop offset="1" stop-color="#0f7039"/></linearGradient><linearGradient id="linear-gradient-2" x1="0" y1="147.26" x2="116.73" y2="147.26" xlink:href="#linear-gradient"/><linearGradient id="linear-gradient-3" x1="93.71" y1="21.82" x2="208" y2="21.82" xlink:href="#linear-gradient"/><linearGradient id="linear-gradient-4" x1="93.6" y1="58.65" x2="208" y2="58.65" xlink:href="#linear-gradient"/><linearGradient id="linear-gradient-5" x1="93.69" y1="90.96" x2="208" y2="90.96" xlink:href="#linear-gradient"/><linearGradient id="linear-gradient-6" x1="123.42" y1="123.01" x2="208" y2="123.01" xlink:href="#linear-gradient"/><linearGradient id="linear-gradient-7" x1="127.06" y1="155.27" x2="208" y2="155.27" xlink:href="#linear-gradient"/></defs><title>Asset 36</title><g id="Layer_2" data-name="Layer 2"><g id="Layer_1-2" data-name="Layer 1"><path class="cls-1" d="M52,147.13v.13a9.94,9.94,0,0,0,4.24,8.56V138.66A10.05,10.05,0,0,0,52,147.13Z"/><path class="cls-2" d="M58.46,88.9a58.36,58.36,0,1,0,58.27,58.43A58.42,58.42,0,0,0,58.46,88.9Zm14.92,72.47a16.65,16.65,0,0,1-7.15,3.95v4.13a5,5,0,0,1-10,0v-3.94A18.3,18.3,0,0,1,41.87,147.4v-.14A18.43,18.43,0,0,1,56.19,129v-4a5,5,0,1,1,10,0v4a16.12,16.12,0,0,1,6.82,3.43A4.5,4.5,0,0,1,74.66,136,4.59,4.59,0,0,1,70,140.61a4.79,4.79,0,0,1-3-1c-.28-.21-.55-.41-.84-.6v16.81a13.49,13.49,0,0,0,1.58-1.09,4.77,4.77,0,0,1,2.75-.94,4.33,4.33,0,0,1,2.82,7.59Z"/><path class="cls-3" d="M208,23.43c-3.06,6.88-9.21,10.1-15.61,12.83-10.17,4.35-20.91,6.23-31.91,7a127.64,127.64,0,0,1-36.89-2.51C115.68,39,108,36.54,101.27,31.88a27.26,27.26,0,0,1-5.71-5.33c-2.54-3.17-2.38-6.33,0-9.64a25.39,25.39,0,0,1,8.85-7.19c7.87-4.31,16.41-6.62,25.19-8.06C133.77,1,138,.55,142.16,0h17.37c2.24.27,4.49.56,6.74.82C176.23,2,186,4.11,195,8.52c5.42,2.63,10.46,5.77,13,11.68Z"/><path class="cls-4" d="M208,55.74c-3.74,7.61-10.79,10.94-18.12,13.7-14.31,5.41-29.24,6.83-44.4,6.27-11.07-.41-22-1.86-32.37-5.88a79.27,79.27,0,0,1-13.36-6.89c-4.28-2.7-6.6-6.72-6.08-12.12.29-3,0-6,0-9.35l3,1.78c9.48,5.68,19.9,8.63,30.68,10.47a137.74,137.74,0,0,0,33.38,1.6c14.57-1.06,28.76-3.73,41.86-10.63,1.84-1,3.61-2,5.41-3.08Z"/><path class="cls-5" d="M208,87.65c-1.69,4.37-5,7.22-8.87,9.56-8,4.88-16.95,7.37-26.12,9a124.22,124.22,0,0,1-38.77.72c-6.87-1-13.61-2.93-20.38-4.56a5.85,5.85,0,0,1-2.61-1.73,70.48,70.48,0,0,0-16-12.81,2.62,2.62,0,0,1-1.54-2.7c.09-3.67,0-7.35,0-11.27a7.42,7.42,0,0,1,1.09.45c10.24,6.63,21.68,9.8,33.54,11.8a136.14,136.14,0,0,0,30.37,1.53c16.08-.91,31.73-3.74,46-11.91,1.09-.62,2.2-1.19,3.31-1.78Z"/><path class="cls-6" d="M208,120c-2.85,6.54-8.62,9.72-14.66,12.45-8.76,3.94-18.07,5.88-27.58,7a139.76,139.76,0,0,1-30.6-.08c-1.86-.2-3.71-.55-5.27-.79l-6.47-21.07c2.1.34,4.55.8,7,1.13,21.4,2.82,42.53,1.93,63-5.51,5.07-1.84,9.72-4.79,14.57-7.23Z"/><path class="cls-7" d="M208,152.28c-3.66,7.58-10.69,10.83-17.91,13.66-9.78,3.83-20,5.43-30.48,6.16a133.36,133.36,0,0,1-31.55-1.68,10,10,0,0,1-1-.26L130.38,151c5.89.39,12,1.07,18.05,1.14,17.14.21,33.95-1.83,49.82-8.81,3.36-1.48,6.5-3.46,9.75-5.21Z"/></g></g></svg>