<?xml version="1.0" encoding="utf-8"?>
<!-- Generator: Adobe Illustrator 21.1.0, SVG Export Plug-In . SVG Version: 6.00 Build 0)  -->
<svg version="1.1" id="Layer_1" xmlns="http://www.w3.org/2000/svg" xmlns:xlink="http://www.w3.org/1999/xlink" x="0px" y="0px"
	 viewBox="0 0 464 464" style="enable-background:new 0 0 464 464;" xml:space="preserve">
<style type="text/css">
	.st0{opacity:0.15;fill:#E48E66;}
	.st1{fill:#E48E66;}
	.st2{fill:#F9B200;}
</style>
<circle class="st0" cx="233.1" cy="234.3" r="225.3"/>
<g>
	<path class="st1" d="M128.1,154.4v70.9h220.3v-70.9H128.1z M338.8,216.5H137.7v-53.2h201.1V216.5z"/>
	<path class="st2" d="M153.2,197.2l4.6-2.6v5.3h4.6v-5.3l4.6,2.6l2.3-4l-4.6-2.6l4.6-2.6l-2.3-4l-4.6,2.6v-5.3h-4.6v5.3l-4.6-2.6
		l-2.3,4l4.6,2.6l-4.6,2.6L153.2,197.2z"/>
	<path class="st2" d="M189.6,197.2l4.6-2.6v5.3h4.6v-5.3l4.6,2.6l2.3-4l-4.6-2.6l4.6-2.6l-2.3-4l-4.6,2.6v-5.3h-4.6v5.3l-4.6-2.6
		l-2.3,4l4.6,2.6l-4.6,2.6L189.6,197.2z"/>
	<path class="st2" d="M228.8,197.2l4.6-2.6v5.3h4.6v-5.3l4.6,2.6l2.3-4l-4.6-2.6l4.6-2.6l-2.3-4l-4.6,2.6v-5.3h-4.6v5.3l-4.6-2.6
		l-2.3,4l4.6,2.6l-4.6,2.6L228.8,197.2z"/>
	<path class="st2" d="M267.7,197.2l4.6-2.6v5.3h4.6v-5.3l4.6,2.6l2.3-4l-4.6-2.6l4.6-2.6l-2.3-4l-4.6,2.6v-5.3h-4.6v5.3l-4.6-2.6
		l-2.3,4l4.6,2.6l-4.6,2.6L267.7,197.2z"/>
	<path class="st2" d="M307.1,197.2l4.6-2.6v5.3h4.6v-5.3l4.6,2.6l2.3-4l-4.6-2.6l4.6-2.6l-2.3-4l-4.6,2.6v-5.3h-4.6v5.3l-4.6-2.6
		l-2.3,4l4.6,2.6l-4.6,2.6L307.1,197.2z"/>
	<g>
		<path class="st1" d="M183.3,288.4h-34.7c-1.9,0-3.5-1.5-3.5-3.5v-34.7c0-1.9,1.5-3.5,3.5-3.5h34.7c1.9,0,3.5,1.5,3.5,3.5V285
			C186.8,286.9,185.2,288.4,183.3,288.4z"/>
		<path class="st1" d="M254.4,288.4h-34.7c-1.9,0-3.5-1.5-3.5-3.5v-34.7c0-1.9,1.5-3.5,3.5-3.5h34.7c1.9,0,3.5,1.5,3.5,3.5V285
			C257.9,286.9,256.3,288.4,254.4,288.4z"/>
		<path class="st1" d="M325.5,288.4h-34.7c-1.9,0-3.5-1.5-3.5-3.5v-34.7c0-1.9,1.5-3.5,3.5-3.5h34.7c1.9,0,3.5,1.5,3.5,3.5V285
			C329,286.9,327.4,288.4,325.5,288.4z"/>
		<path class="st1" d="M183.3,355.2h-34.7c-1.9,0-3.5-1.5-3.5-3.5V317c0-1.9,1.5-3.5,3.5-3.5h34.7c1.9,0,3.5,1.5,3.5,3.5v34.7
			C186.8,353.6,185.2,355.2,183.3,355.2z"/>
		<path class="st1" d="M254.4,355.2h-34.7c-1.9,0-3.5-1.5-3.5-3.5V317c0-1.9,1.5-3.5,3.5-3.5h34.7c1.9,0,3.5,1.5,3.5,3.5v34.7
			C257.9,353.6,256.3,355.2,254.4,355.2z"/>
		<path class="st1" d="M325.5,355.2h-34.7c-1.9,0-3.5-1.5-3.5-3.5V317c0-1.9,1.5-3.5,3.5-3.5h34.7c1.9,0,3.5,1.5,3.5,3.5v34.7
			C329,353.6,327.4,355.2,325.5,355.2z"/>
	</g>
</g>
</svg>
