<?xml version="1.0" encoding="utf-8"?>
<!-- Generator: Adobe Illustrator 21.1.0, SVG Export Plug-In . SVG Version: 6.00 Build 0)  -->
<svg version="1.1" id="Layer_1" xmlns="http://www.w3.org/2000/svg" xmlns:xlink="http://www.w3.org/1999/xlink" x="0px" y="0px"
	 viewBox="0 0 464 464" style="enable-background:new 0 0 464 464;" xml:space="preserve">
<style type="text/css">
	.st0{opacity:0.11;fill:#338270;}
	.st1{fill:#D6683D;}
	.st2{fill:#3A556A;}
	.st3{fill:#EBF0F3;}
	.st4{fill:#963E25;}
	.st5{fill:#41A38E;}
	.st6{fill:#338270;}
	.st7{fill:#48B29B;}
	.st8{fill:#4ABBA4;}
</style>
<g>
	<circle class="st0" cx="232.7" cy="234.3" r="224.3"/>
	<g>
		<path class="st1" d="M339.4,181.6h-15.9l-194.2-19.9v173.8c0,11.2,9.1,20.2,20.2,20.2h189.4c5.3,0,9.6-4.3,9.6-9.6V190.8
			C348.6,185.7,344.5,181.6,339.4,181.6z"/>
		<path class="st2" d="M312.9,246.9c-11.5,0-20.8,9.5-20.4,21.1c0.3,11.2,10.1,19.8,21.3,19.8l34.4,0c2.1,0,3.7-1.7,3.7-3.7v-33.4
			c0-2.1-1.7-3.7-3.7-3.7H312.9z"/>
		<circle class="st3" cx="312.6" cy="267.3" r="8.5"/>
		<g>
			<path class="st4" d="M149.2,141.9c-11,0-19.9,8.9-19.9,19.9c0,11,8.9,19.9,19.9,19.9h174.3V151c0-5-4.1-9.1-9.1-9.1H149.2z"/>
			<path class="st4" d="M165.5,192.2H146c-2.1,0-3.8,1.7-3.8,3.8c0,2.1,1.7,3.8,3.8,3.8h19.5c2.1,0,3.8-1.7,3.8-3.8
				C169.3,194,167.6,192.2,165.5,192.2z"/>
			<path class="st4" d="M207.1,192.2h-19.5c-2.1,0-3.8,1.7-3.8,3.8c0,2.1,1.7,3.8,3.8,3.8h19.5c2.1,0,3.8-1.7,3.8-3.8
				C210.9,194,209.2,192.2,207.1,192.2z"/>
			<path class="st4" d="M248.7,192.2h-19.5c-2.1,0-3.8,1.7-3.8,3.8c0,2.1,1.7,3.8,3.8,3.8h19.5c2.1,0,3.8-1.7,3.8-3.8
				C252.5,194,250.8,192.2,248.7,192.2z"/>
			<path class="st4" d="M290.3,192.2h-19.5c-2.1,0-3.8,1.7-3.8,3.8c0,2.1,1.7,3.8,3.8,3.8h19.5c2.1,0,3.8-1.7,3.8-3.8
				C294.1,194,292.4,192.2,290.3,192.2z"/>
			<path class="st4" d="M331.9,192.2h-19.5c-2.1,0-3.8,1.7-3.8,3.8c0,2.1,1.7,3.8,3.8,3.8h19.5c2.1,0,3.8-1.7,3.8-3.8
				C335.7,194,334,192.2,331.9,192.2z"/>
			<path class="st4" d="M165.5,337.5H146c-2.1,0-3.8,1.7-3.8,3.8s1.7,3.8,3.8,3.8h19.5c2.1,0,3.8-1.7,3.8-3.8
				S167.6,337.5,165.5,337.5z"/>
			<path class="st4" d="M207.1,337.5h-19.5c-2.1,0-3.8,1.7-3.8,3.8s1.7,3.8,3.8,3.8h19.5c2.1,0,3.8-1.7,3.8-3.8
				S209.2,337.5,207.1,337.5z"/>
			<path class="st4" d="M248.7,337.5h-19.5c-2.1,0-3.8,1.7-3.8,3.8s1.7,3.8,3.8,3.8h19.5c2.1,0,3.8-1.7,3.8-3.8
				S250.8,337.5,248.7,337.5z"/>
			<path class="st4" d="M290.3,337.5h-19.5c-2.1,0-3.8,1.7-3.8,3.8s1.7,3.8,3.8,3.8h19.5c2.1,0,3.8-1.7,3.8-3.8
				S292.4,337.5,290.3,337.5z"/>
			<path class="st4" d="M331.9,337.5h-19.5c-2.1,0-3.8,1.7-3.8,3.8s1.7,3.8,3.8,3.8h19.5c2.1,0,3.8-1.7,3.8-3.8
				S334,337.5,331.9,337.5z"/>
		</g>
		<path class="st5" d="M283.3,144.1l-51.4-38.8c-2.4-1.8-5.8-1.3-7.6,1.1l-56.9,75.3h94.3l22.6-29.9
			C286.1,149.3,285.6,145.9,283.3,144.1z"/>
		<path class="st6" d="M253.1,181.6l18.4-24.4c-4.7-3.6-5.6-10.3-2.1-15L237.4,118c-3.6,4.7-10.3,5.6-15,2.1L176,181.6H253.1z"/>
		<path class="st7" d="M237.9,181.6c3.1-7.9,0.8-17.2-6.3-22.6c-8.5-6.4-20.7-4.7-27.1,3.8c-4.2,5.6-4.9,12.7-2.5,18.8H237.9z"/>
		<path class="st7" d="M248.2,137.1c2.7,2,3.2,5.9,1.2,8.5c-2,2.7-5.9,3.2-8.5,1.2c-2.7-2-3.2-5.9-1.2-8.5
			C241.7,135.6,245.5,135.1,248.2,137.1z"/>
		<path class="st8" d="M347.7,144.1l-51.4-38.8c-2.4-1.8-5.8-1.3-7.6,1.1l-56.9,75.3h94.3l22.6-29.9
			C350.6,149.3,350.1,145.9,347.7,144.1z"/>
		<path class="st6" d="M317.6,181.6l18.4-24.4c-4.7-3.6-5.6-10.3-2.1-15L301.9,118c-3.6,4.7-10.3,5.6-15,2.1l-46.5,61.5H317.6z"/>
		<g>
			<path class="st8" d="M302.4,181.6c3.1-7.9,0.8-17.2-6.3-22.6c-8.5-6.4-20.7-4.7-27.1,3.8c-4.2,5.6-4.9,12.7-2.5,18.8H302.4z"/>
			<path class="st8" d="M312.7,137.1c2.7,2,3.2,5.9,1.2,8.5c-2,2.7-5.9,3.2-8.5,1.2c-2.7-2-3.2-5.9-1.2-8.5
				C306.2,135.6,310,135.1,312.7,137.1z"/>
		</g>
	</g>
</g>
</svg>
