<svg xmlns="http://www.w3.org/2000/svg" xmlns:xlink="http://www.w3.org/1999/xlink" viewBox="0 0 238.03 222.11"><defs><style>.cls-1{fill:url(#linear-gradient);}.cls-2{fill:url(#linear-gradient-2);}.cls-3{fill:url(#linear-gradient-3);}.cls-4{fill:url(#linear-gradient-4);}.cls-5{fill:url(#linear-gradient-5);}.cls-6{fill:url(#linear-gradient-6);}.cls-7{fill:url(#linear-gradient-7);}.cls-8{fill:url(#linear-gradient-8);}.cls-9{fill:url(#linear-gradient-9);}.cls-10{fill:url(#linear-gradient-10);}</style><linearGradient id="linear-gradient" x1="62.96" y1="163.34" x2="84.66" y2="163.34" gradientUnits="userSpaceOnUse"><stop offset="0" stop-color="#41ad4c"/><stop offset="0.52" stop-color="#17a74c"/><stop offset="0.82" stop-color="#168b43"/><stop offset="1" stop-color="#0f7039"/></linearGradient><linearGradient id="linear-gradient-2" x1="137.6" y1="163.34" x2="159.32" y2="163.34" xlink:href="#linear-gradient"/><linearGradient id="linear-gradient-3" x1="100.29" y1="163.34" x2="121.99" y2="163.34" xlink:href="#linear-gradient"/><linearGradient id="linear-gradient-4" x1="137.6" y1="128.05" x2="159.32" y2="128.05" xlink:href="#linear-gradient"/><linearGradient id="linear-gradient-5" x1="100.29" y1="128.05" x2="121.99" y2="128.05" xlink:href="#linear-gradient"/><linearGradient id="linear-gradient-6" x1="40.57" y1="70.2" x2="160.55" y2="70.2" xlink:href="#linear-gradient"/><linearGradient id="linear-gradient-7" x1="173.72" y1="148.25" x2="238.03" y2="148.25" xlink:href="#linear-gradient"/><linearGradient id="linear-gradient-8" x1="195.59" y1="146.66" x2="214.86" y2="146.66" xlink:href="#linear-gradient"/><linearGradient id="linear-gradient-9" x1="176.28" y1="81.05" x2="222.27" y2="81.05" xlink:href="#linear-gradient"/><linearGradient id="linear-gradient-10" x1="0" y1="137.2" x2="209.49" y2="137.2" xlink:href="#linear-gradient"/></defs><title>Asset 38</title><g id="Layer_2" data-name="Layer 2"><g id="Layer_1-2" data-name="Layer 1"><path class="cls-1" d="M63,163.13a10.85,10.85,0,1,0,21.7.21,10.85,10.85,0,0,0-21.7-.21Z"/><path class="cls-2" d="M148.31,152.46a10.78,10.78,0,0,0-10.71,10.79,10.66,10.66,0,0,0,10.73,11,10.88,10.88,0,1,0,0-21.76Z"/><path class="cls-3" d="M111,152.46a10.78,10.78,0,0,0-10.75,10.74,10.67,10.67,0,0,0,10.9,11,10.88,10.88,0,0,0-.15-21.76Z"/><path class="cls-4" d="M148.31,117.17a10.88,10.88,0,1,0,11,10.76A10.91,10.91,0,0,0,148.31,117.17Z"/><path class="cls-5" d="M111,117.17A10.88,10.88,0,1,0,122,128,10.78,10.78,0,0,0,111,117.17Z"/><path class="cls-6" d="M40.74,106.21l-.17.46v2.59l.16.45a9.32,9.32,0,0,0,2,3.4l12.64,13.64L65.75,138a7.29,7.29,0,0,0,1.58,1.35,6.56,6.56,0,0,0,3.48,1A6.92,6.92,0,0,0,75.88,138l23-24.87a12.39,12.39,0,0,0,.82-1,7.19,7.19,0,0,0,1-6.38,6.7,6.7,0,0,0-4.19-4.44,6.59,6.59,0,0,0-7.28,2q-4.66,5-9.34,10.09c0-12.85,0-53.71,0-63.31a35.06,35.06,0,0,1,.57-6.47C84,25.09,99.93,14.32,118.41,18.12,135.89,21.7,144,37,143,52.28H140.3c-11.5,0-23-.06-34.5.06A8.27,8.27,0,0,0,97.26,61a8.43,8.43,0,0,0,8.67,8.65q23.12.11,46.23,0c4.48,0,8.41-3.68,8.39-8.06,0-6.85.14-13.79-.87-20.53C155.1,10.4,127.27-4,101.61,1,78,5.59,62.93,24.71,62.55,49.34c-.15,10.08,0,52.78,0,64.94l-10-10.82a11.33,11.33,0,0,0-1-1,6.47,6.47,0,0,0-8.4,0A8,8,0,0,0,40.74,106.21Z"/><path class="cls-7" d="M205.88,116.1A32.16,32.16,0,1,0,238,148.25,32.2,32.2,0,0,0,205.88,116.1Zm0,56.19a24,24,0,1,1,24-24A24.06,24.06,0,0,1,205.88,172.29Z"/><path class="cls-8" d="M212.35,150.47a2.83,2.83,0,0,0-1.61.55,8,8,0,0,1-.92.64v-9.82c.17.11.33.23.49.35a2.77,2.77,0,0,0,1.73.59,2.68,2.68,0,0,0,2.7-2.67,2.61,2.61,0,0,0-.94-2,9.42,9.42,0,0,0-4-2v-2.36a2.94,2.94,0,1,0-5.87,0V136a10.75,10.75,0,0,0-8.36,10.64v.08A10.71,10.71,0,0,0,204,157.33v2.29a2.94,2.94,0,1,0,5.87,0v-2.4a9.83,9.83,0,0,0,4.18-2.31,2.54,2.54,0,0,0-1.65-4.44Zm-8.4,1.19a5.81,5.81,0,0,1-2.47-5v-.07a5.89,5.89,0,0,1,2.47-5Z"/><path class="cls-9" d="M185.7,69.73c10.78.28,20,10,19.11,20.57-.5,5.68-1.14,11.35-1.81,17,1-.07,1.93-.11,2.91-.11a40.78,40.78,0,0,1,14.29,2.57c.57-5,1.14-10.1,1.75-15.14,1.6-13.33-2.79-24.36-12.64-33.19a33.93,33.93,0,0,0-25.22-9.07,8.27,8.27,0,0,0-7.8,8.1C176.11,66,179.73,69.58,185.7,69.73Z"/><path class="cls-10" d="M191.43,186.48c-5.57,10.28-16.57,17.65-28.35,17.82-19.83.31-39.66.13-59.48.13-14.76,0-29.53.18-44.28-.11-15.5-.31-29.73-12.76-31.92-28.06-1.94-13.5-3.26-27.09-4.83-40.65s-3.16-27-4.58-40.47a33.79,33.79,0,0,1,0-9.89c1.75-9,9.72-15.25,18.92-15.53,4.25-.12,7.38-2.21,8.6-5.74,2.15-6.17-2.13-11.74-9-11.69-15.13.12-29.17,10.2-34.37,24.79C1.28,79.63.72,82.31,0,84.94v8.68c.43,3.06.93,6.11,1.28,9.18q2.17,18.69,4.28,37.4c1.37,12.11,2.57,24.24,4.11,36.33a51.86,51.86,0,0,0,39,43.81c3.27.82,6.64,1.19,10,1.77H163.69c2.76-.44,5.55-.8,8.29-1.34,16.78-3.32,31.32-16,37.51-31.82-1.18.11-2.37.17-3.58.17A40.89,40.89,0,0,1,191.43,186.48Z"/></g></g></svg>