<?xml version="1.0" encoding="utf-8"?>
<!-- Generator: Adobe Illustrator 21.1.0, SVG Export Plug-In . SVG Version: 6.00 Build 0)  -->
<svg version="1.1" id="Layer_1" xmlns="http://www.w3.org/2000/svg" xmlns:xlink="http://www.w3.org/1999/xlink" x="0px" y="0px"
	 viewBox="0 0 464 464" style="enable-background:new 0 0 464 464;" xml:space="preserve">
<style type="text/css">
	.st0{opacity:0.11;fill:#476D16;}
	.st1{fill:#598527;}
</style>
<circle class="st0" cx="233.3" cy="234.3" r="226.3"/>
<g>
	<g>
		<g>
			<path class="st1" d="M200.2,157.9h-55.1v55.1h55.1V157.9z M189.2,202h-33.1V169h33.1V202z"/>
			<rect x="167.2" y="180" class="st1" width="11" height="11"/>
			<path class="st1" d="M266.4,157.9v55.1h55.1v-55.1H266.4z M310.5,202h-33.1V169h33.1V202z"/>
			<rect x="288.4" y="180" class="st1" width="11" height="11"/>
			<path class="st1" d="M145.1,334.3h55.1v-55.1h-55.1V334.3z M156.1,290.2h33.1v33.1h-33.1V290.2z"/>
			<rect x="167.2" y="301.2" class="st1" width="11" height="11"/>
			<rect x="233.3" y="157.9" class="st1" width="22" height="11"/>
			<polygon class="st1" points="233.3,202 244.3,202 244.3,191 255.3,191 255.3,180 222.3,180 222.3,169 211.3,169 211.3,180 
				211.3,185.5 211.3,191 233.3,191 			"/>
			<rect x="211.3" y="202" class="st1" width="11" height="11"/>
			<polygon class="st1" points="255.3,213.1 244.3,213.1 244.3,224.1 211.3,224.1 211.3,235.1 255.3,235.1 			"/>
			<polygon class="st1" points="156.1,257.1 167.2,257.1 167.2,246.1 156.1,246.1 156.1,224.1 145.1,224.1 145.1,268.2 156.1,268.2 
							"/>
			<rect x="167.2" y="224.1" class="st1" width="11" height="11"/>
			<polygon class="st1" points="211.3,268.2 233.3,268.2 233.3,257.1 222.3,257.1 222.3,246.1 200.2,246.1 200.2,224.1 189.2,224.1 
				189.2,246.1 178.2,246.1 178.2,268.2 189.2,268.2 189.2,257.1 194.7,257.1 200.2,257.1 211.3,257.1 			"/>
			<rect x="244.3" y="246.1" class="st1" width="11" height="22"/>
			<polygon class="st1" points="244.3,279.2 211.3,279.2 211.3,290.2 233.3,290.2 233.3,323.3 211.3,323.3 211.3,334.3 244.3,334.3 
				244.3,323.3 266.4,323.3 266.4,312.3 244.3,312.3 			"/>
			<rect x="211.3" y="301.2" class="st1" width="11" height="11"/>
			<rect x="255.3" y="279.2" class="st1" width="11" height="22"/>
			<polygon class="st1" points="310.5,301.2 277.4,301.2 277.4,334.3 288.4,334.3 288.4,312.3 310.5,312.3 			"/>
			<rect x="299.4" y="323.3" class="st1" width="22" height="11"/>
			<rect x="310.5" y="279.2" class="st1" width="11" height="11"/>
			<polygon class="st1" points="277.4,290.2 288.4,290.2 288.4,257.1 266.4,257.1 266.4,268.2 277.4,268.2 			"/>
			<polygon class="st1" points="299.4,235.1 288.4,235.1 288.4,224.1 277.4,224.1 277.4,235.1 266.4,235.1 266.4,246.1 310.5,246.1 
				310.5,235.1 321.5,235.1 321.5,224.1 299.4,224.1 			"/>
			<rect x="299.4" y="257.1" class="st1" width="22" height="11"/>
		</g>
	</g>
</g>
</svg>
