<?xml version="1.0" encoding="utf-8"?>
<!-- Generator: Adobe Illustrator 21.1.0, SVG Export Plug-In . SVG Version: 6.00 Build 0)  -->
<svg version="1.1" id="Layer_1" xmlns="http://www.w3.org/2000/svg" xmlns:xlink="http://www.w3.org/1999/xlink" x="0px" y="0px"
	 viewBox="0 0 464 464" style="enable-background:new 0 0 464 464;" xml:space="preserve">
<style type="text/css">
	.st0{opacity:0.11;fill:#0076B5;}
	.st1{fill:#006DF0;}
	.st2{fill:#BDDBFF;}
	.st3{fill:#ED1C24;}
	.st4{fill:#F9B200;}
	.st5{fill:#379A05;}
	.st6{fill:#F1F2F2;}
	.st7{fill:#9BC9FF;}
</style>
<g>
	<circle class="st0" cx="233.3" cy="234.6" r="224.7"/>
	<g>
		<path class="st1" d="M352.6,150.7H113.9c-6.6,0-11.9,5.3-11.9,11.9v23.9h262.6v-23.9C364.6,156.1,359.2,150.7,352.6,150.7z"/>
		<path class="st2" d="M364.6,186.5v155.2c0,6.6-5.4,11.9-11.9,11.9H113.9c-6.6,0-11.9-5.4-11.9-11.9V186.5H364.6z"/>
		<path class="st3" d="M298.9,211.6v46.6h46.6C340.7,234.7,322.3,216.4,298.9,211.6z"/>
		<path class="st4" d="M287,329.8c30.6,0,56.3-23.2,59.4-53.7H281v-65.4c-31.6,3.2-55.2,30.6-53.6,62.4
			C229,304.8,255.2,329.8,287,329.8z"/>
		<path class="st4" d="M155.7,264.1h17.9v65.6h-17.9V264.1z"/>
		<path class="st5" d="M191.5,234.9h17.9v94.9h-17.9V234.9z"/>
		<path class="st6" d="M119.9,162.6h11.9v11.9h-11.9V162.6z"/>
		<path class="st6" d="M137.8,162.6h11.9v11.9h-11.9V162.6z"/>
		<path class="st6" d="M155.7,162.6h11.9v11.9h-11.9V162.6z"/>
		<path class="st7" d="M102,246.2v95.5c0,6.6,5.3,11.9,11.9,11.9h119.4C160.7,353.6,102,305.6,102,246.2z"/>
		<path class="st3" d="M119.9,288h17.9v41.8h-17.9V288z"/>
	</g>
</g>
</svg>
