<svg id="Layer_1" data-name="Layer 1" xmlns="http://www.w3.org/2000/svg" viewBox="0 0 456.4 456.4"><defs><style>.cls-1{fill:#357e4a;opacity:0.11;isolation:isolate;}.cls-2{fill:#fff;}.cls-3{fill:#707070;}.cls-4{fill:#898888;}.cls-5{fill:#999;}.cls-6{fill:#40a629;}</style></defs><title>onlineshop</title><circle class="cls-1" cx="228.2" cy="228.2" r="228.2"/><polygon class="cls-2" points="88.19 120.69 92.07 310.72 367.15 304.43 363.27 122.66 88.19 120.69"/><path class="cls-3" d="M43.4,330.29c0,12.45,12.92,22.53,25.36,22.53H390.88c12.46,0,28.18-10.08,28.18-22.53Z" transform="translate(-3.8 -4)"/><path class="cls-4" d="M375.38,114.89H87.07a8.46,8.46,0,0,0-8.44,8.46V314.9a8.45,8.45,0,0,0,8.44,8.46H375.38a8.44,8.44,0,0,0,8.45-8.46V123.35A8.45,8.45,0,0,0,375.38,114.89Zm-144.14,3.16a6.65,6.65,0,1,1-6.66,6.65A6.64,6.64,0,0,1,231.24,118.05ZM362.08,298.63a3.79,3.79,0,0,1-3.78,3.8H104.16a3.79,3.79,0,0,1-3.79-3.8V138.4a3.79,3.79,0,0,1,3.79-3.79H358.3a3.79,3.79,0,0,1,3.78,3.79Z" transform="translate(-3.8 -4)"/><path class="cls-5" d="M229.27,124.7a2,2,0,1,0,2-2A2,2,0,0,0,229.27,124.7Z" transform="translate(-3.8 -4)"/><polygon class="cls-2" points="188.85 182.29 198.62 232.83 275.14 232.83 286.08 185.51 188.85 182.29"/><path class="cls-6" d="M193.56,263.34a3.64,3.64,0,0,1-3.64-3.65h0a3.63,3.63,0,0,1,3.64-3.64h89.93a3.64,3.64,0,0,1,3.65,3.64h0a3.66,3.66,0,0,1-3.65,3.65H193.56Z" transform="translate(-3.8 -4)"/><path class="cls-6" d="M193,280.06l-9.12-22.79a4.47,4.47,0,0,1-.07-3.2h0l7.29-20.66a4.55,4.55,0,0,1,5.82-2.78h0a4.57,4.57,0,0,1,2.78,5.81h0l-6.73,19,8.48,21.19a4.54,4.54,0,0,1-2.54,5.92h0a4.37,4.37,0,0,1-1.68.33h0a4.51,4.51,0,0,1-4.23-2.86Z" transform="translate(-3.8 -4)"/><path class="cls-6" d="M199.32,268.74l3.05,7.63a5.67,5.67,0,0,1-3.18,7.4,5.43,5.43,0,0,1-2.09.4,5.68,5.68,0,0,1-5.29-3.57l-3.24-8.07a10.93,10.93,0,1,0,10.75-3.79Z" transform="translate(-3.8 -4)"/><path class="cls-6" d="M278.46,268.74l3.06,7.63a5.69,5.69,0,0,1-3.18,7.4,5.55,5.55,0,0,1-2.1.4A5.67,5.67,0,0,1,271,280.6l-3.22-8.07a10.79,10.79,0,0,0-2.46,6.9,10.94,10.94,0,1,0,13.19-10.69Z" transform="translate(-3.8 -4)"/><path class="cls-6" d="M272.12,280.06a4.54,4.54,0,0,0,4.24,2.86,4.3,4.3,0,0,0,1.68-.33,4.54,4.54,0,0,0,2.54-5.92l-6.21-15.55h-9.81Z" transform="translate(-3.8 -4)"/><path class="cls-6" d="M186.67,238.2,172,158.82H151a5.48,5.48,0,0,1-5.47-5.47h0a5.46,5.46,0,0,1,5.47-5.47h25.52a5.49,5.49,0,0,1,5.39,4.47h0l15.49,83.85a5.48,5.48,0,0,1-4.4,6.37h0a5.47,5.47,0,0,1-1,.1h0a5.47,5.47,0,0,1-5.36-4.48Z" transform="translate(-3.8 -4)"/><path class="cls-6" d="M297.68,179.12H178.39c-1.46,0-1.84,1-1.84,2.5L188,243.16a2.62,2.62,0,0,0,2.63,2.62h93a2.61,2.61,0,0,0,2.62-2.62l14-61.41A2.63,2.63,0,0,0,297.68,179.12Zm-25.44,53.52a1.83,1.83,0,0,1-1.83,1.83H204.52a1.84,1.84,0,0,1-1.84-1.83L195,194.37a1.84,1.84,0,0,1,1.84-1.83h82.93a1.83,1.83,0,0,1,1.83,1.83Z" transform="translate(-3.8 -4)"/></svg>