<svg xmlns="http://www.w3.org/2000/svg" xmlns:xlink="http://www.w3.org/1999/xlink" viewBox="0 0 224.42 252.96"><defs><style>.cls-1{fill:url(#linear-gradient);}.cls-2{fill:url(#linear-gradient-2);}.cls-3{fill:url(#linear-gradient-3);}.cls-4{fill:url(#linear-gradient-4);}.cls-5{fill:url(#linear-gradient-5);}.cls-6{fill:url(#linear-gradient-6);}</style><linearGradient id="linear-gradient" x1="49.79" y1="20.41" x2="146.13" y2="20.41" gradientUnits="userSpaceOnUse"><stop offset="0" stop-color="#41ad4c"/><stop offset="0.52" stop-color="#17a74c"/><stop offset="0.82" stop-color="#168b43"/><stop offset="1" stop-color="#0f7039"/></linearGradient><linearGradient id="linear-gradient-2" x1="64.83" y1="144.51" x2="118.86" y2="144.51" xlink:href="#linear-gradient"/><linearGradient id="linear-gradient-3" x1="155.37" y1="196.68" x2="181.28" y2="196.68" xlink:href="#linear-gradient"/><linearGradient id="linear-gradient-4" x1="16.45" y1="166.37" x2="224.42" y2="166.37" xlink:href="#linear-gradient"/><linearGradient id="linear-gradient-5" x1="3.1" y1="49.07" x2="186.7" y2="49.07" xlink:href="#linear-gradient"/><linearGradient id="linear-gradient-6" x1="0" y1="91.69" x2="189.82" y2="91.69" xlink:href="#linear-gradient"/></defs><title>Asset 37</title><g id="Layer_2" data-name="Layer 2"><g id="Layer_1-2" data-name="Layer 1"><path class="cls-1" d="M146.13,40.82H128.49c-2.72-10.83-10.56-20-23.6-22.71C87.37,14.52,72.16,24,67.61,40.82H49.79C53.12,20.38,67.32,5,88.1,1,113.68-4,141.43,10.31,146.13,40.82Z"/><path class="cls-2" d="M117.69,146.94a10.14,10.14,0,0,1-.73.89q-10.29,11.11-20.57,22.22a6.2,6.2,0,0,1-4.53,2.16,5.82,5.82,0,0,1-3.12-.94,7.1,7.1,0,0,1-1.41-1.2L78,160q-5.66-6.08-11.3-12.18a8.4,8.4,0,0,1-1.74-3l-.14-.41v-2.31l.15-.41a7.21,7.21,0,0,1,2.08-3.33,5.79,5.79,0,0,1,7.51,0,10.23,10.23,0,0,1,.93.9l9,9.67c0-4.84,0-15.09,0-25.77A29.1,29.1,0,0,0,100,116.81c0,12.2,0,25.23,0,31.28q4.17-4.5,8.34-9a5.91,5.91,0,0,1,6.51-1.8,6,6,0,0,1,3.75,4A6.48,6.48,0,0,1,117.69,146.94Z"/><path class="cls-3" d="M177.9,201.8a3.69,3.69,0,0,0-2.16.74,10.1,10.1,0,0,1-1.24.85v-13.2c.23.15.44.31.66.47a3.77,3.77,0,0,0,2.32.8,3.6,3.6,0,0,0,2.38-6.34,12.86,12.86,0,0,0-5.36-2.69v-3.17a3.95,3.95,0,1,0-7.89,0v3.1a14.46,14.46,0,0,0-11.24,14.32v.11A14.37,14.37,0,0,0,166.61,211v3.09a3.95,3.95,0,1,0,7.89,0v-3.23a13.2,13.2,0,0,0,5.62-3.11,3.4,3.4,0,0,0-2.22-6Zm-11.29,1.6a7.82,7.82,0,0,1-3.32-6.72v-.11a7.93,7.93,0,0,1,3.32-6.65Z"/><path class="cls-4" d="M223.18,187.19a54.73,54.73,0,0,0-53.93-43.35h-.94c-1.24,0-1.27,0-1.32-.88-.84-15.85-1.76-31.95-2.65-47.52-.2-3.45-.42-6.9-.66-10.45l-.33-5.2h-140L22.82,90c-.43,7.53-.85,15-1.28,22.38q-1,17.46-2.05,34.92l-.72,11.88-.84,13.94L17.64,178c-.4,6.72-.81,13.66-1.15,20.5A31.77,31.77,0,0,0,19,212.18a34,34,0,0,0,31.6,21.15c22.27,0,46.32,0,75.68,0h0a3.09,3.09,0,0,1,2.66,1.19,53.61,53.61,0,0,0,27.44,16.78c1.79.44,3.61.81,5.38,1.16l2.45.5,11.15,0,.09,0,2.11-.41c1.48-.3,3-.59,4.45-.91a54.63,54.63,0,0,0,41.2-64.43Zm-107.58,5a52.47,52.47,0,0,0,3.08,25.38c.08.22.15.45.23.7-.37,0-.72.05-1.06.05l-20.36,0c-15.07,0-30.65,0-46,.07h-.18c-11.16,0-18.18-7.45-19.36-14.85a52.49,52.49,0,0,1-.19-10.72l.07-1.42c.31-6.72.73-13.56,1.14-20.16.15-2.39.29-4.78.44-7.16q.39-6.68.8-13.34.61-10.14,1.21-20.28.46-7.79.89-15.56.28-5.13.58-10.26c.14-2.48.29-5,.44-7.49l.18-2.87H54.27l78.24,0h16.71l.2,3.08c.2,3.11.39,6.24.58,9.37q.33,5.48.64,11c.44,7.71.9,15.69,1.43,23.54l0,.29c.17,2.42.26,3.76-.17,4.48s-1.65,1.31-3.88,2.35l-.21.1C129.17,157.29,118.33,172,115.6,192.21Zm82.3,34.11a39.45,39.45,0,0,1-28.12,11.81h0a39.79,39.79,0,0,1-39.68-39.6,39.76,39.76,0,0,1,39.7-39.73h0a39.79,39.79,0,0,1,39.65,39.52A39.2,39.2,0,0,1,197.9,226.32Z"/><path class="cls-5" d="M186.7,57.31H3.1c.49-.32.83-.56,1.21-.8l24.1-14.88c.42-.26.75-.54,1.12-.81H160.28c.37.27.7.55,1.12.81l24.1,14.88C185.88,56.75,186.22,57,186.7,57.31Z"/><path class="cls-6" d="M189.81,72c-.14,5.9.15,11.85-.54,17.68-1.37,11.59-12.17,21.83-23.74,23.34-10.16,1.33-18.69-1.74-25.72-9.13-.22-.23-.48-.44-.82-.75-5.89,6.6-13.18,10.21-22,10.21s-16-3.57-22-10.15A32,32,0,0,1,91,107a28.88,28.88,0,0,1-40.1-3.75c-.38.32-.77.63-1.12,1-7.86,8-17.32,11.05-28.15,8.23S3.62,102.32.8,91.28A25.87,25.87,0,0,1,.06,85.4C0,80.29,0,75.19,0,69.92H189.81C189.81,70.64,189.83,71.33,189.81,72Z"/></g></g></svg>