<?xml version="1.0" encoding="utf-8"?>
<!-- Generator: Adobe Illustrator 21.1.0, SVG Export Plug-In . SVG Version: 6.00 Build 0)  -->
<svg version="1.1" id="Layer_1" xmlns="http://www.w3.org/2000/svg" xmlns:xlink="http://www.w3.org/1999/xlink" x="0px" y="0px"
	 viewBox="0 0 464 464" style="enable-background:new 0 0 464 464;" xml:space="preserve">
<style type="text/css">
	.st0{opacity:0.11;fill:#35033F;}
	.st1{fill:#E8BFEF;}
	.st2{fill:#F1F2F2;}
	.st3{fill:#6B137A;}
	.st4{opacity:0.43;fill:#57565C;}
	.st5{fill:#BB6ACE;}
	.st6{fill:#58595B;}
</style>
<circle class="st0" cx="232.8" cy="232" r="229"/>
<g>
	<path class="st1" d="M146.2,118.4h103.3c9.5,0,17.2,7.7,17.2,17.2v215.3c0,9.5-7.7,17.2-17.2,17.2H146.2c-9.5,0-17.2-7.7-17.2-17.2
		V135.6C129,126.1,136.7,118.4,146.2,118.4z"/>
	<path class="st2" d="M141.9,320.7h112v8.6h-112V320.7z"/>
	<path class="st3" d="M129,260.5v90.4c0,9.5,7.7,17.2,17.2,17.2h73.2C169.4,368.1,129,320,129,260.5z"/>
	<path class="st4" d="M167.8,135.6H228c4.8,0,8.6-3.9,8.6-8.6v-8.6h-77.5v8.6C159.1,131.7,163,135.6,167.8,135.6z"/>
	<path class="st5" d="M189.3,178.7h189.5v60.3H189.3V178.7z"/>
	<g>
		<path class="st3" d="M206.7,221.1l8.5-4.9v9.8h8.6v-9.8l8.5,4.9l4.3-7.5l-8.5-4.9l8.5-4.9l-4.3-7.5l-8.5,4.9v-9.8h-8.6v9.8
			l-8.5-4.9l-4.3,7.5l8.5,4.9l-8.5,4.9L206.7,221.1z"/>
		<path class="st3" d="M249.7,221.1l8.5-4.9v9.8h8.6v-9.8l8.5,4.9l4.3-7.5l-8.5-4.9l8.5-4.9l-4.3-7.5l-8.5,4.9v-9.8h-8.6v9.8
			l-8.5-4.9l-4.3,7.5l8.5,4.9l-8.5,4.9L249.7,221.1z"/>
		<path class="st3" d="M292.8,221.1l8.5-4.9v9.8h8.6v-9.8l8.5,4.9l4.3-7.5l-8.5-4.9l8.5-4.9l-4.3-7.5l-8.5,4.9v-9.8h-8.6v9.8
			l-8.5-4.9l-4.3,7.5l8.5,4.9l-8.5,4.9L292.8,221.1z"/>
		<path class="st3" d="M335.8,221.1l8.5-4.9v9.8h8.6v-9.8l8.5,4.9l4.3-7.5l-8.5-4.9l8.5-4.9l-4.3-7.5l-8.5,4.9v-9.8h-8.6v9.8
			l-8.5-4.9l-4.3,7.5l8.5,4.9l-8.5,4.9L335.8,221.1z"/>
	</g>
	<path class="st6" d="M206.5,346.6c0,4.8-3.9,8.6-8.6,8.6c-4.8,0-8.6-3.9-8.6-8.6c0-4.8,3.9-8.6,8.6-8.6
		C202.7,338,206.5,341.8,206.5,346.6z"/>
</g>
</svg>
