<svg xmlns="http://www.w3.org/2000/svg" xmlns:xlink="http://www.w3.org/1999/xlink" viewBox="0 0 182.63 183.44"><defs><style>.cls-1{fill:url(#linear-gradient);}.cls-2{fill:url(#linear-gradient-2);}</style><linearGradient id="linear-gradient" x1="66.51" y1="88.6" x2="116.59" y2="88.6" gradientUnits="userSpaceOnUse"><stop offset="0" stop-color="#41ad4c"/><stop offset="0.52" stop-color="#17a74c"/><stop offset="0.82" stop-color="#168b43"/><stop offset="1" stop-color="#0f7039"/></linearGradient><linearGradient id="linear-gradient-2" x1="0" y1="91.72" x2="182.63" y2="91.72" xlink:href="#linear-gradient"/></defs><title>Asset 35</title><g id="Layer_2" data-name="Layer 2"><g id="Layer_1-2" data-name="Layer 1"><path class="cls-1" d="M110.06,98.49a7.25,7.25,0,0,0-4.18,1.43,20.41,20.41,0,0,1-2.39,1.65V76.05c.43.29.85.59,1.27.92a7.33,7.33,0,0,0,4.49,1.53,7,7,0,0,0,7-6.94,6.86,6.86,0,0,0-2.45-5.3,24.71,24.71,0,0,0-10.35-5.21V54.92a7.63,7.63,0,1,0-15.25,0v6A28,28,0,0,0,66.51,88.6v.2a27.8,27.8,0,0,0,21.73,27.51v6a7.63,7.63,0,1,0,15.25,0V116a25.57,25.57,0,0,0,10.86-6,6.58,6.58,0,0,0-4.29-11.53Zm-21.82,3.09c-4.06-2.62-6.43-7.44-6.43-13v-.21a15.26,15.26,0,0,1,6.43-12.85Z"/><path class="cls-2" d="M180.29,182.88c-14.79-3.87-29.58-7.76-44.38-11.57a4.31,4.31,0,0,0-2.83.29c-19.8,10-40.53,12.88-62.21,8.05C32.41,171.08,3.36,137.64.3,98.37a89.59,89.59,0,0,1,7.81-45,90.79,90.79,0,0,1,101-51.58A87.17,87.17,0,0,1,147.84,20.1C168,36.61,179.38,57.92,181.57,83.85a88.88,88.88,0,0,1-11.09,51.25,3.93,3.93,0,0,0-.29,2.64c2.19,8.28,4.47,16.54,6.72,24.8,1.87,6.85,3.75,13.69,5.72,20.9C181.61,183.2,181,183.05,180.29,182.88Zm-25.13-41.32c-.66-2.39-2-4.85-1.77-7.13s2.16-4.32,3.36-6.47a74.26,74.26,0,0,0,9.62-40.26,75.44,75.44,0,0,0-59-70.4C68.52,8.86,30.76,30.78,18.83,68.59,5.72,110.12,31.44,154.91,74,164.47c19.88,4.48,38.62,1.4,56.15-9a5,5,0,0,1,4.27-.64c8,2.18,16.07,4.24,24.11,6.35.66.17,1.32.32,2.2.53Z"/></g></g></svg>