<?xml version="1.0" encoding="utf-8"?>
<!-- Generator: Adobe Illustrator 23.1.1, SVG Export Plug-In . SVG Version: 6.00 Build 0)  -->
<svg version="1.1" id="Layer_1" xmlns="http://www.w3.org/2000/svg" xmlns:xlink="http://www.w3.org/1999/xlink" x="0px" y="0px"
	 viewBox="0 0 512 512" style="enable-background:new 0 0 512 512;" xml:space="preserve">
<style type="text/css">
	.st0{fill:#FFFFFF;}
</style>
<g id="_24-payment">
	<g id="linear_color">
		<path class="st0" d="M504.4,250.6l-56-88c-1.7-2.6-4.4-4.3-7.5-4.6l-64.9-5.9V148c0-14.4-11.6-26-26-26H118c-14.4,0-26,11.6-26,26
			v144c0,14.4,11.6,26,26,26h156.9c1.5,0,3-0.3,4.3-1L350,426v70c0,5.5,4.5,10,10,10s10-4.5,10-10v-73c0-1.9-0.6-3.8-1.6-5.5
			l-85-130.8c11.2-5.1,29.9-11,38.5,1c2.4,3.3,4.8,6.7,7.2,10c21.9,30.4,40.7,55.9,40.9,56.1c3.3,4.4,9.6,5.4,14,2.1
			c1.1-0.8,2-1.8,2.7-3l54-92c1.7-2.9,1.8-6.5,0.3-9.5l-24-48c-1.5-2.9-4.3-5-7.5-5.4l-33.4-4.8v-21.1l58.2,5.3l51.1,80.4l-31.1,140
			c-0.2,0.7-0.2,1.4-0.2,2.2v96c0,5.5,4.5,10,10,10s10-4.5,10-10v-94.9l31.8-142.9C506.3,255.6,505.9,252.9,504.4,250.6L504.4,250.6
			z M112,182h244v13H112V182z M118,142h232c3.3,0,6,2.7,6,6v14H112v-14C112,144.7,114.7,142,118,142z M377,329.9
			c-7.6-10.3-19.2-26.2-31.8-43.7l-1.8-2.5c-10.9-18.8-28.3-27.7-53.6-20.6c-9.2,2.6-18.1,6.5-26.3,11.5c-4.7,3-6,9.2-3,13.9
			l6.2,9.6H118c-3.3,0-6-2.7-6-6v-77h244v77c0,5.5,4.5,10,10,10s10-4.5,10-10v-37.4l1.1,0.2l19.7,41.5L377,329.9z M420.6,255.6
			L409,275.4l-16-33.7c-1.3-2.8-4-4.9-7-5.5l-10-2v-20.6l25.4,3.6L420.6,255.6z"/>
		<path class="st0" d="M216,233h-81c-5.5,0-10,4.5-10,10s4.5,10,10,10h81c5.5,0,10-4.5,10-10S221.5,233,216,233z"/>
		<path class="st0" d="M391.2,74L391.2,74c12.1,0,22,9.8,22,21.9c0,0,0,0,0,0c0,5.5,4.5,10,10,10c5.5,0,10-4.5,10-10
			c0-23.2-18.7-42-41.9-42c0,0,0,0,0,0h0c-5.5,0-10,4.5-10,10S385.7,74,391.2,74L391.2,74z"/>
		<path class="st0" d="M391.3,26L391.3,26c38.6,0,69.9,31.3,69.9,69.8c0,0,0,0,0,0.1c0,5.5,4.5,10,10,10c0,0,0,0,0,0
			c5.5,0,10-4.5,10-10C481.2,46.3,441,6,391.4,6c0,0,0,0-0.1,0h0c-5.5,0-10,4.5-10,10S385.7,26,391.3,26L391.3,26z"/>
	</g>
</g>
</svg>
