<svg id="Layer_1" data-name="Layer 1" xmlns="http://www.w3.org/2000/svg" viewBox="0 0 400 400"><defs><style>.cls-1,.cls-6{fill:#333954;}.cls-2{opacity:0.5;}.cls-2,.cls-20,.cls-21,.cls-23{isolation:isolate;}.cls-3{fill:#006838;}.cls-4{opacity:0.8;}.cls-5{fill:#464f73;}.cls-12,.cls-13,.cls-6{stroke:#333954;}.cls-12,.cls-13,.cls-26,.cls-30,.cls-6{stroke-miterlimit:10;}.cls-7{fill:#754937;}.cls-10,.cls-8{fill:#563327;}.cls-8{opacity:0.76;}.cls-9{fill:#232223;}.cls-11,.cls-24{fill:#fff;}.cls-12,.cls-13,.cls-26,.cls-30{fill:none;}.cls-12,.cls-13{stroke-linecap:round;}.cls-12{stroke-width:0.75px;}.cls-14{fill:#27aae1;}.cls-15{fill:#403e56;}.cls-16,.cls-21{fill:#39b54a;}.cls-17{fill:#ed184a;}.cls-18{fill:#efcf19;}.cls-19{fill:#77c043;}.cls-20{fill:#010101;opacity:0.1;}.cls-21,.cls-23{opacity:0.3;}.cls-22{fill:#40853f;}.cls-23,.cls-28{fill:#6466af;}.cls-24{opacity:0.53;}.cls-25{fill:#f3f3f3;}.cls-26{stroke:#d7df23;}.cls-26,.cls-30{stroke-width:2px;}.cls-27{fill:#00a79d;}.cls-29{fill:#585b8a;}.cls-30{stroke:#006838;}.cls-31{fill:#8dc63f;}</style></defs><title>access eternal accounting systems</title><path class="cls-1" d="M320.39,337.46h0s0,0,0,0Z"/><g class="cls-2"><path class="cls-3" d="M350.24,272.22c-1.57.87-3.25,1.7-5,2.52-8.35,3.87-18.78,7.23-30.72,10.12l-2.25.54-.19,0c-1.42.33-2.86.66-4.32,1-13.14,2.87-27.85,5.22-43.43,7.1l-.88.1-.21,0c-20.8,2.47-43.15,4.09-65.41,4.94q-5.25.2-10.49.34l-1.77,0L184,299q-3.36.08-6.7.14l-2.52,0-1.91,0c-5.49.07-10.93.1-16.31.08-46-.14-87.14-3.54-107.82-9.36C-11,273.11,2.15,231.66,40,223.24s-14.49-57.37,45.82-89.66c36.63-19.61,75,23,106.74-11.07,47.35-50.89,89.23-42.58,115.63-16.3,29.74,29.62,5.88,65.73,37.73,63.88C393.63,167.35,422.12,232.2,350.24,272.22Z"/></g><g class="cls-4"><ellipse class="cls-3" cx="205" cy="321.39" rx="147.19" ry="10.07"/></g><path class="cls-5" d="M203.35,169.91l4.38,70.44s9.74,8.91,27.16,3l-17.86-74Z"/><path class="cls-5" d="M203.07,169.59l1.43,70.87s-14.86,8.8-32.28,2.84l17.86-74Z"/><path class="cls-1" d="M205.6,245.46H169c.23-1.51.71-4.57,1.73-5.86,3.18-4.05,6.3-3,6.3-3l27.43,3.86S205.67,245.38,205.6,245.46Z"/><path class="cls-1" d="M207.17,245.33h35.5a.44.44,0,0,0,.43-.53,14.88,14.88,0,0,0-2.24-5.07,10.16,10.16,0,0,0-2.6-2.25,8.22,8.22,0,0,0-5.54-1.06L208,240.28a.44.44,0,0,0-.36.33c-.19.81-.74,3.14-.95,4.19A.44.44,0,0,0,207.17,245.33Z"/><path class="cls-6" d="M203.35,169.91c-.54.89,1.62,72.73,1.62,72.73"/><rect class="cls-7" x="195.54" y="104.66" width="8.73" height="17.35" transform="translate(-3.17 5.78) rotate(-1.64)"/><path class="cls-8" d="M204,104.53l.18,8.8a7.09,7.09,0,0,1-8.57,1l-.31-8.8c.2-.26.41-.52.62-.76Z"/><path class="cls-7" d="M191.89,89s-4.06,7.07,0,18.32c.28.77,1.36,4.87,5.59,4.83,2.94,0,7.81.66,9.88-2.79,2.63-4.37,4.5-16.26.56-19.53S191.89,89,191.89,89Z"/><path class="cls-7" d="M206.1,101.1s5.89-2.76,8.13,1-6.51,7.45-7.68,3.85S206.1,101.1,206.1,101.1Z"/><path class="cls-9" d="M192.51,94.39s1.07-3.5,2.74-2,2.69,1.9,8.74.77c7-1.29,3.82,8.92,3.82,8.92s2.24-2.52,4.17-1.78c0,0,1.55-11.14-2.61-12.67s-14-2.89-15.2-.75S192.51,94.39,192.51,94.39Z"/><path class="cls-7" d="M193.71,100.24s-5.87-2.76-8.1,1,6.49,7.45,7.66,3.85S193.71,100.24,193.71,100.24Z"/><path class="cls-10" d="M191.89,104.34s-1.88.41-2.1-.87a.92.92,0,0,1,.82-1.22s-3.18-1.9-3.53,0S190.39,105.77,191.89,104.34Z"/><path class="cls-9" d="M208,94s-1.07-3.5-2.74-2-2.69,1.9-8.74.77c-7-1.29-3.82,8.92-3.82,8.92s-2.24-2.52-4.17-1.78c0,0-1.55-11.14,2.61-12.67s13.46-1.81,14.71.33A28.28,28.28,0,0,1,208,94Z"/><ellipse class="cls-1" cx="204.68" cy="99.43" rx="0.57" ry="1.2"/><ellipse class="cls-1" cx="195.62" cy="99.25" rx="0.57" ry="1.2"/><path class="cls-11" d="M196.59,105.23l6.06-.62s-2.42,8-5.88.6"/><path class="cls-10" d="M207.92,105.19s1.89.41,2.11-.87a.92.92,0,0,0-.82-1.22s3.19-1.9,3.54,0S209.42,106.62,207.92,105.19Z"/><circle class="cls-12" cx="194.95" cy="99.43" r="3.76" transform="translate(-14.7 36.66) rotate(-10.36)"/><circle class="cls-12" cx="204.68" cy="99.17" r="3.84" transform="translate(-14.49 38.41) rotate(-10.36)"/><line class="cls-13" x1="198.65" y1="98.75" x2="200.86" y2="98.83"/><path class="cls-14" d="M195.62,119.42s5.23,5.74,8.8-1l6.11.64a6.36,6.36,0,0,1,3.7,2.42c5.57,7.52,9.52,40.27,3.32,47.13-1.21,1.34-12.7.9-14.47.93-18.44.39-22.38.78-16-40.19l.21-6.72c2.78-2.8,4.64-1.63,6.08-2.91Z"/><path class="cls-7" d="M157.52,120.43s-9.31-10.13-11.68-9.66.23,4.86.23,4.86,5,2.15-.29-2.68c-3.24-3-15.92,1.88-10,9.76,5.4,7.15,9.49,7.57,9.49,7.57Z"/><path class="cls-14" d="M190.49,121s-15,8.47-33.74-4.8c-1.3-.92-2.73-1.65-4.27-1.25,0,0-6.3,7.51-12.48,11.43-1.83,1.16-1.17,3,.63,3.8,9.38,4.34,36.37,11.62,53.31.5Z"/><path class="cls-7" d="M244.89,124s10.69-8.67,13-7.85-.93,4.77-.93,4.77-5.21,1.41.68-2.61c3.64-2.48,15.47,4.19,8.44,11.11-6.39,6.29-10.49,6.11-10.49,6.11Z"/><path class="cls-14" d="M212.2,119.67s13.59,10.57,34.08.18c1.43-.72,2.94-1.23,4.41-.61,0,0,5.13,8.35,10.68,13.14,1.64,1.41.73,3.11-1.18,3.67-9.92,2.92-37.67,6.18-52.81-7.29Z"/><path class="cls-6" d="M203.35,169.91c1,0,9.76,76.12,1.62,72.73"/><rect class="cls-15" x="319.66" y="170.25" width="13.58" height="0.55"/><rect class="cls-16" x="319.66" y="171.91" width="13.58" height="0.55"/><rect class="cls-1" x="184.15" y="292.12" width="37.95" height="22.74"/><rect class="cls-1" x="112.2" y="168.42" width="183.55" height="134.86" rx="9.4" ry="9.4"/><rect class="cls-5" x="118.66" y="174.63" width="170.51" height="109.78" rx="3.52" ry="3.52"/><rect class="cls-5" x="118.74" y="175.61" width="170.22" height="109.02"/><rect class="cls-11" x="118.74" y="178.11" width="170.22" height="102.46"/><path class="cls-5" d="M231.69,318.66H175.85a2.88,2.88,0,0,1-2.87-2.87h0a2.88,2.88,0,0,1,2.87-2.87h55.84a2.88,2.88,0,0,1,2.87,2.87h0A2.88,2.88,0,0,1,231.69,318.66Z"/><rect class="cls-15" x="125.49" y="190.57" width="156.94" height="84.77"/><rect class="cls-15" x="125.49" y="183.7" width="156.94" height="7.83"/><circle class="cls-17" cx="129.31" cy="187.13" r="1.34"/><circle class="cls-18" cx="133.13" cy="187.13" r="1.34"/><circle class="cls-19" cx="136.94" cy="187.13" r="1.34"/><rect class="cls-20" x="125.49" y="190.57" width="156.94" height="0.95"/><rect class="cls-21" x="134.56" y="204.03" width="30.93" height="33.03"/><rect class="cls-22" x="136.66" y="201.74" width="30.93" height="33.03"/><rect class="cls-23" x="247.96" y="203.5" width="23.78" height="25.39"/><rect class="cls-22" x="249.58" y="201.74" width="23.78" height="25.39"/><rect class="cls-23" x="247.96" y="238.78" width="23.78" height="25.39"/><rect class="cls-22" x="249.58" y="237.02" width="23.78" height="25.39"/><rect class="cls-24" x="178.47" y="201.74" width="58.99" height="2.29"/><rect class="cls-24" x="178.47" y="208.42" width="58.99" height="2.29"/><rect class="cls-24" x="178.47" y="215.1" width="58.99" height="2.29"/><rect class="cls-24" x="178.47" y="221.79" width="58.99" height="2.29"/><rect class="cls-24" x="178.47" y="228.47" width="58.99" height="2.29"/><rect class="cls-24" x="178.47" y="235.15" width="58.99" height="2.29"/><rect class="cls-24" x="178.47" y="241.83" width="58.99" height="2.29"/><rect class="cls-24" x="178.47" y="248.52" width="58.99" height="2.29"/><rect class="cls-24" x="178.47" y="255.2" width="58.99" height="2.29"/><rect class="cls-24" x="178.47" y="261.88" width="58.99" height="2.29"/><rect class="cls-25" x="268.46" y="110.84" width="64.78" height="71.05"/><rect class="cls-26" x="274.99" y="104.05" width="64.78" height="71.05"/><rect class="cls-16" x="284.13" y="143.75" width="11.75" height="18.81"/><rect class="cls-27" x="301.11" y="130.96" width="11.75" height="31.61"/><rect class="cls-16" x="318.09" y="116.07" width="11.75" height="46.5"/><rect class="cls-28" x="280.47" y="167.09" width="3.49" height="3.49"/><rect class="cls-15" x="285.52" y="167.09" width="3.49" height="3.49"/><rect class="cls-29" x="290.56" y="167.09" width="3.49" height="3.49"/><rect class="cls-16" x="319.66" y="168.6" width="13.58" height="0.55"/><polyline class="cls-30" points="281.26 108.49 281.26 162.82 333.76 162.82"/><rect class="cls-25" x="48.34" y="114.94" width="73.58" height="45.91"/><rect class="cls-26" x="52.98" y="110.47" width="73.58" height="45.91"/><path class="cls-3" d="M101.08,144.55a15.86,15.86,0,0,0-11.22-27.08v15.86Z"/><path class="cls-16" d="M89.86,117.47a15.87,15.87,0,0,0-7.59,29.8l7.59-13.93Z"/><path class="cls-27" d="M101.08,144.55,89.86,133.34l-7.59,13.93a15.87,15.87,0,0,0,18.81-2.72Z"/><rect class="cls-28" x="55.77" y="146.84" width="3.04" height="3.04"/><rect class="cls-15" x="60.15" y="146.84" width="3.04" height="3.04"/><rect class="cls-29" x="64.54" y="146.84" width="3.04" height="3.04"/><rect class="cls-15" x="108.25" y="147.51" width="12.49" height="0.51"/><rect class="cls-15" x="108.25" y="149.03" width="12.49" height="0.51"/><rect class="cls-15" x="108.25" y="150.55" width="12.49" height="0.51"/><path class="cls-16" d="M97.79,243v7.66A23,23,0,0,1,114,289.88l5.42,5.42A30.65,30.65,0,0,0,97.79,243Z"/><path class="cls-27" d="M119.46,295.3,114,289.88a23,23,0,0,1-30.16,2L79.25,298A30.65,30.65,0,0,0,119.46,295.3Z"/><path class="cls-31" d="M74.8,273.63a23,23,0,0,1,23-23V243a30.65,30.65,0,0,0-18.54,55l4.64-6.1A23,23,0,0,1,74.8,273.63Z"/></svg>