<svg id="Capa_1" data-name="Capa 1" xmlns="http://www.w3.org/2000/svg" viewBox="0 0 512 308.38"><defs><style>.cls-1{fill:#f29f5c;}.cls-2{fill:#d37d42;}.cls-3{fill:#f9c295;}.cls-4{fill:#e59f6a;}.cls-5{fill:#662f00;}.cls-6{fill:#3d1c00;}.cls-7{fill:#14871b;}.cls-8{fill:#026e08;}.cls-9{fill:#ebeef2;}</style></defs><title>agreement</title><path class="cls-1" d="M418.26,249.1l-13-105.65-24.37,3v0l-47.25-26.59a28.53,28.53,0,0,0-16.58-3.54l-74.61,6.9a28.46,28.46,0,0,0-22,14l-52.59,90.51a12.51,12.51,0,0,0,6.4,18l2.15.81a46.64,46.64,0,0,0,12.64,2.83l-6.66,5.8-13.33,11.61-37.91,32.34A16.2,16.2,0,0,0,129.59,322l3.84,4.41a20.83,20.83,0,0,0,29.37,2L177.29,345a20.78,20.78,0,0,0,29.36,2l14.48,16.62a20.84,20.84,0,0,0,29.38,2l7.86,6.79a20.83,20.83,0,0,0,29.39,2l10.69-9.33,89.89-70,.1-.09,35.47,0Z" transform="translate(0 -101.81)"/><path class="cls-2" d="M379.73,267.83l-.1.09-89.89,70-10.69,9.33a20.82,20.82,0,0,1-29.39-2l-7.86-6.79a20.84,20.84,0,0,1-29.38-2l-14.48-16.62a20.78,20.78,0,0,1-29.36-2l-14.49-16.62a20.81,20.81,0,0,1-25.78,1.23A16.19,16.19,0,0,0,129.59,322l3.85,4.41a20.82,20.82,0,0,0,29.36,2L177.29,345a20.78,20.78,0,0,0,29.36,2l14.48,16.62a20.84,20.84,0,0,0,29.38,2l7.87,6.79a20.81,20.81,0,0,0,29.38,2l10.69-9.33,89.9-70,.09-.09,35.47,0L420,263.14Z" transform="translate(0 -101.81)"/><path class="cls-3" d="M396.1,313.53,347.94,272l-13.4-11.54L325,252.21l-41.21-35.52,4.76-40.51A28,28,0,0,0,268.2,146l-89.83-24.85a20.79,20.79,0,0,0-24,10.55L143,153.72l-48.48-3.29L82.13,256.16l-5.4,45.94,47.2,3.14.09.09,98.6,85,10.75,9.27a20.82,20.82,0,0,0,29.37-2.18l14.38-16.68a20.83,20.83,0,0,0,29.37-2.19l14.38-16.7A20.59,20.59,0,0,0,332,366.76a20.81,20.81,0,0,0,18.21-7.08L364.62,343A20.83,20.83,0,0,0,394,340.81l3.82-4.43A16.2,16.2,0,0,0,396.1,313.53Z" transform="translate(0 -101.81)"/><path class="cls-4" d="M396.1,313.53l-14.67-12.65a17.2,17.2,0,0,1-.71,21.57l-4.06,4.7a22.11,22.11,0,0,1-31.16,2.3l-15.28,17.72a22.06,22.06,0,0,1-31.16,2.31l-15.27,17.73a22.11,22.11,0,0,1-31.18,2.31l-15.26,17.71A21.91,21.91,0,0,1,226.87,394l6.5,5.6a20.82,20.82,0,0,0,29.37-2.18l14.38-16.68a20.84,20.84,0,0,0,29.37-2.18l14.38-16.7a20.79,20.79,0,0,0,29.36-2.17L364.62,343A20.83,20.83,0,0,0,394,340.81l3.82-4.43A16.2,16.2,0,0,0,396.1,313.53Z" transform="translate(0 -101.81)"/><path class="cls-4" d="M369.5,337.42l-26.39-22.76a7.5,7.5,0,1,0-9.8,11.36l26.35,22.72,5-5.76a21,21,0,0,0,6.52,3.79A7.49,7.49,0,0,0,369.5,337.42Z" transform="translate(0 -101.81)"/><path class="cls-4" d="M327.3,365.63a7.49,7.49,0,0,0-1.56-9.48L302,335.71a7.5,7.5,0,1,0-9.79,11.36L316,367.51l0,0,4.89-5.69A20.8,20.8,0,0,0,327.3,365.63Z" transform="translate(0 -101.81)"/><path class="cls-1" d="M126.39,305.14l-5.72,7.54a18.67,18.67,0,0,0,3.61,26.14h0a18.66,18.66,0,0,0,26.14-3.61l5.71-7.54a18.65,18.65,0,0,0-3.61-26.14h0A18.64,18.64,0,0,0,126.39,305.14Z" transform="translate(0 -101.81)"/><path class="cls-1" d="M161.18,321l-10.76,14.21A18.67,18.67,0,0,0,154,361.35h0a18.66,18.66,0,0,0,26.14-3.61l10.76-14.21a18.66,18.66,0,0,0-3.61-26.14h0A18.66,18.66,0,0,0,161.18,321Z" transform="translate(0 -101.81)"/><path class="cls-1" d="M194.83,338.38l-14.66,19.36a18.67,18.67,0,0,0,3.61,26.14h0a18.66,18.66,0,0,0,26.14-3.61l14.66-19.36A18.66,18.66,0,0,0,221,334.77h0A18.66,18.66,0,0,0,194.83,338.38Z" transform="translate(0 -101.81)"/><path class="cls-1" d="M225.43,359.78l-15.51,20.49a18.67,18.67,0,0,0,3.61,26.14h0a18.66,18.66,0,0,0,26.14-3.61l15.51-20.49a18.65,18.65,0,0,0-3.61-26.14h0A18.67,18.67,0,0,0,225.43,359.78Z" transform="translate(0 -101.81)"/><path class="cls-1" d="M380.89,146.43l-47.25-26.59a28.53,28.53,0,0,0-16.58-3.54l-74.61,6.9a28.46,28.46,0,0,0-22,14l-52.59,90.51a12.51,12.51,0,0,0,6.4,18l2.15.81A46.76,46.76,0,0,0,230,231.3l20.14-26.22s48.43,56.07,101.75-9.41" transform="translate(0 -101.81)"/><path class="cls-5" d="M512,309.14,487.23,108.39a7.5,7.5,0,0,0-8.36-6.52L421.08,109a27.45,27.45,0,0,0-23.86,30.57l19.84,161.2a27.39,27.39,0,0,0,30.57,23.87l57.79-7.11A7.51,7.51,0,0,0,512,309.14Z" transform="translate(0 -101.81)"/><path class="cls-6" d="M512,309.14l-2.72-22a7.85,7.85,0,0,1-5.53,3.38L443.12,298a30,30,0,0,1-3.53.22A28.83,28.83,0,0,1,415,284.33l2,16.42a27.39,27.39,0,0,0,30.57,23.87l57.79-7.12A7.5,7.5,0,0,0,512,309.14Z" transform="translate(0 -101.81)"/><path class="cls-7" d="M90.92,109l-57.79-7.11a7.5,7.5,0,0,0-8.36,6.52L.06,309.14a7.48,7.48,0,0,0,6.52,8.36l57.79,7.12a27.39,27.39,0,0,0,30.57-23.87l19.85-161.2A27.46,27.46,0,0,0,90.92,109Z" transform="translate(0 -101.81)"/><path class="cls-8" d="M.06,309.14l2.71-22a7.85,7.85,0,0,0,5.53,3.38L68.88,298a30.13,30.13,0,0,0,3.53.22A28.83,28.83,0,0,0,97,284.33l-2,16.42a27.39,27.39,0,0,1-30.57,23.87L6.58,317.5A7.48,7.48,0,0,1,.06,309.14Z" transform="translate(0 -101.81)"/><circle class="cls-9" cx="464" cy="175.19" r="14.5"/><circle class="cls-9" cx="47.19" cy="175.19" r="14.5"/></svg>