<svg id="Layer_1" data-name="Layer 1" xmlns="http://www.w3.org/2000/svg" xmlns:xlink="http://www.w3.org/1999/xlink" viewBox="0 0 886.58 963.16"><defs><style>.cls-1{fill:url(#linear-gradient);}.cls-2{fill:#fff;}.cls-3{fill:#c8f29c;}.cls-4{fill:url(#linear-gradient-2);}.cls-5{fill:url(#linear-gradient-3);}.cls-6{fill:url(#linear-gradient-4);}.cls-7{fill:#fef0bd;}.cls-8{fill:url(#linear-gradient-5);}.cls-9{fill:url(#linear-gradient-6);}.cls-10{fill:url(#linear-gradient-7);}</style><linearGradient id="linear-gradient" x1="190.17" y1="440.93" x2="901.82" y2="440.93" gradientUnits="userSpaceOnUse"><stop offset="0" stop-color="#8dc63f"/><stop offset="0.22" stop-color="#6dbb40"/><stop offset="1" stop-color="#009444"/></linearGradient><linearGradient id="linear-gradient-2" x1="214.82" y1="793.69" x2="818.89" y2="793.69" xlink:href="#linear-gradient"/><linearGradient id="linear-gradient-3" x1="70.06" y1="809.82" x2="91.78" y2="809.82" xlink:href="#linear-gradient"/><linearGradient id="linear-gradient-4" x1="128.67" y1="26.54" x2="196.62" y2="26.54" xlink:href="#linear-gradient"/><linearGradient id="linear-gradient-5" x1="159.26" y1="583.56" x2="363.11" y2="583.56" xlink:href="#linear-gradient"/><linearGradient id="linear-gradient-6" x1="159.26" y1="214.08" x2="363.11" y2="214.08" xlink:href="#linear-gradient"/><linearGradient id="linear-gradient-7" x1="111.68" y1="358.86" x2="213.61" y2="358.86" xlink:href="#linear-gradient"/></defs><title>Bar and restaurant</title><path class="cls-1" d="M901.82,593.92a179,179,0,0,1-1,19h-709A405.41,405.41,0,0,1,190.34,564c3.84-147.62,168.18-295.1,354.56-295.1,121.46,0,236.2,75.29,301.37,168.59,6.69,9.54,12.83,19.3,18.42,29.17C888.28,508.37,901.82,552.32,901.82,593.92Z" transform="translate(-98.54 -42.08)"/><path class="cls-2" d="M732.68,412.1c2.29,1.62,4.59,3.25,6.83,4.93a238.41,238.41,0,0,1,89.85,137.38,9.31,9.31,0,0,1-18.14,4.17,218.42,218.42,0,0,0-88.48-131.19Z" transform="translate(-98.54 -42.08)"/><path class="cls-2" d="M702.84,384.51c-2.19-1.87-4.39-3.77-6.64-5.58-45.09-36.77-101.34-56.79-158.43-56.39a9.14,9.14,0,0,0-9.11,9.5,9.78,9.78,0,0,0,9.79,9.36,228.1,228.1,0,0,1,152,56.49Z" transform="translate(-98.54 -42.08)"/><path d="M947.28,607.13H916.52a372,372,0,0,0-34-134.43,13,13,0,0,0-17.25-6.31,5.8,5.8,0,0,0-.58.3,12.92,12.92,0,0,0-5.7,16.94,346.65,346.65,0,0,1,31.53,123.49H296.47a13,13,0,1,0,0,25.91H947.28a11.92,11.92,0,0,1,11.9,11.9v15.85a11.92,11.92,0,0,1-11.9,11.9H136.38a11.92,11.92,0,0,1-11.9-11.9V644.94a11.92,11.92,0,0,1,11.9-11.9H236a13,13,0,1,0,0-25.91H193.16A349.42,349.42,0,0,1,518.5,282h.14c3.54-.25,7-.41,10.47-.55l2.08-.08,3.65-.08c2.33,0,4.66-.08,7-.08,3.1,0,6.2.05,9.29.14l2.74.08c2.39.08,4.74.22,7.13.33l3.78.22A349.73,349.73,0,0,1,830.15,433.08a13,13,0,0,0,16.12,4.44,15,15,0,0,0,1.92-1.1,13,13,0,0,0,3.34-18A375.84,375.84,0,0,0,595,259a63.1,63.1,0,0,0,10.12-34.22c0-7-3.15-20-24.21-27.8-10.53-3.87-24.4-6-39.07-6s-28.54,2.14-39.07,6c-21.06,7.76-24.18,20.76-24.18,27.8a63.37,63.37,0,0,0,10,34.16A375.45,375.45,0,0,0,167.17,607.1H136.38a37.91,37.91,0,0,0-37.84,37.84v15.85a37.88,37.88,0,0,0,37.84,37.84H276.1a160.28,160.28,0,0,0-19.93,16.07l-.25.25a15.8,15.8,0,0,0-1.12,1.21l-61.58,74.77A35.75,35.75,0,0,0,144.41,801l-24.21,35.7a35.87,35.87,0,0,0,9.51,49.74L295.43,999a35.5,35.5,0,0,0,20,6.2,38.33,38.33,0,0,0,6.83-.63,35.52,35.52,0,0,0,22.89-15.11l24.21-35.7a35.85,35.85,0,0,0-9.51-49.74l-.93-.63a83.64,83.64,0,0,1,43.62-26.35c35.26-8.17,76.74-2.91,104.87,1.75a247.82,247.82,0,0,0,105.69-5.7l47.76-13.19a246.32,246.32,0,0,0,87-44l.58-.49,82-72.6c14-10.69,17-29.23,12.2-44.22h104.6a37.88,37.88,0,0,0,37.84-37.84V644.94A37.87,37.87,0,0,0,947.28,607.13ZM541.83,217c21.85,0,34.93,5.4,37.32,8.42a37.34,37.34,0,0,1-16.51,30.46c-2.55-.14-5.07-.25-7.59-.36l-2.52-.08q-5.43-.16-10.69-.16c-2.47,0-5,0-7.57.08-1.23,0-2.47.05-3.7.11-1.48.05-3,.08-4.44.16-1.7.05-3.4.14-5.1.22a37.29,37.29,0,0,1-16.51-30.43C506.9,222.35,520,217,541.83,217Zm93,487.92a40.62,40.62,0,0,0-3.43-6.25H755.8L702,734.21l-76.69,22.18-2.6.05A44.05,44.05,0,0,0,634.83,704.87Zm-140.62-6.25-18.73,3.89L461,698.62ZM347.93,939.24l-24.21,35.7A9.87,9.87,0,0,1,310,977.57L144.3,865a9.9,9.9,0,0,1-2.63-13.71l24.21-35.73a9.78,9.78,0,0,1,6.33-4.17,11,11,0,0,1,1.86-.16,9.77,9.77,0,0,1,5.54,1.7l9,6.09L345.33,925.53A9.87,9.87,0,0,1,347.93,939.24ZM814.55,722.37a11,11,0,0,0-.88.71l-82.09,72.71A220.15,220.15,0,0,1,654,834.94l-47.76,13.19a221.39,221.39,0,0,1-94.54,5.13c-30.32-5-75.21-10.64-115-1.45a110.14,110.14,0,0,0-59.33,37L214.82,805.5l59.5-72.25c22.48-21.25,51-33.86,78.36-34.63h.52c8.47-.14,17.44,2.36,26.92,5l5.73,1.56,85.87,23.17a13.19,13.19,0,0,0,6,.16l112.47-23.44a19.26,19.26,0,0,1,14.7,2.85,17.55,17.55,0,0,1,6.2,7.38,18.18,18.18,0,0,1-8.42,23.47l-38.36,20.32a13,13,0,0,0,6.36,24.43l56.92-1.23a12.5,12.5,0,0,0,3.32-.52l80.2-23.2a13.16,13.16,0,0,0,3.56-1.65l80.91-53.55c6.77-4.19,15.82-7.65,20.62-.55C820,708.36,820.06,718.28,814.55,722.37Z" transform="translate(-98.54 -42.08)"/><path class="cls-3" d="M959.18,644.94v15.85a11.92,11.92,0,0,1-11.9,11.9H136.38a11.92,11.92,0,0,1-11.9-11.9V644.94a11.92,11.92,0,0,1,11.9-11.9H236a13,13,0,0,0,10.8-20.12h38.85A13,13,0,0,0,296.47,633H947.28A11.92,11.92,0,0,1,959.18,644.94Z" transform="translate(-98.54 -42.08)"/><path class="cls-3" d="M347.93,939.24l-24.21,35.7A9.87,9.87,0,0,1,310,977.57L144.3,865a9.9,9.9,0,0,1-2.63-13.71l24.21-35.73a9.78,9.78,0,0,1,6.33-4.17,11,11,0,0,1,1.86-.16,9.77,9.77,0,0,1,5.54,1.7l9,6.09L345.33,925.53A9.87,9.87,0,0,1,347.93,939.24Z" transform="translate(-98.54 -42.08)"/><path class="cls-4" d="M814.55,722.37a11,11,0,0,0-.88.71l-82.09,72.71A220.15,220.15,0,0,1,654,834.94l-47.76,13.19a221.39,221.39,0,0,1-94.54,5.13c-30.32-5-75.21-10.64-115-1.45a110.14,110.14,0,0,0-59.33,37L214.82,805.5l59.5-72.25c22.48-21.25,51-33.86,78.36-34.63h.52c8.47-.14,17.44,2.36,26.92,5l5.73,1.56,85.87,23.17a13.19,13.19,0,0,0,6,.16l112.47-23.44a19.26,19.26,0,0,1,14.7,2.85,17.55,17.55,0,0,1,6.2,7.38,18.18,18.18,0,0,1-8.42,23.47l-38.36,20.32a13,13,0,0,0,6.36,24.43l56.92-1.23a12.5,12.5,0,0,0,3.32-.52l80.2-23.2a13.16,13.16,0,0,0,3.56-1.65l80.91-53.55c6.77-4.19,15.82-7.65,20.62-.55C820,708.36,820.06,718.28,814.55,722.37Z" transform="translate(-98.54 -42.08)"/><circle class="cls-5" cx="80.92" cy="809.82" r="10.86"/><rect class="cls-6" x="128.67" y="8.49" width="67.95" height="36.1"/><circle class="cls-7" cx="162.65" cy="375.84" r="82.81"/><path class="cls-8" d="M355,613.29H167.35a8.09,8.09,0,0,1-8.09-8.09V561.92a8.09,8.09,0,0,1,8.09-8.09H355a8.09,8.09,0,0,1,8.09,8.09V605.2A8.08,8.08,0,0,1,355,613.29Z" transform="translate(-98.54 -42.08)"/><path class="cls-9" d="M346.13,254.42l-59.46-82.81V112.15h-51v59.46l-58,80.72-9.5,4.22a9,9,0,0,0-9,9V307a9,9,0,0,0,9,9H354.12a9,9,0,0,0,9-9V265.54a9,9,0,0,0-9-9" transform="translate(-98.54 -42.08)"/><path class="cls-3" d="M231.46,110v21.23h4.25v38.22h-6.37v11l-51.58,71.84-9.5,4.22a9,9,0,0,0-9,9V307a9,9,0,0,0,9,9h25.48a9,9,0,0,1-9-9V277.78h17V256.55h-8l9.5-4.22,44.23-61.61h13.72V131.26h25.48V110Z" transform="translate(-98.54 -42.08)"/><rect class="cls-3" x="60.72" y="244.19" width="201.72" height="29.73"/><path class="cls-3" d="M182.62,583.56V561.92a8.09,8.09,0,0,1,8.09-8.09H167.35a8.09,8.09,0,0,0-8.09,8.09v51.37H361V583.56H182.62Z" transform="translate(-98.54 -42.08)"/><rect class="cls-2" x="120.18" y="205.97" width="16.99" height="16.99"/><rect x="188.13" y="469.28" width="33.97" height="16.99"/><rect class="cls-10" x="111.68" y="350.36" width="101.93" height="16.99"/><rect x="128.67" y="384.34" width="67.95" height="16.99"/><rect x="128.67" y="316.39" width="67.95" height="16.99"/><rect x="154.15" y="418.31" width="16.99" height="16.99"/><rect x="188.13" y="418.31" width="16.99" height="16.99"/><rect x="120.18" y="418.31" width="16.99" height="16.99"/><rect x="137.16" y="532.98" width="16.99" height="16.99"/><path d="M371.61,307V265.53a17.5,17.5,0,0,0-17.48-17.48H352l-56.85-79.18V120.65h8.49v-17H218.72v17h8.49v48.23l-56.85,79.18h-2.12a17.5,17.5,0,0,0-17.48,17.48V307a17.49,17.49,0,0,0,17,17.46V545.34h-.41a16.6,16.6,0,0,0-16.58,16.58V605.2a16.6,16.6,0,0,0,16.58,16.58H355a16.6,16.6,0,0,0,16.58-16.58V561.92A16.6,16.6,0,0,0,355,545.34h-.41V324.47A17.49,17.49,0,0,0,371.61,307Zm-17,268H269.68v17h84.94v12.74H167.76V592.05h53.09v-17H167.76V562.32H354.62ZM184.74,545.34V324.5H337.63V545.34ZM354.12,307.51H168.25a.5.5,0,0,1-.49-.49V294.77h17v-17h-17V265.54a.5.5,0,0,1,.49-.49h33.48v-17H191.28l48.79-68h21.12v-17h-17V120.65h34v53.7l28.53,39.74H261.19v17H318.9l12.2,17h-78.4v17H354.12a.5.5,0,0,1,.49.49V307A.49.49,0,0,1,354.12,307.51Z" transform="translate(-98.54 -42.08)"/><path d="M303.66,95.16H218.72V42.08h84.94V95.16Zm-68-17h51V59.07h-51Z" transform="translate(-98.54 -42.08)"/></svg>