<svg id="Layer_1" data-name="Layer 1" xmlns="http://www.w3.org/2000/svg" xmlns:xlink="http://www.w3.org/1999/xlink" viewBox="0 0 968.47 965.55"><defs><style>.cls-1{fill:#39b54a;}.cls-2{fill:url(#linear-gradient);}.cls-3{fill:#c8f29c;}.cls-4{fill:#4de25b;}.cls-5{fill:url(#linear-gradient-2);}.cls-6{fill:#231f20;}</style><linearGradient id="linear-gradient" x1="369.94" y1="676.38" x2="821.89" y2="676.38" gradientUnits="userSpaceOnUse"><stop offset="0" stop-color="#8dc63f"/><stop offset="0.22" stop-color="#6dbb40"/><stop offset="1" stop-color="#009444"/></linearGradient><linearGradient id="linear-gradient-2" x1="249.7" y1="840.67" x2="499.16" y2="840.67" gradientUnits="userSpaceOnUse"><stop offset="0" stop-color="#00a14b"/><stop offset="1" stop-color="#006838"/></linearGradient></defs><title>beverage and liqour</title><path class="cls-1" d="M369.94,671.83A162.68,162.68,0,1,0,454.81,881,163.2,163.2,0,0,0,369.94,671.83Z" transform="translate(-30.97 -31.64)"/><path class="cls-2" d="M821.89,393.28V932.55a16.14,16.14,0,0,1-16.14,16.14H773.46v16.14A16.14,16.14,0,0,1,757.32,981H434.5a16.14,16.14,0,0,1-16.14-16.14V948.7h-16.3a161.07,161.07,0,0,0-32.12-276.82V383.11A372.47,372.47,0,0,0,472.11,395.7a372.62,372.62,0,0,0,75.38-6.46c5.65-1.13,11-2.25,16.14-3.55a379.29,379.29,0,0,1,107.5-13.88C751.19,371.82,766.84,387.31,821.89,393.28Z" transform="translate(-30.97 -31.64)"/><path class="cls-3" d="M726.18,479.46a161.73,161.73,0,1,0,41.66,155.87A161.72,161.72,0,0,0,726.18,479.46Z" transform="translate(-30.97 -31.64)"/><path class="cls-4" d="M181.74,793.94A161.42,161.42,0,0,1,379.43,679.8c4.57,1.23,9,2.73,13.32,4.36a161.52,161.52,0,0,0-22.81-12.33,163.2,163.2,0,0,0-22.79-8.17A161.41,161.41,0,0,0,249.68,971,161.41,161.41,0,0,1,181.74,793.94Z" transform="translate(-30.97 -31.64)"/><path class="cls-5" d="M402.22,688c-3.11-1.36-6.28-2.6-9.47-3.81A161.29,161.29,0,0,1,263.62,975.48c-4.76-1.28-9.38-2.83-13.92-4.49A161.31,161.31,0,1,0,402.22,688Z" transform="translate(-30.97 -31.64)"/><path class="cls-4" d="M391.26,800c-18.92,18.9-15.33-15.34-34.23-34.24s-53.15-15.33-34.25-34.25A48.43,48.43,0,0,1,391.26,800Z" transform="translate(-30.97 -31.64)"/><path class="cls-6" d="M497.91,525.12l22.83-22.82,22.82,22.82-22.82,22.82Z" transform="translate(-30.97 -31.64)"/><path class="cls-6" d="M612,502.28l22.82-22.82,22.83,22.82-22.83,22.83Z" transform="translate(-30.97 -31.64)"/><path class="cls-6" d="M499.07,609.73h32.28V642H499.07Z" transform="translate(-30.97 -31.64)"/><path class="cls-6" d="M579.77,690.44h32.28v32.28H579.77Z" transform="translate(-30.97 -31.64)"/><path class="cls-6" d="M692.76,803.43H725v32.28H692.76Z" transform="translate(-30.97 -31.64)"/><path class="cls-6" d="M660.48,835.71h32.28V868H660.48Z" transform="translate(-30.97 -31.64)"/><path class="cls-6" d="M805.75,964.84A32.28,32.28,0,0,0,838,932.55V771.14h64.56A48.43,48.43,0,0,0,951,722.72V529a48.43,48.43,0,0,0-48.42-48.42H838v-113a32.28,32.28,0,0,0-32.28-32.28V270.77h16.14V238.49H563.63V117.18L443.88,31.64,425.12,57.93l106.23,75.88V238.49H369.94v32.28h16.14v64.56a32.28,32.28,0,0,0-32.28,32.28V648.89a174.81,174.81,0,0,0-122.67,9.68l-57-98.65-28,16.14,12.52,21.71a64,64,0,0,0-32.41,8.39l-42,24.21,8.07,14A64.56,64.56,0,0,0,180.62,668l14-8.07,8.54,14.79a177.1,177.1,0,0,0,.55,290.12H31v32.28H999.44V964.84Zm32.28-452h64.56A16.14,16.14,0,0,1,918.73,529V722.72a16.14,16.14,0,0,1-16.14,16.14H838ZM164.43,640a32.27,32.27,0,0,1-32.28,0l10.2-5.89a32.42,32.42,0,0,1,32.28,0Zm399.2-369.23H773.46v64.56a32.28,32.28,0,0,0,32.28,32.28v7.09c-11.3-1.94-21.32-4.24-31.51-6.68a381.33,381.33,0,0,0-103.1-12.34A380.11,380.11,0,0,0,567.39,368.2l-3.76.91Zm177.55,340.7V593.59H708.9v9.24l-65.66-17.6,82.32-82.32A145.23,145.23,0,0,1,755.5,615.26Zm6.07,35a144.29,144.29,0,0,1-82.32,82.31l-30.1-112.37ZM620.42,562.4,590.34,450.18a142.78,142.78,0,0,1,112.35,30Zm-16.72,62.37L633.77,737a145.31,145.31,0,0,1-112.35-30ZM498.58,684.23a145.15,145.15,0,0,1-29.94-112.34L580.87,602ZM476.86,540.67a144.28,144.28,0,0,1,82.32-82.32l30.1,112.37ZM386.08,367.62a32.28,32.28,0,0,0,32.28-32.28V270.77h113V375.69a389.94,389.94,0,0,1-59.24,3.92,343.61,343.61,0,0,1-86-9.27ZM305.37,964.84a145.09,145.09,0,0,1-86.06-262l15.59,27,28-16.14-15.64-27.11a145.27,145.27,0,1,1,58.16,278.3Zm452,0H434.5V941a177,177,0,0,0-48.42-279.43V403.35a377.5,377.5,0,0,0,86,8.44,431.39,431.39,0,0,0,59.24-3.52v27.55a174.55,174.55,0,0,0-44.84,32.28,177.35,177.35,0,0,0,44.84,283.55V868h32.28V764.29a177.45,177.45,0,1,0,0-341.38V402.25l3.71-.85,7.65-1.84A348.55,348.55,0,0,1,671.13,388a349.58,349.58,0,0,1,95.6,11.46c11.85,2.84,24.09,5.73,39,8.07V932.55H757.32Z" transform="translate(-30.97 -31.64)"/></svg>