<svg id="Layer_1" enable-background="new 0 0 495.925 495.925" height="512" viewBox="0 0 495.925 495.925" width="512" xmlns="http://www.w3.org/2000/svg"><path d="m427.132 479.925h-349.169c1.994-46.494 30.941-86.93 78.51-95.46 5.78-1.03 10.43-5.16 12.37-10.7 4.04-11.609 11.4-21.67 20.93-29.05-3.35-20.52-1.05-41.85 7.09-61.6l16.54-40.091c3.37-8.17 12.72-12.06 20.89-8.689 63.984 26.39 40.392 16.659 103.06 42.51 8.17 3.37 12.06 12.72 8.69 20.89-16.456 39.9-21.795 59.089-44.12 79.881-.11.01-.21.02-.32.029 16.09-1.27 31.32 9.16 35.99 24.57 2.26 7.43 9.36 12.31 17.06 11.33 42.259-5.409 73.928 27.92 72.479 66.38z" fill="#c79a83"/><path d="m337.352 276.844c8.169 3.369 12.059 12.723 8.69 20.891-16.455 39.899-21.795 59.088-44.12 79.879-4.08.28-8.23 1.31-12.27 3.2-9.989-45.08-63.657-64.118-99.88-36.1-3.35-20.52-1.05-41.85 7.09-61.6l16.539-40.09c3.37-8.168 12.723-12.059 20.892-8.69 2.666 1.101 104.102 42.94 103.059 42.51z" fill="#aaa"/><path d="m261.753 312.627c-8.169-3.369-12.061-12.722-8.692-20.892 22.65-54.93 5.769-14 84.852-205.722 3.369-8.169 12.725-12.061 20.893-8.689 8.168 3.369 12.059 12.724 8.689 20.893-73.626 178.492-60.654 147.038-84.85 205.718-3.367 8.162-12.713 12.061-20.892 8.692z" fill="#4d4e59"/><path d="m346.612 106.911c-28.504-11.764-42.128-44.515-30.383-73.013l9.903-23.997c3.37-8.169 12.723-12.059 20.891-8.688l73.8 30.44c8.168 3.369 12.06 12.721 8.691 20.89l-9.89 23.989c-11.937 28.906-44.722 42.023-73.012 30.379zm2.998-70.015-3.798 9.203c-5.022 12.186.806 26.196 12.994 31.227 12.164 5.008 26.154-.689 31.238-12.998l3.788-9.19z" fill="#ff6d7a"/><path d="m223.801 445.889c-8.695-1.575-14.467-9.9-12.893-18.596 4.091-22.591 23.742-38.988 46.724-38.988 8.836 0 16 7.163 16 16s-7.164 16-16 16c-7.497 0-13.904 5.337-15.236 12.691-1.576 8.702-9.909 14.467-18.595 12.893z" fill="#e0b7a3"/><path d="m189.678 344.727c18.15-13.933 40.357 10.725 25.073 27.753-5.462 6.085-9.786 13.279-12.579 21.284-1.93 5.54-6.59 9.67-12.37 10.7-33.657 6.041-60.007 28.239-72.057 62.878-2.637 7.58-9.885 12.582-17.91 12.582-12.332 0-21.279-11.671-18.149-23.599 10.726-40.886 39.361-65.508 74.787-71.861 5.78-1.03 10.43-5.16 12.37-10.7 4.254-12.224 11.661-21.994 20.835-29.037z" fill="#e0b7a3"/><path d="m462.963 495.925h-430c-8.836 0-16-7.163-16-16s7.164-16 16-16h430c8.837 0 16 7.163 16 16s-7.164 16-16 16z" fill="#a07765"/><path d="m237.877 235.814c7.057 2.911 10.162 11.02 7.166 18.042-19.129 44.832-24.059 56.727-25.061 78.27-11.29 1.479-21.63 5.95-30.21 12.59-3.35-20.52-1.05-41.85 7.09-61.6l16.54-40.091c3.37-8.17 12.72-12.06 20.89-8.689z" fill="#b2b2b2"/></svg>