<?xml version="1.0" encoding="utf-8"?>
<!-- Generator: Adobe Illustrator 23.1.1, SVG Export Plug-In . SVG Version: 6.00 Build 0)  -->
<svg version="1.1" id="Layer_1" xmlns="http://www.w3.org/2000/svg" xmlns:xlink="http://www.w3.org/1999/xlink" x="0px" y="0px"
	 viewBox="0 0 512 512" style="enable-background:new 0 0 512 512;" xml:space="preserve">
<style type="text/css">
	.st0{fill:#026E08;}
</style>
<path id="XMLID_1911_" class="st0" d="M509,215.3c-2.4-2.4-5.8-3.4-9-2.7L413.8,230c-3.6,0.7-6.5,3.4-7.6,6.9
	c-1.1,3.5-0.1,7.4,2.5,10l11.7,11.7l-45.8,45.8l-35.4-35.4c-1.9-1.9-4.4-2.9-7.1-2.9s-5.2,1.1-7.1,2.9l-43.5,43.5l16.3-58.6
	c4-14.2,1.1-29.2-7.8-40.9c-5.5-7.2-12.7-12.5-20.9-15.6l13-37.2c3.6,0.3,7.2,0.5,10.7,0.5c28.9,0,57-10.2,79.3-28.7l2.4-2
	c11.7-9.7,13.7-26.7,4.6-38.5c-4.6-6-11.4-9.8-18.9-10.6c-7.6-0.8-14.9,1.4-20.8,6.2l-2.7,2.2c-4,3.3-8.4,6.2-13,8.5
	c-15.4,7.8-34.7,4.3-47.5-8.3c18.6-5.8,32.2-23.1,32.2-43.6C308.5,20.5,288,0,262.8,0c-25.2,0-45.7,20.5-45.7,45.7
	c0,10,3.3,19.3,8.7,26.8c-10.4,2.2-19.7,7.6-26.9,15.2c-0.4,0.4-0.8,0.8-1.2,1.2c-17.6,21.7-41.1,37.2-68,44.9
	c-7.3,2.1-13,6.9-16.5,13l-20.5-20.5c-9-9-23.6-9-32.5,0l-26.8,26.8l0,0l0,0L6.8,179.9C2.4,184.3,0,190.1,0,196.2
	c0,6.1,2.4,11.9,6.7,16.3l73.9,73.9c4.3,4.3,10.1,6.7,16.3,6.7c6.1,0,11.9-2.4,16.3-6.7l27.8-27.8l-13.2,34.5
	c-2,5.2,0.6,10.9,5.8,12.9c1.2,0.4,2.4,0.7,3.6,0.7c4,0,7.8-2.5,9.3-6.4l32.8-86h62.6h10.8c8.5,0,16.3,3.9,21.4,10.6
	c5.1,6.8,6.8,15.3,4.5,23.5L255.9,330c-1,3.7-4.4,6.2-8.2,6.2c-3.4,0-5.5-1.9-6.5-3s-2.5-3.5-1.9-6.9l12.1-76
	c0.5-2.9-0.4-5.8-2.3-8.1c-1.9-2.2-4.7-3.5-7.6-3.5h-23.7c-3.8,0-7.2,2.1-8.9,5.5c-0.6,1.2-58.6,115.9-78.2,154.6
	c-2,3.9-6.2,6.1-10.6,5.5l-0.5-0.1c-3-0.4-5.6-2.1-7.1-4.7c-1.5-2.6-1.8-5.7-0.7-8.5L118,375c2-5.2-0.6-10.9-5.8-12.9
	c-5.2-2-10.9,0.6-12.9,5.8L93.1,384c-3.3,8.5-2.4,18,2.2,25.8c4.7,7.9,12.5,13.1,21.6,14.3l0.5,0.1c1.4,0.2,2.7,0.3,4.1,0.3
	c11.3,0,21.9-6.3,27-16.6c17.1-33.9,63.5-125.7,75.4-149.1h5.8l-10.2,64.4c-1.3,8.3,1,16.6,6.5,23c3.5,4.1,8,7.1,13,8.6L127.6,466.3
	c-1.9,1.9-2.9,4.4-2.9,7.1c0,2.7,1.1,5.2,2.9,7.1l28.7,28.7c2,2,4.5,2.9,7.1,2.9c2.6,0,5.1-1,7.1-2.9l55.1-55.1
	c3.9-3.9,3.9-10.2,0-14.1c-3.9-3.9-10.2-3.9-14.1,0l-48.1,48.1l-14.5-14.5L332.1,290l35.4,35.4c1.9,1.9,4.4,2.9,7.1,2.9
	c2.7,0,5.2-1.1,7.1-2.9l59.9-59.9c3.9-3.9,3.9-10.2,0-14.1l-5.5-5.5l53.1-10.7l-10.7,53.1l-8.2-8.2c-3.9-3.9-10.2-3.9-14.1,0
	l-81.5,81.5l-35.4-35.4c-3.9-3.9-10.2-3.9-14.1,0l-57,57c-3.9,3.9-3.9,10.2,0,14.1c3.9,3.9,10.2,3.9,14.1,0l50-50l35.4,35.4
	c3.9,3.9,10.2,3.9,14.1,0l81.5-81.5l14.4,14.4c2.6,2.6,6.4,3.6,10,2.5c3.5-1.1,6.2-4,6.9-7.6l17.3-86.2
	C512.4,221.1,511.4,217.7,509,215.3z M262.8,20c14.1,0,25.7,11.5,25.7,25.7c0,14.1-11.5,25.7-25.7,25.7c-14.1,0-25.7-11.5-25.7-25.7
	C237.2,31.5,248.7,20,262.8,20z M163.9,197.2l-12.2-12.2c5.8-1.9,11.5-4,17-6.5L163.9,197.2z M130.1,162.5c-1.2-4.1,1.2-8.4,5.3-9.6
	c16.4-4.7,31.8-12,45.6-21.6l-5.6,21.7c-11.2,6.2-23.2,11.2-35.7,14.8c-0.2,0.1-0.5,0.1-0.7,0.2c-1.8,0.4-3.7,0-5.2-0.9l-2.9-2.9
	C130.6,163.7,130.3,163.1,130.1,162.5z M74.6,140.4c0.6-0.6,1.4-0.9,2.1-0.9c0.8,0,1.5,0.3,2.1,0.9l36.4,36.4c1.7,2.3,3.7,4.3,6,6
	l31.5,31.5c1.2,1.2,1.2,3.1,0,4.2L133,238.3l-22-22l4.2-4.2c3.9-3.9,3.9-10.2,0-14.1l-22.5-22.5c-3.9-3.9-10.2-3.9-14.1,0l-4.2,4.2
	l-19.5-19.5L74.6,140.4z M88.2,210.8c-1,1-2.1,1.1-2.7,1.1c-0.6,0-1.7-0.1-2.7-1.1v0l-3.1-3.1c-1-1-1.1-2.1-1.1-2.7
	c0-0.6,0.1-1.7,1.1-2.7l5.7-5.7l8.4,8.4L88.2,210.8z M99.1,272.2c-0.7,0.7-1.6,0.9-2.1,0.9c-0.6,0-1.4-0.2-2.1-0.9l-73.9-73.9
	c-0.7-0.7-0.9-1.6-0.9-2.1c0-0.6,0.2-1.4,0.9-2.1l19.7-19.8l20.5,20.5c-1.5,3.2-2.3,6.7-2.3,10.3c0,6.3,2.5,12.3,7,16.8l3.1,3.1v0
	c4.5,4.5,10.5,7,16.8,7c3.6,0,7.1-0.8,10.3-2.3l22.9,22.9L99.1,272.2z M241.9,194.2h-56.6l20.5-79c3.7-14.1,16.4-24,31-24
	c9,0,17.3,3.6,23.5,10.2c18.8,20.2,48.6,26,72.4,13.9c6-3,11.6-6.7,16.7-11l2.7-2.2c1.6-1.4,3.7-2,5.8-1.7c2.1,0.2,4,1.3,5.3,3
	c2.5,3.3,1.8,8.2-1.5,10.9l-2.4,2c-18.7,15.5-42.3,24-66.5,24c-5.3,0-10.6-0.4-16-1.3c-4.8-0.7-9.4,2-11,6.6l-17,48.5H241.9z"/>
<path id="XMLID_1920_" class="st0" d="M247,408.8c-2.6,0-5.2,1.1-7.1,2.9c-1.9,1.9-2.9,4.4-2.9,7.1c0,2.6,1.1,5.2,2.9,7.1
	c1.9,1.9,4.4,2.9,7.1,2.9s5.2-1.1,7.1-2.9c1.9-1.9,2.9-4.4,2.9-7.1c0-2.6-1.1-5.2-2.9-7.1C252.2,409.8,249.6,408.8,247,408.8z"/>
<path id="XMLID_1921_" class="st0" d="M122.9,344.1c2.6,0,5.2-1.1,7.1-2.9c1.9-1.9,2.9-4.4,2.9-7.1s-1.1-5.2-2.9-7.1
	c-1.9-1.9-4.4-2.9-7.1-2.9s-5.2,1.1-7.1,2.9c-1.9,1.9-2.9,4.4-2.9,7.1s1.1,5.2,2.9,7.1C117.7,343,120.2,344.1,122.9,344.1z"/>
</svg>
