<svg xmlns="http://www.w3.org/2000/svg" xmlns:xlink="http://www.w3.org/1999/xlink" width="150" height="150" viewBox="0 0 150 150"><defs><clipPath id="a"><rect width="150" height="150" transform="translate(1071 646)" fill="#fff" stroke="#707070" stroke-width="1"/></clipPath></defs><g transform="translate(-1071 -646)" clip-path="url(#a)"><g transform="translate(1071 646)"><path d="M142.241,59.483v85.345A5.188,5.188,0,0,1,137.069,150H12.931a5.188,5.188,0,0,1-5.172-5.172V59.483Z" fill="#f0c419"/><path d="M142.241,59.483V75H129.31a7.759,7.759,0,0,1-7.759-7.759A7.759,7.759,0,0,1,113.793,75H98.276a7.759,7.759,0,0,1-7.759-7.759A7.759,7.759,0,0,1,82.759,75H67.241a7.759,7.759,0,0,1-7.759-7.759A7.759,7.759,0,0,1,51.724,75H36.207a7.759,7.759,0,0,1-7.759-7.759A7.759,7.759,0,0,1,20.69,75H7.759V59.483Z" fill="#f29c1f"/><path d="M150,60.983v1.086a7.759,7.759,0,0,1-7.759,7.759H129.31a7.759,7.759,0,0,1-7.759-7.759V56.9l-1.034-2.586-9.31-23.276h15a10.4,10.4,0,0,1,8.741,4.784l14.25,22.4a5.224,5.224,0,0,1,.8,2.767Z" fill="#e64c3c"/><path d="M121.552,56.9v5.172a7.759,7.759,0,0,1-7.759,7.759H98.276a7.759,7.759,0,0,1-7.759-7.759V56.9L85.345,31.034h25.862Z" fill="#ecf0f1"/><path d="M90.517,56.9v5.172a7.759,7.759,0,0,1-7.759,7.759H67.241a7.759,7.759,0,0,1-7.759-7.759V56.9L60,54.31l4.655-23.276h20.69L90,54.31Z" fill="#e64c3c"/><path d="M64.655,31.034,59.483,56.9v5.172a7.759,7.759,0,0,1-7.759,7.759H36.207a7.759,7.759,0,0,1-7.759-7.759V56.9L38.793,31.034Z" fill="#ecf0f1"/><path d="M38.793,31.034,29.483,54.31,28.448,56.9v5.172a7.759,7.759,0,0,1-7.759,7.759H7.759A7.759,7.759,0,0,1,0,62.069V60.983a5.224,5.224,0,0,1,.8-2.767l14.25-22.4a10.4,10.4,0,0,1,8.741-4.784Z" fill="#e64c3c"/><path d="M121.552,56.9v2.586H90.517V56.9L90,54.31h30.517Z" fill="#d1d4d1"/><path d="M60,54.31,59.483,56.9v2.586H28.448V56.9l1.034-2.586Z" fill="#d1d4d1"/><path d="M12.931,54.31H29.483L28.448,56.9v2.586H12.931a2.586,2.586,0,1,1,0-5.172Z" fill="#c03a2b"/><path d="M90.517,56.9v2.586H59.483V56.9L60,54.31H90Z" fill="#c03a2b"/><path d="M139.655,56.9a2.586,2.586,0,0,1-2.586,2.586H121.552V56.9l-1.034-2.586h16.552A2.586,2.586,0,0,1,139.655,56.9Z" fill="#c03a2b"/><circle cx="28.448" cy="28.448" r="28.448" transform="translate(46.552)" fill="#f0c419"/><path d="M87.931,33.621H77.586V28.448H87.931a2.475,2.475,0,0,0,1.795-.745,2.529,2.529,0,0,0,.791-1.841,2.586,2.586,0,0,0-2.586-2.586H80.172V18.1h7.759a7.759,7.759,0,0,1,0,15.517Z" fill="#f9eab0"/><path d="M85.345,41.379H59.483a2.586,2.586,0,1,1,0-5.172H85.345a2.586,2.586,0,1,1,0,5.172Z" fill="#f9eab0"/><path d="M23.276,93.1H69.828V150H23.276Z" fill="#a56a43"/><rect width="56.897" height="10.345" rx="2.586" transform="translate(18.103 82.759)" fill="#f29c1f"/><path d="M87.931,111.207H129.31v10.345H87.931Z" fill="#35495e"/><path d="M129.31,85.345v25.862H87.931V85.345a2.586,2.586,0,0,1,2.586-2.586h36.207A2.586,2.586,0,0,1,129.31,85.345Z" fill="#67b9cc"/><rect width="46.552" height="10.345" rx="2.586" transform="translate(85.345 121.552)" fill="#f29c1f"/><path d="M59.483,126.724a2.586,2.586,0,0,1-2.586-2.586v-5.172a2.586,2.586,0,0,1,5.172,0v5.172A2.586,2.586,0,0,1,59.483,126.724Z" fill="#95a5a5"/><path d="M62.069,18.1h20.69V28.448a10.345,10.345,0,0,1-20.69,0Z" fill="#f5efca"/><path d="M129.31,85.345v25.862H101.379a78.235,78.235,0,0,1,16.009-28.448h9.336A2.586,2.586,0,0,1,129.31,85.345Z" fill="#2fa8cc"/></g></g></svg>