<svg id="Layer_1" data-name="Layer 1" xmlns="http://www.w3.org/2000/svg" xmlns:xlink="http://www.w3.org/1999/xlink" viewBox="0 0 400 400"><defs><style>.cls-1{fill:#006838;}.cls-2{fill:#333954;}.cls-12,.cls-3,.cls-40{fill:#6466af;}.cls-3,.cls-42,.cls-45,.cls-48,.cls-5,.cls-51{opacity:0.1;}.cls-10,.cls-13,.cls-3,.cls-40,.cls-42,.cls-45,.cls-5,.cls-51,.cls-9{isolation:isolate;}.cls-4,.cls-42{fill:#56bb6c;}.cls-13,.cls-49,.cls-5{fill:#010101;}.cls-6{fill:#ffd139;}.cls-51,.cls-7{fill:#67627d;}.cls-8{fill:#9d9cb5;}.cls-21,.cls-9{fill:#fff;}.cls-13,.cls-9{opacity:0.25;}.cls-10{opacity:0.5;}.cls-11,.cls-22,.cls-23{fill:none;}.cls-11{stroke:#545562;stroke-width:2px;}.cls-11,.cls-22,.cls-23,.cls-46{stroke-miterlimit:10;}.cls-14{fill:#318540;}.cls-15{fill:#f6f7f9;}.cls-16{fill:#754937;}.cls-17{fill:#27aae1;}.cls-18,.cls-20{fill:#563327;}.cls-18{opacity:0.76;}.cls-19{fill:#232223;}.cls-22,.cls-23{stroke:#333954;stroke-linecap:round;}.cls-22{stroke-width:0.75px;}.cls-24{fill:#d5dcf0;}.cls-25{fill:#c1c6e5;}.cls-26{fill:#eaeff8;}.cls-27{fill:#f27086;}.cls-28{fill:#ef4658;}.cls-29{fill:#e71856;}.cls-30{fill:#92d9f7;}.cls-31{fill:#54c0ee;}.cls-32{fill:#75c044;}.cls-33{fill:#5bba47;}.cls-34{fill:#95cb69;}.cls-35{fill:#fedd42;}.cls-36{fill:#fbeba8;}.cls-37{fill:url(#linear-gradient);}.cls-38{fill:#244d24;}.cls-39,.cls-40{opacity:0.2;}.cls-41{fill:#448f42;}.cls-43,.cls-45,.cls-46{fill:#949494;}.cls-44{fill:#4e4e4e;}.cls-46{stroke:#6466af;}.cls-47{fill:#518d48;}.cls-50{fill:#303039;}.cls-52{fill:#fcb233;}.cls-53{fill:#f7911e;}.cls-54{fill:#fcf8ec;}.cls-55{fill:#f15c72;}.cls-56{fill:#f490a4;}</style><linearGradient id="linear-gradient" x1="208.62" y1="100.31" x2="208.62" y2="300.86" gradientTransform="matrix(1, 0, 0, -1, 0, 402)" gradientUnits="userSpaceOnUse"><stop offset="0" stop-color="#818181" stop-opacity="0.25"/><stop offset="0.54" stop-color="#818181" stop-opacity="0.12"/><stop offset="1" stop-color="#818181" stop-opacity="0.1"/></linearGradient></defs><title>campaigns and promos</title><ellipse class="cls-1" cx="199.31" cy="330.32" rx="146.76" ry="7.8"/><path class="cls-2" d="M319.61,352.26h0s0,0,0,0Z"/><ellipse class="cls-3" cx="318.56" cy="330.25" rx="21.96" ry="3.37"/><path class="cls-4" d="M320.94,296.68s2,2.65-.94,6.66-5.4,7.39-4.42,9.88c0,0,4.47-7.44,8.11-7.54S324.94,301.15,320.94,296.68Z"/><path class="cls-5" d="M320.94,296.68a3.27,3.27,0,0,1,.42.83c3.55,4.17,5.44,8.07,2,8.17-3.18.09-7,5.78-7.91,7.21a3.14,3.14,0,0,0,.11.33s4.47-7.44,8.11-7.54S324.94,301.15,320.94,296.68Z"/><path class="cls-6" d="M324.71,300.06c0,.93-.11,1.69-.23,1.69s-.24-.76-.24-1.69.13-.49.26-.49S324.71,299.12,324.71,300.06Z"/><path class="cls-6" d="M326,301.17c-.82.45-1.54.72-1.59.6s.55-.57,1.37-1,.5-.12.57,0S326.82,300.73,326,301.17Z"/><path class="cls-4" d="M310.22,296.68s-2,2.65.94,6.66,5.4,7.39,4.42,9.88c0,0-4.47-7.44-8.11-7.54S306.21,301.15,310.22,296.68Z"/><path class="cls-5" d="M310.22,296.68a3.27,3.27,0,0,0-.42.83c-3.55,4.17-5.44,8.07-2,8.17,3.18.09,7,5.78,7.91,7.21a2.59,2.59,0,0,1-.11.33s-4.47-7.44-8.11-7.54S306.21,301.15,310.22,296.68Z"/><path class="cls-6" d="M306.45,300.06c0,.93.11,1.69.24,1.69s.23-.76.23-1.69-.13-.49-.26-.49S306.45,299.12,306.45,300.06Z"/><path class="cls-6" d="M305.16,301.17c.82.45,1.54.72,1.6.6s-.55-.57-1.37-1-.5-.12-.57,0S304.34,300.73,305.16,301.17Z"/><path class="cls-7" d="M326.5,309.64l-.1.83-.14,1.17-.06.49-.14,1.17-.06.49-.14,1.17-1.62,13.3c-.14,1.19-2.08,2.11-4.43,2.11h-8.43c-2.34,0-4.26-.92-4.42-2.11l-1.63-13.31-.14-1.17-.06-.49-.14-1.17-.06-.49-.14-1.17-.1-.83c-.08-.66,1-1.23,2.29-1.23H324.2C325.53,308.41,326.58,309,326.5,309.64Z"/><polygon class="cls-8" points="326.39 310.47 326.25 311.63 304.91 311.63 304.76 310.47 326.39 310.47"/><polygon class="cls-8" points="326.19 312.12 326.05 313.3 305.11 313.3 304.97 312.12 326.19 312.12"/><polygon class="cls-8" points="325.99 313.78 325.85 314.95 305.31 314.95 305.17 313.78 325.99 313.78"/><circle class="cls-9" cx="104.64" cy="313.05" r="0.27"/><g class="cls-10"><path class="cls-1" d="M351,274.93c-1.58.88-3.28,1.72-5.06,2.54-8.42,3.9-19,7.29-31,10.21l-2.27.54-.19,0c-1.43.34-2.89.67-4.36,1-13.26,2.9-28.1,5.27-43.82,7.16l-.89.11-.21,0c-21,2.49-43.54,4.13-66,5q-5.3.2-10.58.35l-1.78,0-1.56,0q-3.39.08-6.76.14l-2.54,0-1.92,0c-5.54.08-11,.1-16.46.09-46.42-.15-87.93-3.57-108.8-9.44-60.32-17-47-58.8-8.86-67.3S23.28,167.62,84.13,135c37-19.79,75.68,23.26,107.71-11.17,47.78-51.35,90-43,116.67-16.45,30,29.88,5.93,66.32,38.07,64.46C394.75,169.11,423.5,234.55,351,274.93Z"/></g><path class="cls-11" d="M264.51,246.86s11.34-20.09,28.43-25.87a35,35,0,0,0,17.7-13.24,58.91,58.91,0,0,0,5.23-9.4"/><path class="cls-12" d="M326.59,194.64c-1.95,1.89-11,3.84-11,3.84s2.23-9,4.17-10.89a4.91,4.91,0,0,1,6.84,7h0Z"/><path class="cls-12" d="M321.46,210.92c-2.66.53-11.33-2.76-11.33-2.76s6.76-6.35,9.42-6.87a4.91,4.91,0,1,1,2.12,9.59l-.21,0Z"/><path class="cls-12" d="M302.79,228.55c-2.56-.89-8.39-8.1-8.39-8.1s9-2.07,11.6-1.18a4.91,4.91,0,0,1-3,9.36Z"/><path class="cls-12" d="M285.67,238.7c-2.68-.44-9.63-6.57-9.63-6.57s8.56-3.56,11.23-3.13a4.91,4.91,0,1,1-1.6,9.69h0Z"/><path class="cls-12" d="M302.58,201.14c0,2.71,4.91,10.58,4.91,10.58s4.91-7.86,4.92-10.58a4.91,4.91,0,0,0-9.82,0Z"/><path class="cls-12" d="M282.7,213.26c.81,2.59,7.84,8.63,7.84,8.63s2.34-9,1.53-11.56a4.91,4.91,0,0,0-9.38,2.93Z"/><path class="cls-12" d="M265,227.7c.36,2.69,6.28,9.83,6.28,9.83s3.82-8.45,3.46-11.14A4.91,4.91,0,0,0,265,227.7Z"/><path class="cls-4" d="M326.59,194.64c-1.95,1.89-11,3.84-11,3.84s2.23-9,4.17-10.89a4.91,4.91,0,0,1,6.84,7h0Z"/><path class="cls-4" d="M321.46,210.92c-2.66.53-11.33-2.76-11.33-2.76s6.76-6.35,9.42-6.87a4.91,4.91,0,1,1,2.12,9.59l-.21,0Z"/><path class="cls-4" d="M302.79,228.55c-2.56-.89-8.39-8.1-8.39-8.1s9-2.07,11.6-1.18a4.91,4.91,0,0,1-3,9.36Z"/><path class="cls-4" d="M285.67,238.7c-2.68-.44-9.63-6.57-9.63-6.57s8.56-3.56,11.23-3.13a4.91,4.91,0,1,1-1.6,9.69h0Z"/><path class="cls-4" d="M302.58,201.14c0,2.71,4.91,10.58,4.91,10.58s4.91-7.86,4.92-10.58a4.91,4.91,0,0,0-9.82,0Z"/><path class="cls-4" d="M282.7,213.26c.81,2.59,7.84,8.63,7.84,8.63s2.34-9,1.53-11.56a4.91,4.91,0,0,0-9.38,2.93Z"/><path class="cls-13" d="M265,227.7c.36,2.69,6.28,9.83,6.28,9.83s3.82-8.45,3.46-11.14A4.91,4.91,0,0,0,265,227.7Z"/><path class="cls-11" d="M265.16,246.46s2.23-23,15.49-35.17A35,35,0,0,0,291.47,192a58.85,58.85,0,0,0,1-10.71"/><path class="cls-14" d="M300.75,173.57c-1,2.52-8.51,8-8.51,8s-1.61-9.13-.6-11.66a4.91,4.91,0,0,1,9.1,3.67Z"/><path class="cls-14" d="M302.66,190.53c-2.22,1.56-11.47,2.07-11.47,2.07s3.61-8.53,5.82-10.1a4.91,4.91,0,0,1,5.65,8Z"/><path class="cls-14" d="M292.74,214.2c-2.7.23-10.95-4-10.95-4s7.42-5.55,10.13-5.78a4.91,4.91,0,0,1,.82,9.79Z"/><path class="cls-4" d="M281.2,230.42c-2.62.68-11.47-2.1-11.47-2.1s6.38-6.73,9-7.41a4.91,4.91,0,0,1,2.46,9.51Z"/><path class="cls-14" d="M281.43,189.23c1.1,2.48,8.77,7.68,8.77,7.68s1.3-9.18.21-11.66a4.91,4.91,0,0,0-9,4h0Z"/><path class="cls-12" d="M268.17,208.37c1.79,2,10.67,4.7,10.67,4.7s-1.5-9.15-3.29-11.19a4.92,4.92,0,1,0-7.39,6.48Z"/><circle class="cls-15" cx="141.49" cy="106.72" r="1.3"/><circle class="cls-15" cx="145" cy="106.72" r="1.3"/><path class="cls-4" d="M269.42,181.31a4.91,4.91,0,1,1-4.92-4.9h0A4.91,4.91,0,0,1,269.42,181.31Zm-5.48,2.6,3.64-3.64a.32.32,0,0,0,0-.45l-.45-.45a.31.31,0,0,0-.44,0h0l-3,3L262.33,181a.32.32,0,0,0-.45,0l-.45.45a.31.31,0,0,0,0,.44h0l2.06,2.06a.31.31,0,0,0,.44,0h0Z"/><path class="cls-16" d="M179.85,167.93s7.12-13.1,9.73-13.22,1,5.16,1,5.16-4.64,3.56-.4-2.89c2.62-4,17.23-2.21,13,7.63-3.8,8.94-8,10.45-8,10.45Z"/><path class="cls-17" d="M145.35,177.15s18,5,34.19-13.91c1.13-1.31,2.43-2.45,4.16-2.44,0,0,8.59,6.24,16.13,8.73,2.23.74,2,2.81.34,4.16-8.72,7-35.16,21.78-55.89,14.54Z"/><rect class="cls-16" x="124.37" y="163.19" width="12.1" height="24.04" transform="translate(-60.16 68.51) rotate(-24.09)"/><path class="cls-18" d="M131,161.77l4.88,11.17c-1.65,4.35-6.43,6.35-10.45,5.82l-5-11.11c.12-.44.25-.88.39-1.31Z"/><path class="cls-16" d="M107.3,148.35s-1.46,11.21,9.69,23.46c.76.83,4.32,5.52,9.72,3.23,3.75-1.59,10.35-3.29,11.18-8.81,1.06-7-2.84-23.21-9.62-25.31S107.3,148.35,107.3,148.35Z"/><path class="cls-16" d="M131.88,156.27s6.08-6.66,10.92-3.08-4.4,13-7.8,9S131.88,156.27,131.88,156.27Z"/><path class="cls-19" d="M110.93,154.87s-.49-5,2.47-4,4.45,1,11.61-3.64c8.22-5.33,9.61,9.41,9.61,9.41s1.53-4.42,4.4-4.48c0,0-3.91-15.09-10-14.84s-19.4,3.69-19.86,7.09S110.93,154.87,110.93,154.87Z"/><path class="cls-16" d="M115.56,161.72s-9-.43-9.87,5.51,12.25,6.11,11.84.88S115.56,161.72,115.56,161.72Z"/><path class="cls-20" d="M115.39,167.93s-2.19,1.52-3.15,0a1.28,1.28,0,0,1,.4-2s-5.08-.75-4.52,1.87S114.23,170.56,115.39,167.93Z"/><path class="cls-19" d="M130.62,146.2s-3.22-3.92-4.56-1.07-2.45,3.85-10.79,5.62c-9.59,2-.17,13.45-.17,13.45s-4.2-2-6.28-.07c0,0-7.88-13.45-3.36-17.61s16.28-9.44,19-7.36S130.62,146.2,130.62,146.2Z"/><ellipse class="cls-2" cx="129.18" cy="154.87" rx="0.78" ry="1.66" transform="translate(-49.35 61.07) rotate(-22.45)"/><ellipse class="cls-2" cx="117.48" cy="159.45" rx="0.78" ry="1.66" transform="translate(-51.99 56.95) rotate(-22.45)"/><path class="cls-21" d="M121.89,166.58c.21-.13,7.43-4,7.43-4s1.11,11.49-7.22,3.88"/><path class="cls-20" d="M136.39,160.54s2.64-.47,2.24-2.23a1.28,1.28,0,0,0-1.7-1.13s3.08-4.12,4.53-1.87S139.06,161.58,136.39,160.54Z"/><circle class="cls-22" cx="116.72" cy="160.02" r="5.2" transform="matrix(0.84, -0.54, 0.54, 0.84, -68.08, 88.76)"/><circle class="cls-22" cx="129.05" cy="154.55" r="5.32" transform="translate(-63.15 94.56) rotate(-32.81)"/><line class="cls-23" x1="121.1" y1="157.2" x2="123.97" y2="156.13"/><path class="cls-17" d="M128.16,185.28s9.73,4.59,10.76-5.88l8.16-2.41a8.82,8.82,0,0,1,6,1.14c11.12,6.69,33.5,46.54,29.19,58.61-.84,2.36-15.79,7.87-18,8.85-23.41,10.26-28.26,12.84-41.73-43l-3.29-8.72c2.08-5,5.09-4.55,6.25-6.95Z"/><path class="cls-16" d="M79,188.3s-12.73-14.2-16-13.59.23,6.73.23,6.73,6.82,3.07-.36-3.72c-4.43-4.19-22.09,2.33-14,13.35,7.36,10,13,10.66,13,10.66Z"/><path class="cls-17" d="M124.62,189.59s-20.92,11.48-46.67-7.23c-1.79-1.3-3.75-2.33-5.9-1.81,0,0-8.85,10.3-17.5,15.63-2.55,1.58-1.68,4.1.81,5.28,12.93,6.18,50.2,16.73,73.86,1.61Z"/><path class="cls-24" d="M49.17,173.23a5.79,5.79,0,0,0-.47.74,5.73,5.73,0,0,0,2.36,7.75l.39.19,5.6-6.28-3-1.59-.13.13a1.93,1.93,0,0,1-2.3.37Z"/><path class="cls-25" d="M57,175.63l-3-1.59-.13.13a1.93,1.93,0,0,1-1.83.54,4.14,4.14,0,0,1-3.41,4.63,5.7,5.7,0,0,0,2.36,2.37l.39.19Z"/><path class="cls-26" d="M63.77,179.12l-6.89-3.67L42.08,192a2.61,2.61,0,0,0-.54.94,34.76,34.76,0,0,0,23.67-13.22A10.6,10.6,0,0,1,63.77,179.12Z"/><path class="cls-24" d="M51.21,181.8s6.09-.49,5.72,5.62a35,35,0,0,0,8.28-7.66,10.59,10.59,0,0,1-1.45-.64l-6.89-3.67-5.66,6.35Z"/><path class="cls-26" d="M69.77,159.1l1.89-3.55a2.21,2.21,0,1,0-3.9-2.08L65.88,157Z"/><path class="cls-24" d="M65.88,157l3.9,2.08L71.43,156a2.44,2.44,0,0,1-3.86-2.15Z"/><path class="cls-24" d="M42.61,169a2.16,2.16,0,0,1,.23-1.35l9.34-17.54a2.16,2.16,0,0,1,1-.94A33.77,33.77,0,0,1,41.1,132.52L22,168.3a33.77,33.77,0,0,1,20.58.72Z"/><path class="cls-25" d="M47.63,158.68l4.55-8.54a2.16,2.16,0,0,1,1-.94A33.77,33.77,0,0,1,41.1,132.52L34.43,145A42.75,42.75,0,0,0,47.63,158.68Z"/><path class="cls-27" d="M54,173.64a2.18,2.18,0,0,1-.35.48l9.92,5.29A10.62,10.62,0,0,0,65,180a34.67,34.67,0,0,0,7.51-19.72l-8.93-4.76a2.17,2.17,0,0,1-.2.56L54,173.64Z"/><path class="cls-28" d="M59.19,165s1.5-1.72,4.93.08S68,167,68,167a4.18,4.18,0,0,1,2.41,3.48,34.62,34.62,0,0,0,2.13-10.21l-8.93-4.76a2.17,2.17,0,0,1-.2.56l-4,7.53L59.19,165Z"/><path class="cls-28" d="M43.45,170.46a2.17,2.17,0,0,1-.9-2.94L51.9,150a2.17,2.17,0,0,1,2.94-.9l8.07,4.3a2.17,2.17,0,0,1,.9,2.94l-9.34,17.54a2.17,2.17,0,0,1-2.94.9l-8.07-4.3Z"/><path class="cls-29" d="M47.36,158.49a1.81,1.81,0,0,1,2.46,1.64l6.71,3.57A1.71,1.71,0,0,1,59.19,165l4.61-8.66a2.17,2.17,0,0,0-.9-2.94l-8.07-4.3a2.17,2.17,0,0,0-2.94.9Z"/><path class="cls-27" d="M59.41,157.13a1.1,1.1,0,0,1-.55-.13l-4.77-2.54a1.1,1.1,0,0,1,1-1.94l4.77,2.54a1.1,1.1,0,0,1-.48,2.07Z"/><path class="cls-27" d="M57.5,160.71a1.09,1.09,0,0,1-.55-.13L52.18,158a1.1,1.1,0,1,1,1-1.94L58,158.64a1.1,1.1,0,0,1-.48,2.07Z"/><path class="cls-27" d="M55,164.17l-4.77-2.54a1.1,1.1,0,1,1,1-1.94l4.77,2.54a1.1,1.1,0,1,1-1,1.94Z"/><path class="cls-27" d="M53.69,167.88a1.09,1.09,0,0,1-.55-.13l-4.77-2.54a1.1,1.1,0,1,1,1-1.94l4.77,2.54a1.1,1.1,0,0,1-.48,2.07Z"/><path class="cls-27" d="M51.23,171.33l-4.77-2.54a1.1,1.1,0,1,1,1-1.94l4.77,2.54a1.1,1.1,0,1,1-1,1.94Z"/><path class="cls-26" d="M19.23,169.48a2.21,2.21,0,0,1-.91-3l19.21-36a2.21,2.21,0,1,1,3.9,2.08l-19.21,36a2.21,2.21,0,0,1-3,.91Z"/><path class="cls-24" d="M33.26,143a2.59,2.59,0,0,1,1.37,2.31l6.8-12.76a2.21,2.21,0,0,0-3.9-2.08L30.87,143a2.59,2.59,0,0,1,2.39,0Z"/><path class="cls-16" d="M59.75,186.71s-6.44-7.19-8.1-6.87.12,3.41.12,3.41,3.45,1.55-.18-1.88c-2.24-2.12-11.18,1.18-7.08,6.75,3.72,5.06,6.59,5.39,6.59,5.39Z"/><path class="cls-30" d="M91,227a2.38,2.38,0,0,1,3.37,0l10.14,10.14,5.77-5.77a2.39,2.39,0,0,1,3.37,0l4.87,4.87V215.51a2.92,2.92,0,0,0-2.92-2.92H85.25a2.92,2.92,0,0,0-2.92,2.92v20.22Z"/><path class="cls-31" d="M92.94,224.41v-8a3.87,3.87,0,0,1,3.85-3.85H85.25a2.92,2.92,0,0,0-2.92,2.92v20.22L91,227a2.38,2.38,0,0,1,2.49-.56,3.81,3.81,0,0,1-.6-2Z"/><path class="cls-32" d="M116.7,248.65a2.92,2.92,0,0,0-.4-.51l-21.5-21.5a2.92,2.92,0,0,0-4.13,0L82.33,235v10.94a2.92,2.92,0,0,0,2.92,2.92h30.41A2.91,2.91,0,0,0,116.7,248.65Z"/><path class="cls-33" d="M93.85,235.07c-3.53,3.53-7.79,7.47-7.79,7.47a4,4,0,0,1-3.74.25v3.13a2.92,2.92,0,0,0,2.92,2.92h30.41a2.91,2.91,0,0,0,1-.2,2.92,2.92,0,0,0-.4-.51l-21.5-21.5s2.59,4.9-.94,8.43Z"/><path class="cls-34" d="M114.08,231a2.92,2.92,0,0,0-4.13,0L92.12,248.84h23.54a2.92,2.92,0,0,0,2.92-2.92V235.5Z"/><path class="cls-35" d="M108.84,222.66a4.19,4.19,0,1,1-4.19-4.19A4.19,4.19,0,0,1,108.84,222.66Z"/><path class="cls-36" d="M107.51,221.87a2,2,0,1,1-2-2A2,2,0,0,1,107.51,221.87Z"/><path class="cls-30" d="M314.86,150.69a1.15,1.15,0,0,1,1.62,0l4.87,4.87,2.77-2.77a1.15,1.15,0,0,1,1.62,0l2.34,2.34v-10a1.4,1.4,0,0,0-1.4-1.4H312.07a1.4,1.4,0,0,0-1.4,1.4v9.71Z"/><path class="cls-31" d="M315.77,149.44v-3.83a1.86,1.86,0,0,1,1.85-1.85h-5.55a1.4,1.4,0,0,0-1.4,1.4v9.71l4.19-4.19a1.14,1.14,0,0,1,1.2-.27,1.83,1.83,0,0,1-.29-1Z"/><path class="cls-32" d="M327.18,161.08a1.4,1.4,0,0,0-.19-.24l-10.33-10.33a1.4,1.4,0,0,0-2,0l-4,4v5.26a1.4,1.4,0,0,0,1.4,1.4h14.61A1.4,1.4,0,0,0,327.18,161.08Z"/><path class="cls-33" d="M316.2,154.56c-1.7,1.7-3.74,3.59-3.74,3.59a1.94,1.94,0,0,1-1.79.12v1.5a1.4,1.4,0,0,0,1.4,1.4h14.61a1.4,1.4,0,0,0,.5-.09,1.4,1.4,0,0,0-.19-.24l-10.33-10.33s1.24,2.35-.45,4.05Z"/><path class="cls-34" d="M325.92,152.61a1.4,1.4,0,0,0-2,0l-8.57,8.57h11.31a1.4,1.4,0,0,0,1.4-1.4v-5Z"/><path class="cls-35" d="M323.4,148.6a2,2,0,1,1-2-2A2,2,0,0,1,323.4,148.6Z"/><path class="cls-36" d="M322.77,148.22a.94.94,0,1,1-.94-.94A.94.94,0,0,1,322.77,148.22Z"/><path class="cls-12" d="M257.84,228.75c1.42,2.31,9.72,6.44,9.72,6.44s.07-9.27-1.35-11.58a4.91,4.91,0,0,0-8.37,5.14h0Z"/><polygon class="cls-37" points="136.5 101.14 136.5 108.92 136.5 301.69 280.74 301.69 280.74 108.92 280.74 101.14 136.5 101.14"/><rect class="cls-15" x="137.76" y="102.9" width="141.72" height="7.64"/><rect class="cls-4" x="137.76" y="102.9" width="141.72" height="7.64"/><rect class="cls-15" x="137.76" y="110.54" width="141.72" height="189.39"/><circle class="cls-15" cx="148.52" cy="106.72" r="1.3"/><rect class="cls-4" x="163.06" y="122.22" width="91.13" height="3.57"/><rect class="cls-38" x="242.07" y="122.22" width="12.11" height="3.57"/><g class="cls-39"><rect class="cls-40" x="150" y="195.13" width="57.35" height="41.08"/></g><g class="cls-39"><rect class="cls-40" x="150" y="141.84" width="57.35" height="41.08"/></g><g class="cls-39"><rect class="cls-40" x="150" y="247.72" width="57.35" height="41.08"/></g><g class="cls-39"><rect class="cls-40" x="209.9" y="195.13" width="57.35" height="41.08"/></g><g class="cls-39"><rect class="cls-40" x="209.9" y="141.84" width="57.35" height="41.08"/></g><g class="cls-39"><rect class="cls-40" x="209.9" y="247.72" width="57.35" height="41.08"/></g><path class="cls-38" d="M224.56,149.78s-.52-1.3,3-1,13.58,1.44,17.94.46,7-1.29,6.69,0-7.54,4.22-7.54,4.22l-9.42,1-7-1.11-3.73-2.21Z"/><path class="cls-14" d="M257.78,169a40.68,40.68,0,0,0-16.72,7.41,3.1,3.1,0,0,0-1.33-1.58,4.68,4.68,0,0,0-1.35-.57,1.36,1.36,0,0,0-1.24.53,7,7,0,0,0-1.1,1.63c-6.63-4.55-16.68-7.45-16.68-7.45V168a5,5,0,0,1,.07-.64c0-.24.08-.46.13-.72.85-4.34,4.22-14.25,4.22-14.25h3.81l7.39,1.54,8.32-.51,8.37-1.74,1.09-.23c1.81,1.42,3.87,11.37,4.67,15.61.1.54.18,1,.24,1.31S257.78,169,257.78,169Z"/><path class="cls-12" d="M220.74,167.07c.22-4.16,3.53-13.19,4.09-14.69h-1s-3.57,10.52-4.3,14.62a.1.1,0,0,0,0,0c0,.11,0,.22-.05.32s-.06.46-.07.64v.91s10.05,2.91,16.68,7.45a7,7,0,0,1,1.1-1.63C234.61,172.43,225,168.68,220.74,167.07Z"/><path class="cls-12" d="M257.68,168.35l-.09-.5-.15-.81h0c-.81-4.24-2.86-14.19-4.67-15.61l-1.09.23c.66,1.77,4.91,13.34,4.55,15.59-7.11,1.42-14.31,6-16.49,7.52a3.1,3.1,0,0,1,1.33,1.58A40.68,40.68,0,0,1,257.79,169Z"/><path class="cls-5" d="M221,166.81c.22-4.16,3.53-13.19,4.09-14.69h-1s-3.57,10.52-4.3,14.62v0q0,.17-.05.32c0,.24-.06.46-.07.64v.91s10,2.9,16.68,7.45a6.88,6.88,0,0,1,1.1-1.63C234.87,172.18,225.27,168.41,221,166.81Z"/><path class="cls-41" d="M220.74,167.07c.22-4.16,3.53-13.19,4.09-14.69h-1s-3.57,10.52-4.3,14.62a.1.1,0,0,0,0,0c0,.11,0,.22-.05.32s-.06.46-.07.64v.91s10.05,2.91,16.68,7.45a7,7,0,0,1,1.1-1.63C234.61,172.43,225,168.68,220.74,167.07Z"/><path class="cls-5" d="M257.42,168.09l-.09-.5-.15-.81h0c-.8-4.24-2.86-14.19-4.67-15.61l-1.08.23c.66,1.77,4.91,13.34,4.55,15.59-7.11,1.42-14.31,6-16.49,7.51a3.11,3.11,0,0,1,1.33,1.59,40.64,40.64,0,0,1,16.72-7.41S257.49,168.48,257.42,168.09Z"/><path class="cls-41" d="M257.68,168.35l-.09-.5-.15-.81h0c-.81-4.24-2.86-14.19-4.67-15.61l-1.09.23c.66,1.77,4.91,13.34,4.55,15.59-7.11,1.42-14.31,6-16.49,7.52a3.1,3.1,0,0,1,1.33,1.58A40.68,40.68,0,0,1,257.79,169Z"/><path class="cls-5" d="M223.21,157.52s6.6,4.15,8.14-1.93l1.47.39s.48,6.73-10,2.89Z"/><path class="cls-38" d="M223.21,157s6.6,4.15,8.14-1.93l1.47.39s.48,6.73-10,2.89Z"/><path class="cls-5" d="M244,155.79s.85,5,9.89,2.56l-.32-.94s-6.17,2.56-8.41-1.88Z"/><path class="cls-38" d="M244,155.27s.85,5,9.89,2.56l-.32-.94s-6.17,2.56-8.41-1.88Z"/><path class="cls-5" d="M237.94,155.73v10.36h1.6s2.22-.8,2.17-5.46a30.06,30.06,0,0,0-.39-5.91Z"/><path class="cls-38" d="M237.69,155.47v10.36h1.6s2.22-.8,2.17-5.46a29.81,29.81,0,0,0-.39-5.91Z"/><path class="cls-5" d="M252.75,152c-.65,1.22-6.59,3.22-7.64,3.56l-.16.05s-.38.1-1,.23c-1.91.4-6.17,1.14-9.38.49l-1.44-.28-1.14-.25c-3.7-.82-7.52-1.9-8.2-2.84,0,0,.18-3.09.81-3s7.57,3,7.57,3h.1l1.16.14c2.26.25,7,.64,9.57,0l.35-.11.6-.21c3.29-1.17,8.22-3.25,8.22-3.25A2.19,2.19,0,0,1,252.75,152Z"/><path class="cls-5" d="M252.18,149.27c-.26,1.29-7.54,4.22-7.54,4.22l-9.42,1-7-1.1-3.73-2.21,0-1.36a.57.57,0,0,1,.2-.63c1.24.38,7.39,3,7.39,3h.1l1.16.14c2.26.25,7,.64,9.57,0l.35-.11.6-.21c3-1.05,7.29-2.86,8.09-3.2A.57.57,0,0,1,252.18,149.27Z"/><path class="cls-14" d="M252.75,151.44c-.65,1.22-6.59,3.21-7.64,3.56L245,155l-1,.22c-1.91.4-6.17,1.14-9.38.49l-1.44-.28-1.14-.25c-3.7-.82-7.52-1.9-8.2-2.84,0,0,.18-3.09.81-3s7.57,3,7.57,3h.1l1.16.14c2.26.25,7,.64,9.57,0l.35-.11.6-.21c3.29-1.17,8.22-3.25,8.22-3.25A2.2,2.2,0,0,1,252.75,151.44Z"/><circle class="cls-5" cx="239.07" cy="154.72" r="1.04"/><circle class="cls-38" cx="239.07" cy="154.46" r="1.04"/><path class="cls-5" d="M233.68,152.53l-.28,2.93-1.14-.25.28-2.83C232.7,152.42,233.11,152.47,233.68,152.53Z"/><path class="cls-38" d="M233.42,152.53l-.28,2.93-1.14-.25.28-2.83C232.44,152.42,232.85,152.47,233.42,152.53Z"/><path class="cls-5" d="M244.86,155l-.16.05s-.37.09-1,.22l-1-2.78.35-.11.6-.21Z"/><path class="cls-38" d="M245.12,155,245,155l-1,.22-1-2.78.35-.11.6-.21Z"/><path class="cls-4" d="M171.8,147.41a7.51,7.51,0,0,1,3.78,1,21.18,21.18,0,0,0,5.35,0c1.89-.42,2.84-1.89,3.2-1.47s.37,4.36.37,4.36l-1.63,4.36-3.67,2.73-5.82-1.68-1.93-4.93Z"/><path class="cls-38" d="M184.5,151.35l-1.63,4.36-3.67,2.73-5.82-1.68-1.93-4.93.37-4.41h.09a7.71,7.71,0,0,1,3.7,1.05,21.18,21.18,0,0,0,5.35,0c1.79-.4,2.74-1.75,3.13-1.52h0l.06,0C184.5,147.41,184.5,151.35,184.5,151.35Z"/><path class="cls-42" d="M184.5,151.35l-1.63,4.36-3.67,2.73-5.82-1.68-1.93-4.93.37-4.41h.09c.32,1.39,1.71,5.78,6.11,6.09s5.81-5.07,6.08-6.55l.06,0C184.5,147.41,184.5,151.35,184.5,151.35Z"/><path class="cls-4" d="M171.8,147.41s.94,6.14,6.19,6.5,6.14-6.93,6.14-6.93,7.61,2.49,9.38,6.94,3.1,8,3.1,8-.57,1-1.21,1.1a46,46,0,0,0-5,3.1s-.05,8.5.42,9,.32,2.78-1.1,2.68-11.23-2.31-19.62-.47c0,0-3.51,1.26-3.41-.79s.26-10.07.26-10.07-5.3-2.31-5.61-2.31-1.1-.42-.26-1.78,1.89-6,1.89-6S165.09,149.69,171.8,147.41Z"/><path class="cls-42" d="M188.12,158.43s1.57,1.15,1.21,2S188.12,158.43,188.12,158.43Z"/><path class="cls-42" d="M190.42,159.54a2.84,2.84,0,0,0,0,1.57"/><path class="cls-42" d="M191.47,162.42s.21,1.42-.42,1.57"/><path class="cls-42" d="M170.07,158.07s-2.94,2.56-1.94,3.57"/><path class="cls-42" d="M168.23,164.26s0,2.68.76,2.89"/><path class="cls-42" d="M176.68,173.23s2-1.36,2.52-1.31"/><path class="cls-42" d="M178.67,174.65s2.15-1.52,2.73-1.42"/><path class="cls-43" d="M225.46,199.05s17.17.81,25.7.31l-.19,2.25-15.1,2-4.47-1.38Z"/><path class="cls-44" d="M251.17,199.36l-.19,2.25-15.1,2-4.47-1.38-6-3.18,1,0h0c3.72.16,17.13.69,24.5.28Z"/><path class="cls-43" d="M257.11,231.38c-3.31,2-14.82.06-14.82.06l-3.19-11.37-3.56,11.57c-5.06,1.81-15.51-.81-15.51-.81l4.07-25,.7-3.45.66-3.31L231.9,201s1.94,1.31,10,.94,9.25-2.56,9.25-2.56c.36.1.69,1.36,1,2.91.49,2.27,1,5.19,1.59,6.15C254.8,210.06,257.11,231.38,257.11,231.38Z"/><path class="cls-45" d="M252.21,202.53a29.54,29.54,0,0,1-13.38,3.84c-1.53.19-14-3.76-14-3.76l.66-3.31,6.44,1.94s1.94,1.31,10,.94,9.25-2.56,9.25-2.56C251.53,199.72,251.87,201,252.21,202.53Z"/><path class="cls-45" d="M251.17,199.36l-.19,2.25-15.1,2-4.47-1.38-6-3.18,1,0h0l5.46,1.64s1.94,1.31,10,.94c6.34-.28,8.43-1.71,9-2.3Z"/><path class="cls-43" d="M252.21,202.28a29.54,29.54,0,0,1-13.38,3.84c-1.53.19-14-3.76-14-3.76l.66-3.31L231.9,201s1.94,1.31,10,.94,9.25-2.56,9.25-2.56C251.53,199.47,251.87,200.72,252.21,202.28Z"/><circle class="cls-45" cx="240.04" cy="204.86" r="0.66"/><circle class="cls-46" cx="240.04" cy="204.61" r="0.66"/><path class="cls-45" d="M223.25,216.37s1.16,3.44,2,3.38S223.25,216.37,223.25,216.37Z"/><path class="cls-45" d="M222.5,219.75s.72,2.06,1.47,2.41"/><path class="cls-45" d="M222.5,221.91a9.08,9.08,0,0,0,1.81,1.78"/><path class="cls-45" d="M253,208.9s1.06,1.59,0,1.94"/><path class="cls-45" d="M253.52,211.49c-1.23-1.46-.47,2-.47,2S253.84,211.87,253.52,211.49Z"/><path class="cls-45" d="M254.14,213.28s-1.88,2.78-1.5,3.1"/><path class="cls-45" d="M229.32,209a13.69,13.69,0,0,1-4.83-1.1l.1-.23s4.64,2,7.12.52a3.53,3.53,0,0,0,1.57-3l.25,0a3.77,3.77,0,0,1-1.69,3.18A4.83,4.83,0,0,1,229.32,209Z"/><path class="cls-43" d="M229.32,208.71a13.69,13.69,0,0,1-4.83-1.1l.1-.23s4.64,2,7.12.52a3.53,3.53,0,0,0,1.57-3l.25,0a3.77,3.77,0,0,1-1.69,3.18A4.83,4.83,0,0,1,229.32,208.71Z"/><path class="cls-45" d="M248.2,209.15a3.89,3.89,0,0,1-1.71-.37,4.38,4.38,0,0,1-2.18-3.19l.25,0a4.17,4.17,0,0,0,2,3c1.55.75,3.76.28,6.54-1.42l.13.21A10.34,10.34,0,0,1,248.2,209.15Z"/><path class="cls-43" d="M248.2,208.9a3.89,3.89,0,0,1-1.71-.37,4.38,4.38,0,0,1-2.18-3.19l.25,0a4.17,4.17,0,0,0,2,3c1.55.75,3.76.28,6.54-1.42l.13.21A10.34,10.34,0,0,1,248.2,208.9Z"/><path class="cls-12" d="M173.25,199.44s3.23,4.51,5.42,4.07,2.41-.92,4.36-4.07l1.6,3.68-1.88,4.55-2.23,2.89-4.72-.74-1.53-5.16Z"/><path class="cls-38" d="M184.62,203.11l-1.88,4.55-2.23,2.89-4.72-.74-1.53-5.16-1-5.2s.28.39.73.93c1.08,1.29,3.14,3.44,4.69,3.13,2.16-.43,2.4-.91,4.28-3.94l.08-.13Z"/><path class="cls-5" d="M184.62,203.11l-1.88,4.55-2.23,2.89-4.72-.74-1.53-5.16-1-5.2s.28.39.73.93c.71,2.27,2.22,5.92,4.69,5.89,2.79,0,3.91-4.65,4.28-6.69l.08-.13Z"/><path class="cls-47" d="M171.54,199.3s-1.09-.13-.53,1.23,1.62,5.82,1.09,6.73-.26,3.41-2.54,3.89l.65,2.58a57.4,57.4,0,0,1-.13,6.52,34.55,34.55,0,0,0-.22,5.9c.09.48,0,3.63-.3,3.76a1.2,1.2,0,0,0,.57,1.92c1.14.26,6,.4,6.87.66a63.47,63.47,0,0,0,7.08,0s2.62-.35,3.28-.57.79-.74.57-1.75-1.23-8.31-1-9.23.26-9.88.26-9.88a2.52,2.52,0,0,1-1.71-2.23c0-1.66-.66-6.12.7-8.92,0,0-1.09-.75-1.27-.62a7,7,0,0,1-1.83-.35s-.85,7.61-4.42,7.65-5.16-7.65-5.16-7.65S173.56,198.25,171.54,199.3Z"/><path class="cls-5" d="M176.7,223.71s.74,1.79,2,2.06S176.7,223.71,176.7,223.71Z"/><path class="cls-5" d="M175.57,225.11s2.38,1.92,2.27,2.32"/><path class="cls-5" d="M170.8,213.73s1.88,1.27,1.88,2.19"/><path class="cls-5" d="M172.07,217.71a10.25,10.25,0,0,0-.87-2.23"/><path class="cls-5" d="M171.19,218.41a16.37,16.37,0,0,1,.87,2"/><path class="cls-5" d="M186.46,215.22s-2.45.74-2.23,1.66"/><path class="cls-5" d="M184.21,223.71s3.21-3.72,2.24-3.63S184.21,223.71,184.21,223.71Z"/><g class="cls-48"><path class="cls-49" d="M185.49,208.84c0-.77-.14-2.13-.16-3.65,0,1.75.16,3.36.16,4.22a2.5,2.5,0,0,0,1.71,2.23v-.57A2.51,2.51,0,0,1,185.49,208.84Z"/><path class="cls-49" d="M187.94,230.75a4.43,4.43,0,0,1,.08.45,2.84,2.84,0,0,0-.08-1c-.19-.85-.95-6.33-1-8.47A81.07,81.07,0,0,0,187.94,230.75Z"/><path class="cls-49" d="M169.84,225.08a25.53,25.53,0,0,1,.26-4.26,24.73,24.73,0,0,0,.16-3.86,19.64,19.64,0,0,1-.16,3.29A30.52,30.52,0,0,0,169.84,225.08Z"/><path class="cls-49" d="M171.54,199.87c2-1,2-.35,2-.35s1.57,7.7,5.16,7.65,4.43-7.65,4.43-7.65a7.13,7.13,0,0,0,1.84.35c.17-.13.76.28,1.08.49.06-.15.12-.3.19-.44s-1.09-.75-1.27-.62a7.11,7.11,0,0,1-1.84-.35s-.85,7.61-4.42,7.65-5.16-7.65-5.16-7.65,0-.7-2,.35c0,0-.89-.1-.64.88C171.06,199.81,171.54,199.87,171.54,199.87Z"/><path class="cls-49" d="M169.57,230.49c.28-.11.36-2.05.34-3.13,0,1.08-.11,2.47-.34,2.56s-.34.57-.25,1C169.37,230.71,169.46,230.53,169.57,230.49Z"/><path class="cls-49" d="M172.11,207.83a2.44,2.44,0,0,0,.13-1.17,1.5,1.5,0,0,1-.13.6c-.53.92-.26,3.41-2.54,3.89l.14.53C171.84,211.14,171.6,208.73,172.11,207.83Z"/></g><path class="cls-12" d="M184.75,252.78c-1.07,2-12,0-12,0l0-.2.22-1.52H184.5l.22,1.51Z"/><path class="cls-5" d="M184.75,252.78c-1.07,2-12,0-12,0l0-.2c.52,0,8.41-.19,11.94,0Z"/><path class="cls-12" d="M172.76,252.78h0s-2,.49-5,8.7-4.11,18.83-4.11,18.83-1.71,2.89,5.57,3.08c0,0-.59,1.91,3.52,1.61s3.52-.29,3.52-.29,2.64-1.66,3.82-1.37a6.18,6.18,0,0,1,3.18,1.47c1.27,1.07,5.33.64,5.38-.19a7.67,7.67,0,0,0,0-1.23s6.21.39,5-4.11-2.15-11.89-2.15-11.89-3.18-14.43-6.8-14.62S172.76,252.78,172.76,252.78Z"/><rect class="cls-5" x="157.88" y="270.84" width="25.05" height="0.2" transform="translate(-115.04 415.73) rotate(-84.73)"/><rect class="cls-5" x="163.19" y="271.47" width="26.26" height="0.2" transform="translate(-95.92 446.85) rotate(-89.78)"/><rect class="cls-5" x="182.71" y="258.43" width="0.2" height="26.38" transform="translate(-9.97 6.98) rotate(-2.13)"/><path class="cls-5" d="M188.56,283.4a126.08,126.08,0,0,0-2.93-25.4l.19,0a126.87,126.87,0,0,1,2.94,25.46Z"/><path class="cls-5" d="M173.1,254.24s-.34.2,0,1.14"/><path class="cls-5" d="M174.09,254.24s-.93.59,0,1.57"/><path class="cls-5" d="M182.79,254.24s1.27,1.22,1,1.57"/><path class="cls-5" d="M183.81,254s.2,1.47.93,1.86"/><path class="cls-50" d="M235.73,251.61s4.8-1.91,6.87.42-1.42,5.17-1.42,5.17l-1.47,2.93-3.45-.38-.81-4Z"/><path class="cls-51" d="M241.18,257.18l-1.47,2.93-3.45-.37-.81-4,.28-4.09.08,0a7.86,7.86,0,0,0,2.45,4.83l0,0,1-.08c1.9-1,2.9-3.53,3.22-4.47l.12.12C244.68,254.33,241.18,257.18,241.18,257.18Z"/><path class="cls-7" d="M249.56,268.33s-1.06,13.47-.77,15.1-.61,1.75-.61,1.75-3.83.85-4.55.28a4.35,4.35,0,0,0-2-.68s-2.84.65-4.11.16a9.37,9.37,0,0,0-3.38-.28s-1.63,1-2.08.77-1-.12-2.32-.49-2-.69-1.34-2.93.09-9.32,0-10.17a43.37,43.37,0,0,0-1-5.4c-.57-2.47,1-2,1-2,3.62-1.87,2.12-5.53,1.55-7.16s.32-1.71.77-1.71,2.16-1.46,2.16-1.46l.69-.62,2.12-1.9c.53,3.56,2.23,5,2.52,5.27l0,0,1-.08c2.36-1.3,3.33-4.83,3.33-4.83a6.17,6.17,0,0,0,1.63,1.55,27.86,27.86,0,0,0,2.89,1.79c1.71,1,.45,2,.45,2-2.08,7.08.85,7.39.85,7.39C250.58,265.1,249.56,268.33,249.56,268.33Z"/><path class="cls-51" d="M233.57,255.64s-.61.33-.61.69"/><path class="cls-51" d="M233.94,256.33s-.81.85-.67,1.1"/><path class="cls-51" d="M233.94,257.43s-.61.65-.37,1"/><path class="cls-51" d="M238,257.39l-2.56,2.47a11.23,11.23,0,0,0-2.08-5.87l2.12-1.9C236,255.68,237.73,257.17,238,257.39Z"/><path class="cls-7" d="M238.25,256.91l-2.56,2.47a11.25,11.25,0,0,0-2.07-5.87l2.12-1.9C236.26,255.19,238,256.68,238.25,256.91Z"/><path class="cls-51" d="M244.47,254c-1,1.6-2.93,5.82-2.93,5.82l-2-2.52c2.36-1.3,3.33-4.83,3.33-4.83A6.39,6.39,0,0,0,244.47,254Z"/><path class="cls-7" d="M244.22,253.56c-1,1.6-2.93,5.82-2.93,5.82l-2-2.52c2.36-1.3,3.33-4.83,3.33-4.83A6.44,6.44,0,0,0,244.22,253.56Z"/><path class="cls-51" d="M242.73,279.64a24.94,24.94,0,0,1-.69,3.91"/><path class="cls-51" d="M246.31,280.29a13.64,13.64,0,0,1,.28,3.26"/><path class="cls-51" d="M235.89,280.46s-.45,2.48,0,2.77"/><path class="cls-51" d="M233.25,280.09a30.94,30.94,0,0,0-.28,3.46"/><path class="cls-51" d="M246.92,265.81s-1.14.9-1.06,1.14"/><path class="cls-51" d="M247.73,266.38s-2.18,1.83-1.09,1.63S247.73,266.38,247.73,266.38Z"/><path class="cls-4" d="M209.94,235.19a4.91,4.91,0,1,1-4.91-4.91,4.91,4.91,0,0,1,4.91,4.91Zm-5.48,2.6,3.66-3.64a.32.32,0,0,0,0-.45h0l-.46-.43a.32.32,0,0,0-.45,0h0l-3,3-1.39-1.39a.31.31,0,0,0-.44,0h0l-.45.45a.32.32,0,0,0,0,.45l2.06,2.06a.32.32,0,0,0,.45,0Z"/><path class="cls-4" d="M209.94,288.82a4.91,4.91,0,1,1-4.91-4.91,4.91,4.91,0,0,1,4.91,4.91Zm-5.48,2.6,3.66-3.64a.32.32,0,0,0,0-.45h0l-.45-.45a.32.32,0,0,0-.45,0h0l-3,3-1.39-1.39a.31.31,0,0,0-.44,0h0l-.45.45a.32.32,0,0,0,0,.45l2.06,2.06a.32.32,0,0,0,.45,0h0Z"/><path class="cls-52" d="M294.48,122.52a.92.92,0,0,1-.78-.42l-2-3.11a1.29,1.29,0,0,0-1.09-.59h-9.93a3,3,0,0,1-3-3v-7.31h-7.12a3.34,3.34,0,0,0-3.33,3.33v14.71a3.34,3.34,0,0,0,3.33,3.33h3a1,1,0,0,1,.82.44l2,3.11a1.25,1.25,0,0,0,2.1,0l2-3.11a1,1,0,0,1,.82-.44h9.93a3.34,3.34,0,0,0,3.33-3.33v-3.6h-.07Z"/><path class="cls-53" d="M284.16,127.07V121a2.54,2.54,0,0,1,1.91-2.45v-.17h-5.43a3,3,0,0,1-3-3v-7.32h-7.12a3.34,3.34,0,0,0-3.33,3.33v14.71a3.34,3.34,0,0,0,3.33,3.33h3a1,1,0,0,1,.82.44l2,3.11a1.25,1.25,0,0,0,2.1,0l2-3.11a1,1,0,0,1,.82-.44h4.55a2.54,2.54,0,0,1-1.68-2.38Z"/><path class="cls-35" d="M280.64,97.35h20.7a3.34,3.34,0,0,1,3.33,3.33v14.71a3.34,3.34,0,0,1-3.33,3.33h-3a1,1,0,0,0-.82.44l-2,3.11a1.25,1.25,0,0,1-2.1,0l-2-3.11a1,1,0,0,0-.82-.44h-9.93a3.34,3.34,0,0,1-3.33-3.33V100.68a3.34,3.34,0,0,1,3.33-3.33Z"/><path class="cls-52" d="M286.33,115.39V100.68a3.34,3.34,0,0,1,3.33-3.33h-9a3.34,3.34,0,0,0-3.33,3.33v14.71a3.34,3.34,0,0,0,3.33,3.33h9A3.34,3.34,0,0,1,286.33,115.39Z"/><path class="cls-54" d="M298.41,104.48H287.9a1.6,1.6,0,1,1,0-3.19h10.52a1.6,1.6,0,0,1,0,3.19Z"/><path class="cls-36" d="M298.41,109.63H283.57a1.6,1.6,0,1,1,0-3.19h14.84a1.6,1.6,0,0,1,0,3.19Z"/><path class="cls-36" d="M298.41,114.79H283.57a1.6,1.6,0,1,1,0-3.19h14.84a1.6,1.6,0,0,1,0,3.19Z"/><path class="cls-55" d="M104.61,94.25h30.77a5,5,0,0,1,4.94,4.94v21.87a5,5,0,0,1-4.94,4.94H131a1.46,1.46,0,0,0-1.22.66l-3,4.62a1.86,1.86,0,0,1-3.12,0l-3-4.62a1.46,1.46,0,0,0-1.22-.66H104.61a5,5,0,0,1-4.94-4.94V99.2a5,5,0,0,1,4.94-4.94Z"/><path class="cls-29" d="M113.07,121.06V99.2A5,5,0,0,1,118,94.25h-13.4a5,5,0,0,0-4.94,4.94v21.87a5,5,0,0,0,4.94,4.94H118A5,5,0,0,1,113.07,121.06Z"/><path class="cls-56" d="M131,104.84H115.39a2.37,2.37,0,1,1,0-4.75H131a2.37,2.37,0,0,1,0,4.75Z"/><path class="cls-56" d="M131,112.5H109a2.37,2.37,0,1,1,0-4.75H131a2.37,2.37,0,0,1,0,4.75Z"/><path class="cls-56" d="M131,120.16H109a2.37,2.37,0,1,1,0-4.75H131a2.37,2.37,0,0,1,0,4.75Z"/></svg>