<svg id="Layer_1" data-name="Layer 1" xmlns="http://www.w3.org/2000/svg" xmlns:xlink="http://www.w3.org/1999/xlink" viewBox="0 0 755.58 972"><defs><style>.cls-1{fill:url(#linear-gradient);}.cls-2{fill:url(#linear-gradient-2);}.cls-3{fill:url(#linear-gradient-3);}.cls-4{fill:#c8f29c;}.cls-5{fill:#e8b180;}.cls-6{fill:#fff;}</style><linearGradient id="linear-gradient" x1="647.15" y1="361.75" x2="897.15" y2="361.75" gradientUnits="userSpaceOnUse"><stop offset="0" stop-color="#8dc63f"/><stop offset="0.22" stop-color="#6dbb40"/><stop offset="1" stop-color="#009444"/></linearGradient><linearGradient id="linear-gradient-2" x1="171.95" y1="361.75" x2="421.96" y2="361.75" xlink:href="#linear-gradient"/><linearGradient id="linear-gradient-3" x1="311.07" y1="506.03" x2="769.17" y2="506.03" xlink:href="#linear-gradient"/></defs><title>clothing and shoes</title><path class="cls-1" d="M897.15,564.14l-84.93,33L647.15,172.49l86.74-46.14Z" transform="translate(-156.77 -20.03)"/><path class="cls-2" d="M172,564.14l84.93,33L422,172.49,339,126.34Z" transform="translate(-156.77 -20.03)"/><path class="cls-3" d="M767.93,976.84s15.19-303.75-60.75-486l30.37-364.5L658.89,96q-2.21-3.42-4.69-6.73c-25.36-33.82-68-54-114.07-54S451.4,55.42,426,89.24q-2.48,3.31-4.69,6.73l-78.67,30.37,30.37,364.5c-75.94,182.25-60.75,486-60.75,486Z" transform="translate(-156.77 -20.03)"/><path class="cls-4" d="M764.26,976.84H308.64s-15.19-303.75,60.75-486H703.51C779.45,673.09,764.26,976.84,764.26,976.84Z" transform="translate(-156.77 -20.03)"/><path class="cls-4" d="M713.64,430.09H369.39l5.06,60.75H708.58Z" transform="translate(-156.77 -20.03)"/><path class="cls-5" d="M536.45,35.22h0Z" transform="translate(-156.77 -20.03)"/><path class="cls-6" d="M481.22,119a60.09,60.09,0,0,1,55.23-83.76c-.57,0-1.14,0-1.7,0-45.43.47-87.33,20.6-112.37,54-25.36,33.81-29.67,76.24-11.52,113.49l15.92,45.11H475.7l-23.76,71.28,38.95,110.34h123.4Z" transform="translate(-156.77 -20.03)"/><path class="cls-6" d="M650.53,89.25c-25-33.41-66.94-53.54-112.37-54A60.1,60.1,0,0,1,591.68,119L536.45,247.84,584.94,361l29.68-60.89L597.2,247.84h42.87l22-45.11C680.2,165.49,675.89,123.06,650.53,89.25Z" transform="translate(-156.77 -20.03)"/><path class="cls-4" d="M582,414.91h60.75V566.78a30.37,30.37,0,0,1-60.75,0V414.91Z" transform="translate(-156.77 -20.03)"/><path class="cls-4" d="M521.27,551.59v121.5a30.37,30.37,0,0,0,60.75,0V490.84H521.27Z" transform="translate(-156.77 -20.03)"/><g id="Outline"><path d="M521.27,536.41a15.19,15.19,0,0,0-15.19,15.19v121.5a45.56,45.56,0,0,0,91.12,0V642.72a15.19,15.19,0,0,0-30.37,0v30.37a15.19,15.19,0,0,1-30.37,0V551.59A15.19,15.19,0,0,0,521.27,536.41Z" transform="translate(-156.77 -20.03)"/><path d="M911.39,558.83,748.13,121c0-.13-.11-.25-.16-.38s-.21-.51-.33-.76-.22-.46-.34-.69-.23-.42-.36-.63-.29-.48-.45-.71-.25-.35-.38-.52-.36-.48-.55-.71-.26-.29-.39-.44-.41-.46-.63-.68-.29-.27-.44-.4-.45-.42-.69-.61-.42-.31-.62-.46-.51-.38-.78-.54-.74-.45-1.12-.65l-.45-.21c-.32-.15-.64-.31-1-.44l-.1,0L665.13,83.5q-1.2-1.71-2.45-3.38C634.88,43,588.38,20.58,538.32,20.05h-.16c-.23,0-.45,0-.67,0s-.68-.05-1-.05c-.63,0-1.26,0-1.84,0h-.3c-50,.61-96.33,23.05-124.08,60.08q-1.26,1.68-2.46,3.39l-74.23,28.67-.07,0c-.35.14-.69.3-1,.46l-.42.19c-.28.15-.54.31-.81.47a15.14,15.14,0,0,0-2.6,2l-.22.19c-.26.25-.49.51-.73.78l-.3.33c-.2.24-.39.5-.57.76s-.24.32-.35.48-.29.46-.43.69-.27.45-.38.68-.19.38-.29.57-.29.63-.42.95l-.09.2-36.29,95a15.19,15.19,0,1,0,28.38,10.84l12.49-32.71L354,488.45c-17.41,42.75-31.42,95.24-41.63,156A15.19,15.19,0,0,0,324.78,662a14.19,14.19,0,0,0,2.52.23,15.15,15.15,0,0,0,15-12.68c9.33-55.69,21.9-103.9,37.36-143.48H566.83v60.75a45.56,45.56,0,1,0,91.12,0V506h35.31c43.78,111.85,54.12,268.8,56.35,353.85a15.17,15.17,0,0,0,15.17,14.77h.42A15.2,15.2,0,0,0,780,859.06a1670.58,1670.58,0,0,0-14.39-182.23C755.16,602.36,739.48,539,719,488.47l12.36-148.25A15.19,15.19,0,0,0,701,337.72h0l-6.43,77.19H658a15.19,15.19,0,0,0-15.19-15.19H618.06l-16.43-38.33,26.63-54.65a15.19,15.19,0,0,0,.76-11.46L618.28,263h21.8a15.19,15.19,0,0,0,13.65-8.54l22-45.11a121.52,121.52,0,0,0,8.35-86l33.75,13-6.69,80.22A15.15,15.15,0,0,0,724.94,233H725c.42,0,.85.06,1.27.06a15.16,15.16,0,0,0,15.11-13.92l2-23.9L877.69,555.41,820.88,577.5,767.34,439.78a15.19,15.19,0,0,0-28.31,11h0l59,151.87a15.19,15.19,0,0,0,19.66,8.65h0l84.93-33a15.19,15.19,0,0,0,8.73-19.46ZM658,445.28h34.12l-2.53,30.37H658ZM498.63,71.12a44.27,44.27,0,0,1,36.6-20.69h1.22c.23,0,.45,0,.68,0s.4,0,.61,0a44.91,44.91,0,0,1,40,62.58l-41.26,96.29L495.19,113a44.27,44.27,0,0,1,3.45-41.88Zm68.19,404.54H383.36l-2.53-30.37h186ZM582,399.72a15.19,15.19,0,0,0-15.19,15.19H378.3L355.09,136.42l33.76-13a121.43,121.43,0,0,0,8,85.21l15.65,44.32A15.19,15.19,0,0,0,426.78,263h27.85l-17.1,51.3a15.17,15.17,0,0,0,.09,9.86l17.73,50.21a15.19,15.19,0,0,0,28.72-9.89l-.08-.23L468,319l22.12-66.34a15.19,15.19,0,0,0-14.41-20H437.52l-12.35-35a15.19,15.19,0,0,0-.67-1.59c-15.61-32-11.86-68.56,10-97.73a113.72,113.72,0,0,1,31-28.19A75.18,75.18,0,0,0,467.27,125L585,399.72Zm26,30.37h19.58V566.78a15.19,15.19,0,1,1-30.37,0V430.09Zm40.4-234-17.82,36.57H597.2a15.19,15.19,0,0,0-14.41,20L598.25,299l-12.42,25.49L553,247.84,605.63,125a75.2,75.2,0,0,0,1.78-54.78,113.78,113.78,0,0,1,31,28.18C660.26,127.53,664,164.06,648.4,196.08Z" transform="translate(-156.77 -20.03)"/><path d="M275.68,292.32a15,15,0,0,0,5.41,1,15.18,15.18,0,0,0,5.42-29.37h0a15.19,15.19,0,1,0-10.82,28.38h0Z" transform="translate(-156.77 -20.03)"/><path d="M321.42,431.12a15.2,15.2,0,0,0-19.65,8.66L248.23,577.49l-56.71-22L273.62,340.3a15.19,15.19,0,1,0-28-11.8q-.2.48-.37,1l-87.5,229.25a15.22,15.22,0,0,0,8.69,19.55l84.94,33A15.2,15.2,0,0,0,271,602.66l59-151.87a15.2,15.2,0,0,0-8.66-19.67Z" transform="translate(-156.77 -20.03)"/><path d="M722.48,263.3a15.19,15.19,0,1,0-3.25,30.2l.73.06c.42,0,.85.06,1.27.06a15.19,15.19,0,0,0,11.58-25,15,15,0,0,0-10.33-5.31Z" transform="translate(-156.77 -20.03)"/><path d="M765.56,905.08h-.08a15.19,15.19,0,0,0-15.17,15.11c-.08,14.35-.28,28.15-.66,41l0,.42H718.7V855.34a15.19,15.19,0,0,0-30.37,0V961.65H658V642.72a15.19,15.19,0,0,0-30.37,0V961.65H597.2V794.59a15.19,15.19,0,0,0-30.37,0V961.65H323.28c-.32-10.59-.68-27.7-.68-49.28,0-33.62.93-85.83,5.43-143.52a15.21,15.21,0,0,0-14-16.33c-.4,0-.8,0-1.2,0a15.27,15.27,0,0,0-15.13,14v0c-3.66,47.06-5.51,96.14-5.51,145.88,0,38.27,1.12,62.55,1.25,65.19v0A15.17,15.17,0,0,0,308.64,992H764.26a15.17,15.17,0,0,0,15.17-14.43c0-.15,1.1-21.83,1.23-57.28a15.17,15.17,0,0,0-15.09-15.24h0Z" transform="translate(-156.77 -20.03)"/><path d="M317,722.26c.61.06,1.2.1,1.8.1A15.19,15.19,0,0,0,333.83,709v0a15.17,15.17,0,0,0-13.28-16.86h0a14.61,14.61,0,0,0-1.8-.11A15.19,15.19,0,0,0,317,722.26Z" transform="translate(-156.77 -20.03)"/></g></svg>