<?xml version="1.0" encoding="iso-8859-1"?>
<!-- Generator: Adobe Illustrator 19.0.0, SVG Export Plug-In . SVG Version: 6.00 Build 0)  -->
<svg version="1.1" id="Capa_1" xmlns="http://www.w3.org/2000/svg" xmlns:xlink="http://www.w3.org/1999/xlink" x="0px" y="0px"
	 viewBox="0 0 512 512" style="enable-background:new 0 0 512 512;" xml:space="preserve">
<circle style="fill:#00C7FF;" cx="256" cy="256" r="256"/>
<path style="fill:#0093C4;" d="M281.401,510.747c110.373-10.873,200.153-91.838,224.228-197.781L385.745,193.082l-53.003-20.58
	l-49.149-49.146L82.773,312.119L281.401,510.747z"/>
<path style="fill:#D1E8FF;" d="M405.386,242.915c0.02-0.688,0.052-1.372,0.052-2.064c0-38.054-30.848-68.902-68.902-68.902
	c-9.01,0-17.608,1.748-25.497,4.893c-5.073-32.557-26.208-59.784-55.039-73.359l-26.233,133.431L256,330.201h149.1
	c24.107,0,43.65-19.543,43.65-43.65C448.75,262.54,429.36,243.07,405.386,242.915z"/>
<path style="fill:#F5F5FF;" d="M214.393,94.198c-54.027,0-97.824,43.797-97.824,97.824c0,3.151,0.163,6.262,0.454,9.336
	c-30.539,5.283-53.773,31.888-53.773,63.936c0,35.847,29.06,64.907,64.907,64.907H256V103.483
	C243.372,97.538,229.275,94.198,214.393,94.198z"/>
<polygon style="fill:#FF0099;" points="256,198.176 240.929,297.411 256,417.802 286.445,417.802 286.445,282.176 316.189,282.176 
	"/>
<polygon style="fill:#FF68A5;" points="195.811,282.176 225.555,282.176 225.555,417.802 256,417.802 256,198.176 "/>
<g>
</g>
<g>
</g>
<g>
</g>
<g>
</g>
<g>
</g>
<g>
</g>
<g>
</g>
<g>
</g>
<g>
</g>
<g>
</g>
<g>
</g>
<g>
</g>
<g>
</g>
<g>
</g>
<g>
</g>
</svg>
