<svg xmlns="http://www.w3.org/2000/svg" width="32" height="26.667" viewBox="0 0 32 26.667">
  <path id="Path_46" data-name="Path 46" d="M29.333,28.667H2.667A2.668,2.668,0,0,1,0,26V10A2.668,2.668,0,0,1,2.667,7.333H4.835l.1.377A6.323,6.323,0,0,0,6.205,10H3.333a.667.667,0,0,0-.667.667V18H29.333V10.667A.667.667,0,0,0,28.667,10H25.795a6.3,6.3,0,0,0,1.372-2.667h2.167A2.668,2.668,0,0,1,32,10V26A2.668,2.668,0,0,1,29.333,28.667ZM2.667,22v3.333A.667.667,0,0,0,3.333,26H28.667a.667.667,0,0,0,.667-.667V22Zm11.881-6.667H10.667A46.147,46.147,0,0,1,13.333,10c-.863,0-2.1.009-2.667,0a4.025,4.025,0,0,1-4-4,3.965,3.965,0,0,1,4-4c2,.008,3.752,1.163,5.333,3.084C17.581,3.163,19.335,2.008,21.333,2a3.964,3.964,0,0,1,4,4,4.025,4.025,0,0,1-4,4c-.571.009-1.8,0-2.667,0a40.612,40.612,0,0,1,2.667,5.333H17.452A18.9,18.9,0,0,0,16,10.821,20.786,20.786,0,0,0,14.548,15.333Zm-3.4-10.664a1.335,1.335,0,1,0,.16,2.664c.316.016,2.98,0,2.98,0C12.9,5.413,12.257,4.669,11.144,4.669Zm9.695,0a1.335,1.335,0,1,1-.16,2.664c-.316.016-2.963,0-2.963,0C19.1,5.413,19.725,4.669,20.839,4.669Z" transform="translate(0 -2)" fill="#888889"/>
</svg>
