<?xml version="1.0" encoding="utf-8"?>
<!-- Generator: Adobe Illustrator 21.1.0, SVG Export Plug-In . SVG Version: 6.00 Build 0)  -->
<svg version="1.1" id="Layer_1" xmlns="http://www.w3.org/2000/svg" xmlns:xlink="http://www.w3.org/1999/xlink" x="0px" y="0px"
	 viewBox="0 0 464 464" style="enable-background:new 0 0 464 464;" xml:space="preserve">
<style type="text/css">
	.st0{opacity:0.11;fill:#3BB54A;}
	.st1{fill:#0E9347;}
	.st2{fill:#3BB54A;}
	.st3{fill:#0D8944;}
	.st4{fill:#FFCA5D;}
	.st5{fill:#F6B545;}
	.st6{fill:#FFCB5B;}
	.st7{fill:#FFE27A;}
	.st8{fill:#F19920;}
	.st9{fill:#E78825;}
	.st10{fill:#FFFFFF;}
</style>
<circle class="st0" cx="232" cy="234" r="226"/>
<g>
	<g>
		<path class="st1" d="M330.2,302.4H118.9c-5.8,0-10.6-4.8-10.6-10.6V175.5c0-5.8,4.8-10.6,10.6-10.6h211.4
			c5.8,0,10.6,4.8,10.6,10.6v116.2C340.8,297.6,336,302.4,330.2,302.4z"/>
		<path class="st2" d="M309.1,291.8H140c0-11.6-9.5-21.1-21.1-21.1v-74c11.6,0,21.1-9.5,21.1-21.1h169.1c0,11.6,9.5,21.1,21.1,21.1
			v74C318.6,270.6,309.1,280.2,309.1,291.8z"/>
		<ellipse class="st1" cx="224.5" cy="233.7" rx="42.3" ry="47.6"/>
		<circle class="st1" cx="161.1" cy="233.7" r="10.6"/>
		<circle class="st1" cx="287.9" cy="233.7" r="10.6"/>
	</g>
	<g>
		<path id="XMLID_148_" class="st5" d="M328.5,330.7c-15.6,0-28.4-12.7-28.4-28.4s12.7-28.4,28.4-28.4c15.6,0,28.4,12.7,28.4,28.4
			S344.1,330.7,328.5,330.7"/>
		<path id="XMLID_147_" class="st10" d="M328.5,282.1c-0.7,0-1.4-0.6-1.4-1.4V278c0-0.7,0.6-1.4,1.4-1.4s1.4,0.6,1.4,1.4v2.7
			C329.8,281.5,329.2,282.1,328.5,282.1"/>
		<path id="XMLID_146_" class="st10" d="M328.5,328c-0.7,0-1.4-0.6-1.4-1.4V324c0-0.7,0.6-1.4,1.4-1.4s1.4,0.6,1.4,1.4v2.7
			C329.8,327.4,329.2,328,328.5,328"/>
		<path id="XMLID_145_" class="st10" d="M352.8,303.7h-2.7c-0.7,0-1.4-0.6-1.4-1.4s0.6-1.4,1.4-1.4h2.7c0.7,0,1.4,0.6,1.4,1.4
			S353.6,303.7,352.8,303.7"/>
		<path id="XMLID_144_" class="st10" d="M306.9,303.7h-2.7c-0.7,0-1.4-0.6-1.4-1.4s0.6-1.4,1.4-1.4h2.7c0.7,0,1.4,0.6,1.4,1.4
			S307.6,303.7,306.9,303.7"/>
		<path id="XMLID_141_" class="st10" d="M328.5,306.4c-3,0-5.4-2.4-5.4-5.4s2.4-5.4,5.4-5.4s5.4,2.4,5.4,5.4
			S331.5,306.4,328.5,306.4 M328.5,298.3c-1.5,0-2.7,1.2-2.7,2.7c0,1.5,1.2,2.7,2.7,2.7c1.5,0,2.7-1.2,2.7-2.7
			C331.2,299.5,330,298.3,328.5,298.3"/>
		<path id="XMLID_140_" class="st10" d="M328.5,298.3c-0.7,0-1.4-0.6-1.4-1.4v-8.1c0-0.7,0.6-1.4,1.4-1.4s1.4,0.6,1.4,1.4v8.1
			C329.8,297.7,329.2,298.3,328.5,298.3"/>
		<path id="XMLID_139_" class="st10" d="M313.6,317.2c-0.3,0-0.7-0.1-1-0.4c-0.5-0.5-0.5-1.4,0-1.9l12-12c0.5-0.5,1.4-0.5,1.9,0
			c0.5,0.5,0.5,1.4,0,1.9l-12,12C314.3,317.1,314,317.2,313.6,317.2"/>
		<path id="XMLID_138_" class="st8" d="M289.3,303.7c-0.7,0-1.4-0.6-1.4-1.4c0-22.4,18.2-40.5,40.5-40.5c10.5,0,20.4,4,28,11.2
			c0.5,0.5,0.6,1.4,0,1.9c-0.5,0.5-1.4,0.6-1.9,0c-7.1-6.7-16.3-10.5-26.1-10.5c-20.9,0-37.8,17-37.8,37.8
			C290.6,303.1,290,303.7,289.3,303.7"/>
		<path id="XMLID_137_" class="st8" d="M356.9,275.3h-12.2c-0.7,0-1.4-0.6-1.4-1.4s0.6-1.4,1.4-1.4h9.5v-9.5c0-0.7,0.6-1.4,1.4-1.4
			s1.4,0.6,1.4,1.4V275.3z"/>
		<path id="XMLID_105_" class="st8" d="M327.7,342.9c-0.7,0-1.3-0.6-1.3-1.4c0-0.7,0.6-1.3,1.4-1.3c0.7,0,1.3,0.6,1.3,1.4
			C329.1,342.3,328.5,342.9,327.7,342.9L327.7,342.9z M330.4,341.5c-0.1-0.7,0.5-1.4,1.2-1.5c0.7-0.1,1.4,0.5,1.5,1.2
			c0.1,0.7-0.5,1.4-1.2,1.4v0h-0.1C331.1,342.8,330.5,342.2,330.4,341.5 M323.5,342.6L323.5,342.6c-0.7-0.1-1.3-0.8-1.2-1.5
			c0.1-0.7,0.8-1.3,1.5-1.2c0.7,0.1,1.3,0.8,1.2,1.5c-0.1,0.7-0.7,1.2-1.3,1.2C323.7,342.6,323.5,342.6,323.5,342.6z M334.5,341.1
			c-0.1-0.7,0.4-1.4,1.1-1.6c0.7-0.1,1.4,0.3,1.6,1.1c0.1,0.7-0.4,1.4-1.1,1.6c-0.1,0-0.2,0-0.2,0
			C335.2,342.2,334.6,341.8,334.5,341.1 M319.4,341.9c-0.7-0.2-1.2-0.9-1-1.6c0.2-0.7,0.9-1.2,1.6-1c0.7,0.2,1.2,0.9,1,1.6
			c-0.1,0.6-0.7,1-1.3,1C319.6,341.9,319.5,341.9,319.4,341.9 M338.4,340.3c-0.2-0.7,0.2-1.5,0.9-1.7c0.7-0.2,1.5,0.2,1.7,0.9
			c0.2,0.7-0.2,1.5-0.9,1.7c-0.1,0-0.3,0.1-0.4,0.1C339.1,341.3,338.6,340.9,338.4,340.3 M315.4,340.7c-0.7-0.2-1.1-1-0.8-1.7
			c0.2-0.7,1-1.1,1.7-0.8c0.7,0.2,1.1,1,0.8,1.7c-0.2,0.6-0.7,0.9-1.3,0.9C315.7,340.8,315.5,340.8,315.4,340.7 M342.3,339.1
			c-0.3-0.7,0-1.5,0.7-1.8c0.7-0.3,1.5,0,1.8,0.7c0.3,0.7,0,1.5-0.7,1.8c-0.2,0.1-0.4,0.1-0.5,0.1
			C343,339.9,342.5,339.6,342.3,339.1 M311.5,339.2c-0.7-0.3-1-1.1-0.6-1.8c0.3-0.7,1.1-1,1.8-0.6c0.7,0.3,1,1.1,0.6,1.8
			c-0.2,0.5-0.7,0.8-1.2,0.8C311.8,339.3,311.7,339.2,311.5,339.2 M346,337.4c-0.4-0.6-0.1-1.5,0.5-1.8c0.6-0.4,1.5-0.1,1.8,0.5
			c0.4,0.6,0.1,1.5-0.5,1.8c-0.2,0.1-0.4,0.2-0.6,0.2C346.7,338.1,346.3,337.9,346,337.4 M307.8,337.2c-0.6-0.4-0.9-1.2-0.5-1.9
			c0.4-0.6,1.2-0.9,1.9-0.5c0.6,0.4,0.9,1.2,0.5,1.9c-0.3,0.4-0.7,0.7-1.2,0.7C308.2,337.4,308,337.3,307.8,337.2 M349.5,335.4
			c-0.4-0.6-0.3-1.5,0.3-1.9c0.6-0.4,1.5-0.3,1.9,0.4c0.4,0.6,0.3,1.5-0.3,1.9c-0.2,0.2-0.5,0.2-0.8,0.2
			C350.2,336,349.8,335.8,349.5,335.4 M304.3,334.9L304.3,334.9c-0.6-0.4-0.7-1.3-0.3-1.9c0.4-0.6,1.3-0.7,1.9-0.3s0.7,1.3,0.3,1.9
			c-0.3,0.4-0.7,0.5-1.1,0.5C304.8,335.1,304.5,335,304.3,334.9 M352.8,333.1c-0.5-0.6-0.4-1.4,0.1-1.9c0.6-0.5,1.4-0.4,1.9,0.1
			c0.5,0.6,0.4,1.4-0.1,1.9c-0.3,0.2-0.6,0.3-0.9,0.3C353.5,333.5,353.1,333.4,352.8,333.1 M301.1,332.2L301.1,332.2
			c-0.6-0.5-0.6-1.4-0.1-1.9c0.5-0.5,1.4-0.6,1.9-0.1v0c0.6,0.5,0.6,1.4,0.1,1.9c-0.3,0.3-0.6,0.4-1,0.4
			C301.6,332.5,301.3,332.4,301.1,332.2 M355.9,330.4c-0.5-0.5-0.6-1.4,0-1.9c0.5-0.5,1.4-0.6,1.9,0s0.6,1.4,0,1.9
			c-0.3,0.3-0.6,0.4-1,0.4C356.5,330.8,356.1,330.6,355.9,330.4 M298.1,329.2c-0.5-0.6-0.4-1.4,0.1-1.9c0.6-0.5,1.4-0.4,1.9,0.1
			c0.5,0.6,0.4,1.4-0.1,1.9c-0.3,0.2-0.6,0.3-0.9,0.3C298.8,329.7,298.4,329.5,298.1,329.2 M358.6,327.4c-0.6-0.5-0.7-1.3-0.2-1.9
			c0.5-0.6,1.3-0.7,1.9-0.2c0.6,0.5,0.7,1.3,0.2,1.9c-0.3,0.4-0.7,0.5-1.1,0.5C359.2,327.7,358.9,327.6,358.6,327.4 M295.5,325.9
			c-0.4-0.6-0.3-1.4,0.3-1.9c0.6-0.4,1.5-0.3,1.9,0.3c0.4,0.6,0.3,1.5-0.3,1.9c-0.2,0.2-0.5,0.3-0.8,0.3
			C296.2,326.5,295.8,326.3,295.5,325.9 M361.1,324.2c-0.6-0.4-0.8-1.2-0.4-1.9c0.4-0.6,1.2-0.8,1.9-0.4c0.6,0.4,0.8,1.2,0.4,1.9
			c-0.3,0.4-0.7,0.6-1.1,0.6C361.5,324.4,361.3,324.3,361.1,324.2 M293.3,322.4c-0.4-0.6-0.1-1.5,0.5-1.8c0.6-0.4,1.5-0.2,1.8,0.5h0
			c0.4,0.6,0.1,1.5-0.5,1.8c-0.2,0.1-0.4,0.2-0.7,0.2C294,323.1,293.5,322.8,293.3,322.4 M363.1,320.7c-0.7-0.3-0.9-1.1-0.6-1.8
			c0.3-0.7,1.1-0.9,1.8-0.6c0.7,0.3,0.9,1.1,0.6,1.8c-0.2,0.5-0.7,0.8-1.2,0.8C363.5,320.8,363.3,320.8,363.1,320.7 M291.4,318.7
			c-0.3-0.7,0-1.5,0.7-1.8c0.7-0.3,1.5,0,1.8,0.7c0.3,0.7,0,1.5-0.7,1.8c-0.2,0.1-0.4,0.1-0.5,0.1
			C292.1,319.5,291.6,319.2,291.4,318.7 M364.9,317c-0.7-0.3-1.1-1-0.8-1.7c0.2-0.7,1-1.1,1.7-0.8c0.7,0.3,1.1,1,0.8,1.7
			c-0.2,0.6-0.7,0.9-1.3,0.9C365.2,317.1,365,317.1,364.9,317 M289.9,314.7c-0.2-0.7,0.2-1.5,0.9-1.7c0.7-0.2,1.5,0.2,1.7,0.9
			c0.2,0.7-0.2,1.5-0.9,1.7c-0.1,0-0.3,0.1-0.4,0.1C290.6,315.7,290.1,315.3,289.9,314.7 M366.2,313.2c-0.7-0.2-1.2-0.9-1-1.6
			c0.2-0.7,0.9-1.2,1.6-1c0.7,0.2,1.2,0.9,1,1.7c-0.1,0.6-0.7,1-1.3,1C366.4,313.2,366.3,313.2,366.2,313.2 M288.8,310.7
			c-0.2-0.7,0.3-1.4,1-1.6c0.7-0.2,1.4,0.3,1.6,1c0.2,0.7-0.3,1.4-1,1.6c-0.1,0-0.2,0-0.3,0C289.5,311.7,288.9,311.3,288.8,310.7
			 M367.1,309.2c-0.7-0.1-1.3-0.8-1.1-1.5c0.1-0.7,0.8-1.3,1.5-1.2c0.7,0.1,1.3,0.8,1.1,1.5c-0.1,0.7-0.7,1.2-1.3,1.2
			C367.2,309.2,367.2,309.2,367.1,309.2 M288.2,306.5c-0.1-0.7,0.5-1.4,1.2-1.5c0.7-0.1,1.4,0.5,1.5,1.2c0.1,0.7-0.5,1.4-1.2,1.5
			h-0.1C288.8,307.7,288.2,307.2,288.2,306.5 M367.6,305.2c-0.7,0-1.3-0.7-1.3-1.4c0-0.7,0.7-1.3,1.4-1.3s1.3,0.6,1.3,1.4
			C369,304.6,368.4,305.2,367.6,305.2L367.6,305.2z M287.9,302.4c0-0.7,0.6-1.4,1.4-1.4c0.7,0,1.4,0.6,1.4,1.4s-0.6,1.4-1.4,1.4
			C288.5,303.7,287.9,303.1,287.9,302.4"/>
	</g>
</g>
</svg>
