<?xml version="1.0" encoding="utf-8"?>
<!-- Generator: Adobe Illustrator 23.1.1, SVG Export Plug-In . SVG Version: 6.00 Build 0)  -->
<svg version="1.1" id="Capa_1" xmlns="http://www.w3.org/2000/svg" xmlns:xlink="http://www.w3.org/1999/xlink" x="0px" y="0px"
	 viewBox="0 0 512 512" style="enable-background:new 0 0 512 512;" xml:space="preserve">
<style type="text/css">
	.st0{fill:#FFFFFF;}
</style>
<g>
	<path class="st0" d="M256,207c48,0,87-39,87-87s-39-87-87-87s-87,39-87,87S208,207,256,207z M256,63c31.4,0,57,25.6,57,57
		s-25.6,57-57,57s-57-25.6-57-57S224.6,63,256,63z"/>
	<path class="st0" d="M432,207c30.3,0,55-24.7,55-55s-24.7-55-55-55s-55,24.7-55,55S401.7,207,432,207z M432,127
		c13.8,0,25,11.2,25,25s-11.2,25-25,25s-25-11.2-25-25S418.2,127,432,127z"/>
	<path class="st0" d="M444.1,241h-23.2c-27.3,0-50.9,16.2-61.7,39.4C337.1,256.2,305.3,241,270,241h-28c-35.3,0-67.1,15.2-89.2,39.4
		C142,257.2,118.4,241,91.1,241H67.9C30.5,241,0,271.3,0,308.5v109.2C0,433.9,13.2,447,29.4,447h91.7c1.5,17.9,16.6,32,34.9,32h200
		c18.3,0,33.3-14.1,34.9-32h90.7c16.8,0,30.5-13.6,30.5-30.3V308.5C512,271.3,481.5,241,444.1,241L444.1,241z M30,308.5
		c0-20.7,17-37.5,37.9-37.5h23.2c20.9,0,37.9,16.8,37.9,37.5v10.3c-10.1,26.3-8,42-8,98.2H30V308.5z M361,444c0,2.8-2.3,5-5,5H156
		c-2.8,0-5-2.3-5-5v-82c0-50.2,40.8-91,91-91h28c50.2,0,91,40.8,91,91L361,444z M482,416.7c0,0.5,5.6,0.3-91,0.3
		c0-56.7,2.1-72-8-98.2v-10.3c0-20.7,17-37.5,37.9-37.5h23.2c20.9,0,37.9,16.8,37.9,37.5V416.7z"/>
	<path class="st0" d="M80,207c30.3,0,55-24.7,55-55s-24.7-55-55-55s-55,24.7-55,55S49.7,207,80,207z M80,127c13.8,0,25,11.2,25,25
		s-11.2,25-25,25s-25-11.2-25-25S66.2,127,80,127z"/>
</g>
</svg>
