<svg id="Layer_1" data-name="Layer 1" xmlns="http://www.w3.org/2000/svg" viewBox="0 0 400 400"><defs><style>.cls-1{opacity:0.5;}.cls-1,.cls-11,.cls-13,.cls-19{isolation:isolate;}.cls-2,.cls-4{fill:#006838;}.cls-21,.cls-3{fill:#333954;}.cls-4{opacity:0.57;}.cls-5{fill:#244d24;opacity:0.39;}.cls-6{fill:#403e56;}.cls-10,.cls-7{fill:#fff;}.cls-8{fill:#cccfda;}.cls-11,.cls-9{fill:#6466af;}.cls-10{opacity:0.46;}.cls-11,.cls-19{opacity:0.2;}.cls-12{fill:#a0626b;}.cls-13,.cls-19{fill:#010101;}.cls-13{opacity:0.1;}.cls-14{fill:#f3f3f3;}.cls-15{fill:#3d364d;}.cls-16{fill:#f9c1c7;}.cls-17,.cls-20,.cls-26,.cls-27{fill:none;}.cls-17{stroke:#403e56;stroke-width:4px;}.cls-17,.cls-20,.cls-21,.cls-26,.cls-27{stroke-miterlimit:10;}.cls-18{fill:#676480;}.cls-20{stroke:#fff;}.cls-21,.cls-26,.cls-27{stroke:#333954;}.cls-22{fill:#754937;}.cls-23,.cls-25{fill:#563327;}.cls-23{opacity:0.76;}.cls-24{fill:#232223;}.cls-26,.cls-27{stroke-linecap:round;}.cls-26{stroke-width:0.75px;}.cls-28{fill:#464f73;}.cls-29{fill:#27aae1;}</style></defs><title>customer grouping</title><g class="cls-1"><path class="cls-2" d="M349.8,270.25c-1.58.88-3.27,1.72-5,2.54-8.4,3.89-18.9,7.27-30.92,10.18l-2.26.54-.19,0c-1.43.34-2.88.66-4.35,1-13.23,2.89-28,5.25-43.7,7.14l-.89.11-.21,0c-20.93,2.48-43.42,4.12-65.81,5q-5.29.2-10.55.35l-1.78,0-1.55,0q-3.38.08-6.74.14l-2.53,0-1.92,0c-5.52.08-11,.1-16.41.09-46.3-.15-87.68-3.56-108.5-9.42C-13.72,271.15-.46,229.44,37.59,221S23,163.24,83.7,130.75c36.86-19.73,75.48,23.19,107.41-11.13,47.65-51.21,89.79-42.84,116.35-16.4,29.93,29.8,5.92,66.14,38,64.28C393.46,164.73,422.13,230,349.8,270.25Z"/></g><ellipse class="cls-2" cx="202.45" cy="331.13" rx="163.68" ry="8.19"/><path class="cls-3" d="M331.18,338.35h0s0,0,0,0Z"/><path class="cls-4" d="M115.28,248.78l-1.68-1-.48-.31a16,16,0,0,0,1.61-31.11l.08,6.58-3.62-7.16h0a16,16,0,0,0-16.7,15.21c0,.31,0,.61,0,.91a19.1,19.1,0,0,1-3.16-4.66c-1.53-3.41-1.56-7.28-1.44-12,.24-9.31.64-18.7,1.17-28.05A16,16,0,0,0,105.22,172c0-.49,0-1,0-1.45a2.29,2.29,0,0,0,0-.36c0-.46-.07-.92-.15-1.38a1.22,1.22,0,0,0,0-.22c-.06-.38-.14-.76-.23-1.14l-.11-.42c-.11-.41-.23-.8-.38-1.21,0-.13-.1-.27-.15-.39-.11-.29-.23-.58-.37-.86l-.21-.45-.06-.11h0A16,16,0,0,0,84.76,156l.11,8.56-3.58-7.08a15.89,15.89,0,0,0-7.62,17.21h0c0,.11.06.22.09.34s.1.42.16.63.16.53.25.8.13.39.21.59.23.56.35.83.14.33.21.48q.3.62.66,1.21c.08.14.18.27.27.4s.34.53.53.78l.36.46.53.65.4.44c.2.21.4.41.61.6s.27.27.42.39.48.41.73.6l.38.3L81,185l.23.13c.34.2.68.39,1,.56l.46.21c.29.13.58.25.88.37l.53.19c.29.1.59.19.89.27l.53.14c.33.08.66.14,1,.2h.06Q86.26,193,86,198.9a16,16,0,0,0-21.34-7.37q-.42.2-.82.43l2.82,7.74-5.81-5.58a15.92,15.92,0,0,0-5.17,11,15.61,15.61,0,0,0,.41,4.4,16,16,0,0,0,29.36,4.35c0,.4,0,.8,0,1.2-.11,4.15-.24,9.31,1.83,13.91a28.17,28.17,0,0,0,5.87,7.93c1.45,1.48,3,2.91,4.49,4.3a16,16,0,0,0,5.77,4.8c2.53,1.95,5.15,3.78,7.86,5.47l1.69,1.05c1.52.94,3.08,1.91,4.61,2.92l-.8-.07A16,16,0,0,0,101,265.82l10,8.12-11-2.55a16,16,0,0,0,22.92,14.36l-.74.92-1.45,1.82c-6.49,8.23-8.3,16-5.09,22l3.91-2.11c-3.13-5.79,1.58-13.21,4.66-17.12l1.43-1.79c4.15-5.15,8.85-11,8.74-18.16C134.19,260.5,123.72,254,115.28,248.78Z"/><path class="cls-5" d="M297.22,232.44l2.09-1.3c.2-.13.39-.27.59-.38a19.92,19.92,0,0,1-2-38.82l-.1,8.21,4.51-8.93h.05a19.93,19.93,0,0,1,20.83,19c0,.38,0,.76,0,1.13a23.73,23.73,0,0,0,3.94-5.81c1.91-4.27,1.95-9.07,1.8-14.94-.3-11.62-.8-23.33-1.45-35a19.92,19.92,0,0,1-17.69-18.85c0-.61,0-1.21,0-1.81a4.2,4.2,0,0,1,0-.45c0-.58.09-1.15.18-1.72,0-.09,0-.18.05-.27q.12-.72.3-1.42l.13-.53c.14-.51.29-1,.47-1.5.06-.17.13-.32.19-.49.14-.37.3-.72.46-1.07.09-.18.17-.37.27-.55l.07-.14h0a19.9,19.9,0,0,1,23.39-10.1l-.13,10.67,4.46-8.83a19.82,19.82,0,0,1,9.5,21.47h0c0,.14-.08.27-.11.42s-.13.53-.2.78-.2.66-.31,1-.16.49-.27.73-.29.7-.44,1-.17.41-.27.6c-.25.51-.53,1-.82,1.51-.1.17-.22.34-.33.5-.21.33-.43.66-.66,1s-.3.38-.45.58-.44.55-.68.81l-.5.55c-.24.27-.5.51-.75.75s-.34.33-.53.49-.6.51-.91.75l-.47.37c-.47.35-1,.68-1.46,1l-.29.16q-.63.37-1.29.7l-.58.27c-.36.16-.72.32-1.09.46l-.66.23c-.37.13-.74.24-1.12.34l-.67.18c-.41.1-.82.18-1.24.25l-.08,0q.42,7.39.73,14.78A19.91,19.91,0,0,1,360.33,161q.53.26,1,.54l-3.52,9.65,7.24-7A19.85,19.85,0,0,1,371.58,178a19.46,19.46,0,0,1-.5,5.49,19.92,19.92,0,0,1-36.64,5.43c0,.5,0,1,0,1.5.13,5.17.3,11.61-2.28,17.36a34.88,34.88,0,0,1-7.34,9.9q-2.71,2.77-5.6,5.36a20,20,0,0,1-7.2,6c-3.16,2.43-6.42,4.72-9.8,6.83l-2.11,1.31c-1.9,1.17-3.84,2.38-5.75,3.64.34,0,.67-.07,1-.09a19.94,19.94,0,0,1,19.61,13l-12.45,10.14,13.69-3.17a19.94,19.94,0,0,1-28.57,17.95l.93,1.15,1.82,2.27c8.1,10.26,10.35,20,6.34,27.43l-4.88-2.63c3.9-7.23-2-16.48-5.82-21.34l-1.78-2.23c-5.18-6.43-11-13.72-10.9-22.66C273.62,247.06,286.71,239,297.22,232.44Z"/><path class="cls-6" d="M328.15,162.05v141a1.92,1.92,0,0,1-1.92,1.92H96.89A1.92,1.92,0,0,1,95,303.07h0v-141a1.92,1.92,0,0,1,1.92-1.92H326.22a1.92,1.92,0,0,1,1.93,1.92Z"/><path class="cls-7" d="M317.11,206.88v85.47c0,.64-.78,1.17-1.74,1.17H107.75c-1,0-1.74-.52-1.74-1.16h0V206.88c0-.64.78-1.16,1.74-1.17H315.36c1,0,1.74.52,1.75,1.16Z"/><path class="cls-8" d="M328.15,161.41v4.32H95v-4.32a1.28,1.28,0,0,1,1.28-1.28H326.87a1.28,1.28,0,0,1,1.28,1.28Z"/><circle class="cls-9" cx="99.24" cy="162.8" r="1.33"/><circle class="cls-9" cx="102.97" cy="162.8" r="1.33"/><circle class="cls-9" cx="106.71" cy="162.8" r="1.33"/><rect class="cls-10" x="158.67" y="178.68" width="103.27" height="1.87"/><rect class="cls-10" x="174.82" y="184.98" width="70.97" height="1.87"/><rect class="cls-10" x="179.75" y="191.16" width="61.1" height="1.61"/><rect class="cls-11" x="117.12" y="217.63" width="54.69" height="64.03"/><rect class="cls-11" x="184.08" y="217.63" width="54.69" height="64.03"/><rect class="cls-11" x="251.05" y="217.63" width="54.69" height="64.03"/><path class="cls-12" d="M142,250.17c-.16,1-1.12,1.57-2,1.94a5.46,5.46,0,0,0-2.48,1.48,3.37,3.37,0,0,0,.27,3.7,12.77,12.77,0,0,0,3.25,3.11,5.87,5.87,0,0,0,1.76,1,5.24,5.24,0,0,0,1.5.16,27.34,27.34,0,0,0,4.85-.43c2.05-.37,4.24-1.12,5.34-2.9.89-1.46.83-3.28.74-5a6.23,6.23,0,0,1-2.65-1.12,4.74,4.74,0,0,1-2.33-2.4c-.33-1.15.2-2.57-.59-3.47a3,3,0,0,0-2.24-.7q-1.64,0-3.28,0c-.75,0-2.43-.31-3.05.19C139.94,246.63,142.22,248.95,142,250.17Z"/><path class="cls-13" d="M142,250.17c-.16,1-1.12,1.57-2,1.94a5.46,5.46,0,0,0-2.48,1.48,3.37,3.37,0,0,0,.27,3.7,12.77,12.77,0,0,0,3.25,3.11,5.87,5.87,0,0,0,1.76,1,5.24,5.24,0,0,0,1.5.16,27.34,27.34,0,0,0,4.85-.43c2.05-.37,4.24-1.12,5.34-2.9.89-1.46.83-3.28.74-5a6.23,6.23,0,0,1-2.65-1.12,4.74,4.74,0,0,1-2.33-2.4c-.33-1.15.2-2.57-.59-3.47a3,3,0,0,0-2.24-.7q-1.64,0-3.28,0c-.75,0-2.43-.31-3.05.19C139.94,246.63,142.22,248.95,142,250.17Z"/><circle class="cls-12" cx="145.74" cy="241.8" r="7.83"/><path class="cls-14" d="M162.1,260.79a3.37,3.37,0,0,1-.44,1.33,2.28,2.28,0,0,1-.24.31,7,7,0,0,1-1.64,1.14c-1.6,1-3.4,2.24-3.7,4.1a14,14,0,0,1-.4,1.71c-.37,1.27-.86,2.52-1.15,3.79a8.61,8.61,0,0,0-.24,2.25,6.82,6.82,0,0,0,.06.71,11.54,11.54,0,0,0,2.26,4.95l.35.49.08.1H131.51l.13-.49,0-.07c.25-1,.47-2,.63-3.07a19.53,19.53,0,0,0,.24-2.76,2.48,2.48,0,0,1,.85-2.13l.13-.49a15.25,15.25,0,0,0,0-7.37l-.12-.45-.06-.2a21.86,21.86,0,0,1-.57-2.16,7.14,7.14,0,0,0-.66-2.55,6.61,6.61,0,0,0-2-1.7,4.56,4.56,0,0,1-.94-.86h0a2.1,2.1,0,0,1-.51-1.23,1.81,1.81,0,0,1,0-.4,3.07,3.07,0,0,1,.81-1.45A8.88,8.88,0,0,1,136,251.7h0c.38,0,.75,0,1.12,0a3.16,3.16,0,0,1,1.26.28,1.91,1.91,0,0,1,.63.52,3.11,3.11,0,0,1,.53,1,5.6,5.6,0,0,1,.21.9,7.43,7.43,0,0,0,.68,2.79c.91,1.49,3,1.76,4.7,1.44a10.59,10.59,0,0,0,7.27-5.34,9.8,9.8,0,0,1,.53-1,2.42,2.42,0,0,1,.36-.43,14.89,14.89,0,0,1,6.5,2.93,7.1,7.1,0,0,1,1.54,1.6A6.32,6.32,0,0,1,162.1,260.79Z"/><path class="cls-12" d="M162.9,276.9a7.51,7.51,0,0,1-1,2.1,3.84,3.84,0,0,1-4.6,2.11h-.1l-.6,0-3.44-.21a19.41,19.41,0,0,1-2.72-.29l-.72-.17a20.17,20.17,0,0,0-4-1c-.4,0-.8,0-1.21,0h-.11a6,6,0,0,1-.8-.05c-.44-.06-.87-.2-1.31-.22a5.55,5.55,0,0,0-3.12,1.25l-.27.17a12,12,0,0,1-2.21,1.1h-4.63a1.53,1.53,0,0,1-.22-.2,1.66,1.66,0,0,1-.21-.29l0-.07a2.43,2.43,0,0,1,0-2.06,4,4,0,0,1,.68-1,9.34,9.34,0,0,1,1-.92,13.93,13.93,0,0,1,6.17-3.2l.48-.08a21.41,21.41,0,0,1,3.47-.11l1.09,0,4.55.09h.13a12.82,12.82,0,0,0,5.4-.68,6.34,6.34,0,0,0,.61-.31,1.16,1.16,0,0,0,.42-.37,1.27,1.27,0,0,0,.13-.69l0-2.4,0-4.63h0q0-1.7,0-3.41a2.34,2.34,0,0,1,.65-1.94c.66-.84,2.28-3.78,3.43-3.83a.92.92,0,0,1,.57.16h0c1,.65,1,3.12,1,4s.07,1.84.12,2.76a93.61,93.61,0,0,0,1.33,11.21A7.86,7.86,0,0,1,162.9,276.9Z"/><path class="cls-13" d="M162.9,276.9a7.51,7.51,0,0,1-1,2.1,3.84,3.84,0,0,1-4.6,2.11h-.1l-.6,0-3.44-.21a19.41,19.41,0,0,1-2.72-.29l-.72-.17a20.17,20.17,0,0,0-4-1c-.4,0-.8,0-1.21,0h-.11a6,6,0,0,1-.8-.05c-.44-.06-.87-.2-1.31-.22a5.55,5.55,0,0,0-3.12,1.25l-.27.17a12,12,0,0,1-2.21,1.1h-4.63a1.53,1.53,0,0,1-.22-.2,1.66,1.66,0,0,1-.21-.29l0-.07a2.43,2.43,0,0,1,0-2.06,4,4,0,0,1,.68-1,9.34,9.34,0,0,1,1-.92,13.93,13.93,0,0,1,6.17-3.2l.48-.08a21.41,21.41,0,0,1,3.47-.11l1.09,0,4.55.09h.13a12.82,12.82,0,0,0,5.4-.68,6.34,6.34,0,0,0,.61-.31,1.16,1.16,0,0,0,.42-.37,1.27,1.27,0,0,0,.13-.69l0-2.4,0-4.63h0q0-1.7,0-3.41a2.34,2.34,0,0,1,.65-1.94c.66-.84,2.28-3.78,3.43-3.83a.92.92,0,0,1,.57.16h0c1,.65,1,3.12,1,4s.07,1.84.12,2.76a93.61,93.61,0,0,0,1.33,11.21A7.86,7.86,0,0,1,162.9,276.9Z"/><path class="cls-15" d="M140.59,229.39a2.45,2.45,0,0,0-1.8.86,4.18,4.18,0,0,0-.37,1.54,3.42,3.42,0,0,1-1.31,2.1c-.56.41-1.24.65-1.82,1a2,2,0,0,0-1,1.71c.07.61.55,1.07.78,1.64.42,1-.07,2.2-.53,3.23s-.89,2.23-.37,3.22,2,1.44,2.4,2.55c.5,1.33-.8,2.76-.63,4.18a2.79,2.79,0,0,0,2.46,2.17,2,2,0,0,0,1.6-.35,2.1,2.1,0,0,0,.58-1.54c.07-2.17-1.16-4.16-1.52-6.31a3.39,3.39,0,0,1,.19-2.1c.21-.4.53-.73.72-1.15.36-.87,0-1.93.34-2.79a7.3,7.3,0,0,1,.76-1.07,1.26,1.26,0,0,0,.22-1.23,4.31,4.31,0,0,1,1.59,1.8c.5-.1.49-1.18,1-1,.14,0,.22.19.31.31a1.39,1.39,0,0,0,1.48.39,2.91,2.91,0,0,0,1.3-.94l.84,1a1,1,0,0,1,.93-.59,2.23,2.23,0,0,1,1.09.38c1.6,1,2.8,2.92,2.19,4.68a19.46,19.46,0,0,1-1.16,2.08,2,2,0,0,0,.12,2.23,4.44,4.44,0,0,1,.37.34c.42.49.15,1.25.28,1.87.22,1.14,1.57,1.6,2.71,1.87.8.18,1.75.32,2.31-.27s.34-1.69,0-2.49a3,3,0,0,1-.4-2.53c.4-.79,1.56-1.07,2-1.89.53-1-.41-2.2-.78-3.31-.51-1.53.06-3.24-.36-4.8a6.7,6.7,0,0,0-1.18-2.17,14,14,0,0,0-4.59-4.19,8.9,8.9,0,0,0-5.44-.84C144.07,229.24,142.33,229.13,140.59,229.39Z"/><path class="cls-14" d="M155.8,264.85a.65.65,0,0,1-.31-.42q-.89-2.5-1.66-5a2,2,0,0,1-.13-.94,1.82,1.82,0,0,1,.72-1,10.67,10.67,0,0,1,2.92-1.71c.77-.3,1.9-.84,2.67-.35.95.61-.06,2.13-.41,2.93a30.44,30.44,0,0,1-1.6,3.2C157.81,261.88,156,264.94,155.8,264.85Z"/><path class="cls-12" d="M157.32,281.1a1.6,1.6,0,0,1-.25.36l-.1.1-.12.1h-4.64a12,12,0,0,1-2.21-1.1l-.27-.17a5.55,5.55,0,0,0-3.12-1.25c-.45,0-.88.16-1.31.22a6,6,0,0,1-.8.05h-.11c-.4,0-.8,0-1.21,0a20.22,20.22,0,0,0-4,1l-.72.17a19.41,19.41,0,0,1-2.72.29l-4,.24h-.1A3.84,3.84,0,0,1,127,279a7.51,7.51,0,0,1-1-2.1,7.81,7.81,0,0,1,.15-3.26,94,94,0,0,0,1.45-14c0-.84,0-3.31,1-4a.85.85,0,0,1,.37-.14h.2c1.15,0,2.77,3,3.43,3.83a2.34,2.34,0,0,1,.65,1.94q0,1.64,0,3.29v.15q0,3.51,0,7a1.27,1.27,0,0,0,.13.69.76.76,0,0,0,.14.17,1.77,1.77,0,0,0,.29.2c1.77,1,4,1,6,1h.13l4.55-.09,1.09,0a21.41,21.41,0,0,1,3.47.11l.48.08a12.56,12.56,0,0,1,4.88,2.2q.67.47,1.3,1a5.56,5.56,0,0,1,1.65,1.93A2.43,2.43,0,0,1,157.32,281.1Z"/><path class="cls-14" d="M133.4,264.85a.65.65,0,0,0,.31-.42q.89-2.5,1.66-5a2,2,0,0,0,.12-.94,1.82,1.82,0,0,0-.72-1,10.6,10.6,0,0,0-2.92-1.71c-.77-.3-1.9-.84-2.67-.35-.95.61.06,2.13.41,2.93a29.91,29.91,0,0,0,1.6,3.2C131.38,261.88,133.16,264.94,133.4,264.85Z"/><path class="cls-15" d="M277.75,234.56c1.59-.39,2.82,2.24,4.42,1.93.88-.17,1.56-1.21,2.44-1.13s1.44,1.47,2,2.48a4.59,4.59,0,0,0,4.47,2.6,3.16,3.16,0,0,0,.17-2.75,9.85,9.85,0,0,1-.72-2.75c0-1.28.69-2.69.05-3.74-.49-.8-1.49-.86-2.22-1.36a9.2,9.2,0,0,1-1.46-1.55,4.82,4.82,0,0,0-3-1.56,8.78,8.78,0,0,0-2.83.3l-4.36.94a1.21,1.21,0,0,0-.68.31,2.35,2.35,0,0,0-.35.89c-.41,1.36-1.71,2-2.77,2.74s-2.07,2.24-1.48,3.51c.33.72,1.11,1.16,1.19,2a2.72,2.72,0,0,1-.87,1.84c-1.8,2.26,2.24,3.43,3.2,1.9C276,239.45,275.48,235.12,277.75,234.56Z"/><path class="cls-12" d="M275.44,248.76a12.92,12.92,0,0,0-1.18,1.45,3.33,3.33,0,0,0-.18,2.5,9.44,9.44,0,0,0,1.14,2.29,13.34,13.34,0,0,0,2,2.67,4.87,4.87,0,0,0,2.93,1.46,6.91,6.91,0,0,0,3.41-.92,3.74,3.74,0,0,0,1.23-.8,3.81,3.81,0,0,0,.6-1.09l.93-2.22a6.11,6.11,0,0,0,.53-1.7,6.29,6.29,0,0,0-.53-2.7L284.64,245a1.57,1.57,0,0,0-.41-.71,1.53,1.53,0,0,0-.62-.27,18.12,18.12,0,0,0-3.27-.53c-.82-.06-2.69-.35-3.4.12s-.38,1.52-.46,2.23A5.65,5.65,0,0,1,275.44,248.76Z"/><path class="cls-13" d="M275.44,248.76a12.92,12.92,0,0,0-1.18,1.45,3.33,3.33,0,0,0-.18,2.5,9.44,9.44,0,0,0,1.14,2.29,13.34,13.34,0,0,0,2,2.67,4.87,4.87,0,0,0,2.93,1.46,6.91,6.91,0,0,0,3.41-.92,3.74,3.74,0,0,0,1.23-.8,3.81,3.81,0,0,0,.6-1.09l.93-2.22a6.11,6.11,0,0,0,.53-1.7,6.29,6.29,0,0,0-.53-2.7L284.64,245a1.57,1.57,0,0,0-.41-.71,1.53,1.53,0,0,0-.62-.27,18.12,18.12,0,0,0-3.27-.53c-.82-.06-2.69-.35-3.4.12s-.38,1.52-.46,2.23A5.65,5.65,0,0,1,275.44,248.76Z"/><circle class="cls-12" cx="280.99" cy="240.27" r="7.39"/><path class="cls-15" d="M297.36,258.73a14.8,14.8,0,0,1-1.57,5.87c-.81,1.87-1.84,3.71-2.63,5.63l-.19.47q-2,5.27-3.61,10.7l-.08.27H266.38c1-4,1.94-8-.57-10.77l-.23-.27c-1.64-2-2.38-4.67-4.33-6.36A4.8,4.8,0,0,1,260,263a2.28,2.28,0,0,1-.23-1,7.06,7.06,0,0,1,.06-.95,9.91,9.91,0,0,1,1.49-5A7.32,7.32,0,0,1,263,254.5a13.52,13.52,0,0,1,4.73-2.11c1.91-.44,4-.5,5.58-1.69a6.59,6.59,0,0,1,1.07-.8l.11,0a1.11,1.11,0,0,1,1.15.12,1.58,1.58,0,0,1,.38.8l.85,3.11a3.17,3.17,0,0,0,.64,1.4c.76.78,2.2.69,2.79,1.6.35.55,1.28-.09,1.68-.6a22.62,22.62,0,0,0,2.52-4,6.4,6.4,0,0,1,.93-1.56,2.11,2.11,0,0,1,1-.62,1.39,1.39,0,0,1,.59,0,2.79,2.79,0,0,1,1.39,1,31.22,31.22,0,0,0,8.2,6.52,1.36,1.36,0,0,1,.6.5,1,1,0,0,1,.1.43A.81.81,0,0,1,297.36,258.73Z"/><path class="cls-15" d="M278.55,234.19c1.24-.27,2.19,1.51,3.44,1.3.68-.11,1.21-.8,1.9-.76s1.12,1,1.53,1.66a3.69,3.69,0,0,0,3.47,1.75,1.87,1.87,0,0,0,.13-1.85,5.91,5.91,0,0,1-.56-1.85c0-.86.53-1.81,0-2.51-.38-.53-1.16-.58-1.73-.91a7.23,7.23,0,0,1-1.13-1,4,4,0,0,0-2.31-1,7.85,7.85,0,0,0-2.2.2l-3.39.63a1,1,0,0,0-.53.21,1.47,1.47,0,0,0-.27.6c-.32.91-1.33,1.33-2.15,1.84s-1.6,1.51-1.15,2.36c.27.48.86.78.93,1.33s-.35.88-.68,1.24c-1.4,1.52,1.74,2.31,2.49,1.28S276.78,234.56,278.55,234.19Z"/><path class="cls-15" d="M300.83,281.66h-6.24c.1-2.56-.94-5.15-1.07-7.76a19.2,19.2,0,0,0-.16-2.93,6.43,6.43,0,0,0-.2-.74c-.16-.49-.35-1-.5-1.48a17.06,17.06,0,0,1-.45-5.15q0-2.86.09-5.72c0-.5-.15-1.23.3-1.44,1-.47,2.07.46,3,1.07.56.37,1.2.67,1.74,1.07a3.26,3.26,0,0,1,.83.83,4.64,4.64,0,0,1,.55,1.44q1.13,4.33,2,8.73a28.35,28.35,0,0,1,.53,3.87C301.41,276.18,300.84,278.94,300.83,281.66Z"/><path class="cls-15" d="M262.07,278.69a4.81,4.81,0,0,0-.51,2,3.18,3.18,0,0,0,.21.93h-5.65a20.86,20.86,0,0,1-.64-2.93,22,22,0,0,1,.13-5.83,21.3,21.3,0,0,1,1-4.42,45.08,45.08,0,0,1,2.58-5.23c.21-.4.4-.86.62-1.26.47-.88,1.09-1.52,2.31-.93,3,1.46,4.34,6.6,3.5,9.58a.08.08,0,0,1,0,0,14.79,14.79,0,0,1-.9,2.21Q263.31,275.75,262.07,278.69Z"/><path class="cls-6" d="M212.55,230.83A2.7,2.7,0,0,1,214,232a11.36,11.36,0,0,1,.4,1.63c.35,1.13,1.4,1.87,2.05,2.85a7.77,7.77,0,0,1,.93,4.63,16.62,16.62,0,0,0,.13,4.79c.19.76.51,1.48.64,2.25.16.93,0,1.91.27,2.83a7.34,7.34,0,0,0,1.19,2.28l2.08,3a24,24,0,0,1-2.74-.82,4.91,4.91,0,0,0,1.48,2.24l-1.5-1.81a4.3,4.3,0,0,0-1.12-1.07,6.08,6.08,0,0,0-1.82-.49,4.23,4.23,0,0,1-3-1.92c-.78-1.42-.27-3.21-.71-4.78a17.56,17.56,0,0,0-1.64-3.13c-1.22-2.38-1.15-5.19-1.53-7.84a24.17,24.17,0,0,1-.42-3.38c0-.84.08-2.44,1-2.87A4.37,4.37,0,0,1,212.55,230.83Z"/><path class="cls-16" d="M213.46,249.91c.13,1.39.42,3,1.69,3.62a8.87,8.87,0,0,0,2.33.34,4.88,4.88,0,0,1,3.36,2.69,11.79,11.79,0,0,1,1.07,4.31c.2,1.85.27,3.87-.76,5.43a6.27,6.27,0,0,1-3.71,2.43,10.35,10.35,0,0,1-8.64-1.6,19.23,19.23,0,0,1-3.18-3.14c-2.12-2.46-4.24-5.16-4.68-8.38a1,1,0,0,1,.27-1,1.12,1.12,0,0,1,.68-.14l2,0a1.87,1.87,0,0,0,1.45-.39,1.76,1.76,0,0,0,.31-1.33l-.15-5.88a.85.85,0,0,1,.13-.59.78.78,0,0,1,.47-.2,33,33,0,0,0,3.38-.3c1-.29,2.67-1.48,3.44-.25C213.6,246.57,213.36,248.73,213.46,249.91Z"/><path class="cls-13" d="M213.46,249.91c.13,1.39.42,3,1.69,3.62a8.87,8.87,0,0,0,2.33.34,4.88,4.88,0,0,1,3.36,2.69,11.79,11.79,0,0,1,1.07,4.31c.2,1.85.27,3.87-.76,5.43a6.27,6.27,0,0,1-3.71,2.43,10.35,10.35,0,0,1-8.64-1.6,19.23,19.23,0,0,1-3.18-3.14c-2.12-2.46-4.24-5.16-4.68-8.38a1,1,0,0,1,.27-1,1.12,1.12,0,0,1,.68-.14l2,0a1.87,1.87,0,0,0,1.45-.39,1.76,1.76,0,0,0,.31-1.33l-.15-5.88a.85.85,0,0,1,.13-.59.78.78,0,0,1,.47-.2,33,33,0,0,0,3.38-.3c1-.29,2.67-1.48,3.44-.25C213.6,246.57,213.36,248.73,213.46,249.91Z"/><circle class="cls-16" cx="208.36" cy="241.78" r="7.75"/><path class="cls-9" d="M225.61,275a7.23,7.23,0,0,1-.22.94,22,22,0,0,1-.85,2.11c-.12.29-.24.57-.34.86s-.14.46-.2.7-.13.55-.18.83-.13.83-.17,1.25H203.42a12.61,12.61,0,0,0-.11-3.07,20.18,20.18,0,0,0-1.25-4.07,74.32,74.32,0,0,1-3.52-10.11h0a20.1,20.1,0,0,1-.49-6.84c0-.13,0-.27.05-.41a10.45,10.45,0,0,1,.19-1,5.67,5.67,0,0,1,1.29-2.61,3.14,3.14,0,0,1,3.62-.84,3.66,3.66,0,0,1,1.5,1.78c.22.47.41,1,.61,1.44a14.67,14.67,0,0,0,3.06,4.58,10.14,10.14,0,0,0,.78.74c.27.23.5.43.77.63a5.7,5.7,0,0,0,3,1.52c.65,0,1.31,0,2,0s1.18,0,1.76,0a3.55,3.55,0,0,0,3.27-1.43,4.38,4.38,0,0,0,.27-2.52q-.09-1-.19-2v-.1c0-.48-.09-1-.13-1.44h0c0-.23,0-.47-.07-.7h0l0-.52.67-.06a5,5,0,0,1,2.91.43A3.87,3.87,0,0,1,225,257.2a8.76,8.76,0,0,1,.42,2c.3,3-.18,6.08,0,9.12C225.53,270.52,226,272.8,225.61,275Z"/><path class="cls-16" d="M230.23,281.66h-6.12c-.05-.69-.09-1.39-.11-2.08,0-.48,0-1,0-1.44q0-1.94,0-3.87a8.74,8.74,0,0,0,3.94,1.12,7.54,7.54,0,0,1,1.33,2.12,10.26,10.26,0,0,1,.46,1.31,0,0,0,0,1,0,0A17.51,17.51,0,0,1,230.23,281.66Z"/><path class="cls-9" d="M229.69,277.49a28.47,28.47,0,0,0-6.86.91,14.85,14.85,0,0,1,0-4.46l1-10.19c.07-.76-.07-7.69,1.4-6.46.53.45,1.22,4.5,1.38,5.15.25,1,.45,2,.63,3,.37,2,.61,4.11,1,6.17C228.31,272.17,229.16,277.49,229.69,277.49Z"/><path class="cls-6" d="M211.31,231.92a1.33,1.33,0,0,0-.16-.7,1.16,1.16,0,0,0-.83-.44c-1.12-.17-2.35.27-3.36-.23-.53-.27-.94-.8-1.47-1.1-1.26-.71-2.85,0-4,.92a11.57,11.57,0,0,0-3.72,5.66c-.5,1.71-.7,3.72-2.12,4.8a7.8,7.8,0,0,0-1.77,1.29,3.31,3.31,0,0,0-.47,1.6,10.53,10.53,0,0,0,.07,3.9c.27.94.76,1.8,1.07,2.72a7.23,7.23,0,0,1-2,7.52,2.34,2.34,0,0,0,1.73.3,1.49,1.49,0,0,1-.25.77c1.81-.06,3.39-1.82,5.17-1.44,1.36.29,2.11,1.69,3.12,2.64a4.69,4.69,0,0,0,5,1,3.59,3.59,0,0,0,1.93-4.44c-.8-1.87-3.23-2.62-4.07-4.47-.65-1.44-.17-3.11-.31-4.69a22.07,22.07,0,0,0-1.07-3.91,4.83,4.83,0,0,1,.27-3.93c.78-1.21,2.29-1.68,3.65-2.13C210.84,236.6,211.43,235,211.31,231.92Z"/><path class="cls-16" d="M209.41,259.79a5.94,5.94,0,0,0,.05-3.27c-.73-1.93-3.1-2.53-4.74-3.77a6.4,6.4,0,0,1-2.11-2.81c-.3-.78-.34-1.87.39-2.26a1.78,1.78,0,0,1,.92-.16,11.49,11.49,0,0,1,6.86,3.09,9.36,9.36,0,0,1,2.79,3.43,11.19,11.19,0,0,1,.65,3.08l.4,3.47a54.37,54.37,0,0,1,.46,6,26.45,26.45,0,0,1-.22,3.44,5.15,5.15,0,0,1-.73,2.31c-.89,1.24-2.59,1.51-4.11,1.56a7.1,7.1,0,0,1-1.72-.11c-2.53-.55-4.44-4.09-2.53-6.27.8-.93,2-1,2.49-2.23A39.28,39.28,0,0,0,209.41,259.79Z"/><path class="cls-9" d="M207.35,260.4l2,3.26a1.49,1.49,0,0,1,.24.56c.06.42-.27.8-.51,1.14-1.72,2.35-1.28,5.58-.76,8.44a15.32,15.32,0,0,1-10.53-12.4c-.25-1.7-.66-4.51.86-5.62C202.29,253.11,205.64,257.61,207.35,260.4Z"/><path class="cls-6" d="M217.48,253.87a8.73,8.73,0,0,1-2.33-.34c-1.27-.58-1.56-2.23-1.69-3.62,0-.13,0-.27,0-.42a11.59,11.59,0,0,1,1.48-1.28,7.25,7.25,0,0,1,1.51-.66l1.41-.5a8.07,8.07,0,0,1,.3,1.15c.16.93,0,1.91.27,2.83a7.34,7.34,0,0,0,1.19,2.28l2.08,3c-.38-.09-.75-.19-1.12-.3A4.71,4.71,0,0,0,217.48,253.87Z"/><path class="cls-17" d="M84.19,307c.8-1.47-.11-3.27-1.14-4.58s-2.3-2.67-2.27-4.35c0-2.4,2.59-3.82,4.62-5.09a22.41,22.41,0,0,0,4.15-3.34A6.08,6.08,0,0,0,90.82,288a6.92,6.92,0,0,0,.38-3q-.14-5.14-.51-10.27"/><path class="cls-9" d="M94.57,274.49a3.74,3.74,0,0,0-1.87-3.07l-.84,1.66,0-2a3.79,3.79,0,0,0-1.24-.15,3.74,3.74,0,1,0,3.92,3.57Z"/><path class="cls-9" d="M87.89,299.84a3.74,3.74,0,1,1,.18-3l-2.34,1.9,2.57-.59A3.74,3.74,0,0,1,87.89,299.84Z"/><path class="cls-9" d="M86,292.56a3.74,3.74,0,0,1-1.19-7.35l0,1.54.85-1.68h0a3.74,3.74,0,0,1,3.92,3.54v0a3.69,3.69,0,0,1-.16,1.28A3.74,3.74,0,0,1,86,292.56Z"/><path class="cls-9" d="M95.13,286.53a3.74,3.74,0,1,1,1.66-7l-.66,1.81L97.49,280a3.74,3.74,0,0,1,1.21,2.59,3.68,3.68,0,0,1-.09,1A3.74,3.74,0,0,1,95.13,286.53Z"/><path class="cls-13" d="M94.07,275.49c-.86.09-1.7.36-2.57.42a2.8,2.8,0,0,1-2.37-.83,11.59,11.59,0,0,1-.69-1.22,2.67,2.67,0,0,0-.94-.89,3.74,3.74,0,1,0,7,2.49Z"/><path class="cls-13" d="M95.13,286.53a3.74,3.74,0,0,1-3.56-5.34,2.77,2.77,0,0,1,.75.75,12.25,12.25,0,0,0,.74,1.24,3.07,3.07,0,0,0,2.48.87c.9,0,1.78-.3,2.67-.38l.38,0A3.74,3.74,0,0,1,95.13,286.53Z"/><path class="cls-13" d="M86,292.56a3.74,3.74,0,0,1-3.59-5.27,3.06,3.06,0,0,1,.8.76c.29.41.47.89.8,1.26a3.48,3.48,0,0,0,2.65.93c1,0,1.82-.25,2.74-.32A3.74,3.74,0,0,1,86,292.56Z"/><path class="cls-13" d="M87.89,299.84a3.74,3.74,0,1,1-6.83-3.05,3.69,3.69,0,0,1,.82.73,16.28,16.28,0,0,0,1,1.33,4.66,4.66,0,0,0,3.1,1.09A16,16,0,0,0,87.89,299.84Z"/><path class="cls-18" d="M78.54,305.36s3-.09,3.85-.73,4.54-1.39,4.77-.37,4.44,5.07,1.11,5.09-7.75-.52-8.64-1.07S78.54,305.36,78.54,305.36Z"/><path class="cls-19" d="M88.32,309c-3.34,0-7.75-.53-8.64-1.07-.68-.41-.95-1.89-1-2.57h-.1s.19,2.39,1.07,2.93,5.31,1.09,8.64,1.07c1,0,1.29-.35,1.28-.86C89.4,308.79,89,309,88.32,309Z"/><path class="cls-17" d="M331.18,303.42c1.41-2.61-.19-5.82-2-8.15s-4.09-4.76-4-7.74c.07-4.27,4.6-6.8,8.22-9.06a40,40,0,0,0,7.39-5.94,10.65,10.65,0,0,0,2.27-3,12.32,12.32,0,0,0,.68-5.4q-.24-9.14-.9-18.27"/><path class="cls-9" d="M349.65,245.5a6.65,6.65,0,0,0-3.32-5.46l-1.49,3,0-3.57a6.67,6.67,0,1,0,4.77,6.08Z"/><path class="cls-9" d="M337.77,290.59a6.67,6.67,0,1,1,.32-5.36l-4.16,3.39,4.58-1.07A6.61,6.61,0,0,1,337.77,290.59Z"/><path class="cls-9" d="M334.49,277.65a6.67,6.67,0,0,1-2.11-13.07l0,2.75,1.51-3h0a6.67,6.67,0,1,1,.62,13.31Z"/><path class="cls-9" d="M350.65,266.89a6.67,6.67,0,1,1,2.93-12.47l-1.18,3.23,2.42-2.32a6.63,6.63,0,0,1,2.15,4.6,6.53,6.53,0,0,1-.17,1.84A6.67,6.67,0,0,1,350.65,266.89Z"/><path class="cls-13" d="M348.75,247.28c-1.54.17-3,.65-4.58.74a5,5,0,0,1-4.21-1.47,17.54,17.54,0,0,1-1.23-2.17,4.72,4.72,0,0,0-1.68-1.58,6.67,6.67,0,1,0,12.45,4.42Z"/><path class="cls-13" d="M350.65,266.89a6.67,6.67,0,0,1-6.34-9.5,4.92,4.92,0,0,1,1.33,1.33,19,19,0,0,0,1.33,2.2,5.44,5.44,0,0,0,4.42,1.55c1.61-.07,3.16-.53,4.76-.68l.67,0A6.67,6.67,0,0,1,350.65,266.89Z"/><path class="cls-13" d="M334.49,277.65a6.67,6.67,0,0,1-6.4-9.38,5.4,5.4,0,0,1,1.41,1.36,22.46,22.46,0,0,0,1.45,2.24,6.17,6.17,0,0,0,4.72,1.65c1.65,0,3.24-.44,4.88-.57A6.67,6.67,0,0,1,334.49,277.65Z"/><path class="cls-13" d="M337.77,290.59a6.67,6.67,0,0,1-12.14-5.43,6.67,6.67,0,0,1,1.46,1.3,26.42,26.42,0,0,0,1.78,2.37,8.36,8.36,0,0,0,5.52,1.94A29,29,0,0,0,337.77,290.59Z"/><path class="cls-18" d="M321.14,300.4s5.26-.16,6.84-1.29,8.09-2.48,8.48-.67,7.9,9,2,9-13.79-.92-15.37-1.89S321.14,300.4,321.14,300.4Z"/><path class="cls-19" d="M338.53,306.87c-5.94,0-13.79-.92-15.37-1.89-1.2-.73-1.68-3.37-1.85-4.58h-.17s.33,4.24,1.91,5.2,9.44,1.93,15.37,1.89c1.72,0,2.31-.62,2.27-1.53C340.46,306.52,339.81,306.86,338.53,306.87Z"/><line class="cls-20" x1="142.06" y1="140.99" x2="142.06" y2="225.82"/><line class="cls-20" x1="209.6" y1="130.24" x2="209.6" y2="222.75"/><line class="cls-20" x1="280.4" y1="118.94" x2="280.4" y2="222.75"/><circle class="cls-7" cx="123.52" cy="117.9" r="1.3"/><circle class="cls-7" cx="123.52" cy="132.45" r="1.3"/><rect class="cls-7" x="128.97" y="116.86" width="24.68" height="2.08"/><rect class="cls-7" x="128.97" y="124.14" width="24.68" height="2.08"/><rect class="cls-7" x="128.97" y="131.41" width="24.68" height="2.08"/><circle class="cls-7" cx="213.96" cy="100.53" r="1.3"/><circle class="cls-7" cx="213.96" cy="115.07" r="1.3"/><rect class="cls-7" x="219.41" y="99.49" width="24.68" height="2.08"/><rect class="cls-7" x="219.41" y="106.76" width="24.68" height="2.08"/><rect class="cls-7" x="219.41" y="114.04" width="24.68" height="2.08"/><circle class="cls-7" cx="301.74" cy="85" r="1.3"/><circle class="cls-7" cx="301.74" cy="99.55" r="1.3"/><rect class="cls-7" x="307.19" y="83.96" width="24.68" height="2.08"/><rect class="cls-7" x="307.19" y="91.23" width="24.68" height="2.08"/><rect class="cls-7" x="307.19" y="98.51" width="24.68" height="2.08"/><circle class="cls-6" cx="99.98" cy="123.73" r="19.88"/><path class="cls-12" d="M97.91,120.31c-.11.65-.75,1.06-1.36,1.32a3.69,3.69,0,0,0-1.68,1,2.28,2.28,0,0,0,.18,2.51,8.64,8.64,0,0,0,2.2,2.11,4,4,0,0,0,1.19.7,3.54,3.54,0,0,0,1,.11,18.51,18.51,0,0,0,3.28-.29,5.12,5.12,0,0,0,3.61-2,5.88,5.88,0,0,0,.5-3.38,4.22,4.22,0,0,1-1.8-.76,3.21,3.21,0,0,1-1.58-1.63c-.22-.78.13-1.74-.4-2.35a2,2,0,0,0-1.52-.47l-2.22,0c-.51,0-1.65-.21-2.07.13C96.5,117.91,98,119.48,97.91,120.31Z"/><path class="cls-13" d="M97.91,120.31c-.11.65-.75,1.06-1.36,1.32a3.69,3.69,0,0,0-1.68,1,2.28,2.28,0,0,0,.18,2.51,8.64,8.64,0,0,0,2.2,2.11,4,4,0,0,0,1.19.7,3.54,3.54,0,0,0,1,.11,18.51,18.51,0,0,0,3.28-.29,5.12,5.12,0,0,0,3.61-2,5.88,5.88,0,0,0,.5-3.38,4.22,4.22,0,0,1-1.8-.76,3.21,3.21,0,0,1-1.58-1.63c-.22-.78.13-1.74-.4-2.35a2,2,0,0,0-1.52-.47l-2.22,0c-.51,0-1.65-.21-2.07.13C96.5,117.91,98,119.48,97.91,120.31Z"/><circle class="cls-12" cx="100.43" cy="114.64" r="5.3"/><path class="cls-14" d="M111.5,127.49a2.28,2.28,0,0,1-.3.9,1.54,1.54,0,0,1-.16.21,4.71,4.71,0,0,1-1.11.77c-1.08.66-2.3,1.52-2.5,2.77a9.5,9.5,0,0,1-.27,1.16c-.25.86-.58,1.7-.78,2.56a5.83,5.83,0,0,0-.16,1.52,4.62,4.62,0,0,0,0,.48,7.81,7.81,0,0,0,1.53,3.35l.24.33.05.07H90.79l.08-.33v-.05c.17-.69.32-1.38.43-2.08a13.22,13.22,0,0,0,.16-1.87,1.68,1.68,0,0,1,.57-1.44l.09-.33a10.32,10.32,0,0,0,0-5l-.08-.3,0-.14a14.8,14.8,0,0,1-.38-1.46,4.84,4.84,0,0,0-.44-1.73,4.48,4.48,0,0,0-1.35-1.15,3.09,3.09,0,0,1-.64-.58h0a1.42,1.42,0,0,1-.34-.83,1.23,1.23,0,0,1,0-.27,2.08,2.08,0,0,1,.55-1,6,6,0,0,1,4.42-1.74h0c.25,0,.51,0,.76,0a2.14,2.14,0,0,1,.85.19,1.29,1.29,0,0,1,.42.35,2.1,2.1,0,0,1,.36.68,3.79,3.79,0,0,1,.14.61,5,5,0,0,0,.46,1.89,3,3,0,0,0,3.18,1,7.17,7.17,0,0,0,4.92-3.61,6.64,6.64,0,0,1,.36-.66,1.64,1.64,0,0,1,.25-.29,10.08,10.08,0,0,1,4.4,2,4.81,4.81,0,0,1,1,1.08A4.28,4.28,0,0,1,111.5,127.49Z"/><path class="cls-12" d="M112,138.4a5.09,5.09,0,0,1-.66,1.42,2.6,2.6,0,0,1-3.11,1.42h-.07l-.41,0-2.33-.14a13.14,13.14,0,0,1-1.84-.2l-.48-.12a13.66,13.66,0,0,0-2.72-.66c-.27,0-.54,0-.82,0h-.08a4.07,4.07,0,0,1-.54,0c-.3,0-.59-.14-.89-.15a3.76,3.76,0,0,0-2.11.85l-.18.11a8.13,8.13,0,0,1-1.5.74H91.17l-.15-.14a1.13,1.13,0,0,1-.14-.19l0,0a1.65,1.65,0,0,1,0-1.39,2.73,2.73,0,0,1,.46-.69,6.32,6.32,0,0,1,.66-.62,9.43,9.43,0,0,1,4.17-2.17l.33-.05a14.5,14.5,0,0,1,2.35-.08h.74l3.08.06h.08a8.68,8.68,0,0,0,3.66-.46l.42-.21a.78.78,0,0,0,.29-.25.86.86,0,0,0,.08-.47v-1.63l0-3.13h0q0-1.15,0-2.31a1.58,1.58,0,0,1,.44-1.31c.45-.57,1.55-2.56,2.32-2.59a.62.62,0,0,1,.39.11h0c.66.44.66,2.11.68,2.67s0,1.24.08,1.87a63.37,63.37,0,0,0,.9,7.59A5.32,5.32,0,0,1,112,138.4Z"/><path class="cls-13" d="M112,138.4a5.09,5.09,0,0,1-.66,1.42,2.6,2.6,0,0,1-3.11,1.42h-.07l-.41,0-2.33-.14a13.14,13.14,0,0,1-1.84-.2l-.48-.12a13.66,13.66,0,0,0-2.72-.66c-.27,0-.54,0-.82,0h-.08a4.07,4.07,0,0,1-.54,0c-.3,0-.59-.14-.89-.15a3.76,3.76,0,0,0-2.11.85l-.18.11a8.13,8.13,0,0,1-1.5.74H91.17l-.15-.14a1.13,1.13,0,0,1-.14-.19l0,0a1.65,1.65,0,0,1,0-1.39,2.73,2.73,0,0,1,.46-.69,6.32,6.32,0,0,1,.66-.62,9.43,9.43,0,0,1,4.17-2.17l.33-.05a14.5,14.5,0,0,1,2.35-.08h.74l3.08.06h.08a8.68,8.68,0,0,0,3.66-.46l.42-.21a.78.78,0,0,0,.29-.25.86.86,0,0,0,.08-.47v-1.63l0-3.13h0q0-1.15,0-2.31a1.58,1.58,0,0,1,.44-1.31c.45-.57,1.55-2.56,2.32-2.59a.62.62,0,0,1,.39.11h0c.66.44.66,2.11.68,2.67s0,1.24.08,1.87a63.37,63.37,0,0,0,.9,7.59A5.32,5.32,0,0,1,112,138.4Z"/><path class="cls-15" d="M96.94,106.24a1.66,1.66,0,0,0-1.22.58,2.83,2.83,0,0,0-.25,1,2.31,2.31,0,0,1-.89,1.42c-.38.28-.84.44-1.23.7a1.33,1.33,0,0,0-.69,1.16c0,.41.37.72.53,1.11a2.88,2.88,0,0,1-.36,2.18,2.55,2.55,0,0,0-.25,2.18c.38.71,1.35,1,1.63,1.72.34.9-.54,1.87-.43,2.83a1.89,1.89,0,0,0,1.67,1.47,1.35,1.35,0,0,0,1.08-.23,1.42,1.42,0,0,0,.39-1c0-1.47-.79-2.82-1-4.27a2.29,2.29,0,0,1,.13-1.42c.14-.27.36-.5.48-.78.24-.59,0-1.3.23-1.89a4.94,4.94,0,0,1,.51-.72.85.85,0,0,0,.15-.83,2.92,2.92,0,0,1,1.07,1.22c.34-.07.33-.8.67-.7.09,0,.15.13.21.21a.94.94,0,0,0,1,.26,2,2,0,0,0,.88-.63l.57.71a.65.65,0,0,1,.63-.4,1.51,1.51,0,0,1,.74.25,2.86,2.86,0,0,1,1.48,3.17,13.17,13.17,0,0,1-.78,1.41,1.32,1.32,0,0,0,.08,1.51,3,3,0,0,1,.25.23c.28.33.1.84.19,1.26.15.77,1.06,1.08,1.83,1.26.54.12,1.19.21,1.57-.18s.23-1.14,0-1.69a2,2,0,0,1-.27-1.71c.27-.53,1.06-.72,1.34-1.28.36-.71-.28-1.49-.53-2.24-.35-1,0-2.19-.25-3.25a4.54,4.54,0,0,0-.8-1.47,9.5,9.5,0,0,0-3.11-2.83,6,6,0,0,0-3.68-.57C99.3,106.14,98.11,106.06,96.94,106.24Z"/><path class="cls-14" d="M107.23,130.24A.44.44,0,0,1,107,130q-.6-1.69-1.13-3.4a1.32,1.32,0,0,1-.08-.63,1.23,1.23,0,0,1,.48-.66,7.22,7.22,0,0,1,2-1.16c.52-.2,1.29-.57,1.81-.24s0,1.44-.28,2a20.6,20.6,0,0,1-1.08,2.17A12.5,12.5,0,0,1,107.23,130.24Z"/><path class="cls-12" d="M108.26,141.25a1.08,1.08,0,0,1-.17.24l-.07.07-.08.07h-3.14a8.13,8.13,0,0,1-1.5-.74l-.18-.11a3.76,3.76,0,0,0-2.11-.85c-.3,0-.59.11-.89.15a4.07,4.07,0,0,1-.54,0h-.08c-.27,0-.54,0-.82,0a13.69,13.69,0,0,0-2.72.66l-.48.12a13.14,13.14,0,0,1-1.84.2l-2.74.16h-.07a2.6,2.6,0,0,1-3.11-1.42,5.09,5.09,0,0,1-.66-1.42,5.29,5.29,0,0,1,.1-2.21,63.62,63.62,0,0,0,1-9.45c0-.57,0-2.24.68-2.68a.58.58,0,0,1,.25-.1h.13c.78,0,1.87,2,2.32,2.59a1.58,1.58,0,0,1,.44,1.31q0,1.11,0,2.23v.1q0,2.37,0,4.74a.86.86,0,0,0,.08.47.52.52,0,0,0,.09.11l.19.14a7.64,7.64,0,0,0,4.07.67h.08l3.08-.06h.74a14.5,14.5,0,0,1,2.35.08l.33.05a8.5,8.5,0,0,1,3.31,1.49q.45.32.88.68a3.76,3.76,0,0,1,1.12,1.31A1.65,1.65,0,0,1,108.26,141.25Z"/><path class="cls-14" d="M92.07,130.24a.44.44,0,0,0,.21-.29q.6-1.69,1.13-3.4a1.35,1.35,0,0,0,.08-.63,1.23,1.23,0,0,0-.48-.66,7.18,7.18,0,0,0-2-1.16c-.52-.2-1.29-.57-1.81-.24s0,1.44.28,2A20.24,20.24,0,0,0,90.59,128,12.5,12.5,0,0,0,92.07,130.24Z"/><circle class="cls-6" cx="186.64" cy="105.33" r="19.88"/><circle class="cls-5" cx="276.04" cy="92.27" r="19.88"/><path class="cls-6" d="M184.78,91.32a1.65,1.65,0,0,1,.87.74,7,7,0,0,1,.24,1c.21.69.86,1.14,1.26,1.75a4.76,4.76,0,0,1,.57,2.84,10.17,10.17,0,0,0,.08,2.93c.12.46.31.9.39,1.38s0,1.17.16,1.73a4.5,4.5,0,0,0,.73,1.39l1.27,1.86a14.67,14.67,0,0,1-1.68-.5,3,3,0,0,0,.91,1.37l-.92-1.11A2.63,2.63,0,0,0,188,106a3.72,3.72,0,0,0-1.11-.3,2.59,2.59,0,0,1-1.81-1.17c-.48-.87-.16-2-.44-2.92a10.75,10.75,0,0,0-1-1.92c-.75-1.46-.7-3.18-.94-4.8a14.79,14.79,0,0,1-.26-2.07c0-.51.05-1.49.59-1.75A2.67,2.67,0,0,1,184.78,91.32Z"/><path class="cls-16" d="M185.34,103c.08.85.25,1.86,1,2.22a5.43,5.43,0,0,0,1.43.21,3,3,0,0,1,2.06,1.65,7.22,7.22,0,0,1,.65,2.64A5.05,5.05,0,0,1,190,113a3.84,3.84,0,0,1-2.27,1.49,6.33,6.33,0,0,1-5.29-1,11.77,11.77,0,0,1-1.94-1.92c-1.3-1.51-2.6-3.16-2.86-5.13a.64.64,0,0,1,.16-.63.68.68,0,0,1,.42-.08l1.24,0a1.14,1.14,0,0,0,.89-.24,1.08,1.08,0,0,0,.19-.82l-.09-3.6a.52.52,0,0,1,.08-.36.48.48,0,0,1,.29-.12,20.2,20.2,0,0,0,2.07-.19c.64-.17,1.63-.91,2.11-.16S185.28,102.28,185.34,103Z"/><path class="cls-13" d="M185.34,103c.08.85.25,1.86,1,2.22a5.43,5.43,0,0,0,1.43.21,3,3,0,0,1,2.06,1.65,7.22,7.22,0,0,1,.65,2.64A5.05,5.05,0,0,1,190,113a3.84,3.84,0,0,1-2.27,1.49,6.33,6.33,0,0,1-5.29-1,11.77,11.77,0,0,1-1.94-1.92c-1.3-1.51-2.6-3.16-2.86-5.13a.64.64,0,0,1,.16-.63.68.68,0,0,1,.42-.08l1.24,0a1.14,1.14,0,0,0,.89-.24,1.08,1.08,0,0,0,.19-.82l-.09-3.6a.52.52,0,0,1,.08-.36.48.48,0,0,1,.29-.12,20.2,20.2,0,0,0,2.07-.19c.64-.17,1.63-.91,2.11-.16S185.28,102.28,185.34,103Z"/><circle class="cls-16" cx="182.21" cy="98.03" r="4.74"/><path class="cls-9" d="M192.77,118.34a4.42,4.42,0,0,1-.14.57,13.46,13.46,0,0,1-.52,1.29c-.08.17-.15.35-.21.53s-.09.28-.12.43-.08.34-.11.51-.08.51-.1.77H179.19a7.72,7.72,0,0,0-.07-1.88,12.35,12.35,0,0,0-.76-2.49,45.49,45.49,0,0,1-2.16-6.19h0a12.3,12.3,0,0,1-.3-4.19l0-.25a6.4,6.4,0,0,1,.12-.63,3.47,3.47,0,0,1,.79-1.6,1.92,1.92,0,0,1,2.21-.51,2.24,2.24,0,0,1,.92,1.09c.14.29.25.59.37.88a9,9,0,0,0,1.87,2.8,6.21,6.21,0,0,0,.48.45l.47.39a3.49,3.49,0,0,0,1.84.93c.4,0,.8,0,1.21,0s.72,0,1.08,0a2.17,2.17,0,0,0,2-.87,2.68,2.68,0,0,0,.16-1.54q-.06-.61-.11-1.23v-.06c0-.3-.05-.59-.08-.88h0c0-.14,0-.29,0-.43h0l0-.32.41,0a3.08,3.08,0,0,1,1.78.26,2.37,2.37,0,0,1,1,1.33,5.36,5.36,0,0,1,.25,1.22c.18,1.85-.11,3.72,0,5.58A18.38,18.38,0,0,1,192.77,118.34Z"/><path class="cls-16" d="M195.6,122.44h-3.74c0-.42-.06-.85-.07-1.28s0-.59,0-.88q0-1.19,0-2.37a5.35,5.35,0,0,0,2.41.69,4.61,4.61,0,0,1,.82,1.3,6.28,6.28,0,0,1,.28.8h0A10.72,10.72,0,0,1,195.6,122.44Z"/><path class="cls-9" d="M195.27,119.88a17.42,17.42,0,0,0-4.2.56,9.09,9.09,0,0,1,0-2.73l.61-6.24c0-.46,0-4.7.85-4,.33.28.74,2.76.85,3.16.16.6.28,1.21.39,1.82.22,1.25.38,2.52.59,3.77C194.42,116.63,194.94,119.89,195.27,119.88Z"/><path class="cls-6" d="M184,92a.82.82,0,0,0-.1-.43.71.71,0,0,0-.51-.27c-.68-.11-1.44.16-2.05-.14-.33-.16-.57-.49-.9-.67A2.26,2.26,0,0,0,178,91a7.08,7.08,0,0,0-2.27,3.47c-.3,1-.43,2.27-1.3,2.94a4.77,4.77,0,0,0-1.09.79,2,2,0,0,0-.29,1,6.44,6.44,0,0,0,0,2.39c.16.58.47,1.1.65,1.67a4.42,4.42,0,0,1-1.21,4.6,1.43,1.43,0,0,0,1.06.18.91.91,0,0,1-.15.47c1.11,0,2.08-1.12,3.16-.88.83.18,1.29,1,1.91,1.62a2.87,2.87,0,0,0,3,.62,2.2,2.2,0,0,0,1.18-2.72c-.49-1.14-2-1.6-2.49-2.74-.4-.88-.1-1.91-.19-2.87a13.51,13.51,0,0,0-.65-2.39,3,3,0,0,1,.16-2.41,4,4,0,0,1,2.24-1.31C183.73,94.85,184.09,93.9,184,92Z"/><path class="cls-16" d="M182.85,109a3.64,3.64,0,0,0,0-2c-.44-1.18-1.9-1.55-2.9-2.31a3.92,3.92,0,0,1-1.29-1.72c-.18-.48-.21-1.14.24-1.38a1.09,1.09,0,0,1,.56-.1,7,7,0,0,1,4.2,1.89,5.73,5.73,0,0,1,1.71,2.1,6.85,6.85,0,0,1,.4,1.89l.24,2.12a33.28,33.28,0,0,1,.28,3.67,16.19,16.19,0,0,1-.13,2.11,3.15,3.15,0,0,1-.45,1.41,3.09,3.09,0,0,1-2.51,1,4.34,4.34,0,0,1-1.05-.07c-1.55-.34-2.72-2.5-1.55-3.84.49-.57,1.24-.58,1.53-1.36A24,24,0,0,0,182.85,109Z"/><path class="cls-9" d="M181.6,109.42l1.22,2a.91.91,0,0,1,.15.34c0,.26-.16.49-.31.7-1.05,1.44-.78,3.41-.47,5.17a9.38,9.38,0,0,1-6.44-7.59c-.15-1-.4-2.76.52-3.44C178.49,105,180.55,107.71,181.6,109.42Z"/><path class="cls-6" d="M187.8,105.43a5.35,5.35,0,0,1-1.43-.21c-.78-.36-1-1.36-1-2.22,0-.08,0-.16,0-.26a7.09,7.09,0,0,1,.9-.79,4.44,4.44,0,0,1,.92-.41l.86-.3a4.94,4.94,0,0,1,.19.7c.1.57,0,1.17.16,1.73a4.5,4.5,0,0,0,.73,1.39l1.27,1.86-.69-.18A2.88,2.88,0,0,0,187.8,105.43Z"/><path class="cls-15" d="M275.73,81.85c.89-.22,1.58,1.25,2.47,1.08.49-.1.87-.68,1.37-.63s.81.82,1.1,1.39a2.56,2.56,0,0,0,2.5,1.45,1.77,1.77,0,0,0,.09-1.54,5.51,5.51,0,0,1-.4-1.54c0-.71.38-1.51,0-2.09s-.83-.48-1.24-.76a5.14,5.14,0,0,1-.81-.87,2.69,2.69,0,0,0-1.66-.87,4.91,4.91,0,0,0-1.58.17l-2.44.53a.68.68,0,0,0-.38.17,1.31,1.31,0,0,0-.2.5c-.23.76-1,1.11-1.55,1.53s-1.15,1.25-.83,2c.19.4.62.65.67,1.1a1.52,1.52,0,0,1-.49,1c-1,1.26,1.25,1.92,1.79,1.06S274.46,82.16,275.73,81.85Z"/><path class="cls-12" d="M274.44,89.79a7.23,7.23,0,0,0-.66.81,1.86,1.86,0,0,0-.1,1.4,5.28,5.28,0,0,0,.64,1.28,7.46,7.46,0,0,0,1.12,1.49,2.72,2.72,0,0,0,1.64.81,3.87,3.87,0,0,0,1.91-.51,2.09,2.09,0,0,0,.69-.45A2.13,2.13,0,0,0,280,94l.52-1.24a3.42,3.42,0,0,0,.3-1,3.52,3.52,0,0,0-.3-1.51l-.95-2.61a.88.88,0,0,0-.23-.4.86.86,0,0,0-.35-.15,10.13,10.13,0,0,0-1.83-.3,4.19,4.19,0,0,0-1.9.07c-.37.24-.21.85-.26,1.25A3.16,3.16,0,0,1,274.44,89.79Z"/><path class="cls-13" d="M274.44,89.79a7.23,7.23,0,0,0-.66.81,1.86,1.86,0,0,0-.1,1.4,5.28,5.28,0,0,0,.64,1.28,7.46,7.46,0,0,0,1.12,1.49,2.72,2.72,0,0,0,1.64.81,3.87,3.87,0,0,0,1.91-.51,2.09,2.09,0,0,0,.69-.45A2.13,2.13,0,0,0,280,94l.52-1.24a3.42,3.42,0,0,0,.3-1,3.52,3.52,0,0,0-.3-1.51l-.95-2.61a.88.88,0,0,0-.23-.4.86.86,0,0,0-.35-.15,10.13,10.13,0,0,0-1.83-.3,4.19,4.19,0,0,0-1.9.07c-.37.24-.21.85-.26,1.25A3.16,3.16,0,0,1,274.44,89.79Z"/><circle class="cls-12" cx="277.54" cy="85.04" r="4.13"/><path class="cls-15" d="M286.7,95.36a8.28,8.28,0,0,1-.88,3.28c-.45,1-1,2.08-1.47,3.15l-.1.26q-1.14,2.95-2,6l0,.15H269.37c.58-2.24,1.09-4.48-.32-6l-.13-.15c-.92-1.11-1.33-2.61-2.42-3.55a2.68,2.68,0,0,1-.7-.7,1.27,1.27,0,0,1-.13-.58,4,4,0,0,1,0-.53,5.54,5.54,0,0,1,.83-2.77,4.09,4.09,0,0,1,.95-.88,7.56,7.56,0,0,1,2.64-1.18,7.76,7.76,0,0,0,3.12-.95,3.69,3.69,0,0,1,.6-.45l.06,0a.62.62,0,0,1,.64.07.88.88,0,0,1,.21.45l.48,1.74a1.77,1.77,0,0,0,.36.78c.42.44,1.23.39,1.56.9.2.31.71-.05.94-.34a12.65,12.65,0,0,0,1.41-2.23,3.58,3.58,0,0,1,.52-.87,1.18,1.18,0,0,1,.58-.35.78.78,0,0,1,.33,0,1.56,1.56,0,0,1,.78.58,17.46,17.46,0,0,0,4.59,3.65.76.76,0,0,1,.34.28.57.57,0,0,1,.06.24A.45.45,0,0,1,286.7,95.36Z"/><path class="cls-15" d="M276.18,81.64c.69-.15,1.23.84,1.92.73.38-.06.68-.45,1.06-.43s.63.55.85.93a2.06,2.06,0,0,0,1.94,1,1,1,0,0,0,.07-1,3.31,3.31,0,0,1-.31-1c0-.48.3-1,0-1.41s-.65-.33-1-.51a4,4,0,0,1-.63-.58,2.21,2.21,0,0,0-1.29-.59,4.39,4.39,0,0,0-1.23.11l-1.9.36a.56.56,0,0,0-.3.12.82.82,0,0,0-.15.34c-.18.51-.75.75-1.2,1s-.9.84-.64,1.32c.15.27.48.44.52.75s-.19.49-.38.69c-.78.85,1,1.29,1.4.71S275.19,81.84,276.18,81.64Z"/><path class="cls-15" d="M288.64,108.18h-3.49c.06-1.43-.53-2.88-.6-4.34a10.74,10.74,0,0,0-.09-1.64,3.6,3.6,0,0,0-.11-.41c-.09-.28-.2-.55-.28-.83a9.54,9.54,0,0,1-.25-2.88q0-1.6.05-3.2c0-.28-.08-.69.17-.8.57-.26,1.16.26,1.68.6.31.21.67.37,1,.6a1.82,1.82,0,0,1,.46.46,2.59,2.59,0,0,1,.31.8q.63,2.42,1.1,4.88a15.85,15.85,0,0,1,.3,2.16C289,105.12,288.65,106.66,288.64,108.18Z"/><path class="cls-15" d="M267,106.52a2.69,2.69,0,0,0-.29,1.14,1.78,1.78,0,0,0,.12.52h-3.16a11.66,11.66,0,0,1-.36-1.64,12.33,12.33,0,0,1,.07-3.26,11.91,11.91,0,0,1,.55-2.47,25.21,25.21,0,0,1,1.44-2.93c.12-.23.22-.48.35-.7.27-.49.61-.85,1.29-.52,1.7.82,2.43,3.69,2,5.36a0,0,0,0,1,0,0,8.27,8.27,0,0,1-.5,1.23Q267.66,104.88,267,106.52Z"/><path class="cls-21" d="M86.4,251.26c-.53.88,1.6,71.87,1.6,71.87"/><rect class="cls-22" x="83.92" y="192.07" width="8.63" height="17.14" transform="translate(-5.72 2.61) rotate(-1.64)"/><path class="cls-23" d="M92.3,191.95l.18,8.69a7,7,0,0,1-8.47,1l-.3-8.7c.2-.26.4-.51.62-.76Z"/><path class="cls-22" d="M80.31,176.65s-4,7,0,18.1c.27.76,1.35,4.81,5.52,4.78,2.9,0,7.72.65,9.77-2.76,2.6-4.32,4.45-16.07.55-19.3S80.31,176.65,80.31,176.65Z"/><path class="cls-22" d="M94.35,188.55s5.82-2.73,8,.94S96,196.86,94.8,193.3,94.35,188.55,94.35,188.55Z"/><path class="cls-24" d="M80.93,181.93S82,178.47,83.64,180s2.66,1.87,8.64.76c6.87-1.28,3.77,8.82,3.77,8.82s2.21-2.49,4.12-1.75c0,0,1.53-11-2.58-12.52s-13.79-2.85-15-.74S80.93,181.93,80.93,181.93Z"/><path class="cls-22" d="M82.11,187.7s-5.8-2.73-8,.94,6.41,7.36,7.57,3.81S82.11,187.7,82.11,187.7Z"/><path class="cls-25" d="M80.31,191.75s-1.86.41-2.08-.86a.91.91,0,0,1,.81-1.2s-3.14-1.88-3.49,0S78.83,193.16,80.31,191.75Z"/><path class="cls-24" d="M96.27,181.58s-1.05-3.46-2.71-1.94-2.66,1.87-8.64.76c-6.87-1.28-3.77,8.82-3.77,8.82s-2.21-2.49-4.12-1.75c0,0-1.53-11,2.58-12.52s13.3-1.79,14.53.33A28,28,0,0,1,96.27,181.58Z"/><ellipse class="cls-3" cx="92.95" cy="186.9" rx="0.56" ry="1.18"/><ellipse class="cls-3" cx="84" cy="186.73" rx="0.56" ry="1.18"/><path class="cls-7" d="M85,192.63l6-.62s-2.39,7.87-5.81.59"/><path class="cls-25" d="M96.16,192.6s1.87.41,2.08-.86a.91.91,0,0,0-.81-1.2s3.15-1.88,3.5,0S97.64,194,96.16,192.6Z"/><circle class="cls-26" cx="83.34" cy="186.9" r="3.71" transform="translate(-32.24 18.03) rotate(-10.36)"/><circle class="cls-26" cx="92.95" cy="186.65" r="3.79" transform="translate(-32.04 19.75) rotate(-10.36)"/><line class="cls-27" x1="86.99" y1="186.23" x2="89.18" y2="186.31"/><path class="cls-28" d="M91.64,256.54,96,326.15s9.63,8.81,26.84,2.92l-17.65-73.15Z"/><path class="cls-28" d="M91.37,256.24l1.42,70s-14.68,8.69-31.9,2.8l17.65-73.15Z"/><path class="cls-3" d="M93.86,331.2H57.74c.23-1.49.71-4.51,1.71-5.79,3.14-4,6.23-3,6.23-3l27.11,3.81S93.93,331.12,93.86,331.2Z"/><path class="cls-3" d="M95.41,331.07h35.08a.43.43,0,0,0,.43-.53,14.7,14.7,0,0,0-2.22-5,10,10,0,0,0-2.57-2.22,8.13,8.13,0,0,0-5.47-1l-24.39,3.82a.43.43,0,0,0-.36.33c-.19.8-.73,3.1-.93,4.14A.43.43,0,0,0,95.41,331.07Z"/><path class="cls-29" d="M84,206.66s5.16,5.68,8.69-.95l6,.64a6.29,6.29,0,0,1,3.66,2.39c5.51,7.44,9.4,39.79,3.28,46.57-1.2,1.33-12.55.88-14.3.92-18.22.39-22.12.77-15.79-39.71l.21-6.64c2.74-2.76,4.59-1.61,6-2.88Z"/><path class="cls-22" d="M63.12,181.44s3.34-13.19,1.67-14.88-3.89,2.82-3.89,2.82.9,5.26,2.06-1.69c.72-4.29-10.17-12.15-13.46-3-3,8.34-1.13,11.94-1.13,11.94Z"/><path class="cls-29" d="M80.52,209s-15.11-7.81-14.29-30.49c.06-1.58-.11-3.15-1.28-4.21,0,0-9.62-1.14-16.21-4.14-1.95-.88-3.09.64-2.81,2.58,1.49,10.11,10.07,36.36,28.43,44.35Z"/><path class="cls-22" d="M130.15,202s7.25-11.51,9.63-11.47.64,4.76.64,4.76-4.43,3-.19-2.66c2.62-3.48,15.81-1,11.43,7.71-4,7.91-7.88,9-7.88,9Z"/><path class="cls-29" d="M98.21,208.34s16.08,5.56,31.94-10.67c1.1-1.13,2.36-2.09,3.93-2,0,0,7.46,6.18,14.17,8.89,2,.8,1.67,2.68.07,3.81-8.35,5.89-33.28,17.77-51.73,10Z"/><path class="cls-21" d="M91.64,256.54c1,0,9.65,75.22,1.6,71.87"/></svg>