<svg xmlns="http://www.w3.org/2000/svg" width="32" height="32" viewBox="0 0 32 32">
  <path id="Path_47" data-name="Path 47" d="M16,2.667A13.333,13.333,0,1,1,2.667,16,13.348,13.348,0,0,1,16,2.667ZM16,0A16,16,0,1,0,32,16,16.018,16.018,0,0,0,16,0ZM26.695,12.791a11.934,11.934,0,0,0-.688-1.656l-3.272,1.475a8.226,8.226,0,0,1,.689,1.656ZM9.931,11.585a7.99,7.99,0,0,1,1.225-1.276L8.636,7.685A11.657,11.657,0,0,0,7.412,8.961Zm2.287-2.019a7.518,7.518,0,0,1,1.6-.7L12.436,5.444a11.15,11.15,0,0,0-1.6.7ZM8.539,14.388A8.31,8.31,0,0,1,9.2,12.721L5.909,11.3a11.954,11.954,0,0,0-.664,1.667ZM21.117,6.121a11.061,11.061,0,0,0-1.6-.692L18.152,8.86a7.482,7.482,0,0,1,1.6.692Zm3.468,2.84a11.662,11.662,0,0,0-1.224-1.276l-2.52,2.624a8.038,8.038,0,0,1,1.224,1.276ZM16.864,4.883c-.292-.023-.583-.035-.865-.035s-.575.012-.867.035V8.595a7.426,7.426,0,0,1,1.732,0ZM16,23.259A3.124,3.124,0,0,1,14.489,17.4L16,10.32,17.511,17.4A3.125,3.125,0,0,1,16,23.259Z" fill="#888889"/>
</svg>
