<svg xmlns="http://www.w3.org/2000/svg" xmlns:xlink="http://www.w3.org/1999/xlink" width="250" height="200" viewBox="0 0 250 200"><defs><clipPath id="a"><rect width="250" height="200" transform="translate(342 579)" fill="#fff" stroke="#026e08" stroke-width="2"/></clipPath></defs><g transform="translate(-342 -579)" clip-path="url(#a)"><g transform="translate(359.179 579)"><path d="M210.988,200H4.2A4.063,4.063,0,0,1,0,196.093V3.907A4.063,4.063,0,0,1,4.2,0H210.988a4.063,4.063,0,0,1,4.2,3.906V196.093A4.063,4.063,0,0,1,210.988,200Z" transform="translate(0 0)" fill="#fff5f5"/><path d="M235.753,6.045V193.956a6.284,6.284,0,0,1-6.5,6.045H214.542a6.284,6.284,0,0,0,6.5-6.045V6.045A6.284,6.284,0,0,0,214.542,0h14.708a6.284,6.284,0,0,1,6.5,6.045Z" transform="translate(-20.56 0)" fill="#efe2dd"/><path d="M215.191,35.025H0V3.907A4.063,4.063,0,0,1,4.2,0H210.988a4.063,4.063,0,0,1,4.2,3.906Z" transform="translate(0 0)" fill="#00aaf2"/><path d="M235.753,6.045V35.024H221.046V6.045A6.284,6.284,0,0,0,214.542,0h14.708a6.284,6.284,0,0,1,6.5,6.045Z" transform="translate(-20.56 0)" fill="#0091d0"/><ellipse cx="7.129" cy="6.625" rx="7.129" ry="6.625" transform="translate(18.517 11.402)" fill="#ff5757"/><ellipse cx="7.129" cy="6.625" rx="7.129" ry="6.625" transform="translate(46.048 11.402)" fill="#ffc143"/><ellipse cx="7.129" cy="6.625" rx="7.129" ry="6.625" transform="translate(73.58 11.402)" fill="#a3e72d"/><path d="M34.97,20.2a6.885,6.885,0,0,1-7.124,6.621,7.379,7.379,0,0,1-4.918-1.831,6.87,6.87,0,0,0,6.962-6.616,6.387,6.387,0,0,0-2.211-4.795c.054,0,.113,0,.167,0A6.887,6.887,0,0,1,34.97,20.2Z" transform="translate(-2.197 -2.167)" fill="#ff4343"/><path d="M65.42,20.2a6.886,6.886,0,0,1-7.129,6.621,7.389,7.389,0,0,1-4.918-1.831A6.871,6.871,0,0,0,60.34,18.37a6.387,6.387,0,0,0-2.211-4.795c.054,0,.108,0,.162,0A6.888,6.888,0,0,1,65.42,20.2Z" transform="translate(-5.115 -2.167)" fill="#ffb509"/><path d="M95.871,20.2a6.889,6.889,0,0,1-7.129,6.621,7.389,7.389,0,0,1-4.918-1.831,6.867,6.867,0,0,0,6.962-6.616,6.387,6.387,0,0,0-2.211-4.795c.054,0,.113,0,.167,0A6.891,6.891,0,0,1,95.871,20.2Z" transform="translate(-8.033 -2.167)" fill="#80cf00"/><path d="M192.392,80.078H27.585a2.524,2.524,0,0,1-2.611-2.427V63.123A2.524,2.524,0,0,1,27.585,60.7H192.392A2.524,2.524,0,0,1,195,63.123V77.651A2.524,2.524,0,0,1,192.392,80.078Z" transform="translate(-2.393 -9.691)" fill="#a3e72d"/><path d="M192.392,118.474H27.585a2.524,2.524,0,0,1-2.611-2.427V101.519a2.524,2.524,0,0,1,2.611-2.427H192.392A2.524,2.524,0,0,1,195,101.519v14.528A2.524,2.524,0,0,1,192.392,118.474Z" transform="translate(-2.393 -15.822)" fill="#a3e72d"/><path d="M209.107,80.078h-9.722V60.7h9.722a2.524,2.524,0,0,1,2.611,2.427V77.651A2.524,2.524,0,0,1,209.107,80.078Z" transform="translate(-19.108 -9.691)" fill="#80cf00"/><path d="M209.107,118.474h-9.722V99.091h9.722a2.524,2.524,0,0,1,2.611,2.427v14.528A2.524,2.524,0,0,1,209.107,118.474Z" transform="translate(-19.108 -15.822)" fill="#80cf00"/><path d="M192.392,179.35H27.585a2.524,2.524,0,0,1-2.611-2.427V139.914a2.524,2.524,0,0,1,2.611-2.427H192.392A2.524,2.524,0,0,1,195,139.914v37.009A2.524,2.524,0,0,1,192.392,179.35Z" transform="translate(-2.393 -21.952)" fill="#c9f0ff"/><path d="M199.384,137.489h9.723a2.524,2.524,0,0,1,2.611,2.427v37.007a2.524,2.524,0,0,1-2.611,2.427h-9.723Z" transform="translate(-19.108 -21.952)" fill="#9ae7fd"/><path d="M205.964,217.513H169.205a2.524,2.524,0,0,1-2.611-2.427V205.062a2.524,2.524,0,0,1,2.611-2.427h36.759a2.524,2.524,0,0,1,2.611,2.427v10.024A2.524,2.524,0,0,1,205.964,217.513Z" transform="translate(-15.965 -32.354)" fill="#ff5757"/><path d="M209.107,217.513h-9.722V202.635h9.722a2.524,2.524,0,0,1,2.611,2.427v10.024A2.524,2.524,0,0,1,209.107,217.513Z" transform="translate(-19.108 -32.354)" fill="#f72c2c"/><g transform="translate(33.536 125.731)"><path d="M50.952,155.48H40.243a2.938,2.938,0,1,1,0-5.859H50.952a2.938,2.938,0,1,1,0,5.859Z" transform="translate(-37.091 -149.62)" fill="#7ca1b1"/><path d="M130.689,155.48H65.351a2.938,2.938,0,1,1,0-5.859h65.338a2.938,2.938,0,1,1,0,5.859Z" transform="translate(-39.497 -149.62)" fill="#7ca1b1"/><path d="M124.105,167.712H100.21a2.938,2.938,0,1,1,0-5.859h23.895a2.938,2.938,0,1,1,0,5.859Z" transform="translate(-42.837 -151.573)" fill="#7ca1b1"/><path d="M85.6,167.712H78.152a2.938,2.938,0,1,1,0-5.859H85.6a2.938,2.938,0,1,1,0,5.859Z" transform="translate(-40.724 -151.573)" fill="#7ca1b1"/><path d="M62.531,167.712H40.243a2.938,2.938,0,1,1,0-5.859H62.531a2.938,2.938,0,1,1,0,5.859Z" transform="translate(-37.091 -151.573)" fill="#7ca1b1"/></g></g></g></svg>