<svg id="Layer_1" data-name="Layer 1" xmlns="http://www.w3.org/2000/svg" xmlns:xlink="http://www.w3.org/1999/xlink" viewBox="0 0 400 400"><defs><style>.cls-1,.cls-16{fill:none;}.cls-2{fill:#333954;}.cls-3{opacity:0.5;isolation:isolate;}.cls-4{fill:#006838;}.cls-5{clip-path:url(#clip-path);}.cls-6{fill:#8cc544;}.cls-7{clip-path:url(#clip-path-2);}.cls-8{fill:#fff;}.cls-9{fill:#89c540;}.cls-10{fill:#227d3e;}.cls-11{fill:#403e56;}.cls-12{fill:#834e58;}.cls-13{fill:#d1cde2;}.cls-14{fill:#f9b7b8;}.cls-15{fill:#6466af;}.cls-16{stroke:#d1cde2;stroke-miterlimit:10;stroke-width:2px;}.cls-17{fill:#302e41;}.cls-18{fill:#a0626b;}.cls-19{fill:#83c55d;}</style><clipPath id="clip-path"><rect class="cls-1" x="105.3" y="95.83" width="87.3" height="70.67" transform="translate(0.32 -0.37) rotate(0.14)"/></clipPath><clipPath id="clip-path-2"><rect class="cls-1" x="206.95" y="117.86" width="78.72" height="63.72" transform="translate(492.62 299.44) rotate(180)"/></clipPath></defs><title>double checkout</title><path class="cls-2" d="M318.64,340.58h0s0,0,0,0Z"/><g class="cls-3"><path class="cls-4" d="M348.49,275.33c-1.57.87-3.25,1.71-5,2.52-8.35,3.87-18.78,7.23-30.73,10.12l-2.25.54-.19,0c-1.42.34-2.86.66-4.32,1-13.15,2.87-27.85,5.22-43.44,7.1l-.88.11-.21,0c-20.81,2.47-43.15,4.09-65.42,4.94q-5.25.2-10.49.35l-1.77,0-1.55,0q-3.36.08-6.7.14l-2.52,0-1.91,0c-5.49.07-10.93.1-16.32.08-46-.14-87.15-3.54-107.84-9.36-59.79-16.83-46.61-58.29-8.78-66.71S23.69,169,84,136.67c36.64-19.62,75,23.05,106.76-11.07C238.13,74.71,280,83,306.41,109.31c29.75,29.62,5.88,65.74,37.74,63.89C391.89,170.44,420.39,235.31,348.49,275.33Z"/></g><ellipse class="cls-4" cx="208.72" cy="324.6" rx="179.18" ry="9.01"/><g class="cls-5"><rect class="cls-4" x="129.03" y="101.4" width="123.77" height="58.24" transform="translate(0.32 -0.47) rotate(0.14)"/><rect class="cls-6" x="140.45" y="106.77" width="100.93" height="47.49" transform="translate(0.32 -0.47) rotate(0.14)"/><path class="cls-4" d="M210.62,131.6c-.41,11.52-9.28,19.28-19,17.52s-17.35-10.15-17-19.29,8.42-17.31,18.17-18.1S211,120.09,210.62,131.6Z"/><path class="cls-4" d="M140,105.53q-.23,5.19-.47,10.35c6.46.18,11.89-4.53,12.1-10.54C147.81,105.48,143.93,105.55,140,105.53Z"/><path class="cls-4" d="M139.66,154.61q5.85.27,11.7.75c.27-5.83-4.75-10.8-11.22-11Q139.9,149.47,139.66,154.61Z"/><path class="cls-4" d="M244.11,158.19c.88-5.39,1.59-10.74,2.12-16.09-6.84-1-12.78,4.84-13.82,13.29Z"/><path class="cls-4" d="M242.77,102.67q-6.14.31-12.15.71c.67,8.55,6.23,15.33,13.2,15.59Q243.61,110.86,242.77,102.67Z"/><path class="cls-4" d="M166.87,130.58a4,4,0,0,1-8-.26,3.93,3.93,0,0,1,4.15-3.52A3.77,3.77,0,0,1,166.87,130.58Z"/><path class="cls-4" d="M227,132.89c-.1,2.83-2.1,4.89-4.41,4.64s-4.05-2.62-4-5.29,2-4.76,4.3-4.67S227.09,130.06,227,132.89Z"/></g><g class="cls-7"><rect class="cls-4" x="152.67" y="124.14" width="111.61" height="52.52" transform="translate(416.94 300.79) rotate(180)"/><rect class="cls-6" x="162.97" y="128.98" width="91.01" height="42.83" transform="translate(416.94 300.79) rotate(180)"/><path class="cls-4" d="M190.7,149.47c.34-10.39,8.33-17.41,17.12-15.84s15.67,9.11,15.37,17.36-7.55,15.63-16.34,16.36S190.43,159.84,190.7,149.47Z"/><path class="cls-4" d="M254.4,172.81q.2-4.68.4-9.33c-5.83-.15-10.71,4.11-10.88,9.53C247.4,172.88,250.89,172.8,254.4,172.81Z"/><path class="cls-4" d="M254.64,128.56q-5.28-.23-10.55-.65c-.23,5.26,4.31,9.73,10.14,9.92Q254.43,133.2,254.64,128.56Z"/><path class="cls-4" d="M160.44,125.56c-.78,4.86-1.41,9.69-1.88,14.52,6.17.9,11.51-4.39,12.43-12Z"/><path class="cls-4" d="M161.78,175.62q5.53-.29,11-.67c-.62-7.71-5.65-13.81-11.94-14Q161,168.24,161.78,175.62Z"/><path class="cls-4" d="M230.15,150.28a3.62,3.62,0,0,1,7.21.22,3.54,3.54,0,0,1-3.73,3.18A3.4,3.4,0,0,1,230.15,150.28Z"/><path class="cls-4" d="M175.94,148.34c.08-2.55,1.89-4.41,4-4.19s3.66,2.35,3.59,4.76-1.78,4.3-3.86,4.22S175.86,150.89,175.94,148.34Z"/></g><rect class="cls-8" x="199.69" y="95.39" width="3.93" height="224.91"/><path class="cls-9" d="M195.46,297.88c5,5.35,5.24,13.2,5.24,13.2s-7.82-.81-12.8-6.16-5.24-13.2-5.24-13.2S190.48,292.54,195.46,297.88Z"/><path class="cls-10" d="M211.15,306.23c-5.35,5-13.2,5.24-13.2,5.24s.81-7.82,6.16-12.8,13.2-5.24,13.2-5.24S216.49,301.25,211.15,306.23Z"/><path class="cls-11" d="M209.82,322.09H190.16a2,2,0,0,1-1.81-1.13l-4.28-8.8a2,2,0,0,1,1.81-2.89H214.1a2,2,0,0,1,1.81,2.89l-4.28,8.8A2,2,0,0,1,209.82,322.09Z"/><path class="cls-12" d="M285.9,206.59s3.08,23.25-1.66,25.86,28.24,2.85,28.24,2.85-7.36-20.17-4-26.34Z"/><path class="cls-13" d="M336.56,235.42l-2.74,12.49L328,274.33l-.17,1.45-2,16.75-1.33,11.13-.89,7.48c-5.43,2.79-9.36,4.72-9.36,4.72s-.34-1.7-.88-3.87a83,83,0,0,1-16.83,3.42c2.18,2.42,3.17,4.7,1.82,6.38-4.09,5.07-21-5.55-26.89-9.51a16,16,0,0,0-.16,2.86l-4.52-3.48.45-8,.75-13.54.95-17a17.82,17.82,0,0,1-.75-2.23c-1.38-4.92-3.07-14.76-4.35-23-1-6.64-1.82-12.24-2-13.44l0-.24,25-11.06c1.78,4.13,10.09,5.37,10.09,5.37a27.86,27.86,0,0,0,12.28-4.1Z"/><path class="cls-14" d="M316.15,311.11s-1.06.36-2.78.88a83,83,0,0,1-16.83,3.42c-5.14.33-9.49-.46-10.28-3.82a3.55,3.55,0,0,1,1.2-3.6c3.14-2.91,11.35-4,17.87-4.32,1.84-.1,3.54-.15,5-.16,2.4,0,4,0,4,0l0,.15Z"/><path class="cls-13" d="M354.35,292.84c-1.67,1.81-5.8,4.53-10.81,7.48-1.86,1.1-3.85,2.22-5.87,3.35-4.83,2.68-9.88,5.33-14.06,7.48-5.43,2.79-9.36,4.72-9.36,4.72s-.34-1.7-.88-3.87c-.73-2.91-1.83-6.66-3-8.32l-.12-.16c-.33-.44-.67-.69-1-.69l16.57-10.27,7.16-4.44-5.16-12.31-6.47-15.45,3.91-12.43,3.93-12.49h7.36s2.44,5.32,5.55,12.73c.47,1.11.95,2.26,1.44,3.46C350,267.19,357.94,289,354.35,292.84Z"/><path class="cls-14" d="M298.36,321.78c-4.09,5.07-21-5.55-26.89-9.51-1.29-.86-2.05-1.41-2.05-1.41l5.41-7.21,1.71-2.28s1.53.81,3.8,2.14l.25.15c2,1.15,4.4,2.64,6.88,4.32a51.9,51.9,0,0,1,9.09,7.42C298.71,317.83,299.71,320.1,298.36,321.78Z"/><path class="cls-13" d="M280.32,303.52a10.64,10.64,0,0,0-1.8.15c-5.12.88-6.63,5.51-7.06,8.62a16,16,0,0,0-.16,2.86l-4.52-3.48-1.65-1.27a30,30,0,0,1-10.56-6.73,53.09,53.09,0,0,1-7.11-8.44,74.39,74.39,0,0,1-5.5-9.44,6.94,6.94,0,0,1-.1-5.89l5.6-12.48,8.18-18.24q.09-.65.2-1.27c1.62-9.31,6-13.44,6-13.44h3.32l2.22,13.44,2.76,16.7-1.93,6.31-4.47,14.57,4.27,4.64Z"/><path class="cls-15" d="M284.08,264.62l2.84,3.31c1.06-.2,2.16-.44,3.29-.7l-.82-2.61,2,2.33a269.36,269.36,0,0,0,26.92-8.71s-16.09,1.18-28.1-1.44a11.43,11.43,0,0,0-13,6.46c-1.27,2.9-1.07,5.41,3.43,5.41a29.69,29.69,0,0,0,4.53-.43Z"/><path class="cls-11" d="M348.82,319.07v1.35a3,3,0,0,1-.2,1.08,3.05,3.05,0,0,1-.22.45,3,3,0,0,1-2.57,1.46H246.41a3,3,0,0,1-2.57-1.46,3,3,0,0,1-.22-.45,3,3,0,0,1-.2-1.08v-1.35a3,3,0,0,1,3-3h5.73v-.63a.12.12,0,0,1,.12-.12h3a.12.12,0,0,1,.12.12h0v.63h1.87v-.63a.12.12,0,0,1,.12-.12h3a.12.12,0,0,1,.12.12h0v.63h1.87v-.63a.12.12,0,0,1,.12-.12h3a.12.12,0,0,1,.12.12h0v.63h1.87v-.63a.12.12,0,0,1,.12-.12h3a.12.12,0,0,1,.12.12h0v.63h1.87v-.63a.12.12,0,0,1,.12-.12h3a.12.12,0,0,1,.12.12h0v.63h1.87v-.63a.12.12,0,0,1,.12-.12h3a.12.12,0,0,1,.12.12h0v.63h1.87v-.63a.12.12,0,0,1,.12-.12h23.42a.12.12,0,0,1,.12.12h0v.63h1.87v-.63a.12.12,0,0,1,.12-.12h3a.13.13,0,0,1,.12.12v.63h1.87v-.63a.12.12,0,0,1,.12-.12h3a.12.12,0,0,1,.12.12h0v.63h1.87v-.63a.12.12,0,0,1,.12-.12h3a.12.12,0,0,1,.12.12h0v.63h1.87v-.63a.12.12,0,0,1,.12-.12h3a.12.12,0,0,1,.12.12v.63h1.87v-.63a.12.12,0,0,1,.12-.12h3a.12.12,0,0,1,.12.12h0v.63h1.87v-.63a.12.12,0,0,1,.12-.12h3a.12.12,0,0,1,.12.12h0v.63h8.72a3,3,0,0,1,3,3Z"/><path class="cls-11" d="M340.82,262.16H303.76v-.76H287v.76H249.75a2.51,2.51,0,0,0-2.51,2.51h0V315.4a2.51,2.51,0,0,0,2.51,2.51h91.07a2.51,2.51,0,0,0,2.51-2.51h0V264.66a2.51,2.51,0,0,0-2.51-2.51Z"/><circle class="cls-16" cx="295.35" cy="279.87" r="5.57"/><circle class="cls-13" cx="293.57" cy="281.88" r="5.57"/><circle class="cls-17" cx="130.15" cy="229.47" r="8.1"/><path class="cls-17" d="M132.41,221.59a8.1,8.1,0,0,1,7.13,11.95,8.1,8.1,0,1,0-13.46-8.9A8.08,8.08,0,0,1,132.41,221.59Z"/><circle class="cls-17" cx="115.01" cy="205.65" r="23.8"/><path class="cls-17" d="M96.33,190.88a23.8,23.8,0,0,1,33-2.5l-.59-.55a23.8,23.8,0,0,0-31.63,35.58l.62.52A23.8,23.8,0,0,1,96.33,190.88Z"/><circle class="cls-18" cx="114.8" cy="213.92" r="15.33"/><path class="cls-18" d="M103.91,218.76s2,18.56-1.21,20.57,18.56,4.84,18.56,4.84S118,224,126.1,218.76Z"/><path class="cls-19" d="M123.28,236.11s6-2.81-2.64-1.81a31.32,31.32,0,0,1-16.12-2.83s-2.62-2.62-3,.2,1.21,8.07-7.67,8.88S76.88,238.93,73.66,245,72,277.26,72,277.26s6.05,21.79,10.89,25,47.2-1.21,47.2-1.21l12.1-21.79V253.86s-1.61-8.88-12.91-6.45c0,0-7.26-1.61-6.86-5.24S123.28,236.11,123.28,236.11Z"/><path class="cls-17" d="M84.53,317.69c.25-1.09.42-1.7.42-1.7l-.13-.88-1.33-9-.56-3.81C87.77,300.25,89,291,89,291l.18-.11.83-.49h0l3-1.78.06,0,1.2.8L96.65,291a28.61,28.61,0,0,0,22.53,5.16,24.81,24.81,0,0,0,5.3-1.53l5.87-2,.18-.06.18,0,3.44.52h.06l.28,0-.8,5.51-1.16,8c3.05,1.62,5.77,4.65,8.14,8.4q.79,1.24,1.53,2.58c.64,1.16,1.25,2.36,1.84,3.6l.21.45c.22.48.45,1,.66,1.46H83.47c.08-.49.16-1,.24-1.41v0c0-.15.06-.3.08-.45C84.07,319.81,84.33,318.59,84.53,317.69Z"/><path class="cls-17" d="M82.13,240.14A31,31,0,0,1,85,258.3c-1.61,10.09,4.84,35.1,4.84,35.1l4.84-1.21s-3.23-21-2.42-25.82S93,242.56,89,240.14,82.13,240.14,82.13,240.14Z"/><path class="cls-17" d="M129,248.53l1.7,44.67,3.23,2s4.64-49,2.22-49h-4.93a2.22,2.22,0,0,0-2.22,2.22S129,248.49,129,248.53Z"/><circle class="cls-15" cx="92.01" cy="290.37" r="2.02"/><circle class="cls-15" cx="132.35" cy="292.39" r="2.02"/><polygon class="cls-17" points="101.69 194.75 101.69 210.09 105.24 210.09 109.76 205.24 109.16 210.09 124.85 210.09 123.88 205.24 125.82 210.09 128.32 210.09 128.32 194.75 101.69 194.75"/><ellipse class="cls-18" cx="99.27" cy="210.69" rx="1.21" ry="2.22"/><ellipse class="cls-18" cx="130.34" cy="210.69" rx="1.21" ry="2.22"/><path class="cls-18" d="M138.61,292.18s-18.36-3.43-19.57,2.62,20.37,3.43,20.37,3.43Z"/><path class="cls-19" d="M138.2,250.63s44,35.1,35.91,43.57-38.73,6.05-38.73,6.05l2-10.09,17.75-2-8.88-8.88-8.07.81Z"/><path class="cls-18" d="M73.25,309.13l5.65,4.44s4,12.51,10.09,8.88-5.65-16.54-5.65-16.54l-6.86-2.42Z"/><path class="cls-19" d="M78.9,244.18l-5.63,1.7s-39.15,29-40.76,37,7.67,12.51,7.67,12.51L75.27,312l3.63-9.68L62.36,293.8s1.21-2.42-3.63-2.82-5.65-5.65-5.65-5.65S62.76,270.4,68,273.63s6.86,5.65,6.86,5.65Z"/><path class="cls-11" d="M159.24,319.07v1.35a3,3,0,0,1-.2,1.08,3,3,0,0,1-.22.45,3,3,0,0,1-2.57,1.46H56.83a3,3,0,0,1-2.57-1.46,3,3,0,0,1-.22-.45,3,3,0,0,1-.2-1.08v-1.35a3,3,0,0,1,3-3h5.73v-.63a.12.12,0,0,1,.12-.12h3a.12.12,0,0,1,.12.12h0v.63h1.87v-.63a.12.12,0,0,1,.12-.12h3a.12.12,0,0,1,.12.12h0v.63h1.87v-.63a.12.12,0,0,1,.12-.12h3a.12.12,0,0,1,.12.12h0v.63h1.87v-.63a.12.12,0,0,1,.12-.12h3a.12.12,0,0,1,.12.12h0v.63H83v-.63a.12.12,0,0,1,.12-.12h3a.12.12,0,0,1,.12.12h0v.63H88.1v-.63a.12.12,0,0,1,.12-.12h3a.12.12,0,0,1,.12.12h0v.63h1.87v-.63a.12.12,0,0,1,.12-.12h23.42a.12.12,0,0,1,.12.12h0v.63h1.87v-.63a.12.12,0,0,1,.12-.12h3a.13.13,0,0,1,.12.12v.63h1.87v-.63a.12.12,0,0,1,.12-.12h3a.12.12,0,0,1,.12.12h0v.63H129v-.63a.12.12,0,0,1,.12-.12h3a.12.12,0,0,1,.12.12h0v.63h1.87v-.63a.12.12,0,0,1,.12-.12h3a.12.12,0,0,1,.12.12v.63h1.87v-.63a.12.12,0,0,1,.12-.12h3a.12.12,0,0,1,.12.12h0v.63h1.87v-.63a.12.12,0,0,1,.12-.12h3a.12.12,0,0,1,.12.12h0v.63h8.72a3,3,0,0,1,3,3Z"/><path class="cls-11" d="M151.23,262.16H114.18v-.76H97.38v.76H60.17a2.51,2.51,0,0,0-2.51,2.51V315.4a2.51,2.51,0,0,0,2.51,2.51h91.07a2.51,2.51,0,0,0,2.51-2.51V264.66A2.51,2.51,0,0,0,151.23,262.16Z"/><circle class="cls-16" cx="105.77" cy="279.87" r="5.57"/><circle class="cls-13" cx="103.99" cy="281.87" r="5.57"/><rect class="cls-11" x="36.42" y="321.75" width="329.21" height="0.69"/><circle class="cls-18" cx="298.12" cy="198.41" r="16.37"/><path class="cls-17" d="M284.5,182.92l-3.06-1.23s6.4-7,15.31-6.43l-2.5-2.76s6.12-2.45,11.69,4c2.93,3.38,6.31,7.36,8.42,11.84h3.28l-1.37,3,4.79,3-4.92-.54a16.83,16.83,0,0,1,.13,5A6.47,6.47,0,0,1,313.9,203h0s-3.8-7.86-3.8-9.08V197s-3.06-2.76-3.06-4.6l-1.67,2.14-.83-3.37-10.3,3.37,1.67-2.76-6.4.92,2.5-3.37s-7.24,4-7.51,7.35a16.18,16.18,0,0,1-2.4,6.56S276.43,187.51,284.5,182.92Z"/><circle class="cls-8" cx="272.95" cy="137.84" r="2.36"/><circle class="cls-8" cx="272.95" cy="164.31" r="2.36"/><rect class="cls-8" x="282.88" y="135.95" width="44.91" height="3.78"/><rect class="cls-8" x="282.88" y="149.18" width="44.91" height="3.78"/><rect class="cls-8" x="282.88" y="162.42" width="44.91" height="3.78"/><circle class="cls-8" cx="66.16" cy="117.79" r="2.36"/><circle class="cls-8" cx="66.16" cy="144.26" r="2.36"/><rect class="cls-8" x="76.09" y="115.9" width="44.91" height="3.78"/><rect class="cls-8" x="76.09" y="129.13" width="44.91" height="3.78"/><rect class="cls-8" x="76.09" y="142.37" width="44.91" height="3.78"/></svg>