<?xml version="1.0"?>
<svg xmlns="http://www.w3.org/2000/svg" xmlns:xlink="http://www.w3.org/1999/xlink" xmlns:svgjs="http://svgjs.com/svgjs" version="1.1" width="512" height="512" x="0" y="0" viewBox="0 0 64 64" style="enable-background:new 0 0 512 512" xml:space="preserve" class=""><g transform="matrix(1.08,0,0,1.08,-2.6404980468750097,-2.532389297485352)"><link type="text/css" id="black-mode" rel="stylesheet"/><style type="text/css" id="black-mode-custom-style"/><g xmlns="http://www.w3.org/2000/svg" id="Email_maketing" data-name="Email maketing"><path d="m49.387 4.341h2v20h-2z" transform="matrix(.966 -.259 .259 .966 -1.995 13.53)" fill="#3366cc" data-original="#000000" style="" class=""/><path d="m4.684 27.863 19.194 15.355 6.247-5a3 3 0 0 1 3.747 0l6.255 5.005 19.188-15.36-3.639-3.131a1.986 1.986 0 0 1 -1.217.941l-2.724.73a1.98 1.98 0 0 1 -.711.058l-16.454-1.6 1.767 6.592a3.143 3.143 0 0 1 -.035 1.869 3 3 0 0 1 -2.058 1.909 3 3 0 0 1 -2.728-.615 3.137 3.137 0 0 1 -.972-1.6l-1.785-6.663-.966.258a6 6 0 0 1 -7.466-4.767 6.165 6.165 0 0 1 4.595-6.887l6.35-1.7 6.078-4.344-4.69-4.019a1 1 0 0 0 -1.314 0z" fill="#3366cc" data-original="#000000" style="" class=""/><path d="m32.852 14.581 2.229 8.32 14.882 1.448-4.947-18.463z" fill="#3366cc" data-original="#000000" style="" class=""/><path d="m32.967 33.2a1 1 0 0 0 .758.1 1 1 0 0 0 .707-1.224l-1.812-6.762-1.932.518 1.812 6.76a.991.991 0 0 0 .467.608z" fill="#3366cc" data-original="#000000" style="" class=""/><path d="m31 15.4-5.8 1.553a4 4 0 0 0 2.071 7.728l5.8-1.553z" fill="#3366cc" data-original="#000000" style="" class=""/><path d="m60 59v-29.123l-18.273 14.623 18.252 14.6a.946.946 0 0 0 .021-.1z" fill="#3366cc" data-original="#000000" style="" class=""/><path d="m32.625 39.781a1.017 1.017 0 0 0 -1.253 0l-25.267 20.219h51.789z" fill="#3366cc" data-original="#000000" style="" class=""/><path d="m4 59a.9.9 0 0 0 .021.106l18.257-14.606-18.278-14.624z" fill="#3366cc" data-original="#000000" style="" class=""/><path d="m55.216 13.047a1 1 0 0 0 .966.742.972.972 0 0 0 .259-.035l3.864-1.035a1 1 0 1 0 -.518-1.932l-3.864 1.036a1 1 0 0 0 -.707 1.224z" fill="#3366cc" data-original="#000000" style="" class=""/><path d="m54.042 8.15a1 1 0 0 0 .708-.293l2.828-2.828a1 1 0 1 0 -1.414-1.414l-2.829 2.828a1 1 0 0 0 .707 1.707z" fill="#3366cc" data-original="#000000" style="" class=""/><path d="m56.182 18.482a1 1 0 0 0 .707 1.225l3.864 1.035a.972.972 0 0 0 .259.035 1 1 0 0 0 .259-1.966l-3.864-1.036a1 1 0 0 0 -1.225.707z" fill="#3366cc" data-original="#000000" style="" class=""/></g></g></svg>