<?xml version="1.0" encoding="utf-8"?>
<!-- Generator: Adobe Illustrator 23.1.1, SVG Export Plug-In . SVG Version: 6.00 Build 0)  -->
<svg version="1.1" id="Capa_1" xmlns="http://www.w3.org/2000/svg" xmlns:xlink="http://www.w3.org/1999/xlink" x="0px" y="0px"
	 viewBox="0 0 512 512" style="enable-background:new 0 0 512 512;" xml:space="preserve">
<style type="text/css">
	.st0{fill:#FFFFFF;}
</style>
<g>
	<path class="st0" d="M475.9,268c-19-3.9-44.7-6-74.4-6c-12.2,0-23.8,0.4-34.5,1.1V27.5C367,12.3,354.7,0,339.5,0h-312
		C11.6,0,0,13.2,0,31.5v415C0,457.4,12,470,27.5,470H291v11.5c0,17,27.2,22.6,36.1,24.5c19,3.9,44.7,6,74.4,6s55.4-2.1,74.4-6
		c8.9-1.9,36.1-7.5,36.1-24.5v-189C512,275.5,484.8,269.9,475.9,268z M497,387c-0.2,0.3-3.3,5.8-26.7,10.3
		c-17.8,3.4-41.6,5.2-68.8,5.2s-51-1.8-68.8-5.2c-24-4.6-26.7-10.3-26.7-10.3v-29.2c7.9,3.7,16.7,5.5,21.1,6.4c19,3.9,44.7,6,74.4,6
		s55.4-2.1,74.4-6c4.4-0.9,13.3-2.8,21.1-6.4V387z M193,388.5c-4.1,0-7.5,3.4-7.5,7.5v19h-114c-3.9,0-6.5-3.2-6.5-4.5V336h120.5v25
		c0,4.1,3.4,7.5,7.5,7.5s7.5-3.4,7.5-7.5v-25H291v79h-90.5v-19C200.5,391.9,197.1,388.5,193,388.5z M321,269.4
		c-11.5,2.8-30,9.1-30,23.1V321h-90.5v-79h114c3.6,0,6.5,2.9,6.5,6.5V269.4z M185.5,321H65v-70.5c0-5.1,2.6-8.5,6.5-8.5h114V321z
		 M497,339.7c-0.2,0.3-3.3,5.8-26.7,10.3c-17.8,3.4-41.6,5.2-68.8,5.2s-51-1.8-68.8-5.2c-24-4.6-26.7-10.3-26.7-10.3v-29.2
		c7.9,3.7,16.7,5.5,21.1,6.4c19,3.9,44.7,6,74.4,6s55.4-2.1,74.4-6c4.4-0.9,13.3-2.8,21.1-6.4V339.7z M470.3,282.2
		c22.6,4.3,26.3,9.6,26.7,10.3c-0.4,0.6-4.1,5.9-26.7,10.3c-17.8,3.4-41.6,5.2-68.8,5.2s-51-1.8-68.8-5.2
		c-22.6-4.3-26.3-9.6-26.7-10.3c0.4-0.6,4.1-5.9,26.7-10.3c17.8-3.4,41.6-5.2,68.8-5.2S452.5,278.8,470.3,282.2z M27.5,455
		c-7.2,0-12.5-6-12.5-8.5V202h247c4.1,0,7.5-3.4,7.5-7.5s-3.4-7.5-7.5-7.5H15V31.5c0-10,4.9-16.5,12.5-16.5h312
		c6.9,0,12.5,5.6,12.5,12.5V187h-55c-4.1,0-7.5,3.4-7.5,7.5s3.4,7.5,7.5,7.5h55v62.3c-5.7,0.6-11,1.3-16,2.1v-17.9
		c0-11.9-9.6-21.5-21.5-21.5h-243C59.2,227,50,237.1,50,250.5v160c0,10.4,10,19.5,21.5,19.5H291v25H27.5z M470.3,491.8
		c-17.8,3.4-41.6,5.2-68.8,5.2s-51-1.8-68.8-5.2c-24-4.6-26.7-10.3-26.7-10.3v-29.2c7.9,3.7,16.7,5.5,21.1,6.4c19,3.9,44.7,6,74.4,6
		c14.3,0,27.8-0.5,40.2-1.5c4.1-0.3,7.2-3.9,6.9-8.1s-3.9-7.2-8.1-6.9c-12,0.9-25.2,1.4-39.1,1.4c-27.2,0-51-1.8-68.8-5.2
		c-24-4.6-26.7-10.3-26.7-10.3V405c7.9,3.7,16.7,5.5,21.1,6.4c19,3.9,44.7,6,74.4,6s55.4-2.1,74.4-6c4.4-0.9,13.3-2.8,21.1-6.4v29.2
		c-0.2,0.3-2.9,5.2-22.8,9.5c-4,0.9-6.6,4.9-5.7,8.9c0.9,4.1,5,6.6,8.9,5.7c4.1-0.9,12.2-2.7,19.6-6.1v29.2
		C496.8,481.8,493.7,487.3,470.3,491.8z"/>
	<path class="st0" d="M337,140.5v-79c0-11.9-9.6-21.5-21.5-21.5H150c-4.1,0-7.5,3.4-7.5,7.5s3.4,7.5,7.5,7.5h165.5
		c3.6,0,6.5,2.9,6.5,6.5v79c0,3.6-2.9,6.5-6.5,6.5h-244c-3.6,0-6.5-2.9-6.5-6.5v-79c0-3.6,2.9-6.5,6.5-6.5H115
		c4.1,0,7.5-3.4,7.5-7.5S119.1,40,115,40H71.5C59.6,40,50,49.6,50,61.5v79c0,11.9,9.6,21.5,21.5,21.5h244
		C327.4,162,337,152.4,337,140.5z"/>
	<path class="st0" d="M157.5,368h-54c-4.1,0-7.5,3.4-7.5,7.5s3.4,7.5,7.5,7.5h54c4.1,0,7.5-3.4,7.5-7.5S161.6,368,157.5,368z"/>
	<path class="st0" d="M108.5,289H123v14.5c0,4.1,3.4,7.5,7.5,7.5c4.1,0,7.5-3.4,7.5-7.5V289h14.5c4.1,0,7.5-3.4,7.5-7.5
		s-3.4-7.5-7.5-7.5H138v-14.5c0-4.1-3.4-7.5-7.5-7.5s-7.5,3.4-7.5,7.5V274h-14.5c-4.1,0-7.5,3.4-7.5,7.5S104.4,289,108.5,289z"/>
	<path class="st0" d="M276.9,260.6c-2.9-2.9-7.7-2.9-10.6,0L256,270.9l-10.3-10.3c-2.9-2.9-7.7-2.9-10.6,0c-2.9,2.9-2.9,7.7,0,10.6
		l10.3,10.3l-10.3,10.3c-2.9,2.9-2.9,7.7,0,10.6c2.9,2.9,7.7,2.9,10.6,0l10.3-10.3l10.3,10.3c2.9,2.9,7.7,2.9,10.6,0
		c2.9-2.9,2.9-7.7,0-10.6l-10.3-10.3l10.3-10.3C279.8,268.3,279.8,263.6,276.9,260.6z"/>
	<path class="st0" d="M239.1,400.1c1.9,0,3.8-0.7,5.3-2.2l34-34c2.9-2.9,2.9-7.7,0-10.6c-2.9-2.9-7.7-2.9-10.6,0l-34,34
		c-2.9,2.9-2.9,7.7,0,10.6C235.3,399.4,237.2,400.1,239.1,400.1L239.1,400.1z"/>
	<g>
		<circle class="st0" cx="241.5" cy="356.5" r="7.5"/>
		<circle class="st0" cx="271.5" cy="394.5" r="7.5"/>
	</g>
	<path class="st0" d="M290.5,133c9.6,0,17.5-7.9,17.5-17.5v-29c0-9.6-7.9-17.5-17.5-17.5h-14c-9.6,0-17.5,7.9-17.5,17.5v29
		c0,9.6,7.9,17.5,17.5,17.5H290.5z M274,115.5v-29c0-1.4,1.1-2.5,2.5-2.5h14c1.4,0,2.5,1.1,2.5,2.5v29c0,1.4-1.1,2.5-2.5,2.5h-14
		C275.1,118,274,116.9,274,115.5z"/>
</g>
</svg>
