<svg id="Layer_1" data-name="Layer 1" xmlns="http://www.w3.org/2000/svg" xmlns:xlink="http://www.w3.org/1999/xlink" viewBox="0 0 960.23 907.01"><defs><style>.cls-1{fill:#c8f29c;}.cls-2{fill:url(#linear-gradient);}.cls-3{fill:url(#linear-gradient-2);}.cls-4{fill:#fff;}.cls-5{fill:url(#linear-gradient-3);}.cls-6{fill:url(#linear-gradient-4);}.cls-7{fill:url(#linear-gradient-5);}</style><linearGradient id="linear-gradient" x1="144.77" y1="664.32" x2="715.43" y2="664.32" gradientUnits="userSpaceOnUse"><stop offset="0" stop-color="#8dc63f"/><stop offset="0.22" stop-color="#6dbb40"/><stop offset="1" stop-color="#009444"/></linearGradient><linearGradient id="linear-gradient-2" x1="38.08" y1="356.59" x2="500.66" y2="356.59" xlink:href="#linear-gradient"/><linearGradient id="linear-gradient-3" x1="111.35" y1="356.58" x2="427.42" y2="356.58" xlink:href="#linear-gradient"/><linearGradient id="linear-gradient-4" x1="555.94" y1="373.55" x2="677.35" y2="373.55" xlink:href="#linear-gradient"/><linearGradient id="linear-gradient-5" x1="810.52" y1="869.51" x2="931.92" y2="869.51" xlink:href="#linear-gradient"/></defs><title>furniture</title><path d="M743.77,749.83V594.93a42.16,42.16,0,0,0-42.14-42.1H158.57a42.15,42.15,0,0,0-42.1,42.1V749.83a44.1,44.1,0,0,0,14.17,85.88h599a44.1,44.1,0,0,0,14.17-85.88Zm-599-154.91a13.81,13.81,0,0,1,13.79-13.79H701.63a13.81,13.81,0,0,1,13.79,13.79V747.5H144.77ZM729.6,807.4h-599a15.8,15.8,0,0,1,0-31.59h599a15.8,15.8,0,0,1,0,31.59Z" transform="translate(-38.08 -43.71)"/><path class="cls-1" d="M745.38,791.59A15.81,15.81,0,0,1,729.6,807.4h-599a15.8,15.8,0,0,1,0-31.59h599A15.78,15.78,0,0,1,745.38,791.59Z" transform="translate(-38.08 -43.71)"/><path class="cls-2" d="M701.63,581.14H158.57a13.81,13.81,0,0,0-13.79,13.79V747.5H715.43V594.93A13.81,13.81,0,0,0,701.63,581.14Zm-480.19,84.5H191.27V637.33h30.18Zm224.66,0H415.89V637.33h30.22Zm224.66,0H638.68V637.33h32.09Z" transform="translate(-38.08 -43.71)"/><path d="M771.81,607.12H759.5v28.32h12.31c16,0,16,3.83,16,9.13V833.81c0,12.9-8.68,28.18-16,28.18H88.43c-8.36,0-19.88-16.33-19.88-28.18V644.57c0-3,0-9.13,19.88-9.13h12.21V607.12H88.43c-12.59,0-23,2.27-30.8,6.74-11.22,6.4-17.4,17.3-17.4,30.71V833.81c0,11.9,4.89,25.52,13.09,36.43,9.57,12.75,22.37,20.06,35.11,20.06h12.21v60.41H129V890.3H744.4v60.41h28.32V890.27c28-.71,43.42-33.62,43.42-56.46V644.57C816.14,630.58,810.38,607.12,771.81,607.12Z" transform="translate(-38.08 -43.71)"/><rect class="cls-1" x="153.19" y="593.62" width="30.18" height="28.31"/><rect class="cls-1" x="600.6" y="593.62" width="32.09" height="28.31"/><rect class="cls-1" x="377.81" y="593.62" width="30.22" height="28.31"/><path class="cls-3" d="M38.08,192.69V520.5H500.66V192.69ZM472.35,492.15H66.42V221H472.35Z" transform="translate(-38.08 -43.71)"/><path class="cls-4" d="M66.42,221V492.15H472.35V221ZM455.73,475.57H83v-238H455.73Z" transform="translate(-38.08 -43.71)"/><path d="M83,237.62v238H455.73v-238ZM427.42,447.23H111.35V265.92H427.42Z" transform="translate(-38.08 -43.71)"/><path class="cls-5" d="M111.35,265.92v181.3H427.42V265.92Zm125.57,35.72,20,20L227,351.61l-20-20Zm64.9,109.87-20-20,29.95-29.95,20,20Zm-74.84,0-20-20L311.75,286.67l20.06,20Z" transform="translate(-38.08 -43.71)"/><path d="M520.79,313.23v208H788.7v-208Zm239.56,179.7H549.1V341.58H760.35Z" transform="translate(-38.08 -43.71)"/><path d="M565.71,358.16V476.31H743.77V358.16ZM715.43,448H594V386.5h121.4Z" transform="translate(-38.08 -43.71)"/><rect class="cls-6" x="555.94" y="342.79" width="121.4" height="61.5"/><path d="M654.73,43.71a119,119,0,1,0,119,119A119.11,119.11,0,0,0,654.73,43.71Zm14.16,208.53V237.1H640.57v15.13a90.87,90.87,0,0,1-75.07-73.65H582V150.26h-17.1a90.85,90.85,0,0,1,75.63-77.12V93.62h28.32V73.14a90.85,90.85,0,0,1,75.63,77.12h-19v28.32H744A90.87,90.87,0,0,1,668.89,252.24Z" transform="translate(-38.08 -43.71)"/><polygon points="602.49 72.57 602.49 106.55 555.29 106.55 555.29 134.87 630.81 134.87 630.81 72.57 602.49 72.57"/><path d="M923.74,876.59V542.94H895.43V876.59H820.25v73.23H998.31V876.59ZM970,921.51H848.6V904.93H970Z" transform="translate(-38.08 -43.71)"/><rect class="cls-7" x="810.52" y="861.22" width="121.4" height="16.58"/><path d="M850.2,178.46V506.26h45.23v23.46h28.31V506.26h44.62V178.46Zm89.85,255H895.43v28.31H940V478H878.51V206.8H940Z" transform="translate(-38.08 -43.71)"/><polygon class="cls-1" points="857.35 389.74 857.35 418.05 901.97 418.05 901.97 434.25 840.43 434.25 840.43 163.09 901.97 163.09 901.97 389.74 857.35 389.74"/><rect class="cls-4" x="210.77" y="312.47" width="42.36" height="28.31" transform="translate(-201.1 215.97) rotate(-45)"/><polygon class="cls-4" points="293.73 262.98 188.91 367.8 168.89 347.78 273.67 242.96 293.73 262.98"/><rect class="cls-4" x="285.61" y="372.37" width="42.36" height="28.31" transform="translate(-221.54 286.43) rotate(-45)"/></svg>