<?xml version="1.0"?>
<svg xmlns="http://www.w3.org/2000/svg" xmlns:xlink="http://www.w3.org/1999/xlink" xmlns:svgjs="http://svgjs.com/svgjs" version="1.1" width="512" height="512" x="0" y="0" viewBox="0 0 512 512" style="enable-background:new 0 0 512 512" xml:space="preserve" class=""><g><link type="text/css" id="black-mode" rel="stylesheet"/><style type="text/css" id="black-mode-custom-style"/>
<path xmlns="http://www.w3.org/2000/svg" style="" d="M512,256c0,141.385-114.615,256-256,256S0,397.385,0,256S114.615,0,256,0S512,114.615,512,256z" fill="#ffffff" data-original="#f0faa0" class=""/>
<path xmlns="http://www.w3.org/2000/svg" style="" d="M176,333v62c0,2.761-2.239,5-5,5H61c-2.761,0-5-2.239-5-5v-62c0-2.761,2.239-5,5-5h110  C173.761,328,176,330.239,176,333z M171,240H61c-2.761,0-5,2.239-5,5v62c0,2.761,2.239,5,5,5h110c2.761,0,5-2.239,5-5v-62  C176,242.239,173.761,240,171,240z M307,328H197c-2.761,0-5,2.239-5,5v62c0,2.761,2.239,5,5,5h110c2.761,0,5-2.239,5-5v-62  C312,330.239,309.761,328,307,328z M307,240H197c-2.761,0-5,2.239-5,5v62c0,2.761,2.239,5,5,5h110c2.761,0,5-2.239,5-5v-62  C312,242.239,309.761,240,307,240z M451,328H341c-2.761,0-5,2.239-5,5v62c0,2.761,2.239,5,5,5h110c2.761,0,5-2.239,5-5v-62  C456,330.239,453.761,328,451,328z M451,240H341c-2.761,0-5,2.239-5,5v62c0,2.761,2.239,5,5,5h110c2.761,0,5-2.239,5-5v-62  C456,242.239,453.761,240,451,240z" fill="#ebf582" data-original="#ebf582" class=""/>
<path xmlns="http://www.w3.org/2000/svg" style="" d="M452.561,420c-46.96,56.222-117.578,92-196.561,92s-149.601-35.778-196.561-92H452.561z" fill="#ffffff" data-original="#f2c230" class=""/>
<path xmlns="http://www.w3.org/2000/svg" style="" d="M415,25v130c0,2.761-2.239,5-5,5H260c-2.761,0-5-2.239-5-5V25c0-2.761,2.239-5,5-5h150  C412.761,20,415,22.239,415,25z" fill="#d29650" data-original="#d29650" class=""/>
<path xmlns="http://www.w3.org/2000/svg" style="" d="M445,262.5L195,300V150h250V262.5z" fill="#aa6432" data-original="#aa6432" class=""/>
<path xmlns="http://www.w3.org/2000/svg" style="" d="M300,60h-45V40h45c2.761,0,5,2.239,5,5v10C305,57.761,302.761,60,300,60z" fill="#f7d139" data-original="#f7d139"/>
<path xmlns="http://www.w3.org/2000/svg" style="" d="M400,447.5c0,5.523-4.477,10-10,10H290c-5.523,0-10-4.477-10-10s4.477-10,10-10h100  C395.523,437.5,400,441.977,400,447.5z M200,437.5H75.513c7.134,7.095,14.675,13.78,22.601,20H200c5.523,0,10-4.477,10-10  S205.523,437.5,200,437.5z" fill="#ffffff" data-original="#e3a600" class=""/>
<path xmlns="http://www.w3.org/2000/svg" style="" d="M290,240h-95v-60h95c2.761,0,5,2.239,5,5v50C295,237.761,292.761,240,290,240z" fill="#ff6633" data-original="#ff6633" class=""/>
<path xmlns="http://www.w3.org/2000/svg" style="" d="M487,77.5H224.991c-0.011,0-0.023,0-0.034,0h-92.15l-8.106-32.425  c-1.209-4.837-5.756-7.953-10.568-7.527c-0.307-0.029-0.618-0.048-0.933-0.048H34.8c-5.412,0-9.8,4.477-9.8,10s4.387,10,9.8,10  h72.393l8.034,32.138L154.57,297.17l-19.056,57.168c-1.747,5.239,1.085,10.902,6.325,12.649c1.049,0.35,2.115,0.516,3.164,0.516  c4.187,0,8.089-2.65,9.485-6.841l17.664-52.992l316.113-40.25c4.994-0.636,8.737-4.885,8.737-9.92v-59.876c0-0.001,0-0.002,0-0.002  L497,87.5C497,81.977,492.523,77.5,487,77.5z M137.073,97.5h78.924l5.027,47.76l-74.482,2.19L137.073,97.5z M150.315,167.348  l72.81-2.141l4.807,45.663l-68.197,6.162L150.315,167.348z M173.072,287.392l-9.596-50.617l66.549-6.014l5.03,47.786  c0.033,0.316,0.082,0.628,0.143,0.934L173.072,287.392z M236.107,97.5h78.905c0,0.195-0.007,0.39,0.005,0.587l2.608,44.331  l-76.552,2.251L236.107,97.5z M243.172,164.617l75.627-2.224l2.356,40.053l-73.304,6.624L243.172,164.617z M254.972,276.963  c-0.009-0.17-0.01-0.339-0.028-0.51l-4.999-47.492l72.385-6.541l2.684,45.625L254.972,276.963z M335.017,97.5H405v42.349  l-67.375,1.981L335.017,97.5z M338.8,161.804l66.2-1.947v35.011l-63.915,5.776L338.8,161.804z M344.9,265.513l-2.641-44.893  L405,214.95v42.55c0,0.121,0.014,0.238,0.018,0.358L344.9,265.513z M477,248.692l-52,6.621v-42.17l52-4.699V248.692z M477,188.363  l-52,4.699V159.27l52-1.529V188.363z M477,137.731l-52,1.529V97.5h52V137.731z" fill="#414669" data-original="#414669" class=""/>
<path xmlns="http://www.w3.org/2000/svg" style="" d="M445,345v20c0,2.761-2.239,5-5,5H140c-2.761,0-5-2.239-5-5v-20c0-2.761,2.239-5,5-5h300  C442.761,340,445,342.239,445,345z M78.75,30h-42.5C25.894,30,17.5,38.395,17.5,48.75l0,0c0,10.355,8.395,18.75,18.75,18.75h42.5  c10.355,0,18.75-8.395,18.75-18.75l0,0C97.5,38.395,89.105,30,78.75,30z" fill="#ff6633" data-original="#ff6633" class=""/>
<path xmlns="http://www.w3.org/2000/svg" style="" d="M405,342.5v70c0,2.761-2.239,5-5,5h-20c-2.761,0-5-2.239-5-5v-70c0-2.761,2.239-5,5-5h20  C402.761,337.5,405,339.739,405,342.5z M210,337.5h-20c-2.761,0-5,2.239-5,5v70c0,2.761,2.239,5,5,5h20c2.761,0,5-2.239,5-5v-70  C215,339.739,212.761,337.5,210,337.5z" fill="#ff5019" data-original="#ff5019" class=""/>
<path xmlns="http://www.w3.org/2000/svg" style="" d="M425,422.5c0,19.33-15.67,35-35,35s-35-15.67-35-35s15.67-35,35-35S425,403.17,425,422.5z M200,387.5  c-19.33,0-35,15.67-35,35s15.67,35,35,35s35-15.67,35-35S219.33,387.5,200,387.5z" fill="#501e0f" data-original="#501e0f" class=""/>
<path xmlns="http://www.w3.org/2000/svg" style="" d="M410,422.5c0,11.046-8.954,20-20,20s-20-8.954-20-20s8.954-20,20-20  C401.045,402.5,410,411.454,410,422.5z M200,402.5c-11.046,0-20,8.954-20,20s8.954,20,20,20s20-8.954,20-20S211.045,402.5,200,402.5  z" fill="#b9783d" data-original="#b9783d" class=""/>
<g xmlns="http://www.w3.org/2000/svg">
</g>
<g xmlns="http://www.w3.org/2000/svg">
</g>
<g xmlns="http://www.w3.org/2000/svg">
</g>
<g xmlns="http://www.w3.org/2000/svg">
</g>
<g xmlns="http://www.w3.org/2000/svg">
</g>
<g xmlns="http://www.w3.org/2000/svg">
</g>
<g xmlns="http://www.w3.org/2000/svg">
</g>
<g xmlns="http://www.w3.org/2000/svg">
</g>
<g xmlns="http://www.w3.org/2000/svg">
</g>
<g xmlns="http://www.w3.org/2000/svg">
</g>
<g xmlns="http://www.w3.org/2000/svg">
</g>
<g xmlns="http://www.w3.org/2000/svg">
</g>
<g xmlns="http://www.w3.org/2000/svg">
</g>
<g xmlns="http://www.w3.org/2000/svg">
</g>
<g xmlns="http://www.w3.org/2000/svg">
</g>
</g></svg>
