<svg id="Capa_1" enable-background="new 0 0 512 512" height="512" viewBox="0 0 512 512" width="512" xmlns="http://www.w3.org/2000/svg"><g><path d="m395.301 510.631h-395.301s2.936-41.29 23.004-85.711c6.459-14.299 19.295-24.693 34.573-28.268 10.631-2.483 24.611-5.367 40.641-8.087 7.469-1.277 15.381-2.514 23.601-3.657 23.416-3.255 49.315-5.8 75.832-5.8 26.857 0 52.199 2.483 75.832 5.8 25.507 3.585 48.831 8.149 64.252 11.744 15.267 3.575 28.114 13.969 34.563 28.268 20.067 44.422 23.003 85.711 23.003 85.711z" fill="#c3bec6"/><path d="m98.217 388.565c-9.952 4.358-18.234 15.185-22.52 29.783-14.021 47.821-16.06 92.284-16.06 92.284h-59.637s2.936-41.29 23.004-85.711c6.459-14.299 19.295-24.693 34.573-28.268 10.631-2.483 24.611-5.368 40.64-8.088z" fill="#b4acb7"/><path d="m282.477 100.941h70.888v212.56h-70.888z" fill="#c3bec6" transform="matrix(.707 .707 -.707 .707 239.644 -164.11)"/><path d="m290.493 85.029h24.456v209.12h-24.456z" fill="#b4acb7" transform="matrix(.707 .707 -.707 .707 222.724 -158.527)"/><path d="m121.822 316.883c0-41.88 33.95-75.831 75.83-75.831s75.831 33.95 75.831 75.831v68.03h-151.661z" fill="#f9f6f9"/><path d="m208.95 241.897c-36.521 5.444-64.536 36.939-64.536 74.985v68.037h-22.592v-68.037c0-41.881 33.95-75.832 75.832-75.832 3.835.001 7.618.283 11.296.847z" fill="#e2dfe2"/><circle cx="197.653" cy="316.883" fill="#b4acb7" r="24.434"/><path d="m222.087 316.883c0 13.495-10.941 24.436-24.436 24.436-2.328 0-4.584-.33-6.717-.948 10.23-2.915 17.709-12.331 17.709-23.488s-7.479-20.573-17.709-23.488c2.132-.618 4.389-.948 6.717-.948 13.495 0 24.436 10.94 24.436 24.436z" fill="#665e66"/><g fill="#f9f6f9"><path d="m45.781 56.844c-2.689 0-5.3-1.405-6.724-3.909-2.109-3.71-.81-8.427 2.899-10.535 47.222-26.842 101.061-41.03 155.697-41.03 44.877 0 88.234 9.23 128.867 27.433 3.894 1.744 5.637 6.316 3.892 10.21s-6.314 5.638-10.21 3.892c-38.632-17.307-79.864-26.082-122.549-26.082-51.963 0-103.161 13.49-148.061 39.012-1.206.683-2.518 1.009-3.811 1.009z"/><path d="m33.443 114.422c-2.295 0-4.567-1.018-6.091-2.966-2.63-3.361-2.037-8.217 1.324-10.846 48.643-38.057 107.074-58.172 168.976-58.172 30.507 0 60.474 4.972 89.069 14.778 4.036 1.384 6.186 5.778 4.802 9.815-1.384 4.036-5.778 6.186-9.815 4.802-26.978-9.252-55.258-13.943-84.056-13.943-58.418 0-113.556 18.981-159.454 54.891-1.413 1.105-3.091 1.641-4.755 1.641z"/><path d="m91.961 183.723c-2.347 0-4.664-1.065-6.183-3.086-2.563-3.411-1.876-8.255 1.536-10.818 32.022-24.062 70.176-36.78 110.339-36.78 24.815 0 48.892 4.862 71.562 14.451 3.93 1.662 5.769 6.196 4.107 10.126s-6.193 5.77-10.126 4.106c-20.755-8.779-42.807-13.23-65.543-13.23-36.788 0-71.732 11.647-101.056 33.681-1.391 1.046-3.021 1.55-4.636 1.55z"/></g><path d="m477.387 150.969c-20.436 12.871-43.121 21.969-55.604 26.491-6.186 2.241-13.041 1.548-18.698-1.811-18.989-11.275-30.654-22.939-30.654-22.939s-11.664-11.664-22.939-30.654c-3.359-5.658-4.052-12.512-1.811-18.698 4.522-12.482 13.62-35.168 26.491-55.604 1.735-2.754 4.068-5.088 6.822-6.822 20.436-12.871 43.121-21.969 55.604-26.491 6.186-2.241 13.041-1.548 18.698 1.811 18.989 11.275 30.654 22.939 30.654 22.939s11.664 11.664 22.939 30.654c3.359 5.658 4.053 12.512 1.811 18.698-4.522 12.482-13.62 35.168-26.491 55.604-1.734 2.754-4.067 5.087-6.822 6.822z" fill="#da4a54"/><path d="m465.699 22.916c-1.578.7-3.218 1.599-4.89 2.685-11.829 7.67-33.605 22.341-54.682 39.457-2.842 2.309-5.517 4.984-7.827 7.827-17.116 21.077-31.798 42.853-39.468 54.682-1.087 1.672-1.985 3.302-2.685 4.88-2.174-3.156-4.42-6.625-6.656-10.387-3.365-5.664-4.054-12.519-1.808-18.705 4.514-12.477 13.616-35.163 26.49-55.602 1.735-2.759 4.065-5.089 6.823-6.823 20.429-12.874 43.115-21.965 55.602-26.489 6.186-2.247 13.041-1.547 18.694 1.808 3.772 2.236 7.252 4.493 10.407 6.667z" fill="#d82e3d"/></g></svg>