<?xml version="1.0" encoding="utf-8"?>
<!-- Generator: Adobe Illustrator 23.1.1, SVG Export Plug-In . SVG Version: 6.00 Build 0)  -->
<svg version="1.1" id="Capa_1" xmlns="http://www.w3.org/2000/svg" xmlns:xlink="http://www.w3.org/1999/xlink" x="0px" y="0px"
	 viewBox="0 0 512 512" style="enable-background:new 0 0 512 512;" xml:space="preserve">
<style type="text/css">
	.st0{fill:#2DA134;}
	.st1{fill:#14871B;}
	.st2{fill:#026E09;}
	.st3{fill:#005105;}
</style>
<path class="st0" d="M110.7,278.1c-4-1.7-8.6-0.7-11.6,2.3L64,315.6l-35.1-35.1c-4.2-4.2-10.9-4.2-15.1,0c-2,2-3.1,4.7-3.1,7.6
	v213.3c0,5.9,4.8,10.7,10.7,10.7h85.3c5.9,0,10.7-4.8,10.7-10.7V288C117.3,283.7,114.7,279.8,110.7,278.1z"/>
<path class="st1" d="M199.6,195.1c-4.2-4.2-10.9-4.2-15.1,0l-42.7,42.7c-2,2-3.1,4.7-3.1,7.6v256c0,5.9,4.8,10.7,10.7,10.7h85.3
	c5.9,0,10.7-4.8,10.7-10.7v-256c0-2.8-1.1-5.5-3.1-7.6L199.6,195.1z"/>
<path class="st2" d="M327.6,152.4c-4.2-4.2-10.9-4.2-15.1,0l-42.7,42.7c-2,2-3.1,4.7-3.1,7.6v298.7c0,5.9,4.8,10.7,10.7,10.7h85.3
	c5.9,0,10.7-4.8,10.7-10.7V202.7c0-2.8-1.1-5.5-3.1-7.6L327.6,152.4z"/>
<path class="st3" d="M498.2,131.1l-21.3-21.3c-2-2-4.7-3.1-7.6-3.1H448c-2.8,0-5.5,1.1-7.6,3.1l-42.7,42.7c-2,2-3.1,4.7-3.1,7.6
	v341.3c0,5.9,4.8,10.7,10.7,10.7h85.3c5.9,0,10.7-4.8,10.7-10.7V138.7C501.3,135.8,500.2,133.1,498.2,131.1z"/>
<path class="st2" d="M490.7,0h-64C420.8,0,416,4.8,416,10.6c0,2.8,1.1,5.6,3.1,7.6l24.5,24.4l-80.9,80.9l-35.1-35.1
	c-4.2-4.2-10.9-4.2-15.1,0l-77.8,77.8l-35.1-35.1c-4.2-4.2-10.9-4.2-15.1,0L64,251.6l-35.1-35.1c-4.2-4.1-11-4-15.1,0.3
	c-4,4.1-4,10.7,0,14.8l42.7,42.7c4.2,4.2,10.9,4.2,15.1,0L192,153.7l35.1,35.1c4.2,4.2,10.9,4.2,15.1,0L320,111l35.1,35.1
	c4.2,4.2,10.9,4.2,15.1,0l88.5-88.4l24.4,24.4c2,2,4.7,3.1,7.6,3.1c1.4,0,2.8-0.3,4.1-0.8c4-1.6,6.6-5.5,6.6-9.9v-64
	C501.3,4.8,496.6,0,490.7,0z"/>
</svg>
