<svg id="Layer_1" data-name="Layer 1" xmlns="http://www.w3.org/2000/svg" viewBox="0 0 400 400"><defs><style>.cls-1{opacity:0.5;isolation:isolate;}.cls-2{fill:#006838;}.cls-3{fill:#754937;}.cls-4,.cls-6{fill:#563327;}.cls-4{opacity:0.76;}.cls-5{fill:#232223;}.cls-13,.cls-7{fill:#333954;}.cls-8{fill:#fff;}.cls-10,.cls-9{fill:none;stroke-linecap:round;}.cls-10,.cls-13,.cls-9{stroke:#333954;stroke-miterlimit:10;}.cls-9{stroke-width:0.75px;}.cls-11{fill:#464f73;}.cls-12{fill:#27aae1;}.cls-14,.cls-15{fill:#2b3990;}.cls-15{opacity:0.17;}.cls-16{fill:#00ad83;}.cls-17{fill:#009b81;}.cls-18{fill:#fbaf2f;}.cls-19{fill:#ffe45f;}.cls-20{fill:#9a4a22;}.cls-21{fill:#d67d48;}.cls-22{fill:#f6b63d;}.cls-23{fill:#ec8c55;}.cls-24{opacity:0.14;}.cls-25{opacity:0.04;}</style></defs><title>Make Credit Sales</title><g class="cls-1"><path class="cls-2" d="M350,236.51c-1.58.88-3.27,1.72-5.06,2.54-8.42,3.9-18.94,7.29-31,10.2l-2.27.54-.19,0c-1.43.34-2.89.67-4.36,1-13.26,2.9-28.09,5.27-43.81,7.16l-.89.11-.21,0c-21,2.49-43.52,4.13-66,5q-5.3.2-10.58.35l-1.78,0-1.56,0q-3.39.08-6.76.14l-2.54,0-1.92,0c-5.53.08-11,.1-16.46.09-46.41-.15-87.9-3.57-108.77-9.44-60.31-17-47-58.79-8.86-67.28S22.38,129.23,83.21,96.66c37-19.78,75.66,23.25,107.68-11.16,47.77-51.34,90-43,116.64-16.44,30,29.88,5.93,66.3,38.06,64.45C393.75,130.71,422.49,196.14,350,236.51Z"/></g><ellipse class="cls-2" cx="212.37" cy="306.59" rx="180.72" ry="9.09"/><rect class="cls-3" x="131.92" y="105.97" width="12.34" height="24.53" transform="translate(-3.33 4.01) rotate(-1.64)"/><path class="cls-4" d="M143.9,105.8l.25,12.44c-3.25,3.46-8.54,3.48-12.12,1.41l-.43-12.44c.29-.37.57-.73.88-1.08Z"/><path class="cls-3" d="M126.76,83.9s-5.75,10,0,25.89c.39,1.08,1.93,6.89,7.9,6.83,4.16,0,11,.93,14-4,3.72-6.18,6.36-23,.79-27.61S126.76,83.9,126.76,83.9Z"/><path class="cls-3" d="M146.85,100.94s8.32-3.91,11.49,1.35-9.2,10.53-10.86,5.44S146.85,100.94,146.85,100.94Z"/><path class="cls-5" d="M127.63,91.46s1.51-4.95,3.88-2.78,3.81,2.68,12.36,1.09c9.83-1.82,5.4,12.61,5.4,12.61s3.17-3.57,5.89-2.51c0,0,2.19-15.75-3.69-17.91S131.75,77.88,130,80.91,127.63,91.46,127.63,91.46Z"/><path class="cls-3" d="M129.33,99.73s-8.3-3.91-11.45,1.35,9.17,10.53,10.82,5.44S129.33,99.73,129.33,99.73Z"/><path class="cls-6" d="M126.76,105.52s-2.66.58-3-1.23a1.31,1.31,0,0,1,1.16-1.72s-4.49-2.69-5,0S124.64,107.54,126.76,105.52Z"/><path class="cls-5" d="M149.58,91s-1.51-4.95-3.88-2.78-3.81,2.68-12.36,1.09c-9.83-1.82-5.4,12.61-5.4,12.61s-3.17-3.57-5.89-2.51c0,0-2.19-15.75,3.69-17.91s19-2.56,20.79.47S149.58,91,149.58,91Z"/><ellipse class="cls-7" cx="144.84" cy="98.58" rx="0.8" ry="1.69"/><ellipse class="cls-7" cx="132.03" cy="98.33" rx="0.8" ry="1.69"/><path class="cls-8" d="M133.41,106.77l8.57-.88s-3.42,11.26-8.32.85"/><path class="cls-6" d="M149.43,106.73s2.67.58,3-1.23a1.31,1.31,0,0,0-1.16-1.72s4.51-2.69,5,0S151.55,108.75,149.43,106.73Z"/><circle class="cls-9" cx="131.09" cy="98.58" r="5.31" transform="translate(-15.58 25.17) rotate(-10.36)"/><circle class="cls-9" cx="144.84" cy="98.21" r="5.42" transform="translate(-15.3 27.64) rotate(-10.36)"/><line class="cls-10" x1="136.32" y1="97.62" x2="139.44" y2="97.73"/><path class="cls-11" d="M143,198.22l6.19,99.58s13.77,12.6,38.4,4.17L162.3,197.31Z"/><path class="cls-11" d="M142.57,197.77l2,100.19s-21,12.44-45.63,4l25.25-104.66Z"/><path class="cls-7" d="M146.14,305H94.47c.33-2.14,1-6.46,2.44-8.28,4.49-5.73,8.91-4.24,8.91-4.24L144.6,298S146.24,304.92,146.14,305Z"/><path class="cls-7" d="M148.36,304.84h50.19a.62.62,0,0,0,.61-.76,21,21,0,0,0-3.17-7.17,14.36,14.36,0,0,0-3.67-3.18,11.63,11.63,0,0,0-7.83-1.49l-34.89,5.47a.62.62,0,0,0-.51.47c-.27,1.15-1,4.44-1.34,5.92A.62.62,0,0,0,148.36,304.84Z"/><path class="cls-12" d="M166.7,186.5c-.12.78-.26,1.53-.41,2.24-.72,3.39-1.8,6.07-3.27,7.71-1.72,1.89-18,1.27-20.45,1.32-24.92.53-36.6-4.23-29.67-55.23a15.32,15.32,0,0,1,7.36-11.1,10.89,10.89,0,0,1,2.59-2l0,0a8.55,8.55,0,0,1,2.38-.84c1.41-.31,2.57-.35,3.59-1.26l3.15-.5s7.39,8.12,12.44-1.35l8.63.91a9.1,9.1,0,0,1,5.24,3.43c3.73,5,6.94,18.06,8.35,31.42.11.93.2,1.88.28,2.81C167.68,172.21,167.69,180.26,166.7,186.5Z"/><path class="cls-13" d="M143,198.22c1.41,0,13.8,107.62,2.29,102.82"/><path class="cls-14" d="M166.7,186.5a10.13,10.13,0,0,1-3.61-1.41l-2.78-20.76s3-.2,6.66-.27C167.68,172.21,167.69,180.26,166.7,186.5Z"/><path class="cls-15" d="M172,187.08c0,2.13-2,2.95-4.23,2.19l-1.46-.53c-12.78-4.82-36.54-20.12-44.24-43.11a6.87,6.87,0,0,1,1.73-7.16l-.92-9v-.14a.62.62,0,0,0,.05.11c.81,1.81,12.82,27.25,42.08,31.46a11.9,11.9,0,0,1,1.7.35c.11.93.2,1.88.28,2.81.7,8.15.72,16.2-.27,22.44A23.1,23.1,0,0,0,172,187.08Z"/><path class="cls-15" d="M166.36,189.6c0,2.13-2,2.95-4.23,2.19l-1.46-.53c-12.78-4.82-36.54-20.12-44.24-43.11a6.87,6.87,0,0,1,1.73-7.16l-.92-9v-.14a.62.62,0,0,0,.05.11c.81,1.81,12.82,27.25,42.08,31.46a11.9,11.9,0,0,1,1.7.35c.11.93.2,1.88.28,2.81.7,8.15.72,16.2-.27,22.44A23.1,23.1,0,0,0,166.36,189.6Z"/><path class="cls-3" d="M154.24,163.79s19.46.4,21.16,3.35-5.36,4.3-5.36,4.3-6.91-3.24,3.11-2.2c6.19.64,12.89,18.64-1,19.7-12.63,1-16.9-3-16.9-3Z"/><path class="cls-12" d="M122.86,129.33s5,23.82,36.63,31.29c2.2.52,4.3,1.35,5.32,3.36,0,0-2.08,13.7-.45,23.93.48,3-2.05,4-4.62,2.89-12.63-5.56-37.91-24.36-44.1-50.32a7.27,7.27,0,0,1,2.5-7.38Z"/><path class="cls-3" d="M198.16,142.33s17.47-8.71,20.37-6.89-2.76,6.3-2.76,6.3-7.65.36,1.74-3.39c5.8-2.32,20.16,10.49,8.29,17.91C215,163,209.4,161.49,209.4,161.49Z"/><path class="cls-12" d="M154.18,126.45s15.6,18.73,47.17,10.63c2.2-.56,4.45-.81,6.3.5,0,0,4.56,13.09,10.78,21.39,1.84,2.45.06,4.51-2.76,4.71-14.64,1-54.1-2.93-71-26.15Z"/><g id="_Group_" data-name="&lt;Group&gt;"><path id="_Path_" data-name="&lt;Path&gt;" class="cls-8" d="M221.84,194.62l-6.94-6.94a68.79,68.79,0,0,1,76.44-14.28l-4,9A59.34,59.34,0,0,0,221.84,194.62Z"/></g><g id="_Group_2" data-name="&lt;Group&gt;"><g id="_Group_3" data-name="&lt;Group&gt;"><rect id="_Path_2" data-name="&lt;Path&gt;" class="cls-16" x="231.82" y="87.84" width="33.3" height="70.04" transform="translate(-4.46 236.25) rotate(-50.46)"/></g><g id="_Group_4" data-name="&lt;Group&gt;"><rect id="_Path_3" data-name="&lt;Path&gt;" class="cls-17" x="256.37" y="76.27" width="3.29" height="70.04" transform="translate(7.93 239.41) rotate(-50.46)"/></g><g id="_Group_5" data-name="&lt;Group&gt;"><rect id="_Path_4" data-name="&lt;Path&gt;" class="cls-17" x="236.71" y="100.08" width="3.29" height="70.04" transform="translate(-17.58 232.9) rotate(-50.46)"/></g><g id="_Group_6" data-name="&lt;Group&gt;"><rect id="_Path_5" data-name="&lt;Path&gt;" class="cls-17" x="205.43" y="100.45" width="33.78" height="3.29" transform="translate(2.05 208.54) rotate(-50.46)"/></g><g id="_Group_7" data-name="&lt;Group&gt;"><rect id="_Path_6" data-name="&lt;Path&gt;" class="cls-17" x="256.91" y="142.95" width="33.78" height="3.29" transform="translate(-12.02 263.68) rotate(-50.46)"/></g><g id="_Group_8" data-name="&lt;Group&gt;"><path class="cls-17" d="M239.47,93.84a9.61,9.61,0,0,1-13.52,1.29l6.12-7.41Z"/></g><g id="_Group_9" data-name="&lt;Group&gt;"><path class="cls-17" d="M216.41,106.67a9.61,9.61,0,0,1,1.29,13.52l-7.41-6.12Z"/></g><g id="_Group_10" data-name="&lt;Group&gt;"><path class="cls-17" d="M256.91,152.55a9.61,9.61,0,0,1,13.52-1.29l-6.12,7.41Z"/></g><g id="_Group_11" data-name="&lt;Group&gt;"><path class="cls-17" d="M280,139.72a9.61,9.61,0,0,1-1.29-13.52l7.41,6.12Z"/></g><g id="_Group_12" data-name="&lt;Group&gt;"><circle class="cls-17" cx="248.06" cy="123.35" r="11.01" transform="translate(-4.99 236.11) rotate(-50.46)"/></g></g><g id="_Group_13" data-name="&lt;Group&gt;"><circle id="_Path_7" data-name="&lt;Path&gt;" class="cls-18" cx="277.74" cy="162.07" r="11.3" transform="translate(-13.66 298.07) rotate(-55.28)"/></g><g id="_Group_14" data-name="&lt;Group&gt;"><g id="_Group_15" data-name="&lt;Group&gt;"><path class="cls-19" d="M268.45,155.63a11.3,11.3,0,1,0,15.73-2.85A11.3,11.3,0,0,0,268.45,155.63Zm16.87,11.69A9.21,9.21,0,1,1,283,154.5,9.21,9.21,0,0,1,285.32,167.32Z"/></g></g><g id="_Group_16" data-name="&lt;Group&gt;"><g id="_Group_17" data-name="&lt;Group&gt;"><circle id="_Path_8" data-name="&lt;Path&gt;" class="cls-18" cx="269.74" cy="156.07" r="0.45" transform="translate(34.86 360.88) rotate(-71.14)"/></g><g id="_Group_18" data-name="&lt;Group&gt;"><circle id="_Path_9" data-name="&lt;Path&gt;" class="cls-18" cx="271.89" cy="153.97" r="0.45" transform="translate(-12.67 283.03) rotate(-53.92)"/></g><g id="_Group_19" data-name="&lt;Group&gt;"><circle id="_Path_10" data-name="&lt;Path&gt;" class="cls-18" cx="274.56" cy="152.6" r="0.45" transform="translate(-36.77 194.34) rotate(-36.7)"/></g><g id="_Group_20" data-name="&lt;Group&gt;"><circle id="_Path_11" data-name="&lt;Path&gt;" class="cls-18" cx="277.52" cy="152.08" r="0.45" transform="translate(-34.83 101.24) rotate(-19.48)"/></g><g id="_Group_21" data-name="&lt;Group&gt;"><circle id="_Path_12" data-name="&lt;Path&gt;" class="cls-18" cx="280.5" cy="152.47" r="0.45" transform="translate(-5.79 11.17) rotate(-2.26)"/></g><g id="_Group_22" data-name="&lt;Group&gt;"><circle id="_Path_13" data-name="&lt;Path&gt;" class="cls-18" cx="283.24" cy="153.71" r="0.45" transform="translate(61.61 387.67) rotate(-75.04)"/></g><g id="_Group_23" data-name="&lt;Group&gt;"><circle id="_Path_14" data-name="&lt;Path&gt;" class="cls-18" cx="285.48" cy="155.72" r="0.45" transform="translate(1.64 314.4) rotate(-57.82)"/></g><g id="_Group_24" data-name="&lt;Group&gt;"><circle id="_Path_15" data-name="&lt;Path&gt;" class="cls-18" cx="287.03" cy="158.29" r="0.45" transform="translate(-33.92 224.88) rotate(-40.6)"/></g><g id="_Group_25" data-name="&lt;Group&gt;"><circle id="_Path_16" data-name="&lt;Path&gt;" class="cls-18" cx="287.74" cy="161.21" r="0.45" transform="translate(-40.35 127.41) rotate(-23.38)"/></g><g id="_Group_26" data-name="&lt;Group&gt;"><circle id="_Path_17" data-name="&lt;Path&gt;" class="cls-18" cx="287.56" cy="164.21" r="0.45" transform="translate(-15.95 31.79) rotate(-6.16)"/></g><g id="_Group_27" data-name="&lt;Group&gt;"><circle id="_Path_18" data-name="&lt;Path&gt;" class="cls-18" cx="286.5" cy="167.02" r="0.45" transform="translate(67.62 416.16) rotate(-78.94)"/></g><g id="_Group_28" data-name="&lt;Group&gt;"><circle id="_Path_19" data-name="&lt;Path&gt;" class="cls-18" cx="284.66" cy="169.4" r="0.45" transform="translate(0.61 339.81) rotate(-61.72)"/></g><g id="_Group_29" data-name="&lt;Group&gt;"><circle id="_Path_20" data-name="&lt;Path&gt;" class="cls-18" cx="282.19" cy="171.12" r="0.45" transform="translate(-39.03 246.83) rotate(-44.49)"/></g><g id="_Group_30" data-name="&lt;Group&gt;"><circle id="_Path_21" data-name="&lt;Path&gt;" class="cls-18" cx="279.33" cy="172.03" r="0.45" transform="translate(-47.78 147.13) rotate(-27.27)"/></g><g id="_Group_31" data-name="&lt;Group&gt;"><circle id="_Path_22" data-name="&lt;Path&gt;" class="cls-18" cx="276.32" cy="172.05" r="0.45" transform="translate(-25.79 50.89) rotate(-10.05)"/></g><g id="_Group_32" data-name="&lt;Group&gt;"><circle id="_Path_23" data-name="&lt;Path&gt;" class="cls-18" cx="273.44" cy="171.18" r="0.45" transform="translate(69.49 421.14) rotate(-82.83)"/></g><g id="_Group_33" data-name="&lt;Group&gt;"><circle id="_Path_24" data-name="&lt;Path&gt;" class="cls-18" cx="270.95" cy="169.5" r="0.45" transform="translate(4.7 346.29) rotate(-65.61)"/></g><g id="_Group_34" data-name="&lt;Group&gt;"><circle id="_Path_25" data-name="&lt;Path&gt;" class="cls-18" cx="269.07" cy="167.16" r="0.45" transform="translate(-34.59 257.36) rotate(-48.39)"/></g><g id="_Group_35" data-name="&lt;Group&gt;"><circle id="_Path_26" data-name="&lt;Path&gt;" class="cls-18" cx="267.96" cy="164.37" r="0.45" transform="matrix(0.86, -0.52, 0.52, 0.86, -46.39, 162.44)"/></g><g id="_Group_36" data-name="&lt;Group&gt;"><circle id="_Path_27" data-name="&lt;Path&gt;" class="cls-18" cx="267.74" cy="161.37" r="0.45" transform="translate(-31.01 69.31) rotate(-13.95)"/></g><g id="_Group_37" data-name="&lt;Group&gt;"><circle id="_Path_28" data-name="&lt;Path&gt;" class="cls-18" cx="268.41" cy="158.44" r="0.45" transform="translate(94.93 417.38) rotate(-86.73)"/></g></g><g id="_Group_38" data-name="&lt;Group&gt;"><path class="cls-20" d="M307.26,163.08l-1.73.4a5.67,5.67,0,0,0-4.25,6.79l.8,3.49,7.26-1.67-2.07-9Z"/></g><g id="_Group_39" data-name="&lt;Group&gt;"><path id="_Path_29" data-name="&lt;Path&gt;" class="cls-20" d="M365.46,192.26,314.22,204l-9.28-40.4,51.24-11.77a5.22,5.22,0,0,1,6.26,3.92L369.38,186A5.22,5.22,0,0,1,365.46,192.26Z"/></g><g id="_Group_40" data-name="&lt;Group&gt;"><rect class="cls-8" x="307.29" y="160.84" width="56.86" height="37.75" rx="12" ry="12" transform="translate(-31.71 79.7) rotate(-12.93)"/></g><g id="_Group_41" data-name="&lt;Group&gt;"><g id="_Group_42" data-name="&lt;Group&gt;"><rect id="_Path_30" data-name="&lt;Path&gt;" class="cls-16" x="307.96" y="131.59" width="71.71" height="34.09" transform="translate(-13.67 260.46) rotate(-40.75)"/></g><g id="_Group_43" data-name="&lt;Group&gt;"><rect id="_Path_31" data-name="&lt;Path&gt;" class="cls-17" x="297.93" y="135.31" width="71.71" height="3.37" transform="translate(-8.51 251.09) rotate(-40.75)"/></g><g id="_Group_44" data-name="&lt;Group&gt;"><rect id="_Path_32" data-name="&lt;Path&gt;" class="cls-17" x="318.57" y="159.27" width="71.71" height="3.37" transform="translate(-19.14 270.37) rotate(-40.75)"/></g><g id="_Group_45" data-name="&lt;Group&gt;"><rect id="_Path_33" data-name="&lt;Path&gt;" class="cls-17" x="316.67" y="154.14" width="3.37" height="34.59" transform="translate(-34.73 249.37) rotate(-40.75)"/></g><g id="_Group_46" data-name="&lt;Group&gt;"><rect id="_Path_34" data-name="&lt;Path&gt;" class="cls-17" x="368.44" y="109.53" width="3.37" height="34.59" transform="translate(6.94 272.35) rotate(-40.75)"/></g><g id="_Group_47" data-name="&lt;Group&gt;"><path class="cls-17" d="M313,152.71a9.83,9.83,0,0,1-1,13.87l-6.42-7.45Z"/></g><g id="_Group_48" data-name="&lt;Group&gt;"><path class="cls-17" d="M321.95,178.18a9.83,9.83,0,0,1,13.87,1l-7.45,6.42Z"/></g><g id="_Group_49" data-name="&lt;Group&gt;"><path class="cls-17" d="M375.24,145.24a9.83,9.83,0,0,1,1-13.87l6.42,7.45Z"/></g><g id="_Group_50" data-name="&lt;Group&gt;"><path class="cls-17" d="M366.27,119.76a9.83,9.83,0,0,1-13.87-1l7.45-6.42Z"/></g><g id="_Group_51" data-name="&lt;Group&gt;"><circle class="cls-17" cx="344.24" cy="149.13" r="11.27" transform="translate(-13.89 260.86) rotate(-40.75)"/></g></g><g id="_Group_52" data-name="&lt;Group&gt;"><circle id="_Path_35" data-name="&lt;Path&gt;" class="cls-18" cx="324.72" cy="163.99" r="11.3" transform="translate(9.97 346.39) rotate(-56.89)"/></g><g id="_Group_53" data-name="&lt;Group&gt;"><g id="_Group_54" data-name="&lt;Group&gt;"><path class="cls-19" d="M330.89,154.52a11.3,11.3,0,1,0,3.29,15.64A11.3,11.3,0,0,0,330.89,154.52Zm-11.21,17.19A9.21,9.21,0,1,1,332.44,169,9.21,9.21,0,0,1,319.68,171.71Z"/></g></g><g id="_Group_55" data-name="&lt;Group&gt;"><g id="_Group_56" data-name="&lt;Group&gt;"><circle id="_Path_36" data-name="&lt;Path&gt;" class="cls-18" cx="330.5" cy="155.82" r="0.45" transform="translate(83.67 425.23) rotate(-72.75)"/></g><g id="_Group_57" data-name="&lt;Group&gt;"><circle id="_Path_37" data-name="&lt;Path&gt;" class="cls-18" cx="332.66" cy="157.91" r="0.45" transform="translate(14.18 342.76) rotate(-55.53)"/></g><g id="_Group_58" data-name="&lt;Group&gt;"><circle id="_Path_38" data-name="&lt;Path&gt;" class="cls-18" cx="334.1" cy="160.54" r="0.45" transform="translate(-27.59 241.66) rotate(-38.31)"/></g><g id="_Group_59" data-name="&lt;Group&gt;"><circle id="_Path_39" data-name="&lt;Path&gt;" class="cls-18" cx="334.7" cy="163.49" r="0.45" transform="translate(-36.41 131.34) rotate(-21.08)"/></g><g id="_Group_60" data-name="&lt;Group&gt;"><circle id="_Path_40" data-name="&lt;Path&gt;" class="cls-18" cx="334.4" cy="166.48" r="0.45" transform="translate(-10.46 22.92) rotate(-3.86)"/></g><g id="_Group_61" data-name="&lt;Group&gt;"><circle id="_Path_41" data-name="&lt;Path&gt;" class="cls-18" cx="333.23" cy="169.25" r="0.45" transform="translate(91.6 454.38) rotate(-76.65)"/></g><g id="_Group_62" data-name="&lt;Group&gt;"><circle id="_Path_42" data-name="&lt;Path&gt;" class="cls-18" cx="331.29" cy="171.54" r="0.45" transform="translate(15.07 369.5) rotate(-59.42)"/></g><g id="_Group_63" data-name="&lt;Group&gt;"><circle id="_Path_43" data-name="&lt;Path&gt;" class="cls-18" cx="328.76" cy="173.16" r="0.45" transform="translate(-31.1 265.74) rotate(-42.2)"/></g><g id="_Group_64" data-name="&lt;Group&gt;"><circle id="_Path_44" data-name="&lt;Path&gt;" class="cls-18" cx="325.86" cy="173.96" r="0.45" transform="translate(-42.98 153.88) rotate(-24.98)"/></g><g id="_Group_65" data-name="&lt;Group&gt;"><circle id="_Path_45" data-name="&lt;Path&gt;" class="cls-18" cx="322.85" cy="173.86" r="0.45" transform="translate(-20.52 45.19) rotate(-7.76)"/></g><g id="_Group_66" data-name="&lt;Group&gt;"><circle id="_Path_46" data-name="&lt;Path&gt;" class="cls-18" cx="320.01" cy="172.88" r="0.45" transform="translate(96.91 460.14) rotate(-80.54)"/></g><g id="_Group_67" data-name="&lt;Group&gt;"><circle id="_Path_47" data-name="&lt;Path&gt;" class="cls-18" cx="317.59" cy="171.1" r="0.45" transform="translate(22.11 378.06) rotate(-63.32)"/></g><g id="_Group_68" data-name="&lt;Group&gt;"><circle id="_Path_48" data-name="&lt;Path&gt;" class="cls-18" cx="315.8" cy="168.69" r="0.45" transform="translate(-24.73 279.26) rotate(-46.1)"/></g><g id="_Group_69" data-name="&lt;Group&gt;"><circle id="_Path_49" data-name="&lt;Path&gt;" class="cls-18" cx="314.81" cy="165.85" r="0.45" transform="translate(-40.95 172.65) rotate(-28.88)"/></g><g id="_Group_70" data-name="&lt;Group&gt;"><circle id="_Path_50" data-name="&lt;Path&gt;" class="cls-18" cx="314.7" cy="162.85" r="0.45" transform="translate(-26.42 66.98) rotate(-11.66)"/></g><g id="_Group_71" data-name="&lt;Group&gt;"><circle id="_Path_51" data-name="&lt;Path&gt;" class="cls-18" cx="315.49" cy="159.95" r="0.45" transform="translate(125.73 458.45) rotate(-84.44)"/></g><g id="_Group_72" data-name="&lt;Group&gt;"><circle id="_Path_52" data-name="&lt;Path&gt;" class="cls-18" cx="317.1" cy="157.41" r="0.45" transform="translate(49.18 388.82) rotate(-67.22)"/></g><g id="_Group_73" data-name="&lt;Group&gt;"><circle id="_Path_53" data-name="&lt;Path&gt;" class="cls-18" cx="319.39" cy="155.46" r="0.45" transform="translate(-5 300.19) rotate(-50)"/></g><g id="_Group_74" data-name="&lt;Group&gt;"><circle id="_Path_54" data-name="&lt;Path&gt;" class="cls-18" cx="322.15" cy="154.28" r="0.45" transform="translate(-32.23 198.99) rotate(-32.78)"/></g><g id="_Group_75" data-name="&lt;Group&gt;"><circle id="_Path_55" data-name="&lt;Path&gt;" class="cls-18" cx="325.14" cy="153.97" r="0.45" transform="translate(-29.38 92.82) rotate(-15.55)"/></g><g id="_Group_76" data-name="&lt;Group&gt;"><circle id="_Path_56" data-name="&lt;Path&gt;" class="cls-18" cx="328.09" cy="154.55" r="0.45" transform="translate(164.09 478.02) rotate(-88.34)"/></g></g><g id="_Group_77" data-name="&lt;Group&gt;"><path id="_Path_57" data-name="&lt;Path&gt;" class="cls-21" d="M362.22,201.14l-38,8.72a13.59,13.59,0,0,1-16.29-10.21l-6.24-27.15,51.24-11.77a5.22,5.22,0,0,1,6.26,3.92l6.94,30.22A5.22,5.22,0,0,1,362.22,201.14Z"/></g><g id="_Group_78" data-name="&lt;Group&gt;"><path id="_Path_58" data-name="&lt;Path&gt;" class="cls-21" d="M301.61,166.82s-1.26,6,6.19,4.29l1.57,6.83-6.1,1.4-1.87-8.15A5.9,5.9,0,0,1,301.61,166.82Z"/></g><g id="_Group_79" data-name="&lt;Group&gt;"><polygon id="_Path_59" data-name="&lt;Path&gt;" class="cls-20" points="362.28 174.07 365.38 169.13 366.96 176.7 364 181.54 362.28 174.07"/></g><g id="_Group_80" data-name="&lt;Group&gt;"><g id="_Group_81" data-name="&lt;Group&gt;"><path id="_Path_60" data-name="&lt;Path&gt;" class="cls-22" d="M308.58,203a.21.21,0,0,1-.22-.16l0-.08,0-.18a.26.26,0,0,1,.5-.11l0,.17a.3.3,0,0,1-.18.35Z"/></g><g id="_Group_82" data-name="&lt;Group&gt;"><path id="_Compound_Path_" data-name="&lt;Compound Path&gt;" class="cls-22" d="M315.9,208.67h-.09a.26.26,0,0,1-.25-.26.26.26,0,0,1,.26-.25h.5a.25.25,0,0,1,.27.24.26.26,0,0,1-.24.27Zm-2.13-.31h-.07l-.51-.17a.26.26,0,0,1,.18-.48l.47.16a.26.26,0,0,1-.07.51Zm4.59-.06a.26.26,0,0,1-.06-.51l.5-.12a.26.26,0,0,1,.12.5l-.5.12Zm2.52-.58a.26.26,0,0,1-.06-.51l.5-.12a.26.26,0,0,1,.12.5l-.5.12Zm-9.42-.5a.26.26,0,0,1-.15,0l-.42-.33a.26.26,0,1,1,.33-.4l.39.31a.26.26,0,0,1-.15.47Zm11.95-.08a.26.26,0,0,1-.06-.51l.5-.12a.26.26,0,0,1,.12.5l-.5.12Zm2.52-.58a.26.26,0,0,1-.06-.51l.5-.12a.26.26,0,0,1,.12.5l-.5.12Zm2.52-.58a.26.26,0,0,1-.06-.51l.5-.12a.26.26,0,0,1,.12.5l-.5.12Zm2.52-.58a.26.26,0,0,1-.06-.51l.5-.12a.26.26,0,0,1,.12.5l-.5.12Zm-21.3,0a.26.26,0,0,1-.21-.11q-.15-.22-.29-.45a.26.26,0,1,1,.45-.26q.13.22.27.42a.26.26,0,0,1-.21.4Zm23.83-.55a.26.26,0,0,1-.06-.51l.5-.12a.26.26,0,0,1,.12.5l-.5.12Zm2.52-.58a.26.26,0,0,1-.06-.51l.5-.12a.26.26,0,1,1,.12.5l-.5.12Zm2.52-.58a.26.26,0,0,1-.06-.51l.5-.12a.26.26,0,1,1,.12.5l-.5.12Zm2.52-.58a.26.26,0,0,1-.06-.51l.5-.12a.26.26,0,0,1,.12.5l-.5.12Zm2.52-.58a.26.26,0,0,1-.06-.51l.5-.12a.26.26,0,0,1,.31.19.26.26,0,0,1-.19.31l-.5.12Zm2.52-.58a.26.26,0,0,1-.06-.51l.5-.12a.26.26,0,0,1,.12.5l-.5.12Zm2.52-.58a.26.26,0,0,1-.06-.51l.5-.12a.26.26,0,0,1,.12.5l-.5.12Zm2.52-.58a.26.26,0,0,1-.06-.51l.5-.12a.25.25,0,0,1,.31.19.26.26,0,0,1-.19.31l-.5.12Zm2.52-.58a.26.26,0,0,1-.06-.51l.5-.12a.25.25,0,0,1,.31.19.26.26,0,0,1-.19.31l-.5.12Zm2.52-.58a.26.26,0,0,1-.06-.51l.5-.12a.26.26,0,0,1,.12.5l-.5.12Zm2.52-.58a.26.26,0,0,1-.06-.51l.5-.12a.25.25,0,0,1,.31.19.26.26,0,0,1-.19.31l-.5.12Zm2.5-.66a.26.26,0,0,1-.12-.49,2.39,2.39,0,0,0,.39-.25.26.26,0,0,1,.32.41,2.91,2.91,0,0,1-.48.31A.26.26,0,0,1,361.21,198.38Zm1.44-2h0a.26.26,0,0,1-.22-.29,2.42,2.42,0,0,0,0-.33s0-.09,0-.14a.26.26,0,0,1,.24-.27.25.25,0,0,1,.27.25c0,.05,0,.11,0,.16a3,3,0,0,1,0,.4A.26.26,0,0,1,362.66,196.35Zm-.4-2.54a.26.26,0,0,1-.25-.2l-.12-.5a.26.26,0,1,1,.5-.12l.12.5a.26.26,0,0,1-.19.31Zm-.58-2.52a.26.26,0,0,1-.25-.2l-.12-.5a.26.26,0,0,1,.5-.12l.12.5a.26.26,0,0,1-.19.31Zm-.58-2.52a.26.26,0,0,1-.25-.2l-.12-.5a.26.26,0,0,1,.5-.12l.12.5a.26.26,0,0,1-.19.31Zm-.58-2.52a.26.26,0,0,1-.25-.2l-.12-.5a.26.26,0,0,1,.5-.12l.12.5a.26.26,0,0,1-.19.31Zm-.58-2.52a.26.26,0,0,1-.25-.2l-.12-.5a.26.26,0,0,1,.5-.12l.12.5a.26.26,0,0,1-.19.31Zm-.58-2.52a.26.26,0,0,1-.25-.2l-.12-.5a.26.26,0,0,1,.5-.12l.12.5a.26.26,0,0,1-.19.31Zm-.58-2.52a.26.26,0,0,1-.25-.2l-.12-.5a.26.26,0,0,1,.5-.12l.12.5a.26.26,0,0,1-.19.31Zm-.58-2.52a.26.26,0,0,1-.25-.2l-.12-.5a.26.26,0,0,1,.5-.12l.12.5a.26.26,0,0,1-.19.31Zm-52.52-1.23a.26.26,0,0,1,0-.52l.5,0a.26.26,0,0,1,.07.51l-.53.05Zm-2-.24h-.08a4.15,4.15,0,0,1-.51-.2.26.26,0,0,1,.22-.47,3.61,3.61,0,0,0,.45.18.26.26,0,0,1-.08.5Zm4.58-.25a.26.26,0,0,1-.06-.51l.5-.12a.26.26,0,0,1,.12.5l-.5.12Zm2.52-.58a.26.26,0,0,1-.06-.51l.5-.12a.26.26,0,1,1,.12.5l-.5.12Zm46.88-.23a.26.26,0,0,1-.25-.2l-.12-.5a.26.26,0,1,1,.5-.12l.12.5a.26.26,0,0,1-.19.31Zm-44.36-.35a.26.26,0,0,1-.06-.51l.5-.12a.26.26,0,1,1,.12.5l-.5.12Zm2.52-.58a.26.26,0,0,1-.06-.51l.5-.12a.26.26,0,0,1,.12.5l-.5.12Zm2.52-.58a.26.26,0,0,1-.06-.51l.5-.12a.26.26,0,1,1,.12.5l-.5.12Zm2.52-.58a.26.26,0,0,1-.06-.51l.5-.12a.26.26,0,0,1,.12.5l-.5.12Zm36.21-.43a.26.26,0,0,1-.25-.2l-.12-.5a.26.26,0,0,1,.5-.12l.12.5a.26.26,0,0,1-.19.31ZM323.35,171a.26.26,0,0,1-.06-.51l.5-.12a.26.26,0,0,1,.12.5l-.5.12Zm2.52-.58a.26.26,0,0,1-.06-.51l.5-.12a.26.26,0,1,1,.12.5l-.5.12Zm2.52-.58a.26.26,0,0,1-.06-.51l.5-.12a.26.26,0,0,1,.12.5l-.5.12Zm2.52-.58a.26.26,0,0,1-.06-.51l.5-.12a.26.26,0,1,1,.12.5l-.5.12Zm2.52-.58a.26.26,0,0,1-.06-.51l.5-.12a.26.26,0,0,1,.31.19.26.26,0,0,1-.19.31l-.5.12Zm23-.06a.26.26,0,0,1-.25-.2l-.12-.5a.26.26,0,0,1,.5-.12l.12.5a.26.26,0,0,1-.19.31Zm-20.5-.52a.26.26,0,0,1-.06-.51l.5-.12a.26.26,0,0,1,.12.5l-.5.12Zm2.52-.58a.26.26,0,0,1-.06-.51l.5-.12a.26.26,0,0,1,.31.19.26.26,0,0,1-.19.31l-.5.12Zm2.52-.58a.26.26,0,0,1-.06-.51l.5-.12a.26.26,0,0,1,.12.5l-.5.12Zm2.52-.58a.26.26,0,0,1-.06-.51l.5-.12a.26.26,0,0,1,.31.19.26.26,0,0,1-.19.31l-.5.12Zm12.35-.26a.26.26,0,0,1-.25-.18,2.44,2.44,0,0,0-.18-.43.26.26,0,0,1,.46-.24,3,3,0,0,1,.21.52.26.26,0,0,1-.17.32Zm-9.83-.31a.26.26,0,0,1-.06-.51l.5-.12a.26.26,0,0,1,.12.5l-.5.12Zm2.52-.58a.26.26,0,0,1-.06-.51l.5-.12a.26.26,0,0,1,.12.5l-.5.12Zm2.52-.58a.26.26,0,0,1-.06-.51l.5-.12a.26.26,0,0,1,.12.5l-.5.12Zm3-.3h-.08a2.46,2.46,0,0,0-.46-.1.26.26,0,0,1-.22-.29.25.25,0,0,1,.29-.22,3,3,0,0,1,.55.12.26.26,0,0,1-.08.5Z"/></g><g id="_Group_83" data-name="&lt;Group&gt;"><path id="_Path_61" data-name="&lt;Path&gt;" class="cls-22" d="M301.77,173a.26.26,0,0,1-.25-.18q0-.13-.08-.27a.26.26,0,1,1,.5-.12q0,.12.06.23a.26.26,0,0,1-.16.33Z"/></g></g><g id="_Group_84" data-name="&lt;Group&gt;"><g id="_Group_85" data-name="&lt;Group&gt;"><path class="cls-23" d="M347.89,176h15.48a0,0,0,0,1,0,0v7.67a0,0,0,0,1,0,0H347.89a2.84,2.84,0,0,1-2.84-2.84v-2A2.84,2.84,0,0,1,347.89,176Z" transform="translate(-31.27 83.85) rotate(-12.93)"/></g><g id="_Group_86" data-name="&lt;Group&gt;"><circle id="_Path_62" data-name="&lt;Path&gt;" class="cls-20" cx="349.35" cy="180.97" r="2.34" transform="translate(-31.64 82.79) rotate(-12.93)"/></g><g id="_Group_87" data-name="&lt;Group&gt;"><circle class="cls-22" cx="349.03" cy="181.04" r="2.34" transform="translate(-31.67 82.72) rotate(-12.93)"/></g><g id="_Group_88" data-name="&lt;Group&gt;" class="cls-24"><path id="_Path_63" data-name="&lt;Path&gt;" class="cls-8" d="M349.23,179.6a2.27,2.27,0,0,1-2.12,2.78,2.4,2.4,0,0,1-.19-2.35,2.2,2.2,0,0,1,1.31-1.11A.82.82,0,0,1,349.23,179.6Z"/></g></g><g id="_Group_89" data-name="&lt;Group&gt;" class="cls-25"><path id="_Path_64" data-name="&lt;Path&gt;" class="cls-8" d="M338.08,172.21a13.73,13.73,0,0,0-8-1.8c-5,.35-14.29,1.77-19.88,7.31-2.67,2.65-3.33,11.78,2.6,18.27s25-1.87,22.89-8.13,4.11-6.49,5.34-10.85C341.64,174.94,340,173.33,338.08,172.21Z"/></g><g id="_Group_90" data-name="&lt;Group&gt;"><path id="_Path_65" data-name="&lt;Path&gt;" class="cls-8" d="M263.57,305.06A68.84,68.84,0,0,1,194.8,236.3,68,68,0,0,1,202.31,205a68.75,68.75,0,0,1,61.26-37.49v9.82A58.93,58.93,0,0,0,211,209.5a58.3,58.3,0,0,0-6.43,26.8,58.95,58.95,0,0,0,117.89,0h9.82A68.84,68.84,0,0,1,263.57,305.06Z"/></g><g id="_Group_91" data-name="&lt;Group&gt;"><path id="_Path_66" data-name="&lt;Path&gt;" class="cls-8" d="M338.87,238.4H316a.83.83,0,0,1-.72-1.26L326.7,217.6a.83.83,0,0,1,1.44,0l11.44,19.54A.83.83,0,0,1,338.87,238.4Z"/></g><rect class="cls-8" x="256.87" y="189.29" width="8.42" height="55.09" rx="3.12" ry="3.12"/><rect class="cls-8" x="273.73" y="219.86" width="7.99" height="41.05" rx="2.96" ry="2.96" transform="translate(518.11 -37.34) rotate(90)"/><circle class="cls-8" cx="261.08" cy="240.38" r="8.84"/></svg>