<svg id="Layer_1" data-name="Layer 1" xmlns="http://www.w3.org/2000/svg" xmlns:xlink="http://www.w3.org/1999/xlink" viewBox="0 0 400 400"><defs><style>.cls-1{fill:#006838;}.cls-2,.cls-34{fill:#6466af;}.cls-2,.cls-28,.cls-31{opacity:0.1;}.cls-15,.cls-2,.cls-28,.cls-29,.cls-3,.cls-31,.cls-33,.cls-36,.cls-37,.cls-39{isolation:isolate;}.cls-3,.cls-9{fill:#fff;}.cls-3{opacity:0.25;}.cls-4{fill:#754937;}.cls-5,.cls-7{fill:#563327;}.cls-5{opacity:0.76;}.cls-6{fill:#232223;}.cls-14,.cls-8{fill:#333954;}.cls-10,.cls-11{fill:none;stroke-linecap:round;}.cls-10,.cls-11,.cls-14{stroke:#333954;stroke-miterlimit:10;}.cls-10{stroke-width:0.75px;}.cls-12{fill:#464f73;}.cls-13{fill:#27aae1;}.cls-15{opacity:0.5;}.cls-16{fill:#9b9caa;}.cls-17{fill:#e6e6e5;}.cls-18{fill:#403e56;}.cls-19{fill:#579441;}.cls-20{fill:#178a43;}.cls-21{fill:url(#linear-gradient);}.cls-22{fill:url(#linear-gradient-2);}.cls-23{fill:url(#linear-gradient-3);}.cls-24{fill:url(#linear-gradient-4);}.cls-25{fill:url(#linear-gradient-5);}.cls-26{fill:url(#linear-gradient-6);}.cls-27{fill:#545562;}.cls-28,.cls-29{fill:#78787a;}.cls-29{opacity:0.17;}.cls-30{fill:#bebdc1;}.cls-31,.cls-37{fill:#010101;}.cls-32{fill:#e0e1e0;}.cls-33{fill:#57bf99;opacity:0.6;}.cls-35{fill:#d3d3d3;}.cls-36,.cls-39{fill:#d5d4d6;}.cls-36,.cls-37{opacity:0.07;}.cls-38{fill:url(#linear-gradient-7);}.cls-40{fill:#414042;}.cls-41{fill:#d1d3d4;}.cls-42{fill:#808285;}.cls-43{fill:#231f20;}</style><linearGradient id="linear-gradient" x1="130.34" y1="120.22" x2="90.65" y2="165.5" gradientUnits="userSpaceOnUse"><stop offset="0" stop-color="#39b54a"/><stop offset="1" stop-color="#006838"/></linearGradient><linearGradient id="linear-gradient-2" x1="81.52" y1="172.37" x2="129.41" y2="124.48" xlink:href="#linear-gradient"/><linearGradient id="linear-gradient-3" x1="339.61" y1="120.22" x2="299.92" y2="165.5" xlink:href="#linear-gradient"/><linearGradient id="linear-gradient-4" x1="290.8" y1="172.37" x2="338.69" y2="124.48" xlink:href="#linear-gradient"/><linearGradient id="linear-gradient-5" x1="234.24" y1="83.55" x2="187.9" y2="138.63" gradientUnits="userSpaceOnUse"><stop offset="0" stop-color="#20bfd3"/><stop offset="1" stop-color="#1593d1"/></linearGradient><linearGradient id="linear-gradient-6" x1="182.45" y1="140.01" x2="234.32" y2="88.14" xlink:href="#linear-gradient-5"/><linearGradient id="linear-gradient-7" x1="324.22" y1="257.45" x2="324.22" y2="261" gradientTransform="matrix(1, 0, 0, -1, 0, 402)" gradientUnits="userSpaceOnUse"><stop offset="0" stop-color="#818181" stop-opacity="0.25"/><stop offset="0.54" stop-color="#818181" stop-opacity="0.12"/><stop offset="1" stop-color="#818181" stop-opacity="0.1"/></linearGradient></defs><title>manage selling units</title><ellipse class="cls-1" cx="197.01" cy="323.82" rx="181.53" ry="9.13"/><ellipse class="cls-2" cx="335.91" cy="335.26" rx="22.05" ry="3.39"/><circle class="cls-3" cx="129.43" cy="307.28" r="0.24"/><rect class="cls-4" x="47.58" y="207.21" width="7.28" height="14.47" transform="translate(-6.13 1.56) rotate(-1.64)"/><path class="cls-5" d="M54.65,207.11l.15,7.34a5.91,5.91,0,0,1-7.15.83l-.26-7.34c.17-.22.34-.43.52-.64Z"/><path class="cls-4" d="M44.53,194.19s-3.39,5.9,0,15.27c.23.64,1.14,4.06,4.66,4,2.45,0,6.51.55,8.24-2.33,2.19-3.64,3.75-13.56.47-16.29S44.53,194.19,44.53,194.19Z"/><path class="cls-4" d="M56.38,204.24s4.91-2.31,6.78.8-5.43,6.21-6.41,3.21S56.38,204.24,56.38,204.24Z"/><path class="cls-6" d="M45.05,198.65s.89-2.92,2.29-1.64,2.25,1.58,7.29.64c5.8-1.08,3.19,7.44,3.19,7.44s1.87-2.1,3.48-1.48c0,0,1.29-9.29-2.18-10.56s-11.64-2.41-12.68-.62S45.05,198.65,45.05,198.65Z"/><path class="cls-4" d="M46.05,203.52s-4.89-2.31-6.76.8,5.41,6.21,6.38,3.21S46.05,203.52,46.05,203.52Z"/><path class="cls-7" d="M44.53,206.94s-1.57.34-1.75-.72a.77.77,0,0,1,.68-1s-2.65-1.58-2.94,0S43.29,208.13,44.53,206.94Z"/><path class="cls-6" d="M58,198.35s-.89-2.92-2.29-1.64-2.25,1.58-7.29.64c-5.8-1.08-3.19,7.44-3.19,7.44s-1.87-2.1-3.48-1.48c0,0-1.29-9.29,2.18-10.56s11.22-1.51,12.27.28A23.58,23.58,0,0,1,58,198.35Z"/><ellipse class="cls-8" cx="55.2" cy="202.85" rx="0.47" ry="1"/><ellipse class="cls-8" cx="47.64" cy="202.7" rx="0.47" ry="1"/><path class="cls-9" d="M48.46,207.68l5.05-.52s-2,6.64-4.91.5"/><path class="cls-7" d="M57.91,207.65s1.58.34,1.76-.72a.77.77,0,0,0-.68-1s2.66-1.58,3,0S59.16,208.85,57.91,207.65Z"/><circle class="cls-10" cx="47.09" cy="202.85" r="3.13" transform="translate(-35.7 11.77) rotate(-10.36)"/><circle class="cls-10" cx="55.2" cy="202.63" r="3.2" transform="translate(-35.53 13.22) rotate(-10.36)"/><line class="cls-11" x1="50.17" y1="202.28" x2="52.02" y2="202.35"/><path class="cls-12" d="M54.09,261.62l3.65,58.74s8.12,7.43,22.65,2.46L65.5,261.09Z"/><path class="cls-12" d="M53.86,261.36l1.19,59.1s-12.39,7.34-26.92,2.36L43,261.09Z"/><path class="cls-8" d="M56,324.63H25.49c.2-1.26.6-3.81,1.44-4.89,2.65-3.38,5.25-2.5,5.25-2.5l22.88,3.22S56,324.56,56,324.63Z"/><path class="cls-8" d="M57.28,324.52H86.88a.37.37,0,0,0,.36-.45,12.41,12.41,0,0,0-1.87-4.23A8.47,8.47,0,0,0,83.21,318a6.86,6.86,0,0,0-4.62-.88L58,320.31a.37.37,0,0,0-.3.28c-.16.68-.61,2.62-.79,3.49A.37.37,0,0,0,57.28,324.52Z"/><path class="cls-13" d="M47.64,219.52s4.36,4.79,7.34-.8l5.09.54a5.31,5.31,0,0,1,3.09,2c4.65,6.28,7.94,33.58,2.77,39.31-1,1.12-10.59.75-12.07.78-15.38.33-18.67.65-13.32-33.51l.17-5.61c2.32-2.33,3.87-1.36,5.07-2.43Z"/><path class="cls-4" d="M30,198.24s2.82-11.13,1.41-12.56-3.28,2.38-3.28,2.38.76,4.44,1.74-1.43c.6-3.62-8.58-10.25-11.36-2.5-2.52,7-1,10.08-1,10.08Z"/><path class="cls-13" d="M44.71,221.48S32,214.88,32.65,195.74a4.33,4.33,0,0,0-1.08-3.55s-8.12-1-13.68-3.49c-1.64-.75-2.61.54-2.37,2.18,1.25,8.53,8.5,30.68,24,37.43Z"/><path class="cls-4" d="M86.59,215.55s6.12-9.71,8.13-9.68.54,4,.54,4-3.74,2.51-.16-2.24c2.21-2.93,13.34-.85,9.64,6.51-3.36,6.68-6.65,7.64-6.65,7.64Z"/><path class="cls-13" d="M59.63,220.94s13.57,4.7,27-9a4.33,4.33,0,0,1,3.32-1.67s6.29,5.22,12,7.51c1.67.68,1.41,2.26.06,3.22-7,5-28.09,15-43.65,8.41Z"/><path class="cls-14" d="M54.09,261.62c.83,0,8.14,63.48,1.35,60.65"/><g class="cls-15"><path class="cls-1" d="M349.5,267.55c-1.59.88-3.29,1.73-5.08,2.55-8.46,3.92-19,7.32-31.13,10.25l-2.28.54-.19,0c-1.44.34-2.9.67-4.38,1-13.32,2.91-28.21,5.29-44,7.19l-.9.11-.21,0c-21.08,2.5-43.72,4.14-66.27,5q-5.32.21-10.63.35l-1.79,0-1.57,0q-3.4.08-6.79.14l-2.55,0-1.93,0c-5.56.08-11.08.1-16.53.09C106.65,294.84,65,291.4,44,285.5c-60.57-17.05-47.22-59-8.9-67.58s-14.68-58.13,46.43-90.85c37.12-19.87,76,23.35,108.16-11.21,48-51.57,90.42-43.14,117.16-16.51,30.14,30,6,66.6,38.23,64.73C393.46,161.28,422.33,227,349.5,267.55Z"/></g><rect class="cls-16" x="276.61" y="168.17" width="73.79" height="134.6"/><path class="cls-9" d="M283.5,295.88h60V175.07h-60Z"/><rect class="cls-17" x="306.56" y="200.98" width="17.52" height="1.63"/><rect class="cls-17" x="306.56" y="206.61" width="30.54" height="1.63"/><rect class="cls-17" x="306.56" y="212.24" width="30.51" height="1.63"/><rect class="cls-17" x="289.91" y="201" width="13.02" height="13.02"/><rect class="cls-17" x="306.56" y="228.95" width="17.52" height="1.63"/><rect class="cls-17" x="306.56" y="234.58" width="30.54" height="1.63"/><rect class="cls-17" x="306.56" y="240.21" width="30.51" height="1.63"/><rect class="cls-17" x="289.91" y="228.98" width="13.02" height="13.02"/><rect class="cls-17" x="306.56" y="256.93" width="17.52" height="1.63"/><rect class="cls-17" x="306.56" y="262.55" width="30.54" height="1.63"/><rect class="cls-17" x="306.56" y="268.18" width="30.51" height="1.63"/><rect class="cls-17" x="289.91" y="256.95" width="13.02" height="13.02"/><rect class="cls-16" x="70.66" y="168.17" width="73.79" height="134.6"/><path class="cls-9" d="M77.55,295.88h60V175.07h-60Z"/><rect class="cls-17" x="100.61" y="200.98" width="17.52" height="1.63"/><rect class="cls-17" x="100.61" y="206.61" width="30.54" height="1.63"/><rect class="cls-17" x="100.61" y="212.24" width="30.51" height="1.63"/><rect class="cls-17" x="83.96" y="201" width="13.02" height="13.02"/><rect class="cls-17" x="100.61" y="228.95" width="17.52" height="1.63"/><rect class="cls-17" x="100.61" y="234.58" width="30.54" height="1.63"/><rect class="cls-17" x="100.61" y="240.21" width="30.51" height="1.63"/><rect class="cls-17" x="83.96" y="228.98" width="13.02" height="13.02"/><rect class="cls-17" x="100.61" y="256.93" width="17.52" height="1.63"/><rect class="cls-17" x="100.61" y="262.55" width="30.54" height="1.63"/><rect class="cls-17" x="100.61" y="268.18" width="30.51" height="1.63"/><rect class="cls-17" x="83.96" y="256.95" width="13.02" height="13.02"/><rect class="cls-18" x="160.3" y="124.39" width="100.45" height="183.25"/><path class="cls-9" d="M164.64,303h91.77V129.05H164.64Z"/><rect class="cls-19" x="201.07" y="169.05" width="23.86" height="2.22"/><rect class="cls-17" x="201.07" y="176.71" width="41.58" height="2.22"/><rect class="cls-17" x="201.07" y="184.38" width="41.54" height="2.22"/><rect class="cls-19" x="178.4" y="169.08" width="17.72" height="17.72"/><rect class="cls-20" x="201.07" y="207.13" width="23.86" height="2.22"/><rect class="cls-17" x="201.07" y="214.8" width="41.58" height="2.22"/><rect class="cls-17" x="201.07" y="222.46" width="41.54" height="2.22"/><rect class="cls-20" x="178.4" y="207.17" width="17.72" height="17.72"/><rect class="cls-19" x="201.07" y="245.22" width="23.86" height="2.22"/><rect class="cls-17" x="201.07" y="252.88" width="41.58" height="2.22"/><rect class="cls-17" x="201.07" y="260.55" width="41.54" height="2.22"/><rect class="cls-19" x="178.4" y="245.25" width="17.72" height="17.72"/><circle class="cls-21" cx="106.04" cy="147.94" r="34.39"/><ellipse class="cls-22" cx="105.47" cy="148.43" rx="33.82" ry="33.9"/><circle class="cls-23" cx="315.32" cy="147.94" r="34.39"/><ellipse class="cls-24" cx="314.74" cy="148.43" rx="33.82" ry="33.9"/><circle class="cls-25" cx="209.01" cy="113.54" r="37.25"/><ellipse class="cls-26" cx="208.38" cy="114.07" rx="36.63" ry="36.72"/><polygon class="cls-27" points="328.94 142.45 316.4 139.43 316.4 163.07 328.94 159.78 328.94 142.45"/><polygon class="cls-28" points="328.94 142.45 316.4 139.43 316.4 163.07 328.94 159.78 328.94 142.45"/><polygon class="cls-27" points="303.86 142.45 316.4 139.43 316.4 163.07 303.86 159.85 303.86 142.45"/><polygon class="cls-29" points="303.86 142.34 316.4 139.32 316.4 163.07 303.86 159.85 303.86 142.34"/><polygon class="cls-30" points="316.29 139.53 322.9 134.04 335.44 137.26 328.83 142.55 316.29 139.53"/><polygon class="cls-31" points="297.52 137.43 303.96 142.55 316.5 139.53 310.13 134.15 297.52 137.43"/><polygon class="cls-30" points="297.42 137.32 304.01 142.55 316.55 139.53 310.03 134.04 297.42 137.32"/><rect class="cls-32" x="309.16" y="145.94" width="4.75" height="0.15" rx="0.04" ry="0.04"/><rect class="cls-32" x="315.31" y="145.85" width="5.38" height="0.23"/><rect class="cls-33" x="318.99" y="145.05" width="1.7" height="0.23"/><rect class="cls-34" x="317.19" y="146.78" width="1.7" height="0.23"/><polygon class="cls-30" points="303.86 142.45 303.86 159.85 316.4 163.07 316.57 145.8 303.86 142.45"/><polygon class="cls-35" points="328.94 159.78 316.4 163.07 316.4 145.8 328.94 142.45 328.94 159.78"/><polygon class="cls-36" points="328.94 159.78 316.4 163.07 316.4 145.8 328.94 142.45 328.94 159.78"/><polygon class="cls-37" points="323.95 154 323.95 159.72 328.94 158.34 328.94 152.63 323.95 154"/><rect class="cls-38" x="322.38" y="141" width="3.7" height="3.55"/><polygon class="cls-31" points="303.69 151.48 310.72 153.25 316.36 148.65 316.36 145.83 303.82 142.68 303.69 151.48"/><polygon class="cls-31" points="329.04 151.48 322.01 153.25 316.36 148.65 316.36 145.83 328.91 142.68 329.04 151.48"/><polygon class="cls-30" points="303.86 142.45 297.42 147.77 309.96 150.92 316.4 145.8 303.86 142.45"/><polygon class="cls-39" points="328.94 142.45 335.44 147.77 322.96 150.92 316.4 145.8 328.94 142.45"/><polygon class="cls-36" points="328.94 142.45 335.44 147.77 322.96 150.92 316.4 145.8 328.94 142.45"/><path class="cls-40" d="M92.91,135.27s-.47-1.18,2.72-.89S108,135.7,112,134.8s6.33-1.18,6.09,0-6.86,3.84-6.86,3.84l-8.58.89-6.33-1-3.4-2Z"/><path class="cls-41" d="M123.17,152.72a37,37,0,0,0-15.23,6.74,2.82,2.82,0,0,0-1.21-1.44,4.26,4.26,0,0,0-1.23-.52,1.24,1.24,0,0,0-1.13.49,6.38,6.38,0,0,0-1,1.48c-6-4.14-15.19-6.78-15.19-6.78v-.83a4.57,4.57,0,0,1,.06-.58c0-.22.07-.42.12-.66.78-4,3.85-13,3.85-13h3.47l6.73,1.4,7.57-.46L117.6,137l1-.21c1.65,1.29,3.52,10.35,4.26,14.21.09.49.17.89.22,1.19S123.17,152.72,123.17,152.72Z"/><path class="cls-34" d="M89.43,151c.2-3.79,3.21-12,3.72-13.37h-.95S89,147.22,88.29,151a.09.09,0,0,0,0,0c0,.1,0,.2,0,.29s-.05.42-.06.58v.83s9.15,2.65,15.19,6.78a6.38,6.38,0,0,1,1-1.48C102.07,155.89,93.32,152.47,89.43,151Z"/><path class="cls-34" d="M123.07,152.18l-.08-.45-.14-.74h0c-.74-3.86-2.61-12.92-4.26-14.21l-1,.21c.6,1.61,4.47,12.14,4.14,14.2-6.47,1.29-13,5.5-15,6.84a2.82,2.82,0,0,1,1.21,1.44,37,37,0,0,1,15.23-6.74Z"/><path class="cls-31" d="M89.67,150.77c.2-3.79,3.21-12,3.72-13.37h-1s-3.25,9.58-3.91,13.31v0q0,.16,0,.3c0,.22-.05.42-.06.58v.83s9.15,2.64,15.19,6.78a6.27,6.27,0,0,1,1-1.48C102.3,155.66,93.56,152.23,89.67,150.77Z"/><path class="cls-42" d="M89.43,151c.2-3.79,3.21-12,3.72-13.37h-.95S89,147.22,88.29,151a.09.09,0,0,0,0,0c0,.1,0,.2,0,.29s-.05.42-.06.58v.83s9.15,2.65,15.19,6.78a6.38,6.38,0,0,1,1-1.48C102.07,155.89,93.32,152.47,89.43,151Z"/><path class="cls-31" d="M122.83,151.94l-.08-.45-.14-.74h0c-.73-3.86-2.61-12.92-4.26-14.21l-1,.21c.6,1.61,4.47,12.14,4.14,14.2-6.47,1.29-13,5.5-15,6.84a2.83,2.83,0,0,1,1.21,1.44,37,37,0,0,1,15.22-6.75S122.9,152.29,122.83,151.94Z"/><path class="cls-42" d="M123.07,152.18l-.08-.45-.14-.74h0c-.74-3.86-2.61-12.92-4.26-14.21l-1,.21c.6,1.61,4.47,12.14,4.14,14.2-6.47,1.29-13,5.5-15,6.84a2.82,2.82,0,0,1,1.21,1.44,37,37,0,0,1,15.23-6.74Z"/><path class="cls-31" d="M91.68,142.32s6,3.78,7.41-1.75l1.34.36s.44,6.13-9.14,2.63Z"/><path class="cls-40" d="M91.68,141.84s6,3.78,7.41-1.75l1.34.36s.44,6.13-9.14,2.63Z"/><path class="cls-31" d="M110.58,140.74s.78,4.52,9,2.33l-.29-.85s-5.62,2.33-7.66-1.72Z"/><path class="cls-40" d="M110.58,140.27s.78,4.52,9,2.33l-.29-.85s-5.62,2.33-7.66-1.72Z"/><path class="cls-31" d="M105.1,140.68v9.44h1.46s2-.73,2-5a27.38,27.38,0,0,0-.35-5.38Z"/><path class="cls-40" d="M104.87,140.45v9.44h1.46s2-.73,2-5a27.14,27.14,0,0,0-.36-5.38Z"/><path class="cls-31" d="M118.58,137.25c-.6,1.11-6,2.93-7,3.24l-.14,0s-.34.09-.91.21c-1.74.36-5.62,1-8.54.45l-1.31-.26-1-.23c-3.37-.75-6.85-1.73-7.47-2.59,0,0,.17-2.81.74-2.74s6.9,2.74,6.9,2.74h.09l1.05.13c2.06.23,6.39.58,8.72,0l.32-.1.55-.19c3-1.06,7.49-3,7.49-3A2,2,0,0,1,118.58,137.25Z"/><path class="cls-31" d="M118.07,134.8c-.24,1.18-6.86,3.84-6.86,3.84l-8.58.89-6.33-1-3.4-2,0-1.24a.52.52,0,0,1,.18-.57c1.13.34,6.73,2.7,6.73,2.7h.09l1.05.13c2.06.23,6.39.58,8.72,0l.32-.1.55-.19c2.71-1,6.64-2.61,7.37-2.91A.52.52,0,0,1,118.07,134.8Z"/><path class="cls-41" d="M118.58,136.78c-.6,1.11-6,2.92-7,3.24l-.14,0-.91.2c-1.74.36-5.62,1-8.54.45l-1.31-.26-1-.23c-3.37-.75-6.85-1.73-7.47-2.59,0,0,.17-2.81.74-2.74s6.9,2.74,6.9,2.74h.09l1.05.13c2.06.23,6.39.58,8.72,0l.32-.1.55-.19c3-1.06,7.49-3,7.49-3A2,2,0,0,1,118.58,136.78Z"/><circle class="cls-31" cx="106.13" cy="139.77" r="0.95"/><circle class="cls-43" cx="106.13" cy="139.53" r="0.95"/><path class="cls-31" d="M101.22,137.77l-.26,2.67-1-.23.26-2.57C100.33,137.67,100.7,137.72,101.22,137.77Z"/><path class="cls-43" d="M101,137.77l-.26,2.67-1-.23.26-2.57C100.09,137.67,100.47,137.72,101,137.77Z"/><path class="cls-31" d="M111.4,140l-.14,0-.91.2-.88-2.53.32-.1.55-.19Z"/><path class="cls-43" d="M111.64,140l-.14,0-.91.2-.88-2.53.32-.1.55-.19Z"/><path class="cls-9" d="M228.17,114.16A19.17,19.17,0,1,1,209,95a19.17,19.17,0,0,1,19.17,19.17Zm-21.39,10.14,14.27-14.22a1.23,1.23,0,0,0,0-1.74h0l-1.74-1.74a1.23,1.23,0,0,0-1.74,0h0L206,118.19l-5.42-5.42a1.22,1.22,0,0,0-1.73,0l0,0-1.75,1.74a1.25,1.25,0,0,0,0,1.75l8,8a1.23,1.23,0,0,0,1.74,0h0Z"/></svg>