<svg id="Layer_1" data-name="Layer 1" xmlns="http://www.w3.org/2000/svg" xmlns:xlink="http://www.w3.org/1999/xlink" viewBox="0 0 400 400"><defs><style>.cls-1,.cls-31,.cls-32,.cls-6{fill:none;}.cls-2{fill:#006838;}.cls-25,.cls-3{fill:#333954;}.cls-4{opacity:0.5;isolation:isolate;}.cls-5{fill:#d9e7ec;}.cls-6{stroke:#e6e7e8;stroke-width:3px;}.cls-25,.cls-31,.cls-32,.cls-6{stroke-miterlimit:10;}.cls-7{fill:url(#linear-gradient);}.cls-8{fill:url(#linear-gradient-2);}.cls-9{fill:#4ac7ed;}.cls-10{fill:#0c5a85;}.cls-11{fill:#2486c8;}.cls-12{fill:#49a9df;}.cls-13{fill:#f78c1e;}.cls-14{fill:#fbae18;}.cls-15{fill:#a8cf38;}.cls-16{fill:#8d9ca8;}.cls-17{fill:#87c540;}.cls-18{fill:#fdcc09;}.cls-19{fill:url(#linear-gradient-3);}.cls-20{fill:url(#linear-gradient-4);}.cls-21{fill:url(#linear-gradient-5);}.cls-22{fill:url(#linear-gradient-6);}.cls-23{clip-path:url(#clip-path);}.cls-24{fill:#464f73;}.cls-25,.cls-31,.cls-32{stroke:#333954;}.cls-26{fill:#754937;}.cls-27,.cls-29{fill:#563327;}.cls-27{opacity:0.76;}.cls-28{fill:#232223;}.cls-30{fill:#fff;}.cls-31,.cls-32{stroke-linecap:round;}.cls-31{stroke-width:0.75px;}.cls-33{fill:#27aae1;}.cls-34{fill:url(#linear-gradient-7);}.cls-35{fill:url(#linear-gradient-8);}.cls-36{fill:#84d3eb;}.cls-37{fill:url(#linear-gradient-9);}.cls-38{fill:url(#linear-gradient-10);}.cls-39{fill:url(#linear-gradient-11);}.cls-40{fill:url(#linear-gradient-12);}.cls-41{fill:url(#linear-gradient-13);}.cls-42{fill:url(#linear-gradient-14);}.cls-43{fill:url(#linear-gradient-15);}.cls-44{fill:url(#linear-gradient-16);}.cls-45{fill:#0f8a43;}.cls-46{fill:#0b6d38;}.cls-47{fill:#009444;}.cls-48{fill:#2bb673;}.cls-49{fill:#abd265;}</style><linearGradient id="linear-gradient" x1="165.77" y1="70.88" x2="114.82" y2="129" gradientUnits="userSpaceOnUse"><stop offset="0" stop-color="#9fce66"/><stop offset="1" stop-color="#66c07a"/></linearGradient><linearGradient id="linear-gradient-2" x1="103.11" y1="137.82" x2="164.58" y2="76.35" xlink:href="#linear-gradient"/><linearGradient id="linear-gradient-3" x1="299.51" y1="164.51" x2="284.87" y2="181.22" xlink:href="#linear-gradient"/><linearGradient id="linear-gradient-4" x1="281.5" y1="183.75" x2="299.17" y2="166.08" xlink:href="#linear-gradient"/><linearGradient id="linear-gradient-5" x1="211.85" y1="100.15" x2="200.79" y2="112.77" xlink:href="#linear-gradient"/><linearGradient id="linear-gradient-6" x1="198.24" y1="114.69" x2="211.59" y2="101.34" xlink:href="#linear-gradient"/><clipPath id="clip-path"><circle class="cls-1" cx="205.74" cy="185.49" r="48.59"/></clipPath><linearGradient id="linear-gradient-7" x1="299.28" y1="73.69" x2="248.63" y2="133.88" gradientUnits="userSpaceOnUse"><stop offset="0" stop-color="#20bfd3"/><stop offset="1" stop-color="#1593d1"/></linearGradient><linearGradient id="linear-gradient-8" x1="242.68" y1="135.38" x2="299.36" y2="78.7" xlink:href="#linear-gradient-7"/><linearGradient id="linear-gradient-9" x1="219.82" y1="248.3" x2="194.71" y2="278.14" xlink:href="#linear-gradient-7"/><linearGradient id="linear-gradient-10" x1="191.76" y1="278.89" x2="219.86" y2="250.78" xlink:href="#linear-gradient-7"/><linearGradient id="linear-gradient-11" x1="314.26" y1="212.13" x2="276.65" y2="254.06" gradientUnits="userSpaceOnUse"><stop offset="0" stop-color="#f1606d"/><stop offset="1" stop-color="#ef3d6e"/></linearGradient><linearGradient id="linear-gradient-12" x1="265.54" y1="263.68" x2="311.35" y2="217.87" xlink:href="#linear-gradient-11"/><linearGradient id="linear-gradient-13" x1="122.64" y1="157.9" x2="102.58" y2="180.26" xlink:href="#linear-gradient-11"/><linearGradient id="linear-gradient-14" x1="96.66" y1="185.39" x2="121.09" y2="160.96" xlink:href="#linear-gradient-11"/><linearGradient id="linear-gradient-15" x1="144.48" y1="210.81" x2="93.83" y2="271.01" xlink:href="#linear-gradient-7"/><linearGradient id="linear-gradient-16" x1="87.88" y1="272.51" x2="144.56" y2="215.83" xlink:href="#linear-gradient-7"/></defs><title>manage multiple stores</title><ellipse class="cls-2" cx="193.45" cy="314.56" rx="164.22" ry="8.73"/><path class="cls-3" d="M320.42,322.26h0s0,0,0,0Z"/><g class="cls-4"><path class="cls-2" d="M350.4,256.76c-1.57.88-3.26,1.71-5,2.53-8.38,3.88-18.86,7.25-30.85,10.16l-2.25.54-.19,0c-1.42.34-2.87.66-4.34,1-13.2,2.88-28,5.24-43.61,7.12l-.89.11-.21,0c-20.89,2.48-43.32,4.11-65.67,5q-5.27.2-10.53.35l-1.77,0-1.55,0q-3.37.08-6.73.14l-2.53,0-1.91,0c-5.51.08-11,.1-16.38.09-46.2-.15-87.49-3.55-108.26-9.4-60-16.9-46.79-58.51-8.82-67s-14.55-57.61,46-90C121.65,97.86,160.18,140.7,192,106.44c47.55-51.1,89.6-42.75,116.1-16.36,29.87,29.74,5.9,66,37.89,64.15C394,151.45,422.57,216.58,350.4,256.76Z"/></g><circle class="cls-5" cx="134.61" cy="106.46" r="44.16"/><line class="cls-6" x1="159.09" y1="136.35" x2="176.08" y2="150.62"/><line class="cls-6" x1="124.69" y1="174.47" x2="160.19" y2="174.47"/><line class="cls-6" x1="250" y1="174.47" x2="285.5" y2="174.47"/><line class="cls-6" x1="234.05" y1="151.33" x2="249.73" y2="135.64"/><line class="cls-6" x1="206.13" y1="138.22" x2="206.13" y2="116.04"/><line class="cls-6" x1="206.13" y1="257.51" x2="206.13" y2="235.33"/><line class="cls-6" x1="242.65" y1="201.58" x2="265.66" y2="220.91"/><line class="cls-6" x1="146.11" y1="224.4" x2="168.17" y2="204"/><circle class="cls-7" cx="134.58" cy="106.45" r="44.15"/><ellipse class="cls-8" cx="133.84" cy="107.08" rx="43.41" ry="43.52"/><path class="cls-9" d="M113.41,93.34h42.35V116H113.41Z"/><path class="cls-10" d="M134.6,93.34l-2,14.54,2,16.64h9.47l2.41-2.38V93.34Z"/><path class="cls-10" d="M122.68,93.34v28.4l2.41,2.78h9.51V93.34Z"/><path class="cls-11" d="M137.9,95.32v3.24h6.17v16.51h2.78V95.32Z"/><path class="cls-12" d="M131.92,95.32h-9.61v19.75h2.78V98.55h6.83Z"/><path class="cls-13" d="M125.93,81.47h-9.63l-5.46,9.94,17.59,1.82Z"/><path class="cls-14" d="M143.29,81.47h9.63l5.46,9.94-17.59,1.82Z"/><path class="cls-13" d="M146.46,95.18H134.58l-2-8.64,2-5.06h8.65l3.23,9.92Z"/><path class="cls-14" d="M122.7,91.39l3.23-9.92h8.65V95.18H122.7Z"/><path class="cls-15" d="M118,116.62,110.84,115a7.12,7.12,0,0,1,14.25,0Z"/><path class="cls-16" d="M110.84,114.82h14.25v9.71H110.84Z"/><path class="cls-17" d="M151.19,116l-7.12-1a7.12,7.12,0,1,1,14.25,0Z"/><path class="cls-16" d="M144.07,114.82h14.25v9.71H144.07Z"/><path class="cls-14" d="M140.53,102.76a5.93,5.93,0,0,1-5.93-5.93l-2-5.44h15.83l-2,5.44A5.93,5.93,0,0,1,140.53,102.76Z"/><path class="cls-14" d="M116.77,102.76a5.93,5.93,0,0,1-5.93-5.93V91.39h13.85l-2,5.44A5.93,5.93,0,0,1,116.77,102.76Z"/><path class="cls-18" d="M128.66,102.76a5.93,5.93,0,0,1-5.93-5.93V91.39h11.86v5.44A5.93,5.93,0,0,1,128.66,102.76Z"/><path class="cls-14" d="M152.39,102.76a5.93,5.93,0,0,1-5.93-5.93V91.39h11.86v5.44A5.93,5.93,0,0,1,152.39,102.76Z"/><circle class="cls-5" cx="290.56" cy="174.74" r="12.69"/><circle class="cls-19" cx="290.55" cy="174.74" r="12.69"/><ellipse class="cls-20" cx="290.34" cy="174.92" rx="12.48" ry="12.51"/><path class="cls-9" d="M284.46,171h12.17v6.51H284.46Z"/><path class="cls-10" d="M290.55,171l-.57,4.18.57,4.78h2.72l.69-.68V171Z"/><path class="cls-10" d="M287.13,171v8.16l.69.8h2.73v-9Z"/><path class="cls-11" d="M291.5,171.53v.93h1.77v4.75h.8v-5.68Z"/><path class="cls-12" d="M289.78,171.53H287v5.68h.8v-4.75h2Z"/><path class="cls-13" d="M288.06,167.55H285.3l-1.57,2.86,5.06.52Z"/><path class="cls-14" d="M293.05,167.55h2.77l1.57,2.86-5.06.52Z"/><path class="cls-13" d="M294,171.49h-3.41L290,169l.57-1.46H293l.93,2.85Z"/><path class="cls-14" d="M287.13,170.41l.93-2.85h2.49v3.94h-3.41Z"/><path class="cls-15" d="M285.77,177.66l-2-.47a2,2,0,1,1,4.1,0Z"/><path class="cls-16" d="M283.72,177.14h4.1v2.79h-4.1Z"/><path class="cls-17" d="M295.32,177.49l-2-.3a2,2,0,1,1,4.1,0Z"/><path class="cls-16" d="M293.28,177.14h4.1v2.79h-4.1Z"/><path class="cls-14" d="M292.26,173.67a1.7,1.7,0,0,1-1.7-1.7l-.57-1.56h4.55L294,172A1.71,1.71,0,0,1,292.26,173.67Z"/><path class="cls-14" d="M285.43,173.67a1.7,1.7,0,0,1-1.7-1.7v-1.56h4l-.57,1.56A1.71,1.71,0,0,1,285.43,173.67Z"/><path class="cls-18" d="M288.85,173.67a1.7,1.7,0,0,1-1.7-1.7v-1.56h3.41V172A1.71,1.71,0,0,1,288.85,173.67Z"/><path class="cls-14" d="M295.67,173.67A1.7,1.7,0,0,1,294,172v-1.56h3.41V172A1.71,1.71,0,0,1,295.67,173.67Z"/><circle class="cls-5" cx="205.08" cy="107.88" r="9.59"/><circle class="cls-21" cx="205.08" cy="107.88" r="9.59"/><ellipse class="cls-22" cx="204.92" cy="108.01" rx="9.43" ry="9.45"/><path class="cls-9" d="M200.48,105h9.2v4.92h-9.2Z"/><path class="cls-10" d="M205.08,105l-.43,3.16.43,3.61h2.06l.52-.52V105Z"/><path class="cls-10" d="M202.49,105v6.17l.52.6h2.06V105Z"/><path class="cls-11" d="M205.8,105.46v.7h1.34v3.59h.6v-4.29Z"/><path class="cls-12" d="M204.5,105.46h-2.09v4.29h.6v-3.59h1.48Z"/><path class="cls-13" d="M203.2,102.45h-2.09l-1.19,2.16,3.82.39Z"/><path class="cls-14" d="M207,102.45h2.09l1.19,2.16-3.82.39Z"/><path class="cls-13" d="M207.66,105.43h-2.58l-.43-1.88.43-1.1H207l.7,2.15Z"/><path class="cls-14" d="M202.5,104.6l.7-2.15h1.88v3H202.5Z"/><path class="cls-15" d="M201.47,110.08l-1.55-.35a1.55,1.55,0,0,1,3.09,0Z"/><path class="cls-16" d="M199.92,109.69H203v2.11h-3.09Z"/><path class="cls-17" d="M208.68,110l-1.55-.23a1.55,1.55,0,1,1,3.09,0Z"/><path class="cls-16" d="M207.14,109.69h3.09v2.11h-3.09Z"/><path class="cls-14" d="M206.37,107.07a1.29,1.29,0,0,1-1.29-1.29l-.43-1.18h3.44l-.43,1.18A1.29,1.29,0,0,1,206.37,107.07Z"/><path class="cls-14" d="M201.21,107.07a1.29,1.29,0,0,1-1.29-1.29V104.6h3l-.43,1.18A1.29,1.29,0,0,1,201.21,107.07Z"/><path class="cls-18" d="M203.79,107.07a1.29,1.29,0,0,1-1.29-1.29V104.6h2.57v1.18A1.29,1.29,0,0,1,203.79,107.07Z"/><path class="cls-14" d="M208.94,107.07a1.29,1.29,0,0,1-1.29-1.29V104.6h2.57v1.18A1.29,1.29,0,0,1,208.94,107.07Z"/><circle class="cls-5" cx="205.74" cy="185.14" r="48.59"/><g class="cls-23"><path class="cls-24" d="M207.61,226.84l3.9,62.63s8.66,7.93,24.15,2.63l-15.88-65.83Z"/><path class="cls-24" d="M207.37,226.57l1.27,63s-13.21,7.82-28.7,2.52l15.88-65.83Z"/><path class="cls-3" d="M209.62,294h-32.5c.21-1.34.63-4.06,1.54-5.21,2.83-3.6,5.6-2.67,5.6-2.67l24.39,3.43S209.68,294,209.62,294Z"/><path class="cls-3" d="M211,293.91h31.57a.39.39,0,0,0,.38-.48,13.23,13.23,0,0,0-2-4.51,9,9,0,0,0-2.31-2,7.31,7.31,0,0,0-4.93-.94l-21.94,3.44a.39.39,0,0,0-.32.3c-.17.72-.65,2.79-.84,3.72A.39.39,0,0,0,211,293.91Z"/><path class="cls-25" d="M207.61,226.84c-.48.79,1.44,64.67,1.44,64.67"/><rect class="cls-26" x="200.67" y="168.82" width="7.76" height="15.43" transform="translate(-4.98 5.94) rotate(-1.64)"/><path class="cls-27" d="M208.21,168.72l.16,7.82a6.3,6.3,0,0,1-7.62.89l-.27-7.82c.18-.23.36-.46.55-.68Z"/><path class="cls-26" d="M197.42,154.95s-3.61,6.29,0,16.29c.25.68,1.21,4.33,5,4.3,2.61,0,6.94.58,8.79-2.48,2.34-3.89,4-14.46.5-17.36S197.42,154.95,197.42,154.95Z"/><path class="cls-26" d="M210.06,165.66s5.23-2.46,7.23.85-5.79,6.62-6.83,3.42S210.06,165.66,210.06,165.66Z"/><path class="cls-28" d="M198,159.7s.95-3.11,2.44-1.75,2.4,1.69,7.77.69c6.18-1.15,3.4,7.93,3.4,7.93s2-2.24,3.71-1.58c0,0,1.38-9.91-2.32-11.26s-12.41-2.57-13.52-.66S198,159.7,198,159.7Z"/><path class="cls-26" d="M199,164.9s-5.22-2.46-7.2.85,5.77,6.62,6.81,3.42S199,164.9,199,164.9Z"/><path class="cls-29" d="M197.42,168.54s-1.67.36-1.87-.77a.82.82,0,0,1,.73-1.08s-2.83-1.69-3.14,0S196.09,169.81,197.42,168.54Z"/><path class="cls-28" d="M211.78,159.38s-.95-3.11-2.44-1.75-2.4,1.69-7.77.69c-6.18-1.15-3.4,7.93-3.4,7.93s-2-2.24-3.71-1.58c0,0-1.38-9.91,2.32-11.26s12-1.61,13.08.3A25.15,25.15,0,0,1,211.78,159.38Z"/><ellipse class="cls-3" cx="208.8" cy="164.17" rx="0.5" ry="1.06"/><ellipse class="cls-3" cx="200.74" cy="164.02" rx="0.5" ry="1.06"/><path class="cls-30" d="M201.61,169.33l5.39-.56s-2.15,7.08-5.23.53"/><path class="cls-29" d="M211.68,169.3s1.68.36,1.88-.77a.82.82,0,0,0-.73-1.08s2.83-1.69,3.15,0S213,170.57,211.68,169.3Z"/><circle class="cls-31" cx="200.15" cy="164.17" r="3.34" transform="translate(-26.25 38.65) rotate(-10.36)"/><circle class="cls-31" cx="208.8" cy="163.95" r="3.41" transform="translate(-26.07 40.2) rotate(-10.36)"/><line class="cls-32" x1="203.44" y1="163.57" x2="205.4" y2="163.64"/><path class="cls-33" d="M200.74,182s4.65,5.11,7.82-.85l5.43.57a5.66,5.66,0,0,1,3.29,2.15c5,6.69,8.46,35.8,2.95,41.91-1.08,1.19-11.29.8-12.86.83-16.39.35-19.9.69-14.21-35.73l.18-6c2.47-2.49,4.13-1.45,5.41-2.59Z"/><path class="cls-26" d="M166.87,182.85s-8.28-9-10.39-8.59.2,4.32.2,4.32,4.4,1.91-.26-2.38c-2.88-2.65-14.16,1.67-8.87,8.68,4.8,6.36,8.44,6.73,8.44,6.73Z"/><path class="cls-33" d="M196.18,183.32s-13.33,7.53-30-4.27a4.62,4.62,0,0,0-3.8-1.11s-5.6,6.68-11.1,10.17c-1.63,1-1,2.64.56,3.38,8.34,3.86,32.34,10.33,47.4.44Z"/><path class="cls-26" d="M244.55,186s9.51-7.71,11.53-7-.83,4.24-.83,4.24-4.63,1.25.6-2.32c3.24-2.21,13.76,3.72,7.5,9.88-5.68,5.59-9.33,5.43-9.33,5.43Z"/><path class="cls-33" d="M215.49,182.17s12.09,9.4,30.3.16a4.62,4.62,0,0,1,3.92-.55s4.56,7.42,9.5,11.68c1.46,1.26.65,2.77-1,3.27-8.82,2.6-33.5,5.5-47-6.48Z"/><path class="cls-25" d="M207.61,226.84c.89,0,8.68,67.69,1.44,64.67"/></g><rect class="cls-26" x="201.2" y="168.82" width="7.76" height="15.43" transform="translate(-4.98 5.95) rotate(-1.64)"/><path class="cls-27" d="M208.74,168.72l.16,7.82a6.3,6.3,0,0,1-7.62.89L201,169.6c.18-.23.36-.46.55-.68Z"/><path class="cls-26" d="M198,154.95s-3.61,6.29,0,16.29c.25.68,1.21,4.33,5,4.3,2.61,0,6.94.58,8.79-2.48,2.34-3.89,4-14.46.5-17.36S198,154.95,198,154.95Z"/><path class="cls-26" d="M210.59,165.66s5.23-2.46,7.23.85-5.79,6.62-6.83,3.42S210.59,165.66,210.59,165.66Z"/><path class="cls-28" d="M198.51,159.7s.95-3.11,2.44-1.75,2.4,1.69,7.77.69c6.18-1.15,3.4,7.93,3.4,7.93s2-2.24,3.71-1.58c0,0,1.38-9.91-2.32-11.26s-12.41-2.57-13.52-.66S198.51,159.7,198.51,159.7Z"/><path class="cls-26" d="M199.57,164.9s-5.22-2.46-7.2.85,5.77,6.62,6.81,3.42S199.57,164.9,199.57,164.9Z"/><path class="cls-29" d="M198,168.54s-1.67.36-1.87-.77a.82.82,0,0,1,.73-1.08s-2.83-1.69-3.14,0S196.62,169.81,198,168.54Z"/><path class="cls-28" d="M212.31,159.38s-.95-3.11-2.44-1.75-2.4,1.69-7.77.69c-6.18-1.15-3.4,7.93-3.4,7.93s-2-2.24-3.71-1.58c0,0-1.38-9.91,2.32-11.26s12-1.61,13.08.3A25.15,25.15,0,0,1,212.31,159.38Z"/><ellipse class="cls-3" cx="209.33" cy="164.17" rx="0.5" ry="1.06"/><ellipse class="cls-3" cx="201.27" cy="164.02" rx="0.5" ry="1.06"/><path class="cls-30" d="M202.14,169.33l5.39-.56s-2.15,7.08-5.23.53"/><path class="cls-29" d="M212.21,169.3s1.68.36,1.88-.77a.82.82,0,0,0-.73-1.08s2.83-1.69,3.15,0S213.55,170.57,212.21,169.3Z"/><circle class="cls-31" cx="200.68" cy="164.17" r="3.34" transform="translate(-26.24 38.75) rotate(-10.36)"/><circle class="cls-31" cx="209.33" cy="163.95" r="3.41" transform="translate(-26.06 40.3) rotate(-10.36)"/><line class="cls-32" x1="203.97" y1="163.57" x2="205.93" y2="163.64"/><path class="cls-33" d="M201.27,182s4.65,5.11,7.82-.85l5.43.57a5.66,5.66,0,0,1,3.29,2.15c5,6.69,8.46,35.8,2.95,41.91-1.08,1.19-11.29.8-12.86.83-16.39.35-19.9.69-14.21-35.73l.18-6c2.47-2.49,4.13-1.45,5.41-2.59Z"/><path class="cls-26" d="M167.4,182.85s-8.28-9-10.39-8.59.2,4.32.2,4.32,4.4,1.91-.26-2.38c-2.88-2.65-14.16,1.67-8.87,8.68,4.8,6.36,8.44,6.73,8.44,6.73Z"/><path class="cls-33" d="M196.71,183.32s-13.33,7.53-30-4.27a4.62,4.62,0,0,0-3.8-1.11s-5.6,6.68-11.1,10.17c-1.63,1-1,2.64.56,3.38,8.34,3.86,32.34,10.33,47.4.44Z"/><path class="cls-26" d="M245.08,186s9.51-7.71,11.53-7-.83,4.24-.83,4.24-4.63,1.25.6-2.32c3.24-2.21,13.76,3.72,7.5,9.88-5.68,5.59-9.33,5.43-9.33,5.43Z"/><path class="cls-33" d="M216,182.17s12.09,9.4,30.3.16a4.62,4.62,0,0,1,3.92-.55s4.56,7.42,9.5,11.68c1.46,1.26.65,2.77-1,3.27-8.82,2.6-33.5,5.5-47-6.48Z"/><circle class="cls-34" cx="271.7" cy="106.46" r="40.71"/><ellipse class="cls-35" cx="271.02" cy="107.04" rx="40.03" ry="40.13"/><path class="cls-12" d="M254.15,96.59h37.73v20.18H254.15Z"/><path class="cls-10" d="M273,96.59l-1.78,13L273,124.37h8.44l2.15-2.12V96.59Z"/><path class="cls-10" d="M262.41,96.59v25.3l2.15,2.48H273V96.59Z"/><path class="cls-11" d="M276,98.35v2.88h5.5v14.71H284V98.35Z"/><path class="cls-12" d="M270.64,98.35h-8.56v17.59h2.48V101.23h6.08Z"/><path class="cls-12" d="M265.31,86h-8.58l-4.87,8.85,15.67,1.62Z"/><path class="cls-11" d="M280.78,86h8.58l4.87,8.85-15.67,1.62Z"/><path class="cls-12" d="M283.6,98.22H273l-1.76-7.7L273,86h7.7l2.88,8.84Z"/><path class="cls-11" d="M262.44,94.85,265.31,86H273V98.22H262.44Z"/><path class="cls-15" d="M258.21,117.33l-6.35-1.44a6.35,6.35,0,1,1,12.7,0Z"/><path class="cls-16" d="M251.87,115.72h12.7v8.65h-12.7Z"/><path class="cls-17" d="M287.82,116.81l-6.35-.93a6.35,6.35,0,1,1,12.7,0Z"/><path class="cls-16" d="M281.47,115.72h12.7v8.65h-12.7Z"/><path class="cls-36" d="M278.32,105A5.28,5.28,0,0,1,273,99.7l-1.78-4.85h14.1L283.6,99.7A5.29,5.29,0,0,1,278.32,105Z"/><path class="cls-36" d="M257.15,105a5.28,5.28,0,0,1-5.28-5.28V94.85H264.2l-1.78,4.85A5.29,5.29,0,0,1,257.15,105Z"/><path class="cls-9" d="M267.75,105a5.28,5.28,0,0,1-5.28-5.28V94.85H273V99.7A5.29,5.29,0,0,1,267.75,105Z"/><path class="cls-9" d="M288.89,105a5.28,5.28,0,0,1-5.28-5.28V94.85h10.56V99.7A5.29,5.29,0,0,1,288.89,105Z"/><circle class="cls-37" cx="206.15" cy="264.55" r="20.18"/><ellipse class="cls-38" cx="205.81" cy="264.84" rx="19.85" ry="19.9"/><path class="cls-12" d="M197.45,259.65h18.71v10H197.45Z"/><path class="cls-10" d="M206.81,259.65l-.88,6.42.88,7.35H211l1.06-1.05V259.65Z"/><path class="cls-10" d="M201.55,259.65V272.2l1.06,1.23h4.2V259.65Z"/><path class="cls-11" d="M208.27,260.52V262H211v7.29h1.23v-8.72Z"/><path class="cls-12" d="M205.63,260.52h-4.24v8.72h1.23V262h3Z"/><path class="cls-12" d="M203,254.41h-4.25l-2.41,4.39,7.77.8Z"/><path class="cls-11" d="M210.65,254.41h4.25l2.41,4.39-7.77.8Z"/><path class="cls-12" d="M212,260.46H206.8l-.87-3.82.87-2.24h3.82l1.43,4.38Z"/><path class="cls-11" d="M201.56,258.79l1.43-4.38h3.82v6.06h-5.25Z"/><path class="cls-15" d="M199.46,269.94l-3.15-.72a3.15,3.15,0,0,1,6.3,0Z"/><path class="cls-16" d="M196.32,269.14h6.3v4.29h-6.3Z"/><path class="cls-17" d="M214.14,269.68l-3.15-.46a3.15,3.15,0,1,1,6.29,0Z"/><path class="cls-16" d="M211,269.14h6.29v4.29H211Z"/><path class="cls-36" d="M209.43,263.81a2.62,2.62,0,0,1-2.62-2.62l-.88-2.4h7l-.87,2.4A2.62,2.62,0,0,1,209.43,263.81Z"/><path class="cls-36" d="M198.94,263.81a2.62,2.62,0,0,1-2.62-2.62v-2.4h6.12l-.88,2.4A2.62,2.62,0,0,1,198.94,263.81Z"/><path class="cls-9" d="M204.19,263.81a2.62,2.62,0,0,1-2.62-2.62v-2.4h5.24v2.4A2.62,2.62,0,0,1,204.19,263.81Z"/><path class="cls-9" d="M214.67,263.81a2.62,2.62,0,0,1-2.62-2.62v-2.4h5.24v2.4A2.62,2.62,0,0,1,214.67,263.81Z"/><circle class="cls-39" cx="288.89" cy="240.42" r="34.2"/><ellipse class="cls-40" cx="288.32" cy="240.9" rx="33.63" ry="33.71"/><path class="cls-9" d="M276,234h25.11v13.43H276Z"/><path class="cls-10" d="M288.6,234l-1.18,8.62,1.18,9.87h5.62l1.43-1.41V234Z"/><path class="cls-10" d="M281.53,234v16.84l1.43,1.65h5.64V234Z"/><path class="cls-11" d="M290.55,235.12V237h3.66v9.79h1.65V235.12Z"/><path class="cls-12" d="M287,235.12h-5.7v11.71H283V237h4Z"/><path class="cls-13" d="M283.46,226.91h-5.71l-3.24,5.89,10.43,1.08Z"/><path class="cls-14" d="M293.75,226.91h5.71l3.24,5.89-10.43,1.08Z"/><path class="cls-13" d="M295.63,235h-7l-1.17-5.13,1.17-3h5.13l1.91,5.88Z"/><path class="cls-14" d="M281.54,232.8l1.91-5.88h5.13V235h-7Z"/><path class="cls-15" d="M278.73,247.76l-4.23-1a4.23,4.23,0,1,1,8.45,0Z"/><path class="cls-16" d="M274.51,246.69H283v5.76h-8.45Z"/><path class="cls-17" d="M298.44,247.42l-4.23-.62a4.23,4.23,0,1,1,8.45,0Z"/><path class="cls-16" d="M294.21,246.69h8.45v5.76h-8.45Z"/><path class="cls-14" d="M292.11,239.54A3.52,3.52,0,0,1,288.6,236l-1.18-3.23h9.39L295.63,236A3.52,3.52,0,0,1,292.11,239.54Z"/><path class="cls-14" d="M278,239.54a3.52,3.52,0,0,1-3.52-3.52V232.8h8.21L281.54,236A3.52,3.52,0,0,1,278,239.54Z"/><path class="cls-18" d="M285.08,239.54a3.52,3.52,0,0,1-3.52-3.52V232.8h7V236A3.52,3.52,0,0,1,285.08,239.54Z"/><path class="cls-14" d="M299.15,239.54a3.52,3.52,0,0,1-3.52-3.52V232.8h7V236A3.52,3.52,0,0,1,299.15,239.54Z"/><circle class="cls-41" cx="109.11" cy="172.98" r="18.24"/><ellipse class="cls-42" cx="108.8" cy="173.24" rx="17.94" ry="17.98"/><path class="cls-9" d="M102.25,169.54h13.39v7.17H102.25Z"/><path class="cls-10" d="M109,169.54l-.63,4.6.63,5.26h3l.76-.75v-9.11Z"/><path class="cls-10" d="M105.18,169.54v9l.76.88h3v-9.86Z"/><path class="cls-11" d="M110,170.16v1h2v5.22h.88v-6.25Z"/><path class="cls-12" d="M108.11,170.16h-3v6.25h.88v-5.22h2.16Z"/><path class="cls-13" d="M106.21,165.78h-3l-1.73,3.14,5.56.57Z"/><path class="cls-14" d="M111.7,165.78h3l1.73,3.14-5.56.57Z"/><path class="cls-13" d="M112.7,170.12h-3.76l-.63-2.73.63-1.6h2.74l1,3.14Z"/><path class="cls-14" d="M105.19,168.92l1-3.14h2.74v4.34h-3.76Z"/><path class="cls-15" d="M103.69,176.9l-2.25-.51a2.25,2.25,0,0,1,4.51,0Z"/><path class="cls-16" d="M101.44,176.33h4.51v3.07h-4.51Z"/><path class="cls-17" d="M114.2,176.72l-2.25-.33a2.25,2.25,0,1,1,4.51,0Z"/><path class="cls-16" d="M111.95,176.33h4.51v3.07h-4.51Z"/><path class="cls-14" d="M110.83,172.52a1.88,1.88,0,0,1-1.87-1.87l-.63-1.72h5l-.62,1.72A1.88,1.88,0,0,1,110.83,172.52Z"/><path class="cls-14" d="M103.31,172.52a1.88,1.88,0,0,1-1.88-1.87v-1.72h4.38l-.63,1.72A1.88,1.88,0,0,1,103.31,172.52Z"/><path class="cls-18" d="M107.08,172.52a1.88,1.88,0,0,1-1.87-1.87v-1.72H109v1.72A1.88,1.88,0,0,1,107.08,172.52Z"/><path class="cls-14" d="M114.58,172.52a1.88,1.88,0,0,1-1.88-1.87v-1.72h3.75v1.72A1.88,1.88,0,0,1,114.58,172.52Z"/><circle class="cls-43" cx="116.9" cy="243.59" r="40.71"/><ellipse class="cls-44" cx="116.22" cy="244.17" rx="40.03" ry="40.13"/><path class="cls-45" d="M102.37,234.62h32.06v17.15H102.37Z"/><path class="cls-46" d="M118.41,234.62l-1.51,11,1.51,12.6h7.17l1.82-1.8v-21.8Z"/><path class="cls-46" d="M109.39,234.62v21.5l1.82,2.11h7.2V234.62Z"/><path class="cls-11" d="M120.91,236.12v2.45h4.67v12.5h2.11V236.12Z"/><path class="cls-12" d="M116.38,236.12h-7.27v14.95h2.11v-12.5h5.17Z"/><path class="cls-47" d="M111.85,225.63h-7.29l-4.14,7.52,13.31,1.38Z"/><path class="cls-48" d="M125,225.63h7.29l4.14,7.52-13.31,1.38Z"/><path class="cls-47" d="M127.39,236h-9l-1.5-6.54,1.5-3.83h6.55l2.44,7.51Z"/><path class="cls-48" d="M109.41,233.14l2.44-7.51h6.55V236h-9Z"/><path class="cls-15" d="M105.82,252.25,100.43,251a5.39,5.39,0,0,1,10.79,0Z"/><path class="cls-16" d="M100.43,250.88h10.79v7.35H100.43Z"/><path class="cls-17" d="M131,251.81l-5.39-.79a5.39,5.39,0,1,1,10.79,0Z"/><path class="cls-16" d="M125.58,250.88h10.79v7.35H125.58Z"/><path class="cls-17" d="M122.9,241.75a4.49,4.49,0,0,1-4.49-4.49l-1.51-4.12h12l-1.49,4.12A4.49,4.49,0,0,1,122.9,241.75Z"/><path class="cls-17" d="M104.91,241.75a4.49,4.49,0,0,1-4.49-4.49v-4.12h10.48l-1.51,4.12A4.49,4.49,0,0,1,104.91,241.75Z"/><path class="cls-49" d="M113.92,241.75a4.49,4.49,0,0,1-4.49-4.49v-4.12h9v4.12A4.49,4.49,0,0,1,113.92,241.75Z"/><path class="cls-49" d="M131.88,241.75a4.49,4.49,0,0,1-4.49-4.49v-4.12h9v4.12A4.49,4.49,0,0,1,131.88,241.75Z"/></svg>