<svg id="Layer_1" data-name="Layer 1" xmlns="http://www.w3.org/2000/svg" viewBox="0 0 400 400"><defs><style>.cls-1{fill:#6466af;opacity:0.1;}.cls-1,.cls-2,.cls-3,.cls-8{isolation:isolate;}.cls-2,.cls-5{fill:#fff;}.cls-2{opacity:0.25;}.cls-3{opacity:0.5;}.cls-4{fill:#006838;}.cls-6{fill:#f1f2f2;opacity:0.35;}.cls-7{fill:#403e56;}.cls-8{fill:#010101;opacity:0.3;}</style></defs><title>manage product barcode</title><ellipse class="cls-1" cx="206.97" cy="266.8" rx="22.12" ry="3.4"/><circle class="cls-2" cx="131.76" cy="266.56" r="0.24"/><g class="cls-3"><path class="cls-4" d="M350.84,226.7c-1.59.89-3.3,1.73-5.09,2.56-8.48,3.93-19.09,7.34-31.22,10.28l-2.28.54-.19,0c-1.44.34-2.91.67-4.39,1-13.36,2.92-28.3,5.3-44.14,7.21l-.9.11-.21,0c-21.14,2.51-43.85,4.16-66.47,5q-5.34.21-10.66.35l-1.8,0-1.57,0q-3.41.08-6.81.14l-2.56,0-1.94,0c-5.57.08-11.11.1-16.58.09-46.76-.15-88.56-3.59-109.58-9.51-60.75-17.1-47.36-59.22-8.92-67.78S20.8,118.62,82.09,85.81c37.23-19.93,76.23,23.42,108.48-11.25C238.7,22.85,281.26,31.3,308.08,58c30.23,30.1,6,66.8,38.35,64.92C394.94,120.12,423.89,186,350.84,226.7Z"/></g><path class="cls-5" d="M300.32,140.49a5.81,5.81,0,0,1-5.81-5.81V116.09H275.92a5.81,5.81,0,0,1,0-11.62h24.4a5.81,5.81,0,0,1,5.81,5.81v24.4A5.81,5.81,0,0,1,300.32,140.49Z"/><path class="cls-5" d="M138,261h-24.4a5.81,5.81,0,0,1-5.81-5.81v-24.4a5.81,5.81,0,0,1,11.62,0v18.59H138A5.81,5.81,0,1,1,138,261Z"/><path class="cls-5" d="M300.32,261h-24.4a5.81,5.81,0,0,1,0-11.62h18.59V230.74a5.81,5.81,0,0,1,11.62,0v24.4A5.81,5.81,0,0,1,300.32,261Z"/><path class="cls-5" d="M113.63,140.49a5.81,5.81,0,0,1-5.81-5.81v-24.4a5.81,5.81,0,0,1,5.81-5.81H138a5.81,5.81,0,1,1,0,11.62H119.44v18.59A5.81,5.81,0,0,1,113.63,140.49Z"/><rect class="cls-5" x="235.25" y="134.3" width="11.62" height="25.18"/><path class="cls-5" d="M282.89,140.11a5.81,5.81,0,0,0-5.81-5.81H258.49v25.18h24.4Z"/><rect class="cls-5" x="212.01" y="134.3" width="11.62" height="25.18"/><path class="cls-5" d="M153.91,134.3H136.48a5.81,5.81,0,0,0-5.81,5.81v19.37h23.24Z"/><rect class="cls-5" x="188.77" y="134.3" width="11.62" height="25.18"/><rect class="cls-5" x="165.53" y="134.3" width="11.62" height="25.18"/><path class="cls-5" d="M294.32,171.09H119.63a5.81,5.81,0,1,0,0,11.62h11v42.61a5.81,5.81,0,0,0,5.81,5.81h140.6a5.81,5.81,0,0,0,5.81-5.81V182.71h11.43a5.81,5.81,0,1,0,0-11.62Zm-134.6,42.66a5.81,5.81,0,0,1-5.81-5.81V182.71h11.62v25.23A5.81,5.81,0,0,1,159.72,213.75Zm29-5.48a5.81,5.81,0,1,1-11.62,0v-1.57a5.81,5.81,0,1,1,11.62,0ZM183,192.78a5.81,5.81,0,0,1-5.81-5.81v-4.26h11.62V187A5.81,5.81,0,0,1,183,192.78Zm29,15.49a5.81,5.81,0,1,1-11.62,0v-1.57a5.81,5.81,0,1,1,11.62,0Zm-5.81-15.49a5.81,5.81,0,0,1-5.81-5.81v-4.26H212V187A5.81,5.81,0,0,1,206.2,192.78Zm29,15.49a5.81,5.81,0,1,1-11.62,0v-1.57a5.81,5.81,0,1,1,11.62,0Zm-5.81-15.49a5.81,5.81,0,0,1-5.81-5.81v-4.26h11.62V187A5.81,5.81,0,0,1,229.44,192.78Zm29.05,15.16a5.81,5.81,0,0,1-11.62,0V182.71h11.62Z"/><circle class="cls-6" cx="210.88" cy="237.58" r="53.5" transform="translate(-82.66 359.02) rotate(-70.88)"/><path class="cls-7" d="M272.87,201a70.55,70.55,0,1,0-30.34,99.75L274.2,344.1a6.5,6.5,0,0,0,11.18-6.63h0L253.7,294.07A70.55,70.55,0,0,0,272.87,201ZM239,281.55a52.85,52.85,0,1,1,18.43-72.44h0A52.85,52.85,0,0,1,239,281.55Z"/><path class="cls-8" d="M166.59,263.12A52.86,52.86,0,0,1,181.39,193q-1.93.95-3.82,2.06a52.85,52.85,0,1,0,54,90.87q1.88-1.12,3.63-2.37A52.86,52.86,0,0,1,166.59,263.12Z"/></svg>