<?xml version="1.0"?>
<svg xmlns="http://www.w3.org/2000/svg" xmlns:xlink="http://www.w3.org/1999/xlink" xmlns:svgjs="http://svgjs.com/svgjs" version="1.1" width="512" height="512" x="0" y="0" viewBox="0 0 512 512" style="enable-background:new 0 0 512 512" xml:space="preserve" class=""><circle r="256" cx="256" cy="256" fill="#f1f9f9" shape="circle"/><g transform="matrix(0.7,0,0,0.7,76.79999542236328,78)"><link type="text/css" id="black-mode" rel="stylesheet"/><style type="text/css" id="black-mode-custom-style"/><g xmlns="http://www.w3.org/2000/svg"><g fill="#57a4ff"><path d="m476 56h-440a19.994 19.994 0 0 0 -20 20v276h480v-276a19.994 19.994 0 0 0 -20-20zm-220 240a96 96 0 1 1 96-96 96 96 0 0 1 -96 96z" fill="#57a4ff" data-original="#57a4ff" style="" class=""/><path d="m208 392-16 48h128l-16-48z" fill="#57a4ff" data-original="#57a4ff" style="" class=""/><path d="m232 224h63l8-48h-71z" fill="#57a4ff" data-original="#57a4ff" style="" class=""/></g><g fill="#004fac"><path d="m476 48h-440a28.031 28.031 0 0 0 -28 28v296a28.031 28.031 0 0 0 28 28h160.9l-10.67 32h-26.23a8 8 0 0 0 -8 8v24a8 8 0 0 0 8 8h192a8 8 0 0 0 8-8v-24a8 8 0 0 0 -8-8h-26.23l-10.67-32h160.9a28.031 28.031 0 0 0 28-28v-296a28.031 28.031 0 0 0 -28-28zm-132 400v8h-176v-8zm-140.9-16 10.67-32h84.46l10.67 32zm284.9-60a12.01 12.01 0 0 1 -12 12h-440a12.01 12.01 0 0 1 -12-12v-12h464zm0-28h-464v-268a12.01 12.01 0 0 1 12-12h440a12.01 12.01 0 0 1 12 12z" fill="#004fac" data-original="#004fac" style="" class=""/><circle cx="288" cy="248" r="8" fill="#004fac" data-original="#004fac" style="" class=""/><path d="m241 240c-4.418 0-9 3.582-9 8a8 8 0 0 0 16 0c0-4.418-2.582-8-7-8z" fill="#004fac" data-original="#004fac" style="" class=""/><path d="m256 96a104 104 0 1 0 104 104 104.112 104.112 0 0 0 -104-104zm0 192a88 88 0 1 1 88-88 88.1 88.1 0 0 1 -88 88z" fill="#004fac" data-original="#004fac" style="" class=""/><path d="m309.1 170.83a7.976 7.976 0 0 0 -6.1-2.83h-63v-8a8 8 0 0 0 -8-8h-24a8 8 0 0 0 0 16h16v56a8 8 0 0 0 8 8h63a8 8 0 0 0 7.89-6.68l8-48a7.994 7.994 0 0 0 -1.79-6.49zm-20.88 45.17h-48.22v-32h53.56z" fill="#004fac" data-original="#004fac" style="" class=""/></g></g></g></svg>
