<svg xmlns="http://www.w3.org/2000/svg" width="512" height="512" viewBox="0 0 512 512">    <g>    <path d="M264,288a32,32,0,1,0-32-32A32.036,32.036,0,0,0,264,288Zm0-48a16,16,0,1,1-16,16A16.019,16.019,0,0,1,264,240Z"/>    <path d="M424,224H408V40A32.036,32.036,0,0,0,376,8H136a32.036,32.036,0,0,0-32,32v82.39a71.876,71.876,0,0,0,0,107.22V472a32.036,32.036,0,0,0,32,32H376a32.036,32.036,0,0,0,32-32V384h16a8,8,0,0,0,8-8V232A8,8,0,0,0,424,224ZM309.75,24l-4,16H206.06l-4.5-16ZM96,176a56,56,0,1,1,56,56A56.062,56.062,0,0,1,96,176Zm272,55.32v49.36A48.094,48.094,0,0,0,328.68,320H199.32A48.094,48.094,0,0,0,160,280.68V247.54A72.145,72.145,0,0,0,222.19,192H328.68A48.094,48.094,0,0,0,368,231.32ZM345.01,192H368v22.99A32.12,32.12,0,0,1,345.01,192ZM368,297.01V320H345.01A32.12,32.12,0,0,1,368,297.01ZM182.99,320H160V297.01A32.12,32.12,0,0,1,182.99,320ZM392,472a16.021,16.021,0,0,1-16,16H136a16.021,16.021,0,0,1-16-16V240.47a71.133,71.133,0,0,0,24,7.07V328a8,8,0,0,0,8,8h16v16a8,8,0,0,0,8,8h16v16a8,8,0,0,0,8,8H392Zm0-104H208v-8H392Zm0-24H184v-8H376a8,8,0,0,0,8-8V216h8Zm0-144h-8V184a8,8,0,0,0-8-8H224a71.954,71.954,0,0,0-104-64.47V40a16.021,16.021,0,0,1,16-16h48.94l7.36,26.17A8,8,0,0,0,200,56H312a8,8,0,0,0,7.76-6.06L326.25,24H376a16.021,16.021,0,0,1,16,16Zm24,168h-8V240h8Z"/>    <circle cx="152" cy="200" r="8"/>    <path d="M173.335,176.15a32,32,0,0,0-42.67,0,8,8,0,1,0,10.67,11.922,16,16,0,0,1,21.33,0,8,8,0,1,0,10.67-11.922Z"/>    <path d="M125.335,170.183a40,40,0,0,1,53.33,0,8,8,0,1,0,10.67-11.922,56,56,0,0,0-74.67,0,8,8,0,1,0,10.67,11.922Z"/>  </g></svg>