<?xml version="1.0" encoding="utf-8"?>
<!-- Generator: Adobe Illustrator 23.1.1, SVG Export Plug-In . SVG Version: 6.00 Build 0)  -->
<svg version="1.1" id="Capa_1" xmlns="http://www.w3.org/2000/svg" xmlns:xlink="http://www.w3.org/1999/xlink" x="0px" y="0px"
	 viewBox="0 0 512 512" style="enable-background:new 0 0 512 512;" xml:space="preserve">
<style type="text/css">
	.st0{fill:#FFFFFF;}
</style>
<g>
	<g>
		<path class="st0" d="M458.7,422.2l-22.9-288.1c-1.4-18.6-17.1-33.1-35.7-33.1H355v-2c0-54.6-44.4-99-99-99s-99,44.4-99,99v2h-45.2
			c-18.6,0-34.3,14.5-35.7,33.1L53.3,422.3c-1.8,23.1,6.2,46,22,63s38,26.7,61.2,26.7h239.2c23.1,0,45.4-9.7,61.2-26.7
			C452.5,468.3,460.5,445.3,458.7,422.2z M187,99c0-38,30.9-69,69-69s69,30.9,69,69v2H187V99z M414.8,464.9
			c-10.2,11-24.1,17.1-39.2,17.1H136.4c-15,0-28.9-6.1-39.2-17.1c-10.2-11-15.2-25.4-14.1-40.3L106,136.4c0.2-3,2.8-5.4,5.8-5.4H157
			v36.9c0,8.3,6.7,15,15,15c8.3,0,15-6.7,15-15V131h138v36.9c0,8.3,6.7,15,15,15s15-6.7,15-15V131h45.2c3,0,5.6,2.4,5.8,5.4
			l22.9,288.1C430,439.5,425,453.9,414.8,464.9z"/>
	</g>
</g>
<g>
	<g>
		<path class="st0" d="M256,209.3c-47.6,0-86.4,38.8-86.4,86.4c0,45.8,41.3,82.2,63.5,101.7c2.9,2.5,5.3,4.7,7.2,6.5
			c4.4,4.1,10,6.1,15.6,6.1c5.6,0,11.2-2,15.6-6.1c1.9-1.8,4.4-4,7.3-6.5c22.2-19.5,63.5-55.9,63.5-101.7
			C342.4,248,303.6,209.3,256,209.3z M259.1,374.9c-1.1,0.9-2.1,1.8-3,2.7c-1-0.9-2-1.7-3-2.7c-18.6-16.4-53.4-46.9-53.4-79.2
			c0-31.1,25.3-56.4,56.4-56.4c31.1,0,56.4,25.3,56.4,56.4C312.4,327.9,277.7,358.5,259.1,374.9z"/>
	</g>
</g>
<g>
	<g>
		<path class="st0" d="M256,257.6c-20.2,0-36.7,16.4-36.7,36.7c0,20.2,16.4,36.7,36.7,36.7c20.2,0,36.7-16.4,36.7-36.7
			C292.7,274.1,276.2,257.6,256,257.6z M256,301c-3.7,0-6.7-3-6.7-6.7c0-3.7,3-6.7,6.7-6.7s6.7,3,6.7,6.7
			C262.7,298,259.7,301,256,301z"/>
	</g>
</g>
</svg>
