<?xml version="1.0"?>
<svg xmlns="http://www.w3.org/2000/svg" xmlns:xlink="http://www.w3.org/1999/xlink" xmlns:svgjs="http://svgjs.com/svgjs" version="1.1" width="512" height="512" x="0" y="0" viewBox="0 0 511.865 511.865" style="enable-background:new 0 0 512 512" xml:space="preserve" class=""><g><link type="text/css" id="black-mode" rel="stylesheet"/><style type="text/css" id="black-mode-custom-style"/>
<g xmlns="http://www.w3.org/2000/svg">
	<path style="" d="M179.415,341.464l159.047-20.81c31.348-4.102,59.99-19.325,80.651-42.865   c20.661-23.541,32.04-53.916,32.04-85.53v-15.847c0-7.447-5.464-13.768-12.834-14.843L91.046,110.895L51.812,82.433   c-6.709-4.857-16.088-3.357-20.947,3.352c-4.858,6.71-3.358,16.089,3.352,20.947l38.737,28.102l77.408,190.557   c-2.585,2.957-4.806,6.309-6.566,10.036c-6.294,13.325-5.411,28.128,2.425,40.611c8.029,12.792,21.34,20.128,36.519,20.128h235.06   c8.284,0,15-6.716,15-15s-6.716-15-15-15h-235.06c-4.773,0-8.614-2.102-11.11-6.077c-2.387-3.803-2.625-7.79-0.708-11.849   C172.674,344.528,175.536,342.265,179.415,341.464z M421.152,189.382v2.877c0,46.074-30.2,84.583-73.479,96.059l-10.705-61.538   c-0.072-1.061-0.254-2.093-0.536-3.084l-8.331-47.892L421.152,189.382z M318.05,293.07l-63.023,8.246l-17.63-60.85l71.85,1.999   L318.05,293.07z M296.858,171.245l7.143,41.063l-75.37-2.097l-14.8-51.081L296.858,171.245z M108.989,143.83l72.229,10.54   l15.925,54.964l-62.249-1.732L108.989,143.83z M205.91,239.59l19.025,65.663l-47.127,6.166c-0.239,0.013-0.478,0.031-0.719,0.055   l-29.864-73.517L205.91,239.59z" fill="#549736" data-original="#212cbb" class=""/>
	<path style="" d="M417.798,366.165H273.52v30h144.279c8.284,0,15-6.716,15-15S426.083,366.165,417.798,366.165z" fill="#0b6403" data-original="#00215a" class=""/>
	<path style="" d="M438.319,161.57L273.52,137.522v30.317l23.338,3.406l7.143,41.063l-30.481-0.848v30.011   l35.727,0.994l8.803,50.605l-44.53,5.826v30.255l64.942-8.497c31.348-4.102,59.99-19.325,80.651-42.865   c20.661-23.541,32.04-53.916,32.04-85.53v-15.847C451.152,168.965,445.688,162.645,438.319,161.57z M421.152,192.259   c0,46.074-30.2,84.583-73.479,96.059l-10.705-61.538c-0.072-1.061-0.254-2.093-0.536-3.084l-8.331-47.892l93.052,13.578V192.259z" fill="#0b6403" data-original="#00215a" class=""/>
	<path style="" d="M393.629,248.276c-58.268,0-105.672-47.404-105.672-105.672S335.361,36.932,393.629,36.932   c58.267,0,105.671,47.404,105.671,105.672S451.896,248.276,393.629,248.276z" fill="#00eed1" data-original="#00eed1" class=""/>
	<path style="" d="M394.313,36.941v211.326c57.953-0.37,104.987-47.624,104.987-105.663S452.266,37.311,394.313,36.941   z" fill="#00ccb3" data-original="#00ccb3" class=""/>
	<path style="" d="M394.313,177.664c-3.841,0-7.525-1.526-10.241-4.242l-28.965-28.966   c-5.656-5.656-5.656-14.826,0-20.482c5.656-5.656,14.826-5.657,20.482,0l18.725,18.725l92.828-92.828   c5.656-5.656,14.826-5.656,20.482,0c5.656,5.656,5.656,14.826,0,20.482L404.554,173.422   C401.838,176.139,398.154,177.664,394.313,177.664z" fill="#549736" data-original="#212cbb" class=""/>
	<circle style="" cx="203.622" cy="442.052" r="32.88" fill="#549736" data-original="#212cbb" class=""/>
	<circle style="" cx="381.549" cy="442.052" r="32.88" fill="#0b6403" data-original="#00215a" class=""/>
	<circle style="" cx="29.813" cy="83.785" r="29.813" fill="#0b6403" data-original="#f90053" class=""/>
	<circle style="" cx="203.622" cy="442.052" r="11.755" fill="#e8f6fc" data-original="#e8f6fc" class=""/>
	<circle style="" cx="381.549" cy="442.052" r="11.755" fill="#cee2e9" data-original="#cee2e9"/>
	<path style="" d="M507.623,49.872c-5.656-5.656-14.826-5.656-20.482,0L394.313,142.7v34.965   c3.841,0,7.525-1.526,10.241-4.242L507.623,70.354C513.279,64.698,513.279,55.528,507.623,49.872z" fill="#0b6403" data-original="#00215a" class=""/>
</g>















</g></svg>
