<svg id="Layer_1" data-name="Layer 1" xmlns="http://www.w3.org/2000/svg" xmlns:xlink="http://www.w3.org/1999/xlink" viewBox="0 0 929.26 929.26"><defs><style>.cls-1{fill:url(#linear-gradient);}.cls-2{fill:#fff;}</style><linearGradient id="linear-gradient" x1="85.6" y1="510.09" x2="940.5" y2="510.09" gradientUnits="userSpaceOnUse"><stop offset="0" stop-color="#8dc63f"/><stop offset="0.22" stop-color="#6dbb40"/><stop offset="1" stop-color="#009444"/></linearGradient></defs><title>others</title><path d="M513.05,45.46c-256.61,0-464.63,208-464.63,464.63s208,464.63,464.63,464.63,464.63-208,464.63-464.63S769.66,45.46,513.05,45.46Zm0,892.08C277,937.54,85.6,746.14,85.6,510.09S277,82.64,513.05,82.64,940.5,274,940.5,510.09,749.11,937.54,513.05,937.54Z" transform="translate(-48.42 -45.46)"/><path class="cls-1" d="M940.5,510.09c0,236.06-191.39,427.45-427.45,427.45S85.6,746.14,85.6,510.09,277,82.64,513.05,82.64,940.5,274,940.5,510.09Z" transform="translate(-48.42 -45.46)"/><path class="cls-2" d="M698.1,469.7H570.7V342.29a42.47,42.47,0,0,0-84.93,0V469.7H358.35a42.47,42.47,0,0,0,0,84.94H485.76V682a42.47,42.47,0,1,0,84.93,0V554.63H698.1a42.47,42.47,0,0,0,0-84.94Z" transform="translate(-48.42 -45.46)"/></svg>