<?xml version="1.0" encoding="utf-8"?>
<!-- Generator: Adobe Illustrator 21.1.0, SVG Export Plug-In . SVG Version: 6.00 Build 0)  -->
<svg version="1.1" id="Layer_1" xmlns="http://www.w3.org/2000/svg" xmlns:xlink="http://www.w3.org/1999/xlink" x="0px" y="0px"
	 viewBox="0 0 591 591" style="enable-background:new 0 0 591 591;" xml:space="preserve">
<style type="text/css">
	.st0{fill:#CFE0A2;}
	.st1{fill:#CE8628;}
	.st2{opacity:0.66;}
	.st3{fill:none;stroke:#A06404;stroke-width:4;stroke-miterlimit:10;stroke-dasharray:1.9931,1.9931;}
	.st4{fill:#FDB62F;}
	.st5{fill:none;stroke:#A06404;stroke-width:4;stroke-miterlimit:10;stroke-dasharray:2.0045,2.0045;}
	.st6{fill:#F9AC3D;}
	.st7{fill:#5EAC24;stroke:#118904;stroke-width:6;stroke-miterlimit:10;}
	.st8{fill:#4E901E;stroke:#118904;stroke-width:6;stroke-miterlimit:10;}
	.st9{fill:#DE4C3C;}
	.st10{fill:#7A4930;}
	.st11{fill:#4398D1;}
	.st12{fill:#3E8CC7;}
	.st13{fill:#5EB3D1;}
	.st14{fill:#FD7B2F;}
	.st15{opacity:0.45;fill:#58595B;}
	.st16{fill:#B2B1B1;}
	.st17{fill:#605F5E;}
	.st18{fill:#58595B;}
	.st19{fill:#BC784A;}
	.st20{fill:#FFFFFF;}
	.st21{font-family:'Montserrat-Medium';}
	.st22{font-size:25.5983px;}
	.st23{opacity:0.62;fill:#894A1F;}
	.st24{fill:#5EAC24;}
</style>
<g>
	<path class="st0" d="M587.6,295.5c0,100.3-50.6,188.8-127.6,241.4c-26.8,18.3-56.7,32.2-88.8,40.8c-24.1,6.5-49.5,9.9-75.6,9.9
		C134.2,587.6,3.4,456.8,3.4,295.5S134.2,3.4,295.5,3.4S587.6,134.2,587.6,295.5z"/>
	<circle class="st1" cx="301.3" cy="158.9" r="60.8"/>
	<g class="st2">
		<circle class="st1" cx="301.7" cy="158.9" r="58.4"/>
		<circle class="st3" cx="301.7" cy="158.9" r="58.4"/>
	</g>
	<circle class="st4" cx="300.7" cy="158.9" r="45.1"/>
	<g class="st2">
		<ellipse class="st5" cx="300.7" cy="156.5" rx="42.6" ry="40.4"/>
	</g>
	<ellipse class="st6" cx="300.8" cy="147" rx="8.8" ry="12.5"/>
	<path class="st6" d="M309.5,184.1h-16.9c-6.6,0-12-5.4-12-12v-6.3c0-6.6,5.4-12,12-12h16.9c6.6,0,12,5.4,12,12v6.3
		C321.5,178.7,316.1,184.1,309.5,184.1z"/>
	<g>
		<path class="st7" d="M522.6,222.3L346.1,334.1L269,212.3l176.5-111.8L522.6,222.3z"/>
		<path class="st8" d="M468.6,137.1l-23.1-36.5L409,123.7C421.8,143.8,448.5,149.8,468.6,137.1z"/>
		<path class="st8" d="M486.1,245.4l36.5-23.1l-23.1-36.5C479.3,198.5,473.3,225.2,486.1,245.4L486.1,245.4z"/>
		
			<ellipse transform="matrix(0.8448 -0.5351 0.5351 0.8448 -57.158 239.7806)" class="st8" cx="384.8" cy="218.4" rx="33.8" ry="33.8"/>
	</g>
	<g>
		<path class="st9" d="M289.3,199.1l-2.1,13.6l-0.6,3.7l-0.6,3.7l-1.8,11.9l-0.2,1l0,0l-3.1,20.2l-2,13.1l-3.6,23.9
			c-1.4,9.2-9.9,15.5-19.1,14.1l-40.2-6.1l-7.1-1.1l-7.6-1.2l-111-16.9c-9.2-1.4-15.4-9.9-14.1-19.1l3.6-23.5l3.4-22.4l1.8-12
			l5.1-33.3c0.3-2,0.9-3.8,1.8-5.5l0.4-0.7l0.1-0.2c3.4-5.5,9.9-8.7,16.8-7.7l30.5,4.6l10.7,1.6l76.2,11.6l5.3,0.8l31.7,4.8l8.4,1.3
			l2.9,0.4c2.1,0.3,4,1,5.7,1.9l0.1,0.1c1.1,0.7,2.2,1.4,3.1,2.3C288.1,187.9,290.2,193.4,289.3,199.1z"/>
		<path class="st10" d="M284.3,231.9L85.2,202.1L80,236.4l199.1,29.9L284.3,231.9z"/>
		<path class="st11" d="M76.5,190.8l45.7-80.1c4.6-8,14.8-10.8,22.9-6.3l145.7,83.2c8,4.6,10.8,14.8,6.3,22.9l-45.7,80.1
			c-4.6,8-14.8,10.8-22.9,6.3L82.7,213.6C74.7,209,71.9,198.8,76.5,190.8z"/>
		<path class="st12" d="M290.8,187.5l-15.5-8.8l-171.6,46.9l124.7,71.2c8,4.6,18.3,1.8,22.9-6.3l45.7-80.1
			C301.6,202.4,298.8,192.1,290.8,187.5z"/>
		<path class="st13" d="M111.8,162.6l14.6,8.3l-4.2,7.3l-14.6-8.3L111.8,162.6z"/>
		<path class="st13" d="M99.4,184.5l14.6,8.3l-4.2,7.3l-14.6-8.3L99.4,184.5z"/>
		<path class="st13" d="M164.9,221.9l14.6,8.3l-4.2,7.3l-14.6-8.3L164.9,221.9z"/>
		<path class="st13" d="M133.7,175.1l14.6,8.3l-4.2,7.3l-14.6-8.3L133.7,175.1z"/>
		<path class="st13" d="M155.5,187.6l14.6,8.3l-4.2,7.3l-14.6-8.3L155.5,187.6z"/>
		<path class="st13" d="M177.4,200.1l14.6,8.3l-4.2,7.3l-14.6-8.3L177.4,200.1z"/>
		<path class="st13" d="M271.5,195.9l7.3,4.2l-6.2,10.9l-7.3-4.2L271.5,195.9z"/>
		<path class="st13" d="M257,187.5l7.3,4.2l-6.2,10.9l-7.3-4.2L257,187.5z"/>
		<path class="st13" d="M242.4,179.2l7.3,4.2l-6.2,10.9l-7.3-4.2L242.4,179.2z"/>
		<path class="st13" d="M227.8,170.9l7.3,4.2l-6.2,10.9l-7.3-4.2L227.8,170.9z"/>
		<path class="st4" d="M123.5,142.3l10-17.5c1.8-3.2,5.9-4.3,9.2-2.5l17.5,10c3.2,1.8,4.3,5.9,2.5,9.2l-10,17.5
			c-1.8,3.2-5.9,4.3-9.2,2.5l-17.5-10C122.8,149.6,121.6,145.5,123.5,142.3z"/>
		<path class="st14" d="M130.5,129.9l10.9,6.2l-4.2,7.3l-10.9-6.2L130.5,129.9z"/>
		<path class="st14" d="M148.8,140.3l10.9,6.2l-4.2,7.3l-10.9-6.2L148.8,140.3z"/>
	</g>
	<path class="st15" d="M395.8,202.9v93.7c0,5.5-1.8,10.6-4.9,14.8c-1.1,1.4-2.3,2.8-3.7,3.9c-0.6,0.5-1.2,1-1.8,1.4
		c-0.5,0.4-1,0.7-1.5,1c-3.7,2.2-8,3.5-12.6,3.5H226.1c-3.5,0-6.9-0.8-10-2.1c-2.6-1.2-5-2.8-7.1-4.8v-17.2l-7.6-1.2v-93.1
		c0-1.4,0.1-2.8,0.3-4.1c1.8-10.8,10.8-19.3,21.8-20.4c0.8-0.1,1.7-0.1,2.5-0.1h145.1C384.7,178.2,395.8,189.3,395.8,202.9z"/>
	<g>
		<rect x="209.1" y="220.1" class="st16" width="178.1" height="238.6"/>
		<path class="st17" d="M370.4,221.4V324c0,68-53.5,123.1-119.5,123.1l0,0h-34.8v10.3h169.2v-236H370.4z"/>
		<g>
			<path class="st18" d="M209.1,212.7V466h181.8V212.7H209.1z M216.1,220.1h167.7v238.6H216.1V220.1z"/>
			<path class="st18" d="M209.1,462.4v10.7c0,11.8,9.6,21.4,21.4,21.4h139c11.8,0,21.4-9.6,21.4-21.4v-10.7H209.1z"/>
			<path class="st18" d="M369.5,184.3h-139c-11.8,0-21.4,9.6-21.4,21.4v10.7h181.8v-10.7C390.9,193.9,381.3,184.3,369.5,184.3z"/>
		</g>
	</g>
	<path class="st19" d="M442.5,354.7L390.9,303v207.3H460V396.7C460,380.9,453.7,365.8,442.5,354.7z"/>
	<path class="st9" d="M350.6,424H252c-10.7,0-19.5-8.8-19.5-19.5v0c0-10.7,8.8-19.5,19.5-19.5h98.7c10.7,0,19.5,8.8,19.5,19.5v0
		C370.2,415.2,361.4,424,350.6,424z"/>
	<text transform="matrix(1 0 0 1 269.4863 414.8271)" class="st20 st21 st22">PAY</text>
	<path class="st19" d="M356.6,362.5c-8.4-8.3-21.9-8.3-30.3,0.1c-8.1,8.1-8.3,21.1-0.6,29.5l40.4,44.1
		c-12.2,21.3-11.6,47.5,1.3,68.3l3.6,5.7h64.2v-69.1L356.6,362.5z"/>
	<path class="st23" d="M427.9,441.2c-2,0-3.9-0.7-5.2-2l-29.7-26.6c-2.8-2.6-2.8-6.9,0.2-9.4c2.9-2.5,7.4-2.5,10.3,0l29.7,26.6
		c2.9,2.6,2.9,6.8,0,9.4C431.7,440.5,429.8,441.2,427.9,441.2z"/>
	<path class="st20" d="M288.8,263.2H337c2.7,0,4.8-2.2,4.8-4.8s-2.2-4.8-4.8-4.8h-48.2c-2.7,0-4.8,2.2-4.8,4.8
		S286.1,263.2,288.8,263.2z"/>
	<path class="st20" d="M288.8,282.5H337c2.7,0,4.8-2.2,4.8-4.8s-2.2-4.8-4.8-4.8h-48.2c-2.7,0-4.8,2.2-4.8,4.8
		S286.1,282.5,288.8,282.5z"/>
	<g>
		<circle class="st20" cx="308" cy="342.4" r="6.3"/>
		<circle class="st20" cx="327.8" cy="342.4" r="6.3"/>
		<path class="st20" d="M336.6,305.9h-29.9l-1.1-8.6c-0.3-2-2-3.6-4-3.6h-8.1c-2.2,0-4.1,1.8-4.1,4.1s1.8,4.1,4.1,4.1h4.5l3.1,24.9
			c0.3,2,2,3.6,4,3.6h26c1.8,0,3.3-1.1,3.9-2.8l5.4-16.3c0.7-2.1-0.4-4.4-2.6-5.1C337.5,305.9,337.1,305.9,336.6,305.9L336.6,305.9z
			"/>
	</g>
	<path class="st24" d="M460,510.3v26.7c-26.8,18.3-56.7,32.2-88.8,40.8v-67.4H460z"/>
	<path class="st20" d="M385.9,525.1h9.9v9.9h-9.9V525.1z"/>
</g>
</svg>
