<svg height="464pt" viewBox="0 -4 464 464" width="464pt" xmlns="http://www.w3.org/2000/svg"><path d="m325.015625 138.441406c1.34375-.980468 2.609375-2.0625 3.785156-3.242187l39.199219-39.199219-39.199219 39.199219c-1.175781 1.179687-2.441406 2.261719-3.785156 3.242187zm0 0" fill="#bddbff"/><path d="m384 64v192c-.027344 8.824219-7.175781 15.972656-16 16h-352c-8.824219-.027344-15.9726562-7.175781-16-16v-176c.0273438-8.824219 7.175781-15.972656 16-16zm0 0" fill="#00ccb3"/><path d="m277.921875 129.601562c-1.503906-1.507812-2.347656-3.554687-2.335937-5.679687-.011719 2.125.832031 4.171875 2.335937 5.679687zm0 0" fill="#bddbff"/><path d="m277.921875 129.601562 5.597656 5.597657c3.746094 3.726562 8.347657 6.472656 13.402344 8-5.054687-1.527344-9.65625-4.273438-13.402344-8zm0 0" fill="#bddbff"/><path d="m384.480469 345.839844c-3.574219-7.691406-10.0625-13.644532-18.035157-16.539063-7.96875-2.898437-16.765624-2.503906-24.445312 1.097657l-108.695312 50.609374c-4.234376 1.972657-8.84375 2.992188-13.511719 2.992188h-19.792969c17.671875 0 32-14.328125 32-32s-14.328125-32-32-32h-120c-20.335938-.023438-38.464844 12.8125-45.199219 32h-34.800781v104h216.910156c4.671875 0 9.28125-1.023438 13.515625-2.992188l138.613281-64.609374c11.238282-5.300782 18.40625-16.613282 18.402344-29.039063-.003906-4.667969-1.015625-9.277344-2.960937-13.519531zm0 0" fill="#ffdaaa"/><path d="m227.679688 368c-5.6875 9.914062-16.25 16.019531-27.679688 16h-88v-16zm0 0" fill="#ffdaaa"/><path d="m312 84.160156-34.078125 34.078125c-1.503906 1.507813-2.347656 3.554688-2.335937 5.683594-.011719-2.128906.832031-4.175781 2.335937-5.683594zm0 0" fill="#bddbff"/><path d="m325.015625 138.441406c-2.585937 1.886719-5.4375 3.378906-8.464844 4.421875 3.027344-1.042969 5.878907-2.535156 8.464844-4.421875zm0 0" fill="#bddbff"/><path d="m384 64v192c-.027344 8.824219-7.175781 15.972656-16 16h-336.640625c106.722656-42.566406 199.066406-114.730469 266.160156-208zm0 0" fill="#00b8a1"/><path d="m301.28125 0c-8.492188-.0078125-16.636719 3.359375-22.640625 9.359375l-54.640625 54.640625h88v20.160156l-34.078125 34.078125c-3.117187 3.148438-3.117187 8.214844 0 11.363281l5.597656 5.597657c3.746094 3.726562 8.347657 6.472656 13.402344 8 4.886719 1.46875 10.050781 1.769531 15.078125.878906 1.542969-.300781 3.0625-.707031 4.550781-1.214844 3.027344-1.042969 5.878907-2.535156 8.464844-4.421875 1.34375-.980468 2.609375-2.0625 3.785156-3.242187l39.199219-39.199219h16v72h32c17.671875 0 32-14.328125 32-32h16v-136zm0 0" fill="#ffdaaa"/><path d="m248 168c0 30.929688-25.070312 56-56 56s-56-25.070312-56-56 25.070312-56 56-56 56 25.070312 56 56zm0 0" fill="#ffd422"/><path d="m392 96h-24v-16h24c13.253906 0 24-10.746094 24-24h16c-.027344 22.082031-17.917969 39.972656-40 40zm0 0" fill="#ffc477"/><path d="m96 248h-32.800781c-3.796875-.003906-7.070313-2.675781-7.832031-6.398438-2.5625-12.574218-12.394532-22.402343-24.96875-24.960937-3.722657-.761719-6.398438-4.039063-6.398438-7.839844v-81.601562c0-3.800781 2.675781-7.078125 6.398438-7.839844 12.574218-2.558594 22.40625-12.386719 24.96875-24.960937.761718-3.722657 4.035156-6.394532 7.832031-6.398438h32.800781v16h-26.734375c-4.816406 13.683594-15.582031 24.449219-29.265625 29.265625v69.46875c13.683594 4.816406 24.449219 15.582031 29.265625 29.265625h26.734375zm0 0" fill="#00a691"/><path d="m320.800781 248h-32.800781v-16h26.734375c4.816406-13.683594 15.582031-24.449219 29.265625-29.265625v-42.734375h16v48.800781c0 3.800781-2.675781 7.078125-6.398438 7.839844-12.574218 2.558594-22.40625 12.386719-24.96875 24.960937-.761718 3.722657-4.035156 6.394532-7.832031 6.398438zm0 0" fill="#00a691"/><path d="m227.679688 368c-5.6875 9.914062-16.25 16.019531-27.679688 16h-88v-16zm0 0" fill="#ffc477"/></svg>