<?xml version="1.0" encoding="utf-8"?>
<!-- Generator: Adobe Illustrator 23.1.1, SVG Export Plug-In . SVG Version: 6.00 Build 0)  -->
<svg version="1.1" id="Layer_1" xmlns="http://www.w3.org/2000/svg" xmlns:xlink="http://www.w3.org/1999/xlink" x="0px" y="0px"
	 viewBox="0 0 511 511" style="enable-background:new 0 0 511 511;" xml:space="preserve">
<style type="text/css">
	.st0{fill:#FFFFFF;}
</style>
<path class="st0" d="M476.9,247.8c-2.7-4.5-7.6-7.2-12.8-7.2c-44.2,0-84.7,22.7-107.7,59.9H178.8c-20,0-38.8,7.8-52.9,21.9
	l-88.5,88.5c-5.8,5.8-5.8,15.3,0,21.2c36.4,36.4,74.5,74.2,74.9,74.6c5.8,5.8,15.3,5.8,21.1,0l56.8-56.5h125.4
	c39.1,0,74.7-21.5,92.8-56.2c0.5-0.9,45.8-87.4,69-131.5C479.8,257.8,479.6,252.2,476.9,247.8z M381.8,380.1
	c-13,24.7-38.4,40.1-66.3,40.1H183.9c-4,0-7.8,1.6-10.6,4.4l-50.6,50.4c-11.9-11.9-32.4-32.3-53.7-53.5l77.9-77.9
	c8.5-8.5,19.8-13.2,31.8-13.2h161.5l-11.5,21.9c-2.6,4.9-7.7,8-13.3,8H213.9c-8.3,0-15,6.7-15,15s6.7,15,15,15h101.7
	c16.8,0,32-9.2,39.8-24.1c0,0,23.1-44.1,23.1-44.1c12.5-23.7,33.9-40.7,58.9-47.9C413.4,319.7,382.2,379.4,381.8,380.1z"/>
<path class="st0" d="M169,270.5h179.6c8.3,0,15-6.7,15-15V74.9c0-8.3-6.7-15-15-15h-44.9v-15c0-24.8-20.1-44.9-44.9-44.9
	s-44.9,20.1-44.9,44.9v15H169c-8.3,0-15,6.7-15,15v180.6C154,263.8,160.7,270.5,169,270.5z M243.8,44.9c0-8.3,6.7-15,15-15
	c8.3,0,15,6.7,15,15v15h-29.9V44.9z M183.9,89.8h29.9v15c0,8.3,6.7,15,15,15c8.3,0,15-6.7,15-15v-15h29.9v15c0,8.3,6.7,15,15,15
	c8.3,0,15-6.7,15-15v-15h29.9v150.7H183.9V89.8z"/>
</svg>
