<svg id="Layer_1" data-name="Layer 1" xmlns="http://www.w3.org/2000/svg" xmlns:xlink="http://www.w3.org/1999/xlink" viewBox="0 0 388.68 237.1"><defs><style>.cls-1{opacity:0.46;}.cls-2{fill:#006838;}.cls-13,.cls-14,.cls-3{fill:none;stroke-linecap:round;}.cls-3{stroke:#fff;stroke-width:3px;}.cls-13,.cls-14,.cls-3,.cls-7{stroke-miterlimit:10;}.cls-4{opacity:0.56;}.cls-5{fill:#464f73;}.cls-6,.cls-7{fill:#333954;}.cls-13,.cls-14,.cls-7{stroke:#333954;}.cls-8{fill:#754937;}.cls-11,.cls-9{fill:#563327;}.cls-9{opacity:0.76;}.cls-10{fill:#232223;}.cls-12,.cls-132{fill:#fff;}.cls-13{stroke-width:0.75px;}.cls-15{fill:#27aae1;}.cls-16{opacity:0.7;}.cls-17{fill:url(#linear-gradient);}.cls-101,.cls-18,.cls-98{opacity:0.1;}.cls-19{fill:url(#linear-gradient-3);}.cls-20,.cls-99{opacity:0.17;}.cls-21{fill:url(#linear-gradient-5);}.cls-22{fill:url(#linear-gradient-6);}.cls-23{opacity:0.05;}.cls-24{opacity:0.5;}.cls-25{fill:url(#linear-gradient-8);}.cls-26{fill:url(#linear-gradient-9);}.cls-27{fill:url(#linear-gradient-10);}.cls-28{fill:url(#linear-gradient-11);}.cls-29{fill:url(#linear-gradient-12);}.cls-30{fill:url(#linear-gradient-13);}.cls-31{fill:url(#linear-gradient-14);}.cls-32{fill:url(#linear-gradient-15);}.cls-33{fill:url(#linear-gradient-16);}.cls-34{fill:url(#linear-gradient-17);}.cls-35{fill:url(#linear-gradient-18);}.cls-36{fill:url(#linear-gradient-19);}.cls-37{fill:url(#linear-gradient-20);}.cls-38{fill:url(#linear-gradient-21);}.cls-39{fill:url(#linear-gradient-22);}.cls-40{fill:url(#linear-gradient-23);}.cls-41{fill:url(#linear-gradient-24);}.cls-42{fill:url(#linear-gradient-25);}.cls-43{fill:url(#linear-gradient-26);}.cls-44{fill:url(#linear-gradient-27);}.cls-45{fill:url(#linear-gradient-28);}.cls-46{fill:url(#linear-gradient-29);}.cls-47{fill:url(#linear-gradient-30);}.cls-48{fill:url(#linear-gradient-31);}.cls-49{fill:url(#linear-gradient-32);}.cls-50{fill:url(#linear-gradient-33);}.cls-51{fill:url(#linear-gradient-34);}.cls-52{fill:url(#linear-gradient-35);}.cls-53{fill:url(#linear-gradient-36);}.cls-54{fill:url(#linear-gradient-37);}.cls-55{fill:url(#linear-gradient-38);}.cls-56{fill:url(#linear-gradient-39);}.cls-57{fill:url(#linear-gradient-40);}.cls-58{fill:url(#linear-gradient-41);}.cls-59{fill:url(#linear-gradient-42);}.cls-110,.cls-60{opacity:0.6;}.cls-61{fill:url(#linear-gradient-43);}.cls-62{fill:url(#linear-gradient-44);}.cls-63{fill:url(#linear-gradient-45);}.cls-64{fill:url(#linear-gradient-46);}.cls-113,.cls-114,.cls-65{opacity:0.07;}.cls-66{fill:url(#linear-gradient-48);}.cls-67{fill:url(#linear-gradient-49);}.cls-68{fill:url(#linear-gradient-50);}.cls-69{fill:url(#linear-gradient-51);}.cls-70{fill:url(#linear-gradient-52);}.cls-71{fill:url(#linear-gradient-53);}.cls-72{fill:url(#linear-gradient-54);}.cls-73{fill:url(#linear-gradient-55);}.cls-74{fill:url(#linear-gradient-56);}.cls-75{fill:url(#linear-gradient-57);}.cls-76{fill:url(#linear-gradient-58);}.cls-77{fill:url(#linear-gradient-60);}.cls-78{fill:url(#linear-gradient-61);}.cls-79{fill:url(#linear-gradient-62);}.cls-80{fill:url(#linear-gradient-63);}.cls-81{fill:url(#linear-gradient-64);}.cls-82{fill:url(#linear-gradient-65);}.cls-83{fill:url(#linear-gradient-66);}.cls-84{fill:url(#linear-gradient-67);}.cls-85{fill:url(#linear-gradient-68);}.cls-86{fill:url(#linear-gradient-69);}.cls-87{fill:url(#linear-gradient-70);}.cls-88{fill:url(#linear-gradient-71);}.cls-89{fill:url(#linear-gradient-72);}.cls-90{fill:url(#linear-gradient-73);}.cls-91{fill:url(#linear-gradient-74);}.cls-92{fill:url(#linear-gradient-75);}.cls-93{fill:url(#linear-gradient-76);}.cls-94{fill:url(#linear-gradient-77);}.cls-95{fill:url(#linear-gradient-78);}.cls-96{fill:url(#linear-gradient-79);}.cls-97{fill:#545562;}.cls-98,.cls-99{fill:#78787a;}.cls-101,.cls-110,.cls-113,.cls-114,.cls-123,.cls-131,.cls-133,.cls-98,.cls-99{isolation:isolate;}.cls-100{fill:#bebdc1;}.cls-101,.cls-114{fill:#010101;}.cls-102{fill:url(#linear-gradient-81);}.cls-103{fill:#f5f6f6;}.cls-104{fill:#2b9a47;}.cls-105{fill:#e0e1e0;}.cls-106{fill:url(#linear-gradient-82);}.cls-107{fill:url(#linear-gradient-83);}.cls-108{fill:url(#linear-gradient-84);}.cls-109{fill:#49ad48;}.cls-110{fill:#57bf99;}.cls-111{fill:#6466af;}.cls-112{fill:#d3d3d3;}.cls-113,.cls-123{fill:#d5d4d6;}.cls-115{fill:url(#linear-gradient-85);}.cls-116{fill:url(#linear-gradient-86);}.cls-117{fill:url(#linear-gradient-87);}.cls-118{fill:url(#linear-gradient-88);}.cls-119{fill:url(#linear-gradient-89);}.cls-120{fill:#f3f3f3;}.cls-121{fill:url(#linear-gradient-90);}.cls-122{fill:#4ab749;}.cls-124{fill:url(#linear-gradient-91);}.cls-125{fill:url(#linear-gradient-92);}.cls-126{fill:url(#linear-gradient-93);}.cls-127{fill:url(#linear-gradient-94);}.cls-128{fill:url(#linear-gradient-95);}.cls-129{fill:url(#linear-gradient-96);}.cls-130{fill:url(#linear-gradient-97);}.cls-131,.cls-133{fill:#39b54a;}.cls-132,.cls-133{font-size:20.61px;font-family:Montserrat-SemiBold, Montserrat SemiBold;}.cls-132{letter-spacing:0em;}.cls-133{letter-spacing:0em;}</style><linearGradient id="linear-gradient" x1="132.81" y1="105.34" x2="170.78" y2="105.34" gradientTransform="matrix(1, 0, 0, -1, -5.67, 301.57)" gradientUnits="userSpaceOnUse"><stop offset="0" stop-color="#818181" stop-opacity="0.25"/><stop offset="0.54" stop-color="#818181" stop-opacity="0.12"/><stop offset="1" stop-color="#818181" stop-opacity="0.1"/></linearGradient><linearGradient id="linear-gradient-3" x1="94.83" y1="105.34" x2="132.81" y2="105.34" xlink:href="#linear-gradient"/><linearGradient id="linear-gradient-5" x1="132.81" y1="144.71" x2="190.47" y2="144.71" xlink:href="#linear-gradient"/><linearGradient id="linear-gradient-6" x1="75.34" y1="144.71" x2="132.81" y2="144.71" xlink:href="#linear-gradient"/><linearGradient id="linear-gradient-8" x1="118.73" y1="123.39" x2="118.73" y2="149.4" xlink:href="#linear-gradient"/><linearGradient id="linear-gradient-9" x1="104.98" y1="136.51" x2="132.52" y2="136.51" xlink:href="#linear-gradient"/><linearGradient id="linear-gradient-10" x1="107.1" y1="142.93" x2="111.75" y2="142.93" xlink:href="#linear-gradient"/><linearGradient id="linear-gradient-11" x1="113.14" y1="144.79" x2="131.6" y2="144.79" xlink:href="#linear-gradient"/><linearGradient id="linear-gradient-12" x1="113.14" y1="143.4" x2="131.6" y2="143.4" xlink:href="#linear-gradient"/><linearGradient id="linear-gradient-13" x1="106.64" y1="138.34" x2="131.6" y2="138.34" xlink:href="#linear-gradient"/><linearGradient id="linear-gradient-14" x1="106.64" y1="136.95" x2="131.6" y2="136.95" xlink:href="#linear-gradient"/><linearGradient id="linear-gradient-15" x1="106.64" y1="135.09" x2="131.6" y2="135.09" xlink:href="#linear-gradient"/><linearGradient id="linear-gradient-16" x1="106.64" y1="133.69" x2="121.04" y2="133.69" xlink:href="#linear-gradient"/><linearGradient id="linear-gradient-17" x1="106.64" y1="131.84" x2="131.6" y2="131.84" xlink:href="#linear-gradient"/><linearGradient id="linear-gradient-18" x1="106.64" y1="130.45" x2="131.6" y2="130.45" xlink:href="#linear-gradient"/><linearGradient id="linear-gradient-19" x1="106.64" y1="128.59" x2="131.6" y2="128.59" xlink:href="#linear-gradient"/><linearGradient id="linear-gradient-20" x1="106.64" y1="127.2" x2="121.04" y2="127.2" xlink:href="#linear-gradient"/><linearGradient id="linear-gradient-21" x1="122.99" y1="117.39" x2="122.99" y2="143.39" xlink:href="#linear-gradient"/><linearGradient id="linear-gradient-22" x1="109.23" y1="130.5" x2="136.77" y2="130.5" xlink:href="#linear-gradient"/><linearGradient id="linear-gradient-23" x1="111.36" y1="136.92" x2="116" y2="136.92" xlink:href="#linear-gradient"/><linearGradient id="linear-gradient-24" x1="117.4" y1="138.78" x2="135.86" y2="138.78" xlink:href="#linear-gradient"/><linearGradient id="linear-gradient-25" x1="117.4" y1="137.39" x2="135.86" y2="137.39" xlink:href="#linear-gradient"/><linearGradient id="linear-gradient-26" x1="110.89" y1="132.33" x2="135.86" y2="132.33" xlink:href="#linear-gradient"/><linearGradient id="linear-gradient-27" x1="110.89" y1="130.94" x2="135.86" y2="130.94" xlink:href="#linear-gradient"/><linearGradient id="linear-gradient-28" x1="110.89" y1="129.08" x2="135.86" y2="129.08" xlink:href="#linear-gradient"/><linearGradient id="linear-gradient-29" x1="110.89" y1="127.69" x2="125.29" y2="127.69" xlink:href="#linear-gradient"/><linearGradient id="linear-gradient-30" x1="110.89" y1="125.83" x2="135.86" y2="125.83" xlink:href="#linear-gradient"/><linearGradient id="linear-gradient-31" x1="110.89" y1="124.44" x2="135.86" y2="124.44" xlink:href="#linear-gradient"/><linearGradient id="linear-gradient-32" x1="110.89" y1="122.58" x2="135.86" y2="122.58" xlink:href="#linear-gradient"/><linearGradient id="linear-gradient-33" x1="110.89" y1="121.19" x2="125.29" y2="121.19" xlink:href="#linear-gradient"/><linearGradient id="linear-gradient-34" x1="137.5" y1="111.33" x2="137.5" y2="140.03" xlink:href="#linear-gradient"/><linearGradient id="linear-gradient-35" x1="126.04" y1="125.77" x2="149.19" y2="125.77" xlink:href="#linear-gradient"/><linearGradient id="linear-gradient-36" x1="370.61" y1="64.02" x2="370.61" y2="68.12" gradientTransform="matrix(1, 0, 0, -1, -233, 334.25)" xlink:href="#linear-gradient"/><linearGradient id="linear-gradient-37" x1="134.84" y1="133.5" x2="140.38" y2="133.5" xlink:href="#linear-gradient"/><linearGradient id="linear-gradient-38" x1="136.46" y1="135.29" x2="138.77" y2="135.29" xlink:href="#linear-gradient"/><linearGradient id="linear-gradient-39" x1="129.5" y1="127.11" x2="145.78" y2="127.11" xlink:href="#linear-gradient"/><linearGradient id="linear-gradient-40" x1="129.5" y1="122.55" x2="145.78" y2="122.55" xlink:href="#linear-gradient"/><linearGradient id="linear-gradient-41" x1="129.5" y1="121.34" x2="145.78" y2="121.34" xlink:href="#linear-gradient"/><linearGradient id="linear-gradient-42" x1="129.5" y1="123.76" x2="136.37" y2="123.76" xlink:href="#linear-gradient"/><linearGradient id="linear-gradient-43" x1="140.64" y1="123.76" x2="145.78" y2="123.76" xlink:href="#linear-gradient"/><linearGradient id="linear-gradient-44" x1="135.22" y1="118.51" x2="140.35" y2="118.51" xlink:href="#linear-gradient"/><linearGradient id="linear-gradient-45" x1="94.83" y1="100.77" x2="132.81" y2="100.77" xlink:href="#linear-gradient"/><linearGradient id="linear-gradient-46" x1="132.81" y1="100.77" x2="170.78" y2="100.77" xlink:href="#linear-gradient"/><linearGradient id="linear-gradient-48" x1="155.67" y1="90.43" x2="170.78" y2="90.43" xlink:href="#linear-gradient"/><linearGradient id="linear-gradient-49" x1="156.51" y1="125.62" x2="156.51" y2="136.38" xlink:href="#linear-gradient"/><linearGradient id="linear-gradient-50" x1="151.08" y1="130.98" x2="161.93" y2="130.98" xlink:href="#linear-gradient"/><linearGradient id="linear-gradient-51" x1="389.51" y1="63.97" x2="389.51" y2="67.09" gradientTransform="matrix(1, 0, 0, -1, -233, 334.25)" xlink:href="#linear-gradient"/><linearGradient id="linear-gradient-52" x1="154.4" y1="133.04" x2="158.62" y2="133.04" xlink:href="#linear-gradient"/><linearGradient id="linear-gradient-53" x1="155.63" y1="134.4" x2="157.39" y2="134.4" xlink:href="#linear-gradient"/><linearGradient id="linear-gradient-54" x1="154.64" y1="129.75" x2="158.55" y2="129.75" xlink:href="#linear-gradient"/><linearGradient id="linear-gradient-55" x1="153.17" y1="128.78" x2="159.85" y2="128.78" xlink:href="#linear-gradient"/><linearGradient id="linear-gradient-56" x1="131.61" y1="157.35" x2="131.61" y2="169.27" xlink:href="#linear-gradient"/><linearGradient id="linear-gradient-57" x1="124.52" y1="163.3" x2="138.67" y2="163.3" xlink:href="#linear-gradient"/><linearGradient id="linear-gradient-58" x1="124.52" y1="167.77" x2="138.67" y2="167.77" xlink:href="#linear-gradient"/><linearGradient id="linear-gradient-60" x1="125.65" y1="164.81" x2="137.54" y2="164.81" xlink:href="#linear-gradient"/><linearGradient id="linear-gradient-61" x1="125.65" y1="162.68" x2="134.33" y2="162.68" xlink:href="#linear-gradient"/><linearGradient id="linear-gradient-62" x1="125.65" y1="161.81" x2="131.29" y2="161.81" xlink:href="#linear-gradient"/><linearGradient id="linear-gradient-63" x1="125.65" y1="160.93" x2="133.09" y2="160.93" xlink:href="#linear-gradient"/><linearGradient id="linear-gradient-64" x1="125.65" y1="160.06" x2="134.33" y2="160.06" xlink:href="#linear-gradient"/><linearGradient id="linear-gradient-65" x1="125.65" y1="159.19" x2="128.55" y2="159.19" xlink:href="#linear-gradient"/><linearGradient id="linear-gradient-66" x1="154.69" y1="145.55" x2="154.69" y2="160.32" xlink:href="#linear-gradient"/><linearGradient id="linear-gradient-67" x1="145.9" y1="152.92" x2="163.44" y2="152.92" xlink:href="#linear-gradient"/><linearGradient id="linear-gradient-68" x1="145.9" y1="158.46" x2="163.44" y2="158.46" xlink:href="#linear-gradient"/><linearGradient id="linear-gradient-69" x1="147.3" y1="154.79" x2="162.04" y2="154.79" xlink:href="#linear-gradient"/><linearGradient id="linear-gradient-70" x1="147.3" y1="152.15" x2="158.06" y2="152.15" xlink:href="#linear-gradient"/><linearGradient id="linear-gradient-71" x1="147.3" y1="151.07" x2="154.28" y2="151.07" xlink:href="#linear-gradient"/><linearGradient id="linear-gradient-72" x1="147.3" y1="149.98" x2="156.52" y2="149.98" xlink:href="#linear-gradient"/><linearGradient id="linear-gradient-73" x1="147.3" y1="148.9" x2="158.06" y2="148.9" xlink:href="#linear-gradient"/><linearGradient id="linear-gradient-74" x1="147.3" y1="147.82" x2="150.9" y2="147.82" xlink:href="#linear-gradient"/><linearGradient id="linear-gradient-75" x1="148.07" y1="154.81" x2="152.26" y2="154.81" xlink:href="#linear-gradient"/><linearGradient id="linear-gradient-76" x1="94.33" y1="115.28" x2="132.71" y2="115.28" xlink:href="#linear-gradient"/><linearGradient id="linear-gradient-77" x1="132.71" y1="115.28" x2="171.08" y2="115.28" xlink:href="#linear-gradient"/><linearGradient id="linear-gradient-78" x1="75.34" y1="119.16" x2="132.81" y2="119.16" xlink:href="#linear-gradient"/><linearGradient id="linear-gradient-79" x1="132.81" y1="119.16" x2="190.47" y2="119.16" xlink:href="#linear-gradient"/><linearGradient id="linear-gradient-81" x1="119.25" y1="123.95" x2="119.25" y2="149.74" xlink:href="#linear-gradient"/><linearGradient id="linear-gradient-82" x1="123.46" y1="117.99" x2="123.46" y2="143.78" xlink:href="#linear-gradient"/><linearGradient id="linear-gradient-83" x1="137.85" y1="111.99" x2="137.85" y2="140.44" xlink:href="#linear-gradient"/><linearGradient id="linear-gradient-84" x1="370.97" y1="64.51" x2="370.97" y2="68.57" gradientTransform="matrix(1, 0, 0, -1, -233, 334.25)" xlink:href="#linear-gradient"/><linearGradient id="linear-gradient-85" x1="156.7" y1="126.16" x2="156.7" y2="136.82" xlink:href="#linear-gradient"/><linearGradient id="linear-gradient-86" x1="389.7" y1="64.46" x2="389.7" y2="67.55" gradientTransform="matrix(1, 0, 0, -1, -233, 334.25)" xlink:href="#linear-gradient"/><linearGradient id="linear-gradient-87" x1="149.96" y1="167.6" x2="149.96" y2="178.27" xlink:href="#linear-gradient"/><linearGradient id="linear-gradient-88" x1="382.96" y1="105.9" x2="382.96" y2="108.99" gradientTransform="matrix(1, 0, 0, -1, -233, 334.25)" xlink:href="#linear-gradient"/><linearGradient id="linear-gradient-89" x1="132.02" y1="157.62" x2="132.02" y2="169.44" xlink:href="#linear-gradient"/><linearGradient id="linear-gradient-90" x1="154.89" y1="145.92" x2="154.89" y2="160.56" xlink:href="#linear-gradient"/><linearGradient id="linear-gradient-91" x1="266.08" y1="122.87" x2="266.08" y2="148.66" xlink:href="#linear-gradient"/><linearGradient id="linear-gradient-92" x1="270.3" y1="116.92" x2="270.3" y2="142.7" xlink:href="#linear-gradient"/><linearGradient id="linear-gradient-93" x1="284.68" y1="110.91" x2="284.68" y2="139.36" xlink:href="#linear-gradient"/><linearGradient id="linear-gradient-94" x1="517.8" y1="63.43" x2="517.8" y2="67.49" gradientTransform="matrix(1, 0, 0, -1, -233, 334.25)" xlink:href="#linear-gradient"/><linearGradient id="linear-gradient-95" x1="303.53" y1="125.08" x2="303.53" y2="135.75" xlink:href="#linear-gradient"/><linearGradient id="linear-gradient-96" x1="536.53" y1="63.38" x2="536.53" y2="66.47" gradientTransform="matrix(1, 0, 0, -1, -233, 334.25)" xlink:href="#linear-gradient"/><linearGradient id="linear-gradient-97" x1="301.72" y1="144.84" x2="301.72" y2="159.49" xlink:href="#linear-gradient"/></defs><title>product grouping</title><g class="cls-1"><path class="cls-2" d="M347.06,290.53c-1.56.87-3.24,1.7-5,2.51-8.32,3.85-18.72,7.2-30.62,10.08l-2.24.53-.19,0c-1.41.33-2.85.66-4.3,1-13.1,2.86-27.76,5.2-43.29,7.07l-.88.1-.21,0c-20.74,2.46-43,4.08-65.19,4.92q-5.24.2-10.45.34l-1.76,0-1.54,0q-3.35.08-6.68.14l-2.51,0-1.9,0c-5.47.07-10.9.1-16.26.08-45.86-.14-86.85-3.52-107.47-9.33C-13,291.41.1,250.1,37.8,241.71s-14.44-57.19,45.67-89.37c36.51-19.55,74.76,23,106.4-11,47.2-50.73,88.95-42.44,115.25-16.25,29.65,29.52,5.86,65.51,37.61,63.68C390.3,186,418.71,250.64,347.06,290.53Z" transform="translate(-5.67 -100.43)"/></g><circle class="cls-3" cx="50.08" cy="160.3" r="4.78"/><line class="cls-3" x1="32.02" y1="144.83" x2="32.02" y2="151.77"/><line class="cls-3" x1="35.49" y1="148.3" x2="28.55" y2="148.3"/><circle class="cls-3" cx="328.7" cy="221.06" r="4.78" transform="translate(-65.71 196.74) rotate(-45)"/><line class="cls-3" x1="324.86" y1="144.34" x2="329.77" y2="139.43"/><line class="cls-3" x1="324.86" y1="139.43" x2="329.77" y2="144.34"/><g class="cls-4"><ellipse class="cls-2" cx="198.6" cy="224.12" rx="190.08" ry="12.98"/></g><path class="cls-5" d="M203.08,216.79l6.06,97.48s13.48,12.34,37.59,4.09L222,215.91Z" transform="translate(-5.67 -100.43)"/><path class="cls-5" d="M202.7,216.36l2,98.07s-20.56,12.18-44.67,3.92l24.72-102.45Z" transform="translate(-5.67 -100.43)"/><path class="cls-6" d="M206.19,321.35H155.61c.32-2.09,1-6.32,2.39-8.11,4.4-5.61,8.72-4.15,8.72-4.15l38,5.34S206.29,321.24,206.19,321.35Z" transform="translate(-5.67 -100.43)"/><path class="cls-6" d="M208.36,321.17h49.13a.61.61,0,0,0,.6-.74,20.59,20.59,0,0,0-3.1-7,14.06,14.06,0,0,0-3.6-3.12,11.38,11.38,0,0,0-7.67-1.46l-34.15,5.35a.61.61,0,0,0-.5.46c-.26,1.13-1,4.34-1.31,5.8A.61.61,0,0,0,208.36,321.17Z" transform="translate(-5.67 -100.43)"/><path class="cls-7" d="M203.08,216.79c-.75,1.23,2.24,100.65,2.24,100.65" transform="translate(-5.67 -100.43)"/><rect class="cls-8" x="192.27" y="126.5" width="12.08" height="24.01" transform="translate(-9.56 -94.69) rotate(-1.64)"/><path class="cls-9" d="M204,126.33l.25,12.17c-3.18,3.38-8.36,3.41-11.87,1.38L192,127.71c.28-.36.56-.72.86-1.06Z" transform="translate(-5.67 -100.43)"/><path class="cls-8" d="M187.22,104.9s-5.63,9.79,0,25.35c.38,1.06,1.89,6.74,7.74,6.69,4.07,0,10.8.91,13.68-3.87,3.64-6,6.23-22.5.77-27S187.22,104.9,187.22,104.9Z" transform="translate(-5.67 -100.43)"/><path class="cls-8" d="M206.88,121.57s8.15-3.83,11.25,1.32-9,10.31-10.63,5.33S206.88,121.57,206.88,121.57Z" transform="translate(-5.67 -100.43)"/><path class="cls-10" d="M188.07,112.29s1.48-4.84,3.8-2.72,3.73,2.62,12.1,1.07c9.62-1.79,5.29,12.35,5.29,12.35s3.1-3.49,5.77-2.46c0,0,2.14-15.42-3.61-17.53s-19.31-4-21-1S188.07,112.29,188.07,112.29Z" transform="translate(-5.67 -100.43)"/><path class="cls-8" d="M189.73,120.38s-8.12-3.83-11.21,1.32,9,10.31,10.59,5.33S189.73,120.38,189.73,120.38Z" transform="translate(-5.67 -100.43)"/><path class="cls-11" d="M187.22,126.05s-2.61.57-2.91-1.2a1.28,1.28,0,0,1,1.13-1.69s-4.4-2.63-4.88,0S185.15,128,187.22,126.05Z" transform="translate(-5.67 -100.43)"/><path class="cls-10" d="M209.56,111.8s-1.48-4.84-3.8-2.72-3.73,2.62-12.1,1.07c-9.62-1.79-5.29,12.35-5.29,12.35s-3.1-3.49-5.77-2.46c0,0-2.14-15.42,3.61-17.53s18.63-2.5,20.35.46S209.56,111.8,209.56,111.8Z" transform="translate(-5.67 -100.43)"/><ellipse class="cls-6" cx="199.25" cy="18.83" rx="0.78" ry="1.66"/><ellipse class="cls-6" cx="186.71" cy="18.58" rx="0.78" ry="1.66"/><path class="cls-12" d="M193.73,127.28l8.39-.86s-3.35,11-8.14.83" transform="translate(-5.67 -100.43)"/><path class="cls-11" d="M209.41,127.24s2.61.57,2.92-1.2a1.28,1.28,0,0,0-1.14-1.69s4.41-2.63,4.9,0S211.48,129.22,209.41,127.24Z" transform="translate(-5.67 -100.43)"/><circle class="cls-13" cx="191.46" cy="119.26" r="5.2" transform="translate(-23.99 -64.07) rotate(-10.36)"/><circle class="cls-13" cx="204.92" cy="118.9" r="5.31" transform="translate(-23.71 -61.66) rotate(-10.36)"/><line class="cls-14" x1="190.9" y1="17.89" x2="193.96" y2="18"/><path class="cls-15" d="M192.38,146.93s7.23,7.95,12.17-1.32l8.45.89a8.81,8.81,0,0,1,5.13,3.35c7.71,10.41,13.17,55.72,4.59,65.22-1.68,1.86-17.57,1.24-20,1.29-25.52.54-31,1.08-22.11-55.62l.29-9.3c3.84-3.87,6.43-2.26,8.41-4Z" transform="translate(-5.67 -100.43)"/><path class="cls-8" d="M139.66,148.33s-12.89-14-16.16-13.37.32,6.72.32,6.72,6.85,3-.4-3.71c-4.48-4.13-22,2.6-13.8,13.5,7.48,9.9,13.13,10.48,13.13,10.48Z" transform="translate(-5.67 -100.43)"/><path class="cls-15" d="M185.28,149.05s-20.75,11.72-46.69-6.64c-1.81-1.28-3.77-2.28-5.92-1.73,0,0-8.71,10.39-17.28,15.82-2.53,1.6-1.62,4.11.87,5.27,13,6,50.33,16.08,73.77.69Z" transform="translate(-5.67 -100.43)"/><path class="cls-8" d="M260.56,153.21s14.8-12,17.94-10.86-1.29,6.6-1.29,6.6-7.21,1.95.94-3.61c5-3.43,21.42,5.79,11.68,15.37-8.84,8.7-14.52,8.45-14.52,8.45Z" transform="translate(-5.67 -100.43)"/><path class="cls-15" d="M215.33,147.27s18.81,14.63,47.16.25c2-1,4.07-1.71,6.11-.85,0,0,7.1,11.55,14.78,18.18,2.27,2,1,4.3-1.63,5.08-13.72,4-52.14,8.56-73.08-10.09Z" transform="translate(-5.67 -100.43)"/><path class="cls-7" d="M203.08,216.79c1.38,0,13.51,105.35,2.24,100.65" transform="translate(-5.67 -100.43)"/><g class="cls-16"><polygon class="cls-17" points="165.11 169.58 127.14 160.44 127.14 232.02 165.11 222.08 165.11 169.58"/><g class="cls-18"><polygon class="cls-17" points="165.11 169.58 127.14 160.44 127.14 232.02 165.11 222.08 165.11 169.58"/></g><polygon class="cls-19" points="89.16 169.58 127.14 160.44 127.14 232.02 89.16 222.28 89.16 169.58"/><g class="cls-20"><polygon class="cls-19" points="89.16 169.58 127.14 160.44 127.14 232.02 89.16 222.28 89.16 169.58"/></g><polygon class="cls-21" points="127.14 160.44 146.82 144.13 184.8 153.88 165.11 169.58 127.14 160.44"/><polygon class="cls-22" points="69.67 154.07 89.16 169.58 127.14 160.44 107.85 144.13 69.67 154.07"/><g class="cls-23"><polygon class="cls-22" points="69.67 154.07 89.16 169.58 127.14 160.44 107.85 144.13 69.67 154.07"/></g><g class="cls-24"><rect class="cls-25" x="98.97" y="152.16" width="28.19" height="26.01" rx="0.71" ry="0.71"/></g><rect class="cls-26" x="99.31" y="152.36" width="27.54" height="25.38" rx="0.71" ry="0.71"/><rect class="cls-27" x="101.43" y="156.54" width="4.64" height="4.18" rx="0.71" ry="0.71"/><rect class="cls-28" x="107.47" y="156.54" width="18.46" height="0.46" rx="0.13" ry="0.13"/><rect class="cls-29" x="107.47" y="157.94" width="18.46" height="0.46" rx="0.13" ry="0.13"/><rect class="cls-30" x="100.97" y="163" width="24.96" height="0.46" rx="0.13" ry="0.13"/><rect class="cls-31" x="100.97" y="164.39" width="24.96" height="0.46" rx="0.13" ry="0.13"/><rect class="cls-32" x="100.97" y="166.25" width="24.96" height="0.46" rx="0.13" ry="0.13"/><rect class="cls-33" x="100.97" y="167.64" width="14.4" height="0.46" rx="0.13" ry="0.13"/><rect class="cls-34" x="100.97" y="169.49" width="24.96" height="0.46" rx="0.13" ry="0.13"/><rect class="cls-35" x="100.97" y="170.88" width="24.96" height="0.46" rx="0.13" ry="0.13"/><rect class="cls-36" x="100.97" y="172.74" width="24.96" height="0.46" rx="0.13" ry="0.13"/><rect class="cls-37" x="100.97" y="174.14" width="14.4" height="0.46" rx="0.13" ry="0.13"/><g class="cls-24"><rect class="cls-38" x="103.22" y="158.17" width="28.19" height="26.01" rx="0.71" ry="0.71"/></g><rect class="cls-39" x="103.56" y="158.37" width="27.54" height="25.38" rx="0.71" ry="0.71"/><rect class="cls-40" x="105.69" y="162.55" width="4.64" height="4.18" rx="0.71" ry="0.71"/><rect class="cls-41" x="111.72" y="162.55" width="18.46" height="0.46" rx="0.13" ry="0.13"/><rect class="cls-42" x="111.72" y="163.95" width="18.46" height="0.46" rx="0.13" ry="0.13"/><rect class="cls-43" x="105.22" y="169" width="24.96" height="0.46" rx="0.13" ry="0.13"/><rect class="cls-44" x="105.22" y="170.4" width="24.96" height="0.46" rx="0.13" ry="0.13"/><rect class="cls-45" x="105.22" y="172.26" width="24.96" height="0.46" rx="0.13" ry="0.13"/><rect class="cls-46" x="105.22" y="173.65" width="14.4" height="0.46" rx="0.13" ry="0.13"/><rect class="cls-47" x="105.22" y="175.5" width="24.96" height="0.46" rx="0.13" ry="0.13"/><rect class="cls-48" x="105.22" y="176.9" width="24.96" height="0.46" rx="0.13" ry="0.13"/><rect class="cls-49" x="105.22" y="178.75" width="24.96" height="0.46" rx="0.13" ry="0.13"/><rect class="cls-50" x="105.22" y="180.15" width="14.4" height="0.46" rx="0.13" ry="0.13"/><g class="cls-24"><rect class="cls-51" x="119.61" y="161.54" width="24.42" height="28.7"/></g><rect class="cls-52" x="120.36" y="162" width="23.15" height="27.6"/><g class="cls-24"><path class="cls-53" d="M138.87,266.82v-.69h-2.52v.69h-1.77v3.41h6.05v-3.41Zm-2.2-.44h1.88v.44h-1.88Z" transform="translate(-5.67 -100.43)"/></g><rect class="cls-54" x="129.17" y="166.5" width="5.54" height="3.12"/><polygon class="cls-55" points="130.79 165.87 130.79 166.68 131.07 166.68 131.07 166.1 132.81 166.1 132.81 166.68 133.09 166.68 133.09 165.87 130.79 165.87"/><rect class="cls-56" x="123.83" y="174.11" width="16.28" height="0.69"/><rect class="cls-57" x="123.83" y="178.67" width="16.28" height="0.69"/><rect class="cls-58" x="123.83" y="179.88" width="16.28" height="0.69"/><rect class="cls-59" x="123.83" y="177.46" width="6.87" height="0.69"/><g class="cls-60"><rect class="cls-61" x="134.97" y="177.46" width="5.14" height="0.69"/></g><rect class="cls-62" x="129.54" y="182.71" width="5.14" height="0.69"/><polygon class="cls-63" points="89.16 169.58 89.16 222.28 127.14 232.02 127.14 179.72 89.16 169.58"/><polygon class="cls-64" points="165.11 222.08 127.14 232.02 127.14 179.72 165.11 169.58 165.11 222.08"/><g class="cls-65"><polygon class="cls-64" points="165.11 222.08 127.14 232.02 127.14 179.72 165.11 169.58 165.11 222.08"/></g><g class="cls-65"><polygon class="cls-66" points="150 204.58 150 221.88 165.11 217.7 165.11 200.4 150 204.58"/></g><rect class="cls-67" x="145.24" y="165.19" width="11.2" height="10.76"/><rect class="cls-68" x="145.41" y="165.45" width="10.85" height="10.28"/><g class="cls-24"><path class="cls-69" d="M157.47,267.69v-.52h-1.92v.53h-1.34v2.59h4.61v-2.59Zm-1.68-.34h1.44v.34h-1.44Z" transform="translate(-5.67 -100.43)"/></g><g class="cls-60"><rect class="cls-70" x="148.73" y="167.34" width="4.22" height="2.37"/></g><g class="cls-60"><polygon class="cls-71" points="149.96 166.86 149.96 167.47 150.18 167.47 150.18 167.03 151.5 167.03 151.5 167.47 151.72 167.47 151.72 166.86 149.96 166.86"/></g><g class="cls-60"><rect class="cls-72" x="148.97" y="171.56" width="3.91" height="0.53"/></g><rect class="cls-73" x="147.5" y="172.52" width="6.68" height="0.53"/><g class="cls-24"><rect class="cls-74" x="118.68" y="132.29" width="14.51" height="11.92"/></g><rect class="cls-75" x="118.85" y="132.52" width="14.15" height="11.5"/><rect class="cls-76" x="118.85" y="132.52" width="14.15" height="2.56"/><g class="cls-18"><rect class="cls-76" x="118.85" y="132.52" width="14.15" height="2.56"/></g><rect class="cls-77" x="119.98" y="136.01" width="11.89" height="1.49"/><rect class="cls-78" x="119.98" y="138.63" width="8.68" height="0.51"/><rect class="cls-79" x="119.98" y="139.51" width="5.64" height="0.51"/><rect class="cls-80" x="119.98" y="140.38" width="7.44" height="0.51"/><rect class="cls-81" x="119.98" y="141.25" width="8.68" height="0.51"/><rect class="cls-82" x="119.98" y="142.13" width="2.9" height="0.51"/><g class="cls-24"><rect class="cls-83" x="140.02" y="141.24" width="17.99" height="14.77"/></g><rect class="cls-84" x="140.23" y="141.52" width="17.53" height="14.25"/><rect class="cls-85" x="140.23" y="141.52" width="17.53" height="3.18"/><rect class="cls-86" x="141.63" y="145.85" width="14.74" height="1.85"/><rect class="cls-87" x="141.63" y="149.1" width="10.76" height="0.63"/><rect class="cls-88" x="141.63" y="150.18" width="6.99" height="0.63"/><rect class="cls-89" x="141.63" y="151.27" width="9.22" height="0.63"/><rect class="cls-90" x="141.63" y="152.35" width="10.76" height="0.63"/><rect class="cls-91" x="141.63" y="153.43" width="3.6" height="0.63"/><rect class="cls-92" x="142.39" y="146.48" width="4.19" height="0.56"/><g class="cls-18"><polygon class="cls-93" points="88.66 196.92 109.94 202.29 127.03 188.37 127.03 179.82 89.06 170.28 88.66 196.92"/></g><g class="cls-18"><polygon class="cls-94" points="165.41 196.92 144.13 202.29 127.03 188.37 127.03 179.82 165.01 170.28 165.41 196.92"/></g><polygon class="cls-95" points="89.16 169.58 69.67 185.69 107.65 195.23 127.14 179.72 89.16 169.58"/><polygon class="cls-96" points="165.11 169.58 184.8 185.69 147.02 195.23 127.14 179.72 165.11 169.58"/><g class="cls-65"><polygon class="cls-96" points="165.11 169.58 184.8 185.69 147.02 195.23 127.14 179.72 165.11 169.58"/></g></g><polygon class="cls-97" points="165.18 169.1 127.53 160.03 127.53 231 165.18 221.14 165.18 169.1"/><polygon class="cls-98" points="165.18 169.1 127.53 160.03 127.53 231 165.18 221.14 165.18 169.1"/><polygon class="cls-97" points="89.88 169.1 127.53 160.03 127.53 231 89.88 221.34 89.88 169.1"/><polygon class="cls-99" points="89.88 168.79 127.53 159.72 127.53 231 89.88 221.34 89.88 168.79"/><polygon class="cls-100" points="127.22 160.34 147.04 143.87 184.7 153.53 164.87 169.41 127.22 160.34"/><polygon class="cls-101" points="70.87 154.04 90.19 169.41 127.84 160.34 108.72 144.18 70.87 154.04"/><polygon class="cls-100" points="70.56 153.72 90.35 169.41 128 160.34 108.41 143.87 70.56 153.72"/><g class="cls-24"><rect class="cls-102" x="99.6" y="151.83" width="27.95" height="25.79" rx="0.71" ry="0.71"/></g><rect class="cls-103" x="99.94" y="152.03" width="27.3" height="25.16" rx="0.71" ry="0.71"/><rect class="cls-104" x="102.05" y="156.17" width="13.26" height="11.93" rx="2.03" ry="2.03"/><rect class="cls-105" x="108.03" y="157.55" width="18.3" height="0.46" rx="0.13" ry="0.13"/><rect class="cls-105" x="101.59" y="172.23" width="24.75" height="0.46" rx="0.13" ry="0.13"/><rect class="cls-105" x="101.59" y="173.61" width="14.27" height="0.46" rx="0.13" ry="0.13"/><g class="cls-24"><rect class="cls-106" x="103.82" y="157.79" width="27.95" height="25.79" rx="0.71" ry="0.71"/></g><rect class="cls-12" x="104.16" y="157.99" width="27.3" height="25.16" rx="0.71" ry="0.71"/><rect class="cls-104" x="109.38" y="161.5" width="15.61" height="14.05" rx="2.39" ry="2.39"/><rect class="cls-105" x="105.8" y="176.35" width="24.75" height="0.46" rx="0.13" ry="0.13"/><rect class="cls-105" x="105.8" y="178.19" width="24.75" height="0.46" rx="0.13" ry="0.13"/><rect class="cls-105" x="105.8" y="179.57" width="14.27" height="0.46" rx="0.13" ry="0.13"/><g class="cls-24"><rect class="cls-107" x="120.07" y="161.12" width="24.22" height="28.45"/></g><rect class="cls-12" x="120.82" y="161.58" width="22.96" height="27.36"/><g class="cls-24"><path class="cls-108" d="M139.22,266.37v-.69h-2.5v.69H135v3.38h6v-3.38Zm-2.2-.44h1.88v.44H137Z" transform="translate(-5.67 -100.43)"/></g><rect class="cls-104" x="128.34" y="165.51" width="7.91" height="4.45"/><polygon class="cls-104" points="130.65 164.6 130.65 165.75 131.06 165.75 131.06 164.93 133.53 164.93 133.53 165.75 133.94 165.75 133.94 164.6 130.65 164.6"/><rect class="cls-109" x="124.25" y="173.59" width="16.14" height="0.69"/><rect class="cls-109" x="124.25" y="178.11" width="16.14" height="0.69"/><rect class="cls-105" x="124.25" y="179.31" width="16.14" height="0.69"/><rect class="cls-109" x="124.25" y="176.91" width="6.81" height="0.69"/><rect class="cls-110" x="135.3" y="176.91" width="5.09" height="0.69"/><rect class="cls-111" x="129.92" y="182.12" width="5.09" height="0.69"/><polygon class="cls-100" points="89.88 169.1 89.88 221.34 127.53 231 128.04 179.15 89.88 169.1"/><polygon class="cls-112" points="165.18 221.14 127.53 231 127.53 179.15 165.18 169.1 165.18 221.14"/><polygon class="cls-113" points="165.18 221.14 127.53 231 127.53 179.15 165.18 169.1 165.18 221.14"/><polygon class="cls-114" points="150.2 203.8 150.2 220.95 165.18 216.81 165.18 199.66 150.2 203.8"/><rect class="cls-115" x="145.48" y="164.74" width="11.1" height="10.67"/><rect class="cls-103" x="145.65" y="165" width="10.76" height="10.19"/><g class="cls-24"><path class="cls-116" d="M157.65,267.22v-.53h-1.9v.52h-1.33v2.57H159v-2.56Zm-1.66-.33h1.43v.33H156Z" transform="translate(-5.67 -100.43)"/></g><rect class="cls-109" x="148.94" y="166.88" width="4.18" height="2.35"/><polygon class="cls-109" points="150.16 166.4 150.16 167.01 150.38 167.01 150.38 166.57 151.68 166.57 151.68 167.01 151.9 167.01 151.9 166.4 150.16 166.4"/><rect class="cls-109" x="149.18" y="171.06" width="3.88" height="0.52"/><rect class="cls-109" x="147.72" y="172.02" width="6.62" height="0.52"/><rect class="cls-117" x="138.74" y="123.3" width="11.1" height="10.67"/><rect class="cls-103" x="138.91" y="123.56" width="10.76" height="10.19"/><g class="cls-24"><path class="cls-118" d="M150.91,225.78v-.52H149v.52h-1.33v2.57h4.57v-2.57Zm-1.66-.33h1.43v.33h-1.43Z" transform="translate(-5.67 -100.43)"/></g><rect class="cls-109" x="142.2" y="125.43" width="4.18" height="2.35"/><polygon class="cls-109" points="143.42 124.95 143.42 125.56 143.64 125.56 143.64 125.13 144.94 125.13 144.94 125.56 145.16 125.56 145.16 124.95 143.42 124.95"/><rect class="cls-109" x="142.44" y="129.61" width="3.88" height="0.52"/><rect class="cls-109" x="140.98" y="130.57" width="6.62" height="0.52"/><g class="cls-24"><rect class="cls-119" x="119.15" y="132.13" width="14.39" height="11.82"/></g><rect class="cls-120" x="119.32" y="132.35" width="14.03" height="11.4"/><rect class="cls-111" x="119.32" y="132.35" width="14.03" height="2.54"/><rect class="cls-104" x="119.32" y="132.35" width="14.03" height="2.54"/><g class="cls-24"><rect class="cls-121" x="140.3" y="141" width="17.83" height="14.65"/></g><rect class="cls-12" x="140.51" y="141.28" width="17.38" height="14.13"/><rect class="cls-122" x="140.51" y="141.28" width="17.38" height="3.15"/><polygon class="cls-101" points="89.38 196.21 110.48 201.53 127.43 187.73 127.43 179.25 89.78 169.79 89.38 196.21"/><polygon class="cls-101" points="165.48 196.21 144.38 201.53 127.43 187.73 127.43 179.25 165.09 169.79 165.48 196.21"/><polygon class="cls-100" points="89.88 169.1 70.56 185.07 108.21 194.53 127.53 179.15 89.88 169.1"/><polygon class="cls-123" points="165.18 169.1 184.7 185.07 147.24 194.53 127.53 179.15 165.18 169.1"/><polygon class="cls-113" points="165.18 169.1 184.7 185.07 147.24 194.53 127.53 179.15 165.18 169.1"/><rect class="cls-109" x="141.81" y="145.85" width="8.62" height="7.76" rx="1.32" ry="1.32"/><rect class="cls-105" x="151.72" y="147.98" width="4.65" height="0.69"/><rect class="cls-105" x="151.72" y="149.39" width="4.65" height="0.69"/><rect class="cls-105" x="151.72" y="150.79" width="3.84" height="0.69"/><rect class="cls-109" x="120.22" y="135.63" width="7.16" height="6.44" rx="1.1" ry="1.1"/><rect class="cls-105" x="128.45" y="137.4" width="3.86" height="0.57"/><rect class="cls-105" x="128.45" y="138.56" width="3.86" height="0.57"/><rect class="cls-105" x="128.45" y="139.73" width="3.19" height="0.57"/><polygon class="cls-97" points="312.01 170.18 274.36 161.11 274.36 232.08 312.01 222.22 312.01 170.18"/><polygon class="cls-98" points="312.01 170.18 274.36 161.11 274.36 232.08 312.01 222.22 312.01 170.18"/><polygon class="cls-97" points="236.71 170.18 274.36 161.11 274.36 232.08 236.71 222.42 236.71 170.18"/><polygon class="cls-99" points="236.71 169.87 274.36 160.79 274.36 232.08 236.71 222.42 236.71 169.87"/><polygon class="cls-6" points="274.05 161.42 293.88 144.94 331.53 154.6 311.7 170.49 274.05 161.42"/><polygon class="cls-101" points="217.7 155.11 237.02 170.49 274.67 161.42 255.55 145.26 217.7 155.11"/><polygon class="cls-5" points="217.39 154.8 237.18 170.49 274.83 161.42 255.24 144.94 217.39 154.8"/><g class="cls-24"><rect class="cls-124" x="246.43" y="152.91" width="27.95" height="25.79" rx="0.71" ry="0.71"/></g><rect class="cls-103" x="246.78" y="153.11" width="27.3" height="25.16" rx="0.71" ry="0.71"/><rect class="cls-104" x="248.88" y="157.25" width="13.26" height="11.93" rx="2.03" ry="2.03"/><rect class="cls-105" x="254.87" y="158.63" width="18.3" height="0.46" rx="0.13" ry="0.13"/><rect class="cls-105" x="248.42" y="173.31" width="24.75" height="0.46" rx="0.13" ry="0.13"/><rect class="cls-105" x="248.42" y="174.69" width="14.27" height="0.46" rx="0.13" ry="0.13"/><g class="cls-24"><rect class="cls-125" x="250.65" y="158.86" width="27.95" height="25.79" rx="0.71" ry="0.71"/></g><rect class="cls-12" x="250.99" y="159.07" width="27.3" height="25.16" rx="0.71" ry="0.71"/><rect class="cls-104" x="256.21" y="162.58" width="15.61" height="14.05" rx="2.39" ry="2.39"/><rect class="cls-105" x="252.64" y="177.43" width="24.75" height="0.46" rx="0.13" ry="0.13"/><rect class="cls-105" x="252.64" y="179.27" width="24.75" height="0.46" rx="0.13" ry="0.13"/><rect class="cls-105" x="252.64" y="180.65" width="14.27" height="0.46" rx="0.13" ry="0.13"/><g class="cls-24"><rect class="cls-126" x="266.9" y="162.2" width="24.22" height="28.45"/></g><rect class="cls-12" x="267.65" y="162.66" width="22.96" height="27.36"/><g class="cls-24"><path class="cls-127" d="M286,267.44v-.69h-2.5v.69H281.8v3.38h6v-3.38Zm-2.2-.44h1.88v.44h-1.88Z" transform="translate(-5.67 -100.43)"/></g><rect class="cls-104" x="275.17" y="166.59" width="7.91" height="4.45"/><polygon class="cls-104" points="277.48 165.68 277.48 166.83 277.89 166.83 277.89 166.01 280.36 166.01 280.36 166.83 280.77 166.83 280.77 165.68 277.48 165.68"/><rect class="cls-109" x="271.08" y="174.67" width="16.14" height="0.69"/><rect class="cls-109" x="271.08" y="179.19" width="16.14" height="0.69"/><rect class="cls-105" x="271.08" y="180.39" width="16.14" height="0.69"/><rect class="cls-109" x="271.08" y="177.99" width="6.81" height="0.69"/><rect class="cls-110" x="282.13" y="177.99" width="5.09" height="0.69"/><rect class="cls-111" x="276.75" y="183.2" width="5.09" height="0.69"/><polygon class="cls-6" points="236.71 170.18 236.71 222.42 274.36 232.08 274.87 180.23 236.71 170.18"/><polygon class="cls-112" points="312.01 222.22 274.36 232.08 274.36 180.23 312.01 170.18 312.01 222.22"/><polygon class="cls-5" points="312.01 222.22 274.36 232.08 274.36 180.23 312.01 170.18 312.01 222.22"/><polygon class="cls-114" points="297.03 204.88 297.03 222.03 312.01 217.89 312.01 200.73 297.03 204.88"/><rect class="cls-128" x="292.31" y="165.82" width="11.1" height="10.67"/><rect class="cls-103" x="292.48" y="166.08" width="10.76" height="10.19"/><g class="cls-24"><path class="cls-129" d="M304.49,268.3v-.53h-1.9v.52h-1.33v2.57h4.57V268.3Zm-1.66-.33h1.43v.33h-1.43Z" transform="translate(-5.67 -100.43)"/></g><rect class="cls-109" x="295.77" y="167.95" width="4.18" height="2.35"/><polygon class="cls-109" points="296.99 167.48 296.99 168.09 297.21 168.09 297.21 167.65 298.52 167.65 298.52 168.09 298.73 168.09 298.73 167.48 296.99 167.48"/><rect class="cls-109" x="296.01" y="172.14" width="3.88" height="0.52"/><rect class="cls-109" x="294.55" y="173.09" width="6.62" height="0.52"/><g class="cls-24"><rect class="cls-130" x="287.14" y="142.08" width="17.83" height="14.65"/></g><polygon class="cls-101" points="236.22 197.28 257.31 202.61 274.26 188.81 274.26 180.33 236.61 170.87 236.22 197.28"/><polygon class="cls-6" points="312.31 197.28 291.22 202.61 274.26 188.81 274.26 180.33 311.92 170.87 312.31 197.28"/><polygon class="cls-6" points="236.71 170.18 217.39 186.15 255.04 195.61 274.36 180.23 236.71 170.18"/><polygon class="cls-123" points="312.01 170.18 331.53 186.15 294.07 195.61 274.36 180.23 312.01 170.18"/><polygon class="cls-5" points="312.01 170.18 331.53 186.15 294.07 195.61 274.36 180.23 312.01 170.18"/><circle class="cls-131" cx="276.13" cy="106.11" r="14.3"/><text class="cls-132" transform="translate(268.28 112.14)">B</text><circle class="cls-12" cx="104.16" cy="106.11" r="14.3"/><text class="cls-133" transform="translate(96.44 112.14)">A</text></svg>