<svg xmlns="http://www.w3.org/2000/svg" xmlns:xlink="http://www.w3.org/1999/xlink" width="140" height="120" viewBox="0 0 140 120"><defs><clipPath id="a"><rect width="140" height="120" transform="translate(714 166)" fill="#fff" stroke="#707070" stroke-width="1"/></clipPath></defs><g transform="translate(-714 -166)" clip-path="url(#a)"><g transform="translate(715.235 157.235)"><path d="M133.232,68.276v54.287a6.2,6.2,0,0,1-6.2,6.2H90.224a6.2,6.2,0,0,1-6.2-6.2V68.276a6.2,6.2,0,0,1,6.2-6.2H98.6V62.1a4.609,4.609,0,0,0,4.61,4.609H114.05a4.609,4.609,0,0,0,4.609-4.61v-.018h8.373a6.2,6.2,0,0,1,6.2,6.2Zm-31.986,34.369V93.786H92.389v8.859Z" fill="#f8ec7d"/><path d="M98.6,62.076v-.282a4.609,4.609,0,0,1,4.61-4.609H114.05a4.609,4.609,0,0,1,4.609,4.61v.3a4.609,4.609,0,0,1-4.61,4.609H103.206a4.609,4.609,0,0,1-4.609-4.61Z" fill="#6fe3ff"/><path d="M105.111,37.869V57.185h-1.9A4.609,4.609,0,0,0,98.6,61.8v.281H90.224a6.2,6.2,0,0,0-6.2,6.2v39.968L54.7,125.173V66.965l50.4-29.1Z" fill="#c16752"/><path d="M54.7,66.965,29.007,52.13l50.4-29.1h0l25.7,14.838Z" fill="#af593c"/><rect width="8.856" height="8.859" transform="translate(92.389 93.786)" fill="#6fe3ff"/><path d="M79.407,23.028l-50.4,29.1L4.3,37.866l50.4-29.1Z" fill="#c16752"/><path d="M54.7,66.965v58.208L4.3,96.072v-58.2l.005,0,24.7,14.263Z" fill="#e48e66"/><path d="M94.358,87.3H92.389a1.88,1.88,0,0,1-1.88-1.88V76.563a1.88,1.88,0,0,1,1.88-1.88h8.856a1.88,1.88,0,0,1,1.88,1.88v1.265a1.88,1.88,0,0,1-3.658.615h-5.2v5.1h.089a1.88,1.88,0,0,1,0,3.761Z" fill="#6fe3ff"/><path d="M94.358,121.746H92.389a1.88,1.88,0,0,1-1.88-1.88V111.01a1.88,1.88,0,0,1,1.88-1.88h8.856a1.88,1.88,0,0,1,1.88,1.88v1.81a1.881,1.881,0,1,1-3.761.07h-5.1v5.1h.089a1.88,1.88,0,0,1,0,3.761Z" fill="#6fe3ff"/><path d="M100.069,87.028a1.873,1.873,0,0,1-1.329-.55l-3.007-3a1.88,1.88,0,0,1,2.659-2.659l1.676,1.675,5.507-5.507a1.88,1.88,0,1,1,2.659,2.659L101.4,86.479A1.875,1.875,0,0,1,100.069,87.028Z" fill="#2561a1"/><path d="M100.069,121.746a1.873,1.873,0,0,1-1.329-.55l-3.007-3a1.88,1.88,0,1,1,2.659-2.659l1.676,1.675,5.507-5.507a1.88,1.88,0,1,1,2.659,2.659L101.4,121.2a1.875,1.875,0,0,1-1.33.549Z" fill="#2561a1"/><path d="M124.867,82.872H113.056a1.88,1.88,0,0,1,0-3.761h11.811a1.88,1.88,0,1,1,0,3.761Z" fill="#e48e66"/><path d="M124.867,100.1H113.056a1.88,1.88,0,0,1,0-3.761h11.811a1.88,1.88,0,1,1,0,3.761Z" fill="#e48e66"/><path d="M124.867,117.319H113.056a1.88,1.88,0,0,1,0-3.761h11.811a1.88,1.88,0,1,1,0,3.761Z" fill="#e48e66"/></g></g></svg>