<?xml version="1.0" encoding="utf-8"?>
<!-- Generator: Adobe Illustrator 21.1.0, SVG Export Plug-In . SVG Version: 6.00 Build 0)  -->
<svg version="1.1" id="Layer_1" xmlns="http://www.w3.org/2000/svg" xmlns:xlink="http://www.w3.org/1999/xlink" x="0px" y="0px"
	 viewBox="0 0 464 464" style="enable-background:new 0 0 464 464;" xml:space="preserve">
<style type="text/css">
	.st0{opacity:0.11;fill:#A04A04;}
	.st1{fill:#E5B57A;}
	.st2{fill:#EBAE56;}
	.st3{fill:#CE9047;}
	.st4{fill:#DCA050;}
	.st5{fill:#FFF2B4;}
	.st6{fill:#73D37A;}
	.st7{fill:#49CB5C;}
	.st8{fill:#DDF4BA;}
	.st9{fill:#FD7A7A;}
	.st10{fill:#FD5757;}
	.st11{fill:#FDCBBB;}
	.st12{fill:#649EB0;}
	.st13{fill:#458FA4;}
	.st14{fill:#B0DDE9;}
</style>
<g>
	<circle class="st0" cx="232.5" cy="234.1" r="223.9"/>
	<g>
		<polygon class="st1" points="238.8,158.5 137.7,205.1 238.8,251.8 339.9,205.1 		"/>
		<path class="st2" d="M337.7,326.8l-98.9,45.6V251.8l101.1-46.7v118.1C339.9,324.7,339.1,326.1,337.7,326.8z"/>
		<path class="st3" d="M139.9,326.8l98.9,45.6V251.8l-101.1-46.7v118.1C137.7,324.7,138.6,326.1,139.9,326.8z"/>
		<path class="st1" d="M339.9,205.1l-101.1,46.7l18.1,54.2c0.7,2.2,3.2,3.3,5.3,2.3l94-43.4c1.8-0.8,2.7-2.9,2.1-4.8L339.9,205.1z"
			/>
		<path class="st4" d="M137.7,205.1l101.1,46.7L220.7,306c-0.7,2.2-3.2,3.3-5.3,2.3l-94-43.4c-1.8-0.8-2.7-2.9-2.1-4.8L137.7,205.1z
			"/>
		<polygon class="st4" points="339.9,205.1 238.8,158.5 238.8,251.8 		"/>
		<path class="st5" d="M239.6,188.3c0,1.8-1.5,3.3-3.3,3.3c-1.8,0-3.3-1.5-3.3-3.3c0-1.8,1.5-3.3,3.3-3.3
			C238.1,185,239.6,186.5,239.6,188.3z M236.3,172.5c-1.8,0-3.3,1.5-3.3,3.3c0,1.8,1.5,3.3,3.3,3.3c1.8,0,3.3-1.5,3.3-3.3
			C239.6,174,238.1,172.5,236.3,172.5z M236.3,160c-1.8,0-3.3,1.5-3.3,3.3s1.5,3.3,3.3,3.3c1.8,0,3.3-1.5,3.3-3.3
			S238.1,160,236.3,160z M218.4,186c-1.3,1.3-1.3,3.4,0,4.7c1.3,1.3,3.4,1.3,4.7,0c1.3-1.3,1.3-3.4,0-4.7
			C221.8,184.7,219.7,184.7,218.4,186z M209.6,177.1c-1.3,1.3-1.3,3.4,0,4.7c1.3,1.3,3.4,1.3,4.7,0c1.3-1.3,1.3-3.4,0-4.7
			C213,175.8,210.9,175.8,209.6,177.1z M200.8,168.3c-1.3,1.3-1.3,3.4,0,4.7c1.3,1.3,3.4,1.3,4.7,0c1.3-1.3,1.3-3.4,0-4.7
			C204.2,167,202.1,167,200.8,168.3z M271.8,168.3c-1.3-1.3-3.4-1.3-4.7,0c-1.3,1.3-1.3,3.4,0,4.7c1.3,1.3,3.4,1.3,4.7,0
			C273.1,171.7,273.1,169.6,271.8,168.3z M258.3,177.1c-1.3,1.3-1.3,3.4,0,4.7c1.3,1.3,3.4,1.3,4.7,0c1.3-1.3,1.3-3.4,0-4.7
			C261.7,175.8,259.6,175.8,258.3,177.1z M249.4,186c-1.3,1.3-1.3,3.4,0,4.7c1.3,1.3,3.4,1.3,4.7,0c1.3-1.3,1.3-3.4,0-4.7
			C252.8,184.7,250.7,184.7,249.4,186z"/>
		<path class="st6" d="M262.8,129.4c0,14.7-11.9,26.6-26.6,26.6c-14.7,0-26.6-11.9-26.6-26.6s11.9-26.6,26.6-26.6
			C251,102.8,262.8,114.7,262.8,129.4z"/>
		<path class="st7" d="M257.7,145.1c-4.8,6.6-12.6,10.8-21.4,10.8c-14.7,0-26.6-11.9-26.6-26.6c0-8.8,4.3-16.6,10.8-21.4
			c-3.2,4.4-5.2,9.8-5.2,15.7c0,14.7,11.9,26.6,26.6,26.6C247.8,150.3,253.3,148.3,257.7,145.1z"/>
		<path class="st8" d="M244.3,112.8c1.3,0,2.6,0.3,3.7,0.8l4.4,2.1c0.5,0.2,0.8,0.7,0.8,1.2v7.8c0,0.7-0.6,1.3-1.3,1.3h-5.6v18.3
			c0,0.9-0.7,1.7-1.7,1.7H228c-0.9,0-1.7-0.7-1.7-1.7V126h-5.6c-0.7,0-1.3-0.6-1.3-1.3v-7.8c0-0.5,0.3-1,0.8-1.2l4.4-2.1
			c1.2-0.6,2.4-0.8,3.7-0.8c0.3,0,0.7,0.1,0.9,0.4c1.8,1.8,4.3,2.9,7.1,2.9c2.8,0,5.3-1.1,7.1-2.9
			C243.6,112.9,243.9,112.8,244.3,112.8z"/>
		<path class="st9" d="M204.4,146c0,14.7-11.9,26.6-26.6,26.6c-14.7,0-26.6-11.9-26.6-26.6s11.9-26.6,26.6-26.6
			C192.5,119.4,204.4,131.3,204.4,146z"/>
		<path class="st10" d="M199.2,161.7c-4.8,6.6-12.6,10.8-21.4,10.8c-14.7,0-26.6-11.9-26.6-26.6c0-8.8,4.3-16.6,10.8-21.4
			c-3.2,4.4-5.2,9.8-5.2,15.7c0,14.7,11.9,26.6,26.6,26.6C189.4,166.9,194.8,164.9,199.2,161.7z"/>
		<path class="st11" d="M192.8,148.3c0,6.4-6.7,14.5-14.9,14.5c-8.3,0-14.9-8.1-14.9-14.5c0-2.7,1.2-4.6,3.2-6c2-1.4,4.7-1.6,7-0.7
			c1,0.4,2.1,0.7,3.2,0.8c0.1-1.3,0.4-2.5,1-3.6c-2.3,0.9-5.1,0.3-7-1.6c-2-2-2.6-5-1.5-7.4c2.4-1.1,5.3-0.6,7.4,1.5
			c1.8,1.8,2.4,4.3,1.8,6.5c1.5-2,3.9-3.2,6.6-3.2c0.9,0,1.7,0.7,1.7,1.7c0,0.9-0.7,1.7-1.7,1.7c-2.6,0-4.7,2-5,4.5
			c1.1-0.1,2.1-0.4,3.1-0.8c2.3-0.9,4.9-0.7,7,0.7C191.6,143.6,192.8,145.6,192.8,148.3z"/>
		<path class="st12" d="M321.3,146c0,14.7-11.9,26.6-26.6,26.6c-14.7,0-26.6-11.9-26.6-26.6s11.9-26.6,26.6-26.6
			C309.4,119.4,321.3,131.3,321.3,146z"/>
		<path class="st13" d="M316.1,161.7c-4.8,6.6-12.6,10.8-21.4,10.8c-14.7,0-26.6-11.9-26.6-26.6c0-8.8,4.3-16.6,10.8-21.4
			c-3.2,4.4-5.2,9.8-5.2,15.7c0,14.7,11.9,26.6,26.6,26.6C306.3,166.9,311.7,164.9,316.1,161.7z"/>
		<path class="st14" d="M288.6,141c0,1.4-1.1,2.5-2.5,2.5s-2.5-1.1-2.5-2.5s1.1-2.5,2.5-2.5S288.6,139.6,288.6,141z M306,138.5
			c-1.4,0-2.5,1.1-2.5,2.5s1.1,2.5,2.5,2.5s2.5-1.1,2.5-2.5S307.4,138.5,306,138.5z M314,154.1c0,2.8-2.3,5.1-5.1,5.1
			c-2.4,0-4.5-1.7-5-4.1l-0.1-0.6c-0.6-3-3.3-5.2-6.4-5.2h-2.7c-3.1,0-5.7,2.2-6.4,5.2l-0.1,0.6c-0.5,2.4-2.6,4.1-5,4.1
			c-2.8,0-5.1-2.3-5.1-5.1c0-3.2,0.3-6.5,0.8-9.6l1-6.4c0.5-3.1,3.2-5.5,6.4-5.5h19.5c3.2,0,5.9,2.3,6.4,5.5l1,6.4
			C313.7,147.7,314,150.9,314,154.1z M291.1,141c0-2.8-2.2-5-5-5c-2.8,0-5,2.2-5,5c0,2.8,2.2,5,5,5C288.8,146,291.1,143.7,291.1,141
			z M295.4,144.6c0-0.7-0.6-1.3-1.3-1.3s-1.3,0.6-1.3,1.3s0.6,1.3,1.3,1.3S295.4,145.4,295.4,144.6z M299.4,144.6
			c0-0.7-0.6-1.3-1.3-1.3c-0.7,0-1.3,0.6-1.3,1.3s0.6,1.3,1.3,1.3C298.8,146,299.4,145.4,299.4,144.6z M311,141c0-2.8-2.2-5-5-5
			c-2.8,0-5,2.2-5,5c0,2.8,2.2,5,5,5C308.8,146,311,143.7,311,141z"/>
	</g>
</g>
</svg>
