<svg id="Layer_1" data-name="Layer 1" xmlns="http://www.w3.org/2000/svg" xmlns:xlink="http://www.w3.org/1999/xlink" viewBox="0 0 913.28 913.26"><defs><style>.cls-1{fill:#c8f29c;}.cls-2{fill:url(#linear-gradient);}.cls-3{fill:url(#linear-gradient-2);}.cls-4{fill:url(#linear-gradient-3);}.cls-5{fill:url(#linear-gradient-4);}.cls-6{fill:url(#linear-gradient-5);}.cls-7{fill:url(#linear-gradient-6);}</style><linearGradient id="linear-gradient" x1="767.97" y1="477.38" x2="892.5" y2="477.38" gradientUnits="userSpaceOnUse"><stop offset="0" stop-color="#00a14b"/><stop offset="1" stop-color="#006838"/></linearGradient><linearGradient id="linear-gradient-2" x1="415.12" y1="290.58" x2="456.63" y2="290.58" gradientUnits="userSpaceOnUse"><stop offset="0" stop-color="#8dc63f"/><stop offset="0.22" stop-color="#6dbb40"/><stop offset="1" stop-color="#009444"/></linearGradient><linearGradient id="linear-gradient-3" x1="518.9" y1="290.58" x2="560.41" y2="290.58" xlink:href="#linear-gradient-2"/><linearGradient id="linear-gradient-4" x1="622.68" y1="290.58" x2="664.19" y2="290.58" xlink:href="#linear-gradient-2"/><linearGradient id="linear-gradient-5" x1="81.61" y1="709.9" x2="704.28" y2="709.9" xlink:href="#linear-gradient-2"/><linearGradient id="linear-gradient-6" x1="662.77" y1="709.9" x2="787.31" y2="709.9" xlink:href="#linear-gradient"/></defs><title>provisions</title><polygon class="cls-1" points="809.48 809.48 269.83 809.48 311.34 145.29 767.97 145.29 809.48 809.48"/><polygon class="cls-2" points="892.5 809.48 809.48 809.48 767.97 145.29 850.99 145.29 892.5 809.48"/><path d="M932.56,189.71a20.76,20.76,0,0,0-20.71-19.47H849.57A124.31,124.31,0,0,0,662.77,62.56,124.31,124.31,0,0,0,476,170.25H372.19a20.76,20.76,0,0,0-20.71,19.47L310,853.9a20.77,20.77,0,0,0,20.71,22H953.35a20.77,20.77,0,0,0,20.74-22ZM808.06,170.25H725a123.89,123.89,0,0,0-27.56-78A82.16,82.16,0,0,1,725,87.22,83.11,83.11,0,0,1,808.06,170.25ZM662.77,115.91a82.32,82.32,0,0,1,20.76,54.34H642A82.31,82.31,0,0,1,662.77,115.91ZM600.5,87.22a82.15,82.15,0,0,1,27.56,5.07,123.88,123.88,0,0,0-27.56,78h-83A83.11,83.11,0,0,1,600.5,87.22ZM352.76,834.43l38.92-622.68H476v41.51a20.76,20.76,0,1,0,41.51,0V211.76h166v41.51a20.76,20.76,0,1,0,41.51,0V211.76h84.29l38.92,622.68Zm537.06,0L850.9,211.76h41.43l38.92,622.68Z" transform="translate(-60.85 -45.71)"/><circle class="cls-3" cx="435.87" cy="290.58" r="20.76"/><circle class="cls-4" cx="539.65" cy="290.58" r="20.76"/><circle class="cls-5" cx="643.43" cy="290.58" r="20.76"/><path class="cls-6" d="M704.28,481.58H81.61l38.09,418.87A41.5,41.5,0,0,0,161,938.21H662.77Z" transform="translate(-60.85 -45.71)"/><path class="cls-7" d="M787.31,481.58h-83L662.77,938.21h45.12a41.53,41.53,0,0,0,41.35-37.76Z" transform="translate(-60.85 -45.71)"/><path d="M802.62,467.59a20.68,20.68,0,0,0-15.32-6.77H81.61a20.78,20.78,0,0,0-20.67,22.64L99,902.37A62,62,0,0,0,161,959H707.89a62,62,0,0,0,62-56.64L808,483.45A20.71,20.71,0,0,0,802.62,467.59Zm-662.26,431-36-396.25H681.55L643.82,917.46H161A20.64,20.64,0,0,1,140.37,898.59Zm588.18,0a20.65,20.65,0,0,1-20.65,18.89H685.5l37.73-415.12h41.35Z" transform="translate(-60.85 -45.71)"/><circle class="cls-1" cx="249.07" cy="767.97" r="20.76"/><circle class="cls-1" cx="332.09" cy="767.97" r="20.76"/><circle class="cls-1" cx="415.12" cy="767.97" r="20.76"/><path d="M392.94,730.65c-91.55,0-166-74.49-166-166a20.76,20.76,0,0,1,41.51,0,124.54,124.54,0,1,0,249.07,0,20.76,20.76,0,0,1,41.51,0C559,656.16,484.5,730.65,392.94,730.65Z" transform="translate(-60.85 -45.71)"/></svg>