<?xml version="1.0" encoding="utf-8"?>
<!-- Generator: Adobe Illustrator 23.1.1, SVG Export Plug-In . SVG Version: 6.00 Build 0)  -->
<svg version="1.1" id="Layer_1" xmlns="http://www.w3.org/2000/svg" xmlns:xlink="http://www.w3.org/1999/xlink" x="0px" y="0px"
	 viewBox="0 0 512 512" style="enable-background:new 0 0 512 512;" xml:space="preserve">
<style type="text/css">
	.st0{fill:#026E08;}
</style>
<g id="Cash_register">
	<path class="st0" d="M496,391.3l-16-192c-0.3-4.2-3.8-7.4-8-7.3h-56V80h17.4c4.4,12.5,18.1,19.1,30.6,14.6c9.6-3.4,16-12.5,16-22.6
		V40c0-4.4-3.6-8-8-8h-25.4c-3.4-9.6-12.5-16-22.6-16h-96c-22.1,0-40,17.9-40,40v136H176v-64h56c4.4,0,8-3.6,8-8V40c0-4.4-3.6-8-8-8
		H72c-4.4,0-8,3.6-8,8v80c0,4.4,3.6,8,8,8h56v64H40c-4.2,0-7.7,3.2-8,7.3L16,392v96c0,4.4,3.6,8,8,8h464c4.4,0,8-3.6,8-8V391.3z
		 M464,72c0,4.4-3.6,8-8,8s-8-3.6-8-8V48h16V72z M432,40v24h-16V40c0-4.4,3.6-8,8-8S432,35.6,432,40z M304,56c0-13.3,10.7-24,24-24
		h73.5c-0.9,2.6-1.4,5.3-1.5,8v184h-96V56z M80,48h144v64H80V48z M144,128h16v64h-16V128z M47.4,208H288v24c0,4.4,3.6,8,8,8h112
		c4.4,0,8-3.6,8-8v-24h48.6l14.7,176H32.7L47.4,208z M32,480v-80h448v80H32z"/>
	<path class="st0" d="M192,256h16v16h-16V256z"/>
	<path class="st0" d="M160,256h16v16h-16V256z"/>
	<path class="st0" d="M128,256h16v16h-16V256z"/>
	<path class="st0" d="M192,80h16v16h-16V80z"/>
	<path class="st0" d="M160,80h16v16h-16V80z"/>
	<path class="st0" d="M128,80h16v16h-16V80z"/>
	<path class="st0" d="M320,56h16v16h-16V56z"/>
	<path class="st0" d="M352,56h32v16h-32V56z"/>
	<path class="st0" d="M320,88h16v16h-16V88z"/>
	<path class="st0" d="M352,88h32v16h-32V88z"/>
	<path class="st0" d="M320,120h16v16h-16V120z"/>
	<path class="st0" d="M352,120h32v16h-32V120z"/>
	<path class="st0" d="M320,152h16v16h-16V152z"/>
	<path class="st0" d="M352,152h32v16h-32V152z"/>
	<path class="st0" d="M320,184h64v16h-64V184z"/>
	<path class="st0" d="M72,304h160c4.4,0,8-3.6,8-8v-64c0-4.4-3.6-8-8-8H72c-4.4,0-8,3.6-8,8v64C64,300.4,67.6,304,72,304z M80,240
		h144v48H80V240z"/>
	<path class="st0" d="M256,416c-13.3,0-24,10.7-24,24s10.7,24,24,24c13.3,0,24-10.7,24-24l0,0C280,426.7,269.3,416,256,416z
		 M256,448c-4.4,0-8-3.6-8-8s3.6-8,8-8s8,3.6,8,8S260.4,448,256,448z"/>
	<path class="st0" d="M280,304h32c4.4,0,8-3.6,8-8v-32c0-4.4-3.6-8-8-8h-32c-4.4,0-8,3.6-8,8v32C272,300.4,275.6,304,280,304z
		 M288,272h16v16h-16V272z"/>
	<path class="st0" d="M344,304h32c4.4,0,8-3.6,8-8v-32c0-4.4-3.6-8-8-8h-32c-4.4,0-8,3.6-8,8v32C336,300.4,339.6,304,344,304z
		 M352,272h16v16h-16V272z"/>
	<path class="st0" d="M408,304h32c4.4,0,8-3.6,8-8v-32c0-4.4-3.6-8-8-8h-32c-4.4,0-8,3.6-8,8v32C400,300.4,403.6,304,408,304z
		 M416,272h16v16h-16V272z"/>
	<path class="st0" d="M280,368h32c4.4,0,8-3.6,8-8v-32c0-4.4-3.6-8-8-8h-32c-4.4,0-8,3.6-8,8v32C272,364.4,275.6,368,280,368z
		 M288,336h16v16h-16V336z"/>
	<path class="st0" d="M344,368h32c4.4,0,8-3.6,8-8v-32c0-4.4-3.6-8-8-8h-32c-4.4,0-8,3.6-8,8v32C336,364.4,339.6,368,344,368z
		 M352,336h16v16h-16V336z"/>
	<path class="st0" d="M408,368h32c4.4,0,8-3.6,8-8v-32c0-4.4-3.6-8-8-8h-32c-4.4,0-8,3.6-8,8v32C400,364.4,403.6,368,408,368z
		 M416,336h16v16h-16V336z"/>
	<path class="st0" d="M64,320h32v16H64V320z"/>
	<path class="st0" d="M112,320h32v16h-32V320z"/>
	<path class="st0" d="M160,320h32v16h-32V320z"/>
	<path class="st0" d="M208,320h32v16h-32V320z"/>
	<path class="st0" d="M64,352h32v16H64V352z"/>
	<path class="st0" d="M112,352h32v16h-32V352z"/>
	<path class="st0" d="M160,352h32v16h-32V352z"/>
	<path class="st0" d="M208,352h32v16h-32V352z"/>
</g>
</svg>
