<svg xmlns="http://www.w3.org/2000/svg" width="29.167" height="35" viewBox="0 0 29.167 35">
  <path id="Path_48" data-name="Path 48" d="M4.917,32.083V2.917H28.25V19.75c0,5.989-8.75,3.583-8.75,3.583s2.214,8.75-3.847,8.75Zm26.25-11.1V0H2V35H16.859C21.472,35,31.167,24.466,31.167,20.98Zm-7.292-2.021H12.208V17.5H23.875Zm0-5.833H12.208v1.458H23.875Zm0-4.375H12.208v1.458H23.875Zm-13.125,0H9.292v1.458H10.75Zm0,4.375H9.292v1.458H10.75Zm0,4.375H9.292v1.458H10.75Z" transform="translate(-2)" fill="#888889"/>
</svg>
