<?xml version="1.0" encoding="utf-8"?>
<!-- Generator: Adobe Illustrator 21.1.0, SVG Export Plug-In . SVG Version: 6.00 Build 0)  -->
<svg version="1.1" id="Layer_1" xmlns="http://www.w3.org/2000/svg" xmlns:xlink="http://www.w3.org/1999/xlink" x="0px" y="0px"
	 viewBox="0 0 464 464" style="enable-background:new 0 0 464 464;" xml:space="preserve">
<style type="text/css">
	.st0{opacity:0.11;fill:#3BB54A;}
	.st1{fill:#3BB54A;}
	.st2{fill:#0E9347;}
	.st3{fill:#FFCB5B;}
</style>
<g>
	<circle class="st0" cx="233.1" cy="234.1" r="229.9"/>
	<g>
		<path class="st1" d="M236.5,322l-2.3,2l-16.1,12.9L202.1,324L186,336.9L169.9,324l-16.1,12.9V167.5c0-11.6,9.4-20.9,20.9-20.9
			h126.1c-10.1,0-18.2,8.2-18.2,18.2v90.3c-0.1,0-0.2,0-0.3,0c-16.2,0-31.4,8-40.5,21.4C232.6,289.9,230.7,306.9,236.5,322z"/>
		<path class="st2" d="M300.8,146.6c10.1,0,18.2,8.2,18.2,18.2v48h-36.5v-48C282.5,154.8,290.7,146.6,300.8,146.6z"/>
		<path class="st3" d="M282.5,255.1c26.8,0.5,48.1,22.5,47.6,49.3c-0.4,26.8-22.4,48.1-49.2,47.7c-26.8-0.4-48.1-22.4-47.8-49.1
			c0.3-26.8,22.3-48.2,49-47.9C282.3,255.1,282.4,255.1,282.5,255.1z"/>
		<path class="st3" d="M170.5,231.6h1.2c1.4,0,2.6-1.2,2.6-2.6c0-1.4-1.2-2.6-2.6-2.6h-1.2c-1.4,0-2.6,1.2-2.6,2.6
			C167.9,230.4,169.1,231.6,170.5,231.6z"/>
		<path class="st3" d="M191.8,226.4h-8.7c-1.4,0-2.6,1.2-2.6,2.6c0,1.4,1.2,2.6,2.6,2.6h8.7c1.4,0,2.6-1.2,2.6-2.6
			C194.4,227.6,193.2,226.4,191.8,226.4z"/>
		<path class="st3" d="M265.8,226.4h-62.3c-1.4,0-2.6,1.2-2.6,2.6c0,1.4,1.2,2.6,2.6,2.6h62.3c1.4,0,2.6-1.2,2.6-2.6
			C268.4,227.6,267.2,226.4,265.8,226.4z"/>
		<path class="st3" d="M170.5,207.1h1.2c1.4,0,2.6-1.2,2.6-2.6s-1.2-2.6-2.6-2.6h-1.2c-1.4,0-2.6,1.2-2.6,2.6
			S169.1,207.1,170.5,207.1z"/>
		<path class="st3" d="M191.8,201.9h-8.7c-1.4,0-2.6,1.2-2.6,2.6s1.2,2.6,2.6,2.6h8.7c1.4,0,2.6-1.2,2.6-2.6
			S193.2,201.9,191.8,201.9z"/>
		<path class="st3" d="M265.8,201.9h-62.3c-1.4,0-2.6,1.2-2.6,2.6s1.2,2.6,2.6,2.6h62.3c1.4,0,2.6-1.2,2.6-2.6
			S267.2,201.9,265.8,201.9z"/>
		<path class="st3" d="M170.5,182.5h1.2c1.4,0,2.6-1.2,2.6-2.6s-1.2-2.6-2.6-2.6h-1.2c-1.4,0-2.6,1.2-2.6,2.6
			S169.1,182.5,170.5,182.5z"/>
		<path class="st3" d="M191.8,177.4h-8.7c-1.4,0-2.6,1.2-2.6,2.6s1.2,2.6,2.6,2.6h8.7c1.4,0,2.6-1.2,2.6-2.6
			S193.2,177.4,191.8,177.4z"/>
		<path class="st3" d="M203.5,182.5h62.3c1.4,0,2.6-1.2,2.6-2.6s-1.2-2.6-2.6-2.6h-62.3c-1.4,0-2.6,1.2-2.6,2.6
			S202.1,182.5,203.5,182.5z"/>
		<path class="st3" d="M170.5,256.1h1.2c1.4,0,2.6-1.2,2.6-2.6c0-1.4-1.2-2.6-2.6-2.6h-1.2c-1.4,0-2.6,1.2-2.6,2.6
			C167.9,255,169.1,256.1,170.5,256.1z"/>
		<path class="st3" d="M191.8,251h-8.7c-1.4,0-2.6,1.2-2.6,2.6c0,1.4,1.2,2.6,2.6,2.6h8.7c1.4,0,2.6-1.2,2.6-2.6
			C194.4,252.1,193.2,251,191.8,251z"/>
		<path class="st3" d="M170.5,280.6h1.2c1.4,0,2.6-1.2,2.6-2.6c0-1.4-1.2-2.6-2.6-2.6h-1.2c-1.4,0-2.6,1.2-2.6,2.6
			C167.9,279.5,169.1,280.6,170.5,280.6z"/>
		<path class="st3" d="M191.8,275.5h-8.7c-1.4,0-2.6,1.2-2.6,2.6c0,1.4,1.2,2.6,2.6,2.6h8.7c1.4,0,2.6-1.2,2.6-2.6
			C194.4,276.6,193.2,275.5,191.8,275.5z"/>
		<path class="st3" d="M241.3,251h-37.8c-1.4,0-2.6,1.2-2.6,2.6c0,1.4,1.2,2.6,2.6,2.6h37.8c1.4,0,2.6-1.2,2.6-2.6
			C243.9,252.1,242.7,251,241.3,251z"/>
		<path class="st3" d="M224.7,275.5h-21.8c-1.4,0-2.6,1.2-2.6,2.6c0,1.4,1.2,2.6,2.6,2.6h21.8c1.4,0,2.6-1.2,2.6-2.6
			C227.3,276.6,226.2,275.5,224.7,275.5z"/>
		<path class="st2" d="M272.8,320.2c-0.8,0-1.5-0.3-2-0.9l-14.2-16.7c-0.6-0.7-0.8-1.7-0.5-2.6c0.3-0.9,1.1-1.5,2-1.7
			c0.9-0.2,1.8,0.2,2.4,0.9l12.6,14.7l31.2-25.4c1.1-0.9,2.7-0.7,3.6,0.4c0.9,1.1,0.7,2.7-0.4,3.6l-33.1,26.9
			C274,320,273.4,320.2,272.8,320.2z"/>
	</g>
</g>
</svg>
