<?xml version="1.0" encoding="utf-8"?>
<!-- Generator: Adobe Illustrator 21.1.0, SVG Export Plug-In . SVG Version: 6.00 Build 0)  -->
<svg version="1.1" id="Layer_1" xmlns="http://www.w3.org/2000/svg" xmlns:xlink="http://www.w3.org/1999/xlink" x="0px" y="0px"
	 viewBox="0 0 464 464" style="enable-background:new 0 0 464 464;" xml:space="preserve">
<style type="text/css">
	.st0{opacity:0.11;fill:#848032;}
	.st1{fill:#848032;}
	.st2{fill:#B9B81A;}
</style>
<circle class="st0" cx="232.6" cy="234.1" r="225.4"/>
<g>
	<path class="st1" d="M320.9,232.9c-18.5-3.6-27-25.2-15.9-40.5l7.8-10.7l-16.9-16.9l-10.5,7.1c-15.6,10.6-37,1.3-39.8-17.4l-2-13.1
		h-24l-3.1,16.1c-3.5,18.1-24.4,26.8-39.7,16.4l-13.6-9.2l-16.9,16.9l7.8,10.7c11.2,15.2,2.7,36.9-15.9,40.5l-12.5,2.4v24l13.1,2
		c18.7,2.9,28,24.2,17.4,39.8l-7.1,10.5l16.9,16.9l10.7-7.8c15.2-11.2,36.9-2.7,40.5,15.9l2.4,12.5h24l1.4-9.2
		c2.9-19.1,25.1-28.2,40.6-16.8l7.5,5.5l16.9-16.9l-7.1-10.5c-10.6-15.6-1.3-37,17.4-39.8l13.1-2v-24L320.9,232.9z M231.6,265.2
		c-9.9,0-18-8-18-18c0-9.9,8-18,18-18s18,8,18,18C249.6,257.2,241.5,265.2,231.6,265.2z"/>
	<path class="st2" d="M231.6,209.3c-21,0-37.9,17-37.9,37.9s17,37.9,37.9,37.9s37.9-17,37.9-37.9S252.5,209.3,231.6,209.3z
		 M231.6,265.2c-9.9,0-18-8-18-18c0-9.9,8-18,18-18s18,8,18,18C249.6,257.2,241.5,265.2,231.6,265.2z"/>
</g>
</svg>
