<?xml version="1.0" encoding="utf-8"?>
<!-- Generator: Adobe Illustrator 23.1.1, SVG Export Plug-In . SVG Version: 6.00 Build 0)  -->
<svg version="1.1" id="Capa_1" xmlns="http://www.w3.org/2000/svg" xmlns:xlink="http://www.w3.org/1999/xlink" x="0px" y="0px"
	 viewBox="0 0 512 512" style="enable-background:new 0 0 512 512;" xml:space="preserve">
<style type="text/css">
	.st0{fill:#FFFFFF;}
</style>
<g>
	<g>
		<rect x="91" y="421" class="st0" width="60" height="30"/>
	</g>
</g>
<g>
	<g>
		<rect x="181" y="60" class="st0" width="90" height="30"/>
	</g>
</g>
<g>
	<g>
		<path class="st0" d="M320.9,271c4.5-9.5,7.6-19.6,9.1-30h1.1c33.1,0,60-26.9,60-60c0-22-11.6-41.5-30-52v-24
			C361,47.1,313.9,0,256,0h-60C138.1,0,91,47.1,91,105v24c-18.4,10.5-30,30-30,52c0,33.1,26.9,60,60,60h1.1
			c3.8,26.6,17.7,50.1,37.6,66.4l-5.7,22.4L90.7,338C40.8,344.4,2,385.8,0.1,436C0,437.3,0,438.7,0,440.1V512h241h195h76V271H320.9z
			 M361,301h30v60h-30V301z M361,181c0,16.5-13.5,30-30,30v-38.8l16.3-16.3C355.6,161.3,361,170.8,361,181z M121,211
			c-16.5,0-30-13.5-30-30c0-10.2,5.4-19.7,13.7-25.1l16.3,16.3V211z M121,121v-16c0-41.4,33.6-75,75-75h60c41.4,0,75,33.6,75,75v16
			H121z M309.8,151l-30,30H172.2l-30-30H309.8z M241,482H30v-41.9c0-36.9,28.6-67.7,64.6-72.3l37.5-4.9c17.7,35.5,53.9,58.1,94,58.1
			c5,0,10.1-0.4,15-1.1V482z M241,389.5c-4.9,1-9.9,1.5-15,1.5c-25,0-47.9-12.3-61.7-32.3l13.7-1.8l8.6-33.6
			c12.2,4.9,25.5,7.7,39.4,7.7c5,0,10.1-0.4,15-1.1V389.5z M241,299.5c-4.9,1-9.9,1.5-15,1.5c-41.4,0-75-33.6-75-75v-23.8l8.8,8.8
			h132.4l8.8-8.8V226c0,16.3-5.3,32.1-15,45h-45V299.5z M482,482h-46H271V301h60v90h90v-90h61V482z"/>
	</g>
</g>
</svg>
