<?xml version="1.0" encoding="utf-8"?>
<!-- Generator: Adobe Illustrator 23.1.1, SVG Export Plug-In . SVG Version: 6.00 Build 0)  -->
<svg version="1.1" id="Layer_1" xmlns="http://www.w3.org/2000/svg" xmlns:xlink="http://www.w3.org/1999/xlink" x="0px" y="0px"
	 viewBox="0 0 512 512" style="enable-background:new 0 0 512 512;" xml:space="preserve">
<style type="text/css">
	.st0{fill:#2DA134;}
	.st1{fill:#026E09;}
</style>
<g>
	<g>
		<path class="st0" d="M312,16l-9,32h-95l-8-32H312z"/>
		<path class="st0" d="M184,232h-16c-11.5,0-22.1-6.2-27.8-16.1l71.9-0.5C206.5,225.6,195.7,232,184,232z"/>
		<path class="st0" d="M299.6,214.7l73.2-0.5c-0.2,0.4-0.4,0.8-0.6,1.2c-5.6,10.3-16.4,16.7-28.1,16.7h-16c-9.8,0-19-4.5-25.1-12.1
			C301.6,218.3,300.5,216.5,299.6,214.7z"/>
		<path class="st0" d="M312,16l-9,32h-95l-8-32H312z"/>
		<path class="st0" d="M376,152h-80l-16-80h56L376,152z"/>
		<path class="st0" d="M216,152v48c0,17.7-14.3,32-32,32c0,0,0,0,0,0h-16c-17.7,0-32-14.3-32-32v-48H216z"/>
		<path class="st0" d="M376,152v48c0,4.9-1.1,9.7-3.3,14.1c-0.2,0.4-0.4,0.8-0.6,1.2c-5.6,10.3-16.4,16.7-28.1,16.7h-16
			c-9.8,0-19-4.5-25.1-12.1c-1.3-1.6-2.4-3.4-3.4-5.2c-2.3-4.5-3.6-9.6-3.6-14.7v-48H376z"/>
		<path class="st0" d="M232,72l-16,80h-80l40-80H232z"/>
		<path class="st0" d="M312,304l-8,64h-96v-64H312z"/>
	</g>
	<path class="st1" d="M461.3,145.8L400,69.2V40c0-17.7-14.3-32-32-32H144c-17.7,0-32,14.3-32,32v29.2L49.8,147c0,0,0,0,0,0.1
		c-1.1,1.4-1.7,3.2-1.7,4.9v48c0,22.1,17.9,40,40,40h16c2.7,0,5.4-0.3,8-0.8V472c0,17.7,14.3,32,32,32h224c17.7,0,32-14.3,32-32
		V239.2c2.6,0.5,5.3,0.8,8,0.8h16c22.1,0,40-17.9,40-40v-48.6C464.1,149.2,463.1,147.1,461.3,145.8z M439.4,144h-58.4l-32-64h39.2
		L439.4,144z M304,160h64v40c0,13.2-10.8,24-24,24h-16c-13.2,0-24-10.8-24-24V160z M302.6,144l-12.8-64h41.3l32,64H302.6z M301.4,24
		l-4.5,16h-82.7l-4-16H301.4z M128,40c0-8.8,7.2-16,16-16h49.8l6.5,25.9c0.9,3.6,4.1,6.1,7.8,6.1h95c3.6,0,6.7-2.4,7.7-5.8l7.4-26.2
		H368c8.8,0,16,7.2,16,16v24H128V40z M288,160v40c0,13.2-10.8,24-24,24h-16c-13.2,0-24-10.8-24-24v-40H288z M225.8,144l12.8-64h34.9
		l12.8,64H225.8z M148.9,144l32-64h41.3l-12.8,64H148.9z M208,160v40c0,13.2-10.8,24-24,24h-16c-13.2,0-24-10.8-24-24v-40H208z
		 M123.8,80h39.2l-32,64H72.6L123.8,80z M104,224H88c-13.2,0-24-10.8-24-24v-40h64v40C128,213.2,117.2,224,104,224z M384,472
		c0,8.8-7.2,16-16,16H144c-8.8,0-16-7.2-16-16V232c3-2.3,5.7-5,8-8c7.5,10.1,19.4,16,32,16h16c12.6,0,24.5-5.9,32-16
		c7.5,10.1,19.4,16,32,16h16c12.6,0,24.5-5.9,32-16c7.5,10.1,19.4,16,32,16h16c12.6,0,24.4-5.9,32-16c2.3,3,5,5.7,8,8V472z M448,200
		c0,13.2-10.8,24-24,24h-16c-13.2,0-24-10.8-24-24v-40h64V200z"/>
	<path class="st1" d="M216,455h-64c-4.4,0-8,3.6-8,8s3.6,8,8,8h64c4.4,0,8-3.6,8-8S220.4,455,216,455z"/>
	<path class="st1" d="M248,455h-8c-4.4,0-8,3.6-8,8s3.6,8,8,8h8c4.4,0,8-3.6,8-8S252.4,455,248,455z"/>
	<g>
		<path class="st1" d="M304,376c4,0,7.4-3,7.9-7l8-64c0.5-4.4-2.6-8.4-6.9-8.9c-0.3,0-0.7-0.1-1-0.1h-96v-16c0-4.4-3.6-8-8-8h-24
			c-4.4,0-8,3.6-8,8s3.6,8,8,8h16v104c0,4.4,3.6,8,8,8h96c4.4,0,8-3.6,8-8s-3.6-8-8-8h-88v-8H304z M216,312h86.9l-6,48H216V312z"/>
		<circle class="st1" cx="224" cy="416" r="8"/>
		<circle class="st1" cx="288" cy="416" r="8"/>
	</g>
</g>
</svg>
