<?xml version="1.0"?>
<svg xmlns="http://www.w3.org/2000/svg" xmlns:xlink="http://www.w3.org/1999/xlink" xmlns:svgjs="http://svgjs.com/svgjs" version="1.1" width="512" height="512" x="0" y="0" viewBox="0 0 480 480" style="enable-background:new 0 0 512 512" xml:space="preserve" class=""><g><link type="text/css" id="dark-mode" rel="stylesheet"/><style type="text/css" id="dark-mode-custom-style"/>
<g xmlns="http://www.w3.org/2000/svg">
	<g>
		<path d="M335.584,245.472c-0.045-0.105-0.099-0.207-0.16-0.304c-0.126-0.296-0.273-0.582-0.44-0.856    c-0.282-0.576-0.637-1.114-1.056-1.6c-0.218-0.243-0.45-0.473-0.696-0.688c-0.486-0.424-1.023-0.784-1.6-1.072    c-0.257-0.155-0.524-0.291-0.8-0.408c-0.902-0.355-1.862-0.539-2.832-0.544H72c-0.971,0.015-1.932,0.21-2.832,0.576    c-0.276,0.117-0.543,0.253-0.8,0.408c-0.577,0.288-1.114,0.648-1.6,1.072c-0.246,0.215-0.478,0.445-0.696,0.688    c-0.419,0.486-0.774,1.024-1.056,1.6c-0.165,0.274-0.315,0.557-0.448,0.848c0,0.112-0.12,0.2-0.152,0.312    c-0.27,0.805-0.411,1.647-0.416,2.496v96H24c-4.418,0-8,3.582-8,8s3.582,8,8,8h40v64c0,4.418,3.582,8,8,8h256c4.418,0,8-3.582,8-8    V248C336.002,247.14,335.862,246.286,335.584,245.472z M304,256l-104,78L96,256H304z M320,416H80v-56h16c4.418,0,8-3.582,8-8    s-3.582-8-8-8H80v-80l115.2,86.4c2.844,2.133,6.756,2.133,9.6,0L320,264V416z" fill="#ffffff" data-original="#000000" style="" class=""/>
	</g>
</g>
<g xmlns="http://www.w3.org/2000/svg">
	<g>
		<path d="M480,136V88c-0.026-22.08-17.92-39.974-40-40H184c-22.08,0.026-39.974,17.92-40,40v48c0.026,22.08,17.92,39.974,40,40    h157.704l126.056,78.784c3.748,2.34,8.683,1.2,11.023-2.548c1.593-2.55,1.621-5.778,0.073-8.356L438.128,176H440    C462.08,175.974,479.974,158.08,480,136z M448,223.576L371.888,176h47.584L448,223.576z M184,160c-13.255,0-24-10.745-24-24V88    c0-13.255,10.745-24,24-24h256c13.255,0,24,10.745,24,24v48c0,13.255-10.745,24-24,24H184z" fill="#ffffff" data-original="#000000" style="" class=""/>
	</g>
</g>
<g xmlns="http://www.w3.org/2000/svg">
	<g>
		<rect x="184" y="120" width="16" height="16" fill="#ffffff" data-original="#000000" style="" class=""/>
	</g>
</g>
<g xmlns="http://www.w3.org/2000/svg">
	<g>
		<rect x="184" y="88" width="16" height="16" fill="#ffffff" data-original="#000000" style="" class=""/>
	</g>
</g>
<g xmlns="http://www.w3.org/2000/svg">
	<g>
		<rect x="216" y="88" width="32" height="16" fill="#ffffff" data-original="#000000" style="" class=""/>
	</g>
</g>
<g xmlns="http://www.w3.org/2000/svg">
	<g>
		<rect x="264" y="88" width="80" height="16" fill="#ffffff" data-original="#000000" style="" class=""/>
	</g>
</g>
<g xmlns="http://www.w3.org/2000/svg">
	<g>
		<rect x="360" y="88" width="88" height="16" fill="#ffffff" data-original="#000000" style="" class=""/>
	</g>
</g>
<g xmlns="http://www.w3.org/2000/svg">
	<g>
		<rect x="216" y="120" width="232" height="16" fill="#ffffff" data-original="#000000" style="" class=""/>
	</g>
</g>
<g xmlns="http://www.w3.org/2000/svg">
	<g>
		<path d="M48,312H8c-4.418,0-8,3.582-8,8s3.582,8,8,8h40c4.418,0,8-3.582,8-8S52.418,312,48,312z" fill="#ffffff" data-original="#000000" style="" class=""/>
	</g>
</g>
<g xmlns="http://www.w3.org/2000/svg">
</g>
<g xmlns="http://www.w3.org/2000/svg">
</g>
<g xmlns="http://www.w3.org/2000/svg">
</g>
<g xmlns="http://www.w3.org/2000/svg">
</g>
<g xmlns="http://www.w3.org/2000/svg">
</g>
<g xmlns="http://www.w3.org/2000/svg">
</g>
<g xmlns="http://www.w3.org/2000/svg">
</g>
<g xmlns="http://www.w3.org/2000/svg">
</g>
<g xmlns="http://www.w3.org/2000/svg">
</g>
<g xmlns="http://www.w3.org/2000/svg">
</g>
<g xmlns="http://www.w3.org/2000/svg">
</g>
<g xmlns="http://www.w3.org/2000/svg">
</g>
<g xmlns="http://www.w3.org/2000/svg">
</g>
<g xmlns="http://www.w3.org/2000/svg">
</g>
<g xmlns="http://www.w3.org/2000/svg">
</g>
</g></svg>
