<svg id="Layer_1" data-name="Layer 1" xmlns="http://www.w3.org/2000/svg" xmlns:xlink="http://www.w3.org/1999/xlink" viewBox="0 0 400 400"><defs><style>.cls-1{opacity:0.5;}.cls-1,.cls-24{isolation:isolate;}.cls-2{fill:#006838;}.cls-3{opacity:0.8;}.cls-4{fill:#403e56;}.cls-5{fill:#fff;}.cls-6{fill:#2e6431;}.cls-7{fill:url(#linear-gradient);}.cls-8{fill:url(#linear-gradient-2);}.cls-9{fill:url(#linear-gradient-3);}.cls-10{fill:url(#linear-gradient-4);}.cls-11{fill:url(#linear-gradient-5);}.cls-12{fill:url(#linear-gradient-6);}.cls-13,.cls-22{fill:#333954;}.cls-14{fill:#754937;}.cls-15,.cls-17{fill:#563327;}.cls-15{opacity:0.76;}.cls-16{fill:#232223;}.cls-18,.cls-19,.cls-28{fill:none;}.cls-18,.cls-19,.cls-22{stroke:#333954;}.cls-18,.cls-19{stroke-linecap:round;}.cls-18,.cls-19,.cls-22,.cls-28{stroke-miterlimit:10;}.cls-18{stroke-width:0.75px;}.cls-20{fill:#464f73;}.cls-21{fill:#27aae1;}.cls-23{fill:#56bb6c;}.cls-24{fill:#010101;opacity:0.1;}.cls-25{fill:#ffd139;}.cls-26{fill:#67627d;}.cls-27{fill:#9d9cb5;}.cls-28{stroke:#545562;stroke-width:2px;}.cls-29{fill:#6466af;}.cls-30{fill:#318540;}</style><linearGradient id="linear-gradient" x1="114.79" y1="139.79" x2="131.68" y2="139.79" gradientUnits="userSpaceOnUse"><stop offset="0" stop-color="#39b54a"/><stop offset="1" stop-color="#006838"/></linearGradient><linearGradient id="linear-gradient-2" x1="113.85" y1="106.21" x2="132.94" y2="106.21" xlink:href="#linear-gradient"/><linearGradient id="linear-gradient-3" x1="113.85" y1="108.45" x2="132.94" y2="108.45" xlink:href="#linear-gradient"/><linearGradient id="linear-gradient-4" x1="113.85" y1="110.7" x2="132.94" y2="110.7" xlink:href="#linear-gradient"/><linearGradient id="linear-gradient-5" x1="113.85" y1="112.95" x2="132.94" y2="112.95" xlink:href="#linear-gradient"/><linearGradient id="linear-gradient-6" x1="113.85" y1="115.19" x2="132.94" y2="115.19" xlink:href="#linear-gradient"/></defs><title>split pricing</title><g class="cls-1"><path class="cls-2" d="M347.56,253.78c-1.56.87-3.23,1.7-5,2.51-8.3,3.84-18.67,7.18-30.54,10.06l-2.23.53-.19,0c-1.41.33-2.85.66-4.29,1-13.07,2.85-27.68,5.19-43.17,7.05l-.88.1-.21,0c-20.68,2.45-42.89,4.07-65,4.91q-5.22.2-10.43.34l-1.76,0-1.54,0q-3.34.08-6.66.14l-2.5,0-1.9,0c-5.45.07-10.87.1-16.22.08-45.74-.14-86.63-3.51-107.19-9.31-59.43-16.73-46.33-57.93-8.73-66.31s-14.4-57,45.55-89.13c36.42-19.5,74.57,22.91,106.12-11,47.08-50.6,88.71-42.33,115-16.2,29.57,29.44,5.85,65.34,37.51,63.51C390.69,149.52,419,214,347.56,253.78Z"/></g><g class="cls-3"><ellipse class="cls-2" cx="196.35" cy="339.44" rx="146.33" ry="10.01"/></g><path class="cls-4" d="M315.64,75.84h-.27v-.47h.2a.13.13,0,0,0,.13-.13V72.84a.13.13,0,0,0-.13-.13h-.2V71.33a2.91,2.91,0,0,0-2.91-2.91h-.3v-.33A.13.13,0,0,0,312,68h-2.41a.13.13,0,0,0-.13.13h0v.33H266a2.91,2.91,0,0,0-2.91,2.91h0v62a2.91,2.91,0,0,0,2.91,2.91h46.45a2.91,2.91,0,0,0,2.91-2.91h0V78.52h.27a.13.13,0,0,0,.13-.13V76a.13.13,0,0,0-.13-.13Z"/><rect class="cls-5" x="265.5" y="70.33" width="47.87" height="63.51" rx="0.4" ry="0.4"/><rect class="cls-4" x="280.46" y="120.57" width="17.9" height="5.3" rx="0.91" ry="0.91"/><rect class="cls-6" x="274.01" y="82.51" width="28.07" height="1.04" rx="0.42" ry="0.42"/><rect class="cls-6" x="274.01" y="85.81" width="28.07" height="1.04" rx="0.42" ry="0.42"/><rect class="cls-6" x="274.01" y="89.11" width="28.07" height="1.04" rx="0.42" ry="0.42"/><rect class="cls-6" x="274.01" y="92.42" width="28.07" height="1.04" rx="0.42" ry="0.42"/><rect class="cls-6" x="274.01" y="95.72" width="28.07" height="1.04" rx="0.42" ry="0.42"/><path class="cls-4" d="M139.61,100.83h-.36V91a5.67,5.67,0,0,0-5.67-5.67H112.84A5.67,5.67,0,0,0,107.17,91h0v53.73a5.67,5.67,0,0,0,5.67,5.67h20.75a5.67,5.67,0,0,0,5.67-5.67h0v-37h.36Z"/><path class="cls-5" d="M138,91.37V145a4.23,4.23,0,0,1-4.23,4.23H113a4.23,4.23,0,0,1-4.23-4.23V91.37A4.23,4.23,0,0,1,113,87.13h2.53a2,2,0,0,0,1.86,2.77h11.89a2,2,0,0,0,1.86-2.77h2.71A4.23,4.23,0,0,1,138,91.37Z"/><rect class="cls-7" x="114.79" y="137.28" width="16.89" height="5.01" rx="1.26" ry="1.26"/><rect class="cls-8" x="113.85" y="105.85" width="19.09" height="0.71" rx="0.35" ry="0.35"/><rect class="cls-9" x="113.85" y="108.1" width="19.09" height="0.71" rx="0.35" ry="0.35"/><path class="cls-10" d="M114.2,110.35h18.38a.35.35,0,0,1,.35.35h0a.35.35,0,0,1-.35.35H114.2a.35.35,0,0,1-.35-.35h0A.35.35,0,0,1,114.2,110.35Z"/><path class="cls-11" d="M114.2,112.59h18.38a.35.35,0,0,1,.35.35h0a.35.35,0,0,1-.35.35H114.2a.35.35,0,0,1-.35-.35h0A.35.35,0,0,1,114.2,112.59Z"/><path class="cls-12" d="M114.2,114.84h18.38a.35.35,0,0,1,.35.35h0a.35.35,0,0,1-.35.35H114.2a.35.35,0,0,1-.35-.35h0A.35.35,0,0,1,114.2,114.84Z"/><path class="cls-13" d="M344.47,343.78h0s0,0,0,0Z"/><rect class="cls-14" x="195.8" y="139.87" width="12.16" height="24.17" transform="translate(-4.27 5.85) rotate(-1.64)"/><path class="cls-15" d="M207.61,139.7l.25,12.25c-3.21,3.41-8.41,3.43-11.95,1.39l-.43-12.26c.28-.37.56-.72.87-1.07Z"/><path class="cls-14" d="M190.71,118.12s-5.66,9.85,0,25.52c.39,1.07,1.9,6.79,7.79,6.73,4.1,0,10.88.91,13.77-3.89,3.66-6.09,6.27-22.65.78-27.21S190.71,118.12,190.71,118.12Z"/><path class="cls-14" d="M210.51,134.91s8.2-3.85,11.32,1.33-9.07,10.38-10.7,5.36S210.51,134.91,210.51,134.91Z"/><path class="cls-16" d="M191.58,125.57s1.49-4.88,3.82-2.74,3.75,2.64,12.18,1.08c9.68-1.8,5.32,12.43,5.32,12.43s3.12-3.51,5.81-2.47c0,0,2.16-15.52-3.64-17.65s-19.44-4-21.18-1S191.58,125.57,191.58,125.57Z"/><path class="cls-14" d="M193.25,133.71S185.07,129.86,182,135s9,10.38,10.67,5.36S193.25,133.71,193.25,133.71Z"/><path class="cls-17" d="M190.71,139.42s-2.62.57-2.93-1.21a1.29,1.29,0,0,1,1.14-1.7s-4.43-2.65-4.92,0S188.63,141.41,190.71,139.42Z"/><path class="cls-16" d="M213.2,125.07s-1.49-4.88-3.82-2.74-3.75,2.64-12.18,1.08c-9.68-1.8-5.32,12.43-5.32,12.43s-3.12-3.51-5.81-2.47c0,0-2.16-15.52,3.64-17.65s18.75-2.52,20.49.46S213.2,125.07,213.2,125.07Z"/><ellipse class="cls-13" cx="208.53" cy="132.58" rx="0.79" ry="1.67"/><ellipse class="cls-13" cx="195.91" cy="132.34" rx="0.79" ry="1.67"/><path class="cls-5" d="M197.27,140.66l8.44-.87s-3.37,11.1-8.2.84"/><path class="cls-17" d="M213.05,140.61s2.63.57,2.94-1.21a1.29,1.29,0,0,0-1.14-1.7s4.44-2.65,4.93,0S215.14,142.61,213.05,140.61Z"/><circle class="cls-18" cx="194.98" cy="132.58" r="5.23" transform="translate(-20.66 37.21) rotate(-10.36)"/><circle class="cls-18" cx="208.53" cy="132.22" r="5.34" transform="translate(-20.37 39.64) rotate(-10.36)"/><line class="cls-19" x1="200.13" y1="131.64" x2="203.21" y2="131.75"/><path class="cls-20" d="M206.68,230.78l6.1,98.14s13.57,12.42,37.84,4.11L225.74,229.88Z"/><path class="cls-20" d="M206.3,230.34l2,98.73s-20.7,12.26-45,4l24.89-103.14Z"/><path class="cls-13" d="M209.82,336H158.89c.33-2.1,1-6.37,2.41-8.16,4.43-5.65,8.78-4.18,8.78-4.18l38.22,5.38S209.92,335.93,209.82,336Z"/><path class="cls-13" d="M212,335.85h49.46a.61.61,0,0,0,.6-.74,20.73,20.73,0,0,0-3.12-7.07,14.15,14.15,0,0,0-3.62-3.14,11.46,11.46,0,0,0-7.72-1.47l-34.38,5.39a.61.61,0,0,0-.5.46c-.27,1.13-1,4.37-1.32,5.83A.61.61,0,0,0,212,335.85Z"/><path class="cls-21" d="M195.91,160.44s7.28,8,12.26-1.33l8.51.9a8.87,8.87,0,0,1,5.16,3.37c7.77,10.48,13.26,56.1,4.62,65.67-1.69,1.87-17.69,1.25-20.16,1.3-25.69.54-31.18,1.09-22.26-56l.29-9.37c3.87-3.89,6.47-2.27,8.47-4.05Z"/><path class="cls-22" d="M206.68,230.78c1.39,0,13.6,106.06,2.26,101.33"/><path class="cls-14" d="M262.86,150.77s9.76-16.51,13.12-16.55,1.1,6.68,1.1,6.68-6.12,4.37-.38-3.74c3.55-5,22.24-2,16.42,10.41-5.29,11.31-10.74,13.07-10.74,13.07Z"/><path class="cls-21" d="M218.09,161s22.89,7.2,44.59-16.31c1.51-1.64,3.24-3,5.46-2.94,0,0,10.76,8.41,20.33,12,2.83,1.05,2.46,3.71.25,5.37-11.53,8.64-46.19,26.38-72.5,16.13Z"/><path class="cls-14" d="M142,162.52s-13.22-13.89-16.5-13.17.43,6.76.43,6.76,6.95,2.88-.47-3.73c-4.58-4.08-22.13,3-13.65,13.83,7.7,9.83,13.4,10.32,13.4,10.32Z"/><path class="cls-21" d="M188,162.46s-20.68,12.16-47.11-5.87c-1.84-1.25-3.84-2.23-6-1.64,0,0-8.59,10.61-17.11,16.23-2.52,1.66-1.56,4.17,1,5.28,13.17,5.82,50.94,15.31,74.27-.59Z"/><path class="cls-23" d="M314.29,292s2.68,3.5-1.23,8.78-7.12,9.75-5.83,13c0,0,5.9-9.81,10.7-9.94S319.58,297.9,314.29,292Z"/><path class="cls-24" d="M314.29,292a4.31,4.31,0,0,1,.55,1.09c4.69,5.5,7.18,10.64,2.68,10.77-4.19.12-9.23,7.62-10.43,9.51a4.15,4.15,0,0,0,.14.43s5.9-9.81,10.7-9.94S319.58,297.9,314.29,292Z"/><path class="cls-25" d="M319.27,296.46c0,1.23-.14,2.23-.31,2.23s-.31-1-.31-2.23.17-.65.35-.65S319.27,295.22,319.27,296.46Z"/><path class="cls-25" d="M321,297.93c-1.08.59-2,.94-2.1.79s.73-.75,1.81-1.34.66-.16.75,0S322.05,297.35,321,297.93Z"/><path class="cls-23" d="M300.16,292s-2.68,3.5,1.23,8.78,7.12,9.75,5.83,13c0,0-5.9-9.81-10.7-9.94S294.87,297.9,300.16,292Z"/><path class="cls-24" d="M300.16,292a4.31,4.31,0,0,0-.55,1.09c-4.69,5.5-7.18,10.64-2.68,10.77,4.2.12,9.23,7.62,10.43,9.51a3.42,3.42,0,0,1-.14.43s-5.9-9.81-10.7-9.94S294.87,297.9,300.16,292Z"/><path class="cls-25" d="M295.19,296.46c0,1.23.14,2.23.31,2.23s.31-1,.31-2.23-.17-.65-.34-.65S295.19,295.22,295.19,296.46Z"/><path class="cls-25" d="M293.48,297.93c1.08.59,2,.94,2.11.79s-.73-.75-1.81-1.34-.66-.16-.75,0S292.4,297.35,293.48,297.93Z"/><path class="cls-26" d="M321.63,309.1l-.13,1.09-.19,1.54-.08.64-.19,1.54-.08.64-.19,1.54-2.14,17.55c-.19,1.57-2.75,2.79-5.84,2.79H301.67c-3.09,0-5.62-1.22-5.83-2.79l-2.14-17.56-.19-1.54-.08-.64-.19-1.54-.08-.64-.19-1.54-.13-1.09c-.1-.87,1.29-1.62,3-1.62H318.6C320.35,307.48,321.74,308.23,321.63,309.1Z"/><polygon class="cls-27" points="321.49 310.19 321.3 311.73 293.15 311.73 292.96 310.19 321.49 310.19"/><polygon class="cls-27" points="321.23 312.38 321.04 313.92 293.42 313.92 293.23 312.38 321.23 312.38"/><polygon class="cls-27" points="320.96 314.56 320.77 316.11 293.69 316.11 293.5 314.56 320.96 314.56"/><path class="cls-28" d="M306.58,309.38s11.17-19.79,28-25.49a34.44,34.44,0,0,0,17.44-13,58,58,0,0,0,5.15-9.26"/><path class="cls-29" d="M367.75,257.92c-1.92,1.86-10.85,3.78-10.85,3.78s2.19-8.86,4.11-10.73a4.84,4.84,0,0,1,6.74,6.94h0Z"/><path class="cls-29" d="M362.7,274c-2.62.52-11.16-2.72-11.16-2.72s6.66-6.25,9.28-6.77a4.84,4.84,0,1,1,2.09,9.45l-.21,0Z"/><path class="cls-29" d="M344.3,291.33c-2.52-.87-8.26-8-8.26-8s8.9-2,11.43-1.17a4.84,4.84,0,0,1-2.95,9.22Z"/><path class="cls-29" d="M327.43,301.33c-2.64-.43-9.49-6.47-9.49-6.47s8.43-3.51,11.07-3.08a4.84,4.84,0,1,1-1.57,9.55h0Z"/><path class="cls-29" d="M344.09,264.33c0,2.67,4.83,10.42,4.83,10.42s4.84-7.75,4.84-10.42a4.84,4.84,0,0,0-9.68,0Z"/><path class="cls-29" d="M324.51,276.27c.8,2.55,7.73,8.5,7.73,8.5s2.3-8.84,1.5-11.39a4.84,4.84,0,0,0-9.24,2.89Z"/><path class="cls-23" d="M367.75,257.92c-1.92,1.86-10.85,3.78-10.85,3.78s2.19-8.86,4.11-10.73a4.84,4.84,0,0,1,6.74,6.94h0Z"/><path class="cls-23" d="M362.7,274c-2.62.52-11.16-2.72-11.16-2.72s6.66-6.25,9.28-6.77a4.84,4.84,0,1,1,2.09,9.45l-.21,0Z"/><path class="cls-23" d="M344.3,291.33c-2.52-.87-8.26-8-8.26-8s8.9-2,11.43-1.17a4.84,4.84,0,0,1-2.95,9.22Z"/><path class="cls-23" d="M327.43,301.33c-2.64-.43-9.49-6.47-9.49-6.47s8.43-3.51,11.07-3.08a4.84,4.84,0,1,1-1.57,9.55h0Z"/><path class="cls-23" d="M344.09,264.33c0,2.67,4.83,10.42,4.83,10.42s4.84-7.75,4.84-10.42a4.84,4.84,0,0,0-9.68,0Z"/><path class="cls-23" d="M324.51,276.27c.8,2.55,7.73,8.5,7.73,8.5s2.3-8.84,1.5-11.39a4.84,4.84,0,0,0-9.24,2.89Z"/><path class="cls-28" d="M307.23,309s2.19-22.62,15.26-34.65a34.45,34.45,0,0,0,10.66-19,58,58,0,0,0,1-10.55"/><path class="cls-30" d="M342.29,237.16c-1,2.48-8.38,7.84-8.38,7.84s-1.59-9-.59-11.48a4.84,4.84,0,0,1,9,3.62Z"/><path class="cls-30" d="M344.18,253.87c-2.18,1.54-11.3,2-11.3,2s3.55-8.4,5.74-10a4.84,4.84,0,0,1,5.57,7.91Z"/><path class="cls-30" d="M334.4,277.2c-2.66.22-10.79-3.95-10.79-3.95s7.31-5.47,10-5.69a4.84,4.84,0,0,1,.81,9.64Z"/><path class="cls-23" d="M323,293.18c-2.59.67-11.3-2.07-11.3-2.07s6.29-6.63,8.87-7.3a4.84,4.84,0,0,1,2.43,9.37Z"/><path class="cls-30" d="M323.26,252.6c1.08,2.44,8.64,7.56,8.64,7.56s1.29-9,.2-11.48a4.84,4.84,0,0,0-8.85,3.92h0Z"/></svg>