<svg id="Capa_1" enable-background="new 0 0 512 512" height="512" viewBox="0 0 512 512" width="512" xmlns="http://www.w3.org/2000/svg"><g><g><g><path d="m318.502 185.23c-.114 0-.227-.003-.341-.007-4.262-.185-7.567-3.791-7.383-8.054l4.148-95.574c.166-3.814-2.799-7.052-6.608-7.218l-17.179-.76c-4.262-.189-7.565-3.797-7.376-8.06.189-4.264 3.812-7.553 8.058-7.378l17.173.759c12.314.536 21.902 11 21.367 23.326l-4.148 95.574c-.179 4.149-3.599 7.392-7.711 7.392z" fill="#b5c4cf"/></g></g><g><g><path clip-rule="evenodd" d="m361.078 146.814-33.849 110.554h6.22 34.96 2.862l30.083-98.232-17.933-11.797z" fill="#fdb440" fill-rule="evenodd"/></g></g><g><g><path clip-rule="evenodd" d="m375.506 57.138c-12.383 10.804-25.001 32.939-9.901 59.57l19.714 17.521 29.119-2.57c.029 0 .029 0 .058.029 34.025-13.549 50.41-96.947-9.638-121.213-7.067-2.862 4.732 16.849-29.352 46.663z" fill="#fcd79b" fill-rule="evenodd"/></g></g><g><g><path clip-rule="evenodd" d="m365.605 116.707c-3.534-1.08-7.302.934-8.382 4.439l-4.877 15.973c-1.081 3.504.905 7.3 4.439 8.381l4.293 1.314 40.275 12.323 4.293 1.314c3.505 1.08 7.302-.934 8.382-4.468l4.877-15.944c1.081-3.504-.905-7.271-4.41-8.351-.029-.029-.029-.029-.058-.029z" fill="#01d0fb" fill-rule="evenodd"/></g></g><g><g><path clip-rule="evenodd" d="m361.078 146.814-3.884 12.615 19.422 5.928c3.388 1.051 5.52 2.102 4.352 5.899l-26.373 86.113h13.815 2.862l30.082-98.232z" fill="#fe9900" fill-rule="evenodd"/></g></g><g><g><path clip-rule="evenodd" d="m397.002 126.315c2.862.905 4.702 3.592 4.702 6.483-.029.613-.117 1.256-.292 1.898l-1.285 4.176-3.622 11.768c-.467 1.518-1.402 2.745-2.629 3.563-1.636 1.11-3.738 1.489-5.754.876l13.23 4.059 4.293 1.314c3.505 1.08 7.302-.934 8.382-4.468l4.877-15.944c1.081-3.504-.905-7.271-4.41-8.351-.029-.029-.029-.029-.058-.029z" fill="#08a9f1" fill-rule="evenodd"/></g></g><g><g><path clip-rule="evenodd" d="m401.033 18.417c39.37 28.588 28.213 90.902 1.723 109.679l11.682 3.563c.029 0 .029 0 .058.029 34.025-13.549 50.41-96.947-9.638-121.213-3.066-1.227-2.599 1.752-3.825 7.942z" fill="#fbc56c" fill-rule="evenodd"/></g></g><g><g><path clip-rule="evenodd" d="m201.149 189.412h105.105v62.356h-105.105z" fill="#edf3f4" fill-rule="evenodd" transform="matrix(.043 -.999 .999 .043 22.322 464.491)"/></g></g><g><g><path clip-rule="evenodd" d="m283.39 49.253 1.11-26.076c.555-12.206-8.996-22.601-21.204-23.156-12.208-.526-22.606 9.023-23.131 21.229l-1.139 26.076c.029 0 21.729 7.329 21.788 7.329z" fill="#edf3f4" fill-rule="evenodd"/></g></g><g><g><path clip-rule="evenodd" d="m286.807 176.978 4.819-111.051.467-10.542c.204-4.964-3.622-9.198-8.557-9.52h-.175l-44.043-1.927c-.058 0-.117 0-.146 0-4.965-.117-9.171 3.767-9.375 8.731l-5.286 121.593z" fill="#b5c4cf" fill-rule="evenodd"/></g></g><g><g><path clip-rule="evenodd" d="m282.952 265.311 3.855-88.333-20.561-.876-3.855 88.304z" fill="#d7e7ec" fill-rule="evenodd"/></g></g><g><g><path clip-rule="evenodd" d="m287.128 169.444 4.498-103.517.467-10.542c.204-4.964-3.622-9.198-8.557-9.52h-.175l-20.415-.876c3.592.204 6.601 2.511 7.915 5.636.467 1.197.73 2.511.672 3.854l-.467 10.542-4.498 103.517-.321 7.563 20.561.876z" fill="#9aafb7" fill-rule="evenodd"/></g></g><g><g><path clip-rule="evenodd" d="m284.5 23.177c.555-12.206-8.996-22.601-21.204-23.156-3.709-.146-7.243.613-10.397 2.102 6.893 4.03 11.42 11.651 11.04 20.149l-.993 22.718 20.415.876h.175z" fill="#d7e7ec" fill-rule="evenodd"/></g></g><g><g><path clip-rule="evenodd" d="m220.772 262.332 18.4-102.495-52.367-9.402-20.064 111.897z" fill="#fdb440" fill-rule="evenodd"/></g></g><g><g><path clip-rule="evenodd" d="m243.845 133.819 7.068-39.421c1.139-6.395-3.154-12.556-9.55-13.695l-29.119-5.227c-6.396-1.139-12.559 3.154-13.698 9.549l-7.068 39.392z" fill="#fe636e" fill-rule="evenodd"/></g></g><g><g><path clip-rule="evenodd" d="m221.677 257.368 16.064-89.588-14.954-2.687-16.56 92.275z" fill="#fe9900" fill-rule="evenodd"/></g></g><g><g><path clip-rule="evenodd" d="m194.947 116.62h40.348v53.204h-40.348z" fill="#edf3f4" fill-rule="evenodd" transform="matrix(.177 -.984 .984 .177 36.155 329.664)"/></g></g><g><g><path clip-rule="evenodd" d="m175.271 265.745h-85.138l-3.718-34.913-1.638-15.37-3.275-30.71-1.638-15.37-3.275-30.71-1.638-15.37-3.275-30.71-1.638-15.37-3.008-28.206c-.319-3.029 1.895-5.779 4.934-6.099l73.138-7.798c3.038-.319 5.778 1.895 6.097 4.934 7.746 72.453 16.357 153.281 24.072 225.692z" fill="#edf3f4" fill-rule="evenodd"/></g></g><g><g><path clip-rule="evenodd" d="m151.203 40.055c-.321-3.037-3.067-5.256-6.104-4.935l-25.818 2.745c3.037-.321 5.812 1.898 6.133 4.935l22.868 214.568h26.081c-7.71-72.447-15.421-144.865-23.16-217.313z" fill="#d7e7ec" fill-rule="evenodd"/></g></g><g><g><path clip-rule="evenodd" d="m385.553 458.738 8.791-95.225-140.073-14.688-153.128 14.688 8.791 95.225 137.27 19.331z" fill="#01d0fb" fill-rule="evenodd"/></g></g><g><g><path clip-rule="evenodd" d="m394.344 363.513 5.929-64.242-142.263-13.52-162.795 13.52 5.928 64.242z" fill="#fcd79b" fill-rule="evenodd"/></g></g><g><g><path clip-rule="evenodd" d="m358.596 352.096-1.051 11.418h36.8l5.929-64.242h-305.059l2.979 32.121h187.971 58.734c14.661-.001 14.894 7.709 13.697 20.703z" fill="#fbc56c" fill-rule="evenodd"/></g></g><g><g><path clip-rule="evenodd" d="m403.223 299.271c11.507 0 20.941-9.432 20.941-20.966v-15.009c0-3.271-2.658-5.928-5.929-5.928h-26.023-58.763-48.862-60.632-37.588-85.165-23.949c-3.271 0-5.929 2.657-5.929 5.928v15.009c0 11.534 9.434 20.966 20.97 20.966h2.921 230.729 58.734 15.596z" fill="#01d0fb" fill-rule="evenodd"/></g></g><g><g><path clip-rule="evenodd" d="m424.164 278.305v-15.009c0-3.271-2.658-5.928-5.929-5.928h-26.023-16.794-7.009c3.096 0 5.637 2.365 5.929 5.402v.526 15.009c0 11.534-9.434 20.966-20.941 20.966h31.28 15.596 2.95c11.507 0 20.941-9.431 20.941-20.966z" fill="#08a9f1" fill-rule="evenodd"/></g></g><g><g><path clip-rule="evenodd" d="m371.534 512c5.52 0 9.55-4.555 10.047-10.045l3.972-43.217h-275.619l3.972 43.217c.526 5.49 4.527 10.045 10.047 10.045z" fill="#fcd79b" fill-rule="evenodd"/></g></g><g><g><path clip-rule="evenodd" d="m348.753 458.738-2.95 32.121-1.956 21.141h27.687c5.52 0 9.55-4.555 10.047-10.045l3.972-43.217z" fill="#fbc56c" fill-rule="evenodd"/></g></g><g><g><path clip-rule="evenodd" d="m354.565 395.664-5.812 63.074h36.8l8.791-95.225h-36.799z" fill="#08a9f1" fill-rule="evenodd"/></g></g><g><g><path clip-rule="evenodd" d="m178.306 353.235h138.875c4.089 0 7.448 3.329 7.448 7.417v42.867c0 4.088-3.359 7.417-7.448 7.417h-138.875c-4.089 0-7.418-3.329-7.418-7.417v-42.867c0-4.088 3.329-7.417 7.418-7.417z" fill="#edf3f4" fill-rule="evenodd"/></g></g><g><g><path clip-rule="evenodd" d="m317.182 353.235h-25.585c4.089 0 7.448 3.329 7.448 7.417v.38 42.487c0 4.088-3.359 7.417-7.448 7.417h25.585c4.089 0 7.448-3.329 7.448-7.417v-42.487-.38c-.001-4.088-3.36-7.417-7.448-7.417z" fill="#d7e7ec" fill-rule="evenodd"/></g></g><g><g><path clip-rule="evenodd" d="m244.867 128.067 6.046-33.669c1.139-6.395-3.154-12.556-9.55-13.695l-14.954-2.687c6.396 1.139 10.689 7.3 9.521 13.695l-6.016 33.669z" fill="#fb2a39" fill-rule="evenodd"/></g></g><g><g><path clip-rule="evenodd" d="m239.172 159.837 4.673-26.018 1.022-5.752-14.954-2.687-1.051 5.753-4.644 26.018-1.431 7.942 14.954 2.687z" fill="#d7e7ec" fill-rule="evenodd"/></g></g><g><g><path d="m93.285 90.285-21.609 2.308-1.638-15.37 21.609-2.308c4.233-.453 8.054 2.627 8.508 6.861.453 4.244-2.627 8.056-6.87 8.509z" fill="#9aafb7"/></g></g><g><g><path d="m98.198 136.365-21.609 2.308-1.638-15.37 21.609-2.308c4.243-.443 8.044 2.627 8.497 6.861.453 4.244-2.616 8.056-6.859 8.509z" fill="#9aafb7"/></g></g><g><g><path d="m108.034 228.525-21.619 2.308-1.638-15.37 21.619-2.308c4.243-.443 8.054 2.617 8.508 6.861.443 4.244-2.627 8.056-6.87 8.509z" fill="#9aafb7"/></g></g><g><g><path d="m103.1 182.445-21.599 2.308-1.638-15.37 21.599-2.308c4.243-.443 8.044 2.617 8.497 6.861.454 4.244-2.615 8.056-6.859 8.509z" fill="#9aafb7"/></g></g></g></svg>