<?xml version="1.0" encoding="utf-8"?>
<!-- Generator: Adobe Illustrator 21.1.0, SVG Export Plug-In . SVG Version: 6.00 Build 0)  -->
<svg version="1.1" id="Layer_1" xmlns="http://www.w3.org/2000/svg" xmlns:xlink="http://www.w3.org/1999/xlink" x="0px" y="0px"
	 viewBox="0 0 464 464" style="enable-background:new 0 0 464 464;" xml:space="preserve">
<style type="text/css">
	.st0{opacity:0.11;fill:#35033F;}
	.st1{fill:#E8BFEF;}
	.st2{fill:#6B137A;}
	.st3{fill:#BB6ACE;}
	.st4{fill:#FFFFFF;}
	.st5{fill:#A1A59A;}
	.st6{opacity:0.96;fill:#C6C5CA;}
	.st7{opacity:0.43;fill:#57565C;}
</style>
<g>
	<circle class="st0" cx="232.8" cy="234.1" r="226.1"/>
	<g>
		<path class="st1" d="M170,114.5v246.3h124.7c17.4,0,31.6-14.1,31.6-31.6V114.5c0-2.8-2.3-5.1-5.1-5.1H175
			C172.2,109.5,170,111.7,170,114.5z"/>
		<path class="st2" d="M326.2,114.5v214.7c0,17.4-14.1,31.6-31.6,31.6h-14.5c17.4,0,31.6-14.1,31.6-31.6V114.5
			c0-2.8-2.3-5.1-5.1-5.1h14.5C323.9,109.5,326.2,111.7,326.2,114.5z"/>
		<path class="st3" d="M256,316.4c2.8,0,5.1,2.3,5.1,5.1v7.8c0,17.4,14.1,31.6,31.6,31.6H136.4c-17.4,0-31.6-14.1-31.6-31.6v-7.8
			c0-2.8,2.3-5.1,5.1-5.1H256z"/>
		<path class="st4" d="M213.6,194.8c0,5.1-4.1,9.2-9.2,9.2s-9.2-4.1-9.2-9.2c0-5.1,4.1-9.2,9.2-9.2S213.6,189.7,213.6,194.8z"/>
		<g>
			<path class="st2" d="M247.4,199.4h-18.6c-2.1,0-3.8-1.7-3.8-3.8c0-2.1,1.7-3.8,3.8-3.8h18.6c2.1,0,3.8,1.7,3.8,3.8
				C251.2,197.7,249.5,199.4,247.4,199.4z"/>
			<path class="st2" d="M293.6,208.5h-64.8c-2.1,0-3.8-1.7-3.8-3.8c0-2.1,1.7-3.8,3.8-3.8h64.8c2.1,0,3.8,1.7,3.8,3.8
				C297.4,206.8,295.7,208.5,293.6,208.5z"/>
			<path class="st2" d="M228.8,188.7c-2.1,0-3.8-1.7-3.8-3.8c0-2.1,1.7-3.8,3.7-3.8h0h0c2.1,0,3.8,1.7,3.8,3.8
				C232.6,187,230.9,188.7,228.8,188.7C228.8,188.7,228.8,188.7,228.8,188.7z"/>
		</g>
		<path class="st4" d="M213.6,234.9c0,5.1-4.1,9.2-9.2,9.2s-9.2-4.1-9.2-9.2c0-5.1,4.1-9.2,9.2-9.2S213.6,229.8,213.6,234.9z"/>
		<path class="st2" d="M247.4,239.5h-18.6c-2.1,0-3.8-1.7-3.8-3.8c0-2.1,1.7-3.8,3.8-3.8h18.6c2.1,0,3.8,1.7,3.8,3.8
			C251.2,237.8,249.5,239.5,247.4,239.5z"/>
		<path class="st2" d="M293.6,248.6h-64.8c-2.1,0-3.8-1.7-3.8-3.8c0-2.1,1.7-3.8,3.8-3.8h64.8c2.1,0,3.8,1.7,3.8,3.8
			C297.4,246.9,295.7,248.6,293.6,248.6z"/>
		<path class="st2" d="M228.8,228.8c-2.1,0-3.8-1.7-3.8-3.8c0-2.1,1.7-3.8,3.7-3.8h0h0c2.1,0,3.8,1.7,3.8,3.8
			C232.6,227,230.9,228.8,228.8,228.8C228.8,228.8,228.8,228.8,228.8,228.8z"/>
		<path class="st4" d="M213.6,274.9c0,5.1-4.1,9.2-9.2,9.2s-9.2-4.1-9.2-9.2s4.1-9.2,9.2-9.2S213.6,269.9,213.6,274.9z"/>
		<path class="st2" d="M247.4,279.5h-18.6c-2.1,0-3.8-1.7-3.8-3.8c0-2.1,1.7-3.8,3.8-3.8h18.6c2.1,0,3.8,1.7,3.8,3.8
			C251.2,277.8,249.5,279.5,247.4,279.5z"/>
		<path class="st2" d="M293.6,288.6h-64.8c-2.1,0-3.8-1.7-3.8-3.8c0-2.1,1.7-3.8,3.8-3.8h64.8c2.1,0,3.8,1.7,3.8,3.8
			C297.4,286.9,295.7,288.6,293.6,288.6z"/>
		<path class="st2" d="M228.8,268.8c-2.1,0-3.8-1.7-3.8-3.8c0-2.1,1.7-3.8,3.7-3.8h0h0c2.1,0,3.8,1.7,3.8,3.8
			C232.6,267.1,230.9,268.8,228.8,268.8C228.8,268.8,228.8,268.8,228.8,268.8z"/>
		<path class="st4" d="M294.2,155.4h-92.3c-2.8,0-5.1-2.3-5.1-5.1v-11.9c0-2.8,2.3-5.1,5.1-5.1h92.3c2.8,0,5.1,2.3,5.1,5.1v11.9
			C299.3,153.1,297,155.4,294.2,155.4z"/>
		<path class="st5" d="M170,250.7l16.3,8.1c1.8,0.9,3.8-0.9,3.1-2.8l-6.3-17.1L170,250.7z"/>
		<path class="st6" d="M166.5,249.7l-65.4-72.8c-1.4-1.5-1.3-3.9,0.3-5.3l10.4-9.3c1.5-1.4,3.9-1.3,5.3,0.3l65.4,72.8
			c1.4,1.5,1.3,3.9-0.3,5.3l-10.4,9.3C170.2,251.3,167.8,251.2,166.5,249.7z"/>
		<path class="st7" d="M166.5,249.7l-65.4-72.8c-1.4-1.5-1.3-3.9,0.3-5.3l5.2-4.7l70.3,78.3l-5.2,4.7
			C170.2,251.3,167.8,251.2,166.5,249.7z"/>
		<path class="st5" d="M108.2,184.8l-7.1-7.9c-1.4-1.5-1.3-3.9,0.3-5.3l10.4-9.3c1.5-1.4,3.9-1.3,5.3,0.3l7.1,7.9L108.2,184.8z"/>
	</g>
</g>
</svg>
