<svg id="Layer_1" data-name="Layer 1" xmlns="http://www.w3.org/2000/svg" xmlns:xlink="http://www.w3.org/1999/xlink" viewBox="0 0 926.94 963.79"><defs><style>.cls-1{fill:url(#linear-gradient);}.cls-2{opacity:0.1;}.cls-3{fill:#030303;}.cls-4{fill:#c8f29c;}.cls-5{fill:#010101;}.cls-6{fill:#fff;}</style><linearGradient id="linear-gradient" x1="192.76" y1="384.1" x2="884.43" y2="384.1" gradientUnits="userSpaceOnUse"><stop offset="0" stop-color="#8dc63f"/><stop offset="0.22" stop-color="#6dbb40"/><stop offset="1" stop-color="#009444"/></linearGradient></defs><title>supermarket</title><polygon class="cls-1" points="816.39 598.12 884.42 269.3 192.76 170.08 297.64 598.12 816.39 598.12"/><g class="cls-2"><polygon class="cls-3" points="884.42 269.3 870.25 337.33 209.77 240.95 192.76 170.08 884.42 269.3"/></g><circle class="cls-4" cx="810.72" cy="870.25" r="65.2"/><circle class="cls-4" cx="362.84" cy="870.25" r="65.2"/><path class="cls-5" d="M847.92,660.69H329.17c-14.17,0-25.51-8.5-28.35-22.68L195.94,210c-2.83-8.5,0-19.84,5.67-25.51s17-11.34,25.51-8.5l691.66,99.21c8.5,0,14.17,5.67,19.84,11.34s5.67,14.17,5.67,22.68L876.27,638C873.43,652.19,859.26,660.69,847.92,660.69ZM351.85,604H825.24l56.69-275-620.8-90.71Z" transform="translate(-31.53 -34.22)"/><path class="cls-5" d="M329.17,660.69c-11.34,0-25.51-8.5-28.35-22.68L167.59,90.92H59.87c-17,0-28.35-11.34-28.35-28.35S42.87,34.22,59.87,34.22h130.4c14.17,0,25.51,8.5,28.35,22.68l138.9,569.77c2.83,14.17-5.67,31.18-19.84,34Z" transform="translate(-31.53 -34.22)"/><path class="cls-5" d="M864.93,799.59H315c-17,0-28.35-11.34-28.35-28.35S298,742.89,315,742.89H862.09c22.68,0,39.69-17,39.69-39.69s-17-39.69-39.69-39.69h-17c-17,0-28.35-11.34-28.35-28.35s11.34-28.35,28.35-28.35h17c53.86,0,96.38,42.52,96.38,96.38S918.79,799.59,864.93,799.59Z" transform="translate(-31.53 -34.22)"/><path class="cls-5" d="M842.25,998c-51,0-93.54-42.52-93.54-93.54s42.52-93.54,93.54-93.54,93.54,42.52,93.54,93.54S896.11,998,842.25,998Zm0-130.4c-19.84,0-36.85,17-36.85,36.85s17,36.85,36.85,36.85,36.85-17,36.85-36.85S864.93,867.62,842.25,867.62Z" transform="translate(-31.53 -34.22)"/><path class="cls-5" d="M394.37,998c-51,0-93.54-42.52-93.54-93.54s42.52-93.54,93.54-93.54,93.54,42.52,93.54,93.54S445.39,998,394.37,998Zm0-130.4c-19.84,0-36.85,17-36.85,36.85s17,36.85,36.85,36.85,36.85-17,36.85-36.85S414.21,867.62,394.37,867.62Z" transform="translate(-31.53 -34.22)"/><path class="cls-6" d="M692,544.47h-2.83c-14.17-2.83-25.51-17-25.51-31.18l17-133.23c2.83-14.17,17-25.51,31.18-25.51,14.17,2.83,25.51,17,25.51,31.18L720.36,519C717.52,533.13,703.35,544.47,692,544.47Z" transform="translate(-31.53 -34.22)"/><path class="cls-6" d="M570.12,544.47c-17,0-28.35-11.34-28.35-28.35V382.89c0-17,11.34-28.35,28.35-28.35s28.35,11.34,28.35,28.35V516.12C598.47,533.13,587.13,544.47,570.12,544.47Z" transform="translate(-31.53 -34.22)"/><path class="cls-6" d="M451.06,544.47c-14.17,0-25.51-11.34-28.35-25.51l-17-133.23c-2.83-14.17,8.5-31.18,25.51-31.18,14.17-2.83,31.18,8.5,31.18,25.51l17,133.23c2.83,14.17-8.5,31.18-25.51,31.18Z" transform="translate(-31.53 -34.22)"/></svg>