<?xml version="1.0"?>
<svg xmlns="http://www.w3.org/2000/svg" xmlns:xlink="http://www.w3.org/1999/xlink" xmlns:svgjs="http://svgjs.com/svgjs" version="1.1" width="512" height="512" x="0" y="0" viewBox="0 0 512.002 512.002" style="enable-background:new 0 0 512 512" xml:space="preserve" class=""><circle r="256.001" cx="256.001" cy="256.001" fill="#e2f9f5" shape="circle"/><g transform="matrix(0.65,0,0,0.65,89.60016297101973,89.60035381317135)"><link type="text/css" id="black-mode" rel="stylesheet"/><style type="text/css" id="black-mode-custom-style"/><g xmlns="http://www.w3.org/2000/svg"><path clip-rule="evenodd" d="m416.861 400.999v-185.504c-22.788 16.513-55.567-.368-55.431-28.652 0 19.329-15.814 35.143-35.143 35.143-19.314 0-35.118-15.79-35.143-35.099-.024 19.309-15.828 35.099-35.142 35.099-19.329 0-35.143-15.814-35.143-35.143 0 19.329-15.814 35.143-35.143 35.143s-35.143-15.814-35.143-35.143c.132 28.295-32.65 45.159-55.431 28.652v185.504z" fill="#4faef3" fill-rule="evenodd" data-original="#b2f0fb" style="" class=""/><g fill="#020288"><path d="m512.001 186.843v-35.143c0-1.557-.363-3.092-1.062-4.484l-44.938-89.584v-27.632c0-16.542-13.458-30-30-30h-360c-16.542 0-30 13.458-30 30v27.632l-44.939 89.584c-.698 1.392-1.062 2.927-1.062 4.484v35.143c0 21.456 15.047 39.464 35.143 44.026v211.133h-5.142c-16.542 0-30 13.458-30 30v30c0 5.523 4.477 10 10 10h492c5.522 0 10-4.477 10-10v-30c0-16.542-13.458-30-30-30h-5.143v-211.133c20.096-4.562 35.143-22.569 35.143-44.026zm-45.142 25.143c-13.855 0-25.134-11.272-25.143-25.126 0-.025-.001-.049-.001-.074v-25.086h50.286v25.143c0 13.864-11.279 25.143-25.142 25.143zm-404.687-141.986h36.804l-25.726 71.7h-47.045zm387.658 0 35.967 71.7h-47.046l-25.726-71.7zm-58.052 0 25.725 71.7h-47.997l-15.435-71.7zm-58.166 0 15.436 71.7h-48.596l-5.145-71.7zm-58.357 0 5.145 71.7h-48.798l5.145-71.7zm-63.704 71.7h-48.596l15.435-71.7h38.306zm-69.054 0h-47.998l25.726-71.7h37.707zm-52.21 20h50.286v25.143c-1.385 33.364-48.913 33.338-50.286 0zm70.286 0h50.286v25.143c-1.385 33.364-48.913 33.338-50.286 0zm70.286 0h50.284v25.143c0 .02.001.04.001.06-1.462 33.319-48.916 33.243-50.285-.06zm70.284 0h50.286v25.143c0 .017.001.034.001.051-1.445 33.309-48.873 33.264-50.286-.02 0-.023-.001-.047-.001-.07zm70.286 0h50.286v25.143c0 .018.001.037.001.055-1.464 33.37-49.006 33.229-50.287-.132zm-305.428-131.7c0-5.514 4.486-10 10-10h360c5.514 0 10 4.486 10 10v20h-380zm-46.001 156.843v-25.143h50.286v25.143c-1.385 33.364-48.913 33.338-50.286 0zm472.001 285.158v20h-472v-20c0-5.514 4.486-10 10-10h452c5.514.001 10 4.487 10 10zm-436.858-29.999v-211.132c10.067-2.285 18.867-7.945 25.144-15.722 17.495 22.321 52.799 22.312 70.286 0 17.495 22.321 52.799 22.312 70.286 0 17.499 22.323 52.794 22.312 70.285-.007 17.502 22.328 52.795 22.321 70.286.007 17.498 22.323 52.795 22.312 70.286-.004 6.276 7.778 15.077 13.439 25.143 15.725v211.132h-401.716z" fill="#028e08" data-original="#020288" style="" class=""/><path d="m316.349 266.468h-16.94c-4.526 0-8.488 3.04-9.659 7.412l-16.784 62.638h-57.318l-6.961-25.977h46.841c13.268-.529 13.258-19.476 0-20h-59.873c-3.109 0-6.041 1.446-7.934 3.913-1.893 2.466-2.53 5.673-1.726 8.676l12.32 45.977c1.171 4.372 5.133 7.412 9.659 7.412h72.665c4.526 0 8.487-3.04 9.659-7.412l16.784-62.638h9.268c13.267-.53 13.257-19.478-.001-20.001z" fill="#028e08" data-original="#020288" style="" class=""/></g></g></g></svg>
