<?xml version="1.0" encoding="utf-8"?>
<!-- Generator: Adobe Illustrator 21.1.0, SVG Export Plug-In . SVG Version: 6.00 Build 0)  -->
<svg version="1.1" id="Layer_1" xmlns="http://www.w3.org/2000/svg" xmlns:xlink="http://www.w3.org/1999/xlink" x="0px" y="0px"
	 viewBox="0 0 464 464" style="enable-background:new 0 0 464 464;" xml:space="preserve">
<style type="text/css">
	.st0{opacity:0.11;fill:#848032;}
	.st1{fill:#894619;}
	.st2{fill:#1C1C1C;}
	.st3{fill:#9B5826;}
	.st4{fill:#D5D6DB;}
	.st5{fill:#E56353;}
	.st6{fill:#E1E6E9;}
	.st7{fill:#3E3D42;}
	.st8{fill:#57565C;}
	.st9{opacity:0.5;}
	.st10{fill:#894313;}
</style>
<g>
	<circle class="st0" cx="232.6" cy="234.9" r="224.9"/>
	<g>
		<g>
			<path class="st1" d="M232.6,281.5L232.6,281.5L232.6,281.5L232.6,281.5l0.1,0l0,0h0l0,0v0l27.9-18.6l0,0v-14
				c-2.1,1.5-4.1,3-6,4.7c-12.2,11.1-24.2,9.2-24.2,9.2c-7.3,0.2-17.7-7.3-22.2-10.8c-1.1-0.9-2.3-1.7-3.5-2.5v13.5l0,0L232.6,281.5
				z"/>
			<polygon class="st1" points="232.6,281.5 232.6,281.5 232.6,281.5 232.6,281.5 223.6,293.8 223.6,293.8 			"/>
		</g>
		<path class="st2" d="M203,160.1h17.4c1.6,0,3.2-0.2,4.7-0.7c3.1-1,8.1-2.9,11.9-4.3c3.4-1.3,7.1-1.3,10.5-0.1l18.3,6.4
			c12.3,4.5,13.5,16.1,13.5,16.1V210c0,0,1.6-10.9,7.2-19.8c1.4-2.2,2.1-4.7,2.1-7.2v-28.1c0,0-1.8-13.8-15.3-17.1
			c0,0,5.5-11.8-8.8-14.5h-52.7l0,0c-19.3,0-34.9,15.6-34.9,34.9v20.7c0,4.5,1.5,8.8,4.3,12.3c2.2,2.7,4.5,7.1,4.9,13.3v-27.4
			C189.5,161.9,203,160.1,203,160.1z"/>
		<path class="st3" d="M230.3,262.7c0,0,12,1.9,24.2-9.2c1.9-1.7,3.9-3.3,6-4.7c0.2-0.1,0.4-0.3,0.6-0.4c5.4-3.6,15.8-13.7,18-38.3
			v-32.6c0,0-1.3-11.5-13.5-16.1l-18.3-6.4c-3.4-1.2-7.1-1.2-10.5,0.1c-3.8,1.4-8.8,3.3-11.9,4.3c-1.5,0.5-3.1,0.7-4.7,0.7H203
			c0,0-13.5,1.8-16.9,16.9v27.4v6.3c0,0,0.6,26.7,18.2,38.3c0.1,0.1,0.2,0.2,0.4,0.3c1.2,0.8,2.4,1.7,3.5,2.5
			C212.6,255.4,223,262.9,230.3,262.7z"/>
		<g>
			<polygon class="st4" points="242.2,294.6 237.3,301.5 241.8,329.8 253.1,309.4 			"/>
			<polygon class="st4" points="223.5,329.9 228,301.5 223.1,294.5 212.2,309.4 			"/>
			<polygon class="st4" points="223.6,293.8 223.2,294.4 232.6,281.6 232.6,281.5 232.6,281.5 			"/>
		</g>
		<g>
			<polygon class="st5" points="241.8,329.8 237.3,301.5 242.2,294.6 242.2,294.6 232.6,281.5 232.6,281.5 232.6,281.6 223.2,294.4 
				223.1,294.5 223.1,294.5 223.1,294.5 228,301.5 223.5,329.9 223.5,329.9 232.6,346.5 241.8,329.8 			"/>
			<polygon class="st5" points="232.7,346.6 233.6,345.7 232.7,346.5 			"/>
			<polygon class="st5" points="232.6,346.5 231.7,345.7 232.6,346.6 			"/>
			<polygon class="st5" points="232.6,346.6 232.6,346.6 232.7,346.6 232.6,346.6 232.6,346.6 232.6,346.6 			"/>
			<polygon class="st5" points="232.7,281.5 232.7,281.5 232.7,281.5 			"/>
			<polygon class="st5" points="232.6,281.5 232.6,281.5 232.7,281.5 			"/>
		</g>
		<g>
			<polygon class="st6" points="232.7,281.5 232.7,281.5 232.7,281.5 232.7,281.5 232.6,281.5 232.6,281.5 232.6,281.5 232.6,281.5 
				232.6,281.5 242.2,294.6 253.1,309.4 275.7,268.2 260.6,262.9 260.6,262.9 			"/>
			<polygon class="st6" points="223.1,294.5 223.1,294.5 223.6,293.8 232.6,281.5 232.6,281.5 232.6,281.5 232.6,281.5 204.7,262.9 
				204.7,262.9 189.6,268.2 212.2,309.4 			"/>
		</g>
		<g>
			<path class="st7" d="M344.7,334.5l-5.1-30.6c-1.4-8.2-7.1-15.1-14.9-18l-49-17.7l13,26.1l-16.3,0.3l5.5,10.5l-44.4,40.6l-0.9,0.9
				l0,0.1h11.8h89.9C340.8,346.6,345.7,340.9,344.7,334.5z"/>
			<polygon class="st7" points="232.7,346.6 232.6,346.6 232.6,346.6 232.7,346.6 			"/>
		</g>
		<g>
			<polygon class="st8" points="241.8,329.8 232.6,346.5 232.6,346.5 232.7,346.5 233.6,345.7 277.9,305.1 272.4,294.6 288.7,294.3 
				275.7,268.2 253.1,309.4 			"/>
			<polygon class="st8" points="232.6,346.6 232.6,346.6 232.6,346.6 232.6,346.5 232.6,346.6 			"/>
		</g>
		<path class="st7" d="M232.6,346.6L232.6,346.6l-0.9-0.9l-44.4-40.6l5.5-10.5l-16.3-0.3l13-26.1l-49,17.7
			c-7.9,2.8-13.6,9.7-14.9,18l-5.1,30.6c-1.1,6.3,3.8,12.1,10.3,12.1h90h6.9h0.1L232.6,346.6L232.6,346.6L232.6,346.6L232.6,346.6z"
			/>
		<polygon class="st8" points="232.7,346.6 232.7,346.5 232.6,346.5 232.6,346.5 223.5,329.9 212.2,309.4 189.6,268.2 176.6,294.3 
			192.9,294.6 187.4,305.1 231.7,345.7 232.6,346.5 232.6,346.6 232.6,346.6 232.7,346.6 232.7,346.6 		"/>
		<g class="st9">
			<path class="st10" d="M235.5,229.1h-3.2c-2.5,0-4.6-2-4.6-4.6v-11.8c0-0.8,0.7-1.5,1.5-1.5c0.8,0,1.5,0.7,1.5,1.5v11.8
				c0,0.8,0.7,1.5,1.5,1.5h3.2c0.8,0,1.5,0.7,1.5,1.5C237,228.4,236.3,229.1,235.5,229.1z"/>
			<path class="st10" d="M233.5,238.1c-1.4,0-2.7-0.2-3.7-0.5c-3.2-1-5.1-2.9-5.2-3c-0.6-0.6-0.6-1.6,0-2.2c0.6-0.6,1.6-0.6,2.1,0
				c0.2,0.3,5.9,5.8,14.4-0.2c0.7-0.5,1.6-0.3,2.1,0.4c0.5,0.7,0.3,1.6-0.4,2.1C239.4,237.3,236.1,238.1,233.5,238.1z"/>
		</g>
		<g>
			<path class="st10" d="M209.4,196.5c-0.7,0-1.4-0.4-1.8-1c-0.5-1-0.2-2.2,0.8-2.7c0.2-0.1,6.1-3.3,13.6-0.1c1,0.4,1.5,1.6,1.1,2.6
				c-0.4,1-1.6,1.5-2.6,1.1c-5.7-2.4-10-0.2-10.1-0.1C210.1,196.4,209.7,196.5,209.4,196.5z"/>
			<path class="st10" d="M243.9,196.5c-0.7,0-1.4-0.4-1.8-1c-0.5-1-0.2-2.2,0.8-2.7c0.2-0.1,6.1-3.3,13.6-0.1c1,0.4,1.5,1.6,1.1,2.6
				c-0.4,1-1.6,1.5-2.6,1.1c-5.7-2.4-10-0.2-10.1-0.1C244.5,196.4,244.2,196.5,243.9,196.5z"/>
		</g>
		<g>
			<circle class="st10" cx="215.4" cy="208.1" r="3.1"/>
			<circle class="st10" cx="249.8" cy="208.1" r="3.1"/>
		</g>
	</g>
</g>
</svg>
