<?xml version="1.0"?>
<svg xmlns="http://www.w3.org/2000/svg" xmlns:xlink="http://www.w3.org/1999/xlink" xmlns:svgjs="http://svgjs.com/svgjs" version="1.1" width="512" height="512" x="0" y="0" viewBox="0 0 24 24" style="enable-background:new 0 0 512 512" xml:space="preserve" class=""><circle r="12" cx="12" cy="12" fill="#ffffff" shape="circle"/><g transform="matrix(0.7,0,0,0.7,3.6000000000000014,3.5999154388904575)"><link type="text/css" id="black-mode" rel="stylesheet"/><style type="text/css" id="black-mode-custom-style"/><path xmlns="http://www.w3.org/2000/svg" d="m20.72.22-1.914 1.914c-1.971-1.37-4.322-2.134-6.806-2.134-6.617 0-12 5.383-12 12 0 1.172.172 2.338.512 3.466.097.325.395.534.717.534.072 0 .145-.01.217-.032.396-.12.621-.538.502-.935-.297-.987-.448-2.008-.448-3.033 0-5.79 4.71-10.5 10.5-10.5 2.08 0 4.055.607 5.732 1.708l-1.512 1.512c-.471.471-.136 1.28.53 1.28h4.5c.414 0 .75-.336.75-.75v-4.5c0-.668-.81-1.001-1.28-.53z" fill="#028e08" data-original="#000000" style="" class=""/><path xmlns="http://www.w3.org/2000/svg" d="m23.488 8.534c-.119-.396-.539-.62-.935-.502-.396.12-.621.538-.502.935.298.987.449 2.008.449 3.033 0 5.79-4.71 10.5-10.5 10.5-2.075 0-4.048-.604-5.722-1.701l1.505-1.522c.468-.473.132-1.277-.533-1.277h-4.5c-.2 0-.393.08-.533.223-.141.142-.219.335-.217.535l.05 4.5c.008.666.819.99 1.283.519l1.878-1.899c1.967 1.362 4.312 2.122 6.789 2.122 6.617 0 12-5.383 12-12 0-1.172-.172-2.338-.512-3.466z" fill="#028e08" data-original="#000000" style="" class=""/><path xmlns="http://www.w3.org/2000/svg" d="m12 11c-2.307 0-5-.524-5-2s2.693-2 5-2 5 .524 5 2-2.693 2-5 2z" fill="#028e08" data-original="#000000" style="" class=""/><path xmlns="http://www.w3.org/2000/svg" d="m12 12.5c-2.179 0-3.883-.378-5-1.063v.563c0 1.476 2.693 2 5 2s5-.524 5-2v-.563c-1.118.685-2.821 1.063-5 1.063z" fill="#028e08" data-original="#000000" style="" class=""/><path xmlns="http://www.w3.org/2000/svg" d="m12 15.5c-2.179 0-3.883-.378-5-1.063v.563c0 1.476 2.693 2 5 2s5-.524 5-2v-.563c-1.118.685-2.821 1.063-5 1.063z" fill="#028e08" data-original="#000000" style="" class=""/></g></svg>
