<svg xmlns="http://www.w3.org/2000/svg" xmlns:xlink="http://www.w3.org/1999/xlink" width="250" height="200" viewBox="0 0 250 200"><defs><clipPath id="a"><rect width="250" height="200" transform="translate(660 579)" fill="#fff" stroke="#026e08" stroke-width="2"/></clipPath></defs><g transform="translate(-660 -579)" clip-path="url(#a)"><g transform="translate(677.21 579)"><path d="M192.425,200H23.155C10.388,200,0,190.363,0,178.516V21.484C0,9.637,10.388,0,23.155,0h169.27c12.766,0,23.155,9.637,23.155,21.484V178.516C215.58,190.363,205.192,200,192.425,200Zm0,0" fill="#b6d2e0"/><path d="M203.637,0H119V200h84.637c12.765,0,23.153-9.637,23.153-21.484V21.484C226.79,9.637,216.4,0,203.637,0Zm0,0" transform="translate(-11.21)" fill="#aac3ce"/><path d="M24.468,190.508c-5.8,0-10.523-4.381-10.523-9.766V23.711c0-5.385,4.72-9.766,10.523-9.766h169.27c5.8,0,10.523,4.381,10.523,9.766V180.742c0,5.385-4.72,9.766-10.523,9.766Zm0,0" transform="translate(-1.314 -2.227)" fill="#d6f3fe"/><path d="M214.158,23.711V180.742c0,5.386-4.72,9.766-10.521,9.766H119V13.945h84.637C209.438,13.945,214.158,18.325,214.158,23.711Zm0,0" transform="translate(-11.21 -2.227)" fill="#bdecfc"/><path d="M215.58,21.484C215.58,9.637,205.192,0,192.425,0H23.155C10.388,0,0,9.637,0,21.484V53.125H215.58Zm0,0" fill="#b6d2e0"/><path d="M226.79,21.484V53.125H119V0h84.637C216.4,0,226.79,9.637,226.79,21.484Zm0,0" transform="translate(-11.21)" fill="#aac3ce"/><g transform="translate(126.734 23.828)"><path d="M208.32,34.215a6.334,6.334,0,0,1-12.632,0,6.334,6.334,0,0,1,12.632,0Zm0,0" transform="translate(-145.168 -28.355)" fill="#bdecfc"/><path d="M180.433,34.215a6.334,6.334,0,0,1-12.632,0,6.334,6.334,0,0,1,12.632,0Zm0,0" transform="translate(-142.541 -28.355)" fill="#bdecfc"/><path d="M152.546,34.215a6.334,6.334,0,0,1-12.632,0,6.334,6.334,0,0,1,12.632,0Zm0,0" transform="translate(-139.914 -28.355)" fill="#bdecfc"/></g><path d="M186.251,131.012H34.671a6.1,6.1,0,0,1-6.316-5.859V90a6.1,6.1,0,0,1,6.316-5.859H186.251A6.1,6.1,0,0,1,192.567,90v35.156A6.1,6.1,0,0,1,186.251,131.012Zm0,0" transform="translate(-2.671 -13.434)" fill="#eebb2c"/><path d="M194.812,84.137H119.232v46.875h75.579a6.1,6.1,0,0,0,6.316-5.859V90A6.1,6.1,0,0,0,194.812,84.137Zm0,0" transform="translate(-11.232 -13.434)" fill="#e79b34"/><path d="M97.829,200.738H34.671a6.1,6.1,0,0,1-6.316-5.859V159.723a6.1,6.1,0,0,1,6.316-5.859H97.829a6.1,6.1,0,0,1,6.316,5.859v35.156A6.1,6.1,0,0,1,97.829,200.738Zm0,0" transform="translate(-2.671 -24.566)" fill="#dd5c60"/><path d="M195.447,200.738H132.288a6.1,6.1,0,0,1-6.316-5.859V159.723a6.1,6.1,0,0,1,6.316-5.859h63.158a6.1,6.1,0,0,1,6.316,5.859v35.156A6.1,6.1,0,0,1,195.447,200.738Zm0,0" transform="translate(-11.867 -24.566)" fill="#d8333c"/></g></g></svg>