<svg xmlns="http://www.w3.org/2000/svg" xmlns:xlink="http://www.w3.org/1999/xlink" width="140" height="120" viewBox="0 0 140 120"><defs><clipPath id="a"><rect width="140" height="120" transform="translate(444 177)" fill="#fff" stroke="#707070" stroke-width="1"/></clipPath></defs><g transform="translate(-444 -177)" clip-path="url(#a)"><g transform="translate(454.001 176.989)"><g transform="translate(-2.069)"><path d="M113.8,20.174V94.808a4.345,4.345,0,0,1-4.138,4.511H6.207a4.171,4.171,0,0,1-3.642-2.338,5.074,5.074,0,0,1-.5-2.173V12.787A4.345,4.345,0,0,1,6.207,8.277h95.7Z" fill="#84b5cb"/><path d="M89.553,8.277C89.429,28.658,79.207,92.1,2.566,96.981a5.074,5.074,0,0,1-.5-2.173V12.787A4.345,4.345,0,0,1,6.207,8.277Z" fill="#9fc9d3"/><path d="M101.914,8.277l7.035-7.035a4.207,4.207,0,0,1,5.947,0l5.945,5.945a4.207,4.207,0,0,1,0,5.947L113.8,20.166Z" fill="#fb7b76"/><path d="M72.42,99.319l6.207,12.415-20.691,4.138-20.691-4.138,6.207-12.415,14.484-4.138Z" fill="#2980ba"/><rect width="66.213" height="8.277" rx="4.138" transform="translate(24.83 111.734)" fill="#3b97d3"/><path d="M88.306,20.815h29.4v8.4h-29.4Z" transform="translate(12.485 80.175) rotate(-45)" fill="#2980ba"/><path d="M110.451,11.649,89.656,32.444h-.021L83.7,26.485,104.492,5.69Z" fill="#3b97d3"/><path d="M83.691,26.5l-4.937,14.17a2.069,2.069,0,0,0,2.659,2.659l14.17-4.937Z" fill="#fdd7ad"/><path d="M68.282,28.968v8.277a4.151,4.151,0,0,1-4.138,4.138H14.484a4.151,4.151,0,0,1-4.138-4.138V20.691a4.151,4.151,0,0,1,4.138-4.138H55.867V24.83a4.151,4.151,0,0,0,4.138,4.138Z" fill="#ff5364"/><path d="M68.282,20.691v8.277H60.005a4.151,4.151,0,0,1-4.138-4.138V16.553h8.277A4.151,4.151,0,0,1,68.282,20.691Z" fill="#fb7b76"/><path d="M43.452,70.351v6.207a2.069,2.069,0,0,1-2.069,2.069h-26.9a2.069,2.069,0,0,1-2.069-2.069V70.351Z" fill="#3b97d3"/><path d="M43.452,51.729V70.351H12.415V51.729a2.069,2.069,0,0,1,2.069-2.069h26.9A2.069,2.069,0,0,1,43.452,51.729Z" fill="#ecf0f1"/><path d="M26.9,64.144a2.069,2.069,0,0,1-1.463-3.532l.606-.606-.606-.606a2.069,2.069,0,0,1,2.926-2.926l2.069,2.069a2.069,2.069,0,0,1,0,2.926l-2.069,2.069a2.069,2.069,0,0,1-1.463.606Z" fill="#e64c3c"/><path d="M105.527,53.8h-53.8a2.069,2.069,0,0,1,0-4.138h53.8a2.069,2.069,0,1,1,0,4.138Z" fill="#3f5c6c"/><path d="M105.527,62.074H97.25a2.069,2.069,0,0,1,0-4.138h8.277a2.069,2.069,0,1,1,0,4.138Z" fill="#3f5c6c"/><path d="M88.973,62.074H51.729a2.069,2.069,0,0,1,0-4.138H88.973a2.069,2.069,0,0,1,0,4.138Z" fill="#3f5c6c"/><path d="M105.527,70.351H66.213a2.069,2.069,0,0,1,0-4.138h39.314a2.069,2.069,0,1,1,0,4.138Z" fill="#3f5c6c"/><path d="M57.936,70.351H51.729a2.069,2.069,0,0,1,0-4.138h6.207a2.069,2.069,0,0,1,0,4.138Z" fill="#3f5c6c"/><path d="M78.628,78.628h-26.9a2.069,2.069,0,0,1,0-4.138h26.9a2.069,2.069,0,0,1,0,4.138Z" fill="#3f5c6c"/><path d="M113.8,86.9v7.9a4.345,4.345,0,0,1-4.138,4.511H6.207a4.345,4.345,0,0,1-4.138-4.511V86.9Z" fill="#3b97d3"/></g></g></g></svg>