<svg id="Layer_1" data-name="Layer 1" xmlns="http://www.w3.org/2000/svg" xmlns:xlink="http://www.w3.org/1999/xlink" viewBox="0 0 930.57 932.92"><defs><style>.cls-1{fill:url(#linear-gradient);}.cls-2{fill:#c8f29c;}.cls-3{fill:url(#linear-gradient-2);}.cls-4{fill:url(#linear-gradient-3);}.cls-5{fill:url(#linear-gradient-4);}</style><linearGradient id="linear-gradient" x1="198.08" y1="491.82" x2="820.59" y2="491.82" gradientUnits="userSpaceOnUse"><stop offset="0" stop-color="#8dc63f"/><stop offset="0.22" stop-color="#6dbb40"/><stop offset="1" stop-color="#009444"/></linearGradient><linearGradient id="linear-gradient-2" x1="591.79" y1="194.84" x2="848.27" y2="194.84" xlink:href="#linear-gradient"/><linearGradient id="linear-gradient-3" x1="623.49" y1="176.94" x2="763.96" y2="176.94" xlink:href="#linear-gradient"/><linearGradient id="linear-gradient-4" x1="601.31" y1="259.06" x2="935.47" y2="259.06" xlink:href="#linear-gradient"/></defs><title>travel</title><path class="cls-1" d="M820.59,491.77C805.78,650.62,672.06,775,509.33,775S213.09,650.82,198.08,492.18C212.68,333.13,346.5,208.61,509.33,208.61A311.72,311.72,0,0,1,637,235.78L593.3,421.39,679,479.11l77.84-148.94A310.71,310.71,0,0,1,820.59,491.77Z" transform="translate(-43.15 -52.68)"/><path class="cls-2" d="M822,521.19a312.62,312.62,0,0,1-19,107.57c-1.74,4.8-3.58,9.5-5.62,14.2s-4,9.3-6.23,13.89l-3.37,6.74c-2.25,4.49-4.7,8.89-7.25,13.28-1.23,2.25-2.55,4.39-3.78,6.54-2.66,4.29-5.31,8.48-8.17,12.67-5.62,8.27-11.65,16.34-18,24.11s-13.18,15.12-20.23,22.17a312,312,0,0,1-221.06,91.53c-172.64,0-312.59-139.95-312.59-312.69,0-3.88.1-7.87.2-11.75.1-1.43.1-2.86.2-4.29.2-4.29.51-8.68.92-13C213.09,650.82,346.71,775,509.33,775S805.78,650.62,820.59,491.77c.51,4.9.82,9.7,1,14.61S822,516.29,822,521.19Z" transform="translate(-43.15 -52.68)"/><polygon class="cls-3" points="817.76 16.77 673.45 119.14 632.37 180.16 591.79 352.38 622.3 372.92 699.49 225.35 740.57 164.33 848.27 37.31 817.76 16.77"/><polygon class="cls-4" points="705.13 96.67 673.45 119.14 632.37 180.16 623.49 217.84 682.83 257.2 699.49 225.35 740.57 164.33 763.96 136.75 705.13 96.67"/><path class="cls-5" d="M858,268.6,658.64,132.79a36.78,36.78,0,1,0-41.08,61L817,326.11,828,369l33.56,22.6L880.07,328l55.39-42.75-33.56-22.6Z" transform="translate(-43.15 -52.68)"/><path d="M609.92,205.3,660,238.52,619.33,411.17l51.2,34.47,77.72-148.58,56.7,37.61,11,42.84,53.58,36.08,22.51-77.39,67-51.69-53.77-36.2-43.85,5.91-57.78-39.36L911.9,87.16l-51.2-34.48L716.12,155.25l-49.78-33.91a50.58,50.58,0,1,0-56.42,84Zm50.45,200.25-9.82-6.61,34-144.15,40.62,26.95ZM861.12,86.21l9.82,6.61L780.7,199.25l-40.26-27.43ZM619,150.46a23,23,0,0,1,31.84-6.27L854.61,283l43.93-5.93,13.35,9-43.82,33.82-14.47,49.75-13.54-9.12-11-42.95L625.25,182.37A23,23,0,0,1,619,150.46Z" transform="translate(-43.15 -52.68)"/><path class="cls-2" d="M92.34,656.52,66.12,665.1c2.94,9,6.2,18,9.68,26.78l25.64-10.18C98.17,673.45,95.11,665,92.34,656.52Z" transform="translate(-43.15 -52.68)"/><path class="cls-2" d="M162.75,251.79,141,234.86c-5.79,7.45-11.43,15.16-16.75,22.93L147,273.38C152,266.06,157.3,258.8,162.75,251.79Z" transform="translate(-43.15 -52.68)"/><path class="cls-2" d="M112.08,706.26,87.12,718c4,8.55,8.35,17.08,12.89,25.36l24.2-13.24C119.94,722.33,115.86,714.3,112.08,706.26Z" transform="translate(-43.15 -52.68)"/><path class="cls-2" d="M108,343.25,82.8,332.08c-3.81,8.61-7.41,17.45-10.69,26.28L98,368C101.06,359.66,104.44,351.35,108,343.25Z" transform="translate(-43.15 -52.68)"/><path class="cls-2" d="M132.58,295.87,108.91,281.7c-4.84,8.09-9.49,16.43-13.83,24.79l24.49,12.69C123.65,311.32,128,303.48,132.58,295.87Z" transform="translate(-43.15 -52.68)"/><path class="cls-2" d="M71.85,551.86l-27.52,2c.67,9.41,1.64,18.92,2.88,28.26l27.35-3.63C73.4,569.66,72.48,560.71,71.85,551.86Z" transform="translate(-43.15 -52.68)"/><path class="cls-2" d="M78.89,604.82l-27.07,5.3c1.81,9.27,3.94,18.59,6.31,27.71l26.7-6.95C82.59,622.31,80.59,613.54,78.89,604.82Z" transform="translate(-43.15 -52.68)"/><path class="cls-2" d="M70.74,520.31c0-7.29.18-14.66.54-21.92L43.73,497c-.38,7.71-.57,15.54-.57,23.27q0,2.57,0,5.13l27.58-.3Q70.74,522.73,70.74,520.31Z" transform="translate(-43.15 -52.68)"/><path class="cls-2" d="M198.06,211.68,178.5,192.24c-6.65,6.69-13.18,13.66-19.41,20.74l20.7,18.23C185.66,224.55,191.81,218,198.06,211.68Z" transform="translate(-43.15 -52.68)"/><path class="cls-2" d="M77.14,445.28,50,440.59c-1.6,9.29-2.94,18.75-4,28.13l27.42,3C74.37,462.92,75.63,454,77.14,445.28Z" transform="translate(-43.15 -52.68)"/><path class="cls-2" d="M928,395.23c2.53,8.51,4.83,17.2,6.84,25.85l26.87-6.23c-2.13-9.19-4.58-18.44-7.27-27.48Z" transform="translate(-43.15 -52.68)"/><path class="cls-2" d="M484.4,83.26l-1.49-27.55c-9.43.51-19,1.32-28.31,2.39l3.16,27.4C466.55,84.5,475.52,83.74,484.4,83.26Z" transform="translate(-43.15 -52.68)"/><path class="cls-2" d="M539.7,56.07c-9.41-.63-19-1-28.4-1l-.17,27.59c8.88.05,17.87.38,26.72,1Z" transform="translate(-43.15 -52.68)"/><path class="cls-2" d="M238,176.14l-17.06-21.68c-7.41,5.83-14.74,12-21.79,18.24l18.34,20.6C224.12,187.4,231,181.62,238,176.14Z" transform="translate(-43.15 -52.68)"/><path class="cls-2" d="M943.69,473.78l27.43-2.9c-1-9.39-2.29-18.87-3.85-28.17l-27.21,4.57C941.53,456,942.75,464.95,943.69,473.78Z" transform="translate(-43.15 -52.68)"/><path class="cls-2" d="M329.31,120.82,318,95.65c-8.61,3.87-17.22,8.06-25.59,12.45l12.83,24.42C313.12,128.39,321.21,124.46,329.31,120.82Z" transform="translate(-43.15 -52.68)"/><path class="cls-2" d="M282,145.69l-14.29-23.59c-8.07,4.89-16.09,10.09-23.86,15.47l15.71,22.68C266.81,155.18,274.36,150.28,282,145.69Z" transform="translate(-43.15 -52.68)"/><path class="cls-2" d="M379.39,101.94l-8.12-26.36c-9,2.78-18.1,5.89-26.94,9.22l9.73,25.81C362.37,107.48,370.89,104.56,379.39,101.94Z" transform="translate(-43.15 -52.68)"/><path class="cls-2" d="M431.31,89.38l-4.82-27.16c-9.28,1.65-18.64,3.61-27.81,5.83l6.48,26.81C413.79,92.78,422.59,90.93,431.31,89.38Z" transform="translate(-43.15 -52.68)"/><path class="cls-2" d="M89.44,393.3l-26.4-8c-2.73,9-5.22,18.26-7.39,27.44l26.85,6.35C84.54,410.46,86.88,401.78,89.44,393.3Z" transform="translate(-43.15 -52.68)"/><path class="cls-2" d="M829.2,818.12l20.21,18.77c6.42-6.91,12.71-14.11,18.69-21.39L846.78,798C841.16,804.85,835.24,811.62,829.2,818.12Z" transform="translate(-43.15 -52.68)"/><path class="cls-2" d="M790.5,855l17.79,21.09c7.21-6.08,14.33-12.47,21.15-19l-19-20C804,843.28,797.29,849.28,790.5,855Z" transform="translate(-43.15 -52.68)"/><path class="cls-2" d="M747.61,886.94,762.71,910c7.89-5.16,15.73-10.63,23.31-16.28l-16.47-22.13C762.41,876.94,755,882.09,747.61,886.94Z" transform="translate(-43.15 -52.68)"/><path class="cls-2" d="M863.12,776.84,885.46,793c5.53-7.63,10.9-15.54,16-23.49l-23.28-14.8C873.37,762.22,868.32,769.66,863.12,776.84Z" transform="translate(-43.15 -52.68)"/><path class="cls-2" d="M701.14,913.42l12.16,24.76c8.47-4.16,16.93-8.64,25.14-13.32l-13.66-24C717.06,905.29,709.11,909.5,701.14,913.42Z" transform="translate(-43.15 -52.68)"/><path class="cls-2" d="M931.52,632.89,958.19,640c2.42-9.11,4.59-18.43,6.44-27.68l-27-5.42C935.83,615.56,933.8,624.32,931.52,632.89Z" transform="translate(-43.15 -52.68)"/><path class="cls-2" d="M942,580.51l27.33,3.76c1.28-9.33,2.3-18.84,3-28.25l-27.51-2.09C944.19,562.78,943.24,571.72,942,580.51Z" transform="translate(-43.15 -52.68)"/><path class="cls-2" d="M973.25,499.23l-27.56,1.23c.29,6.58.44,13.26.44,19.85q0,3.46-.05,6.9l27.58.43q.06-3.66.06-7.33C973.72,513.31,973.56,506.22,973.25,499.23Z" transform="translate(-43.15 -52.68)"/><path class="cls-2" d="M891.76,731.77l24.14,13.35c4.56-8.25,8.93-16.75,13-25.25L904,708C900.15,716,896,724,891.76,731.77Z" transform="translate(-43.15 -52.68)"/><path class="cls-2" d="M651.75,934l9,26.07c8.93-3.09,17.88-6.5,26.6-10.14l-10.62-25.46C668.56,927.89,660.15,931.1,651.75,934Z" transform="translate(-43.15 -52.68)"/><path class="cls-2" d="M914.67,683.58l25.59,10.3c3.52-8.76,6.82-17.74,9.79-26.68l-26.18-8.7C921.08,666.91,918,675.35,914.67,683.58Z" transform="translate(-43.15 -52.68)"/><path class="cls-2" d="M600.29,948.35l5.76,27c9.23-2,18.52-4.25,27.6-6.79L626.24,942C617.7,944.35,609,946.5,600.29,948.35Z" transform="translate(-43.15 -52.68)"/><path class="cls-2" d="M229.32,892.61c7.54,5.66,15.35,11.16,23.22,16.35l15.19-23c-7.4-4.89-14.75-10.06-21.84-15.39Z" transform="translate(-43.15 -52.68)"/><path class="cls-2" d="M327.53,949.11c8.68,3.67,17.58,7.11,26.46,10.23l9.15-26c-8.35-2.94-16.73-6.18-24.88-9.62Z" transform="translate(-43.15 -52.68)"/><path class="cls-2" d="M276.71,923.87c8.17,4.7,16.59,9.21,25,13.4L314,912.56c-7.93-3.94-15.85-8.18-23.54-12.6Z" transform="translate(-43.15 -52.68)"/><path class="cls-2" d="M186.07,855.82c6.79,6.53,13.88,12.94,21.07,19.05l17.88-21c-6.76-5.75-13.44-11.79-19.83-17.93Z" transform="translate(-43.15 -52.68)"/><path class="cls-2" d="M169,796.62,147.57,814c6,7.31,12.22,14.53,18.61,21.48l20.29-18.69C180.45,810.29,174.56,803.49,169,796.62Z" transform="translate(-43.15 -52.68)"/><path class="cls-2" d="M137.76,753.18l-23.34,14.7c5,8,10.36,15.92,15.87,23.59l22.41-16.09C147.51,768.16,142.49,760.69,137.76,753.18Z" transform="translate(-43.15 -52.68)"/><path class="cls-2" d="M381.08,967.94c9.07,2.58,18.35,4.91,27.56,6.92l5.89-26.95c-8.67-1.89-17.39-4.08-25.92-6.51Z" transform="translate(-43.15 -52.68)"/><path class="cls-2" d="M494,957.77l-.89,27.57c5.08.16,10.23.25,15.32.25,4.36,0,8.76-.06,13.09-.18l-.76-27.58C511.93,958.08,502.9,958.06,494,957.77Z" transform="translate(-43.15 -52.68)"/><path class="cls-2" d="M547.45,956.29l2.42,27.48c9.41-.83,18.9-2,28.21-3.36L574,953.13C565.23,954.45,556.3,955.51,547.45,956.29Z" transform="translate(-43.15 -52.68)"/><path class="cls-2" d="M436.57,980.08c9.31,1.44,18.8,2.62,28.2,3.49l2.56-27.47c-8.84-.82-17.77-1.93-26.52-3.29Z" transform="translate(-43.15 -52.68)"/><path d="M780.34,339.17l-22.88,15.4a297.06,297.06,0,0,1,50.4,152.86H523.15V365.83H568.2V338.24H523.15V222.72a299.83,299.83,0,0,1,49.5,6.39l5.82-27a328,328,0,0,0-69.12-7.35c-180,0-326.43,146.44-326.43,326.43a324.58,324.58,0,0,0,57.93,185.42v1.24h.86c55.25,79,144.51,132.47,246.35,139.06a105.68,105.68,0,0,0,47.74-.36c167.68-13.51,300-154.27,300-325.36A324.87,324.87,0,0,0,780.34,339.17ZM807.87,535a296.87,296.87,0,0,1-45.64,145.29h-92c13.37-44.2,20.93-93.73,21.94-145.29Zm-143.25,0c-1.07,52.06-9.09,101.74-23.24,145.29H523.14V535ZM531.26,819.27q-4,.3-8.12.48V707.89h108.1a327.4,327.4,0,0,1-13.94,29.63C593.19,782.6,563.19,810.88,531.26,819.27ZM405.07,737.52c-5-9.38-9.67-19.29-13.94-29.63H495.56V819.75l-3.27-.17C459.93,811.58,429.49,783.15,405.07,737.52ZM210.84,507.44a296.88,296.88,0,0,1,43.34-141.61h97.94C339.06,409,331.54,457.2,330.25,507.44H210.84ZM330.17,535c1,51.55,8.57,101.08,21.94,145.29H256.48A296.88,296.88,0,0,1,210.83,535Zm27.59,0h137.8V680.31H381C366.86,636.76,358.83,587.08,357.77,535Zm137.79-27.59H357.84c1.36-50.72,9.35-99.09,23.16-141.61H495.56V507.44ZM391.14,338.24a327.19,327.19,0,0,1,13.94-29.63c25.24-47.16,56.91-75.94,90.49-82.79V338.24H391.14Zm34.82-104c-16.59,15.81-31.83,36.37-45.21,61.36a362.8,362.8,0,0,0-19.27,42.65H273.25A299.8,299.8,0,0,1,426,234.24ZM276.16,707.89h85.32a362.34,362.34,0,0,0,19.27,42.65c11.93,22.29,25.35,41.07,39.89,56.09A299.83,299.83,0,0,1,276.16,707.89Zm327.23,97c13.9-14.72,26.76-32.92,38.24-54.36a362.81,362.81,0,0,0,19.27-42.65h81.64A300,300,0,0,1,603.39,804.9Z" transform="translate(-43.15 -52.68)"/></svg>