<?xml version="1.0" encoding="utf-8"?>
<!-- Generator: Adobe Illustrator 21.1.0, SVG Export Plug-In . SVG Version: 6.00 Build 0)  -->
<svg version="1.1" id="Layer_1" xmlns="http://www.w3.org/2000/svg" xmlns:xlink="http://www.w3.org/1999/xlink" x="0px" y="0px"
	 viewBox="0 0 400 400" style="enable-background:new 0 0 400 400;" xml:space="preserve">
<style type="text/css">
	.st0{opacity:0.5;enable-background:new    ;}
	.st1{fill:#006838;}
	.st2{fill:#009F9E;}
	.st3{fill:none;stroke:#FFFFFF;stroke-width:3;stroke-linecap:round;stroke-miterlimit:10;}
	.st4{fill:#00B7B9;}
	.st5{fill:#464F73;}
	.st6{fill:#333954;}
	.st7{fill:#FFFFFF;}
	.st8{fill:none;}
	.st9{clip-path:url(#SVGID_2_);fill:#FFFFFF;}
	.st10{clip-path:url(#SVGID_2_);fill:none;}
	.st11{clip-path:url(#SVGID_4_);fill:#FFFFFF;}
	.st12{clip-path:url(#SVGID_4_);fill:none;}
	.st13{clip-path:url(#SVGID_6_);fill:#FFFFFF;}
	.st14{clip-path:url(#SVGID_6_);fill:none;}
	.st15{clip-path:url(#SVGID_8_);fill:#FFFFFF;}
	.st16{clip-path:url(#SVGID_8_);fill:none;}
	.st17{clip-path:url(#SVGID_10_);fill:#FFFFFF;}
	.st18{clip-path:url(#SVGID_10_);fill:none;}
	.st19{clip-path:url(#SVGID_12_);fill:#FFFFFF;}
	.st20{clip-path:url(#SVGID_12_);fill:none;}
	.st21{clip-path:url(#SVGID_14_);fill:#FFFFFF;}
	.st22{clip-path:url(#SVGID_14_);fill:none;}
	.st23{clip-path:url(#SVGID_16_);fill:#FFFFFF;}
	.st24{clip-path:url(#SVGID_16_);fill:none;}
	.st25{clip-path:url(#SVGID_18_);fill:#FFFFFF;}
	.st26{clip-path:url(#SVGID_18_);fill:none;}
	.st27{clip-path:url(#SVGID_20_);fill:#FFFFFF;}
	.st28{clip-path:url(#SVGID_20_);fill:none;}
	.st29{clip-path:url(#SVGID_22_);fill:#FFFFFF;}
	.st30{clip-path:url(#SVGID_22_);fill:none;}
	.st31{clip-path:url(#SVGID_24_);fill:#FFFFFF;}
	.st32{clip-path:url(#SVGID_24_);fill:none;}
	.st33{clip-path:url(#SVGID_26_);fill:#FFFFFF;}
	.st34{clip-path:url(#SVGID_26_);fill:none;}
	.st35{clip-path:url(#SVGID_28_);fill:#FFFFFF;}
	.st36{clip-path:url(#SVGID_28_);fill:none;}
	.st37{clip-path:url(#SVGID_30_);fill:#FFFFFF;}
	.st38{clip-path:url(#SVGID_30_);fill:none;}
	.st39{clip-path:url(#SVGID_32_);fill:#FFFFFF;}
	.st40{clip-path:url(#SVGID_32_);fill:none;}
	.st41{fill:#FFC907;}
	.st42{fill:#27AAE1;}
	.st43{fill:#333954;stroke:#333954;stroke-miterlimit:10;}
	.st44{fill:#754937;}
	.st45{opacity:0.76;fill:#563327;}
	.st46{fill:#232223;}
	.st47{fill:#563327;}
	.st48{fill:#ECEEF8;}
	.st49{fill:none;stroke:#333954;stroke-width:0.75;stroke-linecap:round;stroke-miterlimit:10;}
	.st50{fill:none;stroke:#333954;stroke-linecap:round;stroke-miterlimit:10;}
	.st51{fill:#EF4F8E;}
	.st52{fill:none;stroke:#FFFFFF;stroke-linecap:round;stroke-miterlimit:10;}
	.st53{font-family:'Montserrat-SemiBold';}
	.st54{font-size:10.3323px;}
	.st55{enable-background:new    ;}
	.st56{fill:#39B54A;stroke:#00A651;stroke-miterlimit:10;}
	.st57{opacity:0.2;}
	.st58{opacity:0.2;fill:#6466AF;enable-background:new    ;}
	.st59{fill:#6466AF;}
	.st60{fill:#244D24;}
	.st61{opacity:0.1;fill:#010101;enable-background:new    ;}
	.st62{fill:#518D48;}
	.st63{opacity:0.1;}
	.st64{fill:#010101;}
	.st65{fill:none;stroke:#6466AF;stroke-miterlimit:10;}
	.st66{fill:#4A2B36;}
	.st67{fill:#60C7CA;}
	.st68{fill:#0F9346;}
	.st69{fill:#3E8E8F;}
	.st70{fill:#B54C49;}
</style>
<g class="st0">
	<path class="st1" d="M350.8,273.5c-1.6,0.9-3.2,1.7-5,2.5c-8.4,3.9-18.8,7.2-30.7,10.1c-0.7,0.2-1.5,0.4-2.2,0.5
		c-0.1,0-0.1,0-0.2,0c-1.4,0.3-2.9,0.7-4.3,1c-13.2,2.9-27.9,5.2-43.5,7.1c-0.3,0-0.6,0.1-0.9,0.1c-0.1,0-0.1,0-0.2,0
		c-20.8,2.5-43.2,4.1-65.5,4.9c-3.5,0.1-7,0.3-10.5,0.3c-0.6,0-1.2,0-1.8,0c-0.5,0-1,0-1.5,0c-2.2,0.1-4.5,0.1-6.7,0.1
		c-0.8,0-1.7,0-2.5,0c-0.6,0-1.3,0-1.9,0c-5.5,0.1-10.9,0.1-16.3,0.1c-46-0.1-87.2-3.5-107.9-9.4c-59.8-16.8-46.6-58.3-8.8-66.8
		c37.8-8.4-14.5-57.4,45.9-89.7c36.7-19.6,75.1,23.1,106.8-11.1c47.4-50.9,89.3-42.6,115.7-16.3c29.8,29.6,5.9,65.8,37.8,63.9
		C394.2,168.6,422.7,233.5,350.8,273.5z"/>
</g>
<g>
	<ellipse class="st1" cx="199.5" cy="300.3" rx="163.7" ry="8.7"/>
</g>
<g>
	<g>
		<path class="st2" d="M118.2,252.5l-12.3,8.5c-24.4,2.3-41.3-6.2-52.1-15.2l4.8-10.6l-10.4,5.2c-7-7.4-10-13.9-10-13.9
			C83.1,203.1,117,252.6,118.2,252.5z"/>
		<path class="st3" d="M48.3,229.6c0.7-0.2,20,2.7,44.9,19.7"/>
	</g>
	<g>
		<path class="st4" d="M111.5,237L95,239c-50.9-21.2-48.7-69.2-48.7-69.2c6.5,0,12.3,0.9,17.6,2.5c-2.3,6.6,1.2,9.3,4.5,9.3
			c3,0,4.5-2.5,3.5-6.2C105.3,191.4,110.5,236.6,111.5,237z"/>
		<path class="st3" d="M61.7,189.3c0,0,6.3,13.4,27.5,31"/>
	</g>
</g>
<circle class="st3" cx="37.1" cy="276" r="4.4"/>
<g>
	<circle class="st3" cx="362" cy="204.8" r="4.4"/>
	<g>
		<line class="st3" x1="345.4" y1="190.7" x2="345.4" y2="197"/>
		<line class="st3" x1="348.6" y1="193.8" x2="342.3" y2="193.8"/>
	</g>
</g>
<g>
	<line class="st3" x1="57.4" y1="262.2" x2="57.4" y2="269"/>
	<line class="st3" x1="60.8" y1="265.6" x2="54" y2="265.6"/>
</g>
<g>
	<path class="st5" d="M193.5,297.6h-48.2c-1.4,0-2.5-1.1-2.5-2.5l0,0c0-1.4,1.1-2.5,2.5-2.5h48.2c1.4,0,2.5,1.1,2.5,2.5l0,0
		C196,296.5,194.9,297.6,193.5,297.6z"/>
	<g>
		<g>
			<rect x="152" y="275" class="st6" width="34.8" height="20.9"/>
			<path class="st6" d="M245,285.3H95.4c-5.2,0-9.4-4.2-9.4-9.4v-105c0-5.2,4.2-9.4,9.4-9.4H245c5.2,0,9.4,4.2,9.4,9.4v105
				C254.4,281.1,250.2,285.3,245,285.3z"/>
			<path class="st5" d="M244.9,268H95.5c-1.9,0-3.5-1.6-3.5-3.5v-93.7c0-1.9,1.6-3.5,3.5-3.5h149.4c1.9,0,3.5,1.6,3.5,3.5v93.7
				C248.4,266.4,246.8,268,244.9,268z"/>
			<g>
				<g>
					<g>
						<g>
							<g>
								<g>
									<rect x="177.1" y="248.9" class="st7" width="1.1" height="3.5"/>
									<rect x="175.6" y="246.8" class="st8" width="4.2" height="7.7"/>
								</g>
								<g>
									<rect x="177" y="241.2" class="st7" width="1.1" height="3.5"/>
									<rect x="175.5" y="239.1" class="st8" width="4.2" height="7.7"/>
								</g>
								<g>
									<rect x="177" y="233.5" class="st7" width="1.1" height="3.5"/>
									<rect x="175.5" y="231.3" class="st8" width="4.2" height="7.7"/>
								</g>
								<g>
									<rect x="177" y="225.8" class="st7" width="1.1" height="3.5"/>
									<rect x="175.5" y="223.6" class="st8" width="4.2" height="7.7"/>
								</g>
								<g>
									<rect x="177" y="218.1" class="st7" width="1.1" height="3.5"/>
									<rect x="175.5" y="215.9" class="st8" width="4.2" height="7.7"/>
								</g>
								<g>
									<rect x="177" y="210.3" class="st7" width="1.1" height="3.5"/>
									<rect x="175.5" y="208.2" class="st8" width="4.2" height="7.7"/>
								</g>
								<g>
									<rect x="177" y="202.6" class="st7" width="1.1" height="3.5"/>
									<rect x="175.5" y="200.5" class="st8" width="4.2" height="7.7"/>
								</g>
								<g>
									<rect x="183.4" y="196.2" class="st7" width="3.5" height="1.1"/>
									<rect x="181.3" y="194.7" class="st8" width="7.7" height="4.2"/>
								</g>
								<g>
									<rect x="191.1" y="196.2" class="st7" width="3.5" height="1.1"/>
									<rect x="189" y="194.7" class="st8" width="7.7" height="4.2"/>
								</g>
								<g>
									<rect x="198.8" y="196.2" class="st7" width="3.5" height="1.1"/>
									<rect x="196.7" y="194.7" class="st8" width="7.7" height="4.2"/>
								</g>
								<g>
									<rect x="206.5" y="196.2" class="st7" width="3.5" height="1.1"/>
									<rect x="204.5" y="194.7" class="st8" width="7.7" height="4.2"/>
								</g>
								<g>
									<rect x="214.2" y="196.2" class="st7" width="3.5" height="1.1"/>
									<rect x="212.2" y="194.7" class="st8" width="7.7" height="4.2"/>
								</g>
								<g>
									<rect x="222" y="196.1" class="st7" width="3.5" height="1.1"/>
									<rect x="219.9" y="194.6" class="st8" width="7.7" height="4.2"/>
								</g>
								<g>
									<rect x="229.7" y="196.1" class="st7" width="3.5" height="1.1"/>
									<rect x="227.6" y="194.6" class="st8" width="7.7" height="4.2"/>
								</g>
								<g>
									<rect x="238.5" y="202.5" class="st7" width="1.1" height="3.5"/>
									<rect x="236.9" y="200.4" class="st8" width="4.2" height="7.7"/>
								</g>
								<g>
									<rect x="238.5" y="210.2" class="st7" width="1.1" height="3.5"/>
									<rect x="236.9" y="208.1" class="st8" width="4.2" height="7.7"/>
								</g>
								<g>
									<rect x="238.5" y="217.9" class="st7" width="1.1" height="3.5"/>
									<rect x="236.9" y="215.9" class="st8" width="4.2" height="7.7"/>
								</g>
								<g>
									<rect x="238.5" y="225.6" class="st7" width="1.1" height="3.5"/>
									<rect x="236.9" y="223.6" class="st8" width="4.2" height="7.7"/>
								</g>
								<g>
									<rect x="238.5" y="233.4" class="st7" width="1.1" height="3.5"/>
									<rect x="236.9" y="231.3" class="st8" width="4.2" height="7.7"/>
								</g>
								<g>
									<rect x="238.5" y="241.1" class="st7" width="1.1" height="3.5"/>
									<rect x="236.9" y="239" class="st8" width="4.2" height="7.7"/>
								</g>
								<g>
									<rect x="238.5" y="248.8" class="st7" width="1.1" height="3.5"/>
									<rect x="236.9" y="246.7" class="st8" width="4.2" height="7.7"/>
								</g>
								<g>
									<rect x="229.8" y="257.6" class="st7" width="3.5" height="1.1"/>
									<rect x="227.7" y="256" class="st8" width="7.7" height="4.2"/>
								</g>
								<g>
									<rect x="222.1" y="257.6" class="st7" width="3.5" height="1.1"/>
									<rect x="219.9" y="256" class="st8" width="7.7" height="4.2"/>
								</g>
								<g>
									<rect x="214.4" y="257.6" class="st7" width="3.5" height="1.1"/>
									<rect x="212.2" y="256" class="st8" width="7.7" height="4.2"/>
								</g>
								<g>
									<rect x="206.7" y="257.7" class="st7" width="3.5" height="1.1"/>
									<rect x="204.5" y="256" class="st8" width="7.7" height="4.2"/>
								</g>
								<g>
									<rect x="198.9" y="257.7" class="st7" width="3.5" height="1.1"/>
									<rect x="196.8" y="256" class="st8" width="7.7" height="4.2"/>
								</g>
								<g>
									<rect x="191.2" y="257.7" class="st7" width="3.5" height="1.1"/>
									<rect x="189.1" y="256" class="st8" width="7.7" height="4.2"/>
								</g>
								<g>
									<rect x="183.5" y="257.7" class="st7" width="3.5" height="1.1"/>
									<rect x="181.3" y="256" class="st8" width="7.7" height="4.2"/>
								</g>
								<g>
									<defs>
										<polygon id="SVGID_1_" points="179.8,200.5 179.7,198.9 175.5,194.7 175.5,200.5 										"/>
									</defs>
									<clipPath id="SVGID_2_">
										<use xlink:href="#SVGID_1_"  style="overflow:visible;"/>
									</clipPath>
									<rect x="177" y="195.2" class="st9" width="1.1" height="3.3"/>
									<rect x="175.5" y="193.1" class="st10" width="4.2" height="7.3"/>
								</g>
								<g>
									<defs>
										<polygon id="SVGID_3_" points="181.3,198.9 179.7,198.9 175.5,194.7 181.3,194.7 										"/>
									</defs>
									<clipPath id="SVGID_4_">
										<use xlink:href="#SVGID_3_"  style="overflow:visible;"/>
									</clipPath>
									<rect x="175.9" y="196.2" class="st11" width="3.3" height="1.1"/>
									<rect x="174" y="194.7" class="st12" width="7.3" height="4.2"/>
								</g>
								<g>
									<defs>
										<polygon id="SVGID_5_" points="235.3,198.9 236.9,198.9 241.1,194.6 235.3,194.6 										"/>
									</defs>
									<clipPath id="SVGID_6_">
										<use xlink:href="#SVGID_5_"  style="overflow:visible;"/>
									</clipPath>
									<rect x="237.3" y="196.1" class="st13" width="3.3" height="1.1"/>
									<rect x="235.3" y="194.6" class="st14" width="7.3" height="4.2"/>
								</g>
								<g>
									<defs>
										<polygon id="SVGID_7_" points="236.9,200.4 236.9,198.9 241.1,194.6 241.1,200.4 										"/>
									</defs>
									<clipPath id="SVGID_8_">
										<use xlink:href="#SVGID_7_"  style="overflow:visible;"/>
									</clipPath>
									<rect x="238.5" y="195" class="st15" width="1.1" height="3.3"/>
									<rect x="236.9" y="193.1" class="st16" width="4.2" height="7.3"/>
								</g>
								<g>
									<defs>
										<polygon id="SVGID_9_" points="236.9,254.5 236.9,256 241.2,260.2 241.2,254.5 										"/>
									</defs>
									<clipPath id="SVGID_10_">
										<use xlink:href="#SVGID_9_"  style="overflow:visible;"/>
									</clipPath>
									<rect x="238.6" y="256.4" class="st17" width="1.1" height="3.3"/>
									<rect x="236.9" y="254.5" class="st18" width="4.2" height="7.3"/>
								</g>
								<g>
									<defs>
										<polygon id="SVGID_11_" points="235.4,256 236.9,256 241.2,260.2 235.4,260.2 										"/>
									</defs>
									<clipPath id="SVGID_12_">
										<use xlink:href="#SVGID_11_"  style="overflow:visible;"/>
									</clipPath>
									<rect x="237.4" y="257.6" class="st19" width="3.3" height="1.1"/>
									<rect x="235.4" y="256" class="st20" width="7.3" height="4.2"/>
								</g>
								<g>
									<defs>
										<polygon id="SVGID_13_" points="181.3,256 179.8,256 175.6,260.3 181.3,260.3 										"/>
									</defs>
									<clipPath id="SVGID_14_">
										<use xlink:href="#SVGID_13_"  style="overflow:visible;"/>
									</clipPath>
									<rect x="176.1" y="257.7" class="st21" width="3.3" height="1.1"/>
									<rect x="174" y="256.1" class="st22" width="7.3" height="4.2"/>
								</g>
								<g>
									<defs>
										<polygon id="SVGID_15_" points="179.8,254.5 179.8,256 175.6,260.3 175.6,254.5 										"/>
									</defs>
									<clipPath id="SVGID_16_">
										<use xlink:href="#SVGID_15_"  style="overflow:visible;"/>
									</clipPath>
									<rect x="177.1" y="256.5" class="st23" width="1.1" height="3.3"/>
									<rect x="175.6" y="254.5" class="st24" width="4.2" height="7.3"/>
								</g>
							</g>
						</g>
					</g>
				</g>
			</g>
			<g>
				<g>
					<g>
						<g>
							<g>
								<g>
									<rect x="101" y="248.9" class="st7" width="1.1" height="3.5"/>
									<rect x="99.5" y="246.8" class="st8" width="4.2" height="7.7"/>
								</g>
								<g>
									<rect x="101" y="241.2" class="st7" width="1.1" height="3.5"/>
									<rect x="99.5" y="239.1" class="st8" width="4.2" height="7.7"/>
								</g>
								<g>
									<rect x="101" y="233.5" class="st7" width="1.1" height="3.5"/>
									<rect x="99.5" y="231.3" class="st8" width="4.2" height="7.7"/>
								</g>
								<g>
									<rect x="101" y="225.8" class="st7" width="1.1" height="3.5"/>
									<rect x="99.5" y="223.6" class="st8" width="4.2" height="7.7"/>
								</g>
								<g>
									<rect x="101" y="218.1" class="st7" width="1.1" height="3.5"/>
									<rect x="99.5" y="215.9" class="st8" width="4.2" height="7.7"/>
								</g>
								<g>
									<rect x="101" y="210.3" class="st7" width="1.1" height="3.5"/>
									<rect x="99.5" y="208.2" class="st8" width="4.2" height="7.7"/>
								</g>
								<g>
									<rect x="101" y="202.6" class="st7" width="1.1" height="3.5"/>
									<rect x="99.5" y="200.5" class="st8" width="4.2" height="7.7"/>
								</g>
								<g>
									<rect x="107.3" y="196.2" class="st7" width="3.5" height="1.1"/>
									<rect x="105.2" y="194.7" class="st8" width="7.7" height="4.2"/>
								</g>
								<g>
									<rect x="115" y="196.2" class="st7" width="3.5" height="1.1"/>
									<rect x="113" y="194.7" class="st8" width="7.7" height="4.2"/>
								</g>
								<g>
									<rect x="122.7" y="196.2" class="st7" width="3.5" height="1.1"/>
									<rect x="120.7" y="194.7" class="st8" width="7.7" height="4.2"/>
								</g>
								<g>
									<rect x="130.5" y="196.2" class="st7" width="3.5" height="1.1"/>
									<rect x="128.4" y="194.7" class="st8" width="7.7" height="4.2"/>
								</g>
								<g>
									<rect x="138.2" y="196.2" class="st7" width="3.5" height="1.1"/>
									<rect x="136.1" y="194.7" class="st8" width="7.7" height="4.2"/>
								</g>
								<g>
									<rect x="145.9" y="196.1" class="st7" width="3.5" height="1.1"/>
									<rect x="143.8" y="194.6" class="st8" width="7.7" height="4.2"/>
								</g>
								<g>
									<rect x="153.6" y="196.1" class="st7" width="3.5" height="1.1"/>
									<rect x="151.6" y="194.6" class="st8" width="7.7" height="4.2"/>
								</g>
								<g>
									<rect x="162.5" y="202.5" class="st7" width="1.1" height="3.5"/>
									<rect x="160.8" y="200.4" class="st8" width="4.2" height="7.7"/>
								</g>
								<g>
									<rect x="162.5" y="210.2" class="st7" width="1.1" height="3.5"/>
									<rect x="160.8" y="208.1" class="st8" width="4.2" height="7.7"/>
								</g>
								<g>
									<rect x="162.5" y="217.9" class="st7" width="1.1" height="3.5"/>
									<rect x="160.8" y="215.9" class="st8" width="4.2" height="7.7"/>
								</g>
								<g>
									<rect x="162.5" y="225.6" class="st7" width="1.1" height="3.5"/>
									<rect x="160.8" y="223.6" class="st8" width="4.2" height="7.7"/>
								</g>
								<g>
									<rect x="162.5" y="233.4" class="st7" width="1.1" height="3.5"/>
									<rect x="160.8" y="231.3" class="st8" width="4.2" height="7.7"/>
								</g>
								<g>
									<rect x="162.5" y="241.1" class="st7" width="1.1" height="3.5"/>
									<rect x="160.9" y="239" class="st8" width="4.2" height="7.7"/>
								</g>
								<g>
									<rect x="162.5" y="248.8" class="st7" width="1.1" height="3.5"/>
									<rect x="160.9" y="246.7" class="st8" width="4.2" height="7.7"/>
								</g>
								<g>
									<rect x="153.7" y="257.6" class="st7" width="3.5" height="1.1"/>
									<rect x="151.6" y="256" class="st8" width="7.7" height="4.2"/>
								</g>
								<g>
									<rect x="146" y="257.6" class="st7" width="3.5" height="1.1"/>
									<rect x="143.9" y="256" class="st8" width="7.7" height="4.2"/>
								</g>
								<g>
									<rect x="138.3" y="257.6" class="st7" width="3.5" height="1.1"/>
									<rect x="136.2" y="256" class="st8" width="7.7" height="4.2"/>
								</g>
								<g>
									<rect x="130.6" y="257.7" class="st7" width="3.5" height="1.1"/>
									<rect x="128.4" y="256" class="st8" width="7.7" height="4.2"/>
								</g>
								<g>
									<rect x="122.9" y="257.7" class="st7" width="3.5" height="1.1"/>
									<rect x="120.7" y="256" class="st8" width="7.7" height="4.2"/>
								</g>
								<g>
									<rect x="115.1" y="257.7" class="st7" width="3.5" height="1.1"/>
									<rect x="113" y="256" class="st8" width="7.7" height="4.2"/>
								</g>
								<g>
									<rect x="107.4" y="257.7" class="st7" width="3.5" height="1.1"/>
									<rect x="105.3" y="256" class="st8" width="7.7" height="4.2"/>
								</g>
								<g>
									<defs>
										<polygon id="SVGID_17_" points="103.7,200.5 103.7,198.9 99.5,194.7 99.5,200.5 										"/>
									</defs>
									<clipPath id="SVGID_18_">
										<use xlink:href="#SVGID_17_"  style="overflow:visible;"/>
									</clipPath>
									<rect x="101" y="195.2" class="st25" width="1.1" height="3.3"/>
									<rect x="99.5" y="193.1" class="st26" width="4.2" height="7.3"/>
								</g>
								<g>
									<defs>
										<polygon id="SVGID_19_" points="105.2,198.9 103.7,198.9 99.5,194.7 105.2,194.7 										"/>
									</defs>
									<clipPath id="SVGID_20_">
										<use xlink:href="#SVGID_19_"  style="overflow:visible;"/>
									</clipPath>
									<rect x="99.9" y="196.2" class="st27" width="3.3" height="1.1"/>
									<rect x="97.9" y="194.7" class="st28" width="7.3" height="4.2"/>
								</g>
								<g>
									<defs>
										<polygon id="SVGID_21_" points="159.3,198.9 160.8,198.9 165.1,194.6 159.3,194.6 										"/>
									</defs>
									<clipPath id="SVGID_22_">
										<use xlink:href="#SVGID_21_"  style="overflow:visible;"/>
									</clipPath>
									<rect x="161.2" y="196.1" class="st29" width="3.3" height="1.1"/>
									<rect x="159.3" y="194.6" class="st30" width="7.3" height="4.2"/>
								</g>
								<g>
									<defs>
										<polygon id="SVGID_23_" points="160.8,200.4 160.8,198.9 165.1,194.6 165.1,200.4 										"/>
									</defs>
									<clipPath id="SVGID_24_">
										<use xlink:href="#SVGID_23_"  style="overflow:visible;"/>
									</clipPath>
									<rect x="162.4" y="195" class="st31" width="1.1" height="3.3"/>
									<rect x="160.8" y="193.1" class="st32" width="4.2" height="7.3"/>
								</g>
								<g>
									<defs>
										<polygon id="SVGID_25_" points="160.9,254.5 160.9,256 165.1,260.2 165.1,254.5 										"/>
									</defs>
									<clipPath id="SVGID_26_">
										<use xlink:href="#SVGID_25_"  style="overflow:visible;"/>
									</clipPath>
									<rect x="162.5" y="256.4" class="st33" width="1.1" height="3.3"/>
									<rect x="160.9" y="254.5" class="st34" width="4.2" height="7.3"/>
								</g>
								<g>
									<defs>
										<polygon id="SVGID_27_" points="159.3,256 160.9,256 165.1,260.2 159.3,260.2 										"/>
									</defs>
									<clipPath id="SVGID_28_">
										<use xlink:href="#SVGID_27_"  style="overflow:visible;"/>
									</clipPath>
									<rect x="161.4" y="257.6" class="st35" width="3.3" height="1.1"/>
									<rect x="159.3" y="256" class="st36" width="7.3" height="4.2"/>
								</g>
								<g>
									<defs>
										<polygon id="SVGID_29_" points="105.3,256 103.7,256 99.5,260.3 105.3,260.3 										"/>
									</defs>
									<clipPath id="SVGID_30_">
										<use xlink:href="#SVGID_29_"  style="overflow:visible;"/>
									</clipPath>
									<rect x="100" y="257.7" class="st37" width="3.3" height="1.1"/>
									<rect x="97.9" y="256.1" class="st38" width="7.3" height="4.2"/>
								</g>
								<g>
									<defs>
										<polygon id="SVGID_31_" points="103.7,254.5 103.7,256 99.5,260.3 99.5,254.5 										"/>
									</defs>
									<clipPath id="SVGID_32_">
										<use xlink:href="#SVGID_31_"  style="overflow:visible;"/>
									</clipPath>
									<rect x="101" y="256.5" class="st39" width="1.1" height="3.3"/>
									<rect x="99.5" y="254.5" class="st40" width="4.2" height="7.3"/>
								</g>
							</g>
						</g>
					</g>
				</g>
			</g>
		</g>
		<path class="st6" d="M186.9,249.2v-17.6c0,0,5.3-6.4,17.2,2c11.9,8.4,17.9,2.3,24.5,0l1.7-0.7l0.3,16.4L186.9,249.2z"/>
		<circle class="st6" cx="217" cy="219.3" r="6.9"/>
	</g>
</g>
<rect x="103" y="161.2" transform="matrix(0.6909 0.723 -0.723 0.6909 181.7937 -38.0467)" class="st7" width="64.8" height="64.8"/>
<rect x="112" y="170.2" transform="matrix(0.723 -0.6909 0.6909 0.723 -96.228 147.1683)" class="st41" width="46.8" height="46.8"/>
<path class="st42" d="M310,199.6c0,0-20.7,1.8-28.5-19.5c-0.5-1.3-1.6-2.2-3-2.4c-3.4-0.5-4.7,2.3-10.8,3.9
	c-4.7,1.3,1.5,8.3,3.4,10.8c12.4,17.1,16.6,15.3,36.7,16.4L310,199.6z"/>
<path class="st5" d="M305.5,232.7L289.1,293c0,0,10.1,1.8,28.6,1.5l-1.2-38.2L305.5,232.7z"/>
<path class="st5" d="M310.6,232l-1.4,59.4c0,0,9.8,9,27.3,3l-8.2-43.4L310.6,232z"/>
<path class="st6" d="M318.8,299.5h-36.7c0.2-1.5,0.7-4.6,1.7-5.9c3.2-4.1,6.3-3,6.3-3l27.5,3.9C317.7,294.5,318.9,299.4,318.8,299.5
	z"/>
<path class="st6" d="M337.1,299.4h-35.6c-0.3,0-0.5-0.3-0.4-0.5c0.4-1.6,1.3-4,2.3-5.1c0.8-1,1.7-1.7,2.6-2.3c1.7-1,3.6-1.4,5.6-1.1
	l24.8,3.9c0.2,0,0.3,0.2,0.4,0.3c0.2,0.8,0.7,3.2,0.9,4.2C337.5,299.2,337.3,299.4,337.1,299.4z"/>
<path class="st43" d="M308.9,266c-0.5,0.4,1.6,29.7,1.6,29.7"/>
<rect x="306.8" y="188.9" transform="matrix(0.9829 -0.1843 0.1843 0.9829 -30.8492 60.587)" class="st44" width="7.4" height="14.8"/>
<path class="st45" d="M312.8,188.3l1,5.2c-1.6,2.4-4.4,4.4-6.5,5.7l-1.7-8.9c0.1-0.2,0.3-0.5,0.4-0.7L312.8,188.3z"/>
<path class="st44" d="M303.8,175.3c0,0-6.7,9.5-3.2,19c0.2,0.7,0.8,1.1,1.5,1.3c2.4,0.5,8.5,1.4,10.2-1.5c2.2-3.7,6.3-13,2.9-15.8
	C311.8,175.5,303.8,175.3,303.8,175.3z"/>
<path class="st44" d="M312.4,187.1c0,0,5-2.4,6.9,0.8c1.9,3.2-5.5,6.3-6.5,3.3C311.7,188.1,312.4,187.1,312.4,187.1z"/>
<path class="st46" d="M300.8,181.4c0,0,0.9-3,2.3-1.7c1.4,1.3,2.3,1.6,7.4,0.7c5.9-1.1,3.3,7.6,3.3,7.6s1.9-2.1,3.5-1.5
	c0,0,1.3-9.5-2.2-10.8c-3.5-1.3-11.9-2.5-12.9-0.6S300.8,181.4,300.8,181.4z"/>
<ellipse transform="matrix(0.3069 -0.9517 0.9517 0.3069 33.8994 415.2949)" class="st6" cx="302.1" cy="184.4" rx="1" ry="0.5"/>
<ellipse transform="matrix(0.3069 -0.9517 0.9517 0.3069 37.2864 422.2738)" class="st6" cx="308.6" cy="185.5" rx="1" ry="0.5"/>
<path class="st7" d="M302.9,189.6c0.2,0,5.2,0.5,5.2,0.5s-3.4,6.2-5-0.5"/>
<path class="st42" d="M307.7,201c0,0,1.1,4.1,7.3-1.2l4.6,1c1.3,0.3,2.4,1,3.2,2.1c4.7,6.4,21.2,29.8,12,35.1
	c-10.6,6.2-33.8-7.5-33.8-7.5l3.2-24.2c0.2-1.6,1-3.1,2.2-4.2L307.7,201z"/>
<path class="st47" d="M313.9,190.6c0,0,1.6,0.3,1.8-0.7c0.2-1-0.7-1-0.7-1s2.7-1.6,3,0C318.3,190.4,315.2,191.8,313.9,190.6z"/>
<path class="st6" d="M326,308L326,308C326,308,326,308,326,308C326,308,326,308,326,308z"/>
<rect x="283.7" y="210.1" transform="matrix(0.9666 0.2564 -0.2564 0.9666 73.7394 -73.7192)" class="st7" width="71.7" height="71.7"/>
<rect x="293.7" y="220" transform="matrix(0.2564 -0.9666 0.9666 0.2564 -6.591132e-02 491.7793)" class="st48" width="51.8" height="51.8"/>
<ellipse transform="matrix(0.2564 -0.9666 0.9666 0.2564 17.8578 499.1338)" class="st41" cx="333.3" cy="238" rx="3.6" ry="3.6"/>
<circle class="st49" cx="300.9" cy="184.2" r="3.4"/>
<circle class="st49" cx="309.7" cy="185.5" r="3.5"/>
<path class="st44" d="M277.1,177.7l0.7-8.5l-2.3-4.9c-0.5-1.1-2-1.3-2.8-0.4c-1,1.1-1.9,2.6-1.6,4.1c0.7,2.9,1.8,6.8,1.8,6.8
	l-5.8,6.7C267,181.6,272.3,181.5,277.1,177.7z"/>
<line class="st50" x1="304.3" y1="184.2" x2="306.3" y2="184.6"/>
<rect x="183.8" y="203" transform="matrix(1 7.732807e-03 -7.732807e-03 1 1.7656 -1.6047)" class="st7" width="49.1" height="49.1"/>
<rect x="190.7" y="209.8" transform="matrix(7.732946e-03 -1 1 7.732946e-03 -20.7235 434.162)" class="st2" width="35.5" height="35.5"/>
<rect x="216.4" y="108" transform="matrix(0.7566 0.6539 -0.6539 0.7566 155.4778 -129.9336)" class="st7" width="71.7" height="71.7"/>
<rect x="226.4" y="118" transform="matrix(0.6539 -0.7566 0.7566 0.6539 -21.5364 240.6394)" class="st2" width="51.8" height="51.8"/>
<g>
	<path class="st48" d="M183.1,114.1c-1,0-1.9,0.1-2.8,0.4c-1.9-7.2-8.4-12.4-16.2-12.4c-8.9,0-16.2,7-16.7,15.7
		c-0.6-0.1-1.2-0.2-1.9-0.2c-5,0-9,4-9,9s4,9,9,9h37.3v0c0.1,0,0.2,0,0.3,0c5.9,0,10.8-4.8,10.8-10.8
		C193.8,118.9,189,114.1,183.1,114.1z"/>
	<g>
		<rect x="160.5" y="123.7" class="st51" width="9.2" height="11.9"/>
		<polygon class="st51" points="165.1,117.7 169.1,121.2 173,124.6 165.1,124.6 157.2,124.6 161.1,121.2 		"/>
	</g>
</g>
<circle class="st7" cx="191.2" cy="143.3" r="6.8"/>
<path class="st52" d="M197.9,156.3h-50c-2.8,0-5-2.3-5-5v-4.9c0-2.8,2.3-5,5-5h50c2.8,0,5,2.3,5,5v4.9
	C202.9,154,200.6,156.3,197.9,156.3z"/>
<text transform="matrix(1 0 0 1 153.188 152.2404)" class="st7 st53 st54">5000</text>
<g class="st55">
	<line class="st56" x1="191.2" y1="139.6" x2="191.2" y2="147.1"/>
	<line class="st56" x1="195" y1="143.3" x2="187.5" y2="143.3"/>
</g>
<g>
	<g class="st57">
		
			<rect x="115.3" y="163.5" transform="matrix(0.734 -0.6792 0.6792 0.734 -94.6045 143.6803)" class="st58" width="41.7" height="58.1"/>
	</g>
	<path class="st59" d="M144.5,177.4c0,0-1.1,5.5,0.7,6.8c1.8,1.3,2.3,1.2,6,0.4l-1.6,3.7l-4.7,1.7l-3.7,0.3l-2.7-4l2.8-4.7
		L144.5,177.4z"/>
	<path class="st60" d="M149.6,188.4l-4.7,1.7l-3.7,0.3l-2.7-4l2.8-4.7l3.2-4.3c0,0-0.1,0.5-0.2,1.2c-0.2,1.7-0.4,4.7,0.9,5.6
		c1.8,1.3,2.3,1.2,5.9,0.5l0.1,0L149.6,188.4z"/>
	<path class="st61" d="M149.6,188.4l-4.7,1.7l-3.7,0.3l-2.7-4l2.8-4.7l3.2-4.3c0,0-0.1,0.5-0.2,1.2c-1.2,2.1-2.9,5.7-1.2,7.5
		c1.9,2.1,6.2-0.3,7.9-1.4l0.1,0L149.6,188.4z"/>
	<path class="st62" d="M143.4,176c0,0-0.7-0.9-1.3,0.5c-0.6,1.4-3.2,5.2-4.3,5.5s-2.7,2.2-4.6,0.8l-1.5,2.3c0,0-4.1,4-4.9,4.4
		c-0.8,0.4-4.2,3.5-4.5,3.9c-0.3,0.4-2.7,2.5-3,2.4c-0.3-0.2-1.6,0.7-1,1.7c0.6,1,3.8,4.7,4.2,5.6s4.9,5.3,4.9,5.3s2.1,1.7,2.7,2.1
		c0.6,0.3,1.1,0.1,1.7-0.8s5.3-6.6,6.2-7.1c0.8-0.5,7.5-6.6,7.5-6.6s-0.8-1.7,0.5-2.8c1.2-1.1,4.1-4.7,7.1-5.6c0,0-0.2-1.3-0.4-1.4
		c-0.2,0-1-1.6-1-1.6s-6.3,4.6-8.7,2c-2.5-2.6,2.1-9.1,2.1-9.1S145.6,176.8,143.4,176z"/>
	<path class="st61" d="M128.8,196.7c0,0-0.8,1.8-0.2,2.9C129.2,200.7,128.8,196.7,128.8,196.7z"/>
	<path class="st61" d="M127,196.8c0,0,0.2,3.1-0.2,3.3"/>
	<path class="st61" d="M132.1,185.4c0,0,0.4,2.3-0.3,2.9"/>
	<path class="st61" d="M130,189.1c0,0,1-1.7,1.1-2.2"/>
	<path class="st61" d="M128.9,188.9c0,0-0.6,1.7-0.9,2"/>
	<path class="st61" d="M141.8,198.1c0,0-2.2-1.3-2.8-0.5"/>
	<path class="st61" d="M133.9,202.3c0,0,5-0.2,4.2-0.8C137.5,200.8,133.9,202.3,133.9,202.3z"/>
	<g class="st63">
		<path class="st64" d="M145.9,193c0.6-0.5,1.5-1.6,2.6-2.6c-1.3,1.2-2.4,2.4-3,3c-1.2,1.1-0.5,2.7-0.5,2.8c0.3-0.2,0.4-0.4,0.4-0.4
			S144.7,194.1,145.9,193z"/>
		<path class="st64" d="M131.3,209.9c-0.1,0.1-0.2,0.3-0.3,0.4c0.3-0.2,0.5-0.5,0.7-0.8c0.5-0.7,4.1-5.1,5.6-6.6
			C136.1,203.8,131.8,209.1,131.3,209.9z"/>
		<path class="st64" d="M123,192.5c1.2-1.1,2.8-2.5,3.4-2.7c0.4-0.2,1.8-1.4,3-2.5c-1.1,1-2.2,2-2.6,2.1
			C126.2,189.7,124.2,191.4,123,192.5z"/>
		<path class="st64" d="M143,176.4c2.2,0.8,1.6,1.2,1.6,1.2s-4.6,6.5-2.1,9.1c2.5,2.6,8.8-2,8.8-2s0.8,1.6,1,1.6
			c0.2,0,0.3,0.8,0.4,1.1c0.2-0.1,0.3-0.1,0.5-0.2c0,0-0.2-1.3-0.4-1.4c-0.2,0-1-1.6-1-1.6s-6.3,4.6-8.7,2c-2.5-2.6,2.1-9.1,2.1-9.1
			s0.5-0.4-1.6-1.2c0,0-0.5-0.7-1.1,0.1C142.7,176,143,176.4,143,176.4z"/>
		<path class="st64" d="M118.8,196c0.3,0.1,1.8-1.1,2.6-1.9c-0.8,0.7-1.9,1.6-2.1,1.5s-0.7,0.1-0.9,0.5
			C118.5,196,118.7,196,118.8,196z"/>
		<path class="st64" d="M137.4,182.3c0.4-0.2,0.7-0.4,1-0.7c-0.2,0.1-0.3,0.2-0.5,0.3c-1,0.2-2.7,2.2-4.6,0.8l-0.3,0.5
			C134.8,184.4,136.4,182.6,137.4,182.3z"/>
	</g>
</g>
<g>
	<path class="st59" d="M328.3,237.2c-1.3,1.4-9.9-2.7-9.9-2.7l0.1-0.2l0.5-1.2l9.5,2.6l-0.2,1.3L328.3,237.2z"/>
	<path class="st61" d="M328.3,237.2c-1.3,1.4-9.9-2.7-9.9-2.7l0.1-0.2c0.4,0.1,7,1.8,9.9,2.7L328.3,237.2z"/>
	<path class="st59" d="M318.3,234.5L318.3,234.5c0,0-1.7,0-6.1,6.1s-7.7,14.7-7.7,14.7s-2.1,2,3.9,3.8c0,0-0.9,1.4,2.6,2.1
		c3.5,0.7,3,0.6,3,0.6s2.6-0.8,3.5-0.3c0.9,0.5,1.5,0.8,2.3,1.9c0.8,1.2,4.3,1.7,4.5,1.1c0.1-0.3,0.2-0.7,0.3-1c0,0,5.1,1.7,5.1-2.3
		c0.1-4,0.9-10.3,0.9-10.3s0.6-12.7-2.3-13.7S318.3,234.5,318.3,234.5z"/>
	
		<rect x="301.5" y="248.9" transform="matrix(0.3522 -0.9359 0.9359 0.3522 -30.8063 453.5588)" class="st61" width="21.5" height="0.2"/>
	
		<rect x="305.7" y="250.8" transform="matrix(0.2684 -0.9633 0.9633 0.2684 -9.788 488.9212)" class="st61" width="22.6" height="0.2"/>
	
		<rect x="311" y="252.3" transform="matrix(0.2287 -0.9735 0.9735 0.2287 2.9095 508.5104)" class="st61" width="22.7" height="0.2"/>
	<path class="st61" d="M324.4,263.5c3.1-12.5,3.4-21.6,3.4-21.7l0.2,0c0,0.1-0.2,9.2-3.4,21.8L324.4,263.5z"/>
	<path class="st61" d="M318.3,235.8c0,0-0.3,0.1-0.3,0.9"/>
	<path class="st61" d="M319.1,236c0,0-0.9,0.3-0.4,1.3"/>
	<path class="st61" d="M326.3,238c0,0,0.8,1.3,0.5,1.5"/>
	<path class="st61" d="M327.2,238c0,0-0.2,1.3,0.3,1.8"/>
</g>
<g>
	<path class="st44" d="M325.7,233.5c0,0-4.8,10.7-3.6,12.4c1.2,1.7,3.7-1.8,3.7-1.8s0-4.6-2,1.1c-1.2,3.5,6.8,11.8,11,4.5
		c3.8-6.6,2.7-10,2.7-10L325.7,233.5z"/>
	<path class="st42" d="M315,207.6c0,0,11.7,8.9,7.6,28c-0.3,1.3-0.4,2.7,0.5,3.8c0,0,8,2.4,13.1,5.9c1.5,1,2.7-0.1,2.8-1.8
		c0.2-8.8-3.2-32.3-17.6-41.8L315,207.6z"/>
</g>
<path class="st66" d="M251.5,155.5c-1.5-0.9-2.1-3.5-0.5-4.6c0.8-0.5,1.6-0.6,2.3-0.3c1.1,0.4,1.9,1.5,1.9,2.8
	C255.1,155.1,253.1,156.4,251.5,155.5z"/>
<path class="st66" d="M239.4,145.3c-1.3-1.4-0.6-3.6,1.1-4.2c1.3-0.4,2.5,0.1,3.3,1.1c0.4,0.7,0.4,1.6,0.1,2.4
	C243.2,146.3,240.7,146.8,239.4,145.3z"/>
<path class="st67" d="M244.8,144.2c0.4-2.1-1.1-3.9-3.1-4c0,0-0.1,0-0.1,0c-1-0.1-2,0.4-2.7,1c-1.2-1-2.7-2.3-2.7-3.9
	c0-1.9,2.1-2.8,3.8-2.6c1.5,0.2,2.8,1.1,3.9,2.1l0.2,0.2l0.3-0.1c3.8-1.7,8.1-2.5,12-1.1c4.6,1.6,7.6,6.3,6.5,11.2
	c-0.4,1.7-1.3,3.2-2.4,4.4l-0.5,0.5l0.6,0.6c0.4,0.5,0.8,1,1.1,1.5c0.8,1.5,0.8,3.5-0.6,4.7c-1.5,1.2-3.2,0.2-4.4-0.9
	c-0.7-0.6-1.4-1.3-2.1-1.9c0.9-0.7,1.4-1.9,1.2-3.1c-0.2-1.2-0.9-2-1.9-2.5c-0.6-0.4-1.3-0.6-2.1-0.6c-1,0.1-1.8,0.7-2.2,1.4
	c-1.9-1.8-3.8-3.5-5.7-5.3C244.3,145.5,244.6,144.9,244.8,144.2z"/>
<path class="st68" d="M255.9,139.6c0.4-0.1,0.7-0.6,0.7-1.1c0-1.1-1.6-1.7-2.5-2c-2.3-0.7-4.8-0.1-6.7,1.4c-0.1,0.1-0.1,0.3,0,0.4
	c1,0.9,2,1.8,3,2.6c0.7,0.6,1.2,1.1,2.1,0.7c1.1-0.5,2.2-1.2,3.1-1.9C255.7,139.7,255.8,139.6,255.9,139.6z M252.2,141.1
	c-0.8,0.2-1.8-1-2.4-1.5l-1.7-1.5c1.1-0.8,2.5-1.2,3.9-1.3c0.7,0,1.4,0.1,2.1,0.3c0.3,0.1,0.7,0.2,1,0.4c0.3,0.1,0.5,0.2,0.7,0.5
	c0.1,0.2,0.3,0.6,0.3,0.9c-0.1,0.1-0.2,0.2-0.3,0.3c-0.1,0-0.4,0.2-0.4,0.3c-0.3,0.2-0.6,0.3-0.9,0.5
	C253.7,140.3,253,140.9,252.2,141.1z"/>
<path class="st68" d="M260.7,148c2.1-1.5,1.1-4.5-0.1-6.2c-0.6-0.8-1.4-1.1-2.4-0.7c-1,0.4-1.9,1.2-2.8,1.9c-0.1,0-0.1,0.1-0.2,0.1
	c-0.2,0.1-0.3,0.3-0.4,0.4c0,0-0.1,0.1-0.1,0.1c-0.1,0-0.1,0.1,0,0.2c-0.2,0.4-0.1,0.9,0.3,1.4c0.5,0.6,1.1,1.1,1.7,1.7
	c0.4,0.4,0.8,0.7,1.2,1C258.7,148.6,259.8,148.6,260.7,148z M256,145.2c-0.4-0.4-0.9-1-0.4-1.5c0.3-0.3,0.7-0.5,1-0.7
	c0.1-0.1,0.1-0.1,0.2-0.2c0.2-0.1,0.3-0.2,0.5-0.3c0.8-0.5,1.8-1.4,2.6-0.4c1.1,1.3,2.1,3.9,0.5,5.2
	C258.8,148.7,257,146.2,256,145.2z"/>
<path class="st7" d="M253.7,140.5c0.7-0.4,2.2-0.9,2.4-1.8c0.1-0.3,0-0.5-0.2-0.7c-0.1,0-0.1-0.1-0.2-0.1c-0.1-0.1-0.2-0.3-0.3-0.3
	c-2.2-1-5.3-1.2-7.3,0.3c-0.2,0.2-0.3,0.6,0,0.8c0.8,0.9,1.8,1.5,2.8,2c0,0.2,0.1,0.4,0.4,0.4C252.1,141.5,252.9,140.9,253.7,140.5z
	"/>
<path class="st7" d="M261.4,145.5c0-1.1-0.3-2.8-1.3-3.5c-0.1-0.1-0.2-0.1-0.3-0.1c0-0.1-0.1-0.2-0.2-0.3c-0.1-0.1-0.2-0.1-0.3-0.1
	c-1.4,0.1-3.7,0.8-4.1,2.3c-0.2,0.6,0.1,1.1,0.5,1.5c0.4,0.3,0.7,0.6,1.1,0.9c0.8,0.8,1.7,1.8,3,1.5
	C260.9,147.5,261.4,146.5,261.4,145.5z"/>
<path class="st7" d="M242.4,143.8c0.2-0.7-0.5-1.4-1.2-1.1c-0.2,0.1-0.2,0.2-0.3,0.3c-0.3,0.3-0.3,0.8,0.1,1.1c0,0,0,0,0.1,0
	C241.6,144.5,242.2,144.3,242.4,143.8z"/>
<path class="st7" d="M253.5,152.4c-0.3-0.7-1.2-0.7-1.7-0.2c-0.5,0.5-0.2,1.3,0.4,1.6c0,0,0.1,0,0.1,0c0,0,0,0,0,0c0,0,0,0,0,0
	c0,0,0.1,0,0.1,0C253.3,154,253.8,153.1,253.5,152.4z"/>
<path class="st66" d="M255.8,152.8c-0.2-1.2-0.9-2-1.9-2.5c-0.6-0.4-1.3-0.6-2.1-0.6c-1.9,0.2-3,1.9-2.6,3.8c0.4,1.9,2,3.4,4,3
	C255,156.2,256.1,154.6,255.8,152.8z M251.5,155.5c-1.5-0.9-2.1-3.5-0.5-4.6c0.8-0.5,1.6-0.6,2.3-0.3c1.1,0.4,1.9,1.5,1.9,2.8
	C255.1,155.1,253.1,156.4,251.5,155.5z"/>
<path class="st66" d="M244.8,144.2c0.4-2.1-1.1-3.9-3.1-4c0,0-0.1,0-0.1,0c-1.6-0.1-3.3,1.1-3.5,2.7c-0.3,1.9,0.9,3.6,2.8,4
	C242.6,147.2,244.4,146.1,244.8,144.2z M239.4,145.3c-1.3-1.4-0.6-3.6,1.1-4.2c1.3-0.4,2.5,0.1,3.3,1.1c0.4,0.7,0.4,1.6,0.1,2.4
	C243.2,146.3,240.7,146.8,239.4,145.3z"/>
<path class="st7" d="M255.7,139.8c0.1-0.1,0.2-0.1,0.2-0.2c0.4-0.1,0.7-0.6,0.7-1.1c0-1.1-1.6-1.7-2.5-2c-2.3-0.7-4.8-0.1-6.7,1.4
	c-0.1,0.1-0.1,0.3,0,0.4c1,0.9,2,1.8,3,2.6c0.7,0.6,1.2,1.1,2.1,0.7C253.6,141.2,254.7,140.4,255.7,139.8z M252.2,141.1
	c-0.8,0.2-1.8-1-2.4-1.5l-1.7-1.5c1.1-0.8,2.5-1.2,3.9-1.3c0.7,0,1.4,0.1,2.1,0.3c0.3,0.1,0.7,0.2,1,0.4c0.3,0.1,0.5,0.2,0.7,0.5
	c0.1,0.2,0.3,0.6,0.3,0.9c-0.1,0.1-0.2,0.2-0.3,0.3c-0.1,0-0.4,0.2-0.4,0.3c-0.3,0.2-0.6,0.3-0.9,0.5
	C253.7,140.3,253,140.9,252.2,141.1z"/>
<path class="st7" d="M260.7,148c2.1-1.5,1.1-4.5-0.1-6.2c-0.6-0.8-1.4-1.1-2.4-0.7c-1,0.4-1.9,1.2-2.8,1.9c-0.1,0-0.1,0.1-0.2,0.1
	c-0.2,0.1-0.3,0.3-0.4,0.4c0,0-0.1,0.1-0.1,0.1c-0.1,0-0.1,0.1,0,0.2c-0.2,0.4-0.1,0.9,0.3,1.4c0.5,0.6,1.1,1.1,1.7,1.7
	c0.4,0.4,0.8,0.7,1.2,1C258.7,148.6,259.8,148.6,260.7,148z M256,145.2c-0.4-0.4-0.9-1-0.4-1.5c0.3-0.3,0.7-0.5,1-0.7
	c0.1-0.1,0.1-0.1,0.2-0.2c0.2-0.1,0.3-0.2,0.5-0.3c0.8-0.5,1.8-1.4,2.6-0.4c1.1,1.3,2.1,3.9,0.5,5.2
	C258.8,148.7,257,146.2,256,145.2z"/>
<g>
	<path class="st69" d="M261.7,154.1c-0.3-0.6-0.7-1.1-1.1-1.5l-0.6-0.6l0.5-0.5c1-1,1.7-2.2,2.2-3.5c-2.6,2.2-6.7,2.7-10,1.5
		c-3.1-1.1-5.7-3.3-7.9-5.9c0,0.3,0,0.5-0.1,0.8c-0.1,0.7-0.5,1.2-0.9,1.7c1.9,1.8,3.8,3.5,5.7,5.3c0.4-0.8,1.2-1.3,2.2-1.4
		c0.8-0.1,1.5,0.1,2.1,0.6c1,0.4,1.7,1.3,1.9,2.5c0.2,1.2-0.3,2.4-1.2,3.1c0.7,0.6,1.4,1.3,2.1,1.9c1.2,1.1,2.9,2.2,4.4,0.9
		C262.6,157.6,262.5,155.6,261.7,154.1z"/>
	<path class="st69" d="M236.2,137.4c0,1.6,1.5,2.9,2.7,3.9c0.7-0.7,1.7-1.1,2.7-1c0,0,0,0,0.1,0c0.3,0,0.5,0,0.8,0.1
		c-0.7-1-1.2-2-1.3-3.2c0-0.3,0-0.7,0.2-1c0.2-0.3,0.4-0.5,0.7-0.6c-0.6-0.4-1.3-0.6-2-0.7C238.3,134.6,236.2,135.5,236.2,137.4z"/>
</g>
<path class="st68" d="M205.6,226.9c-0.7,0.1-1,0.7-1,1.3c0,0.1,0,0.2,0,0.4c0,0.1,0,0.3,0.1,0.4c0,0.2,0.2,0.2,0.3,0.1
	c0.6,0.3,1.4,0,1.7-0.6C207.1,227.7,206.6,226.7,205.6,226.9z M206.1,227.8c0.1,0.3-0.2,0.7-0.5,0.7c-0.2,0-0.3,0-0.4-0.1
	c0-0.2,0.1-0.4,0.2-0.6C205.5,227.6,206,227.4,206.1,227.8z"/>
<path class="st70" d="M212.8,224.5c1.6-0.4,2.8,1.2,3.3,2.6c0.9,2.6,0.2,5.8-1.8,7.7c-2,1.9-5.2,2.6-7.8,1.4c-2.5-1.2-4.3-4-3.9-6.8
	c0.2-1.6,1.2-3.3,2.9-3.8c1.5-0.4,3.2,0.2,3.8,1.6c-0.1,0.2-0.1,0.3-0.2,0.5c-0.1,0.3,0.4,0.5,0.5,0.2
	C210.3,226.6,211.2,224.8,212.8,224.5z"/>
<path class="st68" d="M216.4,220.8c-0.6,0.5-1.4,0.9-2.2,1.2c-0.7,0.2-1.4,0.4-2.1,0.4c-0.6,0-1.2-0.1-1.7-0.1c0,0,0-0.1,0-0.1
	c0.9-1.2,1.8-2.3,3.3-2.8c1.3-0.4,2.6-0.3,3.9,0.2C217.1,220,216.8,220.4,216.4,220.8z"/>
<path class="st70" d="M213.1,223.6c-1.8,0.1-2.8,1.5-3.5,2.9c-0.6-1-1.7-1.7-2.9-1.8c-1.6-0.1-3.1,0.8-3.9,2.2
	c-1.8,3-0.6,6.8,1.9,8.9c2.6,2.2,6.5,2.1,9.3,0.2c2.9-2,4-5.9,2.9-9.2C216.3,225.2,215,223.5,213.1,223.6z M216.1,227
	c0.9,2.6,0.2,5.8-1.8,7.7c-2,1.9-5.2,2.6-7.8,1.4c-2.5-1.2-4.3-4-3.9-6.8c0.2-1.6,1.2-3.3,2.9-3.8c1.5-0.4,3.2,0.2,3.8,1.6
	c-0.1,0.2-0.1,0.3-0.2,0.5c-0.1,0.3,0.4,0.5,0.5,0.2c0.7-1.4,1.6-3.1,3.2-3.5C214.5,224.1,215.6,225.7,216.1,227z"/>
<path class="st66" d="M210.3,218.5c-0.2,0.6-0.3,1.3-0.4,2c-0.1,0.8-0.2,1.5-0.3,2.3c-0.1,1.4-0.2,2.9-0.1,4.3c0,0.2,0.3,0.1,0.3,0
	c0.1-1.4,0.2-2.8,0.4-4.2c0.1-0.7,0.2-1.4,0.3-2c0.1-0.7,0.4-1.4,0.4-2.2C211,218.3,210.4,218.2,210.3,218.5z"/>
<path class="st68" d="M217.9,218.8c-1.5-0.7-3.2-0.7-4.7-0.1c-1.4,0.6-2.9,2-3.1,3.6c0,0,0,0.1,0.1,0c0.9-1.3,1.8-2.5,3.4-3
	c1.3-0.4,2.8-0.3,4,0.3C218.1,219.8,218.4,219.1,217.9,218.8z"/>
<path class="st68" d="M217.8,219.2c-0.5,0.5-0.9,1.1-1.5,1.6c-0.6,0.5-1.4,0.9-2.2,1.2c-0.7,0.2-1.4,0.4-2.1,0.4
	c-0.7,0-1.4-0.1-2-0.1c0,0,0,0,0,0c1.2,0.9,3.2,0.7,4.5,0.3c1.4-0.4,3.4-1.6,3.9-3.1C218.5,219.2,218.1,219,217.8,219.2z"/>
<path class="st7" d="M207,226.1c-1.3-0.4-2.6,0.2-3.1,1.4c-0.7,1.3-0.2,3,0.4,4.2c0,0,0.1,0,0.1,0c-0.6-2.1,0.1-4.7,2.6-4.9
	C207.4,226.9,207.3,226.3,207,226.1z"/>
<path class="st7" d="M213.1,225.4c-0.5-0.1-0.7,0.2-1,0.5c-0.2,0.3-0.5,0.5-0.7,0.8c-0.1,0.2,0.1,0.4,0.3,0.2
	c0.2-0.2,0.4-0.4,0.7-0.5c0.3-0.1,0.6,0.1,0.9-0.2C213.5,226,213.5,225.5,213.1,225.4z"/>
</svg>
