<?xml version="1.0" encoding="utf-8"?>
<!-- Generator: Adobe Illustrator 23.1.1, SVG Export Plug-In . SVG Version: 6.00 Build 0)  -->
<svg version="1.1" id="Capa_1" xmlns="http://www.w3.org/2000/svg" xmlns:xlink="http://www.w3.org/1999/xlink" x="0px" y="0px"
	 viewBox="0 0 512 512" style="enable-background:new 0 0 512 512;" xml:space="preserve">
<style type="text/css">
	.st0{fill:#FFFFFF;}
</style>
<g>
	<g>
		<path class="st0" d="M256,149.6c-40.2,0-72.9,32.7-72.9,72.9s32.7,72.9,72.9,72.9s72.9-32.7,72.9-72.9S296.2,149.6,256,149.6z
			 M256,263c-22.3,0-40.5-18.2-40.5-40.5c0-22.3,18.2-40.5,40.5-40.5s40.5,18.2,40.5,40.5S278.3,263,256,263z"/>
	</g>
</g>
<g>
	<g>
		<path class="st0" d="M256,262.5c-59.9,0-108.6,48.7-108.6,108.6v24.3c0,8.9,7.3,16.2,16.2,16.2c8.9,0,16.2-7.3,16.2-16.2V371
			c0-42,34.2-76.2,76.2-76.2s76.2,34.2,76.2,76.2v24.3c0,8.9,7.3,16.2,16.2,16.2c8.9,0,16.2-7.3,16.2-16.2V371
			C364.6,311.2,315.9,262.5,256,262.5z"/>
	</g>
</g>
<g>
	<g>
		<path class="st0" d="M403.4,100.5c-40.2,0-72.9,32.7-72.9,72.9s32.7,72.9,72.9,72.9c40.2,0,72.9-32.7,72.9-72.9
			S443.6,100.5,403.4,100.5z M403.4,213.9c-22.3,0-40.5-18.2-40.5-40.5s18.2-40.5,40.5-40.5s40.5,18.2,40.5,40.5
			S425.8,213.9,403.4,213.9z"/>
	</g>
</g>
<g>
	<g>
		<path class="st0" d="M403.4,213.3c-49.6,0-93,33.7-105.3,81.8c-2.2,8.7,3,17.5,11.7,19.7c8.7,2.2,17.5-3,19.7-11.7
			c8.7-33.9,39.1-57.5,74-57.5c42,0,76.2,34.2,76.2,76.2v24.3c0,8.9,7.3,16.2,16.2,16.2c8.9,0,16.2-7.3,16.2-16.2v-24.3
			C512,262,463.3,213.3,403.4,213.3z"/>
	</g>
</g>
<g>
	<g>
		<path class="st0" d="M108.6,100.5c-40.2,0-72.9,32.7-72.9,72.9s32.7,72.9,72.9,72.9c40.2,0,72.9-32.7,72.9-72.9
			S148.8,100.5,108.6,100.5z M108.6,213.9c-22.3,0-40.5-18.2-40.5-40.5s18.2-40.5,40.5-40.5s40.5,18.2,40.5,40.5
			S130.9,213.9,108.6,213.9z"/>
	</g>
</g>
<g>
	<g>
		<path class="st0" d="M213.4,294.6c-12.3-47.9-55.4-81.3-104.8-81.3C48.7,213.3,0,262,0,321.9v24.3c0,8.9,7.3,16.2,16.2,16.2
			c8.9,0,16.2-7.3,16.2-16.2v-24.3c0-42,34.2-76.2,76.2-76.2c34.6,0,64.8,23.4,73.4,57c2.2,8.7,11,13.9,19.7,11.7
			C210.4,312.1,215.6,303.3,213.4,294.6z"/>
	</g>
</g>
</svg>
