<?xml version="1.0" encoding="utf-8"?>
<!-- Generator: Adobe Illustrator 21.0.2, SVG Export Plug-In . SVG Version: 6.00 Build 0)  -->
<svg version="1.1" id="Layer_1" xmlns="http://www.w3.org/2000/svg" xmlns:xlink="http://www.w3.org/1999/xlink" x="0px" y="0px"
	 viewBox="0 0 100 100" style="enable-background:new 0 0 100 100;" xml:space="preserve">
<style type="text/css">
	.st0{fill:#fff;}
	.st1{fill:#5F6B8A;}
</style>
<path class="st0" d="M36.1,77.4l-14.3,7.8c-0.8,0.5-1.6,1-2.3,1.6c8.4,7.1,19.2,11.3,31,11.3c11.7,0,22.4-4.2,30.8-11.1
	c-0.8-0.6-1.6-1.2-2.5-1.7l-15.4-7.7c-2-1-3.2-3-3.2-5.2v-6c0.4-0.5,0.9-1.1,1.5-1.9c2.1-3,3.7-6.2,4.8-9.6c2-0.6,3.4-2.4,3.4-4.6
	v-6.4c0-1.4-0.6-2.7-1.6-3.6V31c0,0,1.9-14.5-17.7-14.5S32.7,31,32.7,31v9.3c-1,0.9-1.6,2.1-1.6,3.6v6.4c0,1.7,0.9,3.2,2.2,4
	c1.6,7,5.8,12,5.8,12v5.9C39.2,74.4,38,76.3,36.1,77.4z"/>
<g>
	<path class="st1" d="M51.3,2C24.7,1.6,2.8,22.7,2.4,49.2C2.1,64.3,8.8,77.8,19.5,86.8c0.7-0.6,1.4-1.2,2.3-1.6l14.3-7.8
		c1.9-1,3.1-3,3.1-5.1v-5.9c0,0-4.2-5-5.8-12c-1.3-0.9-2.2-2.4-2.2-4v-6.4c0-1.4,0.6-2.7,1.6-3.6V31c0,0-1.9-14.5,17.7-14.5
		S68.1,31,68.1,31v9.3c1,0.9,1.6,2.1,1.6,3.6v6.4c0,2.2-1.5,4-3.4,4.6c-1.1,3.4-2.7,6.7-4.8,9.6c-0.5,0.7-1,1.4-1.5,1.9v6
		c0,2.2,1.3,4.2,3.2,5.2l15.4,7.7c0.9,0.5,1.8,1,2.5,1.7c10.4-8.6,17-21.6,17.3-36.1C98.9,24.3,77.8,2.5,51.3,2z"/>
</g>
</svg>
