<?xml version="1.0" encoding="utf-8"?>
<!-- Generator: Adobe Illustrator 21.0.2, SVG Export Plug-In . SVG Version: 6.00 Build 0)  -->
<svg version="1.1" id="Layer_1" xmlns="http://www.w3.org/2000/svg" xmlns:xlink="http://www.w3.org/1999/xlink" x="0px" y="0px"
	 viewBox="0 0 100 100" style="enable-background:new 0 0 100 100;" xml:space="preserve">
<style type="text/css">
	.st0{fill:#E7ECED;}
	.st1{fill:#556080;}
</style>
<path class="st0" d="M35.2,77.6l-14.5,7.9c-0.9,0.5-1.6,1-2.3,1.7c8.5,7.2,19.4,11.5,31.4,11.5c11.9,0,22.8-4.2,31.2-11.3
	c-0.8-0.7-1.6-1.3-2.6-1.7l-15.6-7.8c-2-1-3.3-3.1-3.3-5.3v-6.1c0.4-0.5,0.9-1.1,1.5-1.9c2.1-3,3.7-6.3,4.8-9.8
	c2-0.6,3.5-2.5,3.5-4.7v-6.5c0-1.4-0.6-2.7-1.6-3.6v-9.4c0,0,1.9-14.7-17.9-14.7S31.8,30.5,31.8,30.5V40c-1,0.9-1.6,2.2-1.6,3.6v6.5
	c0,1.7,0.9,3.2,2.3,4.1c1.6,7.1,5.9,12.2,5.9,12.2v6C38.3,74.5,37.1,76.5,35.2,77.6z"/>
<g>
	<path class="st1" d="M50.6,1.1C23.7,0.7,1.5,22.1,1,49.1C0.7,64.3,7.5,78,18.4,87.2c0.7-0.6,1.5-1.2,2.3-1.6l14.5-7.9
		c1.9-1,3.1-3,3.1-5.2v-6c0,0-4.3-5.1-5.9-12.2c-1.4-0.9-2.3-2.4-2.3-4.1v-6.5c0-1.4,0.6-2.7,1.6-3.6v-9.4c0,0-1.9-14.7,17.9-14.7
		s17.9,14.7,17.9,14.7V40c1,0.9,1.6,2.2,1.6,3.6v6.5c0,2.2-1.5,4-3.5,4.7c-1.1,3.5-2.7,6.8-4.8,9.8c-0.5,0.8-1,1.4-1.5,1.9v6.1
		c0,2.2,1.3,4.3,3.3,5.3l15.6,7.8c0.9,0.5,1.8,1.1,2.6,1.7c10.5-8.8,17.3-21.9,17.5-36.6C99,23.8,77.5,1.6,50.6,1.1z"/>
</g>
</svg>
