<svg id="Layer_1" data-name="Layer 1" xmlns="http://www.w3.org/2000/svg" xmlns:xlink="http://www.w3.org/1999/xlink" viewBox="0 0 751.24 934.89"><defs><style>.cls-1{fill:url(#linear-gradient);}.cls-2{fill:#c8f29c;}.cls-3{fill:url(#linear-gradient-2);}.cls-4{fill:#aac0d1;}.cls-5{fill:#8da5b5;}.cls-6{fill:url(#linear-gradient-3);}.cls-7{fill:url(#linear-gradient-4);}.cls-8{fill:url(#linear-gradient-5);}.cls-9{fill:#fff;}.cls-10{fill:url(#linear-gradient-6);}.cls-11{fill:url(#linear-gradient-7);}</style><linearGradient id="linear-gradient" x1="162.04" y1="660.72" x2="412.03" y2="660.72" gradientUnits="userSpaceOnUse"><stop offset="0" stop-color="#8dc63f"/><stop offset="0.22" stop-color="#6dbb40"/><stop offset="1" stop-color="#009444"/></linearGradient><linearGradient id="linear-gradient-2" x1="293.2" y1="248.88" x2="339.61" y2="248.88" xlink:href="#linear-gradient"/><linearGradient id="linear-gradient-3" x1="217.06" y1="548.79" x2="263.69" y2="548.79" xlink:href="#linear-gradient"/><linearGradient id="linear-gradient-4" x1="461.88" y1="618.46" x2="848.92" y2="618.46" xlink:href="#linear-gradient"/><linearGradient id="linear-gradient-5" x1="555.41" y1="247.24" x2="755.4" y2="247.24" xlink:href="#linear-gradient"/><linearGradient id="linear-gradient-6" x1="244.5" y1="831.54" x2="655.4" y2="831.54" xlink:href="#linear-gradient"/><linearGradient id="linear-gradient-7" x1="529.56" y1="754.47" x2="655.4" y2="754.47" xlink:href="#linear-gradient"/></defs><title>beauty and cosmetics</title><path class="cls-1" d="M373.21,361.33H200.86A38.82,38.82,0,0,0,162,400.15V921.29a38.82,38.82,0,0,0,38.82,38.82H373.21A38.82,38.82,0,0,0,412,921.29V400.15A38.82,38.82,0,0,0,373.21,361.33Z" transform="translate(-148.34 -38.91)"/><path class="cls-2" d="M373.21,361.33H326.58a38.82,38.82,0,0,1,38.82,38.82V921.29a38.82,38.82,0,0,1-38.82,38.82h46.63A38.82,38.82,0,0,0,412,921.29V400.15A38.82,38.82,0,0,0,373.21,361.33Z" transform="translate(-148.34 -38.91)"/><path class="cls-2" d="M249.6,181.57h74.88a15.14,15.14,0,0,1,15.14,15.14V316.19H234.46V196.71A15.14,15.14,0,0,1,249.6,181.57Z" transform="translate(-148.34 -38.91)"/><path class="cls-3" d="M324.47,181.57H293.2a15.14,15.14,0,0,1,15.14,15.14V316.19h31.27V196.71A15.14,15.14,0,0,0,324.47,181.57Z" transform="translate(-148.34 -38.91)"/><path class="cls-4" d="M215.77,316.2H358.3a9.17,9.17,0,0,1,9.17,9.17v36H206.6v-36A9.17,9.17,0,0,1,215.77,316.2Z" transform="translate(-148.34 -38.91)"/><path class="cls-5" d="M358.3,316.2H315.15a9.17,9.17,0,0,1,9.17,9.17v36h43.15v-36A9.17,9.17,0,0,0,358.3,316.2Z" transform="translate(-148.34 -38.91)"/><rect class="cls-2" x="13.69" y="468.84" width="249.99" height="159.9"/><rect class="cls-6" x="217.06" y="468.83" width="46.63" height="159.9"/><path class="cls-7" d="M848.92,353.76V909.89a50.23,50.23,0,0,1-50.23,50.23H512.11a50.23,50.23,0,0,1-50.23-50.23V353.76a77,77,0,0,1,77-77H772A77,77,0,0,1,848.92,353.76Z" transform="translate(-148.34 -38.91)"/><path class="cls-2" d="M772,276.81H724.66a77,77,0,0,1,77,77V909.88a50.23,50.23,0,0,1-50.23,50.23h47.31a50.23,50.23,0,0,0,50.23-50.23V353.76A77,77,0,0,0,772,276.81Z" transform="translate(-148.34 -38.91)"/><path class="cls-8" d="M755.4,228.22v48.58h-200V228.22a10.54,10.54,0,0,1,10.54-10.54h178.9A10.54,10.54,0,0,1,755.4,228.22Z" transform="translate(-148.34 -38.91)"/><path class="cls-2" d="M744.85,217.68H707a10.54,10.54,0,0,1,10.54,10.54v48.58H755.4V228.22A10.54,10.54,0,0,0,744.85,217.68Z" transform="translate(-148.34 -38.91)"/><rect class="cls-4" x="458.65" y="85.12" width="96.82" height="93.65"/><path class="cls-2" d="M722.91,52.61H560.17a4.76,4.76,0,0,0-4.76,4.76v61.9a4.76,4.76,0,0,0,4.76,4.76H878.72a7.14,7.14,0,0,0,3.57-13.33L832.41,81.93A219.1,219.1,0,0,0,722.91,52.61Z" transform="translate(-148.34 -38.91)"/><path class="cls-9" d="M655.4,759.72h0a92.46,92.46,0,0,0,92.46-92.46V569.65A92.46,92.46,0,0,0,655.4,477.2h0a92.46,92.46,0,0,0-92.46,92.46v97.62A92.45,92.45,0,0,0,655.4,759.72Z" transform="translate(-148.34 -38.91)"/><path class="cls-10" d="M326.8,703H573.1a82.3,82.3,0,0,1,82.3,82.3V921.06a39.05,39.05,0,0,1-39.05,39.05H283.55a39.05,39.05,0,0,1-39.05-39.05V785.26A82.3,82.3,0,0,1,326.8,703Z" transform="translate(-148.34 -38.91)"/><path class="cls-2" d="M573.1,703H529.56a82.3,82.3,0,0,1,82.3,82.3V921.06a39.05,39.05,0,0,1-39.05,39.05h43.53a39.05,39.05,0,0,0,39.05-39.05V785.26A82.3,82.3,0,0,0,573.1,703Z" transform="translate(-148.34 -38.91)"/><path class="cls-2" d="M573.1,703H326.8a82.3,82.3,0,0,0-82.3,82.3V806H655.4V785.26A82.31,82.31,0,0,0,573.1,703Z" transform="translate(-148.34 -38.91)"/><path class="cls-11" d="M573.1,703H529.56a82.3,82.3,0,0,1,82.3,82.3V806H655.4V785.26A82.25,82.25,0,0,0,573.1,703Z" transform="translate(-148.34 -38.91)"/><path d="M287,219.66a13.69,13.69,0,0,0-13.69,13.69v1.19a13.69,13.69,0,1,0,27.39,0v-1.19A13.7,13.7,0,0,0,287,219.66Z" transform="translate(-148.34 -38.91)"/><path d="M889.13,98.84,839.25,70.07A233.12,233.12,0,0,0,722.91,38.91H560.17a18.48,18.48,0,0,0-18.46,18.45v61.9a18.48,18.48,0,0,0,18.46,18.46H593.3V204H565.95a24.27,24.27,0,0,0-24.24,24.24v34.88h-2.87a90.75,90.75,0,0,0-90.65,90.65V651.19a13.69,13.69,0,1,0,27.39,0V353.76a63.33,63.33,0,0,1,63.26-63.26H772a63.33,63.33,0,0,1,63.26,63.26V909.88a36.57,36.57,0,0,1-36.53,36.53H692a13.69,13.69,0,1,0,0,27.39H798.69a64,64,0,0,0,63.92-63.92V353.76A90.75,90.75,0,0,0,772,263.11h-2.87V228.23A24.27,24.27,0,0,0,744.86,204H717.51V137.73H878.72a20.84,20.84,0,0,0,10.41-38.89ZM741.7,263.11H569.1V231.38H741.7ZM690.12,204H620.69V137.73h69.43Zm13.69-93.65H569.1v-44H722.91A205.7,205.7,0,0,1,825.56,93.79l28.69,16.55Z" transform="translate(-148.34 -38.91)"/><path d="M695.42,735.12a13.69,13.69,0,1,0,13.94,23.58,106.68,106.68,0,0,0,52.19-91.43V569.65a106.15,106.15,0,1,0-212.3,0v81.54a13.69,13.69,0,0,0,27.39,0V569.65a78.76,78.76,0,1,1,157.52,0v97.61A79.17,79.17,0,0,1,695.42,735.12Z" transform="translate(-148.34 -38.91)"/><path d="M573.1,689.27H425.72V667.74s0-.06,0-.09V507.75s0-.06,0-.09V400.14a52.6,52.6,0,0,0-44.56-51.91V325.37A22.89,22.89,0,0,0,358.3,302.5h-5V196.71a28.86,28.86,0,0,0-28.83-28.83H249.6a28.86,28.86,0,0,0-28.83,28.83V302.5h-5a22.89,22.89,0,0,0-22.86,22.86v22.88a52.79,52.79,0,0,0-44.05,44.51A13.7,13.7,0,0,0,176,396.6,25.23,25.23,0,0,1,200.86,375H373.21a25.15,25.15,0,0,1,25.13,25.13v93.91H175.73V446.4a13.69,13.69,0,1,0-27.39,0V921.29a52.57,52.57,0,0,0,52.51,52.51h5.26a13.69,13.69,0,1,0,0-27.39h-5.26a25.15,25.15,0,0,1-25.13-25.13V681.35h222.6v7.92H326.8a96.11,96.11,0,0,0-96,96V921.06a52.81,52.81,0,0,0,52.75,52.75h332.8a52.81,52.81,0,0,0,52.75-52.75V785.26A96.1,96.1,0,0,0,573.1,689.27ZM248.16,196.71a1.44,1.44,0,0,1,1.44-1.44h74.88a1.44,1.44,0,0,1,1.44,1.44V302.5H248.16ZM234.46,329.89H353.77v17.74H220.3V329.89ZM175.73,654V521.44h222.6V654ZM616.35,946.42H283.55a25.39,25.39,0,0,1-25.36-25.36V819.67H641.71V921.06A25.39,25.39,0,0,1,616.35,946.42Zm25.36-154.13H258.19v-7a68.69,68.69,0,0,1,68.61-68.61H573.1a68.68,68.68,0,0,1,68.61,68.61Z" transform="translate(-148.34 -38.91)"/></svg>