<?xml version="1.0"?>
<svg xmlns="http://www.w3.org/2000/svg" xmlns:xlink="http://www.w3.org/1999/xlink" xmlns:svgjs="http://svgjs.com/svgjs" version="1.1" width="512" height="512" x="0" y="0" viewBox="0 0 512 512" style="enable-background:new 0 0 512 512" xml:space="preserve" class=""><g><link type="text/css" id="black-mode" rel="stylesheet"/><style type="text/css" id="black-mode-custom-style"/><g xmlns="http://www.w3.org/2000/svg"><g><g><path d="m208 176h48a0 0 0 0 1 0 0v44a20 20 0 0 1 -20 20h-8a20 20 0 0 1 -20-20v-44a0 0 0 0 1 0 0z" fill="#ffffff" data-original="#d80027" style="" class=""/><path d="m256 176h48a0 0 0 0 1 0 0v44a20 20 0 0 1 -20 20h-8a20 20 0 0 1 -20-20v-44a0 0 0 0 1 0 0z" fill="#e0e0e2" data-original="#e0e0e2" style="" class=""/><path d="m304 176h48a0 0 0 0 1 0 0v44a20 20 0 0 1 -20 20h-8a20 20 0 0 1 -20-20v-44a0 0 0 0 1 0 0z" fill="#ffffff" data-original="#d80027" style="" class=""/><path d="m352 176h48a0 0 0 0 1 0 0v44a20 20 0 0 1 -20 20h-8a20 20 0 0 1 -20-20v-44a0 0 0 0 1 0 0z" fill="#e0e0e2" data-original="#e0e0e2" style="" class=""/><path d="m400 176h48a0 0 0 0 1 0 0v44a20 20 0 0 1 -20 20h-8a20 20 0 0 1 -20-20v-44a0 0 0 0 1 0 0z" fill="#ffffff" data-original="#d80027" style="" class=""/><path d="m448 176h48a0 0 0 0 1 0 0v44a20 20 0 0 1 -20 20h-8a20 20 0 0 1 -20-20v-44a0 0 0 0 1 0 0z" fill="#e0e0e2" data-original="#e0e0e2" style="" class=""/><path d="m112 176h48a0 0 0 0 1 0 0v44a20 20 0 0 1 -20 20h-8a20 20 0 0 1 -20-20v-44a0 0 0 0 1 0 0z" fill="#ffffff" data-original="#d80027" style="" class=""/><path d="m64 176h48a0 0 0 0 1 0 0v44a20 20 0 0 1 -20 20h-8a20 20 0 0 1 -20-20v-44a0 0 0 0 1 0 0z" fill="#e0e0e2" data-original="#e0e0e2" style="" class=""/><path d="m16 176h48a0 0 0 0 1 0 0v44a20 20 0 0 1 -20 20h-8a20 20 0 0 1 -20-20v-44a0 0 0 0 1 0 0z" fill="#ffffff" data-original="#d80027" style="" class=""/><path d="m160 176h48a0 0 0 0 1 0 0v44a20 20 0 0 1 -20 20h-8a20 20 0 0 1 -20-20v-44a0 0 0 0 1 0 0z" fill="#e0e0e2" data-original="#e0e0e2" style="" class=""/><path d="m448 241v187a20 20 0 0 1 -20 20h-344a20 20 0 0 1 -20-20v-187" fill="#ffffff" data-original="#78b9eb" style="" class=""/><path d="m64 112v-28a20 20 0 0 1 20-20h344a20 20 0 0 1 20 20v28" fill="#ffffff" data-original="#006df0" style="" class=""/><path d="m16 176 48-64h384l48 64" fill="#ffffff" data-original="#d80027" style="" class=""/></g><g><path d="m320 368h-120v-80h136z" fill="#ffffff" data-original="#ff9811" style="" class=""/><g fill="#e0e0e2"><circle cx="224" cy="408" r="16" fill="#e0e0e2" data-original="#e0e0e2" style="" class=""/><circle cx="296" cy="408" r="16" fill="#e0e0e2" data-original="#e0e0e2" style="" class=""/></g></g></g><g><path d="m502.39 171.21.01-.01-46.4-61.87v-25.33a28.031 28.031 0 0 0 -28-28h-344a28.031 28.031 0 0 0 -28 28v25.33l-46.4 61.87.01.01a7.894 7.894 0 0 0 -1.61 4.79v44a28.031 28.031 0 0 0 28 28h8a27.75 27.75 0 0 0 12-2.71v182.71a28.031 28.031 0 0 0 28 28h344a28.031 28.031 0 0 0 28-28v-182.71a27.75 27.75 0 0 0 12 2.71h8a28.031 28.031 0 0 0 28-28v-44a7.894 7.894 0 0 0 -1.61-4.79zm-430.39-87.21a12.01 12.01 0 0 1 12-12h344a12.01 12.01 0 0 1 12 12v20h-368zm-28 148h-8a12.01 12.01 0 0 1 -12-12v-36h32v36a12.01 12.01 0 0 1 -12 12zm396 196a12.01 12.01 0 0 1 -12 12h-344a12.01 12.01 0 0 1 -12-12v-182.71a27.75 27.75 0 0 0 12 2.71h8a27.9 27.9 0 0 0 20-8.43 27.9 27.9 0 0 0 20 8.43h8a27.9 27.9 0 0 0 20-8.43 27.9 27.9 0 0 0 20 8.43h8a27.9 27.9 0 0 0 20-8.43 27.9 27.9 0 0 0 20 8.43h8a27.9 27.9 0 0 0 20-8.43 27.9 27.9 0 0 0 20 8.43h8a27.9 27.9 0 0 0 20-8.43 27.9 27.9 0 0 0 20 8.43h8a27.9 27.9 0 0 0 20-8.43 27.9 27.9 0 0 0 20 8.43h8a27.9 27.9 0 0 0 20-8.43 27.9 27.9 0 0 0 20 8.43h8a27.75 27.75 0 0 0 12-2.71zm-368-208v-36h32v36a12.01 12.01 0 0 1 -12 12h-8a12.01 12.01 0 0 1 -12-12zm48 0v-36h32v36a12.01 12.01 0 0 1 -12 12h-8a12.01 12.01 0 0 1 -12-12zm48 0v-36h32v36a12.01 12.01 0 0 1 -12 12h-8a12.01 12.01 0 0 1 -12-12zm48 0v-36h32v36a12.01 12.01 0 0 1 -12 12h-8a12.01 12.01 0 0 1 -12-12zm48 0v-36h32v36a12.01 12.01 0 0 1 -12 12h-8a12.01 12.01 0 0 1 -12-12zm48 0v-36h32v36a12.01 12.01 0 0 1 -12 12h-8a12.01 12.01 0 0 1 -12-12zm48 0v-36h32v36a12.01 12.01 0 0 1 -12 12h-8a12.01 12.01 0 0 1 -12-12zm80 0a12.01 12.01 0 0 1 -12 12h-8a12.01 12.01 0 0 1 -12-12v-36h32zm-408-52 36-48h376l36 48zm456 52a12.01 12.01 0 0 1 -12 12h-8a12.01 12.01 0 0 1 -12-12v-36h32z" fill="#028e08" data-original="#000000" style="" class=""/><path d="m96 80h-8a8 8 0 0 0 0 16h8a8 8 0 0 0 0-16z" fill="#028e08" data-original="#000000" style="" class=""/><path d="m128 80h-8a8 8 0 0 0 0 16h8a8 8 0 0 0 0-16z" fill="#028e08" data-original="#000000" style="" class=""/><path d="m160 80h-8a8 8 0 0 0 0 16h8a8 8 0 0 0 0-16z" fill="#028e08" data-original="#000000" style="" class=""/><path d="m320 376a7.99 7.99 0 0 0 7.84-6.43l7.99-39.93c0-.02.01-.04.01-.06l8-40.01a7.992 7.992 0 0 0 -7.84-9.57h-128v-16a8 8 0 0 0 -8-8h-24a8 8 0 0 0 0 16h16v120a8 8 0 0 0 8 8h1.38a24 24 0 1 0 45.24 0h26.76a24 24 0 1 0 45.24 0h9.38a8 8 0 0 0 0-16h-120v-8zm-24-80h30.24l-4.8 24h-25.44zm0 40h22.24l-4.8 24h-17.44zm-48-40h32v24h-32zm0 40h32v24h-32zm-40-40h24v24h-24zm0 40h24v24h-24zm88 64a8 8 0 1 1 -8 8 8.011 8.011 0 0 1 8-8zm-72 0a8 8 0 1 1 -8 8 8.011 8.011 0 0 1 8-8z" fill="#028e08" data-original="#000000" style="" class=""/></g></g></g></svg>
