<svg id="Layer_1" data-name="Layer 1" xmlns="http://www.w3.org/2000/svg" xmlns:xlink="http://www.w3.org/1999/xlink" viewBox="0 0 948.46 936.19"><defs><style>.cls-1{fill:url(#linear-gradient);}.cls-2{fill:url(#linear-gradient-2);}.cls-3{fill:url(#linear-gradient-3);}.cls-4{fill:url(#linear-gradient-4);}.cls-5{fill:#c8f29c;}</style><linearGradient id="linear-gradient" x1="605.9" y1="455.13" x2="678.43" y2="455.13" gradientUnits="userSpaceOnUse"><stop offset="0" stop-color="#8dc63f"/><stop offset="0.22" stop-color="#6dbb40"/><stop offset="1" stop-color="#009444"/></linearGradient><linearGradient id="linear-gradient-2" x1="805.52" y1="131.74" x2="918.83" y2="131.74" xlink:href="#linear-gradient"/><linearGradient id="linear-gradient-3" x1="692.81" y1="324.91" x2="834.09" y2="324.91" xlink:href="#linear-gradient"/><linearGradient id="linear-gradient-4" x1="494.78" y1="604.95" x2="757.68" y2="604.95" xlink:href="#linear-gradient"/></defs><title>building materials</title><path d="M979.07,879.47A223.51,223.51,0,0,0,762.57,712a226.88,226.88,0,0,0-23.86,1.26L791,606.42l.07.06a18.52,18.52,0,1,0,16.26-33.29L737.56,539.1l20-40.87A18.54,18.54,0,0,0,749,473.45l-4.43-2.17L872.09,210.49q4.64-.06,9.34-.5a86.31,86.31,0,0,0,68.75-47.66l2.24-4.61a19.45,19.45,0,0,0,3.41.31A18.53,18.53,0,0,0,964,122.85L799.8,42.65a18.53,18.53,0,0,0-20.41,30.53l-2.24,4.59a86.18,86.18,0,0,0,4.61,83.51c1.67,2.63,3.43,5.15,5.28,7.6L659.52,429.71l-4.45-2.17A18.52,18.52,0,0,0,630.3,436l-20,40.9-69.76-34.09a18.52,18.52,0,0,0-16.25,33.29l.06,0-72,147.23a269,269,0,0,0-198.18,135.1c-5.3-.43-10.6-.65-15.82-.65A200.45,200.45,0,0,0,37.7,958.44,18.53,18.53,0,0,0,56.22,977h910.1a18.53,18.53,0,0,0,18.41-16.47,227.13,227.13,0,0,0,1.43-25A224.15,224.15,0,0,0,979.07,879.47ZM810.42,94l2-4,106.44,52-1.94,4a49,49,0,0,1-39,27.06,68.54,68.54,0,0,1-64.8-31.66A48.93,48.93,0,0,1,810.42,94Zm5.19,100.76a105.53,105.53,0,0,0,18.49,9.06L711.31,455l-18.51-9ZM655.44,469l60.69,29.64-11.86,24.25L643.6,493.21Zm-97.81,23.49,200,97.72L695.44,717.45A270.23,270.23,0,0,0,494.78,621ZM949.06,939.92H75.77a162,162,0,0,1,8.74-37.29h144a18.52,18.52,0,1,0,0-37H103.67A163.82,163.82,0,0,1,262,796.66a18.56,18.56,0,0,0,19.23-10.08C320.79,707.28,400.41,658,489,658a233,233,0,0,1,187.93,95.94,18.56,18.56,0,0,0,21.38,6.5q6.14-2.25,12.39-4.06l.43-.13A186.89,186.89,0,0,1,935.57,865.58H468.66a18.52,18.52,0,1,0,0,37H946.22a189.17,189.17,0,0,1,2.89,32.88C949.11,937,949.1,938.43,949.06,939.92Z" transform="translate(-37.7 -40.77)"/><polygon class="cls-1" points="678.43 457.83 666.57 482.08 605.9 452.44 617.74 428.19 678.43 457.83"/><path class="cls-2" d="M918.83,142l-1.94,4a49,49,0,0,1-39,27.06,68.54,68.54,0,0,1-64.8-31.66A48.93,48.93,0,0,1,810.42,94l2-4Z" transform="translate(-37.7 -40.77)"/><path class="cls-3" d="M834.09,203.86,711.31,455l-18.51-9L815.61,194.8A105.53,105.53,0,0,0,834.09,203.86Z" transform="translate(-37.7 -40.77)"/><path class="cls-4" d="M757.68,590.17,695.44,717.45A270.23,270.23,0,0,0,494.78,621l62.85-128.56Z" transform="translate(-37.7 -40.77)"/><path class="cls-5" d="M946.22,902.63H468.66a18.52,18.52,0,1,1,0-37H935.57A186.89,186.89,0,0,0,711.11,756.24l-.43.13q-6.25,1.81-12.39,4.06a18.56,18.56,0,0,1-21.38-6.5A233,233,0,0,0,489,658c-88.57,0-168.19,49.29-207.77,128.6A18.56,18.56,0,0,1,262,796.66a163.82,163.82,0,0,0-158.31,68.91H228.52a18.52,18.52,0,1,1,0,37h-144a162,162,0,0,0-8.74,37.29H949.06c0-1.48.06-3,.06-4.41A189.17,189.17,0,0,0,946.22,902.63ZM489,694a196.84,196.84,0,0,1,158.74,81,18.53,18.53,0,1,1-30,21.77A159.63,159.63,0,0,0,489,731.09a18.52,18.52,0,0,1,0-37ZM419,897.2a18.66,18.66,0,0,1-13.1,5.43,18.25,18.25,0,0,1-3.61-.37,18.71,18.71,0,0,1-3.46-1.06,18.29,18.29,0,0,1-3.2-1.7,17.72,17.72,0,0,1-2.82-2.3,18.41,18.41,0,0,1-5.06-16.73,19.61,19.61,0,0,1,1.06-3.46,18.8,18.8,0,0,1,1.7-3.19,17.73,17.73,0,0,1,2.3-2.82,18.92,18.92,0,0,1,2.82-2.32,18.28,18.28,0,0,1,3.2-1.7,20.23,20.23,0,0,1,3.46-1.06A18.71,18.71,0,0,1,419,871a17.73,17.73,0,0,1,2.3,2.82A18.8,18.8,0,0,1,423,877a19.68,19.68,0,0,1,1.07,3.46A18.59,18.59,0,0,1,419,897.2Z" transform="translate(-37.7 -40.77)"/><path d="M643.6,801a18.52,18.52,0,0,1-25.88-4.11A159.63,159.63,0,0,0,489,731.09a18.52,18.52,0,0,1,0-37,196.84,196.84,0,0,1,158.74,81A18.54,18.54,0,0,1,643.6,801Z" transform="translate(-37.7 -40.77)"/><path d="M424.4,884.1a18.53,18.53,0,0,1-18.52,18.52,18.25,18.25,0,0,1-3.61-.37,18.71,18.71,0,0,1-3.46-1.06,18.29,18.29,0,0,1-3.2-1.7,17.72,17.72,0,0,1-2.82-2.3,18.41,18.41,0,0,1-5.06-16.73,19.61,19.61,0,0,1,1.06-3.46,18.8,18.8,0,0,1,1.7-3.19,17.73,17.73,0,0,1,2.3-2.82,18.92,18.92,0,0,1,2.82-2.32,18.28,18.28,0,0,1,3.2-1.7,20.23,20.23,0,0,1,3.46-1.06A18.71,18.71,0,0,1,419,871a17.73,17.73,0,0,1,2.3,2.82A18.8,18.8,0,0,1,423,877a19.68,19.68,0,0,1,1.07,3.46A18.56,18.56,0,0,1,424.4,884.1Z" transform="translate(-37.7 -40.77)"/></svg>