<svg id="Layer_1" data-name="Layer 1" xmlns="http://www.w3.org/2000/svg" xmlns:xlink="http://www.w3.org/1999/xlink" viewBox="0 0 914.82 907.75"><defs><style>.cls-1{fill:url(#linear-gradient);}.cls-2{fill:url(#linear-gradient-2);}.cls-3{fill:url(#linear-gradient-3);}.cls-4{fill:url(#linear-gradient-4);}.cls-5{fill:#fff;}.cls-6{fill:#c8f29c;}.cls-7{fill:url(#linear-gradient-5);}</style><linearGradient id="linear-gradient" x1="164.19" y1="825.3" x2="244.09" y2="825.3" gradientUnits="userSpaceOnUse"><stop offset="0" stop-color="#8dc63f"/><stop offset="0.22" stop-color="#6dbb40"/><stop offset="1" stop-color="#009444"/></linearGradient><linearGradient id="linear-gradient-2" x1="493.5" y1="703.19" x2="536.39" y2="703.19" xlink:href="#linear-gradient"/><linearGradient id="linear-gradient-3" x1="595.35" y1="250.06" x2="631.09" y2="250.06" xlink:href="#linear-gradient"/><linearGradient id="linear-gradient-4" x1="398.81" y1="250.06" x2="434.54" y2="250.06" xlink:href="#linear-gradient"/><linearGradient id="linear-gradient-5" x1="472.23" y1="538.08" x2="557.66" y2="538.08" xlink:href="#linear-gradient"/></defs><title>electronics and hardware</title><path d="M257.67,771.78a75.73,75.73,0,0,0-87.35-14.2c-102-144.5-102.36-342.52.86-487.37a17.87,17.87,0,0,0-29.11-20.73c-56.93,79.9-86.14,174.24-84.46,272.86,1.59,93.84,31.05,182.86,85.34,258.42a75.7,75.7,0,1,0,114.73-9Zm-25.26,81.8a40,40,0,1,1,0-56.53A40,40,0,0,1,232.41,853.58Z" transform="translate(-57.54 -58.12)"/><path class="cls-1" d="M232.41,853.58a40,40,0,1,1,0-56.53A40,40,0,0,1,232.41,853.58Z" transform="translate(-57.54 -58.12)"/><path d="M786.46,860.67a17.86,17.86,0,0,0-24.94-4,416.5,416.5,0,0,1-170.67,72.67,48.91,48.91,0,0,1-57.8-48v-131h1.55a37.56,37.56,0,0,0,37.52-37.52V682.67c60.52-23.1,103.63-81.76,103.63-150.3V447.79A67.89,67.89,0,0,0,666.82,315V203.61a53.6,53.6,0,1,0-107.21,0V314.39H470.28V203.61a53.6,53.6,0,1,0-107.21,0V315a67.89,67.89,0,0,0-8.93,132.79v84.58c0,68.54,43.11,127.2,103.63,150.3v30.16a37.56,37.56,0,0,0,37.52,37.52h2v131a84.59,84.59,0,0,0,84.62,84.55,85.31,85.31,0,0,0,15.31-1.38,451.7,451.7,0,0,0,185.2-78.87A17.87,17.87,0,0,0,786.46,860.67ZM595.35,203.61a17.87,17.87,0,1,1,35.74,0V314.39H595.35Zm-196.54,0a17.87,17.87,0,1,1,35.74,0V314.39H398.81Zm-59,178.68A32.21,32.21,0,0,1,372,350.12H657.89a32.16,32.16,0,0,1,0,64.32H372A32.2,32.2,0,0,1,339.84,382.28Zm50,150.09V450.18H640v82.19a125.07,125.07,0,1,1-250.15,0ZM515.62,714.62l-.45,0-.45,0H495.29a1.79,1.79,0,0,1-1.79-1.79V691.75a161.53,161.53,0,0,0,42.88,0v21.08a1.79,1.79,0,0,1-1.79,1.79Z" transform="translate(-57.54 -58.12)"/><path class="cls-2" d="M536.39,691.75v21.08a1.79,1.79,0,0,1-1.79,1.79h-19l-.45,0-.45,0H495.29a1.79,1.79,0,0,1-1.79-1.79V691.75a161.53,161.53,0,0,0,42.88,0Z" transform="translate(-57.54 -58.12)"/><path class="cls-3" d="M631.09,203.61V314.39H595.35V203.61a17.87,17.87,0,1,1,35.74,0Z" transform="translate(-57.54 -58.12)"/><path class="cls-4" d="M434.54,203.61V314.39H398.81V203.61a17.87,17.87,0,1,1,35.74,0Z" transform="translate(-57.54 -58.12)"/><path class="cls-5" d="M389.87,450.18v82.19a125.07,125.07,0,1,0,250.15,0V450.18Zm165.47,93.38-37,65.31a17.86,17.86,0,1,1-31.09-17.6l21.87-38.63h-19a17.88,17.88,0,0,1-14-29L522.52,465a17.86,17.86,0,1,1,28,22.17L527,516.9H539.8a17.85,17.85,0,0,1,15.54,26.66Z" transform="translate(-57.54 -58.12)"/><path class="cls-6" d="M690,382.28a32.19,32.19,0,0,1-32.16,32.16H372a32.16,32.16,0,0,1,0-64.32H657.89A32.2,32.2,0,0,1,690,382.28Z" transform="translate(-57.54 -58.12)"/><path d="M837.94,812.25a17.87,17.87,0,0,0-24.89.49l-.41.42a17.87,17.87,0,0,0,25.76,24.76l.41-.42A17.87,17.87,0,0,0,837.94,812.25Z" transform="translate(-57.54 -58.12)"/><path d="M971.14,481.11a457.27,457.27,0,0,0-132.75-290C762.08,114.76,660.13,68,551.34,59.54c-107.47-8.4-214.43,20.76-301.2,82.11a17.87,17.87,0,0,0,20.63,29.18C436.7,53.52,669.87,73.08,813.12,216.35c148,148.05,165.95,378,42.56,546.68a17.87,17.87,0,1,0,28.85,21.09A457.44,457.44,0,0,0,971.14,481.11Z" transform="translate(-57.54 -58.12)"/><path d="M214.61,193.15a17.87,17.87,0,0,0-25.27.11l-.29.3a17.87,17.87,0,0,0,25.38,25.16l.29-.3A17.87,17.87,0,0,0,214.61,193.15Z" transform="translate(-57.54 -58.12)"/><path class="cls-7" d="M555.34,543.56l-37,65.31a17.86,17.86,0,1,1-31.09-17.6l21.87-38.63h-19a17.88,17.88,0,0,1-14-29L522.52,465a17.86,17.86,0,1,1,28,22.17L527,516.9H539.8a17.85,17.85,0,0,1,15.54,26.66Z" transform="translate(-57.54 -58.12)"/></svg>