<svg id="Layer_1" data-name="Layer 1" xmlns="http://www.w3.org/2000/svg" xmlns:xlink="http://www.w3.org/1999/xlink" viewBox="0 0 940.09 842.27"><defs><style>.cls-1{fill:url(#linear-gradient);}.cls-2{fill:url(#linear-gradient-2);}.cls-3,.cls-6{opacity:0.1;}.cls-4{fill:#c8f29c;}.cls-5{fill:url(#linear-gradient-3);}.cls-6{isolation:isolate;}.cls-7{fill:#89c947;}.cls-8{fill:#ffc502;}.cls-9{fill:#368c0e;}.cls-10{fill:#f7931e;}.cls-11{fill:#fff;}.cls-12{fill:url(#linear-gradient-4);}.cls-13{fill:url(#linear-gradient-5);}</style><linearGradient id="linear-gradient" x1="122.14" y1="126.49" x2="214.42" y2="126.49" gradientUnits="userSpaceOnUse"><stop offset="0" stop-color="#8dc63f"/><stop offset="0.22" stop-color="#6dbb40"/><stop offset="1" stop-color="#009444"/></linearGradient><linearGradient id="linear-gradient-2" x1="142.47" y1="129.04" x2="272.82" y2="129.04" gradientUnits="userSpaceOnUse"><stop offset="0" stop-color="#00a14b"/><stop offset="1" stop-color="#006838"/></linearGradient><linearGradient id="linear-gradient-3" x1="97.75" y1="415.79" x2="317.54" y2="415.79" xlink:href="#linear-gradient-2"/><linearGradient id="linear-gradient-4" x1="53.14" y1="783.96" x2="411.13" y2="783.96" xlink:href="#linear-gradient"/><linearGradient id="linear-gradient-5" x1="271.06" y1="777" x2="787.4" y2="777" xlink:href="#linear-gradient"/></defs><title>food and drinks</title><rect class="cls-1" x="122.14" y="98.31" width="92.28" height="56.36"/><path class="cls-2" d="M272.82,162.13a9.21,9.21,0,0,1-9.18,9.18h-112a9.21,9.21,0,0,1-9.18-9.18V96a9.21,9.21,0,0,1,9.18-9.18h112A9.21,9.21,0,0,1,272.82,96v66.17Z" transform="translate(-39.36 -73.01)"/><g class="cls-3"><path d="M180.76,162.13V96a9.21,9.21,0,0,1,9.18-9.18H151.65A9.21,9.21,0,0,0,142.47,96v66.17a9.21,9.21,0,0,0,9.18,9.18h38.29A9.21,9.21,0,0,1,180.76,162.13Z" transform="translate(-39.36 -73.01)"/></g><path class="cls-4" d="M132.22,666.41a9.79,9.79,0,0,1-1.38-4.82c0-12.22,25.09-22.12,56-22.12a125.22,125.22,0,0,1,29.85,3.41,332.61,332.61,0,0,1-9.91-81,9.23,9.23,0,0,1,9.22-9.24h16.06a60.07,60.07,0,0,1-.35-6.41,59,59,0,0,1,41.17-56.29,55.67,55.67,0,0,1,26.94-74.62,55,55,0,0,1-2.42-9.19,55.69,55.69,0,0,1,20.13-53V278.9a51.32,51.32,0,0,0-51.12-51.23H148.86A51.32,51.32,0,0,0,97.75,278.9V687A135.63,135.63,0,0,1,132.22,666.41Z" transform="translate(-39.36 -73.01)"/><path class="cls-5" d="M272.9,489.92a55.67,55.67,0,0,1,26.94-74.62,55,55,0,0,1-2.42-9.19,55.69,55.69,0,0,1,20.13-53V321H97.75V510.62H243.66A59,59,0,0,1,272.9,489.92Z" transform="translate(-39.36 -73.01)"/><path class="cls-6" d="M132.22,666.41a9.79,9.79,0,0,1-1.38-4.82c0-7.55,9.58-14.21,24.2-18.2V278.9a51.32,51.32,0,0,1,51.12-51.23H148.86A51.32,51.32,0,0,0,97.75,278.9V687A135.63,135.63,0,0,1,132.22,666.41Z" transform="translate(-39.36 -73.01)"/><path class="cls-4" d="M487.17,373.08a55.82,55.82,0,0,1,.81,9.47,55.65,55.65,0,0,1,49,41.79,58.57,58.57,0,0,1,34.51-15.54,99.89,99.89,0,0,1,29.14-67.38c.66-.67,1.35-1.31,2-2a122.75,122.75,0,0,0-34.1-65.79,9.61,9.61,0,0,0-13.6,0l-77,77.15A55.37,55.37,0,0,1,487.17,373.08Z" transform="translate(-39.36 -73.01)"/><path class="cls-7" d="M577.12,408.52a58.9,58.9,0,0,1,56.57,42.68,50.6,50.6,0,0,1,5.42,3.52,50.37,50.37,0,0,1,44.63-22.52c1.31-1.18,2.61-2.39,3.87-3.66.36-.36.71-.74,1.06-1.11a59.12,59.12,0,0,1,17.69-25A100,100,0,0,0,709.75,321a3.16,3.16,0,0,0-1.78-1.78A99.71,99.71,0,0,0,571.53,408.8C573.37,408.62,575.24,408.52,577.12,408.52Z" transform="translate(-39.36 -73.01)"/><path class="cls-8" d="M756.87,484.73A91.35,91.35,0,0,1,801.5,460.1a58.87,58.87,0,0,0-114.42-27.62,50.19,50.19,0,0,1,44.35,49.86,50,50,0,0,1,21.26,6.9C754,487.71,755.41,486.19,756.87,484.73Z" transform="translate(-39.36 -73.01)"/><path class="cls-8" d="M272.9,489.92a59,59,0,0,0-41.17,56.29,60,60,0,0,0,.35,6.41h83.83a91.87,91.87,0,0,1-11-34.14A55.74,55.74,0,0,1,272.9,489.92Z" transform="translate(-39.36 -73.01)"/><path class="cls-7" d="M857,466a2.9,2.9,0,0,0-.65-1,2.94,2.94,0,0,0-1-.65,91.32,91.32,0,0,0-98.54,20.38c-1.46,1.46-2.84,3-4.19,4.52A50.13,50.13,0,0,1,773,552.61h73.87A91.85,91.85,0,0,0,857,466Z" transform="translate(-39.36 -73.01)"/><path class="cls-8" d="M272.9,489.92a59,59,0,0,0-41.17,56.29,60,60,0,0,0,.35,6.41h83.83a91.87,91.87,0,0,1-11-34.14A55.74,55.74,0,0,1,272.9,489.92Z" transform="translate(-39.36 -73.01)"/><path class="cls-9" d="M310.83,474.09a2.86,2.86,0,0,1,.65-1,2.93,2.93,0,0,1,1-.65,91.46,91.46,0,0,1,107.12,30.31,123.5,123.5,0,0,1-2.29-23.62,9.62,9.62,0,0,1,9.61-9.64H518.3c0-.65,0-1.31,0-2A58.9,58.9,0,0,1,537,424.34a55.65,55.65,0,0,0-49-41.79A55.73,55.73,0,0,0,385.77,352a55.78,55.78,0,0,0-88.36,54.14,55,55,0,0,0,2.42,9.19A55.65,55.65,0,0,0,305,518.48,91.78,91.78,0,0,1,310.83,474.09Z" transform="translate(-39.36 -73.01)"/><path class="cls-9" d="M776.54,523.81a50.26,50.26,0,0,0-45.11-41.46,50.33,50.33,0,0,0-92.32-27.62,50.6,50.6,0,0,0-5.42-3.52,59.21,59.21,0,0,1,2.3,16.33c0,.66,0,1.31,0,2h17.91a9.63,9.63,0,0,1,9.62,9.64,122.9,122.9,0,0,1-24.28,73.48H773A50,50,0,0,0,776.54,523.81Z" transform="translate(-39.36 -73.01)"/><path class="cls-10" d="M635.94,469.5c0-.65,0-1.31,0-2a58.87,58.87,0,1,0-117.75,0c0,.66,0,1.31,0,2Z" transform="translate(-39.36 -73.01)"/><path class="cls-7" d="M419.59,502.76a91.46,91.46,0,0,0-107.12-30.31,2.93,2.93,0,0,0-1.64,1.64,91.88,91.88,0,0,0,5.09,78.53H437.67c-.12-2.2-.35-4.38-.62-6.56A122.8,122.8,0,0,1,419.59,502.76Z" transform="translate(-39.36 -73.01)"/><path class="cls-11" d="M232.7,648.88c10.14-5.69,26.89-9.41,45.84-9.41,30.94,0,56,9.91,56,22.12a9.76,9.76,0,0,1-1.38,4.82c41.54,17.12,71.84,53.15,77.94,96.19L692.49,655.72a49.45,49.45,0,0,1,66.23,37.07L761.17,706l96.22-56.8a331.84,331.84,0,0,0,11.54-87.36,9.23,9.23,0,0,0-9.22-9.24H216a9.23,9.23,0,0,0-9.22,9.24,332.61,332.61,0,0,0,9.91,81A65.53,65.53,0,0,1,232.7,648.88Z" transform="translate(-39.36 -73.01)"/><g class="cls-3"><path d="M232.7,648.88c9.16-5.14,23.74-8.67,40.45-9.3a333,333,0,0,1-9.08-77.73,9.23,9.23,0,0,1,9.22-9.24H216a9.23,9.23,0,0,0-9.22,9.24,332.61,332.61,0,0,0,9.91,81A65.53,65.53,0,0,1,232.7,648.88Z" transform="translate(-39.36 -73.01)"/></g><path class="cls-12" d="M272.36,861.21l-.48-2.56a49.2,49.2,0,0,1,31-54.93L411.13,762.6c-6.09-43-36.39-79.07-77.94-96.19-4.42,7.84-19.35,14.12-38.7,16.39,14.18,11.34,20.67,23.26,14.89,29.78-7.65,8.64-33.91,4.54-58.65-9.16a112.09,112.09,0,0,1-18-12.27,111.74,111.74,0,0,1-18,12.27c-24.74,13.69-51,17.8-58.65,9.16-5.77-6.52.71-18.44,14.89-29.78-19.33-2.27-34.27-8.55-38.69-16.39-46.6,19.2-79.08,62.19-79.08,112.19,0,67.88,59.85,122.91,133.68,122.91H278.6a145.82,145.82,0,0,0,26.95-2.5A49.26,49.26,0,0,1,272.36,861.21Z" transform="translate(-39.36 -73.01)"/><path class="cls-13" d="M272.36,861.21A49.37,49.37,0,0,0,321,901.51l417-.16a49.29,49.29,0,0,0,48.59-58.16l-27.86-150.4a49.45,49.45,0,0,0-66.23-37.07l-389.61,148a49.2,49.2,0,0,0-31,54.93Z" transform="translate(-39.36 -73.01)"/><path class="cls-6" d="M111,778.6c0-39.47,20.26-74.56,51.7-97.05-15.28-2.9-26.69-8.44-30.46-15.13-46.6,19.2-79.08,62.19-79.08,112.19,0,67.88,59.85,122.91,133.68,122.91h57.84C170.83,901.51,111,846.48,111,778.6Z" transform="translate(-39.36 -73.01)"/><path class="cls-9" d="M334.57,661.59c0-12.22-25.08-22.12-56-22.12-19,0-35.7,3.72-45.84,9.41-10.13-5.69-26.88-9.41-45.84-9.41-30.94,0-56,9.91-56,22.12,0,10,16.91,18.49,40.07,21.21-14.17,11.34-20.66,23.26-14.89,29.78,7.65,8.64,33.92,4.54,58.65-9.16a111.66,111.66,0,0,0,18-12.27,112.18,112.18,0,0,0,18,12.27c24.74,13.69,51,17.8,58.65,9.16,5.78-6.52-.71-18.44-14.89-29.78C317.67,680.08,334.57,671.62,334.57,661.59Z" transform="translate(-39.36 -73.01)"/><path class="cls-7" d="M965.47,740.74l-3.59-19.36a12.35,12.35,0,0,0-14.39-9.87L808.95,737l88.46-59.13a12.25,12.25,0,0,0,3.88-16.25l-10-17.73a12.38,12.38,0,0,0-17.07-4.56L761.17,706l22.07,119.15,129.65,23.3a12.35,12.35,0,0,0,14.42-10.3l3-20a12.27,12.27,0,0,0-9.45-13.8L817,780.53l138.54-25.45A12.31,12.31,0,0,0,965.47,740.74Z" transform="translate(-39.36 -73.01)"/><path d="M341.91,431.43h.24a13.77,13.77,0,0,0,13.76-13.54,15.29,15.29,0,0,1,15.57-15,15.12,15.12,0,0,1,11,5,13.77,13.77,0,1,0,20.33-18.58,42.86,42.86,0,0,0-74.48,28.19A13.77,13.77,0,0,0,341.91,431.43Z" transform="translate(-39.36 -73.01)"/><path d="M411.15,453.57a13.76,13.76,0,0,0,17.7-8.12,11.84,11.84,0,0,1,15.18-7,11.63,11.63,0,0,1,6.74,6.42,13.77,13.77,0,0,0,25.35-10.78A39.34,39.34,0,0,0,403,435.86,13.77,13.77,0,0,0,411.15,453.57Z" transform="translate(-39.36 -73.01)"/><path d="M542.16,348.68a13.73,13.73,0,0,0,9.75-4l13-13a13.77,13.77,0,1,0-19.49-19.45l-13,13a13.77,13.77,0,0,0,9.75,23.5Z" transform="translate(-39.36 -73.01)"/><path d="M479.19,489.93H460.84a13.77,13.77,0,1,0,0,27.54h18.35a13.77,13.77,0,1,0,0-27.54Z" transform="translate(-39.36 -73.01)"/><path d="M601.57,517.48h18.36a13.77,13.77,0,1,0,0-27.54H601.57a13.77,13.77,0,0,0,0,27.54Z" transform="translate(-39.36 -73.01)"/><path d="M979,738.24l-3.59-19.36A26.13,26.13,0,0,0,945,698l-73,13.41,33.06-22.1a26,26,0,0,0,8.22-34.47l-10-17.72a26,26,0,0,0-26.15-13,348.34,348.34,0,0,0,5.58-62.19,23,23,0,0,0-13.69-21,105.6,105.6,0,0,0,.84-79.9,16.71,16.71,0,0,0-9.34-9.37,104.76,104.76,0,0,0-38.93-7.48q-2.56,0-5.11.12A72.6,72.6,0,0,0,729,376.65,113.47,113.47,0,0,0,722.59,316a16.93,16.93,0,0,0-9.52-9.6,113.18,113.18,0,0,0-102.3,9.38,136.19,136.19,0,0,0-32.42-51.88,23.38,23.38,0,0,0-33.1,0l-66.67,66.83a69.22,69.22,0,0,0-46.2-17.58,69.64,69.64,0,0,0-49.72,20.87,69.21,69.21,0,0,0-51.35-3.66V278.9a65,65,0,0,0-63.76-65V184.72a23,23,0,0,0,19-22.59V96a23,23,0,0,0-23-23h-112a23,23,0,0,0-23,23v66.17a23,23,0,0,0,19,22.59v29.2A65,65,0,0,0,84,278.9V680.81c-27.49,24.83-44.61,59.48-44.61,97.79,0,75.36,66.15,136.68,147.45,136.68L738,915.12a63,63,0,0,0,62.37-72.89L910.45,862a26.31,26.31,0,0,0,4.63.41,26.11,26.11,0,0,0,25.84-22.24l3-20a26,26,0,0,0-20-29.26l-38.8-8.9L958,768.62a26.08,26.08,0,0,0,21-30.39ZM821.58,471.62a77.23,77.23,0,0,1,24.28,3.9,78,78,0,0,1-6.58,63.33h-37.1L814,527a13.77,13.77,0,0,0-19.5-19.45l-6.26,6.28a63.87,63.87,0,0,0-14.8-25.42A77,77,0,0,1,821.58,471.62Zm-77.66-69A45.22,45.22,0,0,1,789,447.86c0,.46,0,.92,0,1.38a104.63,104.63,0,0,0-39.31,23.32c-1.82-.69-3.66-1.33-5.55-1.85a63.88,63.88,0,0,0-38.07-47.35A45,45,0,0,1,743.92,402.63Zm-72.79-76.71a85.31,85.31,0,0,1,27.4,4.51,86.27,86.27,0,0,1-3.41,63.6,73.13,73.13,0,0,0-17.64,24.46,65,65,0,0,0-7.35.84,64.31,64.31,0,0,0-29.27,13.35,72.88,72.88,0,0,0-10.42-14.46L662,386.56a13.77,13.77,0,0,0-19.5-19.45L608,401.7a72,72,0,0,0-21.13-6.27,85.94,85.94,0,0,1,84.24-69.51ZM565.61,538.85H553.67a13.76,13.76,0,0,0-25.62,0H514a13.76,13.76,0,0,0-21.48-16.92l-13,13a13.71,13.71,0,0,0-2.72,3.91h-28a108.92,108.92,0,0,1-17.66-55.58H649.61A108.92,108.92,0,0,1,632,538.85H602.79a13.71,13.71,0,0,0-2.72-3.91l-13-13a13.76,13.76,0,0,0-21.48,16.92Zm-32-83.12a45.06,45.06,0,0,1,87.07,0ZM561.74,286.4a108.9,108.9,0,0,1,26,48.63,113.42,113.42,0,0,0-17.48,25.07,13.68,13.68,0,0,0-7.17-2H544.75a13.77,13.77,0,1,0,0,27.54h16.1a114,114,0,0,0-2.12,11.53,72,72,0,0,0-15.58,6.08,69.52,69.52,0,0,0-42.39-32.38l0-.12a69.71,69.71,0,0,0-5.53-17.64ZM345.2,355.27a42.48,42.48,0,0,1,7.26-.63A41.61,41.61,0,0,1,377.53,363a13.77,13.77,0,0,0,19.72-3.42,41.7,41.7,0,0,1,27.85-18.22,42.48,42.48,0,0,1,7.28-.63,41.77,41.77,0,0,1,41.23,34.71,42.21,42.21,0,0,1,.61,7.14,13.77,13.77,0,0,0,12.57,13.69A41.91,41.91,0,0,1,521.36,421a72.6,72.6,0,0,0-15.91,34.77H426.91a23.41,23.41,0,0,0-21.64,14.56,105.09,105.09,0,0,0-97.92-10.63A16.69,16.69,0,0,0,298,469a105.5,105.5,0,0,0-6.42,24.48,41.9,41.9,0,0,1,14-65.69,13.77,13.77,0,0,0,7.2-17.14,41.56,41.56,0,0,1-1.82-6.9A42,42,0,0,1,345.2,355.27Zm8.66,179.81,3.76,3.77H324.54A78,78,0,0,1,322,483.62a77.47,77.47,0,0,1,84.72,25.06,136,136,0,0,0,10.54,30.16H396.52l-23.17-23.22a13.77,13.77,0,0,0-19.5,19.46Zm-86.39-27.65a69.23,69.23,0,0,0,25.11,20.81,106.5,106.5,0,0,0,2.63,10.6H246.12A45.29,45.29,0,0,1,267.47,507.43ZM156.24,100.55H259v57H156.24ZM240,185.08v28.81H175.28V185.08ZM111.52,334.74h89.42a13.77,13.77,0,1,0,0-27.54H111.52V278.9a37.44,37.44,0,0,1,37.34-37.46H266.42a37.44,37.44,0,0,1,37.35,37.46V307.2H278.06a13.77,13.77,0,1,0,0,27.54h25.71V347a69.41,69.41,0,0,0-19.93,61.49l0,.14a69.59,69.59,0,0,0-29.18,69.16c.27,1.58.62,3.13,1,4.67a73,73,0,0,0-18.35,14.42H111.52Zm0,189.64H221.34a72.24,72.24,0,0,0-3,14.46H216a23,23,0,0,0-23,23,348.48,348.48,0,0,0,6,64.33c-4-.32-8-.49-12.14-.49-16.65,0-32.52,2.64-44.67,7.44-18.59,7.34-23.73,17.76-24.85,25-2,1-3.91,2-5.82,3.08V524.38ZM285.89,693.55a52.14,52.14,0,0,1,9.75,9.77h-.51c-7.79,0-21.8-3.14-37.72-12a99.24,99.24,0,0,1-15.8-10.73,13.77,13.77,0,0,0-17.8,0A98.67,98.67,0,0,1,208,691.37c-15.93,8.82-29.93,12-37.72,12h-.52a52.07,52.07,0,0,1,9.75-9.78,13.77,13.77,0,0,0-7-24.43c-13.44-1.58-21.94-5-25.91-7.49,5-3.1,17.59-8.4,40.27-8.4,18.78,0,32.51,3.95,39.1,7.65a13.78,13.78,0,0,0,13.48,0c6.59-3.7,20.32-7.65,39.1-7.65,22.68,0,35.28,5.3,40.27,8.4-4,2.49-12.48,5.91-25.92,7.49a13.77,13.77,0,0,0-7,24.43Zm-219,85c0-41.13,25.13-77,62.14-95.6a59.17,59.17,0,0,0,15.84,8.12,32.62,32.62,0,0,0-4.64,13.61,22.43,22.43,0,0,0,5.48,17c5.39,6.08,13.65,9.16,24.57,9.16,14.55,0,33.64-5.76,51.06-15.41q6-3.33,11.36-7,5.32,3.67,11.36,7c17.42,9.65,36.51,15.4,51.06,15.4h0c10.91,0,19.18-3.08,24.56-9.16a22.42,22.42,0,0,0,5.48-17,32.62,32.62,0,0,0-4.64-13.61A59.29,59.29,0,0,0,336.37,683c29.35,14.75,51.22,40.37,59,70.85l-97.4,37a63,63,0,0,0-39.65,70.31l.47,2.55a62.72,62.72,0,0,0,9.92,24H186.82C120.7,887.74,66.91,838.78,66.91,778.6Zm698.49,96.18A35.63,35.63,0,0,1,738,887.58H723.53l-9-48.76a13.77,13.77,0,0,0-27.08,5l8.1,43.75-47.38,0-6.11-33a13.77,13.77,0,0,0-27.08,5l5.18,28-110.21,0-8.3-44.78a13.77,13.77,0,0,0-27.08,5l7.37,39.77L321,887.73h0a35.61,35.61,0,0,1-35.08-29l-.47-2.55a35.43,35.43,0,0,1,22.35-39.54L361.89,796l4,21.76a13.77,13.77,0,0,0,13.52,11.26,14,14,0,0,0,2.53-.23,13.77,13.77,0,0,0,11-16l-4.94-26.68,80.34-30.52a13.77,13.77,0,0,0-9.78-25.75L421.23,744c-10.49-37.13-37.43-68.15-73.16-85.92-1.12-7.21-6.26-17.64-24.85-25-12.15-4.8-28-7.44-44.67-7.44a139.7,139.7,0,0,0-32.07,3.57v-8.32a13.76,13.76,0,0,0-22.28-10.81,321.7,321.7,0,0,1-3.59-43.75H669.15a13.77,13.77,0,0,0,0-27.54h-5.64a136.32,136.32,0,0,0,13.72-59.71,23.43,23.43,0,0,0-21.14-23.29,36.29,36.29,0,0,1,18.77-9.39,37.15,37.15,0,0,1,6.34-.55,36.39,36.39,0,0,1,35.92,30.24,36.83,36.83,0,0,1,.53,6.22,13.77,13.77,0,0,0,12.57,13.7A36.51,36.51,0,0,1,763,526.16a36,36,0,0,1-.1,12.69H748.1a13.77,13.77,0,1,0,0,27.54h107a317.42,317.42,0,0,1-9.66,73.88l-74.63,44.06a63.22,63.22,0,0,0-83.24-41.48L533.9,701.23A13.77,13.77,0,0,0,543.67,727l20.25-7.69,6.29,33.94a13.78,13.78,0,0,0,13.52,11.27,14,14,0,0,0,2.52-.23,13.77,13.77,0,0,0,11-16l-7.2-38.87,107.28-40.76a35.74,35.74,0,0,1,30.22,2.22,35.38,35.38,0,0,1,17.58,24.48L773,845.69A35.22,35.22,0,0,1,765.39,874.78ZM814.53,767a13.77,13.77,0,0,0-.59,27l102.53,23.52-2.56,17.18L795,813.29,776.47,713,880,651.87l8.62,15.27L801.3,725.51a13.77,13.77,0,0,0,10.14,25l137.17-25.2,3.06,16.49Z" transform="translate(-39.36 -73.01)"/></svg>