<svg id="Layer_1" data-name="Layer 1" xmlns="http://www.w3.org/2000/svg" xmlns:xlink="http://www.w3.org/1999/xlink" viewBox="0 0 951.95 802.92"><defs><style>.cls-1{fill:#c8f29c;}.cls-2{fill:url(#linear-gradient);}.cls-3{fill:url(#linear-gradient-2);}</style><linearGradient id="linear-gradient" x1="384.66" y1="828.22" x2="621.34" y2="828.22" gradientUnits="userSpaceOnUse"><stop offset="0" stop-color="#8dc63f"/><stop offset="0.22" stop-color="#6dbb40"/><stop offset="1" stop-color="#009444"/></linearGradient><linearGradient id="linear-gradient-2" x1="54.91" y1="440.71" x2="951.09" y2="440.71" xlink:href="#linear-gradient"/></defs><title>online shopping</title><path d="M920.32,98.87H85.68A58.71,58.71,0,0,0,27,157.53V723.89a58.71,58.71,0,0,0,58.65,58.65H368l-11.42,91.34H309.25a14,14,0,0,0,0,27.9h387.5a14,14,0,0,0,0-27.9H649.45L638,782.55H920.32A58.71,58.71,0,0,0,979,723.89V157.53A58.71,58.71,0,0,0,920.32,98.87Zm-535.66,775,11.42-91.34H447.4l5,20.15a52.12,52.12,0,0,0,101.12,0l5-20.15h51.32l11.42,91.34Zm91.49-91.34h53.7l-3.35,13.38a24.23,24.23,0,0,1-47,0Zm474.94-58.65a30.81,30.81,0,0,1-30.77,30.77H85.68a30.81,30.81,0,0,1-30.77-30.77V157.53a30.81,30.81,0,0,1,30.77-30.77H920.32a30.81,30.81,0,0,1,30.77,30.77Z" transform="translate(-27.02 -98.87)"/><path class="cls-1" d="M529.85,782.55l-3.35,13.38a24.23,24.23,0,0,1-47,0l-3.33-13.38Z" transform="translate(-27.02 -98.87)"/><path class="cls-2" d="M621.34,873.89H384.66l11.42-91.34H447.4l5,20.15a52.12,52.12,0,0,0,101.12,0l5-20.15h51.32Z" transform="translate(-27.02 -98.87)"/><path class="cls-3" d="M920.32,126.76H85.68a30.81,30.81,0,0,0-30.77,30.77V723.89a30.81,30.81,0,0,0,30.77,30.77H920.32a30.81,30.81,0,0,0,30.77-30.77V157.53A30.81,30.81,0,0,0,920.32,126.76ZM130.38,722.94h-29.8a14,14,0,0,1-14-14V172.43a13.94,13.94,0,0,1,14-13.93H816a13.94,13.94,0,0,1,0,27.88H114.53V695h15.85a14,14,0,0,1,0,27.9ZM392.16,545.55a.84.84,0,0,0,.82.44H652a13.94,13.94,0,0,1,9.36,24.28,43.74,43.74,0,1,1-79.94,3.62H454.33a43.75,43.75,0,1,1-78.74-5.82,29.21,29.21,0,0,1-7.17-7.88,28.69,28.69,0,0,1-1.26-28.05l18.72-37.43a44.11,44.11,0,0,1-7.59-14.94l-51.15-179a1,1,0,0,0-.38-.53l-40.15-26.77a13.94,13.94,0,1,1,15.47-23.2L342.23,277a29,29,0,0,1,11.59,15.6c.25,0,.51,0,.76,0l327.9,14.9a13.95,13.95,0,0,1,13,16.67l-23.44,117.2a58.51,58.51,0,0,1-50.67,46.75L425.48,511.22a43.69,43.69,0,0,1-5.23.3,44.48,44.48,0,0,1-10.9-1.37L392.12,544.6A.85.85,0,0,0,392.16,545.55ZM919.37,709a14,14,0,0,1-14,14H190a14,14,0,0,1,0-27.9H891.46V186.38H875.61a13.94,13.94,0,1,1,0-27.88h29.8a14,14,0,0,1,14,13.93Z" transform="translate(-27.02 -98.87)"/><path d="M829.92,172.43a13.94,13.94,0,0,1-13.93,14H114.53V695h15.85a14,14,0,0,1,0,27.9h-29.8a14,14,0,0,1-14-14V172.43a13.94,13.94,0,0,1,14-13.93H816A13.93,13.93,0,0,1,829.92,172.43Z" transform="translate(-27.02 -98.87)"/><path d="M919.37,172.43V709a14,14,0,0,1-14,14H190a14,14,0,0,1,0-27.9H891.46V186.38H875.61a13.94,13.94,0,1,1,0-27.88h29.8A14,14,0,0,1,919.37,172.43Z" transform="translate(-27.02 -98.87)"/><path d="M692.82,312.87a14,14,0,0,0-10.35-5.33l-327.9-14.9c-.25,0-.51,0-.76,0A29,29,0,0,0,342.23,277l-40.15-26.77a13.94,13.94,0,1,0-15.47,23.2l40.15,26.77a1,1,0,0,1,.38.53l51.15,179a44.11,44.11,0,0,0,7.59,14.94l-18.72,37.43a28.69,28.69,0,0,0,1.26,28.05,29.21,29.21,0,0,0,7.17,7.88,43.75,43.75,0,1,0,78.74,5.82H581.46a43.76,43.76,0,1,0,79.94-3.62A13.94,13.94,0,0,0,652,546H393a1,1,0,0,1-.86-1.39l17.24-34.46a44.48,44.48,0,0,0,10.9,1.37,43.69,43.69,0,0,0,5.23-.3l195.94-23.06a58.51,58.51,0,0,0,50.67-46.75l23.44-117.2A14,14,0,0,0,692.82,312.87Zm-70.6,261a15.86,15.86,0,1,1-15.85,15.85A15.88,15.88,0,0,1,622.22,573.9Zm-208.65,0a15.86,15.86,0,1,1-15.87,15.85A15.88,15.88,0,0,1,413.57,573.9ZM379.37,382l-17.47-61.16,55.75,2.55L427.31,382Zm42.85,101.48a15.81,15.81,0,0,1-17.11-11.4l-17.77-62.17h44.58l11.72,71ZM504,473.89l-32.6,3.84-11.17-67.78H504ZM504,382H455.58l-9.44-57.33L504,327.35Zm70.6,83.54-42.72,5V409.95h47.76ZM582.13,382H531.85V328.62l54.9,2.49Zm62.59,53.89a30.69,30.69,0,0,1-26.58,24.53l-15.28,1.79,4.74-52.31h42.32ZM655.52,382H610.14l4.49-49.68,50.35,2.3Z" transform="translate(-27.02 -98.87)"/><path class="cls-1" d="M649.94,409.95l-5.21,26a30.69,30.69,0,0,1-26.58,24.53l-15.28,1.79,4.74-52.31Z" transform="translate(-27.02 -98.87)"/><polygon class="cls-1" points="637.96 235.79 628.5 283.17 583.12 283.17 587.61 233.5 637.96 235.79"/><polygon class="cls-1" points="559.73 232.23 555.11 283.17 504.83 283.17 504.83 229.75 559.73 232.23"/><polygon class="cls-1" points="476.94 228.48 476.94 283.17 428.55 283.17 419.11 225.85 476.94 228.48"/><polygon class="cls-1" points="400.29 283.17 352.34 283.17 334.87 222.01 390.62 224.56 400.29 283.17"/><path class="cls-1" d="M443.63,481l-21.41,2.53a15.81,15.81,0,0,1-17.11-11.4l-17.77-62.17h44.58Z" transform="translate(-27.02 -98.87)"/><polygon class="cls-1" points="476.94 311.08 476.94 375.02 444.34 378.86 433.17 311.08 476.94 311.08"/><polygon class="cls-1" points="552.58 311.08 547.55 366.72 504.83 371.75 504.83 311.08 552.58 311.08"/><path class="cls-1" d="M429.44,589.75a15.87,15.87,0,1,1-15.87-15.85A15.88,15.88,0,0,1,429.44,589.75Z" transform="translate(-27.02 -98.87)"/><path class="cls-1" d="M638.09,589.75a15.86,15.86,0,1,1-15.87-15.85A15.87,15.87,0,0,1,638.09,589.75Z" transform="translate(-27.02 -98.87)"/></svg>