<svg id="Layer_1" data-name="Layer 1" xmlns="http://www.w3.org/2000/svg" xmlns:xlink="http://www.w3.org/1999/xlink" viewBox="0 0 901.67 960.59"><defs><style>.cls-1{fill:#fff;}.cls-2{fill:url(#linear-gradient);}.cls-3{fill:url(#linear-gradient-2);}.cls-4{fill:url(#linear-gradient-3);}.cls-5{fill:#89c947;}.cls-6{fill:url(#linear-gradient-4);}.cls-7{fill:url(#linear-gradient-5);}.cls-8{fill:url(#linear-gradient-6);}.cls-9{fill:#da1c5c;}.cls-10{fill:#c8f29c;}</style><linearGradient id="linear-gradient" x1="801.37" y1="683.14" x2="801.38" y2="683.14" gradientUnits="userSpaceOnUse"><stop offset="0" stop-color="#00a14b"/><stop offset="1" stop-color="#006838"/></linearGradient><linearGradient id="linear-gradient-2" x1="801.2" y1="683.22" x2="801.3" y2="683.22" xlink:href="#linear-gradient"/><linearGradient id="linear-gradient-3" x1="691.96" y1="779.93" x2="951.37" y2="779.93" xlink:href="#linear-gradient"/><linearGradient id="linear-gradient-4" x1="246.75" y1="350.35" x2="650.05" y2="350.35" xlink:href="#linear-gradient"/><linearGradient id="linear-gradient-5" x1="308.67" y1="138.38" x2="575.08" y2="138.38" gradientUnits="userSpaceOnUse"><stop offset="0" stop-color="#8dc63f"/><stop offset="0.22" stop-color="#6dbb40"/><stop offset="1" stop-color="#009444"/></linearGradient><linearGradient id="linear-gradient-6" x1="250.55" y1="851.34" x2="474.93" y2="851.34" xlink:href="#linear-gradient"/></defs><title>pharmaceutical</title><polygon class="cls-1" points="581.08 442.68 581.08 625.65 404.18 756.07 183.35 756.07 183.35 442.68 581.08 442.68"/><path class="cls-2" d="M801.37,683.14Z" transform="translate(-68.97 -38.98)"/><path class="cls-3" d="M801.2,683.25l.1-.06Z" transform="translate(-68.97 -38.98)"/><path class="cls-4" d="M885.82,831.77,777.43,894.32,692,746.3c5.44-3.17,10.64-6.08,15.57-9,69.77-40.27,88.51-51,92.82-53.56l.13-.13h.13l.13-.13c.13,0,.13,0,.25-.13a.12.12,0,0,0,.13-.13c.13,0,.13,0,.25-.13a131.16,131.16,0,0,1,125.1-3.29V680a120,120,0,0,1,22.79,14.56A131.28,131.28,0,0,1,885.82,831.77Z" transform="translate(-68.97 -38.98)"/><path class="cls-5" d="M767.17,900.28l-108.9,62.81A131.29,131.29,0,0,1,499,941.55a126.74,126.74,0,0,1,1.9-27.73A130.6,130.6,0,0,1,564.58,822l111.3-64.33,6.71-3.93Z" transform="translate(-68.97 -38.98)"/><path class="cls-6" d="M650,469.25v12.41H246.75V469.25c0-2.15.13-4.31.25-6.33a76,76,0,0,1,14.81-38.75l84-111.94,13.55-18.11V219H537.48v75.09l97.63,130A75,75,0,0,1,650,469.25Z" transform="translate(-68.97 -38.98)"/><path class="cls-7" d="M575.08,95.2v86.36A37.5,37.5,0,0,1,537.48,219H346.15a37.3,37.3,0,0,1-32.42-18.74,36.12,36.12,0,0,1-5.07-18.74V95.2a36.12,36.12,0,0,1,5.07-18.74,37.57,37.57,0,0,1,32.42-18.74H537.48A37.58,37.58,0,0,1,575.08,95.2Z" transform="translate(-68.97 -38.98)"/><path class="cls-8" d="M474.93,907.49v.13H325.51A73.36,73.36,0,0,1,276,888.75a74.67,74.67,0,0,1-25.45-56.22V795.05h222.6Z" transform="translate(-68.97 -38.98)"/><path d="M294.11,294.13a18.74,18.74,0,1,1-18.74-18.74A18.7,18.7,0,0,1,294.11,294.13Z" transform="translate(-68.97 -38.98)"/><path class="cls-9" d="M444.21,626.16H387.93V569.88a18.76,18.76,0,0,0-37.52,0v56.28H294.13a18.76,18.76,0,0,0,0,37.52h56.28V720a18.76,18.76,0,0,0,37.52,0V663.68h56.28a18.76,18.76,0,0,0,0-37.52Z" transform="translate(-68.97 -38.98)"/><path d="M950.52,643.1a149.86,149.86,0,0,0-205-55l-76.23,43.94V469.25a94.41,94.41,0,0,0-18.74-56.35L556.72,287.8V234.61a56.35,56.35,0,0,0,37.61-53.06V95.2A56.36,56.36,0,0,0,538,39H200.28A56.26,56.26,0,0,0,144.06,95.2v86.36a56.41,56.41,0,0,0,37.48,53.06V287.8L87.71,412.9A95.27,95.27,0,0,0,69,469.25V832.53a94,94,0,0,0,93.83,93.83H464.29a149.94,149.94,0,0,0,203.86,53.06L895.57,848.11C966.86,807,992.18,715.28,950.52,643.1ZM764.26,620.56a112.64,112.64,0,0,1,153.85,41.28,104.6,104.6,0,0,1,8.36,18V680a112.79,112.79,0,0,1-49.64,135.61l-93.07,53.82L707.53,737.31l-36.34-62.93ZM181.54,95.2a18.86,18.86,0,0,1,18.74-18.74H538A18.78,18.78,0,0,1,556.72,95.2v86.36A18.7,18.7,0,0,1,538,200.3H200.28a18.78,18.78,0,0,1-18.74-18.74ZM117.72,435.44l97.63-130a19.16,19.16,0,0,0,3.8-11.27V237.78h300.1v37.61H350.45a18.74,18.74,0,0,0,0,37.48H528.61l91.93,122.57a57.26,57.26,0,0,1,10.89,27.48H107A57.08,57.08,0,0,1,117.72,435.44Zm-11.14,65.08H631.81V653.74L518.1,719.46a148.62,148.62,0,0,0-56,56.73H106.58ZM162.8,888.75a56.26,56.26,0,0,1-56.22-56.22v-19H447.32a151.38,151.38,0,0,0,.89,75.21Zm374-136.88,101.81-58.75,37.23,64.58,75.34,130.42L649.41,946.87a112.42,112.42,0,0,1-148.53-33,88.23,88.23,0,0,1-5.19-8.1A112.67,112.67,0,0,1,536.84,751.87Z" transform="translate(-68.97 -38.98)"/><path class="cls-10" d="M675.88,757.7,564.58,822a130.6,130.6,0,0,0-63.69,91.8,88.23,88.23,0,0,1-5.19-8.1,112.67,112.67,0,0,1,41.15-153.85l101.81-58.75Z" transform="translate(-68.97 -38.98)"/><path class="cls-10" d="M926.47,679.82a131.16,131.16,0,0,0-125.1,3.29c-.13.13-.13.13-.25.13a.12.12,0,0,1-.13.13c-.13.13-.13.13-.25.13l-.13.13h-.13l-.13.13c-4.31,2.53-23,13.3-92.82,53.56l-36.34-62.93,93.07-53.82a112.64,112.64,0,0,1,153.85,41.28A104.6,104.6,0,0,1,926.47,679.82Z" transform="translate(-68.97 -38.98)"/><path class="cls-10" d="M276,888.75H162.8a56.26,56.26,0,0,1-56.22-56.22v-19h144v19A74.67,74.67,0,0,0,276,888.75Z" transform="translate(-68.97 -38.98)"/><rect class="cls-10" x="37.61" y="461.54" width="145.74" height="275.66"/><path class="cls-10" d="M219.15,237.78v56.35a19.16,19.16,0,0,1-3.8,11.27l-97.63,130A57.08,57.08,0,0,0,107,462.92H247a76,76,0,0,1,14.81-38.75l84-111.94a18.7,18.7,0,0,1,4.69-36.85h8.86V237.78Zm56.22,75.09a18.74,18.74,0,1,1,18.74-18.74A18.7,18.7,0,0,1,275.37,312.87Z" transform="translate(-68.97 -38.98)"/><path class="cls-10" d="M308.67,181.56a36.12,36.12,0,0,0,5.07,18.74H200.28a18.78,18.78,0,0,1-18.74-18.74V95.2a18.86,18.86,0,0,1,18.74-18.74H313.73a36.12,36.12,0,0,0-5.07,18.74Z" transform="translate(-68.97 -38.98)"/></svg>