<svg id="Layer_1" data-name="Layer 1" xmlns="http://www.w3.org/2000/svg" xmlns:xlink="http://www.w3.org/1999/xlink" viewBox="0 0 877.96 940.65"><defs><style>.cls-1{fill:#c8f29c;}.cls-2{fill:#fff;}.cls-3{fill:url(#linear-gradient);}</style><linearGradient id="linear-gradient" x1="116.65" y1="456.04" x2="931.88" y2="456.04" gradientUnits="userSpaceOnUse"><stop offset="0" stop-color="#8dc63f"/><stop offset="0.22" stop-color="#6dbb40"/><stop offset="1" stop-color="#009444"/></linearGradient></defs><title>print and media</title><path d="M900.53,220.86H790.8v-62.7a15.57,15.57,0,0,0-4.61-11.08L692.14,53A15.67,15.67,0,0,0,681,48.43H273.42a15.64,15.64,0,0,0-15.66,15.66V220.86H148a62.72,62.72,0,0,0-62.7,62.73V628.5A62.71,62.71,0,0,0,148,691.2H257.76V863.66H195a15.67,15.67,0,0,0-15.66,15.69v47a62.7,62.7,0,0,0,62.7,62.73h486a62.73,62.73,0,0,0,62.73-62.73V691.2H900.53a62.72,62.72,0,0,0,62.73-62.7V283.58A62.73,62.73,0,0,0,900.53,220.86ZM790.8,252.23h31.35v31.35H790.8ZM696.72,101.93l40.54,40.54H696.72ZM289.11,79.77H665.37v78.39A15.69,15.69,0,0,0,681,173.85h78.42V283.58H289.11ZM226.38,252.23h31.38v31.35H226.38Zm0,62.7H822.14v31.35H226.38Zm0,344.92V644.16a31.36,31.36,0,0,1,31.38-31.35v47Zm15.69,297.88a31.36,31.36,0,0,1-31.35-31.38V895H665.37v31.35a62.3,62.3,0,0,0,8.41,31.38Zm517.38-31.38a31.36,31.36,0,1,1-62.73,0v-47A15.7,15.7,0,0,0,681,863.66H289.11V612.81H759.45Zm62.7-266.5H790.8v-47a31.34,31.34,0,0,1,31.35,31.35ZM931.88,628.5a31.34,31.34,0,0,1-31.35,31.35h-47V644.16a62.69,62.69,0,0,0-62.7-62.7h-533A62.72,62.72,0,0,0,195,644.16v15.69H148a31.34,31.34,0,0,1-31.35-31.35V283.58A31.34,31.34,0,0,1,148,252.23h47V362a15.7,15.7,0,0,0,15.69,15.69H837.83A15.67,15.67,0,0,0,853.49,362V252.23h47a31.34,31.34,0,0,1,31.35,31.35Z" transform="translate(-85.3 -48.43)"/><rect class="cls-1" x="705.5" y="203.81" width="31.35" height="31.35"/><rect class="cls-1" x="141.08" y="203.81" width="31.38" height="31.35"/><rect class="cls-1" x="141.08" y="266.5" width="595.76" height="31.35"/><path class="cls-2" d="M673.78,957.73H242.07a31.36,31.36,0,0,1-31.35-31.38V895H665.37v31.35A62.3,62.3,0,0,0,673.78,957.73Z" transform="translate(-85.3 -48.43)"/><path class="cls-2" d="M289.11,612.81V863.66H681a15.7,15.7,0,0,1,15.69,15.69v47a31.36,31.36,0,1,0,62.73,0V612.81Zm47,47h31.35V691.2H336.14ZM712.41,816.62H336.14V785.27H712.41Zm0-62.7H336.14V722.55H712.41Zm0-62.73H398.84V659.85H712.41Z" transform="translate(-85.3 -48.43)"/><polygon class="cls-2" points="651.97 94.04 611.42 94.04 611.42 53.5 651.97 94.04"/><path class="cls-2" d="M759.45,173.85V283.58H289.11V79.77H665.37v78.39A15.69,15.69,0,0,0,681,173.85Z" transform="translate(-85.3 -48.43)"/><path class="cls-3" d="M900.53,252.23h-47V362a15.67,15.67,0,0,1-15.66,15.69H210.72A15.7,15.7,0,0,1,195,362V252.23H148a31.34,31.34,0,0,0-31.35,31.35V628.5A31.34,31.34,0,0,0,148,659.85h47V644.16a62.72,62.72,0,0,1,62.73-62.7h533a62.69,62.69,0,0,1,62.7,62.7v15.69h47a31.34,31.34,0,0,0,31.35-31.35V283.58A31.34,31.34,0,0,0,900.53,252.23ZM226.38,440.35H195V409h31.35Zm62.73,0H257.76V409h31.35Zm62.7,0H320.45V409H351.8Z" transform="translate(-85.3 -48.43)"/><rect class="cls-1" x="109.73" y="360.58" width="31.35" height="31.35"/><rect class="cls-1" x="172.46" y="360.58" width="31.35" height="31.35"/><rect class="cls-1" x="235.16" y="360.58" width="31.35" height="31.35"/><rect x="250.85" y="611.42" width="31.35" height="31.35"/><rect x="313.54" y="611.42" width="313.57" height="31.35"/><rect x="250.85" y="674.12" width="376.27" height="31.38"/><rect x="250.85" y="736.85" width="376.27" height="31.35"/></svg>