<?xml version="1.0"?>
<svg xmlns="http://www.w3.org/2000/svg" xmlns:xlink="http://www.w3.org/1999/xlink" xmlns:svgjs="http://svgjs.com/svgjs" version="1.1" width="512" height="512" x="0" y="0" viewBox="0 0 150 150" style="enable-background:new 0 0 512 512" xml:space="preserve" class=""><g><link type="text/css" id="dark-mode" rel="stylesheet"/><style type="text/css" id="dark-mode-custom-style"/><path xmlns="http://www.w3.org/2000/svg" d="m124.341 120.1h-11.541a1 1 0 0 1 0-2h11.539a13.674 13.674 0 0 0 13.661-13.662v-32.8a15.746 15.746 0 0 0 -15.648-15.808h-94.7a15.746 15.746 0 0 0 -15.652 15.804v32.8a13.674 13.674 0 0 0 13.659 13.666h11.667a1 1 0 0 1 0 2h-11.667a15.676 15.676 0 0 1 -15.659-15.662v-32.8a17.749 17.749 0 0 1 17.648-17.812h94.7a17.749 17.749 0 0 1 17.652 17.808v32.8a15.676 15.676 0 0 1 -15.659 15.666z" fill="#000000" data-original="#000000" style="" class=""/><path xmlns="http://www.w3.org/2000/svg" d="m112.8 120.1a1 1 0 0 1 -1-1v-7.754h-73.474v7.754a1 1 0 0 1 -2 0v-8.754a1 1 0 0 1 1-1h75.474a1 1 0 0 1 1 1v8.754a1 1 0 0 1 -1 1z" fill="#000000" data-original="#000000" style="" class=""/><path xmlns="http://www.w3.org/2000/svg" d="m106.5 139.865h-62.871a1 1 0 0 1 -1-1v-28.523a1 1 0 0 1 1-1h62.871a1 1 0 0 1 1 1v28.523a1 1 0 0 1 -1 1zm-61.87-2h60.87v-26.523h-60.871z" fill="#000000" data-original="#000000" style="" class=""/><path xmlns="http://www.w3.org/2000/svg" d="m139 81.1h-128a1 1 0 0 1 0-2h128a1 1 0 0 1 0 2z" fill="#000000" data-original="#000000" style="" class=""/><path xmlns="http://www.w3.org/2000/svg" d="m139 96.222h-128a1 1 0 0 1 0-2h128a1 1 0 0 1 0 2z" fill="#000000" data-original="#000000" style="" class=""/><path xmlns="http://www.w3.org/2000/svg" d="m128.1 71.361a4.088 4.088 0 1 1 4.087-4.088 4.093 4.093 0 0 1 -4.087 4.088zm0-6.176a2.088 2.088 0 1 0 2.087 2.088 2.09 2.09 0 0 0 -2.087-2.088z" fill="#000000" data-original="#000000" style="" class=""/><path xmlns="http://www.w3.org/2000/svg" d="m115.826 71.361a4.088 4.088 0 1 1 4.088-4.088 4.093 4.093 0 0 1 -4.088 4.088zm0-6.176a2.088 2.088 0 1 0 2.088 2.088 2.091 2.091 0 0 0 -2.088-2.088z" fill="#000000" data-original="#000000" style="" class=""/><path xmlns="http://www.w3.org/2000/svg" d="m34.071 71.551h-11.333a4.318 4.318 0 1 1 0-8.636h11.333a4.318 4.318 0 1 1 0 8.636zm-11.333-6.636a2.318 2.318 0 1 0 0 4.636h11.333a2.318 2.318 0 1 0 0-4.636z" fill="#000000" data-original="#000000" style="" class=""/><path xmlns="http://www.w3.org/2000/svg" d="m106.562 55.826a1 1 0 0 1 -1-1v-30.766a1 1 0 1 1 2 0v30.766a1 1 0 0 1 -1 1z" fill="#000000" data-original="#000000" style="" class=""/><path xmlns="http://www.w3.org/2000/svg" d="m43.692 55.826a1 1 0 0 1 -1-1v-43.691a1 1 0 0 1 1-1h49.947a1 1 0 0 1 0 2h-48.947v42.691a1 1 0 0 1 -1 1z" fill="#000000" data-original="#000000" style="" class=""/><path xmlns="http://www.w3.org/2000/svg" d="m106.562 25.06h-12.923a1 1 0 0 1 -1-1v-12.925a1 1 0 0 1 1.707-.707l12.924 12.925a1 1 0 0 1 -.708 1.707zm-11.923-2h9.509l-9.509-9.511z" fill="#000000" data-original="#000000" style="" class=""/><path xmlns="http://www.w3.org/2000/svg" d="m99.8 120.979h-49.5a1 1 0 0 1 0-2h49.5a1 1 0 0 1 0 2z" fill="#000000" data-original="#000000" style="" class=""/><path xmlns="http://www.w3.org/2000/svg" d="m99.8 130.229h-49.5a1 1 0 1 1 0-2h49.5a1 1 0 0 1 0 2z" fill="#000000" data-original="#000000" style="" class=""/></g></svg>
