<?xml version="1.0"?>
<svg xmlns="http://www.w3.org/2000/svg" xmlns:xlink="http://www.w3.org/1999/xlink" xmlns:svgjs="http://svgjs.com/svgjs" version="1.1" width="512" height="512" x="0" y="0" viewBox="0 0 512 512" style="enable-background:new 0 0 512 512" xml:space="preserve" class=""><g><link type="text/css" id="black-mode" rel="stylesheet"/><style type="text/css" id="black-mode-custom-style"/><title xmlns="http://www.w3.org/2000/svg">a2</title><path xmlns="http://www.w3.org/2000/svg" d="M451.954,226.723c-.007-.063-.013-.126-.021-.189a6,6,0,0,0-.142-.691c-.01-.037-.022-.072-.033-.108q-.085-.293-.2-.576c-.024-.059-.048-.117-.074-.174-.082-.185-.172-.366-.272-.543-.019-.032-.034-.065-.053-.1a6.053,6.053,0,0,0-.41-.6c-.024-.031-.051-.06-.075-.09a5.711,5.711,0,0,0-.4-.444c-.051-.053-.1-.1-.156-.154-.128-.121-.264-.236-.4-.347-.055-.043-.108-.089-.163-.13-.019-.013-.239-.029-.257-.042L386,177.167V85.1A26.8,26.8,0,0,0,359.184,58H152.816A26.8,26.8,0,0,0,126,85.1v84.284L62.34,222.815l-.1,0A6.076,6.076,0,0,0,60,227.405V412.858a32.388,32.388,0,0,0,8.85,22.263,4.874,4.874,0,0,0,.938.773A32.241,32.241,0,0,0,92.516,445H419.484A32.236,32.236,0,0,0,452,412.858V227.405c0-.039-.007-.077-.008-.115C451.988,227.1,451.976,226.911,451.954,226.723ZM301.7,323.257,440,238.144V412.858a20.366,20.366,0,0,1-2.876,10.423Zm133.072-96.239L386,257.036V191.947ZM152.816,70H359.184A14.792,14.792,0,0,1,374,85.1V264.421L266.566,330.666a19.875,19.875,0,0,1-21.22-.013L138,264.227V85.1A14.792,14.792,0,0,1,152.816,70ZM74.752,423.077A20.368,20.368,0,0,1,72,412.858v-175l138.02,85.165ZM126,256.822,76.824,226.478,126,185.071ZM92.516,433a20.236,20.236,0,0,1-8.791-1.82l137.3-101.466,17.921,11.105a32.344,32.344,0,0,0,34.118.042l17.625-10.835L428.033,431.291A20.254,20.254,0,0,1,419.484,433Z" fill="#028e08" data-original="#000000" style=""/><path xmlns="http://www.w3.org/2000/svg" d="M256,160.919a66,66,0,1,0,66,66A66.145,66.145,0,0,0,256,160.919Zm0,120a54,54,0,1,1,54-54A54.062,54.062,0,0,1,256,280.919Z" fill="#028e08" data-original="#000000" style=""/><path xmlns="http://www.w3.org/2000/svg" d="M256,203.316a8.645,8.645,0,0,1,8.635,8.635,6,6,0,1,0,12,0A20.668,20.668,0,0,0,262,192.212v-2.937a6,6,0,1,0-12,0v2.937a20.632,20.632,0,0,0,6,40.374,8.632,8.632,0,0,1,.106,17.264c-.036,0-.07,0-.106,0s-.07,0-.106,0a8.642,8.642,0,0,1-8.529-8.629,6,6,0,0,0-12,0A20.666,20.666,0,0,0,250,260.959v3.6a6,6,0,0,0,12,0v-3.6a20.632,20.632,0,0,0-6-40.373,8.635,8.635,0,1,1,0-17.27Z" fill="#028e08" data-original="#000000" style=""/><path xmlns="http://www.w3.org/2000/svg" d="M190.5,113h91a6,6,0,0,0,0-12h-91a6,6,0,0,0,0,12Z" fill="#028e08" data-original="#000000" style=""/><path xmlns="http://www.w3.org/2000/svg" d="M300.5,113h21a6,6,0,0,0,0-12h-21a6,6,0,0,0,0,12Z" fill="#028e08" data-original="#000000" style=""/><path xmlns="http://www.w3.org/2000/svg" d="M190.5,143h31a6,6,0,0,0,0-12h-31a6,6,0,0,0,0,12Z" fill="#028e08" data-original="#000000" style=""/><path xmlns="http://www.w3.org/2000/svg" d="M321.5,131h-81a6,6,0,0,0,0,12h81a6,6,0,0,0,0-12Z" fill="#028e08" data-original="#000000" style=""/></g></svg>
