<svg id="Layer_1" data-name="Layer 1" xmlns="http://www.w3.org/2000/svg" xmlns:xlink="http://www.w3.org/1999/xlink" viewBox="0 0 857.45 857.45"><defs><style>.cls-1{fill:#fadbb7;}.cls-2{fill:#f4c08e;}.cls-3{fill:url(#linear-gradient);}.cls-4{fill:#c8f29c;}.cls-5{fill:url(#linear-gradient-2);}.cls-6{fill:url(#linear-gradient-3);}.cls-7{fill:#fff;}.cls-8{fill:#ccc;}.cls-9{fill:#b3b3b3;}</style><linearGradient id="linear-gradient" x1="393.73" y1="126.56" x2="593.8" y2="126.56" gradientUnits="userSpaceOnUse"><stop offset="0" stop-color="#8dc63f"/><stop offset="0.22" stop-color="#6dbb40"/><stop offset="1" stop-color="#009444"/></linearGradient><linearGradient id="linear-gradient-2" x1="136.49" y1="569.58" x2="593.8" y2="569.58" xlink:href="#linear-gradient"/><linearGradient id="linear-gradient-3" x1="650.96" y1="483.83" x2="822.45" y2="483.83" xlink:href="#linear-gradient"/></defs><title>stationery</title><path class="cls-1" d="M207.95,69.4H308A28.58,28.58,0,0,1,336.56,98v57.16A28.58,28.58,0,0,1,308,183.72h-100Z" transform="translate(-93.62 -55.11)"/><path class="cls-2" d="M207.95,153.77v30H308a28.58,28.58,0,0,0,28.58-28.58V98a28.4,28.4,0,0,0-7.73-19.44A714.43,714.43,0,0,1,207.95,153.77Z" transform="translate(-93.62 -55.11)"/><path class="cls-3" d="M393.73,69.4H593.8V183.72H393.73Z" transform="translate(-93.62 -55.11)"/><path class="cls-4" d="M879.61,898.27h57.16V183.72L908.2,69.4,879.61,183.72Z" transform="translate(-93.62 -55.11)"/><path class="cls-1" d="M879.61,240.89l28.58-28.58,28.58,28.58V183.72L908.2,69.4,879.61,183.72Z" transform="translate(-93.62 -55.11)"/><path class="cls-5" d="M136.49,240.89H593.8V898.27H136.49Z" transform="translate(-93.62 -55.11)"/><path class="cls-6" d="M651,69.4H822.45V898.27H651Z" transform="translate(-93.62 -55.11)"/><path class="cls-7" d="M651,69.4h57.16V898.27H651Z" transform="translate(-93.62 -55.11)"/><path class="cls-7" d="M107.91,69.4h157.2V183.72H107.91Z" transform="translate(-93.62 -55.11)"/><path class="cls-2" d="M879.61,841.1h57.16v57.16H879.61Z" transform="translate(-93.62 -55.11)"/><path class="cls-8" d="M393.73,126.56H536.63v57.16H393.73Z" transform="translate(-93.62 -55.11)"/><path class="cls-9" d="M457.5,183.72h79.14V126.56H522.05a215.08,215.08,0,0,1-64.55,57.16Z" transform="translate(-93.62 -55.11)"/><path d="M593.8,226.6H136.49a14.29,14.29,0,0,0-14.29,14.29v28.58H93.62v28.58H122.2v28.58H93.62v28.58H122.2V383.8H93.62v28.58H122.2V441H93.62v28.58H122.2v28.58H93.62V526.7H122.2v28.58H93.62v28.58H122.2v28.58H93.62V641H122.2v28.58H93.62v28.58H122.2v28.58H93.62v28.58H122.2v28.58H93.62v28.58H122.2V841.1H93.62v28.58H122.2v28.58a14.29,14.29,0,0,0,14.29,14.29H593.8a14.29,14.29,0,0,0,14.29-14.29V240.89A14.29,14.29,0,0,0,593.8,226.6ZM579.51,884H150.78V255.18H579.51Z" transform="translate(-93.62 -55.11)"/><path d="M822.45,55.11H651A14.29,14.29,0,0,0,636.67,69.4V898.27A14.29,14.29,0,0,0,651,912.56H822.45a14.29,14.29,0,0,0,14.29-14.29V69.4A14.29,14.29,0,0,0,822.45,55.11ZM665.25,884V83.69h28.58V884Zm57.16,0V83.69h85.74v42.87H751v28.58h57.16v28.58H779.58v28.58h28.58v28.58H751v28.58h57.16v28.58H779.58v28.58h28.58v28.58H751V383.8h57.16v28.58H779.58V441h28.58v28.58H751v28.58h57.16V526.7H779.58v28.58h28.58v28.58H751v28.58h57.16V641H779.58v28.58h28.58v28.58H751v28.58h57.16v28.58H779.58v28.58h28.58v28.58H751V841.1h57.16V884Z" transform="translate(-93.62 -55.11)"/><path d="M107.91,198H308a42.92,42.92,0,0,0,42.87-42.87V98A42.92,42.92,0,0,0,308,55.11H107.91A14.29,14.29,0,0,0,93.62,69.4V183.72A14.29,14.29,0,0,0,107.91,198ZM322.27,98v57.16A14.31,14.31,0,0,1,308,169.43H279.4V83.69H308A14.31,14.31,0,0,1,322.27,98ZM122.2,83.69H250.82v85.74H122.2Z" transform="translate(-93.62 -55.11)"/><path d="M950.64,180.26,922.05,65.93a14.29,14.29,0,0,0-27.72,0L865.76,180.26a13.89,13.89,0,0,0-.43,3.47V898.27a14.29,14.29,0,0,0,14.29,14.29h57.16a14.29,14.29,0,0,0,14.29-14.29V183.72A13.89,13.89,0,0,0,950.64,180.26ZM922.49,826.81H893.9v-580l14.29-14.29,14.29,14.29ZM893.9,185.48l14.29-57.16,14.29,57.16v20.9l-4.19-4.19a14.29,14.29,0,0,0-20.21,0l-4.19,4.19ZM922.49,884H893.9V855.39h28.58Z" transform="translate(-93.62 -55.11)"/><path d="M408,312.34h57.16v28.58H408Z" transform="translate(-93.62 -55.11)"/><path d="M493.76,312.34h57.16v28.58H493.76Z" transform="translate(-93.62 -55.11)"/><path d="M179.36,383.8H550.93v28.58H179.36Z" transform="translate(-93.62 -55.11)"/><path d="M179.36,455.25H550.93v28.58H179.36Z" transform="translate(-93.62 -55.11)"/><path d="M179.36,526.7H550.93v28.58H179.36Z" transform="translate(-93.62 -55.11)"/><path d="M179.36,669.61H550.93v28.58H179.36Z" transform="translate(-93.62 -55.11)"/><path d="M179.36,598.16H550.93v28.58H179.36Z" transform="translate(-93.62 -55.11)"/><path d="M179.36,741.07H550.93v28.58H179.36Z" transform="translate(-93.62 -55.11)"/><path d="M179.36,812.52H550.93V841.1H179.36Z" transform="translate(-93.62 -55.11)"/><path d="M593.8,55.11H393.73A14.29,14.29,0,0,0,379.44,69.4V183.72A14.29,14.29,0,0,0,393.73,198H593.8a14.29,14.29,0,0,0,14.29-14.29V69.4A14.29,14.29,0,0,0,593.8,55.11ZM465.18,169.43H408V140.85H522.34v28.58Zm114.33,0H550.93V126.56a14.29,14.29,0,0,0-14.29-14.29H408V83.69H579.51Z" transform="translate(-93.62 -55.11)"/><circle cx="371.56" cy="100.03" r="14.29"/></svg>