<svg id="Layer_1" data-name="Layer 1" xmlns="http://www.w3.org/2000/svg" viewBox="0 0 752.38 897.97"><defs><style>.cls-1{fill:#39b54a;}.cls-1,.cls-2{isolation:isolate;}.cls-2{fill:#006838;}</style></defs><title>fav</title><path class="cls-1" d="M856.95,722.55a640.26,640.26,0,0,1-86.08,43.83v66.43H190.64v-78a630,630,0,0,1-86.08-48.76V867.66a28.09,28.09,0,0,0,.4,4.15,28.07,28.07,0,0,0-.4,4,43.22,43.22,0,0,0,43,43.14H813.91a43.22,43.22,0,0,0,43-43.14,28.07,28.07,0,0,0-.4-4,28.09,28.09,0,0,0,.4-4.15Z" transform="translate(-104.56 -21.01)"/><path class="cls-1" d="M694.73,234.9V235H628.07v-.08c0-81.16-66.07-147.23-147.31-147.23S333.44,153.74,333.44,234.9V235H266.79v-.08c0-117.9,96-213.89,214-213.89S694.73,117,694.73,234.9Z" transform="translate(-104.56 -21.01)"/><path class="cls-2" d="M333.77,506.27a44.74,44.74,0,0,1-66.83,1.38c-.1-3.26-.2-6.42-.2-9.67h66.73Q333.48,502.13,333.77,506.27Z" transform="translate(-104.56 -21.01)"/><path class="cls-2" d="M694.76,498c0,2.07,0,4.15-.2,6.22a44.71,44.71,0,0,1-67,4.94A104.32,104.32,0,0,0,628,498Z" transform="translate(-104.56 -21.01)"/><path class="cls-2" d="M344.53,477.15a44.45,44.45,0,0,1-10.76,29.12,44.74,44.74,0,0,1-66.83,1.38,44.27,44.27,0,0,1-12-30.5,44.82,44.82,0,1,1,89.63,0Z" transform="translate(-104.56 -21.01)"/><path class="cls-2" d="M703.75,477.15a43.66,43.66,0,0,1-9.18,27,44.77,44.77,0,0,1-80.45-27,44.82,44.82,0,1,1,89.63,0Z" transform="translate(-104.56 -21.01)"/><path class="cls-1" d="M190.64,539V754.83a630,630,0,0,1-86.08-48.76V490.28A629.85,629.85,0,0,0,190.64,539Z" transform="translate(-104.56 -21.01)"/><path class="cls-1" d="M856.95,506.77V722.55a640.26,640.26,0,0,1-86.08,43.83V550.59A640.26,640.26,0,0,0,856.95,506.77Z" transform="translate(-104.56 -21.01)"/><path class="cls-2" d="M677.59,581.79C645,658.29,569,712,480.66,712a225,225,0,0,1-57.94-7.7c-67.32-17.87-119-67.91-142.44-130.79a705.34,705.34,0,0,0,88.25,20.83A139.37,139.37,0,0,0,433.67,638c60.21,18.76,117.57-.2,154.19-39A713.35,713.35,0,0,0,677.59,581.79Z" transform="translate(-104.56 -21.01)"/><path class="cls-1" d="M856.85,322.67c0,.49.1.89.1,1.38V506.77a640.26,640.26,0,0,1-86.08,43.83V364.32H190.64V539a629.85,629.85,0,0,1-86.08-48.76V324c0-.49.1-.89.1-1.38s-.1-.89-.1-1.38a43.14,43.14,0,0,1,43-43H813.91a43.14,43.14,0,0,1,43,43C856.95,321.78,856.85,322.17,856.85,322.67Z" transform="translate(-104.56 -21.01)"/><path class="cls-2" d="M694.57,504.2a210.2,210.2,0,0,1-17,77.59A713.35,713.35,0,0,1,587.86,599a146.53,146.53,0,0,0,39.68-89.83,44.71,44.71,0,0,0,67-4.94Z" transform="translate(-104.56 -21.01)"/><path class="cls-2" d="M368.52,594.32a705.34,705.34,0,0,1-88.25-20.83,215.88,215.88,0,0,1-13.33-65.84,44.74,44.74,0,0,0,66.83-1.38,148.54,148.54,0,0,0,27.15,78.28C363.29,587.91,365.86,591.16,368.52,594.32Z" transform="translate(-104.56 -21.01)"/></svg>